<svg width="90" height="90" viewBox="0 0 90 90" fill="none" xmlns="http://www.w3.org/2000/svg">
<path d="M31.3845 40.3281C29.557 40.3281 27.518 41.032 27.0905 43.3488C27.0455 43.5955 27.2079 43.7123 27.3654 43.7474L29.2378 43.9724C29.4108 43.9626 29.5289 43.7755 29.562 43.5977C29.7223 42.8003 30.3776 42.4241 31.1095 42.4241C31.5054 42.4241 31.9484 42.5598 32.1832 42.9234C32.4511 43.3284 32.4321 43.8789 32.4321 44.3465V44.6214C31.3198 44.7494 29.8545 44.8267 28.8131 45.295C27.6115 45.8294 26.7656 46.9171 26.7656 48.5153C26.7656 50.5635 28.0207 51.5852 29.6365 51.5852C31.0005 51.5852 31.755 51.2645 32.8069 50.1634C33.1563 50.6823 33.2681 50.9179 33.9052 51.4614C33.9759 51.5014 34.0574 51.5181 34.1382 51.5092C34.219 51.5002 34.2949 51.466 34.3552 51.4115V51.4361C34.7384 51.0866 35.4345 50.451 35.8275 50.1135C35.9836 49.982 35.9498 49.7669 35.8275 49.589C35.4759 49.0919 35.104 48.6918 35.104 47.7665V44.6966C35.104 43.3959 35.2137 42.1963 34.2799 41.302C33.5445 40.577 32.3175 40.3281 31.3845 40.3281ZM56.5465 40.3281C54.7184 40.3281 52.6807 41.032 52.2532 43.3488C52.2082 43.5955 52.3699 43.7123 52.5274 43.7474L54.4005 43.9724C54.5735 43.9626 54.6923 43.7755 54.7247 43.5977C54.8857 42.8003 55.541 42.4241 56.2723 42.4241C56.6688 42.4241 57.1111 42.5598 57.3452 42.9234C57.6131 43.3284 57.5695 43.8789 57.5695 44.3465V44.6214C56.4572 44.7494 55.0172 44.8267 53.9752 45.295C52.7721 45.8294 51.9291 46.9171 51.9291 48.5153C51.9291 50.5635 53.1841 51.5852 54.7992 51.5852C56.1619 51.5852 56.9163 51.2645 57.9696 50.1634C58.3177 50.6823 58.4309 50.9179 59.0686 51.4614C59.1392 51.5015 59.2206 51.5182 59.3013 51.5093C59.382 51.5003 59.4578 51.4661 59.5179 51.4115V51.4361C59.9018 51.0866 60.5986 50.451 60.9909 50.1135C61.147 49.982 61.1112 49.7669 60.9909 49.589C60.6394 49.0919 60.2667 48.6918 60.2667 47.7665V44.6966C60.2667 43.3959 60.3511 42.1963 59.4187 41.302C58.6805 40.577 57.4788 40.3281 56.5465 40.3281ZM42.3926 40.428C41.2113 40.428 40.3366 41.0242 39.8719 42.3004H39.8466V40.9771C39.8405 40.8865 39.8018 40.8012 39.7377 40.737C39.6736 40.6728 39.5884 40.6339 39.4978 40.6277H37.6999C37.6009 40.6289 37.5063 40.6688 37.4363 40.7388C37.3663 40.8088 37.3264 40.9034 37.3252 41.0024V51.112C37.334 51.2017 37.3738 51.2857 37.4376 51.3494C37.5015 51.4131 37.5855 51.4527 37.6753 51.4614H39.597C39.696 51.4605 39.7907 51.4207 39.8607 51.3506C39.9307 51.2805 39.9703 51.1857 39.971 51.0866V45.7197C39.971 44.5497 39.9148 42.9494 41.2943 42.9494C42.6562 42.9494 42.4671 44.594 42.4671 45.7197V51.0866C42.4671 51.2772 42.6232 51.4487 42.8173 51.4614H44.7389C44.9428 51.4614 45.113 51.2905 45.113 51.0866V45.7197C45.113 45.1459 45.0898 44.3092 45.2873 43.798C45.4849 43.2869 45.9701 42.9494 46.4362 42.9494C46.991 42.9494 47.4164 43.1427 47.5598 43.8227C47.6484 44.227 47.6098 45.295 47.6098 45.7197V51.0866C47.6098 51.2772 47.7659 51.4487 47.9585 51.4614H49.8809C50.0848 51.4614 50.2549 51.2905 50.2549 51.0866V44.6966C50.2549 43.6103 50.3632 42.3777 49.7557 41.5262C49.2178 40.7612 48.3389 40.4273 47.5338 40.4273C46.4053 40.4273 45.3534 41.0235 44.888 42.2997C44.3508 41.0242 43.5928 40.428 42.3926 40.428ZM75.0682 40.428C72.2916 40.428 70.7496 42.8699 70.7496 46.0199C70.7496 49.1474 72.2733 51.6604 75.0682 51.6604C77.7562 51.6604 79.462 49.2051 79.462 46.1191C79.462 42.929 77.9166 40.428 75.0682 40.428ZM86.0264 40.428C84.6996 40.428 83.9409 41.091 83.4052 42.4748H83.3805V40.9272C83.3461 40.7711 83.1991 40.6621 83.0311 40.653H81.2585C81.167 40.6509 81.0779 40.6829 81.0087 40.7428C80.9394 40.8027 80.8949 40.8862 80.8837 40.9771V51.0866C80.8837 51.2772 81.0419 51.4487 81.2332 51.4614H83.1309C83.2297 51.4598 83.3239 51.4197 83.3936 51.3497C83.4633 51.2798 83.503 51.1854 83.5043 51.0866V45.6452C83.5043 44.9631 83.5627 44.3409 83.8298 43.7235C84.045 43.2334 84.4619 42.9241 84.9281 42.9241C86.2521 42.9241 86.1255 44.5377 86.1255 45.6452V51.1373C86.1385 51.2231 86.1802 51.3019 86.2438 51.3609C86.3074 51.4199 86.3892 51.4556 86.4757 51.4621H88.3973C88.4884 51.4622 88.5764 51.4293 88.6451 51.3696C88.7138 51.3099 88.7587 51.2274 88.7714 51.1373V44.7719C88.7714 43.7931 88.7735 42.4347 88.2722 41.6261C87.735 40.7535 86.8835 40.428 86.0264 40.428ZM62.9618 40.603C62.7663 40.603 62.6123 40.7577 62.6116 40.9771V42.4248C62.6123 42.6428 62.7614 42.7982 62.9618 42.7996H66.2566L62.4872 48.3655C62.258 48.7248 62.2383 49.1312 62.2383 49.3647V50.8377C62.2383 51.0501 62.4689 51.2807 62.6876 51.1619C64.8363 49.9891 67.4105 50.0931 69.3525 51.1373C69.5887 51.2659 69.8271 51.0248 69.8271 50.8124V49.2641C69.8216 49.1501 69.7865 49.0395 69.7252 48.9432C69.6639 48.8469 69.5786 48.7683 69.4776 48.715C68.3752 48.0815 67.0955 47.8867 65.884 47.9162L69.1535 43.1245C69.4559 42.6934 69.6246 42.4347 69.6274 42.2252V40.9778C69.6274 40.7627 69.4805 40.6037 69.2787 40.6037H62.9618V40.603ZM75.0682 42.5001C75.6764 42.5001 76.1257 42.7715 76.3416 43.4732C76.5905 44.2832 76.6165 45.2929 76.6165 46.1444C76.6165 47.4423 76.556 49.589 75.0689 49.589C73.5649 49.589 73.5713 46.9312 73.5713 45.6951C73.5705 44.4625 73.6535 42.5001 75.0682 42.5001ZM32.4075 46.1943V46.619C32.4075 47.3868 32.4356 48.0323 32.058 48.715C31.7529 49.2705 31.2734 49.6143 30.7355 49.6143C30.0007 49.6143 29.5627 49.0173 29.5627 48.1659C29.562 46.4875 31.0209 46.1943 32.4075 46.1943ZM57.5695 46.1943V46.619C57.5695 47.3868 57.5977 48.0323 57.2208 48.715C56.9149 49.2705 56.4389 49.6143 55.8975 49.6143C55.1613 49.6143 54.724 49.0173 54.724 48.1659C54.724 46.4875 56.1816 46.1943 57.5695 46.1943Z" fill="#201C1D"/>
<path d="M70.0213 51.7891V53.2375H70.9959V51.7891H70.0213ZM41.7895 52.0394V62.3486H42.688V61.4247C42.8793 61.791 43.0973 62.0645 43.3616 62.248C43.626 62.4323 43.9284 62.523 44.2595 62.523C44.9198 62.523 45.49 62.1862 45.9822 61.4999C46.4751 60.813 46.731 59.818 46.731 58.5545C46.731 57.7263 46.6248 57.04 46.4062 56.4585C46.1875 55.8777 45.8964 55.4453 45.5329 55.1598C45.168 54.8744 44.7545 54.7105 44.3102 54.7105C43.9923 54.7105 43.6956 54.7935 43.4355 54.9595C43.1767 55.1254 42.9672 55.3968 42.7619 55.7336V52.0394H41.7895ZM51.025 54.4602C50.3486 54.4602 49.81 54.6606 49.4282 55.0593C49.0464 55.458 48.8552 55.9705 48.8552 56.6076C48.8552 56.9767 48.936 57.291 49.0787 57.5807C49.2208 57.8711 49.4233 58.1066 49.6778 58.2796C49.9337 58.4526 50.4442 58.6804 51.2008 58.9286C51.7246 59.0973 52.0375 59.2408 52.1746 59.3533C52.3722 59.5171 52.4748 59.7316 52.4748 60.0276C52.4748 60.3693 52.3553 60.6548 52.1247 60.8763C51.8941 61.0991 51.572 61.2004 51.1509 61.2004C50.729 61.2004 50.3816 61.0823 50.1278 60.8263C49.8733 60.5704 49.7362 60.1809 49.6778 59.6535L48.7047 59.8525C48.9248 61.4542 49.7235 62.2502 51.1009 62.2487C51.8357 62.2487 52.3975 62.0413 52.8229 61.5998C53.2476 61.1582 53.4726 60.5655 53.4726 59.8525C53.4726 59.4672 53.4037 59.1339 53.2729 58.8548C53.1524 58.5921 52.9622 58.3674 52.723 58.2051C52.4868 58.0441 51.9573 57.8282 51.1509 57.5561C50.5645 57.3508 50.222 57.2003 50.1032 57.1061C49.9035 56.9486 49.803 56.7334 49.803 56.4578C49.803 56.1766 49.8965 55.9382 50.1032 55.7582C50.3099 55.5789 50.6284 55.484 51.0517 55.484C51.7956 55.484 52.2119 55.8925 52.2991 56.7067L53.2483 56.557C53.1822 56.0423 53.0704 55.6345 52.8995 55.3581C52.7161 55.0695 52.4571 54.8365 52.1507 54.6845C51.8237 54.5214 51.4532 54.4602 51.025 54.4602ZM56.9917 54.4602C56.2119 54.4602 55.5531 54.7816 55.0441 55.4587C54.5357 56.1358 54.2966 57.1166 54.2966 58.4041C54.2966 59.6444 54.5413 60.6161 55.0441 61.2749C55.5489 61.9316 56.2014 62.248 57.017 62.248C57.6646 62.248 58.2018 62.054 58.6391 61.649C59.0779 61.2447 59.3964 60.6484 59.5623 59.8511L58.5639 59.6767C58.2777 60.697 57.7483 61.1976 57.017 61.199C56.5502 61.199 56.1691 61.0014 55.8435 60.5753C55.5173 60.1485 55.333 59.5157 55.2951 58.6783H59.5877V58.3288C59.5877 57.0688 59.3366 56.1231 58.8388 55.458C58.3403 54.7935 57.7356 54.4602 56.9917 54.4602ZM62.9078 54.4602C62.6751 54.4602 62.4712 54.539 62.2834 54.7098C62.0957 54.88 61.8848 55.233 61.6591 55.7575V54.6093H60.7851V62.073H61.7589V58.1791C61.7589 57.6363 61.8109 57.1131 61.934 56.6315C62.0043 56.3545 62.1372 56.1372 62.308 55.9825C62.4796 55.8271 62.6758 55.7575 62.8818 55.7575C63.111 55.7575 63.3388 55.8496 63.5807 56.0324L63.9055 54.8596C63.5666 54.5882 63.2341 54.4602 62.9078 54.4602ZM74.8391 54.4602C74.0685 54.4602 73.4336 54.7851 72.9414 55.4341C72.452 56.083 72.194 57.0576 72.194 58.3541C72.194 59.6416 72.4555 60.6168 72.9414 61.2749C73.4287 61.9316 74.0376 62.248 74.7892 62.248C75.4108 62.248 75.9437 62.0174 76.3867 61.5491C76.8297 61.0816 77.0997 60.3918 77.2108 59.5023L76.2616 59.3526C76.1905 59.9889 76.0253 60.4473 75.7623 60.7504C75.5001 61.0527 75.1837 61.1997 74.8138 61.1997C74.3427 61.1997 73.9412 60.9796 73.6396 60.5261C73.3394 60.0719 73.191 59.3448 73.191 58.3295C73.191 57.3452 73.3506 56.635 73.6649 56.1829C73.9799 55.7301 74.3828 55.484 74.863 55.484C75.1844 55.484 75.4586 55.6084 75.6871 55.8573C75.917 56.1077 76.0689 56.5028 76.161 57.0062L77.1109 56.8073C76.997 56.0205 76.7446 55.4277 76.3361 55.0347C75.9283 54.6409 75.4333 54.4602 74.8391 54.4602ZM80.4058 54.4602C79.6253 54.4602 78.9672 54.7816 78.4581 55.4587C77.9498 56.1358 77.7093 57.1166 77.7093 58.4041C77.7093 59.6444 77.9547 60.6161 78.4581 61.2749C78.9637 61.9316 79.6155 62.248 80.4304 62.248C81.0759 62.248 81.6152 62.054 82.0532 61.649C82.4905 61.2447 82.8091 60.6484 82.9771 59.8511L81.9787 59.6767C81.6904 60.697 81.1855 61.1976 80.4557 61.199C79.9888 61.199 79.5831 61.0014 79.2576 60.5753C78.932 60.1485 78.7478 59.5157 78.7084 58.6783H83.0017V58.3288C83.0017 57.0688 82.7507 56.1231 82.2529 55.458C81.7565 54.7935 81.1504 54.4602 80.4058 54.4602ZM86.1728 54.4602C85.4936 54.4602 84.9571 54.6606 84.5753 55.0593C84.1921 55.4573 84.0009 55.9705 84.0009 56.6076C84.0009 56.9767 84.0585 57.291 84.2005 57.5807C84.3412 57.8711 84.5444 58.1066 84.8003 58.2796C85.0541 58.4526 85.5667 58.6804 86.3233 58.9286C86.8457 59.0973 87.1853 59.2408 87.3217 59.3533C87.5193 59.5171 87.6213 59.7316 87.6213 60.0276C87.6213 60.3693 87.5031 60.6548 87.2718 60.8763C87.0426 61.0991 86.7198 61.2004 86.2987 61.2004C85.8754 61.2004 85.5294 61.0823 85.2749 60.8263C85.0211 60.5704 84.8566 60.1809 84.8003 59.6535L83.8272 59.8525C84.0473 61.4542 84.8439 62.2502 86.2227 62.2487C86.9589 62.2487 87.5453 62.0413 87.97 61.5998C88.3947 61.1582 88.6183 60.5655 88.6183 59.8525C88.6183 59.4672 88.5508 59.1339 88.42 58.8548C88.2906 58.5904 88.0921 58.3659 87.8455 58.2051C87.6093 58.0441 87.1044 57.8282 86.2987 57.5561C85.7116 57.3508 85.3445 57.2003 85.225 57.1061C85.026 56.9486 84.9255 56.7334 84.9255 56.4578C84.9255 56.1766 85.0429 55.9382 85.2503 55.7582C85.457 55.5789 85.7777 55.484 86.1995 55.484C86.9434 55.484 87.359 55.8925 87.4469 56.7067L88.3954 56.557C88.3293 56.0423 88.2182 55.6345 88.0459 55.3581C87.8627 55.0695 87.604 54.8365 87.2978 54.6845C86.9723 54.5214 86.5989 54.4602 86.1728 54.4602ZM63.9062 54.61L66.0789 62.0737H67.0021L69.1741 54.61H68.1756L66.9023 59.1782C66.7483 59.7302 66.6119 60.2076 66.5275 60.6006C66.422 60.1049 66.3194 59.5839 66.1787 59.0777L64.9307 54.61H63.9062ZM70.0213 54.61V62.0737H70.9959V54.61H70.0213ZM38.02 54.7105C37.248 54.7105 36.6271 55.0565 36.1237 55.7336C35.6195 56.4107 35.3488 57.3916 35.3488 58.679C35.3488 59.92 35.5984 60.8678 36.0977 61.5245C36.5962 62.182 37.2627 62.523 38.0706 62.523C38.7112 62.523 39.2343 62.3036 39.6674 61.8986C40.1005 61.4943 40.4001 60.898 40.5667 60.1014L39.5929 59.9516C39.3088 60.9719 38.7941 61.4725 38.0706 61.4739C37.6073 61.4739 37.2198 61.2763 36.8971 60.8495C36.5737 60.4234 36.3859 59.7906 36.348 58.9532H40.5913L40.6166 58.6038C40.6166 57.3438 40.3607 56.3734 39.8678 55.7076C39.3749 55.0431 38.7562 54.7105 38.02 54.7105ZM27.0625 54.8849L28.8098 62.3486H29.8328L30.9817 56.6076L31.1814 57.8802L32.1046 62.3486H33.103L34.8756 54.8849H33.9524L32.9779 59.2028L32.653 60.6513L32.3535 59.2028L31.5048 54.8842H30.5064L29.6078 59.2527L29.3083 60.8003L28.9595 59.2028L28.0602 54.8842H27.0625V54.8849ZM56.9664 55.484C57.4516 55.484 57.8509 55.7181 58.1645 56.1829C58.3797 56.5007 58.5203 56.9845 58.5632 57.6306H55.3429C55.3738 56.9753 55.5587 56.4705 55.8681 56.083C56.1775 55.6963 56.5312 55.484 56.9664 55.484ZM80.3805 55.484C80.8642 55.484 81.265 55.7181 81.5786 56.1829C81.7952 56.5007 81.9344 56.9845 81.9787 57.6306H78.7577C78.7886 56.9753 78.9742 56.4705 79.2822 56.083C79.5895 55.6963 79.9452 55.484 80.3805 55.484ZM38.02 55.7582C38.4995 55.7582 38.8848 55.993 39.1942 56.4578C39.408 56.7756 39.5493 57.2594 39.5929 57.9056H36.4218C36.452 57.2502 36.6152 56.7194 36.9217 56.3334C37.2269 55.9452 37.5883 55.7582 38.02 55.7582ZM44.211 55.7582C44.6434 55.7582 45.0126 55.9987 45.31 56.4578C45.6074 56.9162 45.7347 57.6243 45.7347 58.6045C45.7347 59.5586 45.5941 60.2709 45.2847 60.7511C44.976 61.232 44.6097 61.4746 44.2117 61.4746C43.9192 61.4746 43.6534 61.3762 43.413 61.1751C43.1711 60.974 42.9946 60.6857 42.8631 60.3018C42.7323 59.9179 42.6641 59.3266 42.6641 58.5545C42.6641 57.6447 42.8266 56.9634 43.138 56.4824C43.4495 56.0015 43.813 55.7582 44.211 55.7582Z" fill="black"/>
<path d="M13.0714 47.8461L9.35187 49.4429L12.7965 50.9159L16.7909 49.4429L13.0714 47.8461ZM7.48016 49.8423L7.355 57.0324L12.7972 59.4287V51.9643L7.48016 49.8423ZM18.6627 49.8423L13.745 51.7147V58.7544L18.6627 56.7575V49.8423ZM24.5288 27.4766L20.784 29.0734L24.2539 30.5464L28.2484 29.0734L24.5288 27.4766ZM19.3362 29.5986V36.7873L23.9797 38.1352L24.1294 31.5948L19.3362 29.5986ZM29.7207 29.9973L25.3269 31.8697V38.934L29.7207 36.9371V29.9973ZM6.94227 37.5945L3.22273 39.192L6.66734 40.6651L10.6611 39.192L6.94227 37.5945ZM1.35172 39.5921L1.22656 46.7809L6.66805 49.1771V41.7134L1.35172 39.5921ZM12.5342 39.5921L7.61656 41.4638V48.5035L12.5342 46.5066V39.5921ZM18.9242 37.3295L15.2047 38.9262L18.6493 40.3986L22.643 38.9262L18.9242 37.3295ZM13.333 39.3256L13.2085 46.5151L18.65 48.9113V41.4477L13.333 39.3256ZM24.5162 39.3256L19.5985 41.198V48.2377L24.5162 46.2402V39.3256ZM36.2316 27.4766L32.5128 29.0734L35.9574 30.5464L39.9519 29.0734L36.2316 27.4766ZM30.6404 29.4734L30.5152 36.6629L35.9574 39.0584V31.5955L30.6404 29.4734ZM41.8229 29.4734L36.9052 31.3459V38.3848L41.8229 36.388V29.4734Z" fill="#F7A80D"/>
</svg>
