<svg width="70" height="71" viewBox="0 0 70 71" fill="none" xmlns="http://www.w3.org/2000/svg">
<path d="M8.20563 8.28852C8.07602 4.56156 10.9794 1.125 14.9043 1.125H55.1215C59.0464 1.125 61.9498 4.56156 61.8202 8.28852C61.6955 11.8684 61.8574 16.5059 63.0244 20.287C64.1952 24.0801 66.1695 26.477 69.4031 26.7855V30.2784C66.1695 30.5863 64.1952 32.9837 63.0244 36.7769C61.8574 40.558 61.6955 45.1955 61.8202 48.7753C61.9498 52.5023 59.0464 55.9383 55.1215 55.9383H14.9043C10.9794 55.9383 8.07602 52.5017 8.20563 48.7753C8.33031 45.1955 8.16844 40.558 7.00086 36.7769C5.83055 32.9843 3.85086 30.5868 0.617188 30.2784V26.7855C3.85086 26.4776 5.83055 24.0801 7.00086 20.287C8.16844 16.5059 8.32977 11.8684 8.20563 8.28852Z" fill="url(#paint0_linear_2727_4551)"/>
<g filter="url(#filter0_d_2727_4551)">
<path d="M36.7026 43.2936C43.0568 43.2936 46.8857 40.1824 46.8857 35.0508C46.8857 31.1718 44.1537 28.3636 40.097 27.9191V27.7575C43.0774 27.2726 45.4163 24.5048 45.4163 21.4138C45.4163 17.0096 41.9391 14.1406 36.6406 14.1406H24.7188V43.2936H36.7026ZM29.355 17.8378H35.5229C38.8759 17.8378 40.78 19.3328 40.78 22.04C40.78 24.9291 38.5655 26.5453 34.5501 26.5453H29.355V17.8378ZM29.355 39.5964V30H35.4814C39.8693 30 42.146 31.6161 42.146 34.7679C42.146 37.9195 39.9315 39.5964 35.7505 39.5964H29.355Z" fill="url(#paint1_linear_2727_4551)"/>
<path d="M36.7026 43.2936C43.0568 43.2936 46.8857 40.1824 46.8857 35.0508C46.8857 31.1718 44.1537 28.3636 40.097 27.9191V27.7575C43.0774 27.2726 45.4163 24.5048 45.4163 21.4138C45.4163 17.0096 41.9391 14.1406 36.6406 14.1406H24.7188V43.2936H36.7026ZM29.355 17.8378H35.5229C38.8759 17.8378 40.78 19.3328 40.78 22.04C40.78 24.9291 38.5655 26.5453 34.5501 26.5453H29.355V17.8378ZM29.355 39.5964V30H35.4814C39.8693 30 42.146 31.6161 42.146 34.7679C42.146 37.9195 39.9315 39.5964 35.7505 39.5964H29.355Z" stroke="white" stroke-width="0.134345"/>
</g>
<path d="M6.23269 67.5547V57.8542H8.99266C9.83148 57.8542 10.4967 58.0594 10.9882 58.4698C11.4798 58.8802 11.7256 59.4146 11.7256 60.073C11.7256 60.6232 11.5768 61.1012 11.2791 61.5071C10.9815 61.913 10.5711 62.2016 10.0479 62.373V62.4C10.7019 62.4767 11.225 62.7247 11.6173 63.1441C12.0097 63.559 12.2059 64.1002 12.2059 64.7677C12.2059 65.5975 11.9082 66.2694 11.3129 66.7835C10.7176 67.2976 9.96677 67.5547 9.06031 67.5547H6.23269ZM7.36915 58.8824V62.0144H8.53267C9.15501 62.0144 9.64432 61.8656 10.0006 61.568C10.3569 61.2658 10.535 60.8419 10.535 60.2962C10.535 59.3537 9.91491 58.8824 8.67473 58.8824H7.36915ZM7.36915 63.0359V66.5265H8.91149C9.57893 66.5265 10.0953 66.3686 10.4606 66.0529C10.8304 65.7373 11.0153 65.3043 11.0153 64.7541C11.0153 63.6086 10.2351 63.0359 8.67473 63.0359H7.36915ZM16.9208 67.717C15.8971 67.717 15.0786 67.3946 14.4653 66.7497C13.8564 66.1003 13.552 65.2412 13.552 64.1724C13.552 63.0088 13.87 62.1001 14.5058 61.4462C15.1417 60.7923 16.0008 60.4653 17.0832 60.4653C18.1159 60.4653 18.9209 60.7833 19.4982 61.4192C20.0799 62.055 20.3708 62.9367 20.3708 64.0641C20.3708 65.169 20.0574 66.0552 19.4305 66.7226C18.8082 67.3856 17.9716 67.717 16.9208 67.717ZM17.002 61.3989C16.2895 61.3989 15.7257 61.6424 15.3108 62.1294C14.8959 62.612 14.6885 63.2794 14.6885 64.1318C14.6885 64.9526 14.8982 65.5997 15.3176 66.0732C15.737 66.5468 16.2985 66.7835 17.002 66.7835C17.719 66.7835 18.2692 66.5513 18.6526 66.0868C19.0404 65.6223 19.2343 64.9616 19.2343 64.1047C19.2343 63.2388 19.0404 62.5714 18.6526 62.1024C18.2692 61.6334 17.719 61.3989 17.002 61.3989ZM25.0384 67.717C24.0147 67.717 23.1962 67.3946 22.5828 66.7497C21.974 66.1003 21.6696 65.2412 21.6696 64.1724C21.6696 63.0088 21.9875 62.1001 22.6234 61.4462C23.2593 60.7923 24.1184 60.4653 25.2007 60.4653C26.2335 60.4653 27.0385 60.7833 27.6157 61.4192C28.1975 62.055 28.4884 62.9367 28.4884 64.0641C28.4884 65.169 28.1749 66.0552 27.5481 66.7226C26.9257 67.3856 26.0892 67.717 25.0384 67.717ZM25.1196 61.3989C24.407 61.3989 23.8433 61.6424 23.4284 62.1294C23.0135 62.612 22.8061 63.2794 22.8061 64.1318C22.8061 64.9526 23.0158 65.5997 23.4352 66.0732C23.8546 66.5468 24.416 66.7835 25.1196 66.7835C25.8366 66.7835 26.3868 66.5513 26.7701 66.0868C27.158 65.6223 27.3519 64.9616 27.3519 64.1047C27.3519 63.2388 27.158 62.5714 26.7701 62.1024C26.3868 61.6334 25.8366 61.3989 25.1196 61.3989ZM33.4739 67.487C33.2123 67.6314 32.8673 67.7035 32.4389 67.7035C31.2258 67.7035 30.6192 67.027 30.6192 65.6741V61.5747H29.4286V60.6277H30.6192V58.9365L31.7286 58.578V60.6277H33.4739V61.5747H31.7286V65.4779C31.7286 65.9424 31.8075 66.2739 31.9654 66.4723C32.1232 66.6708 32.3848 66.77 32.7501 66.77C33.0297 66.77 33.271 66.6933 33.4739 66.54V67.487ZM34.5359 67.3044V66.1138C35.1403 66.5603 35.8054 66.7835 36.5315 66.7835C37.5056 66.7835 37.9927 66.4588 37.9927 65.8094C37.9927 65.6245 37.9498 65.4689 37.8641 65.3427C37.783 65.2119 37.6702 65.0969 37.5259 64.9977C37.3861 64.8984 37.2193 64.8105 37.0253 64.7338C36.8359 64.6527 36.6307 64.5692 36.4098 64.4835C36.1031 64.3618 35.8325 64.24 35.598 64.1183C35.368 63.992 35.1741 63.8522 35.0162 63.6988C34.8629 63.541 34.7457 63.3629 34.6645 63.1644C34.5878 62.966 34.5495 62.7338 34.5495 62.4677C34.5495 62.143 34.6239 61.8566 34.7727 61.6086C34.9215 61.356 35.12 61.1463 35.368 60.9795C35.616 60.8081 35.8979 60.6796 36.2136 60.5939C36.5338 60.5082 36.863 60.4653 37.2012 60.4653C37.801 60.4653 38.3377 60.5691 38.8112 60.7765V61.8994C38.3016 61.5657 37.7153 61.3989 37.0524 61.3989C36.8449 61.3989 36.6578 61.4237 36.4909 61.4733C36.3241 61.5184 36.1798 61.5838 36.058 61.6695C35.9407 61.7551 35.8483 61.8589 35.7806 61.9806C35.7175 62.0979 35.6859 62.2287 35.6859 62.373C35.6859 62.5534 35.7175 62.7044 35.7806 62.8262C35.8483 62.948 35.9452 63.0562 36.0715 63.1509C36.1978 63.2456 36.3511 63.3313 36.5315 63.408C36.7119 63.4846 36.9171 63.5681 37.1471 63.6583C37.4538 63.7755 37.7289 63.8973 37.9724 64.0235C38.2159 64.1453 38.4234 64.2851 38.5947 64.443C38.7661 64.5963 38.8969 64.7744 38.9871 64.9774C39.0818 65.1803 39.1291 65.4216 39.1291 65.7012C39.1291 66.0439 39.0525 66.3416 38.8991 66.5941C38.7503 66.8467 38.5496 67.0564 38.2971 67.2232C38.0445 67.3901 37.7537 67.5141 37.4244 67.5953C37.0952 67.6765 36.7502 67.717 36.3895 67.717C35.6769 67.717 35.0591 67.5795 34.5359 67.3044ZM44.0538 67.487C43.7922 67.6314 43.4472 67.7035 43.0188 67.7035C41.8057 67.7035 41.1991 67.027 41.1991 65.6741V61.5747H40.0085V60.6277H41.1991V58.9365L42.3085 58.578V60.6277H44.0538V61.5747H42.3085V65.4779C42.3085 65.9424 42.3874 66.2739 42.5453 66.4723C42.7031 66.6708 42.9647 66.77 43.33 66.77C43.6096 66.77 43.8509 66.6933 44.0538 66.54V67.487ZM49.1476 61.7506C48.9537 61.6018 48.674 61.5274 48.3088 61.5274C47.8352 61.5274 47.4384 61.7506 47.1182 62.1971C46.8025 62.6436 46.6447 63.2524 46.6447 64.0235V67.5547H45.5353V60.6277H46.6447V62.055H46.6717C46.8296 61.568 47.0708 61.1892 47.3955 60.9186C47.7202 60.6435 48.0833 60.5059 48.4846 60.5059C48.7733 60.5059 48.9942 60.5375 49.1476 60.6006V61.7506ZM55.3102 67.5547H54.2008V66.4723H54.1737C53.6912 67.3021 52.9809 67.717 52.0428 67.717C51.3528 67.717 50.8117 67.5344 50.4193 67.1691C50.0315 66.8038 49.8376 66.319 49.8376 65.7147C49.8376 64.4204 50.5997 63.6673 52.124 63.4553L54.2008 63.1644C54.2008 61.9874 53.725 61.3989 52.7734 61.3989C51.9391 61.3989 51.186 61.683 50.514 62.2512V61.1147C51.195 60.6818 51.9797 60.4653 52.8681 60.4653C54.4961 60.4653 55.3102 61.3267 55.3102 63.0494V67.5547ZM54.2008 64.0506L52.5299 64.2806C52.0158 64.3528 51.6279 64.4813 51.3664 64.6662C51.1048 64.8466 50.974 65.169 50.974 65.6335C50.974 65.9718 51.0935 66.2491 51.3325 66.4656C51.5761 66.6775 51.8985 66.7835 52.2999 66.7835C52.8501 66.7835 53.3033 66.5919 53.6596 66.2085C54.0204 65.8207 54.2008 65.3314 54.2008 64.7406V64.0506ZM58.5369 66.5535H58.5098V70.7408H57.4004V60.6277H58.5098V61.8453H58.5369C59.0826 60.9253 59.8808 60.4653 60.9316 60.4653C61.8245 60.4653 62.5213 60.7765 63.0218 61.3989C63.5224 62.0167 63.7727 62.8465 63.7727 63.8883C63.7727 65.0473 63.4909 65.9763 62.9271 66.6753C62.3634 67.3698 61.5923 67.717 60.6136 67.717C59.7162 67.717 59.0239 67.3292 58.5369 66.5535ZM58.5098 63.7597V64.7271C58.5098 65.2998 58.6947 65.7869 59.0645 66.1882C59.4388 66.5851 59.9124 66.7835 60.4851 66.7835C61.1571 66.7835 61.6824 66.5265 62.0613 66.0123C62.4446 65.4982 62.6363 64.7834 62.6363 63.868C62.6363 63.0968 62.4581 62.4925 62.1019 62.055C61.7456 61.6176 61.263 61.3989 60.6542 61.3989C60.0093 61.3989 59.4907 61.6244 59.0984 62.0753C58.706 62.5218 58.5098 63.0833 58.5098 63.7597Z" fill="#7952B3"/>
<defs>
<filter id="filter0_d_2727_4551" x="22.4989" y="12.4582" width="26.6037" height="33.5881" filterUnits="userSpaceOnUse" color-interpolation-filters="sRGB">
<feFlood flood-opacity="0" result="BackgroundImageFix"/>
<feColorMatrix in="SourceAlpha" type="matrix" values="0 0 0 0 0 0 0 0 0 0 0 0 0 0 0 0 0 0 127 0" result="hardAlpha"/>
<feOffset dy="0.537381"/>
<feGaussianBlur stdDeviation="1.07476"/>
<feColorMatrix type="matrix" values="0 0 0 0 0 0 0 0 0 0 0 0 0 0 0 0 0 0 0.15 0"/>
<feBlend mode="normal" in2="BackgroundImageFix" result="effect1_dropShadow_2727_4551"/>
<feBlend mode="normal" in="SourceGraphic" in2="effect1_dropShadow_2727_4551" result="shape"/>
</filter>
<linearGradient id="paint0_linear_2727_4551" x1="10.8386" y1="2.57566" x2="70.9448" y2="50.2887" gradientUnits="userSpaceOnUse">
<stop stop-color="#9013FE"/>
<stop offset="1" stop-color="#6610F2"/>
</linearGradient>
<linearGradient id="paint1_linear_2727_4551" x1="26.8161" y1="16.0591" x2="40.2507" y2="38.7809" gradientUnits="userSpaceOnUse">
<stop stop-color="white"/>
<stop offset="1" stop-color="#F1E5FC"/>
</linearGradient>
</defs>
</svg>
