<svg width="70" height="70" viewBox="0 0 70 70" fill="none" xmlns="http://www.w3.org/2000/svg">
<path d="M8.96898 65.7435C7.78992 65.7435 7.44703 65.0572 7.44703 64.0285C7.44703 63.6856 7.49023 63.299 7.54328 62.8916C7.80141 61.1126 8.43195 60.0948 9.95391 60.0948C10.9831 60.0948 11.4852 60.5553 11.4852 61.3915V61.7989H12.5062C12.5177 61.7989 12.5177 61.4237 12.5177 61.3384C12.5177 60.1167 11.7777 58.9579 9.95555 58.9579C7.4793 58.9579 6.46102 60.3032 6.08586 62.9402C6.03071 63.2831 6.00201 63.6298 6 63.9771C6 65.5313 6.61141 66.945 8.79781 66.945C10.4592 66.945 11.4458 66.1351 12.0244 65.1381L11.0487 64.4813C10.4166 65.4783 9.73023 65.7435 8.96898 65.7435ZM15.6687 60.8342C13.6852 60.8342 12.8283 61.852 12.539 63.8776C12.5062 64.1144 12.4848 64.3605 12.4848 64.5852C12.4848 65.8928 13.0957 66.933 14.7888 66.933C16.7723 66.933 17.6408 65.8715 17.9301 63.8776C17.9623 63.6205 17.9837 63.3848 17.9837 63.1491C17.9842 61.8202 17.352 60.8342 15.6687 60.8342ZM16.494 63.8781C16.2796 65.347 15.8191 65.7971 14.9502 65.7971C14.254 65.7971 13.9111 65.5078 13.9111 64.6394C13.9111 64.425 13.933 64.168 13.9756 63.8781C14.19 62.4207 14.6188 61.9706 15.4976 61.9706C16.2052 61.9706 16.5585 62.2599 16.5585 63.1387C16.5585 63.3531 16.5366 63.5998 16.494 63.8781ZM22.9695 59.0645L22.6376 61.0322C22.6163 61.2034 22.6272 61.1465 22.6917 61.3073C22.3811 61.0716 21.8233 60.9157 21.4481 60.9157C19.6686 60.9157 18.6722 61.7212 18.3506 63.9722C18.308 64.2402 18.297 64.466 18.297 64.6908C18.297 66.3314 19.2617 66.9428 20.5584 66.9428C21.1058 66.9428 21.6412 66.9543 22.059 66.601L22.1656 67.2677H23.1948L24.3952 59.0645H22.9695ZM21.9513 65.4859C21.576 65.7125 21.1471 65.8347 20.7087 65.8398C19.9262 65.8398 19.7118 65.4323 19.7118 64.7788C19.7118 64.5322 19.7441 64.2434 19.7873 63.9317C20.0334 62.2277 20.5802 61.9269 21.2879 61.9269C21.7484 61.9269 22.1016 62.0023 22.4347 62.185L21.9513 65.4859ZM27.5255 60.8342C25.5634 60.8342 24.6424 61.7661 24.3313 63.8776C24.2984 64.1352 24.2771 64.3818 24.2771 64.6175C24.2771 66.0645 25.017 66.933 26.6456 66.933C27.9105 66.933 28.8545 66.4074 29.3581 65.4427L28.2753 65.0031C27.9647 65.4745 27.5469 65.796 26.807 65.796C26.014 65.796 25.6924 65.5827 25.6924 64.8751C25.6924 64.7356 25.7034 64.5327 25.7247 64.5327H29.5938C29.648 63.9859 29.7114 63.5992 29.7114 63.2788C29.7114 62.2074 29.3045 60.8342 27.5255 60.8342ZM28.2649 63.4395H25.9068C26.143 62.8927 26.539 62.0461 27.3538 62.0461C27.986 62.0461 28.2972 62.4158 28.2972 63.048C28.2966 63.1552 28.2868 63.4395 28.2649 63.4395ZM33.8365 60.7052L33.965 59.6114H30.9419L30.8139 60.7052H31.6069L30.7499 66.1739H29.9559L29.8279 67.2677H32.8505L32.9795 66.1739H32.186L33.043 60.7052H33.8365ZM39.979 62.3458L40.3651 61.252H39.3255L38.5757 61.4068C38.1573 61.1394 37.5891 60.9387 37.0537 60.9387C35.5203 60.9387 34.2133 61.6791 34.2133 63.3624C34.2133 63.8344 34.3845 64.2155 34.5879 64.4731C34.2669 64.6443 33.988 64.9309 33.988 65.3175C33.988 65.4887 34.052 65.6642 34.181 65.8245C33.5373 66.2111 33.142 66.8515 33.142 67.6012C33.142 69.0488 34.653 69.3578 35.8107 69.3578C37.2681 69.3578 39.005 69.0248 39.005 67.1703C39.005 66.5381 38.6085 66.0443 37.4617 65.8299L35.3929 65.4433C35.1572 65.4001 35.1036 65.3252 35.1036 65.218C35.1036 65.0572 35.2009 64.9719 35.3612 64.9719L35.5006 64.9932C35.7795 65.0572 36.1011 65.09 36.433 65.09C37.9233 65.09 39.2522 64.4463 39.2522 62.7745C39.2522 62.5383 39.2095 62.3786 39.1023 62.121C39.2845 62.2069 39.5207 62.3463 39.6164 62.3463H39.979V62.3458ZM37.0319 66.7826C37.4387 66.858 37.5777 67.0079 37.5777 67.2759C37.5777 68.1443 36.6452 68.2515 35.9704 68.2515C34.9412 68.2515 34.5556 68.0054 34.5556 67.458C34.5556 66.9756 34.6945 66.7509 35.0166 66.4074L37.0319 66.7826ZM36.5916 63.9749C35.9698 63.9749 35.627 63.7502 35.627 63.2137C35.627 62.4207 36.088 61.9597 36.8919 61.9597C37.535 61.9597 37.8462 62.2277 37.8462 62.7521C37.8462 63.5456 37.3955 63.9749 36.5916 63.9749ZM43.7869 60.8342C43.1864 60.8342 42.651 61.129 41.986 61.6534L41.8898 61.252H40.7102L39.8849 67.2677H41.3106L41.9324 62.7056C42.3508 62.4486 42.8648 62.0751 43.3045 62.0751C43.8399 62.0751 44.0335 62.3337 44.0335 62.8265C44.0335 62.9446 44.022 63.2941 44.0007 63.4226L43.4762 67.2677H44.902L45.4264 63.3914C45.4483 63.2098 45.4696 62.9113 45.4696 62.7401C45.4702 61.7207 44.9873 60.8342 43.7869 60.8342ZM48.1777 65.7605L48.1887 65.6134L48.8099 61.252H46.4409L46.2916 62.3458H47.3306C47.2448 62.3458 47.1912 62.4415 47.1808 62.5279L46.752 65.4323C46.7315 65.6143 46.7209 65.7972 46.7203 65.9803C46.7203 66.7306 47.1272 67.2677 47.9628 67.2677H48.6918L48.8526 66.1739H48.3921C48.2308 66.1739 48.1777 65.889 48.1777 65.7605ZM49.0992 59.0645H47.7058C47.6199 59.0645 47.6199 58.749 47.6095 58.8562L47.4159 60.3973C47.405 60.4941 47.405 60.7052 47.4909 60.7052H48.8848C48.9707 60.7052 48.9707 60.3305 48.9811 60.2332L49.1747 59.0438C49.1856 58.9366 49.1856 59.0645 49.0992 59.0645ZM52.0064 65.7971C51.6531 65.7971 51.4814 65.6467 51.4814 65.3257L51.4923 65.3038L51.9424 62.3458H53.5716L54.0643 61.252H52.0923L52.4242 58.8452L50.9241 59.3248L50.6556 61.252H49.7877L49.6379 62.3458H50.6452C50.549 62.8927 50.4522 62.5377 50.4418 62.6455L50.0557 65.2393C50.0344 65.3574 50.0344 65.4433 50.0344 65.5499C50.0344 66.5682 50.7847 66.9494 51.6859 66.9494C52.5216 66.9494 53.197 66.7055 53.7225 66.2652L53.0575 65.4471C52.7245 65.6505 52.4997 65.7971 52.0064 65.7971ZM57.2373 60.8342C55.2756 60.8342 54.3541 61.7661 54.043 63.8776C54.0107 64.1352 53.9894 64.3818 53.9894 64.6175C53.9894 66.0645 54.7287 66.933 56.3579 66.933C57.6228 66.933 58.5667 66.4074 59.0698 65.4427L57.9876 65.0031C57.677 65.4745 57.2586 65.796 56.5187 65.796C55.7262 65.796 55.4041 65.5827 55.4041 64.8751C55.4041 64.7356 55.4156 64.5327 55.437 64.5327H59.3061C59.3597 63.9859 59.4242 63.5992 59.4242 63.2788C59.4242 62.2074 59.0168 60.8342 57.2373 60.8342ZM57.9772 63.4395H55.6191C55.8548 62.8927 56.2507 62.0461 57.0661 62.0461C57.6983 62.0461 58.0095 62.4158 58.0095 63.048C58.0089 63.1552 57.9985 63.4395 57.9772 63.4395ZM63.3688 60.8342C62.8542 60.8342 62.3719 61.129 61.8895 61.5889L61.8037 61.252H60.6252L59.7994 67.2677H61.236L61.8682 62.6094C62.2434 62.3846 62.6721 62.1927 63.0795 62.1927C63.3371 62.1927 63.5832 62.1516 63.8189 62.1839L64.0021 60.9409C63.7866 60.8982 63.5723 60.8342 63.3688 60.8342ZM26.9672 54.7557C23.7226 53.3535 20.6863 49.789 20.6792 46.1419C20.6705 42.1656 23.1905 38.7897 26.3246 36.571C25.9478 37.9945 25.7422 39.2966 26.6757 40.5698C27.1072 41.152 27.6969 41.5979 28.3746 41.8544C29.0523 42.111 29.7895 42.1673 30.4984 42.0168C33.8518 41.2829 34.0055 37.5964 32.0176 35.4488C30.0521 33.322 28.1506 30.9196 28.8987 27.8352C29.2734 26.2892 30.2227 24.8411 31.4253 23.8059C30.5011 26.2351 33.1277 28.6309 34.8586 29.8242C37.8609 31.8947 41.1548 33.4593 43.9154 35.8863C46.8193 38.437 48.9636 41.8861 48.5305 45.8859C48.0612 50.2216 44.6159 53.237 40.7517 54.7595C48.9177 52.957 57.3554 46.6193 57.5282 37.5625C57.6715 30.1119 52.5604 24.3779 46.2287 21.095L45.8978 20.9145C46.0717 21.3362 46.1286 21.6949 46.122 22.0159C46.1808 21.7762 46.2163 21.5313 46.2281 21.2848C46.2266 21.583 46.1877 21.8799 46.1122 22.1685L46.122 22.0159C46.028 22.4115 45.8697 22.789 45.6534 23.1332L45.7463 23.0331C44.483 25.1282 41.0634 25.5832 39.3741 23.4138C36.6584 19.9241 39.431 16.1616 39.8187 12.4664C40.3044 7.83492 37.3999 3.33906 33.7987 0.648438C35.7823 3.85695 33.1693 8.1018 31.0786 10.4747C29.0513 12.7754 26.586 14.696 24.3482 16.7862C21.9441 19.0311 19.633 21.3958 17.6572 24.0306C13.7055 29.3041 11.2861 35.9366 13.064 42.5161C14.8408 49.0906 20.5359 53.2759 26.9672 54.7557Z" fill="#EE4323"/>
</svg>
