<svg width="70" height="70" viewBox="0 0 70 70" fill="none" xmlns="http://www.w3.org/2000/svg">
<path d="M47.0312 64.75C47.0312 64.5859 47.0859 64.4219 47.0312 64.2578C46.9219 64.0938 46.8672 63.9844 46.7578 63.875C46.4844 63.5469 46.2109 63.2734 45.8828 62.9453L42.6562 59.6641L45.1719 57.0938L46.5391 55.6172C46.7578 55.3984 47.0312 54.9609 47.0312 54.6328V54.4141C47.0312 53.9219 46.8125 53.6484 46.3203 53.5391L46.4297 53.5938H46.0469C45.7188 53.5938 44.7891 54.4688 44.5703 54.7422C43.75 55.5625 43.2031 56.3281 42.1094 57.1484V50.6406C42.1094 50.0391 41.7812 49.7656 41.1797 49.7656H41.0156C40.4141 49.7656 39.9219 50.0391 39.9219 50.6406V64.8047C39.9219 65.4062 40.4141 65.625 41.0156 65.625H41.1797C41.7812 65.625 42.1094 65.3516 42.1094 64.8047V62.2891L43.75 63.875C44.2422 64.3672 44.7344 64.6953 45.1719 65.1328C45.3906 65.3516 45.8281 65.625 46.1562 65.625H46.3203C46.8672 65.625 47.0312 65.3516 47.1406 64.9141L47.0312 64.9688V64.75ZM68.4141 53.5938H68.1953C66.9922 53.5938 65.8984 53.9219 64.9141 54.6328C63.2734 55.8359 62.3438 57.4219 62.3438 59.5V64.8594C62.3438 65.4609 62.5625 65.625 63.1641 65.625H63.3281C63.9297 65.625 64.5312 65.4062 64.5312 64.8594V59.8281C64.5312 58.7344 64.75 57.6953 65.5703 56.875C66.2266 56.2188 67.0469 55.6719 67.9766 55.6719C68.6875 55.6719 69.5078 55.5078 69.5078 54.6328C69.5078 53.9766 69.0156 53.5938 68.4141 53.5938ZM59.9922 56.3281C59.3906 55.3438 58.5703 54.5781 57.5312 54.0859C55.6172 53.1562 53.5938 53.0469 51.7344 54.1406L51.4609 54.3047C50.6953 54.7422 50.0391 55.2891 49.5469 56C48.125 58.0781 47.9609 60.4297 49.2188 62.6172L49.3281 62.8359C49.875 63.7656 50.5859 64.5312 51.5156 65.0234C53.4844 66.1172 55.6172 66.2266 57.5859 65.1328L57.75 65.0234C58.2969 64.6953 58.4062 64.1484 58.1328 63.6016C58.0234 63.3828 57.8047 63.2188 57.5859 63.1094H57.4766C57.0938 63.0547 56.0547 63.4922 55.6719 63.6562C54.9062 63.7656 54.0312 63.8203 53.2656 63.5469L57.4219 59.9375C58.0234 59.3906 58.6797 58.7891 59.3359 58.2969C59.8828 57.8594 60.4297 57.2578 59.9922 56.4922V56.3281ZM56.2188 58.2969L51.5703 62.2891C51.4062 62.125 51.2969 61.9062 51.1875 61.7422C50.8594 61.1953 50.6406 60.5391 50.6406 59.8828C50.5859 58.2422 51.1875 56.875 52.6641 56.0547C53.7578 55.3984 54.9609 55.2891 56.1641 55.7266C56.7656 55.9453 57.4766 56.3281 57.8594 56.875C57.3125 57.3672 56.7109 57.8047 56.2188 58.2969ZM12.0312 49.7656H11.8672C11.2656 49.7656 10.9375 49.9844 10.9375 50.5859V55.0156C9.84375 54.0312 8.53125 53.6484 7 53.6484H6.5625C5.52344 53.6484 4.53906 53.8125 3.60938 54.3594C1.64062 55.5078 0.546875 57.2031 0.546875 59.5V59.9375C0.546875 60.9766 0.820312 61.8516 1.36719 62.7812C2.51562 64.75 4.32031 65.7344 6.5625 65.7344H7C8.03906 65.7344 9.13281 65.5703 10.0078 65.0781C11.9766 63.9297 13.125 62.2344 13.125 59.9922V50.6953C13.125 49.9844 12.6328 49.7656 12.0312 49.7656ZM10.3359 61.6875C9.51562 63.0547 8.3125 63.8203 6.72656 63.8203C6.07031 63.8203 5.41406 63.6562 4.86719 63.3281C3.44531 62.5625 2.625 61.3047 2.625 59.6641C2.625 59.0625 2.73438 58.5156 3.00781 57.9688C3.77344 56.3828 5.03125 55.5078 6.78125 55.5078C7.65625 55.5078 8.42188 55.7812 9.07812 56.2734C10.2266 57.0938 10.8828 58.1875 10.8828 59.6094C10.9375 60.375 10.7188 61.0312 10.3359 61.6875ZM20.5625 53.5938H20.2344C19.1953 53.5938 18.1562 53.7578 17.2812 54.3047C15.3125 55.4531 14.2188 57.1484 14.2188 59.4453V59.8828C14.2188 60.9219 14.4922 61.7969 15.0391 62.7266C16.1875 64.6953 17.9922 65.6797 20.2891 65.6797H20.7266C21.7656 65.6797 22.8047 65.5156 23.7344 65.0234C25.7031 63.875 26.8516 62.1797 26.8516 59.9375V59.5C26.8516 58.5156 26.5234 57.6953 26.0859 56.875C24.8828 54.6875 22.9688 53.5938 20.5625 53.5938ZM24.0625 61.6875C23.2422 63 22.0938 63.8203 20.5078 63.8203C19.7969 63.8203 19.0859 63.6562 18.4297 63.2734C17.0625 62.4531 16.2969 61.3047 16.2969 59.7188C16.2969 59.1172 16.4062 58.5703 16.6797 58.0234C17.4453 56.4375 18.7031 55.5625 20.4531 55.5625C21.2734 55.5625 21.9844 55.7812 22.6406 56.2188C23.8438 57.0391 24.5547 58.1875 24.5547 59.6641C24.6094 60.3203 24.4453 61.0312 24.0625 61.6875ZM37.4609 54.3594L37.4062 54.4141C36.4766 53.8125 35.4375 53.5938 34.3438 53.5938H33.9062C32.8672 53.5938 31.8281 53.7578 30.9531 54.3047C28.9844 55.4531 27.8906 57.1484 27.8906 59.3906V59.8281C27.8906 60.375 28 60.8672 28.1094 61.4141C28.9844 64.4219 31.3359 66.1172 34.5078 65.8984C35.3828 65.8438 37.7344 65.5703 37.7344 64.2578V64.0391C37.7344 63.5469 37.3516 63.1094 36.9141 63L36.8594 62.8906H36.4766L36.3672 63.0547C35.875 63.2734 35.0547 63.7109 34.5078 63.7109C33.8516 63.7109 33.1406 63.7109 32.5391 63.3828C30.9531 62.6172 30.0234 61.3594 30.0234 59.6094C30.0234 59.0078 30.1328 58.4609 30.4062 57.9141C31.1719 56.3828 32.4297 55.3984 34.1797 55.4531C34.5078 55.4531 35.1094 55.6172 35.4375 55.7812C35.7109 55.8906 36.4219 56.3281 36.75 56.3281H36.8594L36.9141 56.2188C37.4062 56.1094 37.7891 55.7266 37.7891 55.2344V55.0156C37.7891 54.7969 37.6797 54.6328 37.5703 54.4688L37.4609 54.3594ZM3.17188 37.2969L3.22656 37.4062C7.54688 44.7344 15.0938 47.7969 23.3516 47.7969C39.3203 47.7969 52.5 40.6328 58.5156 25.5938C62.5625 25.8125 66.7188 24.6094 68.6875 20.7266L69.1797 19.7422L68.1953 19.1953C65.8438 17.8281 62.7266 17.6641 60.1016 18.4297C59.7734 15.5859 57.9141 13.125 55.7266 11.375L54.8516 10.6641L54.1406 11.5391C52.6641 13.2344 52.2266 16.0781 52.4453 18.2656C52.6094 19.8516 53.1016 21.4922 54.0859 22.8047C53.3203 23.2422 52.5 23.8438 51.7344 24.1172C50.2031 24.6641 48.5078 25.2109 46.8672 25.2109H43.2031V17.5H36.0938V3.82812H27.8906V10.3906H14.2188V17.5H7.10938V25.1562H0.984375L0.875 25.9766C0.601563 29.4766 1.03906 32.8672 2.51562 36.0938L3.17188 37.2969ZM36.0938 19.1406H42.1094V25.1562H36.0938V19.1406ZM28.9844 4.92188H35V10.9375H28.9844V4.92188ZM28.9844 12.0312H35V18.0469H28.9844V12.0312ZM28.9844 19.1406H35V25.1562H28.9844V19.1406ZM21.875 12.0312H27.8906V18.0469H21.875V12.0312ZM21.875 19.1406H27.8906V25.1562H21.875V19.1406ZM22.4766 36.2031C22.4766 37.1328 21.7109 37.8984 20.7812 37.8984C19.8516 37.8984 19.0859 37.1328 19.0859 36.2031C19.0859 35.2734 19.8516 34.5078 20.7812 34.5078C21.7109 34.5625 22.4766 35.2734 22.4766 36.2031ZM15.3125 12.0312H20.7812V18.0469H15.3125V12.0312ZM15.3125 19.1406H20.7812V25.1562H15.3125V19.1406ZM8.20312 19.1406H14.2188V25.1562H8.20312V19.1406ZM9.51562 39.9219C10.3906 39.9219 11.2656 39.9219 12.0859 39.8672C14.2188 39.7578 16.0781 39.4844 17.6094 39.0469C18.8672 41.9453 21.1641 44.625 25.2656 46.5938L23.3516 46.6484C14.7109 46.5938 10.0625 43.6953 6.23438 39.8672C7.38281 39.9219 8.47656 39.9219 9.51562 39.9219ZM20.7812 37.4062C21.4375 37.4062 21.9844 36.8594 21.9844 36.2031C21.9844 36.0391 21.9297 35.875 21.875 35.7656C21.7656 35.9297 21.6562 36.0391 21.4375 36.0391C21.1641 36.0391 20.9453 35.8203 20.9453 35.5469C20.9453 35.3828 21.0547 35.2187 21.1641 35.1094C21.1094 35.0547 20.9453 35 20.7812 35C20.125 35 19.5781 35.5469 19.5781 36.2031C19.6328 36.8594 20.125 37.4062 20.7812 37.4062Z" fill="#019BC6"/>
</svg>
