<svg width="540" height="441" viewBox="0 0 540 441" fill="none" xmlns="http://www.w3.org/2000/svg">
<path d="M400.638 214.944H162.768C162.542 214.944 162.344 214.746 162.344 214.52C162.344 214.294 162.542 214.096 162.768 214.096H400.27C400.553 212.116 401.769 202.274 400.722 189.52C399.647 176.397 395.914 157.393 384.178 141.442C371.848 124.672 353.154 114.349 328.606 110.758C328.38 110.729 328.211 110.503 328.239 110.277C328.267 110.051 328.493 109.881 328.719 109.909C353.493 113.529 372.385 123.965 384.885 140.933C396.735 157.053 400.524 176.228 401.571 189.463C402.73 203.801 401.062 214.491 401.062 214.576C401.034 214.774 400.864 214.944 400.638 214.944Z" fill="#333333"/>
<path d="M512.978 235.461H393.367V432.507H512.978V235.461Z" fill="#019CEF"/>
<path fill-rule="evenodd" clip-rule="evenodd" d="M326.039 159.167C327.217 159.192 328.368 159.217 329.52 159.217C329.771 159.217 329.971 159.017 329.971 158.791C329.971 158.541 329.771 158.366 329.52 158.366C328.368 158.366 327.191 158.341 326.064 158.316C325.839 158.316 325.638 158.491 325.638 158.741C325.588 158.967 325.789 159.167 326.039 159.167ZM334.754 159.117C335.932 159.067 337.084 158.992 338.236 158.917C338.461 158.892 338.661 158.691 338.636 158.441C338.611 158.19 338.411 158.015 338.186 158.04C337.034 158.115 335.882 158.19 334.73 158.241C334.504 158.241 334.304 158.441 334.304 158.691C334.304 158.942 334.504 159.117 334.754 159.117ZM317.324 158.641C318.476 158.741 319.653 158.842 320.78 158.917C321.031 158.942 321.231 158.741 321.256 158.516C321.256 158.266 321.081 158.065 320.83 158.065C319.678 157.99 318.526 157.89 317.374 157.79C317.123 157.765 316.923 157.94 316.898 158.19C316.898 158.416 317.073 158.641 317.324 158.641ZM343.445 158.416C344.597 158.266 345.749 158.115 346.901 157.94C347.126 157.915 347.302 157.69 347.252 157.439C347.201 157.214 347.001 157.038 346.751 157.063C345.624 157.239 344.472 157.389 343.32 157.539C343.069 157.564 342.894 157.79 342.944 158.015C342.994 158.266 343.195 158.441 343.445 158.416ZM308.659 157.589C309.811 157.765 310.963 157.94 312.115 158.09C312.365 158.115 312.565 157.965 312.615 157.715C312.64 157.489 312.465 157.264 312.24 157.239C311.088 157.088 309.936 156.938 308.784 156.763C308.559 156.738 308.333 156.888 308.308 157.139C308.258 157.314 308.433 157.539 308.659 157.589ZM352.085 157.013C353.212 156.788 354.364 156.512 355.491 156.237C355.717 156.187 355.867 155.936 355.816 155.711C355.766 155.486 355.516 155.335 355.291 155.386C354.164 155.661 353.037 155.911 351.91 156.162C351.684 156.212 351.534 156.437 351.584 156.688C351.584 156.913 351.835 157.063 352.085 157.013ZM300.093 156.012C301.22 156.262 302.373 156.487 303.525 156.688C303.75 156.738 303.976 156.588 304.026 156.337C304.076 156.087 303.925 155.886 303.7 155.836C302.548 155.611 301.421 155.386 300.294 155.16C300.044 155.11 299.818 155.26 299.768 155.486C299.718 155.736 299.868 155.962 300.093 156.012ZM360.525 154.86C361.627 154.509 362.754 154.158 363.856 153.758C364.081 153.683 364.206 153.432 364.131 153.207C364.056 152.981 363.806 152.856 363.555 152.931C362.478 153.307 361.376 153.683 360.274 154.008C360.049 154.083 359.924 154.334 359.974 154.559C360.049 154.784 360.299 154.91 360.525 154.86ZM291.604 153.958C292.731 154.259 293.833 154.559 294.985 154.835C295.21 154.885 295.436 154.759 295.511 154.509C295.561 154.284 295.435 154.033 295.185 153.983C294.058 153.708 292.931 153.407 291.829 153.106C291.603 153.031 291.353 153.182 291.278 153.407C291.228 153.657 291.378 153.908 291.604 153.958ZM283.264 151.454C284.366 151.829 285.468 152.18 286.595 152.505C286.82 152.581 287.071 152.455 287.146 152.23C287.221 152.005 287.096 151.754 286.846 151.679C285.744 151.328 284.641 150.978 283.539 150.627C283.314 150.552 283.064 150.677 282.989 150.903C282.914 151.128 283.039 151.378 283.264 151.454ZM368.74 151.854C369.816 151.403 370.893 150.928 371.945 150.427C372.17 150.327 372.271 150.051 372.145 149.851C372.045 149.625 371.795 149.55 371.569 149.65C370.517 150.151 369.491 150.627 368.414 151.078C368.213 151.178 368.088 151.429 368.188 151.654C368.263 151.854 368.514 151.954 368.74 151.854ZM275.075 148.448C276.152 148.899 277.229 149.325 278.331 149.726C278.556 149.801 278.806 149.701 278.906 149.475C278.981 149.25 278.881 148.999 278.656 148.924C277.579 148.523 276.477 148.098 275.45 147.647C275.225 147.547 274.974 147.647 274.874 147.872C274.749 148.098 274.849 148.348 275.075 148.448ZM376.578 148.023C377.605 147.447 378.606 146.845 379.608 146.244C379.809 146.119 379.859 145.844 379.733 145.643C379.608 145.443 379.333 145.368 379.133 145.518C378.181 146.119 377.179 146.72 376.177 147.271C375.977 147.396 375.877 147.647 376.002 147.872C376.128 148.048 376.378 148.123 376.578 148.023ZM267.211 144.642C268.213 145.193 269.264 145.744 270.291 146.269C270.491 146.37 270.767 146.295 270.867 146.069C270.967 145.844 270.892 145.593 270.667 145.493C269.615 144.967 268.588 144.441 267.587 143.89C267.386 143.765 267.111 143.84 266.985 144.066C266.935 144.241 267.011 144.516 267.211 144.642ZM383.891 143.214C384.793 142.513 385.694 141.736 386.571 140.935C386.746 140.785 386.771 140.509 386.596 140.309C386.42 140.134 386.145 140.109 385.994 140.284C385.143 141.06 384.266 141.812 383.365 142.513C383.19 142.663 383.165 142.939 383.29 143.114C383.44 143.314 383.716 143.364 383.891 143.214ZM459.274 140.234C459.8 140.81 460.325 141.386 460.851 141.987C461.001 142.162 461.302 142.187 461.452 142.037C461.628 141.887 461.653 141.611 461.502 141.436C460.976 140.81 460.426 140.209 459.925 139.633C459.749 139.457 459.474 139.432 459.324 139.608C459.123 139.783 459.123 140.059 459.274 140.234ZM259.773 140.059C260.724 140.71 261.726 141.361 262.703 141.987C262.903 142.112 263.179 142.062 263.304 141.862C263.429 141.661 263.379 141.386 263.153 141.261C262.202 140.635 261.2 140.008 260.273 139.357C260.073 139.232 259.798 139.282 259.673 139.457C259.522 139.658 259.572 139.908 259.773 140.059ZM390.277 137.204C391.079 136.352 391.83 135.45 392.556 134.524C392.707 134.323 392.681 134.073 392.506 133.923C392.306 133.772 392.055 133.798 391.88 133.998C391.179 134.899 390.428 135.776 389.651 136.628C389.501 136.803 389.501 137.078 389.701 137.229C389.826 137.379 390.127 137.379 390.277 137.204ZM252.786 134.799C253.687 135.526 254.613 136.252 255.515 136.978C255.715 137.128 255.966 137.078 256.116 136.903C256.266 136.703 256.217 136.452 256.041 136.302C255.115 135.601 254.238 134.874 253.336 134.148C253.136 133.998 252.886 134.023 252.735 134.198C252.585 134.374 252.61 134.649 252.786 134.799ZM452.887 134.499C453.789 135.15 454.69 135.876 455.592 136.653C455.792 136.803 456.043 136.803 456.193 136.602C456.368 136.427 456.344 136.152 456.143 135.976C455.242 135.2 454.315 134.449 453.388 133.798C453.188 133.647 452.937 133.697 452.787 133.898C452.637 134.073 452.687 134.349 452.887 134.499ZM445.424 130.241C446.476 130.692 447.503 131.193 448.505 131.744C448.705 131.869 448.98 131.769 449.081 131.569C449.206 131.368 449.131 131.093 448.905 130.968C447.854 130.392 446.801 129.891 445.725 129.44C445.524 129.34 445.274 129.44 445.174 129.665C445.099 129.891 445.199 130.141 445.424 130.241ZM246.274 129.014C247.101 129.816 247.977 130.617 248.853 131.393C249.029 131.544 249.304 131.544 249.455 131.368C249.63 131.193 249.605 130.917 249.43 130.742C248.553 129.966 247.726 129.189 246.875 128.388C246.7 128.213 246.424 128.238 246.249 128.413C246.073 128.588 246.099 128.864 246.274 129.014ZM395.636 130.266C396.288 129.29 396.889 128.288 397.465 127.286C397.59 127.086 397.515 126.81 397.29 126.685C397.089 126.56 396.839 126.635 396.714 126.835C396.138 127.837 395.536 128.814 394.885 129.765C394.76 129.966 394.81 130.241 395.01 130.367C395.236 130.517 395.511 130.467 395.636 130.266ZM437.235 127.662C438.362 127.887 439.464 128.163 440.566 128.488C440.791 128.563 441.042 128.413 441.117 128.188C441.192 127.962 441.041 127.712 440.816 127.662C439.689 127.336 438.537 127.061 437.385 126.81C437.16 126.76 436.934 126.91 436.884 127.136C436.834 127.386 436.985 127.612 437.235 127.662ZM428.67 126.51C429.822 126.585 430.974 126.71 432.126 126.835C432.351 126.86 432.577 126.685 432.602 126.46C432.627 126.209 432.452 126.009 432.226 125.984C431.049 125.859 429.897 125.733 428.745 125.658C428.495 125.633 428.319 125.808 428.294 126.059C428.244 126.284 428.419 126.51 428.67 126.51ZM420.004 126.209C421.156 126.234 422.334 126.259 423.461 126.284C423.711 126.284 423.911 126.109 423.911 125.859C423.911 125.608 423.711 125.408 423.461 125.408C422.309 125.383 421.132 125.358 419.98 125.333C419.754 125.333 419.529 125.533 419.529 125.758C419.529 125.984 419.754 126.184 420.004 126.209ZM411.314 126.084C412.491 126.109 413.643 126.134 414.795 126.134C415.021 126.134 415.221 125.934 415.221 125.708C415.221 125.458 415.021 125.258 414.795 125.258C413.643 125.232 412.491 125.232 411.339 125.207C411.114 125.207 410.888 125.383 410.888 125.633C410.863 125.884 411.064 126.084 411.314 126.084ZM402.599 125.583C403.751 125.708 404.928 125.783 406.055 125.859C406.306 125.884 406.506 125.683 406.531 125.458C406.531 125.207 406.33 125.007 406.105 125.007C404.953 124.932 403.801 124.857 402.649 124.732C402.398 124.707 402.198 124.882 402.173 125.132C402.173 125.358 402.348 125.583 402.599 125.583ZM240.138 122.828C240.94 123.68 241.741 124.531 242.567 125.358C242.743 125.533 243.018 125.533 243.169 125.358C243.344 125.182 243.344 124.907 243.169 124.732C242.367 123.905 241.566 123.079 240.789 122.227C240.614 122.052 240.339 122.052 240.163 122.202C239.988 122.377 239.963 122.653 240.138 122.828ZM393.959 124.231C395.111 124.481 396.237 124.707 397.39 124.907C397.64 124.957 397.84 124.782 397.89 124.556C397.94 124.306 397.791 124.105 397.54 124.055C396.413 123.855 395.286 123.655 394.159 123.379C393.934 123.329 393.683 123.479 393.633 123.705C393.558 123.955 393.708 124.181 393.959 124.231ZM399.869 122.603C400.345 121.526 400.796 120.449 401.172 119.347C401.247 119.122 401.121 118.871 400.921 118.796C400.696 118.721 400.445 118.821 400.345 119.047C399.944 120.123 399.519 121.2 399.043 122.227C398.943 122.453 399.043 122.703 399.243 122.803C399.518 122.928 399.769 122.828 399.869 122.603ZM385.594 121.601C386.02 121.776 386.42 121.927 386.821 122.077C387.522 122.327 388.199 122.578 388.9 122.803C389.125 122.878 389.376 122.753 389.451 122.528C389.526 122.302 389.401 122.052 389.175 121.977C388.499 121.751 387.823 121.501 387.147 121.25C386.746 121.1 386.32 120.925 385.945 120.775C385.744 120.674 385.469 120.775 385.394 121C385.269 121.25 385.394 121.526 385.594 121.601ZM377.906 117.369C378.857 118.045 379.859 118.671 380.86 119.272C381.061 119.397 381.336 119.322 381.437 119.122C381.562 118.921 381.512 118.646 381.286 118.521C380.285 117.945 379.333 117.319 378.381 116.667C378.181 116.517 377.931 116.567 377.78 116.768C377.655 116.968 377.73 117.243 377.906 117.369ZM234.328 116.317C235.079 117.193 235.856 118.07 236.632 118.946C236.782 119.122 237.058 119.147 237.233 118.997C237.433 118.846 237.434 118.571 237.283 118.37C236.507 117.494 235.755 116.642 234.979 115.741C234.829 115.565 234.554 115.54 234.378 115.691C234.203 115.841 234.153 116.141 234.328 116.317ZM402.674 114.313C402.925 113.161 403.15 112.009 403.3 110.857C403.325 110.607 403.15 110.406 402.925 110.356C402.674 110.331 402.474 110.507 402.449 110.732C402.273 111.859 402.098 112.986 401.823 114.113C401.773 114.338 401.922 114.589 402.148 114.639C402.398 114.689 402.624 114.539 402.674 114.313ZM371.394 111.483C372.17 112.385 372.972 113.211 373.848 114.038C374.023 114.213 374.299 114.188 374.449 114.013C374.625 113.837 374.625 113.562 374.424 113.387C373.598 112.61 372.821 111.784 372.07 110.907C371.895 110.732 371.644 110.707 371.444 110.857C371.269 111.033 371.244 111.283 371.394 111.483ZM228.743 109.63C229.47 110.532 230.196 111.433 230.947 112.335C231.097 112.51 231.373 112.56 231.548 112.385C231.748 112.235 231.748 111.959 231.598 111.784C230.872 110.882 230.121 110.006 229.394 109.104C229.244 108.929 228.969 108.879 228.793 109.029C228.618 109.179 228.618 109.43 228.743 109.63ZM366.56 104.145C367.036 105.147 367.612 106.199 368.264 107.226C368.389 107.426 368.664 107.476 368.839 107.351C369.04 107.226 369.115 106.95 368.99 106.75C368.339 105.723 367.787 104.746 367.337 103.745C367.236 103.519 366.961 103.444 366.761 103.544C366.536 103.67 366.46 103.92 366.56 104.145ZM403.576 105.573C403.526 104.396 403.425 103.219 403.25 102.067C403.225 101.841 402.999 101.666 402.774 101.716C402.524 101.741 402.348 101.967 402.398 102.217C402.599 103.344 402.699 104.471 402.724 105.623C402.749 105.873 402.925 106.049 403.175 106.049C403.4 105.999 403.576 105.798 403.576 105.573ZM223.333 102.818C224.06 103.72 224.786 104.646 225.513 105.548C225.663 105.748 225.938 105.773 226.114 105.623C226.314 105.473 226.339 105.197 226.189 105.022C225.487 104.12 224.761 103.194 224.035 102.292C223.885 102.092 223.609 102.067 223.434 102.217C223.233 102.342 223.183 102.618 223.333 102.818ZM364.457 95.5803C364.457 96.7073 364.582 97.9094 364.832 99.1115C364.907 99.3369 365.133 99.4872 365.359 99.4371C365.584 99.387 365.759 99.1616 365.684 98.9112C365.458 97.7592 365.333 96.6322 365.308 95.5553C365.308 95.3049 365.133 95.1295 364.858 95.1295C364.632 95.1546 364.432 95.3549 364.457 95.5803ZM217.974 95.981C218.676 96.8826 219.402 97.8093 220.103 98.7108C220.253 98.9112 220.529 98.9362 220.729 98.786C220.93 98.6357 220.929 98.3602 220.804 98.1849C220.103 97.2833 219.377 96.3567 218.65 95.4551C218.5 95.2548 218.225 95.2297 218.049 95.38C217.849 95.5052 217.824 95.7807 217.974 95.981ZM401.923 96.9327C401.497 95.8308 401.021 94.7539 400.47 93.702C400.345 93.5017 400.094 93.4015 399.894 93.5267C399.669 93.6519 399.594 93.9024 399.694 94.1278C400.245 95.1546 400.72 96.1814 401.121 97.2332C401.196 97.4586 401.447 97.5839 401.672 97.4837C401.898 97.4085 402.023 97.1581 401.923 96.9327ZM212.59 89.1691C213.316 90.0707 214.042 90.9722 214.769 91.8738C214.919 92.0742 215.194 92.0992 215.37 91.949C215.57 91.7987 215.595 91.5232 215.445 91.3479C214.718 90.4463 213.992 89.5197 213.241 88.6181C213.091 88.4428 212.815 88.3927 212.64 88.543C212.465 88.6932 212.44 88.9687 212.59 89.1691ZM366.911 87.1155C366.26 88.0922 365.709 89.1691 365.308 90.2961C365.233 90.5215 365.358 90.7719 365.584 90.847C365.784 90.9221 366.035 90.822 366.135 90.5715C366.536 89.4946 367.036 88.4929 367.662 87.5662C367.788 87.3659 367.738 87.0904 367.537 86.9652C367.337 86.865 367.061 86.9401 366.911 87.1155ZM397.49 89.3193C397.314 89.119 397.164 88.9186 396.989 88.7183C396.363 88.017 395.737 87.3659 395.086 86.7398C394.885 86.5645 394.635 86.5895 394.46 86.7648C394.284 86.9401 394.309 87.2156 394.484 87.3909C395.111 87.992 395.737 88.6181 396.338 89.2943C396.513 89.4946 396.664 89.6699 396.814 89.8703C396.989 90.0456 397.265 90.0707 397.44 89.9204C397.64 89.7701 397.665 89.4946 397.49 89.3193ZM207.055 82.4573C207.806 83.3338 208.558 84.2354 209.284 85.1119C209.459 85.2872 209.735 85.3123 209.91 85.162C210.085 85.0118 210.111 84.7363 209.96 84.561C209.234 83.6594 208.483 82.7828 207.731 81.8812C207.581 81.7059 207.305 81.6809 207.13 81.8312C206.93 82.0065 206.905 82.2819 207.055 82.4573ZM390.878 83.5091C389.826 82.883 388.799 82.3321 387.723 81.9063C387.497 81.8061 387.247 81.9313 387.172 82.1317C387.072 82.3571 387.197 82.6075 387.397 82.7077C388.424 83.1334 389.451 83.6343 390.453 84.2604C390.653 84.3857 390.904 84.3105 391.029 84.1102C391.154 83.9098 391.078 83.6343 390.878 83.5091ZM373.823 81.6308C372.721 82.0816 371.644 82.6576 370.693 83.3338C370.492 83.459 370.442 83.7345 370.592 83.9349C370.718 84.1352 370.993 84.1853 371.194 84.035C372.095 83.4089 373.097 82.858 374.149 82.4322C374.349 82.332 374.475 82.0816 374.374 81.8562C374.299 81.6559 374.049 81.5557 373.823 81.6308ZM382.589 80.5539C381.386 80.4037 380.185 80.3786 379.008 80.4537C378.782 80.4788 378.581 80.6791 378.606 80.9296C378.632 81.18 378.832 81.3553 379.057 81.3303C380.159 81.2551 381.286 81.2802 382.463 81.4305C382.689 81.4555 382.914 81.2802 382.939 81.0548C382.989 80.8044 382.814 80.579 382.589 80.5539ZM201.32 75.9458C202.096 76.7973 202.873 77.6488 203.624 78.5254C203.799 78.7007 204.075 78.7257 204.225 78.5504C204.425 78.4001 204.425 78.1246 204.275 77.9243C203.499 77.0478 202.723 76.1963 201.946 75.3448C201.771 75.1695 201.495 75.1444 201.345 75.3197C201.17 75.495 201.17 75.7705 201.32 75.9458ZM195.31 69.7099C196.136 70.5113 196.937 71.3377 197.764 72.1642C197.939 72.3395 198.214 72.3395 198.39 72.1642C198.565 71.9889 198.565 71.7134 198.39 71.5381C197.563 70.7116 196.762 69.8852 195.936 69.0587C195.76 68.8834 195.485 68.8834 195.31 69.0587C195.109 69.2591 195.109 69.5345 195.31 69.7099ZM188.898 63.8495C189.799 64.6009 190.651 65.3522 191.503 66.1286C191.703 66.2788 191.953 66.2788 192.129 66.1035C192.279 65.9282 192.279 65.6527 192.079 65.4774C191.227 64.701 190.351 63.9247 189.449 63.1734C189.274 63.0231 188.998 63.0481 188.848 63.2234C188.698 63.4238 188.723 63.6993 188.898 63.8495ZM182.086 58.5152C183.038 59.1914 183.964 59.8926 184.866 60.5938C185.066 60.7441 185.317 60.694 185.492 60.5187C185.642 60.3183 185.592 60.0679 185.417 59.9176C184.491 59.2164 183.564 58.5152 182.612 57.8139C182.412 57.6637 182.136 57.7138 182.011 57.9141C181.861 58.0894 181.911 58.3649 182.086 58.5152Z" fill="#333333"/>
<path fill-rule="evenodd" clip-rule="evenodd" d="M139.114 342.516C139.114 342.516 127.418 401.795 123.036 424.109C122.61 426.163 123.161 428.291 124.488 429.919C125.816 431.547 127.819 432.474 129.898 432.474C132.577 432.474 134.982 430.921 136.084 428.492C143.697 411.637 172.773 347.199 172.773 347.199L139.114 342.516Z" fill="#A57354"/>
<path fill-rule="evenodd" clip-rule="evenodd" d="M365.472 342.516C365.472 342.516 377.167 401.795 381.55 424.109C381.976 426.163 381.424 428.291 380.097 429.919C378.795 431.547 376.766 432.474 374.688 432.474C372.008 432.474 369.604 430.921 368.502 428.492C360.889 411.637 331.812 347.199 331.812 347.199L365.472 342.516Z" fill="#A57354"/>
<path fill-rule="evenodd" clip-rule="evenodd" d="M162.757 214.503H400.627C400.627 214.503 415.219 122.93 328.652 110.288L234.902 107.008C234.902 107.036 157.242 108.789 162.757 214.503Z" fill="#FE9F3A"/>
<path fill-rule="evenodd" clip-rule="evenodd" d="M177.266 209.022H381.975C381.975 209.022 381.274 133.99 330.084 124.799H229.507C229.507 124.799 180.872 118.663 177.266 209.022Z" fill="#EE7701"/>
<path fill-rule="evenodd" clip-rule="evenodd" d="M126.735 193.68C116.743 193.68 107.226 197.959 100.614 205.435C93.9773 212.911 90.872 222.887 92.0741 232.809C96.1563 267.241 102.418 300.839 112.285 333.048C115.19 342.442 123.88 348.861 133.722 348.861C180.931 348.889 317.495 348.889 363.451 348.889C372.843 348.889 381.233 343.053 384.514 334.243C396.66 301.256 404.474 267.213 408.055 232.169C409.057 222.332 405.851 212.549 399.214 205.213C392.603 197.876 383.186 193.708 373.294 193.708C311.786 193.68 189.17 193.68 126.735 193.68Z" fill="#FE9F3A"/>
<path fill-rule="evenodd" clip-rule="evenodd" d="M73.0711 257.973C72.2189 258.785 71.4437 259.615 70.7507 260.513C70.0803 261.383 69.4303 262.201 68.7751 262.969C66.5224 261.275 62.2137 257.063 62.4548 249.693C62.7958 239.721 70.0199 236.378 64.0415 227.145L59.7678 225.371L61.6508 223.251L81.1636 194.334C90.192 193.508 112.405 201.242 112.405 201.242L117.282 221.426L116.433 233.939L109.709 225.583C94.5789 228.611 75.5249 237.102 70.4729 244.939C65.396 252.779 73.0711 257.973 73.0711 257.973Z" fill="#1B3E77"/>
<path fill-rule="evenodd" clip-rule="evenodd" d="M59.7893 225.351L50.8608 235.502L46.7457 240.807L43.7811 259.01L47.2563 268.637L55.8243 272.662C55.8243 272.662 60.4513 272.892 68.819 262.922C66.5662 261.228 62.2576 257.016 62.4986 249.646C62.8396 239.674 70.0638 236.331 64.0854 227.098L59.7893 225.351Z" fill="#019CEF"/>
<path d="M82.6487 241.465L89.639 237.556L73.6953 209.039L66.705 212.947L82.6487 241.465Z" fill="white"/>
<path d="M91.6343 238.642L99.373 236.376L86.6094 200.867L78.8707 203.134L91.6343 238.642Z" fill="white"/>
<path fill-rule="evenodd" clip-rule="evenodd" d="M91.4838 195.376C91.4838 195.376 78.7993 189.637 72.3431 199.598C65.9117 209.557 52.8547 223.581 48.7687 229.185C44.6828 234.79 34.5914 249.558 39.8179 265.305C43.1671 275.447 49.0703 276.384 55.9338 274.511C59.5376 273.532 58.0662 267.963 55.2738 265.894C52.4565 263.827 46.3743 264.417 46.0575 257.78C45.7407 251.143 48.8311 239.168 58.0309 231.809C67.2057 224.453 74.7441 220.199 70.9202 215.537C70.9226 215.562 93.2665 208.564 91.4838 195.376Z" fill="#CBDAF3"/>
<path fill-rule="evenodd" clip-rule="evenodd" d="M116.427 233.951L115.888 241.879C107.545 243.544 84.0465 247.459 73.0632 257.96C73.0632 257.96 65.3881 252.767 70.465 244.927C75.517 237.09 94.571 228.599 109.701 225.571L116.427 233.951Z" fill="#019CEF"/>
<path d="M99.7872 246.241C99.7624 246.243 99.7127 246.247 99.6851 246.225C99.4534 246.173 99.2983 245.929 99.3442 245.694L103.611 226.015C103.657 225.78 103.912 225.622 104.144 225.675C104.376 225.728 104.531 225.972 104.485 226.207L100.218 245.886C100.194 246.096 100.013 246.248 99.7872 246.241Z" fill="#333333"/>
<path d="M90.4627 249.673C90.4378 249.674 90.3881 249.678 90.3605 249.657C90.1289 249.604 89.9747 249.356 90.0218 249.116L94.3838 228.996C94.4309 228.756 94.6877 228.594 94.9193 228.646C95.151 228.699 95.3051 228.947 95.258 229.188L90.8956 249.307C90.8733 249.546 90.6888 249.678 90.4627 249.673Z" fill="#333333"/>
<path d="M82.6413 252.441C82.5148 252.449 82.4096 252.39 82.3172 252.31L71.6536 242.16C71.4647 241.974 71.4659 241.675 71.6437 241.483C71.8216 241.292 72.1251 241.291 72.314 241.477L82.9779 251.627C83.1668 251.813 83.1654 252.112 82.9875 252.304C82.8902 252.397 82.7678 252.432 82.6413 252.441Z" fill="#333333"/>
<path d="M83.1701 252.364C83.1455 252.367 83.1207 252.371 83.116 252.349C82.8564 252.318 82.7067 252.087 82.7288 251.831L85.3934 232.253C85.4156 231.998 85.6573 231.825 85.8924 231.859C86.152 231.89 86.3021 232.12 86.28 232.376L83.6154 251.954C83.5933 252.21 83.4005 252.376 83.1701 252.364Z" fill="#333333"/>
<path d="M91.275 248.972C91.1833 248.967 91.0812 248.933 90.989 248.877L76.5999 237.181C76.4154 237.017 76.3728 236.744 76.5344 236.538C76.6961 236.333 76.9814 236.324 77.176 236.466L91.5651 248.161C91.7497 248.326 91.7925 248.598 91.6308 248.804C91.5297 248.926 91.3973 248.96 91.275 248.972Z" fill="#333333"/>
<path d="M74.5405 257.165C74.516 257.169 74.5157 257.169 74.4861 257.151C74.2505 257.121 74.0724 256.894 74.0953 256.657L76.4301 236.768C76.453 236.531 76.6918 236.35 76.9275 236.381C77.1632 236.411 77.3417 236.637 77.3188 236.874L74.984 256.764C74.9611 257.001 74.7711 257.173 74.5405 257.165Z" fill="#333333"/>
<path d="M100.691 245.586C100.595 245.58 100.508 245.55 100.408 245.491L84.6725 233.175C84.4823 233.032 84.453 232.735 84.6014 232.549C84.7498 232.364 85.0355 232.329 85.2256 232.472L100.961 244.787C101.152 244.93 101.181 245.228 101.032 245.413C100.964 245.521 100.84 245.584 100.691 245.586Z" fill="#333333"/>
<path d="M110.381 244.047C110.278 244.035 110.175 244.023 110.121 243.95L92.6525 230.278C92.4654 230.128 92.4333 229.849 92.5819 229.663C92.7305 229.478 93.0102 229.448 93.1972 229.598L110.666 243.27C110.853 243.42 110.885 243.699 110.736 243.885C110.646 243.985 110.517 244.044 110.381 244.047Z" fill="#333333"/>
<path fill-rule="evenodd" clip-rule="evenodd" d="M194.373 363.602L194.824 385.715L170.957 391.3L156.281 382.86L156.357 365.43L194.373 363.602Z" fill="#FFB7E7"/>
<path fill-rule="evenodd" clip-rule="evenodd" d="M99.1204 281.011C102.551 298.686 106.734 316.083 111.943 333.062C114.873 342.65 123.714 349.209 133.756 349.209C180.964 349.209 317.505 349.209 363.486 349.209C373.027 349.209 381.542 343.289 384.848 334.341C397.019 301.326 404.833 267.255 408.44 232.183C409.441 222.262 406.21 212.369 399.524 204.949C392.812 197.529 383.295 193.305 373.328 193.305C360.104 193.305 348.459 193.305 348.459 193.305C348.259 193.305 348.108 193.471 348.108 193.666C348.108 193.86 348.284 194.027 348.459 194.027C348.459 194.027 360.129 194.027 373.328 194.027C383.12 194.027 392.436 198.168 398.998 205.421C405.559 212.675 408.715 222.373 407.738 232.1C404.132 267.116 396.343 301.104 384.197 334.091C380.991 342.761 372.727 348.486 363.486 348.486C317.505 348.486 180.964 348.486 133.756 348.486C124.039 348.486 115.424 342.122 112.594 332.812C107.41 315.832 103.228 298.491 99.8218 280.844C99.7717 280.65 99.6215 280.539 99.4212 280.566C99.2208 280.65 99.0953 280.844 99.1204 281.011Z" fill="#333333"/>
<path fill-rule="evenodd" clip-rule="evenodd" d="M201.867 268.731C201.867 268.731 262.299 265.025 288.094 271.261L287.393 237.201L204.672 235.773L201.867 268.731Z" fill="#EE7701"/>
<path fill-rule="evenodd" clip-rule="evenodd" d="M288.078 271.291C288.078 271.291 291.259 215.968 301.502 205.55C311.745 195.132 345.855 193.704 345.855 193.704C345.855 193.704 306.085 190.373 291.735 207.253C277.409 224.108 275.781 269.262 275.781 269.262C275.781 269.262 281.892 270.214 288.078 271.291Z" fill="#EE7701"/>
<path fill-rule="evenodd" clip-rule="evenodd" d="M139.864 252.935C137.66 264.078 135.732 285.773 144.197 314.923C144.197 314.923 133.753 324.882 145.649 344.531C145.649 344.531 138.887 358.608 151.76 367.06C164.632 375.485 214.47 370.344 197.565 346.658C197.565 346.658 216.974 323.321 202.649 306.929C202.649 306.929 209.286 281.87 207.308 262.84L200.596 258.48C191.154 260.391 184.617 253.689 184.617 253.689C167.387 258.587 150.908 249.328 150.908 249.328C148.454 251.266 142.819 252.423 139.864 252.935Z" fill="#6A6FFF"/>
<path fill-rule="evenodd" clip-rule="evenodd" d="M139.859 252.928C142.815 252.427 148.425 251.275 150.929 249.347C150.929 249.347 167.408 258.588 184.638 253.704C184.638 253.704 191.175 260.391 200.617 258.488L207.328 262.846C206.902 258.914 206.151 255.232 204.874 252.102L195.783 240.732C195.783 240.732 165.705 238.853 158.367 238.102C151.004 237.351 142.088 244.513 142.088 244.513C142.088 244.513 140.936 247.443 139.859 252.928Z" fill="#1B3E77"/>
<path fill-rule="evenodd" clip-rule="evenodd" d="M131.978 201.221C131.978 201.221 116.5 194.234 109.438 201.747C102.35 209.26 99.2952 254.64 128.547 244.772C128.547 244.772 140.418 249.155 150.21 244.146C150.21 244.146 167.34 254.189 185.271 248.98C185.271 248.98 191.081 257.695 200.999 254.865C200.999 254.865 216.902 268.514 223.338 256.493C223.338 256.493 253.842 271.294 278.986 261.026L298.846 200.92L214.247 209.035L131.978 201.221Z" fill="#6A6FFF"/>
<path fill-rule="evenodd" clip-rule="evenodd" d="M136.445 207.777L214.884 217.669L257.408 212.986C257.408 212.986 263.619 215.19 270.03 212.986C270.03 212.986 282.452 216.743 289.54 211.859C289.54 211.859 295.125 212.585 298.806 210.757L309.926 188.969L140.327 198.285L136.445 207.777Z" fill="#1B3E77"/>
<path d="M211.182 209.156L261.891 203.156L260.095 189.283L209.387 195.283L211.182 209.156Z" fill="#FF7316"/>
<path fill-rule="evenodd" clip-rule="evenodd" d="M241.009 98.5C241.009 98.5 234.072 99.4517 231.893 108.943C231.893 108.943 221.825 122.718 221.224 135.265C221.224 135.265 213.486 140.95 214.212 147.812C214.212 147.812 206.122 147.837 198.734 152.27L203.693 200.354L245.567 189.26L241.009 98.5Z" fill="#A1A4FF"/>
<path fill-rule="evenodd" clip-rule="evenodd" d="M239.72 116.328L233.835 145.354C233.835 145.354 227.749 148.735 229.077 159.529C229.077 159.529 219.36 166.917 221.689 175.107L225.195 173.929C225.195 173.929 226.071 165.815 232.708 160.982C232.708 160.982 230.379 152.417 237.291 147.959L239.72 116.328Z" fill="#1B3E77"/>
<path d="M247.97 65.651C251.755 65.651 254.823 62.5829 254.823 58.7981C254.823 55.0134 251.755 51.9453 247.97 51.9453C244.185 51.9453 241.117 55.0134 241.117 58.7981C241.117 62.5829 244.185 65.651 247.97 65.651Z" fill="#E73D17"/>
<path fill-rule="evenodd" clip-rule="evenodd" d="M245.117 51.1858C245.117 51.1858 246.67 79.16 258.716 80.0616L260.419 89.8538L262.924 97.7677L265.478 99.2704L276.823 89.4531L281.181 79.3353L278.702 64.6345L274.469 49.2574L270.237 44.1484L253.732 47.3791L245.117 51.1858Z" fill="#FFB7E7"/>
<path fill-rule="evenodd" clip-rule="evenodd" d="M258.67 80.3395C258.67 80.3395 264.179 81.1409 270.991 74.98C271.141 74.8548 271.141 74.6545 271.016 74.5292C270.916 74.404 270.691 74.379 270.566 74.5042C264.029 80.4146 258.769 79.6883 258.769 79.6883C258.594 79.6633 258.419 79.7885 258.394 79.9638C258.369 80.1391 258.494 80.3144 258.67 80.3395Z" fill="#333333"/>
<path fill-rule="evenodd" clip-rule="evenodd" d="M267.434 77.7656C267.434 77.7656 264.329 83.9515 259.721 85.8298L258.719 80.0446C258.719 80.0446 263.202 80.5706 267.434 77.7656Z" fill="#333333"/>
<path fill-rule="evenodd" clip-rule="evenodd" d="M254.386 58.7881C254.386 58.7881 254.486 65.5751 255.463 68.3299C255.513 68.405 255.563 68.4802 255.638 68.5052C255.713 68.5303 255.813 68.5553 255.888 68.5302L257.641 67.9041C257.817 67.8541 257.917 67.6537 257.842 67.4784C257.767 67.3031 257.592 67.228 257.416 67.278L255.964 67.7789C255.112 64.9239 255.012 58.7631 255.012 58.7631C255.012 58.5878 254.862 58.4375 254.686 58.4375C254.511 58.4625 254.361 58.6128 254.386 58.7881Z" fill="#333333"/>
<path fill-rule="evenodd" clip-rule="evenodd" d="M256.918 73.9254C256.918 73.9254 262.127 74.5515 264.707 69.3424C264.782 69.1921 264.732 68.9918 264.556 68.9166C264.381 68.8415 264.206 68.8916 264.105 69.0669C261.726 73.8503 256.993 73.2993 256.993 73.2993C256.792 73.2743 256.642 73.3995 256.617 73.5748C256.617 73.7501 256.743 73.9004 256.918 73.9254Z" fill="#333333"/>
<path fill-rule="evenodd" clip-rule="evenodd" d="M262.823 68.0428C262.823 68.0428 263.875 70.2466 266.38 69.5204C266.555 69.4703 266.655 69.295 266.605 69.1197C266.555 68.9443 266.38 68.8442 266.204 68.8943C264.251 69.4452 263.425 67.7422 263.425 67.7422C263.35 67.592 263.149 67.5168 262.974 67.592C262.823 67.6922 262.773 67.8925 262.823 68.0428Z" fill="#333333"/>
<path fill-rule="evenodd" clip-rule="evenodd" d="M258.489 56.9582C258.489 56.9582 260.268 55.0548 262.196 56.5074C262.346 56.6076 262.547 56.5825 262.647 56.4323C262.747 56.282 262.722 56.0817 262.572 55.9815C260.192 54.1783 257.988 56.5074 257.988 56.5074C257.863 56.6326 257.889 56.833 258.014 56.9582C258.139 57.1084 258.364 57.1084 258.489 56.9582Z" fill="#333333"/>
<path fill-rule="evenodd" clip-rule="evenodd" d="M248.541 58.818C248.541 58.818 250.133 56.7563 252.189 58.0216C252.348 58.1072 252.545 58.0635 252.631 57.9045C252.716 57.7455 252.672 57.5484 252.513 57.4628C249.976 55.8907 248 58.4162 248 58.4162C247.887 58.5526 247.931 58.7498 248.067 58.8627C248.229 58.9733 248.428 58.9545 248.541 58.818Z" fill="#333333"/>
<path d="M259.975 58.8094C259.375 58.9118 259.013 59.7242 259.167 60.6241C259.32 61.524 259.931 62.1706 260.531 62.0682C261.131 61.9658 261.493 61.1533 261.339 60.2534C261.186 59.3535 260.575 58.707 259.975 58.8094Z" fill="#333333"/>
<path d="M250.609 60.5402C250.01 60.6468 249.654 61.4619 249.814 62.3607C249.974 63.2594 250.589 63.9014 251.188 63.7948C251.788 63.6881 252.144 62.873 251.984 61.9743C251.824 61.0755 251.208 60.4335 250.609 60.5402Z" fill="#333333"/>
<path fill-rule="evenodd" clip-rule="evenodd" d="M0.371806 432.853H528.117C528.326 432.853 528.488 432.678 528.488 432.477C528.488 432.277 528.326 432.102 528.117 432.102H0.371806C0.185858 432.102 0 432.277 0 432.477C0 432.678 0.185858 432.853 0.371806 432.853Z" fill="#333333"/>
<path fill-rule="evenodd" clip-rule="evenodd" d="M433.317 39.9062L435.858 60.5917C435.978 61.5918 436.382 62.5011 437.027 63.2285C437.672 63.9559 438.479 64.4105 439.366 64.5469L457.713 67.411L439.366 70.2752C438.479 70.4115 437.672 70.8662 437.027 71.5936C436.382 72.321 435.978 73.2302 435.858 74.2304L433.317 94.9158L430.777 74.2304C430.656 73.2302 430.253 72.321 429.607 71.5936C428.962 70.8662 428.156 70.4115 427.269 70.2752L408.922 67.411L427.269 64.5469C428.156 64.4105 428.962 63.9559 429.607 63.2285C430.253 62.5011 430.656 61.5918 430.777 60.5917L433.317 39.9062Z" fill="#FFDB3B"/>
<path fill-rule="evenodd" clip-rule="evenodd" d="M180.364 76.4609L182.066 90.3229C182.147 90.9931 182.417 91.6024 182.85 92.0899C183.282 92.5774 183.823 92.882 184.417 92.9734L196.712 94.8928L184.417 96.8121C183.823 96.9035 183.282 97.2082 182.85 97.6956C182.417 98.1831 182.147 98.7924 182.066 99.4626L180.364 113.325L178.661 99.4626C178.58 98.7924 178.31 98.1831 177.878 97.6956C177.446 97.2082 176.905 96.9035 176.311 96.8121L164.016 94.8928L176.311 92.9734C176.905 92.882 177.446 92.5774 177.878 92.0899C178.31 91.6024 178.58 90.9931 178.661 90.3229L180.364 76.4609Z" fill="#FFDB3B"/>
<path fill-rule="evenodd" clip-rule="evenodd" d="M142.874 82.9601C142.874 81.6829 142.373 80.4557 141.446 79.5291C140.545 78.6275 139.317 78.1016 138.015 78.1016C116.327 78.1016 28.0718 78.1016 6.35864 78.1016C5.05635 78.1016 3.8289 78.6024 2.92731 79.5291C2.02573 80.4307 1.5 81.6578 1.5 82.9601C1.5 96.534 1.5 134.926 1.5 148.525C1.5 149.803 2.02573 151.03 2.92731 151.956C3.8289 152.858 5.05635 153.384 6.35864 153.384C28.0718 153.384 116.327 153.384 138.015 153.384C139.317 153.384 140.545 152.883 141.446 151.956C142.373 151.055 142.874 149.828 142.874 148.525C142.874 134.952 142.874 96.559 142.874 82.9601Z" fill="#C6ECFF"/>
<path d="M139.006 98.8482C148.321 98.8482 155.872 91.2972 155.872 81.9827C155.872 72.6681 148.321 65.1172 139.006 65.1172C129.692 65.1172 122.141 72.6681 122.141 81.9827C122.141 91.2972 129.692 98.8482 139.006 98.8482Z" fill="#3471D2"/>
<path d="M19.6672 101.905C22.1845 101.905 24.2255 99.8644 24.2255 97.3471C24.2255 94.8298 22.1845 92.7891 19.6672 92.7891C17.1499 92.7891 15.1094 94.8298 15.1094 97.3471C15.1094 99.8644 17.1499 101.905 19.6672 101.905Z" fill="#3471D2"/>
<path d="M19.6672 120.319C22.1845 120.319 24.2255 118.278 24.2255 115.761C24.2255 113.244 22.1845 111.203 19.6672 111.203C17.1499 111.203 15.1094 113.244 15.1094 115.761C15.1094 118.278 17.1499 120.319 19.6672 120.319Z" fill="#3471D2"/>
<path d="M19.6672 138.71C22.1845 138.71 24.2255 136.669 24.2255 134.152C24.2255 131.634 22.1845 129.594 19.6672 129.594C17.1499 129.594 15.1094 131.634 15.1094 134.152C15.1094 136.669 17.1499 138.71 19.6672 138.71Z" fill="#3471D2"/>
<path fill-rule="evenodd" clip-rule="evenodd" d="M35.7347 97.709H109.949C110.136 97.709 110.292 97.5588 110.292 97.3584C110.292 97.1581 110.136 97.0078 109.949 97.0078H35.7347C35.516 97.0078 35.3594 97.1581 35.3594 97.3584C35.3594 97.5588 35.5472 97.709 35.7347 97.709Z" fill="#333333"/>
<path fill-rule="evenodd" clip-rule="evenodd" d="M35.7347 116.092H109.949C110.136 116.092 110.292 115.942 110.292 115.741C110.292 115.541 110.136 115.391 109.949 115.391H35.7347C35.516 115.391 35.3594 115.541 35.3594 115.741C35.3906 115.942 35.5472 116.092 35.7347 116.092Z" fill="#333333"/>
<path fill-rule="evenodd" clip-rule="evenodd" d="M35.7347 134.506H109.949C110.136 134.506 110.292 134.356 110.292 134.155C110.292 133.955 110.136 133.805 109.949 133.805H35.7347C35.516 133.805 35.3594 133.955 35.3594 134.155C35.3906 134.356 35.5472 134.506 35.7347 134.506Z" fill="#333333"/>
<path fill-rule="evenodd" clip-rule="evenodd" d="M486.775 165.296C489.981 164.344 494.839 161.614 496.717 153.6C499.597 141.229 512.645 142.456 512.871 153.049C513.071 162.766 506.434 177.292 488.828 175.063C489.079 177.292 489.229 179.596 489.229 181.975C489.229 201.535 479.838 217.438 468.292 217.438C457.674 217.438 448.908 204.064 447.531 186.734C431.177 190.741 425.142 178.068 425.292 169.754C425.467 161.314 435.86 160.337 438.165 170.205C439.943 177.768 445.076 179.446 447.38 179.821C448.057 161.239 457.148 146.513 468.292 146.513C476.256 146.488 483.244 154.101 486.775 165.296Z" fill="#7BC53E"/>
<path fill-rule="evenodd" clip-rule="evenodd" d="M476.645 145.08C478.047 143.177 480.702 142.751 482.605 144.129C484.508 145.506 484.934 148.161 483.557 150.064C483.181 150.59 482.906 150.966 482.906 150.966C482.906 150.966 483.356 151.116 483.982 151.316C486.211 152.043 487.439 154.447 486.712 156.676C485.986 158.905 483.582 160.132 481.353 159.405C480.727 159.205 480.276 159.055 480.276 159.055V160.182C480.276 162.536 478.373 164.439 476.019 164.439C473.665 164.439 471.761 162.536 471.761 160.182C471.761 159.531 471.761 159.055 471.761 159.055C471.761 159.055 471.31 159.205 470.684 159.405C468.455 160.132 466.051 158.905 465.325 156.676C464.623 154.447 465.826 152.043 468.055 151.316C468.681 151.116 469.132 150.966 469.132 150.966C469.132 150.966 468.856 150.59 468.481 150.064C467.103 148.161 467.529 145.506 469.432 144.129C471.335 142.751 473.99 143.177 475.393 145.08C475.768 145.606 476.044 145.982 476.044 145.982C476.044 145.982 476.269 145.606 476.645 145.08Z" fill="#FFB7E7"/>
<path fill-rule="evenodd" clip-rule="evenodd" d="M317.874 48.9041C309.484 36.8579 310.661 20.1535 321.38 9.40964C333.451 -2.63655 353.011 -2.63655 365.057 9.40964C377.128 21.4558 377.128 41.0403 365.057 53.0865C354.338 63.8303 337.609 65.0074 325.563 56.5926L306.078 68.3633L317.874 48.9041Z" fill="#C6ECFF"/>
<path fill-rule="evenodd" clip-rule="evenodd" d="M342.522 0.735523C350.586 0.535171 358.7 3.51541 364.836 9.67624C376.782 21.5972 376.782 40.9563 364.836 52.8522C354.242 63.4708 337.713 64.6229 325.792 56.3082C325.692 56.2331 325.541 56.2331 325.416 56.3082L305.932 68.0789C305.757 68.1791 305.732 68.4045 305.832 68.5548C305.907 68.7301 306.158 68.7802 306.308 68.68L325.567 57.0095C337.738 65.3742 354.518 64.147 365.337 53.328C377.533 41.1315 377.533 21.3468 365.337 9.15032C359.05 2.86427 350.761 -0.191105 342.497 0.00924776C342.296 0.00924776 342.146 0.184555 342.171 0.359863C342.146 0.585259 342.321 0.735523 342.522 0.735523Z" fill="#333333"/>
<path fill-rule="evenodd" clip-rule="evenodd" d="M137.916 80.8923H132.757C132.181 80.8923 131.68 81.368 131.68 81.9691C131.68 82.5702 132.181 83.046 132.757 83.046H137.916V88.2051C137.916 88.8062 138.416 89.282 138.992 89.282C139.593 89.282 140.069 88.8062 140.069 88.2051V83.046H145.228C145.829 83.046 146.306 82.5702 146.306 81.9691C146.306 81.368 145.829 80.8923 145.228 80.8923H140.069V75.7332C140.069 75.1321 139.593 74.6562 138.992 74.6562C138.416 74.6562 137.916 75.1321 137.916 75.7332V80.8923Z" fill="white"/>
<path fill-rule="evenodd" clip-rule="evenodd" d="M145.68 23.8438L190.083 32.1083L178.362 37.2173L145.68 23.8438Z" fill="#FE5E3A"/>
<path fill-rule="evenodd" clip-rule="evenodd" d="M178.388 37.2173L177.035 53.6712L172.978 40.9488L145.68 23.8438L178.388 37.2173Z" fill="#E73D17"/>
<path fill-rule="evenodd" clip-rule="evenodd" d="M145.68 23.8438L177.035 53.6712L172.978 40.9488L145.68 23.8438Z" fill="#A7341E"/>
<path fill-rule="evenodd" clip-rule="evenodd" d="M262.08 198.587L213.594 205.023L214.915 213.003L263.142 206.514L262.08 198.587Z" fill="#F6C500"/>
<path fill-rule="evenodd" clip-rule="evenodd" d="M128.694 244.468C126.891 243.541 125.288 242.414 124.086 240.912C123.935 240.761 123.71 240.736 123.56 240.861C123.384 240.987 123.359 241.212 123.484 241.387C124.762 242.965 126.44 244.167 128.343 245.119C128.543 245.219 128.769 245.144 128.844 244.969C128.969 244.768 128.894 244.568 128.694 244.468Z" fill="#333333"/>
<path fill-rule="evenodd" clip-rule="evenodd" d="M276.576 56.9425C276.576 56.9425 268.862 55.0141 268.111 48.6529C268.111 48.6529 245.146 55.2395 235.754 50.2808C226.413 45.322 239.535 41.6656 243.217 42.0413C243.217 42.0413 236.13 34.4279 243.793 32.3242C251.482 30.2205 258.744 34.7034 258.744 34.7034C258.744 34.7034 264.529 31.3475 271.667 32.5245C271.667 32.5245 274.897 24.6357 279.931 25.963C284.114 27.0649 278.529 33.2759 276.225 34.1023C276.225 34.1023 286.293 40.4134 284.715 51.007L276.576 56.9425Z" fill="#333333"/>
<path fill-rule="evenodd" clip-rule="evenodd" d="M268.407 90.2511L264.451 97.5389L260.719 89.3495L254.984 88.5481C254.984 88.5481 245.091 93.607 241.034 98.4906C241.034 98.4906 238.229 140.289 237.128 148.053C237.128 148.053 230.415 150.006 232.444 161.326C232.444 161.326 225.056 166.585 225.181 175.601L226.058 193.508L319.147 187.748L325.483 104.326C325.483 104.326 324.03 99.5174 317.669 98.9664C317.669 98.9664 301.691 85.8934 287.29 83.4141L268.407 90.2511Z" fill="#A1A4FF"/>
<path fill-rule="evenodd" clip-rule="evenodd" d="M264.358 98.9521L259.424 136.668C258.873 136.769 257.646 137.119 256.594 138.246C255.267 139.674 254.14 142.379 255.142 147.563C254.541 147.713 253.238 148.189 252.312 149.641C251.485 150.919 250.884 152.947 251.235 156.228C251.26 156.428 251.435 156.553 251.61 156.528C251.811 156.503 251.936 156.328 251.936 156.153C251.586 153.097 252.112 151.194 252.888 150.042C253.99 148.364 255.593 148.214 255.593 148.214C255.668 148.214 255.793 148.164 255.818 148.063C255.893 147.988 255.893 147.888 255.893 147.788C255.067 143.731 255.543 141.226 256.419 139.674C257.671 137.47 259.775 137.32 259.775 137.32C259.95 137.295 260.075 137.194 260.1 137.019L265.084 99.0523C265.134 98.852 264.984 98.6767 264.784 98.6516C264.559 98.6266 264.383 98.7518 264.358 98.9521Z" fill="#333333"/>
<path fill-rule="evenodd" clip-rule="evenodd" d="M254.414 87.2422V95.3564L259.548 92.1759L254.414 87.2422Z" fill="#1B3E77"/>
<path fill-rule="evenodd" clip-rule="evenodd" d="M243.353 198.787C238.144 199.989 229.254 201.066 223.118 196.508C223.118 196.508 218.66 199.588 216.03 200.389C216.03 200.389 213.05 202.493 210.546 202.969L208.492 180.304C208.492 180.304 221.44 173.091 225.171 173.417C228.302 173.667 242.126 175.445 246.434 175.996C245.632 176.848 239.321 184.311 243.353 198.787Z" fill="#FFB7E7"/>
<path fill-rule="evenodd" clip-rule="evenodd" d="M247.709 176.164V177.166L246.633 176.039L247.709 176.164Z" fill="#FFB7E7"/>
<path fill-rule="evenodd" clip-rule="evenodd" d="M218.901 181.048L209.435 185.756C209.235 185.856 209.134 186.132 209.235 186.332C209.335 186.532 209.61 186.632 209.811 186.532L219.277 181.799C219.477 181.699 219.578 181.423 219.478 181.223C219.378 181.048 219.102 180.947 218.901 181.048Z" fill="#333333"/>
<path fill-rule="evenodd" clip-rule="evenodd" d="M219.466 186.834L210.024 191.542C209.849 191.642 209.774 191.868 209.849 192.043C209.924 192.218 210.175 192.294 210.35 192.218L219.792 187.485C219.992 187.385 220.067 187.159 219.967 186.984C219.867 186.809 219.642 186.734 219.466 186.834Z" fill="#333333"/>
<path fill-rule="evenodd" clip-rule="evenodd" d="M219.708 192.061L210.267 196.769C210.092 196.869 210.016 197.095 210.091 197.27C210.167 197.445 210.417 197.52 210.592 197.445L220.034 192.712C220.235 192.612 220.31 192.386 220.209 192.211C220.109 192.061 219.884 191.986 219.708 192.061Z" fill="#333333"/>
<path fill-rule="evenodd" clip-rule="evenodd" d="M273.751 123.056C273.676 123.031 273.551 123.056 273.501 123.131C273.426 123.181 273.376 123.282 273.351 123.357L270.32 147.825C270.32 147.925 270.345 148 270.395 148.075C273.25 151.957 276.306 153.81 279.161 154.512C285.872 156.164 291.583 151.531 291.583 151.531C291.658 151.481 291.683 151.406 291.708 151.306L295.414 126.512C295.439 126.412 295.415 126.337 295.339 126.262C295.289 126.187 295.214 126.137 295.114 126.137L273.751 123.056ZM274.002 123.783L294.688 126.738L291.032 151.055C290.23 151.657 285.197 155.263 279.311 153.835C276.606 153.159 273.726 151.406 271.021 147.775L274.002 123.783Z" fill="#333333"/>
<path fill-rule="evenodd" clip-rule="evenodd" d="M273.321 128.567L284.466 130.119C284.691 130.145 284.916 129.994 284.941 129.744C284.991 129.493 284.816 129.293 284.565 129.243L273.446 127.69C273.196 127.665 272.995 127.815 272.945 128.066C272.945 128.316 273.096 128.542 273.321 128.567Z" fill="#333333"/>
<path d="M343.816 42.1865C350.773 42.1865 356.413 36.5466 356.413 29.5893C356.413 22.6321 350.773 16.9922 343.816 16.9922C336.859 16.9922 331.219 22.6321 331.219 29.5893C331.219 36.5466 336.859 42.1865 343.816 42.1865Z" fill="#FFDB3B"/>
<path fill-rule="evenodd" clip-rule="evenodd" d="M487.799 182.31L491.38 181.834C491.581 181.809 491.706 181.634 491.681 181.458C491.656 181.283 491.481 181.158 491.305 181.183L487.724 181.659C487.549 181.684 487.423 181.859 487.449 182.034C487.474 182.185 487.649 182.31 487.799 182.31Z" fill="#333333"/>
<path fill-rule="evenodd" clip-rule="evenodd" d="M487.56 186.758L489.363 189.037C489.463 189.187 489.689 189.212 489.814 189.087C489.964 188.986 489.989 188.761 489.889 188.636L488.086 186.357C487.986 186.207 487.76 186.182 487.635 186.307C487.46 186.407 487.46 186.607 487.56 186.758Z" fill="#333333"/>
<path fill-rule="evenodd" clip-rule="evenodd" d="M451.664 155.611L453.467 159.693C453.542 159.868 453.743 159.944 453.918 159.868C454.093 159.793 454.143 159.593 454.093 159.443L452.29 155.361C452.215 155.185 452.014 155.11 451.839 155.185C451.689 155.26 451.614 155.461 451.664 155.611Z" fill="#333333"/>
<path fill-rule="evenodd" clip-rule="evenodd" d="M450.02 160.991L452.775 161.842C452.95 161.892 453.125 161.792 453.2 161.617C453.25 161.441 453.15 161.266 452.975 161.216L450.245 160.364C450.045 160.314 449.894 160.415 449.819 160.59C449.744 160.74 449.87 160.915 450.02 160.991Z" fill="#333333"/>
<path fill-rule="evenodd" clip-rule="evenodd" d="M464.02 175.387L463.519 178.091C463.469 178.267 463.594 178.442 463.769 178.467C463.97 178.492 464.12 178.392 464.145 178.217L464.646 175.512C464.696 175.336 464.571 175.161 464.395 175.136C464.22 175.086 464.02 175.211 464.02 175.387Z" fill="#333333"/>
<path fill-rule="evenodd" clip-rule="evenodd" d="M460.021 178.238L460.597 179.866C460.647 180.041 460.848 180.116 461.023 180.066C461.198 180.016 461.298 179.816 461.223 179.64L460.622 178.012C460.547 177.837 460.372 177.762 460.196 177.812C460.021 177.887 459.946 178.063 460.021 178.238Z" fill="#333333"/>
<path fill-rule="evenodd" clip-rule="evenodd" d="M469.446 181.284L467.993 183.162C467.868 183.312 467.918 183.513 468.068 183.613C468.218 183.713 468.394 183.688 468.519 183.538L469.946 181.659C470.072 181.509 470.021 181.309 469.871 181.209C469.771 181.108 469.546 181.133 469.446 181.284Z" fill="#333333"/>
<path fill-rule="evenodd" clip-rule="evenodd" d="M464.138 161.367L466.092 162.72C466.242 162.82 466.442 162.795 466.543 162.645C466.643 162.494 466.592 162.294 466.467 162.194L464.514 160.841C464.364 160.741 464.163 160.766 464.063 160.916C463.938 161.067 463.988 161.267 464.138 161.367Z" fill="#333333"/>
<path fill-rule="evenodd" clip-rule="evenodd" d="M457.058 197.483L457.559 199.812C457.609 199.987 457.759 200.112 457.959 200.062C458.135 200.012 458.26 199.862 458.21 199.661L457.709 197.332C457.659 197.157 457.484 197.057 457.308 197.082C457.133 197.132 457.008 197.307 457.058 197.483Z" fill="#333333"/>
<path fill-rule="evenodd" clip-rule="evenodd" d="M437.979 171.819L439.607 170.316C439.732 170.191 439.757 169.99 439.631 169.865C439.506 169.74 439.306 169.715 439.18 169.84L437.553 171.343C437.427 171.468 437.402 171.668 437.528 171.794C437.653 171.919 437.853 171.944 437.979 171.819Z" fill="#333333"/>
<path fill-rule="evenodd" clip-rule="evenodd" d="M438.699 173.652L440.151 173.126C440.327 173.051 440.402 172.875 440.352 172.7C440.277 172.525 440.101 172.45 439.926 172.5L438.474 173.026C438.298 173.076 438.223 173.276 438.273 173.451C438.348 173.627 438.523 173.727 438.699 173.652Z" fill="#333333"/>
<path fill-rule="evenodd" clip-rule="evenodd" d="M424.238 173.42L426.643 174.121C426.818 174.172 426.993 174.071 427.043 173.896C427.093 173.721 426.993 173.545 426.818 173.495L424.413 172.794C424.238 172.744 424.088 172.844 424.013 173.02C423.963 173.195 424.063 173.37 424.238 173.42Z" fill="#333333"/>
<path fill-rule="evenodd" clip-rule="evenodd" d="M425.632 176.418L426.835 176.017C427.01 175.967 427.11 175.766 427.035 175.616C426.96 175.441 426.784 175.341 426.609 175.416L425.432 175.817C425.231 175.867 425.157 176.067 425.232 176.217C425.257 176.393 425.457 176.468 425.632 176.418Z" fill="#333333"/>
<path fill-rule="evenodd" clip-rule="evenodd" d="M431.451 185.667L432.753 184.464C432.878 184.339 432.878 184.139 432.753 184.014C432.653 183.888 432.427 183.863 432.302 183.989L431 185.191C430.875 185.316 430.875 185.516 431 185.641C431.075 185.792 431.301 185.792 431.451 185.667Z" fill="#333333"/>
<path fill-rule="evenodd" clip-rule="evenodd" d="M492.767 158.831L494.095 160.91C494.17 161.06 494.395 161.11 494.545 161.01C494.721 160.91 494.746 160.709 494.646 160.559L493.344 158.48C493.243 158.33 493.018 158.28 492.893 158.38C492.767 158.48 492.667 158.681 492.767 158.831Z" fill="#333333"/>
<path fill-rule="evenodd" clip-rule="evenodd" d="M494.896 155.46L495.572 157.815C495.622 157.99 495.797 158.09 495.973 158.04C496.148 157.99 496.248 157.815 496.198 157.639L495.522 155.285C495.472 155.11 495.322 155.01 495.121 155.06C494.946 155.11 494.846 155.285 494.896 155.46Z" fill="#333333"/>
<path fill-rule="evenodd" clip-rule="evenodd" d="M511.807 150.623L513.56 149.622C513.736 149.521 513.761 149.346 513.686 149.171C513.61 149.021 513.385 148.945 513.235 149.046L511.457 150.047C511.306 150.148 511.256 150.348 511.331 150.498C511.457 150.648 511.632 150.699 511.807 150.623Z" fill="#333333"/>
<path fill-rule="evenodd" clip-rule="evenodd" d="M512.355 153.486L513.782 154.237C513.933 154.312 514.133 154.262 514.233 154.112C514.308 153.961 514.258 153.761 514.083 153.661L512.68 152.91C512.505 152.834 512.33 152.884 512.23 153.035C512.155 153.21 512.205 153.385 512.355 153.486Z" fill="#333333"/>
<path fill-rule="evenodd" clip-rule="evenodd" d="M505.101 170.069L507.304 170.67C507.48 170.72 507.655 170.62 507.705 170.444C507.755 170.269 507.63 170.094 507.48 170.044L505.301 169.443C505.1 169.392 504.95 169.493 504.9 169.668C504.825 169.843 504.925 170.019 505.101 170.069Z" fill="#333333"/>
<path fill-rule="evenodd" clip-rule="evenodd" d="M496.188 172.102L497.115 170.174C497.19 169.999 497.114 169.823 496.939 169.748C496.789 169.673 496.589 169.748 496.513 169.899L495.612 171.827C495.537 172.002 495.587 172.177 495.762 172.253C495.912 172.328 496.087 172.278 496.188 172.102Z" fill="#333333"/>
<path d="M342.201 41.745C342.176 41.745 342.151 41.745 342.126 41.745C341.95 41.6949 341.825 41.5196 341.85 41.3192C342.376 38.89 343.002 35.3838 342.426 32.078C341.775 31.9778 341.149 31.7775 340.573 31.4519C340.147 31.2265 338.87 30.5002 339.02 29.3733C339.07 28.9976 339.271 28.6971 339.596 28.4967C340.147 28.1962 340.874 28.2713 341.324 28.4717C342.251 28.8724 342.651 29.9242 342.902 30.9009C342.952 31.0762 342.977 31.2515 343.027 31.4269C343.478 31.4519 343.954 31.4269 344.404 31.3267C344.404 31.2766 344.405 31.2265 344.43 31.1514C344.455 30.951 344.48 30.7256 344.53 30.5253C344.655 29.9993 345.181 28.5718 346.058 28.2463C346.308 28.1461 346.684 28.121 347.109 28.4466C347.41 28.672 347.56 28.9976 347.56 29.3733C347.535 30.1997 346.734 31.0512 346.333 31.3267C345.958 31.5771 345.532 31.7524 345.106 31.9027C344.956 34.1316 345.407 36.4607 345.832 38.6896C345.983 39.5161 346.158 40.3926 346.283 41.2191C346.308 41.4194 346.183 41.5947 345.982 41.6198C345.782 41.6448 345.607 41.5196 345.582 41.3192C345.457 40.4928 345.281 39.6413 345.131 38.8148C344.705 36.611 344.279 34.3069 344.404 32.053C344.029 32.1281 343.628 32.1531 343.228 32.1281C343.779 35.484 343.152 39.0152 342.626 41.4445C342.501 41.6448 342.376 41.745 342.201 41.745ZM340.448 28.9976C340.273 28.9976 340.097 29.0226 339.947 29.0978C339.797 29.1729 339.721 29.2981 339.721 29.4484C339.671 29.8992 340.047 30.35 340.924 30.8258C341.35 31.0512 341.825 31.2265 342.301 31.3267C342.276 31.2516 342.251 31.1514 342.251 31.0762C342.05 30.2748 341.725 29.3983 341.074 29.0978C340.874 29.0477 340.648 28.9976 340.448 28.9976ZM346.383 28.8974C346.333 28.8974 346.308 28.8974 346.258 28.9224C345.807 29.0978 345.332 30.0745 345.181 30.7006C345.156 30.8508 345.131 31.0011 345.106 31.1514C345.381 31.0512 345.657 30.926 345.907 30.7507C346.258 30.5253 346.809 29.824 346.834 29.3733C346.834 29.223 346.784 29.1228 346.658 29.0226C346.533 28.9225 346.433 28.8974 346.383 28.8974Z" fill="#333333"/>
<path fill-rule="evenodd" clip-rule="evenodd" d="M320.442 29.959H325.878C326.058 29.959 326.211 29.8088 326.211 29.6084C326.211 29.4081 326.058 29.2578 325.878 29.2578H320.442C320.237 29.2578 320.109 29.4081 320.109 29.6084C320.109 29.8088 320.263 29.959 320.442 29.959Z" fill="#333333"/>
<path fill-rule="evenodd" clip-rule="evenodd" d="M360.856 29.959H366.292C366.472 29.959 366.625 29.8088 366.625 29.6084C366.625 29.4081 366.472 29.2578 366.292 29.2578H360.856C360.651 29.2578 360.523 29.4081 360.523 29.6084C360.523 29.8088 360.677 29.959 360.856 29.959Z" fill="#333333"/>
<path fill-rule="evenodd" clip-rule="evenodd" d="M343.74 12.0884V6.65308C343.74 6.44797 343.59 6.31957 343.39 6.31957C343.189 6.31957 343.039 6.47361 343.039 6.65308V12.0884C343.039 12.2935 343.189 12.4219 343.39 12.4219C343.565 12.4219 343.74 12.2935 343.74 12.0884Z" fill="#333333"/>
<path fill-rule="evenodd" clip-rule="evenodd" d="M327.396 46.01L331.239 42.1667C331.384 42.0216 331.369 41.8246 331.227 41.6829C331.085 41.5413 330.87 41.5439 330.743 41.6708L326.9 45.5142C326.755 45.6592 326.77 45.8563 326.912 45.9979C327.054 46.1396 327.269 46.1369 327.396 46.01Z" fill="#333333"/>
<path fill-rule="evenodd" clip-rule="evenodd" d="M355.982 17.4788L359.825 13.6354C359.952 13.5085 359.955 13.2934 359.813 13.1517C359.671 13.01 359.456 13.0127 359.329 13.1396L355.486 16.9829C355.341 17.128 355.356 17.325 355.498 17.4667C355.64 17.6083 355.855 17.6057 355.982 17.4788Z" fill="#333333"/>
<path fill-rule="evenodd" clip-rule="evenodd" d="M326.927 13.6067L330.771 17.45C330.898 17.5769 331.113 17.5796 331.255 17.4379C331.396 17.2963 331.394 17.0811 331.267 16.9542L327.423 13.1108C327.278 12.9658 327.081 12.9813 326.94 13.1229C326.798 13.2646 326.801 13.4798 326.927 13.6067Z" fill="#333333"/>
<path fill-rule="evenodd" clip-rule="evenodd" d="M355.482 42.177L359.325 46.0203C359.452 46.1472 359.668 46.1499 359.809 46.0082C359.951 45.8666 359.948 45.6514 359.821 45.5245L355.978 41.6811C355.833 41.5361 355.636 41.5516 355.494 41.6932C355.353 41.8349 355.355 42.0501 355.482 42.177Z" fill="#333333"/>
<path d="M273.222 49.5675C273.121 49.5675 272.996 49.5174 272.946 49.4172C272.571 48.7911 269.214 43.2564 270.767 41.1778C271.518 40.1509 272.746 39.625 273.998 39.7753C275.601 39.9506 277.98 41.2779 280.234 46.4621C280.309 46.6374 280.234 46.8127 280.058 46.8878C279.883 46.9629 279.708 46.8878 279.633 46.7125C277.404 41.5534 275.1 40.5516 273.923 40.4264C272.896 40.3012 271.919 40.727 271.293 41.5785C270.216 43.031 272.52 47.4889 273.497 49.0917C273.597 49.2419 273.547 49.4423 273.397 49.5425C273.347 49.5425 273.297 49.5675 273.222 49.5675Z" fill="white"/>
<path d="M271.806 40.9601C271.706 40.9601 271.606 40.91 271.531 40.8098C267.098 34.2483 260.386 33.8726 260.311 33.8726C260.136 33.8726 259.986 33.7224 260.011 33.522C260.011 33.3467 260.186 33.1964 260.361 33.2215C260.436 33.2215 267.473 33.5972 272.107 40.4342C272.207 40.5845 272.157 40.7848 272.032 40.885C271.932 40.9351 271.881 40.9601 271.806 40.9601Z" fill="white"/>
<path fill-rule="evenodd" clip-rule="evenodd" d="M281.497 77.1484L268.398 90.2465C268.398 90.2465 274.434 97.8098 275.311 101.566L287.307 83.4094C287.307 83.4345 284.978 78.3506 281.497 77.1484Z" fill="#A1A4FF"/>
<path fill-rule="evenodd" clip-rule="evenodd" d="M259.272 83.4375L254.414 87.2442L263.931 96.4103L259.272 83.4375Z" fill="#A1A3FF"/>
<path fill-rule="evenodd" clip-rule="evenodd" d="M145.68 23.8438L159.454 53.6712L172.978 40.9488L145.68 23.8438Z" fill="#FE5E3A"/>
<path fill-rule="evenodd" clip-rule="evenodd" d="M269.5 59.148C269.5 59.148 270.977 69.0905 279.492 69.416L277.689 58.5469L269.5 59.148Z" fill="#EC78C6"/>
<path fill-rule="evenodd" clip-rule="evenodd" d="M278.278 46.4688C274.696 47.8712 272.116 51.3774 272.116 55.4596C272.116 60.7939 276.449 65.1266 281.784 65.1266L282.159 65.1015C281.083 65.5273 279.88 65.7777 278.628 65.7777C273.293 65.7777 268.961 61.4451 268.961 56.1107C268.986 50.9015 273.144 46.6691 278.278 46.4688Z" fill="#E73D17"/>
<path fill-rule="evenodd" clip-rule="evenodd" d="M278.325 46.4938L278.676 46.4688C284.01 46.4688 288.368 50.8014 288.368 56.1357C288.368 60.2179 285.788 63.7241 282.207 65.1266L281.831 65.1516C276.497 65.1516 272.164 60.819 272.164 55.4846C272.164 51.3774 274.719 47.8712 278.325 46.4938Z" fill="#FE5E3A"/>
<path fill-rule="evenodd" clip-rule="evenodd" d="M286.436 84.1367L275.417 100.941C274.69 99.1881 272.436 94.1793 269.281 90.7483C269.131 90.5981 268.93 90.598 268.78 90.7232C268.63 90.8485 268.63 91.0739 268.755 91.2241C272.587 95.3313 275.016 101.818 275.016 101.818C275.066 101.943 275.166 102.018 275.316 102.043C275.442 102.068 275.567 101.993 275.642 101.893L287.037 84.5123C287.137 84.337 287.087 84.1367 286.962 84.0365C286.762 83.9363 286.561 83.9864 286.436 84.1367Z" fill="#333333"/>
<path fill-rule="evenodd" clip-rule="evenodd" d="M254.549 87.9307L263.314 96.3205C263.465 96.4457 263.665 96.4457 263.79 96.3205C263.94 96.1702 263.94 95.9699 263.79 95.8196L255.025 87.4299C254.9 87.3046 254.674 87.3046 254.549 87.4299C254.399 87.5801 254.424 87.8055 254.549 87.9307Z" fill="#333333"/>
<path fill-rule="evenodd" clip-rule="evenodd" d="M301.534 126.422C301.534 126.422 294.723 131.656 294.347 151.14C294.347 151.14 290.991 156.049 293.07 164.288C293.07 164.288 296.676 162.41 298.229 161.959C298.229 161.959 295.249 154.421 298.429 150.84C298.454 150.84 296.45 136.815 301.534 126.422Z" fill="#1B3E77"/>
<path fill-rule="evenodd" clip-rule="evenodd" d="M240.003 109.021L236.772 147.714C235.745 148.34 230.461 152.022 232.339 160.937C231.363 161.564 227.405 164.444 225.402 171.18C225.352 171.356 225.477 171.556 225.652 171.606C225.828 171.656 226.028 171.556 226.078 171.381C228.282 163.968 232.915 161.413 232.915 161.413C233.04 161.338 233.116 161.188 233.091 161.038C230.987 151.571 237.298 148.24 237.298 148.24C237.398 148.19 237.473 148.09 237.498 147.965L240.729 109.096C240.754 108.896 240.604 108.746 240.403 108.721C240.203 108.671 240.028 108.821 240.003 109.021Z" fill="#333333"/>
<path fill-rule="evenodd" clip-rule="evenodd" d="M246.639 175.978L246.438 175.952L246.513 175.852L246.639 175.978Z" fill="#333333"/>
<path fill-rule="evenodd" clip-rule="evenodd" d="M246.45 175.977L246.65 176.002L247.727 177.129L247.602 197.564C247.602 197.564 245.924 198.191 243.37 198.792C239.337 184.341 245.623 176.878 246.45 175.977Z" fill="#333333"/>
<path fill-rule="evenodd" clip-rule="evenodd" d="M298.23 161.737C298.23 161.737 294.773 155.726 297.979 151.143C297.979 151.143 294.823 130.532 305.592 119.563C316.336 108.568 325.502 104.336 325.502 104.336C325.502 104.336 333.091 114.729 333.491 131.509C333.491 131.509 339.577 144.582 335.62 163.189C335.62 163.189 336.822 199.779 300.959 205.764C300.959 205.764 293.746 209.546 290.315 206.641C290.315 206.641 281.199 214.78 269.403 206.991C269.403 206.991 258.985 213.979 246.839 198.552C242.657 193.267 241.154 177.264 248.417 175.16C255.68 173.032 266.023 177.54 266.023 177.54C266.023 177.54 277.017 166.32 284.781 171.153C284.781 171.153 290.14 165.193 298.23 161.737Z" fill="#A1A4FF"/>
<path fill-rule="evenodd" clip-rule="evenodd" d="M298.343 162.173C298.343 162.173 302.175 160.646 307.409 161.247C307.634 161.272 307.86 161.096 307.885 160.871C307.91 160.646 307.735 160.42 307.484 160.395C302.025 159.769 298.017 161.372 298.017 161.372C297.792 161.472 297.692 161.722 297.767 161.948C297.892 162.148 298.143 162.273 298.343 162.173Z" fill="#333333"/>
<path fill-rule="evenodd" clip-rule="evenodd" d="M304.577 120.157C304.577 120.157 295.336 132.228 297.915 150.635C297.414 151.337 295.261 155.018 297.79 161.755C296.212 162.331 289.525 165.061 285.018 170.671C283.465 170.195 274.775 168.041 265.859 177.132C264.431 176.531 256.667 173.35 249.655 174.578C249.455 174.603 249.33 174.803 249.355 174.978C249.405 175.179 249.555 175.304 249.78 175.254C257.369 173.926 265.808 177.858 265.808 177.858C265.934 177.908 266.109 177.883 266.209 177.783C275.726 167.941 285.042 171.397 285.042 171.397C285.193 171.447 285.343 171.397 285.443 171.297C290.452 164.936 298.391 162.281 298.391 162.281C298.466 162.256 298.566 162.181 298.591 162.106C298.641 162.03 298.641 161.93 298.591 161.83C295.736 154.517 298.566 150.936 298.566 150.936C298.641 150.861 298.641 150.761 298.641 150.661C296.037 132.504 305.128 120.558 305.128 120.558C305.253 120.407 305.228 120.182 305.078 120.057C304.927 119.982 304.702 120.007 304.577 120.157Z" fill="#333333"/>
<path fill-rule="evenodd" clip-rule="evenodd" d="M290.468 205.69L289.068 203.08C288.966 202.895 288.751 202.836 288.575 202.934C288.399 203.033 288.335 203.26 288.417 203.43L289.793 206.043C289.895 206.228 290.134 206.284 290.287 206.189C290.486 206.087 290.55 205.86 290.468 205.69Z" fill="#333333"/>
<path fill-rule="evenodd" clip-rule="evenodd" d="M269.587 206.186L269.011 203.732C268.936 203.532 268.761 203.406 268.56 203.456C268.36 203.506 268.234 203.707 268.284 203.907L268.886 206.361C268.936 206.562 269.136 206.687 269.337 206.637C269.537 206.587 269.662 206.386 269.587 206.186Z" fill="#333333"/>
<path fill-rule="evenodd" clip-rule="evenodd" d="M332.804 131.604L330.825 133.231C330.675 133.357 330.65 133.557 330.776 133.682C330.876 133.807 331.101 133.833 331.227 133.732L333.205 132.104C333.33 131.979 333.355 131.779 333.255 131.654C333.13 131.503 332.929 131.478 332.804 131.604Z" fill="#333333"/>
<path fill-rule="evenodd" clip-rule="evenodd" d="M221.621 135.78L223.199 136.281C223.374 136.331 223.55 136.23 223.6 136.055C223.675 135.88 223.549 135.704 223.399 135.654L221.822 135.154C221.646 135.103 221.471 135.204 221.396 135.379C221.346 135.554 221.446 135.73 221.621 135.78Z" fill="#333333"/>
<path fill-rule="evenodd" clip-rule="evenodd" d="M214.224 148.47L216.253 151C216.353 151.15 216.578 151.175 216.729 151.05C216.879 150.924 216.929 150.724 216.804 150.574L214.8 148.044C214.675 147.894 214.45 147.869 214.299 147.994C214.149 148.094 214.124 148.32 214.224 148.47Z" fill="#333333"/>
<path fill-rule="evenodd" clip-rule="evenodd" d="M203.022 141.474C202.639 139.283 200.767 137.688 198.555 137.688C184.834 137.688 138.249 137.688 121.955 137.688C120.594 137.688 119.275 138.304 118.424 139.389C117.552 140.474 117.233 141.878 117.531 143.218C120.764 157.406 129.209 194.717 131.528 204.906C131.889 206.438 133.187 207.565 134.782 207.671C148.949 208.607 214.913 212.989 214.913 212.989C214.913 212.989 205.553 156.747 203.022 141.474Z" fill="#FFDB3B"/>
<path fill-rule="evenodd" clip-rule="evenodd" d="M158.316 173.71C155.005 175.325 152.07 175.568 150.797 174.053C148.95 171.854 151.371 166.765 156.208 162.701C161.046 158.638 166.476 157.132 168.323 159.331C169.595 160.846 168.863 163.711 166.688 166.678C169.211 165.614 171.39 165.561 172.375 166.734C173.962 168.623 171.893 172.973 167.756 176.448C163.635 179.91 158.977 181.211 157.39 179.322C156.405 178.149 156.849 175.998 158.316 173.71Z" fill="white"/>
<path fill-rule="evenodd" clip-rule="evenodd" d="M142.528 246.702C142.528 246.702 147.887 245.775 150.216 244.523C151.994 245.525 167.922 254.04 185.153 249.357C186.104 250.584 191.864 257.446 200.955 255.217C201.657 255.743 204.912 258.272 206.165 258.798C206.34 258.873 206.515 258.798 206.59 258.623C206.665 258.448 206.59 258.272 206.415 258.197C205.063 257.621 201.206 254.616 201.206 254.616C201.131 254.566 201.031 254.541 200.93 254.566C191.288 256.995 185.528 248.806 185.528 248.806C185.453 248.705 185.303 248.655 185.178 248.68C167.071 253.714 150.366 243.897 150.366 243.897C150.266 243.847 150.141 243.847 150.041 243.897C147.887 245.149 142.428 246.101 142.428 246.101C142.227 246.126 142.127 246.301 142.152 246.477C142.177 246.652 142.353 246.727 142.528 246.702Z" fill="#333333"/>
<path fill-rule="evenodd" clip-rule="evenodd" d="M185.27 248.961C185.27 248.961 180.587 243.852 179.885 233.133C179.885 233.133 178.333 243.426 181.113 249.862L185.27 248.961Z" fill="#1B3E77"/>
<path fill-rule="evenodd" clip-rule="evenodd" d="M223.342 256.483C223.342 256.483 219.385 253.427 217.482 249.345C215.553 245.263 217.231 248.894 217.231 248.894C217.231 248.894 218.809 256.658 221.689 258.862C221.689 258.862 223.017 257.284 223.342 256.483Z" fill="#1B3E77"/>
<path fill-rule="evenodd" clip-rule="evenodd" d="M185.533 248.724C185.533 248.724 179.523 241.812 180.048 226.735C180.048 226.535 179.898 226.359 179.698 226.359C179.497 226.359 179.322 226.51 179.297 226.71C178.771 242.137 185.007 249.2 185.007 249.2C185.132 249.35 185.358 249.375 185.533 249.225C185.658 249.099 185.683 248.874 185.533 248.724Z" fill="#333333"/>
<path fill-rule="evenodd" clip-rule="evenodd" d="M145.013 315.327L148.294 315.953C148.47 315.978 148.645 315.878 148.67 315.703C148.72 315.527 148.595 315.352 148.42 315.327L145.138 314.676C144.938 314.651 144.788 314.751 144.763 314.926C144.713 315.126 144.813 315.302 145.013 315.327Z" fill="#333333"/>
<path fill-rule="evenodd" clip-rule="evenodd" d="M201.563 307.143L198.057 309.847C197.907 309.948 197.882 310.173 197.982 310.298C198.082 310.423 198.308 310.474 198.433 310.348L201.939 307.644C202.089 307.543 202.115 307.318 202.014 307.193C201.914 307.043 201.689 307.017 201.563 307.143Z" fill="#333333"/>
<path fill-rule="evenodd" clip-rule="evenodd" d="M196.888 346.647L192.806 348.525C192.63 348.6 192.555 348.8 192.631 348.951C192.706 349.101 192.906 349.176 193.081 349.101L197.163 347.223C197.339 347.147 197.389 346.947 197.339 346.797C197.238 346.647 197.038 346.572 196.888 346.647Z" fill="#333333"/>
<path fill-rule="evenodd" clip-rule="evenodd" d="M116.969 424.015L134.075 421.508C134.075 421.508 136.775 414.704 133.056 410.545C129.337 406.385 112.369 406.248 108.733 404.402C106.557 403.273 106.86 400.931 107.438 399.223C108.237 398.975 109.063 398.728 109.945 398.507C119.917 395.808 149.529 381.263 149.529 381.263L160.052 376.305C160.052 376.305 173.412 391.951 191.041 383.577C191.041 383.577 195.752 381.566 197.653 385.367C200.104 390.298 197.653 418.203 197.653 418.203L187.185 422.886L116.969 424.015Z" fill="#1B3E77"/>
<path fill-rule="evenodd" clip-rule="evenodd" d="M107.486 399.281C106.908 400.962 106.577 403.331 108.781 404.46C112.39 406.306 129.386 406.443 133.105 410.603C136.823 414.762 134.124 421.566 134.124 421.566L117.017 424.073L97.3492 424.376C97.3492 424.376 88.7823 417.627 90.6003 410.63C90.6003 410.327 90.2148 404.46 107.486 399.281Z" fill="#019CEF"/>
<path fill-rule="evenodd" clip-rule="evenodd" d="M337.678 44.7593C336.727 44.4838 336.05 43.6323 336.05 42.6055C336.05 41.3533 337.052 40.3516 338.279 40.3516C341.384 40.3516 346.995 40.3516 350.1 40.3516C351.327 40.3516 352.329 41.3533 352.329 42.6055C352.329 43.6323 351.653 44.5089 350.701 44.7593C351.653 45.0348 352.329 45.8863 352.329 46.9131C352.329 48.1653 351.327 49.1671 350.1 49.1671H348.171C348.246 49.3925 348.272 49.6179 348.272 49.8683C348.272 50.5445 347.996 51.1956 347.52 51.6715C347.044 52.1473 346.369 52.4228 345.692 52.4228C344.716 52.4228 343.613 52.4228 342.637 52.4228C341.96 52.4228 341.31 52.1473 340.809 51.6715C340.333 51.1956 340.082 50.5445 340.082 49.8683C340.082 49.6429 340.107 49.3925 340.157 49.1671H338.229C337.002 49.1671 336 48.1653 336 46.9131C336.05 45.8863 336.752 45.0097 337.678 44.7593Z" fill="#5679B0"/>
<path d="M344.198 45.1309H337.687C337.486 45.1309 337.336 44.9806 337.336 44.7803C337.336 44.5799 337.486 44.4297 337.687 44.4297H344.198C344.398 44.4297 344.548 44.5799 344.548 44.7803C344.548 44.9806 344.398 45.1309 344.198 45.1309Z" fill="#333333"/>
<path d="M348.173 49.4949H340.201C340.007 49.4949 339.891 49.3446 339.891 49.1693C339.891 48.994 340.046 48.8438 340.201 48.8438H348.173C348.367 48.8438 348.483 48.994 348.483 49.1693C348.483 49.3446 348.367 49.4949 348.173 49.4949Z" fill="#333333"/>
<path fill-rule="evenodd" clip-rule="evenodd" d="M449.471 235.44C435.368 218.235 449.471 206.414 449.471 206.414H467.247H468.699H470.125H487.9C487.9 206.414 502.03 218.235 487.9 235.44H449.471Z" fill="#FE9F3A"/>
<path d="M464.593 213.264C463.75 213.233 463.008 214.81 462.936 216.787C462.864 218.763 463.49 220.391 464.333 220.421C465.176 220.452 465.918 218.874 465.989 216.898C466.061 214.921 465.436 213.294 464.593 213.264Z" fill="#333333"/>
<path d="M473.921 213.264C473.078 213.233 472.336 214.81 472.264 216.787C472.192 218.763 472.818 220.391 473.661 220.421C474.504 220.452 475.246 218.874 475.317 216.898C475.389 214.921 474.764 213.294 473.921 213.264Z" fill="#333333"/>
<path fill-rule="evenodd" clip-rule="evenodd" d="M455.334 221.44C461.445 232.134 476.447 232.309 481.956 221.415C482.032 221.265 481.982 221.064 481.806 220.964C481.631 220.889 481.456 220.939 481.355 221.114C476.096 231.533 461.746 231.332 455.861 221.089C455.786 220.939 455.56 220.889 455.41 220.964C455.285 221.089 455.234 221.29 455.334 221.44Z" fill="#333333"/>
<path fill-rule="evenodd" clip-rule="evenodd" d="M453.956 222.958C453.956 222.958 454.482 221.555 455.759 221.104C456.31 220.904 457.012 220.904 457.863 221.23C458.038 221.305 458.214 221.205 458.289 221.054C458.364 220.879 458.264 220.704 458.089 220.629C457.037 220.228 456.21 220.253 455.534 220.503C453.956 221.054 453.33 222.732 453.33 222.732C453.255 222.908 453.355 223.083 453.505 223.158C453.706 223.208 453.881 223.133 453.956 222.958Z" fill="#333333"/>
<path fill-rule="evenodd" clip-rule="evenodd" d="M483.842 222.722C483.842 222.722 483.216 221.044 481.638 220.493C480.962 220.268 480.135 220.218 479.084 220.619C478.908 220.694 478.833 220.869 478.883 221.044C478.958 221.22 479.134 221.295 479.309 221.22C480.161 220.894 480.861 220.894 481.412 221.094C482.69 221.545 483.216 222.948 483.216 222.948C483.291 223.123 483.466 223.198 483.641 223.148C483.817 223.073 483.917 222.873 483.842 222.722Z" fill="#333333"/>
<path fill-rule="evenodd" clip-rule="evenodd" d="M472.97 199.74L470.615 200.817C470.44 200.892 470.39 201.093 470.44 201.243C470.515 201.418 470.716 201.468 470.891 201.393L473.245 200.316C473.395 200.241 473.47 200.041 473.395 199.891C473.32 199.74 473.12 199.665 472.97 199.74Z" fill="#333333"/>
<path fill-rule="evenodd" clip-rule="evenodd" d="M453.771 199.195L455.975 200.848C456.125 200.949 456.325 200.923 456.426 200.773C456.526 200.623 456.5 200.423 456.375 200.322L454.172 198.669C454.021 198.569 453.821 198.594 453.721 198.745C453.595 198.87 453.621 199.095 453.771 199.195Z" fill="#333333"/>
<path fill-rule="evenodd" clip-rule="evenodd" d="M447.142 177.624C447.142 177.624 445.89 193.978 453.353 207.477C453.428 207.652 453.678 207.702 453.829 207.602C454.004 207.502 454.054 207.301 453.954 207.126C446.616 193.778 447.843 177.649 447.843 177.649C447.868 177.449 447.718 177.298 447.517 177.273C447.342 177.298 447.167 177.424 447.142 177.624Z" fill="#333333"/>
<path fill-rule="evenodd" clip-rule="evenodd" d="M484.376 160.095C484.376 160.095 488.508 170.013 488.858 181.859C488.883 182.059 489.034 182.209 489.234 182.184C489.409 182.184 489.56 182.009 489.56 181.834C489.184 169.863 485.002 159.845 485.002 159.845C484.927 159.67 484.701 159.594 484.551 159.67C484.376 159.695 484.276 159.895 484.376 160.095Z" fill="#333333"/>
<path d="M476.031 157.758C478.521 157.758 480.539 155.74 480.539 153.25C480.539 150.76 478.521 148.742 476.031 148.742C473.542 148.742 471.523 150.76 471.523 153.25C471.523 155.74 473.542 157.758 476.031 157.758Z" fill="#FE5E3A"/>
<path d="M440.892 285.571L514.859 284.5L510.312 234.603L436.345 235.674L440.892 285.571Z" fill="#C6ECFF"/>
<path d="M444.339 335.621L517.805 332.953L506.396 283.052L432.931 285.72L444.339 335.621Z" fill="#C6ECFF"/>
<path d="M454.756 386.767L525.148 380.352L496.524 330.458L426.131 336.873L454.756 386.767Z" fill="#C6ECFF"/>
<path d="M483.607 439.227L539.336 426.484L467.517 376.586L411.788 389.328L483.607 439.227Z" fill="#C6ECFF"/>
<path fill-rule="evenodd" clip-rule="evenodd" d="M493.233 275.806C493.233 274.453 492.131 273.352 490.778 273.352C484.267 273.352 466.661 273.352 460.149 273.352C458.797 273.352 457.695 274.453 457.695 275.806C457.695 277.158 458.797 278.26 460.149 278.26C466.661 278.26 484.267 278.26 490.778 278.26C492.131 278.26 493.233 277.158 493.233 275.806Z" fill="#019CEF"/>
<path fill-rule="evenodd" clip-rule="evenodd" d="M493.233 325.072C493.233 323.719 492.131 322.617 490.778 322.617C484.267 322.617 466.661 322.617 460.149 322.617C458.797 322.617 457.695 323.719 457.695 325.072C457.695 326.424 458.797 327.526 460.149 327.526C466.661 327.526 484.267 327.526 490.778 327.526C492.131 327.526 493.233 326.424 493.233 325.072Z" fill="#019CEF"/>
<path fill-rule="evenodd" clip-rule="evenodd" d="M493.233 374.322C493.233 372.969 492.131 371.867 490.778 371.867C484.267 371.867 466.661 371.867 460.149 371.867C458.797 371.867 457.695 372.969 457.695 374.322C457.695 375.674 458.797 376.776 460.149 376.776C466.661 376.776 484.267 376.776 490.778 376.776C492.131 376.801 493.233 375.674 493.233 374.322Z" fill="#019CEF"/>
<path fill-rule="evenodd" clip-rule="evenodd" d="M493.233 423.571C493.233 422.219 492.131 421.117 490.778 421.117C484.267 421.117 466.661 421.117 460.149 421.117C458.797 421.117 457.695 422.219 457.695 423.571C457.695 424.924 458.797 426.026 460.149 426.026C466.661 426.026 484.267 426.026 490.778 426.026C492.131 426.026 493.233 424.924 493.233 423.571Z" fill="#019CEF"/>
<path fill-rule="evenodd" clip-rule="evenodd" d="M437.961 285.053H512.993C513.194 285.053 513.344 284.903 513.344 284.702C513.344 284.502 513.194 284.352 512.993 284.352H437.961C437.761 284.352 437.636 284.502 437.636 284.702C437.61 284.877 437.761 285.053 437.961 285.053Z" fill="#333333"/>
<path fill-rule="evenodd" clip-rule="evenodd" d="M437.961 334.318H512.993C513.194 334.318 513.344 334.168 513.344 333.968C513.344 333.767 513.194 333.617 512.993 333.617H437.961C437.761 333.617 437.636 333.767 437.636 333.968C437.61 334.168 437.761 334.318 437.961 334.318Z" fill="#333333"/>
<path fill-rule="evenodd" clip-rule="evenodd" d="M437.961 383.568H512.993C513.194 383.568 513.344 383.418 513.344 383.218C513.344 383.017 513.194 382.867 512.993 382.867H437.961C437.761 382.867 437.636 383.017 437.636 383.218C437.61 383.418 437.761 383.568 437.961 383.568Z" fill="#333333"/>
<path d="M150.415 413.375L161.821 420.278L170.906 394.469L159.5 387.566L150.415 413.375Z" fill="white"/>
<path d="M177.682 407.333L175.176 401.583L116.773 410.227L119.28 415.977L177.682 407.333Z" fill="white"/>
<path fill-rule="evenodd" clip-rule="evenodd" d="M197.943 415.242C197.943 415.242 202.46 420.007 199.871 427.886C198.962 430.613 196.428 432.458 193.563 432.458C178.164 432.458 123.925 432.458 102.549 432.458C96.4892 432.458 91.2003 428.381 89.6302 422.514C88.5559 418.382 88.2528 413.809 90.5667 410.531C90.5667 410.531 91.641 418.878 98.2797 419.539C104.891 420.2 111.667 418.988 116.818 421.329C121.97 423.671 135.66 417.445 141.831 418.602C147.974 419.759 148.772 421.412 157.146 422.128C165.493 422.9 189.651 405.242 197.943 415.242Z" fill="#CBDAF3"/>
<path fill-rule="evenodd" clip-rule="evenodd" d="M113.749 397.303C113.749 397.303 118.047 398.818 123.721 398.046C129.423 397.275 156.336 386.367 156.336 386.367C156.336 386.367 164.793 382.262 166.281 374.329C167.768 366.396 154.739 365.845 151.736 367.608C147.274 370.225 149.56 381.326 149.56 381.326L113.749 397.303Z" fill="#019CEF"/>
<path fill-rule="evenodd" clip-rule="evenodd" d="M142.421 383.527L147.93 387.411C148.095 387.522 148.316 387.494 148.426 387.329C148.536 387.164 148.509 386.943 148.343 386.833L142.807 382.949C142.641 382.839 142.421 382.866 142.311 383.032C142.228 383.197 142.256 383.417 142.421 383.527Z" fill="#333333"/>
<path fill-rule="evenodd" clip-rule="evenodd" d="M136.479 385.876L141.5 389.397C141.65 389.496 141.884 389.459 141.993 389.321C142.104 389.156 142.062 388.944 141.911 388.845L136.917 385.323C136.767 385.224 136.533 385.261 136.423 385.4C136.288 385.539 136.329 385.777 136.479 385.876Z" fill="#333333"/>
<path fill-rule="evenodd" clip-rule="evenodd" d="M130.012 389.122L134.731 392.43C134.896 392.548 135.096 392.506 135.207 392.342C135.318 392.177 135.283 391.971 135.119 391.854L130.425 388.543C130.26 388.426 130.06 388.467 129.949 388.632C129.838 388.797 129.873 389.003 130.012 389.122Z" fill="#333333"/>
<path fill-rule="evenodd" clip-rule="evenodd" d="M122.541 392.427L126.625 395.288C126.79 395.387 126.995 395.356 127.102 395.217C127.214 395.052 127.176 394.836 127.012 394.737L122.95 391.873C122.785 391.774 122.58 391.805 122.469 391.969C122.342 392.087 122.38 392.303 122.541 392.427Z" fill="#333333"/>
</svg>
