<svg width="70" height="70" viewBox="0 0 70 70" fill="none" xmlns="http://www.w3.org/2000/svg">
<path d="M26.0408 53.6605C26.0408 53.6605 23.4339 55.1776 27.8986 55.6895C33.3083 56.3074 36.0727 56.2188 42.0326 55.0923C42.0326 55.0923 43.6026 56.0739 45.7912 56.9248C32.4261 62.6506 15.5447 56.5929 26.0408 53.6605ZM24.4068 46.1875C24.4068 46.1875 21.4821 48.3526 25.9506 48.8152C31.7294 49.4119 36.292 49.4605 44.1911 47.9402C44.1911 47.9402 45.281 49.0477 46.9976 49.6525C30.8418 54.3775 12.8475 50.0244 24.4068 46.1875Z" fill="#0074BD"/>
<path d="M38.1757 33.5085C41.4706 37.3011 37.3116 40.7109 37.3116 40.7109C37.3116 40.7109 45.6728 36.3955 41.8337 30.9891C38.2468 25.9496 35.4971 23.4466 50.3841 14.8125C50.3841 14.813 27.0156 20.6477 38.1757 33.5085Z" fill="#EA2D2E"/>
<path d="M55.8419 59.1922C55.8419 59.1922 57.7718 60.7836 53.7156 62.0135C46.0036 64.3498 21.6108 65.0542 14.8361 62.1071C12.4019 61.0472 16.9683 59.5778 18.405 59.2677C19.9029 58.9434 20.7582 59.0024 20.7582 59.0024C18.0495 57.0955 3.25108 62.7485 13.2425 64.37C40.4883 68.7866 62.908 62.381 55.8419 59.1922ZM27.289 38.4465C27.289 38.4465 14.8826 41.3936 22.8959 42.4649C26.28 42.9178 33.023 42.8139 39.3082 42.2867C44.4433 41.8552 49.5965 40.9337 49.5965 40.9337C49.5965 40.9337 47.7875 41.7097 46.4772 42.6033C33.8761 45.9179 9.53904 44.3741 16.5462 40.9856C22.4699 38.1206 27.289 38.4465 27.289 38.4465ZM49.5451 50.8863C62.3535 44.2324 56.4308 37.8378 52.297 38.6992C51.2864 38.9097 50.833 39.0929 50.833 39.0929C50.833 39.0929 51.2093 38.5028 51.9268 38.2491C60.1042 35.3753 66.3922 46.7273 49.2892 51.2237C49.2892 51.2226 49.4855 51.0449 49.5451 50.8863Z" fill="#0074BD"/>
<path d="M41.8272 0.867188C41.8272 0.867188 48.9191 7.96344 35.099 18.872C24.016 27.6252 32.5719 32.6149 35.0952 38.3183C28.6251 32.4815 23.8793 27.3425 27.0627 22.5601C31.7373 15.5415 44.6879 12.1372 41.8272 0.867188Z" fill="#EA2D2E"/>
<path d="M28.557 68.9181C40.8485 69.704 59.7288 68.4806 60.1756 62.6641C60.1756 62.6641 59.3165 64.8691 50.0163 66.6185C39.524 68.5938 26.5805 68.3636 18.9062 67.0965C18.9062 67.097 20.4785 68.3986 28.557 68.9181Z" fill="#0074BD"/>
</svg>
