<svg width="70" height="70" viewBox="0 0 70 70" fill="none" xmlns="http://www.w3.org/2000/svg">
<path d="M26.2275 43.2153L26.3331 43.2667L26.5212 43.3575C26.7613 43.4718 27.0035 43.585 27.248 43.6938L27.4017 43.7622C27.6822 43.8852 27.9644 44.0023 28.2499 44.1149L28.4566 44.1959C28.7202 44.2987 28.9882 44.3982 29.2567 44.4928L29.3573 44.5273C29.6521 44.6301 29.9496 44.7258 30.2498 44.8193L30.4658 44.8833C30.771 44.9757 31.0723 45.0856 31.3873 45.1441C51.3778 48.7891 57.1839 33.1309 57.1839 33.1309C52.3069 39.4845 43.6504 41.1607 35.4484 39.2948C35.1378 39.2248 34.8359 39.1274 34.5329 39.0377L34.3049 38.9688C34.0095 38.8782 33.7156 38.7826 33.4233 38.6823L33.3025 38.6385C33.042 38.5463 32.7829 38.4502 32.5253 38.3503L32.3077 38.265C32.0258 38.1541 31.7461 38.0378 31.4688 37.9161L31.3009 37.8417C31.0637 37.7347 30.8278 37.625 30.5932 37.5125L30.3882 37.4141C30.2044 37.3244 30.0223 37.2287 29.8407 37.1352L29.4754 36.9438C29.2547 36.825 29.036 36.7023 28.8197 36.5757L28.5982 36.4521C28.3106 36.2819 28.0257 36.1073 27.7435 35.9282L27.5132 35.7751C27.3084 35.6437 27.1056 35.5089 26.9051 35.3709L26.7093 35.2331C26.5157 35.0964 26.3243 34.958 26.1346 34.8175L25.8797 34.6245C25.7052 34.4918 25.5324 34.3568 25.3613 34.2198L25.13 34.0338C24.9122 33.8551 24.6968 33.6737 24.4835 33.4897L24.413 33.4301C24.1828 33.2285 23.956 33.023 23.7327 32.8138L23.5413 32.6295C23.3756 32.4725 23.2132 32.3139 23.0529 32.1515L22.8615 31.9601C22.6585 31.7522 22.4589 31.5411 22.2627 31.3268L22.2332 31.2951C22.0263 31.0685 21.8237 30.8381 21.6256 30.6038L21.4664 30.4146C21.3188 30.2369 21.1722 30.0564 21.0295 29.8743L20.8693 29.6752C20.6978 29.4536 20.5295 29.2296 20.3645 29.0031C15.8112 22.7917 14.175 14.2249 17.8144 7.18937L14.5884 11.2811C10.4546 17.2218 10.9697 24.9513 14.1268 31.2645L14.3582 31.7134L14.5064 31.9978L14.5982 32.1613L14.7628 32.4561C14.8607 32.6289 14.9608 32.8006 15.0636 32.9723L15.2359 33.2562C15.3496 33.4399 15.4661 33.6215 15.5859 33.803L15.7346 34.0338C15.8993 34.2788 16.0677 34.5238 16.241 34.7645L16.2558 34.7836L16.3411 34.899C16.4915 35.1063 16.6463 35.3108 16.8027 35.5131L16.9766 35.7341C17.116 35.9096 17.2588 36.0846 17.4032 36.2585L17.5661 36.4527C17.7603 36.6818 17.9582 36.9093 18.1606 37.1319L18.1726 37.1445L18.1956 37.1696C18.3925 37.3851 18.5948 37.5951 18.7993 37.8062L18.9929 38.0014C19.1515 38.1611 19.3123 38.318 19.4753 38.4745L19.6727 38.662C19.8898 38.8666 20.1091 39.0673 20.3333 39.2641L20.3443 39.2723L20.4591 39.3708C20.6565 39.5414 20.8578 39.7115 21.0601 39.8783L21.3089 40.0763C21.4741 40.2086 21.6414 40.3393 21.8099 40.4678L22.0773 40.6712C22.2632 40.808 22.4503 40.9425 22.6389 41.0743L22.844 41.2198L22.9003 41.2597C23.0797 41.3833 23.2629 41.5014 23.4461 41.6201L23.6824 41.7776C23.9629 41.9553 24.2484 42.1309 24.5366 42.3004L24.7728 42.4338C24.985 42.5558 25.1978 42.6755 25.4138 42.7926L25.7682 42.9763L26.2275 43.2153ZM28.2471 23.093C28.695 23.7351 29.191 24.4985 29.7855 25.0148C30.001 25.2521 30.2263 25.4829 30.456 25.7109L30.6332 25.8848C30.8568 26.1014 31.0838 26.3141 31.3178 26.5214L31.3463 26.5455L31.3528 26.5526C31.6126 26.7801 31.8806 26.9988 32.1529 27.2143L32.335 27.3565C32.6085 27.5659 32.8868 27.7716 33.1723 27.9679L33.1969 27.9859L33.5786 28.2375L33.7602 28.3578C33.9642 28.488 34.1703 28.6159 34.3809 28.7373L34.4684 28.7882C34.6494 28.8927 34.8332 28.9955 35.0169 29.095L35.2116 29.1973L35.5955 29.3958L35.6535 29.422C35.9171 29.5516 36.1828 29.6763 36.4541 29.795L36.6307 29.8677C36.8473 29.9596 37.0666 30.0498 37.2864 30.1341L37.5675 30.2369C37.7677 30.3112 37.9678 30.3791 38.1702 30.4463L38.4431 30.5338C38.7307 30.623 39.0146 30.7356 39.3143 30.7854C54.7482 33.3431 58.3116 21.459 58.3116 21.459C55.0993 26.085 48.8791 28.2916 42.2411 26.569C41.9478 26.492 41.6564 26.4077 41.3672 26.3163L41.1042 26.2316C40.8991 26.1654 40.6951 26.0948 40.4928 26.021L40.2171 25.9182C39.9962 25.8334 39.7767 25.745 39.5587 25.653L39.3815 25.5775C39.1101 25.4594 38.8417 25.3345 38.5765 25.2029L38.1724 24.9973L37.9394 24.8775C37.7677 24.7845 37.5971 24.6872 37.4286 24.5893L37.3067 24.5198C37.098 24.3981 36.8916 24.2724 36.6876 24.143L36.5011 24.0178L36.1008 23.7531C35.8178 23.5568 35.5397 23.3535 35.2668 23.1434L35.0793 22.9952C32.1737 20.7021 29.8708 17.5663 28.7754 14.0111C27.6281 10.3252 27.8753 6.18641 29.8632 2.82805L27.4208 6.27664C24.4316 10.5778 24.594 16.337 26.9259 20.8864C27.3159 21.651 27.7573 22.3882 28.2471 23.093ZM44.515 17.7714L44.8984 17.9043L45.0674 17.9579C45.2495 18.0148 45.4294 18.0815 45.617 18.1165C54.1389 19.7631 56.4511 13.7431 57.0664 12.8572C55.0413 15.7726 51.6386 16.472 47.4632 15.4587C47.1214 15.3717 46.7841 15.2676 46.4526 15.147C46.0445 15.0019 45.6442 14.8358 45.2533 14.6493C44.5114 14.2923 43.8068 13.8624 43.15 13.3658C39.4138 10.5302 37.0928 5.12328 39.5308 0.71875L38.2118 2.53656C36.4497 5.13039 36.2764 8.35148 37.4992 11.2149C38.7887 14.2555 41.4312 16.6399 44.515 17.7714ZM36.2889 52.6626H33.9778C33.9125 52.6651 33.8496 52.6887 33.7987 52.7297C33.7477 52.7708 33.7114 52.8273 33.6951 52.8906L32.8748 56.6859L32.0545 60.4813C32.0384 60.5446 32.0022 60.6011 31.9513 60.6422C31.9004 60.6833 31.8376 60.7068 31.7723 60.7093H30.1366C28.5184 60.7093 28.7054 59.5898 29.0368 58.0564L29.0467 58.0099L29.0828 57.8163L29.0893 57.7802L29.1632 57.3865L29.2425 56.9648L29.3267 56.5355L29.6996 54.7134L30.0732 52.8912C30.0803 52.8633 30.0808 52.8342 30.0746 52.8062C30.0685 52.7781 30.0558 52.7519 30.0377 52.7296C30.0195 52.7073 29.9964 52.6896 29.9702 52.6779C29.944 52.6661 29.9154 52.6607 29.8867 52.662H27.5149C27.4495 52.6644 27.3868 52.688 27.3361 52.7293C27.2853 52.7705 27.2494 52.8272 27.2338 52.8906L26.7235 55.31L26.2139 57.7299L26.2128 57.7332L26.1657 57.9585C25.5784 60.6398 25.7337 63.1976 28.9264 63.278L29.0193 63.2796H34.0303C34.0957 63.2771 34.1585 63.2536 34.2093 63.2125C34.2602 63.1714 34.2964 63.1149 34.3125 63.0516L35.3932 57.9716L36.4738 52.8912C36.5006 52.7654 36.4175 52.6631 36.2889 52.6626ZM11.5396 52.6358H9.00206C8.93651 52.6383 8.87349 52.6618 8.82222 52.7027C8.77096 52.7437 8.73414 52.7999 8.71714 52.8633L8.47652 53.9253L8.23589 54.9873C8.208 55.1126 8.28949 55.2148 8.418 55.2148H10.9752C11.0407 55.2124 11.1036 55.1889 11.1547 55.1478C11.2057 55.1067 11.2421 55.0503 11.2585 54.9868L11.4909 53.9253L11.7233 52.8638C11.7501 52.7386 11.6681 52.6358 11.5396 52.6358ZM10.8035 55.9411H8.24574C8.18021 55.9437 8.11723 55.9672 8.06598 56.0081C8.01473 56.0491 7.97788 56.1053 7.96081 56.1686L7.60152 57.76L7.24277 59.3509L7.14269 59.807L6.79761 61.4312L6.45308 63.0559C6.42628 63.1812 6.37105 63.3835 6.33003 63.5049C6.33003 63.5049 5.85206 64.9268 5.0487 64.9104L4.94808 64.9082L4.253 64.8956H4.25245C4.18716 64.8972 4.12408 64.9196 4.0725 64.9597C4.02092 64.9998 3.98355 65.0553 3.96589 65.1182L3.70066 66.2333L3.43597 67.3478C3.40589 67.4725 3.48683 67.5753 3.61425 67.5775C4.0698 67.583 5.09027 67.5945 5.70769 67.5945C7.71417 67.5945 8.77238 66.4827 9.44995 63.2834L10.2435 59.6117L10.9878 56.168C11.0146 56.0439 10.9314 55.9411 10.8035 55.9411ZM57.8987 55.0803L57.7926 54.6423L57.6882 54.1938L57.6351 53.9674C57.4273 53.1597 56.8175 52.6943 55.493 52.6943L53.4313 52.6921L51.5325 52.6894H49.3959C49.3306 52.6918 49.2678 52.7153 49.217 52.7564C49.1663 52.7976 49.1302 52.854 49.1143 52.9174L49.0196 53.3637L48.9081 53.8909L48.8769 54.0391L47.915 58.5453L47.0017 62.823C46.9743 62.9488 46.9656 63.103 46.9809 63.1653C46.9962 63.2282 47.2428 63.2796 47.3708 63.2796H49.298C49.4265 63.2796 49.5889 63.2566 49.6589 63.2282C49.7289 63.1998 49.8323 62.9477 49.858 62.8224L50.2003 61.1277L50.5432 59.4323L50.5438 59.4296L50.5897 59.2038L51.0053 57.2569L51.3723 55.5375C51.3885 55.4743 51.4246 55.4179 51.4753 55.3768C51.5261 55.3358 51.5887 55.3121 51.6539 55.3095L57.7182 55.3067C57.8467 55.3078 57.9277 55.2056 57.8987 55.0803ZM65.7053 51.1209L65.2383 51.1226H63.2975C63.2263 51.1266 63.1569 51.1459 63.094 51.1792C63.031 51.2125 62.976 51.2591 62.9327 51.3156L58.6403 57.6036C58.5681 57.7097 58.4855 57.6944 58.4571 57.5697L58.141 56.1845C58.1239 56.121 58.087 56.0647 58.0357 56.0237C57.9843 55.9828 57.9212 55.9594 57.8555 55.957H55.0965C54.968 55.957 54.892 56.0576 54.927 56.1806L56.1635 60.5124C56.1985 60.636 56.2012 60.8384 56.1695 60.963L55.6308 63.0592C55.5985 63.1839 55.6773 63.2851 55.8058 63.2851H58.5331C58.599 63.2824 58.6625 63.2592 58.7147 63.2187C58.7668 63.1782 58.8051 63.1225 58.824 63.0592L59.3632 60.963C59.4059 60.8153 59.473 60.6758 59.5618 60.5502L66.53 51.302C66.6077 51.1991 66.5656 51.1155 66.4376 51.1166L65.7053 51.1209ZM43.7833 56.5454V56.5432C43.7738 56.6092 43.7412 56.6698 43.6912 56.714C43.6412 56.7581 43.5771 56.7831 43.5104 56.7844H40.0121C39.8907 56.7844 39.8294 56.7023 39.8475 56.6006L39.8507 56.5924L39.8485 56.5935L39.8502 56.582L39.866 56.5224C40.2002 55.6343 40.8805 55.0513 42.1596 55.0513C43.6001 55.0508 43.8812 55.7541 43.7833 56.5454ZM42.7568 52.5073C38.2664 52.5073 37.2022 55.2329 36.605 57.9842C36.0084 60.7886 36.0592 63.4098 40.7066 63.4098H41.2699L41.4099 63.4092H41.4427L42.0005 63.4076H42.0103C43.2375 63.4027 44.4685 63.3934 44.9667 63.3895C45.0317 63.3862 45.0938 63.3621 45.1439 63.3208C45.1941 63.2794 45.2296 63.223 45.2451 63.1598L45.4332 62.2405L45.4699 62.0617L45.6941 60.9647C45.7012 60.9369 45.7018 60.9078 45.6956 60.8798C45.6894 60.8517 45.6768 60.8255 45.6586 60.8033C45.6405 60.781 45.6174 60.7634 45.5911 60.7517C45.5649 60.74 45.5363 60.7347 45.5076 60.7361H41.33C39.6681 60.7361 39.1748 60.2948 39.3569 58.9965H46.0348L46.0343 58.997L46.0386 58.9965C46.0915 58.9942 46.1425 58.9767 46.1857 58.9462C46.2288 58.9156 46.2623 58.8733 46.282 58.8242L46.2978 58.7663L46.2973 58.7668C47.2888 55.0267 47.0044 52.5078 42.7568 52.5073ZM21.5326 56.5312L21.4692 56.7548V56.7554L20.965 58.5426L20.4607 60.3292C20.4401 60.3925 20.4006 60.448 20.3475 60.4882C20.2944 60.5284 20.2303 60.5513 20.1638 60.554H17.495C15.4705 60.554 14.9772 58.9702 15.4705 56.6351C15.9632 54.2463 16.9296 52.7616 18.9224 52.6112C21.6458 52.4055 22.1905 54.3207 21.5326 56.5312ZM23.3635 60.4167C23.3635 60.4167 24.6219 57.3608 24.9074 55.5966C25.2973 53.2346 24.1144 49.8079 19.5458 49.8079C15.0035 49.8079 13.0303 53.0788 12.2778 56.6351C11.5253 60.2171 12.5114 63.3578 17.028 63.3321L20.5914 63.319L23.9214 63.307C23.9874 63.3037 24.0508 63.2802 24.103 63.2397C24.1552 63.1992 24.1938 63.1437 24.2134 63.0806L24.7936 60.8679C24.8259 60.7432 24.7477 60.6415 24.6192 60.6404L24.063 60.6371L23.5068 60.6338C23.398 60.6333 23.3357 60.5622 23.3488 60.4687L23.3635 60.4167ZM45.851 58.3709C45.8511 58.391 45.8472 58.4109 45.8395 58.4295C45.8318 58.4481 45.8206 58.465 45.8064 58.4792C45.7922 58.4935 45.7753 58.5048 45.7568 58.5125C45.7382 58.5202 45.7183 58.5242 45.6982 58.5243C45.6781 58.5243 45.6582 58.5204 45.6396 58.5127C45.621 58.505 45.6041 58.4938 45.5898 58.4796C45.5756 58.4654 45.5643 58.4485 45.5566 58.43C45.5488 58.4114 45.5448 58.3915 45.5448 58.3714C45.5447 58.3308 45.5608 58.2918 45.5895 58.2631C45.6181 58.2343 45.657 58.2181 45.6976 58.218C45.7383 58.2179 45.7772 58.234 45.806 58.2627C45.8348 58.2913 45.851 58.3302 45.851 58.3709Z" fill="#0868AC"/>
</svg>
