<svg width="70" height="70" viewBox="0 0 70 70" fill="none" xmlns="http://www.w3.org/2000/svg">
<path d="M8.14133 10.0166L9.62883 12.4901L10.9998 14.7771C11.7113 15.9638 12.4228 17.1505 13.1332 18.3373L14.589 20.7654L16.712 24.3009L19.3091 28.6409C20.0577 29.8905 20.808 31.1396 21.5578 32.3887L21.6584 32.5347C21.7673 32.5686 21.8537 32.5396 21.9434 32.5183C22.9316 32.2809 23.9198 32.0452 24.908 31.8095C26.5109 31.4267 28.1138 31.045 29.7161 30.6616L32.2273 30.0612C33.8472 29.674 35.4681 29.2879 37.0885 28.8996C38.727 28.508 40.3643 28.1143 42.0022 27.7216C42.8302 27.5231 43.6581 27.3252 44.4866 27.1277L49.2948 25.9815L54.5311 24.7346L54.8138 24.658L54.7367 24.5049C54.2615 23.8312 53.7841 23.1585 53.3077 22.4853L51.8963 20.487L50.3869 18.3553L48.9437 16.3116L47.5141 14.292L46.037 12.2052L44.59 10.1648L43.8266 9.08797C43.7093 8.92374 43.6177 8.74267 43.5548 8.55094C43.4044 8.08281 43.5761 7.77164 43.849 7.54141C44.0247 7.39252 44.2296 7.28205 44.4505 7.21711C44.7566 7.12273 45.0673 7.04388 45.3813 6.98086C46.0108 6.86219 46.6441 6.76102 47.2762 6.65602C47.9894 6.53734 48.703 6.42414 49.4173 6.30656C49.8684 6.23219 50.3196 6.15398 50.7713 6.07742L52.6127 5.76734C53.2084 5.66729 53.8043 5.56831 54.4004 5.47039L56.3516 5.15156L57.7062 4.92352C58.2203 4.83766 58.7355 4.7518 59.2501 4.66758C59.8921 4.56313 60.533 4.45758 61.1756 4.35695C61.5573 4.29734 61.9407 4.27602 62.3202 4.38539C62.6052 4.46797 62.8638 4.60141 63.1055 4.77148L63.4391 5.00445C63.4725 4.92734 63.4244 4.88578 63.4025 4.84148C62.9281 3.87565 62.2563 3.02013 61.4305 2.33023C60.6632 1.68593 59.7761 1.19973 58.8202 0.899609C58.2515 0.719141 57.6669 0.635469 57.0708 0.590625L56.7782 0.546875H13.4318L13.1972 0.584609C12.6755 0.625625 12.1625 0.703281 11.6577 0.841641C10.567 1.13868 9.55741 1.67798 8.70406 2.41937C8.19586 2.85508 7.74803 3.35661 7.37242 3.9107C6.78816 4.76532 6.38675 5.73142 6.19336 6.74844L6.44547 7.18758C7.01039 8.13148 7.57586 9.07375 8.14133 10.0166ZM11.0075 58.0459C11.538 58.2498 12.0859 58.3931 12.6514 58.4626L13.224 58.4883C13.3131 58.4998 13.399 58.5156 13.4865 58.5156H31.144C31.1155 58.5156 31.0898 58.4341 31.0581 58.3789C30.363 57.1933 29.6614 56.0295 28.9745 54.8395C28.1105 53.3424 27.2528 51.8416 26.4015 50.3371C25.4915 48.7271 24.5897 47.116 23.6863 45.5016C22.8284 43.9676 21.972 42.4327 21.117 40.8969C20.6008 39.9684 20.0873 39.0398 19.5721 38.1106L19.4343 37.8984L19.1838 37.9482C18.6873 38.0762 18.1918 38.2058 17.6958 38.3359C17.0056 38.5175 16.3166 38.7023 15.6259 38.8828C14.076 39.2864 12.5256 39.6873 10.9758 40.0898C9.39914 40.4988 7.85641 40.909 6.27867 41.3164C6.18297 41.3416 6.5625 41.3503 6.01562 41.3667V51.1585C6.5625 51.2154 6.09 51.3193 6.10203 51.4194C6.13812 51.7092 6.14852 52.0012 6.19992 52.2889C6.38545 53.3464 6.80061 54.3503 7.41617 55.23C8.32617 56.5381 9.52273 57.4738 11.0075 58.0459ZM7.65953 35.9576L13.1327 34.6577L15.5367 34.0895C15.937 33.9943 16.3395 33.903 16.7366 33.7958C17.0898 33.7001 17.1341 33.583 16.952 33.2637C16.689 32.8021 16.4216 32.3438 16.1547 31.8845L13.8097 27.8469L11.4652 23.8082L9.07867 19.6995L7.03555 16.1848L6.18625 14.6639C6.13156 14.5709 6.56305 14.461 6.01617 14.4118V36.3606C6.01617 36.3459 6.12773 36.3333 6.19828 36.3163L7.65953 35.9576ZM63.8077 51.6463C63.0924 51.9006 62.3777 52.1566 61.6623 52.4125C60.0344 52.996 58.4065 53.5797 56.7787 54.1636C55.8753 54.4879 54.9719 54.816 54.0668 55.1392C52.2233 55.7977 50.3787 56.4534 48.5341 57.1102C47.4649 57.4908 46.3958 57.8348 45.3277 58.217C45.0352 58.3226 44.7464 58.5156 44.4566 58.5156H56.7235L56.9882 58.4905C57.2984 58.4791 57.6074 58.4461 57.913 58.3915C59.1527 58.1701 60.3169 57.6408 61.2987 56.852C62.0595 56.2464 62.6977 55.5009 63.1788 54.6558C63.682 53.7775 63.9805 52.8352 64.1238 51.8377C64.1364 51.7519 64.1632 51.6584 64.091 51.5692C63.9904 51.5616 63.9002 51.613 63.8077 51.6463ZM62.7539 35.1739C62.2125 34.434 61.6711 33.6952 61.1308 32.9547C60.3859 31.9326 59.6416 30.9094 58.8979 29.8873C58.5955 29.4722 58.2892 29.0604 57.9934 28.6409C57.9048 28.5146 57.803 28.4812 57.6647 28.5184L57.5854 28.5414L53.4745 29.5384L51.0196 30.1339L46.217 31.3004L41.4662 32.4548C39.8202 32.8535 38.1741 33.2511 36.5291 33.6503C34.9098 34.0435 33.291 34.4378 31.6723 34.8316L26.9752 35.9718C26.1477 36.1725 25.3209 36.3727 24.494 36.575C24.372 36.6045 24.2408 36.6116 24.1117 36.7101L24.2222 36.9206C24.9156 38.1183 25.6085 39.3154 26.3036 40.512C27.09 41.8671 27.8775 43.2217 28.6666 44.5752C29.5345 46.0627 30.4046 47.5497 31.2741 49.0372C31.7734 49.8914 32.27 50.7473 32.7737 51.5993C33.3324 52.5463 33.8965 53.4902 34.4657 54.431C34.6363 54.7127 34.8299 54.9812 35.0252 55.2459C35.1564 55.4225 35.3188 55.5734 35.5102 55.6888C35.7071 55.808 35.9204 55.8452 36.1441 55.7949C36.26 55.7687 36.3732 55.7304 36.4853 55.6916L36.8977 55.539C38.3961 55.026 39.8945 54.5136 41.3946 54.0028C42.5644 53.6041 43.7352 53.2082 44.9061 52.8123C46.0682 52.4185 47.2309 52.0259 48.393 51.6338L51.8541 50.4651C53.0337 50.0664 54.2134 49.6677 55.393 49.268C56.8405 48.7769 58.2881 48.2836 59.7363 47.7936C61.1324 47.3211 62.5291 46.8513 63.9264 46.3805C64.0117 46.3515 64.1063 46.3395 64.1774 46.2454L64.1862 46.042C64.1862 43.1457 64.1856 40.2484 64.1895 37.3516C64.1924 37.2056 64.1449 37.063 64.0549 36.948C63.6169 36.359 63.1865 35.7656 62.7539 35.1739ZM62.5138 7.88102C62.1884 7.46922 61.7745 7.33852 61.2675 7.47086C61.0466 7.52883 60.8196 7.56492 60.5948 7.60648C59.856 7.74156 59.1177 7.87445 58.3789 8.00844C57.2983 8.20477 56.2182 8.40328 55.137 8.59742C54.2817 8.75164 53.4248 8.90258 52.5689 9.05297L49.134 9.65398C48.9896 9.67914 48.8441 9.7043 48.7058 9.74859C48.5034 9.81367 48.4444 9.94055 48.5368 10.1309C48.6128 10.2862 48.7069 10.4349 48.8086 10.5749C49.5184 11.5538 50.2327 12.5305 50.9458 13.5073C51.9291 14.8542 52.9134 16.2012 53.8973 17.5476C54.7296 18.6867 55.563 19.8259 56.3965 20.9645C57.0511 21.8597 57.7063 22.7538 58.3614 23.6485L58.491 23.8049C60.3761 23.3384 62.2584 22.8736 64.173 22.4005L64.1862 22.1063C64.1862 18.1645 64.1856 14.2231 64.1895 10.2818C64.1895 10.1079 64.1468 9.96789 64.038 9.83008C63.5595 9.22688 63.0908 8.61656 62.6177 8.00898L62.5138 7.88102ZM64.0423 26.979C63.1827 27.1852 62.3202 27.382 61.4398 27.615C61.5333 27.7807 63.9472 31.0395 64.0877 31.1938L64.1763 31.2424L64.1862 31.0439V29.6712C64.1873 28.8755 64.1895 28.0793 64.1873 27.2836C64.1873 27.1862 64.2141 27.0829 64.1479 26.9845L64.0423 26.979ZM7.07109 69.4531V60.0835H9.05789V67.8125H12.8581V69.4531H7.07109ZM20.2218 69.4531L19.5426 67.223H16.1268L15.447 69.4531H13.3066L16.6135 60.0452H19.0422L22.3623 69.4531H20.2218ZM19.0679 65.5566C18.4401 63.5359 18.0863 62.393 18.0075 62.1277C17.9288 61.8625 17.8719 61.6536 17.8374 61.4999C17.6963 62.0468 17.2927 63.3992 16.6261 65.5566H19.0679ZM25.5281 65.858V69.4531H23.5413V60.0835H26.2713C27.5445 60.0835 28.4867 60.3154 29.0976 60.7786C29.7084 61.2418 30.0141 61.9462 30.0141 62.8901C30.0141 63.4413 29.8627 63.9313 29.5591 64.3606C29.2556 64.7899 28.8263 65.1263 28.2712 65.3702C29.6811 67.4767 30.5998 68.8373 31.027 69.4526H28.8225L26.5858 65.8574H25.5281V65.858ZM25.5281 64.243H26.1691C26.7969 64.243 27.2606 64.1386 27.5598 63.9291C27.8589 63.7197 28.0082 63.391 28.0082 62.942C28.0082 62.498 27.8556 62.1813 27.5499 61.9938C27.2442 61.8062 26.7712 61.7116 26.1302 61.7116H25.5281V64.243ZM37.9416 69.4531L37.2624 67.223H33.8466L33.1669 69.4531H31.0264L34.3334 60.0452H36.762L40.0821 69.4531H37.9416ZM36.7883 65.5566C36.1605 63.5359 35.8066 62.393 35.7279 62.1277C35.6491 61.8625 35.5923 61.6536 35.5578 61.4999C35.4167 62.0468 35.0131 63.3992 34.3465 65.5566H36.7883ZM46.6063 60.0835H48.6123L45.4267 69.4531H43.2605L40.0821 60.0835H42.088L43.8506 65.6589C43.9491 65.9881 44.0502 66.3715 44.1552 66.8095C44.2602 67.2476 44.3253 67.5516 44.3505 67.7228C44.3975 67.3296 44.5577 66.6416 44.8312 65.6595L46.6063 60.0835ZM55.1873 69.4531H49.7913V60.0835H55.1873V61.7116H51.7781V63.7689H54.9506V65.3969H51.7781V67.8125H55.1873V69.4531ZM57.1419 69.4531V60.0835H59.1287V67.8125H62.9289V69.4531H57.1419Z" fill="#FD4F31"/>
</svg>
