<svg width="80" height="80" viewBox="0 0 80 80" fill="none" xmlns="http://www.w3.org/2000/svg">
<path fill-rule="evenodd" clip-rule="evenodd" d="M76.4381 36.6497C76.0631 35.8379 75.8819 34.8772 75.8431 33.9729C75.7469 31.7472 75.8288 29.5135 75.7281 27.2879C75.6381 25.2947 74.9269 23.4985 73.0131 22.471C71.3281 21.5666 69.375 21.4766 67.5 21.4554V25.0122C68.125 25.0335 67.9713 25.0529 68.1237 25.061C70.6419 25.1847 71.4856 25.9835 71.5175 28.4816C71.5413 30.3391 71.525 32.1979 71.555 34.0547C71.5919 36.3079 71.9281 38.4585 73.9888 39.881C74.0238 39.9054 74.0206 39.9947 74.0406 40.0985C72.9919 40.8435 72.1619 41.8029 71.9206 43.1122C71.7276 44.1758 71.6148 45.2524 71.5831 46.3329C71.5231 48.2816 71.585 50.2347 71.5294 52.1835C71.4856 53.7097 70.7625 54.426 69.2769 54.766C68.7175 54.8947 68.125 54.9404 67.5 55.0197V58.5679C68.75 58.4929 69.3856 58.4435 70.2419 58.351C73.4644 58.0022 75.2787 56.3254 75.6506 53.1991C75.7669 52.2191 75.7537 51.2204 75.7756 50.2304C75.8169 48.3747 75.7956 46.5104 75.9619 44.666C76.1312 42.7841 77.5 41.7441 79.375 41.8479V38.1285C78.125 38.3522 76.9731 37.8116 76.4381 36.6497ZM17.6962 44.2329C17.6956 37.0147 17.5 29.7966 17.5 22.5791V21.4435C15.625 21.4435 13.6087 21.4254 11.6306 21.4522C10.8275 21.4629 10.1194 21.5316 9.32312 21.6404C6.275 22.0554 4.80562 23.486 4.26562 26.5229C4.10938 27.3991 4.14062 28.3097 4.1275 29.206C4.10313 30.9097 4.15188 32.6141 4.12437 34.3172C4.09 36.4622 3.07938 38.1247 0.891875 38.251C0.814375 38.2554 1.25 38.3447 0.625 38.3985V41.7141C3.125 42.1066 3.92062 43.116 4.08687 45.4385C4.11313 45.8085 4.12 46.1816 4.12375 46.5535C4.145 48.6285 4.12125 50.7066 4.215 52.7779C4.30312 54.711 4.7325 56.4385 6.55937 57.4529C8.26562 58.4004 10.625 58.4772 11.875 58.5266V54.9866C11.875 54.9566 11.7437 54.9291 11.6219 54.9216C8.91 54.756 8.29875 54.0197 8.2825 51.306C8.27187 49.5091 8.34875 47.7122 8.32 45.9154C8.28375 43.6579 7.95375 41.5166 5.91 40.0879C5.87875 40.066 5.90938 39.9735 5.89937 39.8485C7.27375 38.9797 8.00437 37.651 8.20312 36.0397C8.31313 35.151 8.35 34.2497 8.36563 33.3529C8.39688 31.4947 8.36375 29.6347 8.41438 27.7779C8.45 26.4729 9.28313 25.5216 10.3463 25.3079C11.3538 25.1047 11.875 25.111 13.75 25.0166V26.3016C13.75 32.7454 13.5206 39.1885 13.5544 45.6322C13.5662 47.8391 13.8106 50.0147 16.1763 50.9679C17.4625 51.486 18.8406 51.6453 20.3181 51.9941C20.565 50.5491 20.6456 49.3504 20.8475 48.1641C18.1244 47.3829 17.6962 46.9778 17.6962 44.2329ZM34.3675 31.7997C29.78 29.606 24.2125 31.5241 22.0762 36.1254C20.4675 39.5904 20.525 43.1566 21.9412 46.6704C22.7094 48.5754 24.0975 50.0016 25.9869 50.8403C29.6769 52.4785 33.4113 52.0804 37.1319 50.9304C37.3325 50.8679 37.5887 50.4816 37.5644 50.2766C37.4375 49.2385 37.2269 48.2104 37.0387 47.1385C36.1531 47.3616 35.4131 47.5897 34.6569 47.7316C32.6587 48.1072 30.6562 48.1066 28.7119 47.3335C26.7919 46.571 25.5025 44.3772 25.8231 42.5022H38.8681C39.0275 40.6272 38.9644 38.0491 38.1663 35.9172C37.4538 34.0116 36.2238 32.6879 34.3675 31.7997ZM34.34 39.3779H25.7675C25.7719 36.8779 27.8075 34.6341 30.4781 34.6854C32.8237 34.7304 34.4463 36.8779 34.34 39.3779ZM69.4075 47.0522C69.715 43.8935 68.7612 42.116 65.9487 40.7435C64.9512 40.2566 63.8925 39.896 62.8762 39.4447C62.1156 39.1072 61.35 38.7654 60.6388 38.3379C59.9463 37.9222 59.6562 37.2322 59.7588 36.4241C59.8594 35.626 60.3725 35.0997 61.1137 34.9497C62.0119 34.7672 62.9531 34.611 63.8562 34.6847C65.1325 34.7891 66.3913 35.116 67.7081 35.3566L68.5406 31.7204C66.7588 31.4491 65.0975 31.0985 63.4188 30.966C61.5519 30.8191 59.7337 31.1291 58.025 32.0097C54.4144 33.8704 54.3481 39.5822 57.6662 41.4572C58.6575 42.0172 59.7181 42.4547 60.7494 42.9447C61.835 43.4616 62.96 43.911 63.9988 44.5097C64.7875 44.9641 65.0694 45.7572 64.8581 46.6816C64.6625 47.541 64.0119 47.9241 63.2475 47.9972C62.085 48.1079 60.8925 48.2141 59.7419 48.0772C58.3562 47.9122 57 47.4916 55.5806 47.1704L54.8569 50.7891C58.19 52.0404 61.4881 52.2453 64.8181 51.5072C67.605 50.8897 69.1925 49.2597 69.4075 47.0522ZM51.6481 41.1447C50.4238 40.4954 49.1069 40.0216 47.8431 39.4429C47.0588 39.0835 46.2281 38.7716 45.5369 38.2735C44.2075 37.3154 44.455 35.4785 46.0031 34.9872C46.8913 34.7047 47.8956 34.6172 48.8288 34.6872C50.1 34.7829 51.3544 35.1116 52.68 35.3516L53.4662 31.8854C52.7931 31.7022 52.1838 31.5029 51.5594 31.3716C49.0775 30.8491 46.5825 30.6466 44.1381 31.506C42.0381 32.2447 40.5812 33.626 40.2931 35.9497C39.9706 38.5447 40.8312 40.5935 43.2281 41.826C44.1875 42.3197 45.2156 42.6779 46.195 43.1354C47.1725 43.5916 48.1706 44.0272 49.0788 44.5997C49.7731 45.0372 50.0469 45.7779 49.8512 46.6341C49.6569 47.4829 49.0381 47.9104 48.2681 47.9897C47.1056 48.1091 45.9125 48.2197 44.7612 48.0854C43.37 47.9229 42.0094 47.501 40.565 47.176C40.3519 48.1841 40.1019 49.1997 39.9463 50.2291C39.9125 50.4529 40.1619 50.8829 40.3719 50.956C43.7369 52.1222 47.1619 52.2897 50.5844 51.2816C52.6281 50.6804 54.0575 49.3747 54.3456 47.1422C54.6725 44.6078 54.0681 42.4272 51.6481 41.1447Z" fill="#2A4D80"/>
</svg>
