<svg width="340" height="66" viewBox="0 0 340 66" fill="none" xmlns="http://www.w3.org/2000/svg">
<g clip-path="url(#clip0_2720_4337)">
<path fill-rule="evenodd" clip-rule="evenodd" d="M26.4871 0.229638L26.4319 0L-0.0078125 65.1889L26.4871 52.9083L15.0915 47.6263L26.4871 0.229638Z" fill="url(#paint0_linear_2720_4337)"/>
<path fill-rule="evenodd" clip-rule="evenodd" d="M26.4766 52.9119L52.9637 65.1889L26.524 0L26.4766 0.197144L37.88 47.6263L26.4766 52.9119Z" fill="url(#paint1_linear_2720_4337)"/>
<path fill-rule="evenodd" clip-rule="evenodd" d="M26.5167 0.226562L15.125 47.607L26.5167 52.8871L37.9084 47.607L26.5167 0.226562Z" fill="url(#paint2_linear_2720_4337)"/>
</g>
<path d="M118.818 49.1727C116.477 49.1727 114.589 48.6537 113.302 47.2748L113.028 46.9823C111.546 45.3945 110.726 42.9293 110.726 39.8372L110.648 14.3906H111.301H117.515H117.827V39.4612C117.827 40.2969 118.131 41.0799 118.482 41.5395C119.419 42.417 120.82 42.1506 121.094 42.1924V42.8888C121.094 43.4616 121.094 44.9943 121.094 46.3871C121.094 49.1727 121.094 48.1281 121.094 49.1969L118.818 49.1727Z" fill="#444444"/>
<path d="M231.583 49.1727C229.242 49.1727 227.355 48.6537 226.067 47.2748L225.794 46.9823C224.311 45.3945 223.492 42.9293 223.492 39.8372L223.414 14.3906H224.067H230.281H230.593V39.4612C230.593 40.2969 230.897 41.0799 231.248 41.5395C232.184 42.417 233.586 42.1506 233.859 42.1924V42.8888C233.859 43.4616 233.859 44.9943 233.859 46.3871C233.859 49.1727 233.859 48.1281 233.859 49.1969L231.583 49.1727Z" fill="#444444"/>
<path d="M98.6512 49.1727C100.992 49.1727 102.88 48.6537 104.167 47.2748L104.44 46.9823C105.923 45.3945 106.742 42.9293 106.742 39.8372L106.82 14.3906H106.167H99.9534H99.6413V39.4612C99.6413 40.2969 99.3377 41.0799 98.9865 41.5395C98.0501 42.417 96.6484 42.1506 96.3752 42.1924V42.8888C96.3752 43.4616 96.3752 44.9943 96.3752 46.3871C96.3752 49.1727 96.3752 48.1281 96.3752 49.1969L98.6512 49.1727Z" fill="#444444"/>
<path d="M70.943 48.8658L97.0246 14.7217H106.172L80.7422 48.8658H70.943Z" fill="#444444" stroke="#444444" stroke-width="0.662218"/>
<path d="M177.854 20.5547C179.197 20.5547 180.483 20.8114 181.713 21.3249C182.906 21.8128 183.969 22.5124 184.901 23.4239C185.845 24.3353 186.591 25.388 187.138 26.5819C187.71 27.8143 188.045 29.1109 188.145 30.4717H188.163V49.1732H181.229V31.2034C181.229 30.2406 180.899 29.419 180.241 28.7386C179.582 28.0582 178.786 27.718 177.854 27.718C176.922 27.718 176.127 28.0582 175.468 28.7386C174.81 29.419 174.474 30.2406 174.462 31.2034L174.519 49.1732H167.528L167.527 31.2034C167.527 30.2406 167.197 29.419 166.539 28.7386C165.88 28.0582 165.085 27.718 164.153 27.718C163.221 27.718 162.425 28.0582 161.767 28.7386C161.108 29.419 160.778 30.2406 160.778 31.2034V49.1732H153.844V30.4717H153.862C153.949 29.1109 154.279 27.8143 154.85 26.5819C155.41 25.388 156.162 24.3353 157.106 23.4239C158.038 22.5124 159.101 21.8128 160.294 21.3249C161.524 20.8114 162.81 20.5547 164.153 20.5547C165.445 20.5547 166.688 20.7922 167.881 21.2672C169.037 21.7293 170.075 22.384 170.994 23.2313C172.958 21.4469 175.245 20.5547 177.854 20.5547Z" fill="#444444"/>
<path d="M129.903 47.1526C128.52 46.1423 127.438 44.86 126.656 43.3057C125.875 41.7644 125.484 40.1324 125.484 38.4097V20.5547H132.631V38.4097C132.631 38.9796 132.766 39.5171 133.035 40.0223C133.291 40.5274 133.643 40.9484 134.091 41.2851C134.706 41.7255 135.391 41.9457 136.147 41.9457H137.223C137.979 41.9457 138.658 41.7255 139.26 41.2851C139.721 40.9484 140.079 40.5274 140.335 40.0223C140.592 39.5171 140.72 38.9796 140.72 38.4097V20.5547H147.867V38.4097C147.867 40.1324 147.476 41.7644 146.695 43.3057C145.913 44.86 144.831 46.1423 143.448 47.1526C141.668 48.4478 139.676 49.1214 137.473 49.1732H135.878C133.688 49.1214 131.696 48.4478 129.903 47.1526Z" fill="#444444"/>
<path d="M208.938 42.9109C210.244 42.7147 211.365 42.3411 212.304 41.7901C213.268 41.201 214.123 40.3892 214.867 39.3549L219.367 43.2913C217.413 46.5577 214.166 48.5318 209.629 49.2136C206.801 49.6385 204.217 49.4288 201.878 48.5845C199.534 47.7066 197.624 46.3023 196.149 44.3714C194.673 42.4406 193.748 40.1366 193.374 37.4594C193.004 34.8157 193.247 32.3532 194.102 30.0722C194.983 27.7529 196.352 25.8559 198.209 24.3811C200.091 22.8681 202.307 21.9202 204.855 21.5373C207.248 21.1777 209.501 21.4029 211.613 22.2131C213.721 22.9897 215.495 24.3291 216.935 26.2311C218.401 28.095 219.14 31.1016 219.533 33.9127L201.495 40.1676C202.21 41.4268 203.39 42.0362 204.602 42.5374C205.846 43.0339 207.291 43.1584 208.938 42.9109ZM205.683 27.4606C203.85 27.7361 202.447 28.5961 201.475 30.0405C200.503 31.485 200.17 32.7493 200.421 35.0008L212.039 30.9777C211.501 29.6236 210.855 28.8189 209.681 28.1411C208.508 27.4632 207.175 27.2364 205.683 27.4606Z" fill="#444444"/>
<path d="M315.875 49.8863V49.8533L315.922 32.7916V15H322.583V26.2459C324.679 25.4893 326.411 25.111 327.777 25.111C329.33 25.111 330.821 25.4168 332.249 26.0286C333.631 26.592 334.866 27.413 335.953 28.4916C337.055 29.538 337.925 30.7615 338.562 32.1621C339.214 33.5626 339.61 35.3656 339.749 37.5711V49.8863H332.925V37.5228C332.925 36.0579 332.42 34.8022 331.411 33.7558C330.401 32.6933 329.19 32.1621 327.777 32.1621C326.364 32.1621 325.153 32.6933 324.144 33.7558C323.134 34.8022 322.63 36.0579 322.63 37.5228V49.8863H315.875Z" fill="#444444"/>
<path d="M272.798 43.5202C274.103 43.3241 275.225 42.9505 276.163 42.3995C277.128 41.8103 277.982 40.9986 278.726 39.9643L283.227 43.9007C281.272 47.167 278.026 49.1411 273.488 49.8229C270.66 50.2479 268.077 50.0382 265.738 49.1938C263.394 48.316 261.484 46.9117 260.008 44.9808C258.532 43.05 257.607 40.746 257.233 38.0688C256.863 35.425 257.106 32.9626 257.961 30.6815C258.843 28.3623 260.212 26.4653 262.068 24.9905C263.951 23.4775 266.166 22.5296 268.715 22.1466C271.108 21.787 273.36 22.0123 275.473 22.8224C277.58 23.5991 279.354 24.9385 280.794 26.8405C282.26 28.7044 282.999 31.711 283.392 34.5221L265.354 40.777C266.07 42.0362 267.249 42.6456 268.462 43.1467C269.705 43.6433 271.151 43.7677 272.798 43.5202ZM269.543 28.0699C267.709 28.3455 266.306 29.2055 265.334 30.6499C264.362 32.0944 264.03 33.3587 264.281 35.6102L275.899 31.5871C275.36 30.2329 274.714 29.4283 273.541 28.7505C272.367 28.0726 271.035 27.8458 269.543 28.0699Z" fill="#444444"/>
<path d="M253.668 48.0692C252.933 48.6492 252.023 49.0928 250.937 49.3998C249.882 49.6728 248.78 49.8093 247.631 49.8093C244.532 49.8093 242.152 48.9734 240.491 47.3016C238.83 45.6298 238 43.1733 238 39.9321V15H245.075V22.4807H251.463V28.6219H245.075V40.019C245.075 41.179 245.746 41.8939 246.289 42.5421C246.832 43.1562 247.615 43.4633 248.637 43.4633C249.787 43.4633 250.809 43.1221 251.703 42.4397L253.668 48.0692Z" fill="#444444"/>
<path d="M301.264 49.8992C298.589 49.8992 296.178 49.3113 294.031 48.1356C291.916 46.9263 290.252 45.2635 289.039 43.1472C287.857 41.0309 287.266 38.6291 287.266 35.9418C287.266 33.2544 287.857 30.8526 289.039 28.7363C290.252 26.62 291.916 24.974 294.031 23.7983C296.178 22.589 298.589 21.9844 301.264 21.9844C303.908 21.9844 306.21 22.589 308.169 23.7983C310.16 24.974 311.607 26.6704 312.509 28.8875L306.863 32.1627C305.556 29.6769 303.674 28.434 301.217 28.434C299.32 28.434 297.749 29.1058 296.504 30.4495C295.26 31.7932 294.638 33.6239 294.638 35.9418C294.638 38.2596 295.26 40.0904 296.504 41.434C297.749 42.7777 299.32 43.4496 301.217 43.4496C303.706 43.4496 305.588 42.2067 306.863 39.7209L312.509 43.0465C311.607 45.1963 310.16 46.8759 308.169 48.0852C306.21 49.2945 303.908 49.8992 301.264 49.8992Z" fill="#444444"/>
<defs>
<linearGradient id="paint0_linear_2720_4337" x1="31.7449" y1="10.8648" x2="6.78321" y2="79.5417" gradientUnits="userSpaceOnUse">
<stop offset="0.360361" stop-color="#262BD0"/>
<stop offset="0.972228" stop-color="#262BD0" stop-opacity="0.2"/>
</linearGradient>
<linearGradient id="paint1_linear_2720_4337" x1="21.9718" y1="11.6409" x2="46.6669" y2="79.3744" gradientUnits="userSpaceOnUse">
<stop offset="0.352584" stop-color="#262BD0"/>
<stop offset="0.97887" stop-color="#262BD0" stop-opacity="0.2"/>
</linearGradient>
<linearGradient id="paint2_linear_2720_4337" x1="26.5167" y1="0.226563" x2="26.5132" y2="66.7945" gradientUnits="userSpaceOnUse">
<stop offset="0.150792" stop-color="#262BD0"/>
<stop offset="0.913223" stop-color="#9295E5"/>
</linearGradient>
<clipPath id="clip0_2720_4337">
<rect width="52.9687" height="65.1889" fill="white"/>
</clipPath>
</defs>
</svg>
