<svg width="84" height="84" viewBox="0 0 84 84" fill="none" xmlns="http://www.w3.org/2000/svg">
<path d="M1.31316 59.3627H4.00903V48.7163L8.18278 57.9977C8.67497 59.1212 9.34894 59.5182 10.6713 59.5182C11.9936 59.5182 12.642 59.1212 13.1342 57.9977L17.3079 48.7163V59.3627H20.0038V48.734C20.0038 47.6972 19.5891 47.1951 18.7333 46.9366C16.6852 46.2974 15.311 46.8506 14.6888 48.2333L10.5932 57.3933L6.62747 48.2327C6.03094 46.8506 4.63116 46.2974 2.583 46.9359C1.72725 47.1951 1.3125 47.6965 1.3125 48.7334V59.3627H1.31316ZM22.2462 50.6962H24.9414V56.5618C24.9165 56.8801 25.0438 57.6282 26.5204 57.6518C27.2737 57.6636 32.3361 57.6518 32.3833 57.6518V50.6673H35.0851C35.0976 50.6673 35.0825 60.1922 35.0825 60.2315C35.0969 62.5809 32.1681 63.0908 30.8175 63.1302H22.3046V61.3163C22.3191 61.3163 30.8116 61.3183 30.8326 61.3157C32.5684 61.1326 32.363 60.2703 32.3623 59.9802V59.2727H26.6326C23.9669 59.2485 22.2685 58.0849 22.2469 56.7462C22.2456 56.6235 22.3053 50.7553 22.2462 50.6962Z" fill="#00618A"/>
<path d="M37.1641 59.365H44.9157C45.8233 59.365 46.7053 59.1754 47.4048 58.8472C48.571 58.3117 49.1413 57.5859 49.1413 56.6344V54.6643C49.1413 53.8867 48.4936 53.1602 47.2231 52.6772C46.5491 52.4173 45.7189 52.2802 44.915 52.2802H41.6482C40.5595 52.2802 40.0411 51.952 39.9118 51.2262C39.8862 51.1396 39.8862 51.0707 39.8862 50.9841V49.7569C39.8862 49.688 39.8862 49.6184 39.9118 49.5324C40.0411 48.9792 40.3265 48.8237 41.286 48.7371L41.5452 48.72H49.245V46.9232H41.6751C40.5864 46.9232 40.0161 46.9921 39.4977 47.1476C37.8905 47.649 37.1897 48.4437 37.1897 49.8264V51.3988C37.1897 52.6089 38.5645 53.6458 40.8712 53.888C41.1311 53.9044 41.3897 53.9227 41.6489 53.9227H44.4491C44.5528 53.9227 44.6565 53.9228 44.7346 53.9392C45.5903 54.0081 45.9526 54.1642 46.2124 54.4747C46.279 54.5361 46.3319 54.611 46.3675 54.6944C46.4031 54.7777 46.4207 54.8677 46.4192 54.9583V56.5313C46.4192 56.721 46.2899 56.9632 46.0307 57.1705C45.7977 57.3779 45.4085 57.5164 44.8901 57.5512L44.6046 57.5682H37.1641V59.365ZM65.961 56.2373C65.961 58.086 67.3352 59.1229 70.1085 59.3309C70.3677 59.348 70.6269 59.365 70.8861 59.365H77.9119V57.5682H70.8349C69.2534 57.5682 68.6575 57.1705 68.6575 56.2196V46.9219H65.9616V56.2373H65.961ZM50.862 56.3305V49.9222C50.862 48.2947 52.0052 47.3071 54.2653 46.9954C54.5061 46.9608 54.7491 46.9435 54.9924 46.9435H60.1105C60.3704 46.9435 60.604 46.9606 60.8632 46.9954C63.1233 47.3071 64.2672 48.2941 64.2672 49.9222V56.3305C64.2672 57.6522 63.7816 58.3583 62.6627 58.819L65.3192 61.2163H62.1882L60.0396 59.2764L57.8766 59.4136H54.9924C54.4566 59.4102 53.9238 59.3345 53.4082 59.1885C51.6934 58.7213 50.862 57.8202 50.862 56.3305ZM53.7718 56.175C53.7718 56.2616 53.7974 56.3489 53.8236 56.4526C53.9792 57.1974 54.6813 57.6128 55.7458 57.6128H58.1949L55.9453 55.5817H59.0762L61.0378 57.3536C61.4 57.16 61.6376 56.866 61.7209 56.4874C61.7465 56.4007 61.7465 56.3141 61.7465 56.2275V50.0797C61.7465 50.0108 61.7465 49.9236 61.7209 49.8369C61.5648 49.1439 60.8632 48.7462 59.8244 48.7462H55.7451C54.5507 48.7462 53.7711 49.266 53.7711 50.0797V56.175H53.7718Z" fill="#E48E00"/>
<path d="M80.285 43.9362C78.628 43.8909 77.3621 44.0451 76.2793 44.5012C75.9715 44.6312 75.4813 44.6344 75.4314 45.0197C75.6 45.1975 75.6263 45.462 75.7608 45.6799C76.0194 46.0979 76.4558 46.6583 76.845 46.9517C77.2695 47.2726 77.7079 47.6164 78.1647 47.8947C78.9751 48.3895 79.8808 48.6717 80.6624 49.1665C81.1224 49.4592 81.5791 49.8267 82.0287 50.1568C82.2511 50.3189 82.3995 50.5729 82.6889 50.6746V50.628C82.5373 50.435 82.4979 50.1699 82.3588 49.9678L81.7458 49.3549C81.1467 48.5595 80.3867 47.8619 79.5776 47.2818C78.9331 46.8191 77.4907 46.1937 77.2216 45.4436L77.1744 45.397C77.6311 45.3452 78.1666 45.1798 78.588 45.0669C79.2967 44.8766 79.93 44.9258 80.6617 44.7368L81.6513 44.4533V44.2656C81.2819 43.8863 81.0174 43.3836 80.6145 43.0404C79.5599 42.142 78.4075 41.2443 77.2216 40.4948C76.5641 40.0801 75.751 39.8104 75.0534 39.4586C74.8198 39.3398 74.4076 39.2788 74.2521 39.0813C73.8853 38.6147 73.6864 38.0234 73.4036 37.4794C72.7995 36.3041 72.2337 35.1095 71.7072 33.8975C71.3502 33.0805 71.1165 32.2746 70.6709 31.5416C68.5309 28.0234 66.2275 25.8998 62.6594 23.8129C61.9002 23.3687 60.986 23.1941 60.0207 22.9651L58.4654 22.8706C58.1497 22.7387 57.8203 22.3515 57.523 22.1638C56.3404 21.417 53.3085 19.7928 52.4331 21.9289C51.8805 23.2768 53.26 24.5919 53.7528 25.2751C54.0987 25.7541 54.5423 26.2909 54.7897 26.8297C54.9525 27.1841 54.98 27.5391 55.1198 27.9139C55.4617 28.8365 55.7603 29.8413 56.2033 30.6937C56.427 31.1255 56.6745 31.5803 56.9573 31.9662C57.1305 32.2024 57.4285 32.3074 57.4751 32.673C57.1844 33.0799 57.1673 33.7125 57.0039 34.2276C56.2676 36.5501 56.5452 39.4369 57.6168 41.1557C57.9456 41.6839 58.72 42.8153 59.7844 42.3809C60.7156 42.0016 60.5083 40.8262 60.7747 39.7887C60.8351 39.5544 60.7977 39.3812 60.9158 39.2237V39.2709L61.7643 40.9673C62.3924 41.9786 63.506 43.0345 64.4504 43.7479C64.9399 44.1173 65.3258 44.7572 65.9584 44.9731V44.9252H65.9118C65.7885 44.7342 65.5975 44.6555 65.44 44.5012C65.0712 44.1396 64.661 43.6908 64.3565 43.276C63.4975 42.1105 62.7389 40.8341 62.0472 39.5059C61.7171 38.8719 61.4303 38.1724 61.152 37.5266C61.0444 37.2779 61.0457 36.9012 60.8226 36.7732C60.5168 37.2457 60.0686 37.6283 59.8323 38.1868C59.4556 39.0793 59.4071 40.168 59.2673 41.2968L59.1728 41.3434C58.5159 41.1852 58.2855 40.5093 58.0414 39.9298C57.4245 38.4644 57.3097 36.1039 57.8531 34.4166C57.9935 33.9796 58.6281 32.6047 58.3709 32.2011C58.2481 31.7989 57.8432 31.5665 57.6175 31.2581C57.3213 30.8454 57.0686 30.4031 56.8635 29.9384C56.3581 28.7959 56.1225 27.5129 55.5916 26.3572C55.337 25.8047 54.9078 25.2462 54.5548 24.7553C54.1643 24.2106 53.7266 23.8103 53.4234 23.1528C53.3158 22.9191 53.1694 22.5444 53.3289 22.3042C53.3794 22.1421 53.4523 22.0745 53.6124 22.0214C53.8854 21.8107 54.6466 22.0916 54.9315 22.2097C55.6875 22.5241 56.3181 22.8227 56.9586 23.2466C57.2657 23.4507 57.5761 23.8444 57.9482 23.9534H58.3722C59.0356 24.1056 59.7792 24 60.3987 24.1883C61.4946 24.5217 62.4764 25.0395 63.3675 25.6025C66.0838 27.318 68.3039 29.7592 69.8237 32.6717C70.0679 33.1409 70.1742 33.5878 70.3888 34.0852C70.8232 35.088 71.3705 36.1203 71.8023 37.1014C72.2335 38.0798 72.6541 39.0675 73.2638 39.8819C73.584 40.3098 74.8217 40.5394 75.3841 40.777C75.7785 40.9437 76.4243 41.1176 76.7977 41.342C77.511 41.7725 78.2027 42.2851 78.8715 42.7563C79.2055 42.9938 80.2338 43.5103 80.285 43.9362ZM59.22 25.9819C58.9343 25.9772 58.6492 26.0089 58.3715 26.0764V26.1229H58.4188C58.5835 26.4622 58.8742 26.6801 59.0783 26.9715L59.5501 27.9611L59.5967 27.9145C59.8888 27.7091 60.022 27.3803 60.0207 26.8776C59.9032 26.7543 59.8861 26.6 59.7851 26.4537C59.6512 26.2568 59.39 26.1466 59.22 25.9819Z" fill="#00618A"/>
</svg>
