<svg width="70" height="70" viewBox="0 0 70 70" fill="none" xmlns="http://www.w3.org/2000/svg">
<path d="M34.9967 18.0703C16.5452 18.0703 1.58594 25.6511 1.58594 35.0021C1.58594 44.3531 16.5452 51.9339 34.9967 51.9339C53.4483 51.9339 68.4075 44.3531 68.4075 35.0021C68.4075 25.6511 53.4483 18.0703 34.9967 18.0703ZM26.303 38.3009C25.5057 39.0468 24.6203 39.3547 23.6452 39.6719C22.6702 39.9896 21.4293 39.924 19.9205 39.924H16.5009L15.5531 45.3927H11.5604L15.1233 26.799H22.8014C25.1114 26.799 26.7963 27.4634 27.8556 28.6759C28.9149 29.8883 29.2332 31.6093 28.811 33.782C28.6366 34.6773 28.3429 35.5096 27.9284 36.2512C27.4988 37.0163 26.9502 37.7082 26.303 38.3009ZM37.9575 39.924L39.533 32.038C39.7124 31.1149 39.6468 30.4291 39.3356 30.0939C39.0239 29.7581 38.3611 29.5334 37.3477 29.5334H34.1813L32.1409 39.924H28.1794L31.7423 21.8771H35.7038L34.7566 26.799H38.2856C40.5065 26.799 42.0377 27.2447 42.8805 28.0191C43.7232 28.7934 43.9759 29.8544 43.639 31.5891L41.9814 39.924H37.9575ZM59.9741 33.811C59.8002 34.7063 59.506 35.5244 59.092 36.2654C58.6775 37.0075 58.1361 37.6862 57.4673 38.3009C56.6699 39.0468 55.784 39.3547 54.8095 39.6719C53.8349 39.9896 52.593 39.924 51.0841 39.924H47.6645L46.7173 45.3927H42.7246L46.287 26.799H53.9656C56.2756 26.799 57.9605 27.4634 59.0193 28.6759C60.0775 29.8883 60.3963 31.6388 59.9741 33.811ZM52.4524 29.5334H49.7175L48.2262 37.1896H50.6554C52.2643 37.1896 53.4641 37.031 54.2516 36.424C55.0402 35.818 55.5713 34.8774 55.8474 33.4594C56.1121 32.0971 55.9918 31.0345 55.4865 30.4745C54.9806 29.9145 53.9695 29.5334 52.4524 29.5334ZM21.2887 29.5334H18.5533L17.062 37.1896H19.4906C21.1001 37.1896 22.2994 37.031 23.0874 36.424C23.8755 35.818 24.407 34.8774 24.6827 33.4594C24.9473 32.0971 24.827 31.0345 24.3217 30.4745C23.8164 29.9145 22.8058 29.5334 21.2887 29.5334Z" fill="#6181B6"/>
</svg>
