<svg width="57" height="57" viewBox="0 0 57 57" fill="none" xmlns="http://www.w3.org/2000/svg">
<g clip-path="url(#clip0_2822_8547)">
<path d="M-1.4375 47.8742H48.4375V51.4367H-1.4375V47.8742ZM43.0938 17.593C43.5662 17.593 44.0192 17.4053 44.3533 17.0713C44.6873 16.7372 44.875 16.2842 44.875 15.8117V10.468C44.8748 10.1019 44.7619 9.74479 44.5515 9.44519C44.3412 9.14559 44.0436 8.91808 43.6994 8.79362L24.1056 1.66862C23.7143 1.52713 23.2857 1.52713 22.8944 1.66862L3.30062 8.79362C2.95636 8.91808 2.65881 9.14559 2.44845 9.44519C2.2381 9.74479 2.12516 10.1019 2.125 10.468V15.8117C2.125 16.2842 2.31267 16.7372 2.64672 17.0713C2.98077 17.4053 3.43383 17.593 3.90625 17.593H5.6875V40.7492H2.125V44.3117H44.875V40.7492H41.3125V17.593H43.0938ZM5.6875 11.7149L23.5 5.23112L41.3125 11.7149V14.0305H5.6875V11.7149ZM27.0625 40.7492H19.9375V17.593H27.0625V40.7492ZM9.25 17.593H16.375V40.7492H9.25V17.593ZM37.75 40.7492H30.625V17.593H37.75V40.7492Z" fill="#9FA2FF"/>
</g>
<defs>
<clipPath id="clip0_2822_8547">
<rect width="57" height="57" fill="white"/>
</clipPath>
</defs>
</svg>
