<svg width="48" height="48" viewBox="0 0 48 48" fill="none" xmlns="http://www.w3.org/2000/svg">
<g clip-path="url(#clip0_2822_8621)">
<path d="M46 18C47.104 18 48 17.106 48 16V14C48 8.486 43.514 4 38 4H18C12.486 4 8 8.486 8 14V30C8 35.514 12.486 40 18 40H38C43.514 40 48 35.514 48 30V28C48 26.894 47.104 26 46 26C43.794 26 42 24.206 42 22C42 19.794 43.794 18 46 18ZM44 29.746V30C44 33.308 41.308 36 38 36H18C14.692 36 12 33.308 12 30V14C12 10.692 14.692 8 18 8H38C41.308 8 44 10.692 44 14V14.254C40.554 15.142 38 18.28 38 22C38 25.72 40.554 28.858 44 29.746ZM38 46C38 47.106 37.104 48 36 48H18C13.192 48 8.672 46.126 5.272 42.728C1.872 39.328 0 34.806 0 30V18C0 16.894 0.896 16 2 16C3.104 16 4 16.894 4 18V30C4 33.74 5.456 37.256 8.1 39.898C10.744 42.542 14.262 44 18 44H36C37.104 44 38 44.894 38 46ZM34 22C34 23.104 33.104 24 32 24H29L25.178 28.842C24.788 29.556 24.04 30 23.228 30H22.952C22.188 30 21.664 29.232 21.94 28.52L23.698 24H20.696C19.812 24 18.972 23.61 18.402 22.934L16.21 20.334C15.616 19.294 16.366 18 17.564 18C17.978 18 18.374 18.164 18.666 18.456L20.886 20H23.732L21.95 15.484C21.668 14.772 22.194 14 22.96 14H23.194C24.008 14 24.756 14.444 25.144 15.158L29.002 20H32.002C33.106 20 34 20.896 34 22Z" fill="#9FA2FF"/>
</g>
<defs>
<clipPath id="clip0_2822_8621">
<rect width="48" height="48" fill="white"/>
</clipPath>
</defs>
</svg>
