<svg width="62" height="69" viewBox="0 0 62 69" fill="none" xmlns="http://www.w3.org/2000/svg">
<path d="M16.85 24.8C16.4389 24.8 16.0447 24.9817 15.754 25.3052C15.4633 25.6287 15.3 26.0675 15.3 26.525V36.875C15.3 37.3325 15.4633 37.7713 15.754 38.0948C16.0447 38.4183 16.4389 38.6 16.85 38.6H44.75C45.1611 38.6 45.5553 38.4183 45.846 38.0948C46.1367 37.7713 46.3 37.3325 46.3 36.875V26.525C46.3 26.0675 46.1367 25.6287 45.846 25.3052C45.5553 24.9817 45.1611 24.8 44.75 24.8H16.85ZM18.4 35.15V28.25H43.2V35.15H18.4ZM35.45 42.05C35.0389 42.05 34.6447 42.2317 34.354 42.5552C34.0633 42.8787 33.9 43.3175 33.9 43.775V50.675C33.9 51.1325 34.0633 51.5713 34.354 51.8948C34.6447 52.2183 35.0389 52.4 35.45 52.4H44.75C45.1611 52.4 45.5553 52.2183 45.846 51.8948C46.1367 51.5713 46.3 51.1325 46.3 50.675V43.775C46.3 43.3175 46.1367 42.8787 45.846 42.5552C45.5553 42.2317 45.1611 42.05 44.75 42.05H35.45ZM37 48.95V45.5H43.2V48.95H37ZM6 16.175C6 14.8025 6.48991 13.4862 7.36195 12.5157C8.234 11.5452 9.41674 11 10.65 11H50.95C52.0481 10.9982 53.1114 11.4289 53.9515 12.216C54.7916 13.003 55.3543 14.0956 55.54 15.3001C55.7256 16.5047 55.5223 17.7434 54.9658 18.7971C54.4094 19.8507 53.5359 20.6512 52.5 21.0568V57.575C52.5 58.0325 52.3367 58.4713 52.046 58.7948C51.7553 59.1183 51.3611 59.3 50.95 59.3H10.65C10.2389 59.3 9.84467 59.1183 9.55399 58.7948C9.2633 58.4713 9.1 58.0325 9.1 57.575V21.0568C8.19301 20.6999 7.4078 20.0387 6.85259 19.1644C6.29738 18.2901 5.9995 17.2456 6 16.175ZM10.65 14.45C10.2389 14.45 9.84467 14.6317 9.55399 14.9552C9.2633 15.2787 9.1 15.7175 9.1 16.175C9.1 16.6325 9.2633 17.0713 9.55399 17.3948C9.84467 17.7183 10.2389 17.9 10.65 17.9H50.95C51.3611 17.9 51.7553 17.7183 52.046 17.3948C52.3367 17.0713 52.5 16.6325 52.5 16.175C52.5 15.7175 52.3367 15.2787 52.046 14.9552C51.7553 14.6317 51.3611 14.45 50.95 14.45H10.65ZM12.2 21.35V55.85H15.3V43.775C15.3 43.3175 15.4633 42.8787 15.754 42.5552C16.0447 42.2317 16.4389 42.05 16.85 42.05H29.25C29.6611 42.05 30.0553 42.2317 30.346 42.5552C30.6367 42.8787 30.8 43.3175 30.8 43.775V55.85H49.4V21.35H12.2ZM18.4 55.85H27.7V45.5H18.4V55.85Z" fill="#9FA2FF"/>
</svg>
