<svg width="60" height="60" viewBox="0 0 60 60" fill="none" xmlns="http://www.w3.org/2000/svg">
<path d="M39.2693 32.8893C38.3105 32.2235 36.9978 32.4637 36.3361 33.4203C35.6745 34.377 35.9126 35.6897 36.8692 36.3513C37.6573 36.8971 38.3927 37.4471 39.0775 38.0033H20.2081C23.236 35.5422 26.9067 33.5025 30.6637 31.4164C40.0616 26.1949 50.7132 20.2781 50.7132 6.39621C50.7132 5.23306 49.7713 4.28906 48.606 4.28906C47.4408 4.28906 46.4989 5.23306 46.4989 6.39621C46.4989 7.12528 46.4631 7.82696 46.3935 8.50335H12.8836C12.8183 7.82063 12.7846 7.11896 12.7846 6.39621C12.7846 5.23306 11.8427 4.28906 10.6775 4.28906C9.51221 4.28906 8.57031 5.23306 8.57031 6.39621C8.57031 16.9762 14.6852 22.5706 20.0142 26.2623C20.3808 26.5173 20.7981 26.6374 21.2111 26.6374C21.879 26.6374 22.5365 26.3213 22.9452 25.7292C23.6069 24.7726 23.3688 23.4598 22.4121 22.7982C21.6241 22.2525 20.8887 21.7025 20.2038 21.1462H39.0754C36.0475 23.6073 32.3768 25.6471 28.6198 27.7331C19.2219 32.9546 8.57031 38.8715 8.57031 52.7533C8.57031 53.9165 9.51221 54.8605 10.6775 54.8605C11.8427 54.8605 12.7846 53.9165 12.7846 52.7533C12.7846 52.0243 12.8204 51.3226 12.89 50.6462H46.3998C46.4652 51.3289 46.4989 52.0306 46.4989 52.7533C46.4989 53.9165 47.4408 54.8605 48.606 54.8605C49.7713 54.8605 50.7132 53.9165 50.7132 52.7533C50.7132 42.1734 44.5982 36.581 39.2693 32.8893ZM16.0823 16.934C15.0961 15.6002 14.3439 14.2053 13.8087 12.7197H45.4432C44.8806 14.2664 44.1115 15.6592 43.1759 16.934H16.0823ZM13.8403 46.434C14.4029 44.8874 15.172 43.4946 16.1076 42.2197H43.2012C44.1873 43.5536 44.9396 44.9485 45.4748 46.434H13.8403Z" fill="#9FA2FF"/>
</svg>
