<svg width="61" height="61" viewBox="0 0 61 61" fill="none" xmlns="http://www.w3.org/2000/svg">
<path d="M24.7812 28.5938V43.8438L38.125 36.2188L24.7812 28.5938Z" fill="#9FA2FF"/>
<path d="M49.5625 53.375H11.4375C10.4267 53.374 9.45753 52.972 8.74277 52.2572C8.02801 51.5425 7.62601 50.5733 7.625 49.5625V22.875C7.62601 21.8642 8.02801 20.895 8.74277 20.1803C9.45753 19.4655 10.4267 19.0635 11.4375 19.0625H49.5625C50.5733 19.0635 51.5425 19.4655 52.2572 20.1803C52.972 20.895 53.374 21.8642 53.375 22.875V49.5625C53.374 50.5733 52.972 51.5425 52.2572 52.2572C51.5425 52.972 50.5733 53.374 49.5625 53.375ZM11.4375 22.875V49.5625H49.5625V22.875H11.4375ZM11.4375 11.4375H49.5625V15.25H11.4375V11.4375ZM15.25 3.8125H45.75V7.625H15.25V3.8125Z" fill="#9FA2FF"/>
</svg>
