<svg width="69" height="59" viewBox="0 0 69 59" fill="none" xmlns="http://www.w3.org/2000/svg">
<path d="M56.8807 5C55.0497 5.00269 51.6949 6.321 50.4742 7.68578H8.80531C4.50806 7.68578 4.50806 16.2803 8.80531 16.2803H50.4753C51.6957 17.6446 55.0501 18.9631 56.8809 18.966C59.1803 18.9627 61.3039 17.1975 62.4538 15.206H57.1494L54.1951 11.983L57.1494 8.76009H62.4564C61.3062 6.76791 59.1811 5.00242 56.8807 5ZM10.9539 9.8344C12.1406 9.8344 13.1026 10.7963 13.1026 11.983C13.1026 13.1697 12.1406 14.1316 10.9539 14.1316C9.76735 14.1316 8.80531 13.1697 8.80531 11.983C8.80531 10.7963 9.76735 9.8344 10.9539 9.8344ZM21.129 25.5462C20.0547 25.5462 19.2718 26.0885 18.4209 26.7297C17.5701 27.3708 16.6779 28.1993 15.7296 29.1026C13.8829 30.8612 11.8214 32.9016 9.87358 34.2348L15.9712 34.3872C17.4712 31.5742 18.4256 28.9639 21.129 27.9634H30.6635V34.7547L33.0807 34.8151V27.9634H36.1694C37.7137 27.9634 40.3253 29.3713 42.9344 31.4585C44.3422 32.5848 45.7631 33.8771 47.1131 35.166L53.7753 35.3325L60.4533 27.5413L58.6179 25.9683L50.663 35.2488C48.7894 33.3923 46.6408 31.3281 44.4446 29.5711C41.6819 27.3614 38.9223 25.5462 36.1694 25.5462H21.129ZM6.08542 36.5584C5.41465 36.5595 4.60368 36.9317 3.98877 37.5468C3.37292 38.1624 3 38.9751 3 39.6465C3 41.3923 3.97709 43.9787 5.23363 45.989C5.81846 46.925 6.45874 47.7423 7.03041 48.3139C7.03028 48.2895 7.02867 48.2656 7.02867 48.241C7.02867 44.0278 10.47 40.5866 14.6831 40.5866C18.8962 40.5866 22.3376 44.0278 22.3376 48.241C22.3376 48.5593 22.3157 48.8727 22.2776 49.181H47.9125C47.8732 48.8692 47.8532 48.5553 47.8525 48.241C47.8525 44.0278 51.2938 40.5866 55.507 40.5866C59.72 40.5866 63.1614 44.0278 63.1614 48.241C63.1614 48.5593 63.1395 48.8727 63.1014 49.181H64.3626L65.0388 43.0943C65.0245 41.3723 64.196 40.1419 63.0778 39.2473C61.9497 38.3449 60.4756 37.9008 59.8042 37.9008H59.7889L6.08542 36.5584ZM14.6831 43.0037C11.7763 43.0037 9.44587 45.3342 9.44587 48.241C9.44587 51.1478 11.7763 53.4783 14.6831 53.4783C17.5898 53.4783 19.9204 51.1478 19.9204 48.241C19.9204 45.3342 17.5898 43.0037 14.6831 43.0037ZM55.507 43.0037C52.6001 43.0037 50.2697 45.3342 50.2697 48.241C50.2697 51.1478 52.6001 53.4783 55.507 53.4783C58.4136 53.4783 60.7442 51.1478 60.7442 48.241C60.7442 45.3342 58.4136 43.0037 55.507 43.0037Z" fill="#9FA2FF"/>
</svg>
