<svg width="45" height="45" viewBox="0 0 45 45" fill="none" xmlns="http://www.w3.org/2000/svg">
<g clip-path="url(#clip0_2822_8628)">
<path d="M33.75 45H11.25C5.04562 45 0 39.9544 0 33.75V4.6875C0 2.10188 2.10188 0 4.6875 0H7.10625C9.29813 0 11.2238 1.55437 11.6869 3.69562L15.1575 19.6969C15.1575 19.6969 21.0094 13.8694 21.0619 13.8263C22.0275 13.05 23.325 12.9056 24.4406 13.4438C25.5562 13.98 26.25 15.0825 26.25 16.32V17.985C26.25 17.985 30.3844 13.8694 30.4369 13.8263C31.4025 13.05 32.6981 12.9056 33.8156 13.4438C34.9313 13.98 35.625 15.0825 35.625 16.32V17.985C35.625 17.985 39.7594 13.8694 39.8119 13.8263C40.7775 13.05 42.075 12.9056 43.1906 13.4438C44.3063 13.98 45 15.0825 45 16.32V33.75C45 39.9544 39.9544 45 33.75 45ZM4.6875 3.75C4.17188 3.75 3.75 4.17188 3.75 4.6875V33.75C3.75 37.8862 7.11375 41.25 11.25 41.25H33.75C37.8862 41.25 41.25 37.8862 41.25 33.75V17.6719L35.0737 23.8275C34.5375 24.3619 33.7331 24.5175 33.03 24.2325C32.3306 23.9419 31.875 23.2575 31.875 22.5V17.6719L25.6988 23.8275C25.1606 24.3619 24.3544 24.5175 23.655 24.2325C22.9556 23.9419 22.5 23.2575 22.5 22.5V17.6719L16.3238 23.8275C15.9713 24.18 15.4969 24.375 15 24.375H13.8469C12.9638 24.375 12.2006 23.76 12.0131 22.8975L8.02125 4.49062C7.92937 4.06125 7.54313 3.75 7.10625 3.75H4.6875ZM18.75 33.75V31.875C18.75 30.84 17.91 30 16.875 30H15C13.965 30 13.125 30.84 13.125 31.875V33.75C13.125 34.785 13.965 35.625 15 35.625H16.875C17.91 35.625 18.75 34.785 18.75 33.75ZM28.125 33.75V31.875C28.125 30.84 27.285 30 26.25 30H24.375C23.34 30 22.5 30.84 22.5 31.875V33.75C22.5 34.785 23.34 35.625 24.375 35.625H26.25C27.285 35.625 28.125 34.785 28.125 33.75ZM37.5 33.75V31.875C37.5 30.84 36.66 30 35.625 30H33.75C32.715 30 31.875 30.84 31.875 31.875V33.75C31.875 34.785 32.715 35.625 33.75 35.625H35.625C36.66 35.625 37.5 34.785 37.5 33.75Z" fill="#9FA2FF"/>
</g>
<defs>
<clipPath id="clip0_2822_8628">
<rect width="45" height="45" fill="white"/>
</clipPath>
</defs>
</svg>
