<svg width="52" height="52" viewBox="0 0 52 52" fill="none" xmlns="http://www.w3.org/2000/svg">
<path d="M41.1719 30.3427H45.5052V16.3135C45.5052 15.5913 45.3427 14.9233 45.0177 14.3094C44.6927 13.6955 44.2413 13.1899 43.6635 12.7927L32.8302 5.04687C32.0719 4.50521 31.2413 4.23438 30.3385 4.23438C29.4358 4.23438 28.6052 4.50521 27.8469 5.04687L17.0135 12.7927C16.4358 13.1899 15.9844 13.6955 15.6594 14.3094C15.3344 14.9233 15.1719 15.5913 15.1719 16.3135V19.5094H19.5052V16.2594L30.3385 8.67604L41.1719 16.2594V30.3427ZM32.5052 17.3427C32.2163 17.3427 31.9635 17.2344 31.7469 17.0177C31.5302 16.801 31.4219 16.5483 31.4219 16.2594C31.4219 15.9705 31.5302 15.7177 31.7469 15.501C31.9635 15.2844 32.2163 15.176 32.5052 15.176C32.7941 15.176 33.0469 15.2844 33.2635 15.501C33.4802 15.7177 33.5885 15.9705 33.5885 16.2594C33.5885 16.5483 33.4802 16.801 33.2635 17.0177C33.0469 17.2344 32.7941 17.3427 32.5052 17.3427ZM28.1719 17.3427C27.883 17.3427 27.6302 17.2344 27.4135 17.0177C27.1969 16.801 27.0885 16.5483 27.0885 16.2594C27.0885 15.9705 27.1969 15.7177 27.4135 15.501C27.6302 15.2844 27.883 15.176 28.1719 15.176C28.4608 15.176 28.7135 15.2844 28.9302 15.501C29.1469 15.7177 29.2552 15.9705 29.2552 16.2594C29.2552 16.5483 29.1469 16.801 28.9302 17.0177C28.7135 17.2344 28.4608 17.3427 28.1719 17.3427ZM32.5052 21.676C32.2163 21.676 31.9635 21.5677 31.7469 21.351C31.5302 21.1344 31.4219 20.8816 31.4219 20.5927C31.4219 20.3038 31.5302 20.051 31.7469 19.8344C31.9635 19.6177 32.2163 19.5094 32.5052 19.5094C32.7941 19.5094 33.0469 19.6177 33.2635 19.8344C33.4802 20.051 33.5885 20.3038 33.5885 20.5927C33.5885 20.8816 33.4802 21.1344 33.2635 21.351C33.0469 21.5677 32.7941 21.676 32.5052 21.676ZM28.1719 21.676C27.883 21.676 27.6302 21.5677 27.4135 21.351C27.1969 21.1344 27.0885 20.8816 27.0885 20.5927C27.0885 20.3038 27.1969 20.051 27.4135 19.8344C27.6302 19.6177 27.883 19.5094 28.1719 19.5094C28.4608 19.5094 28.7135 19.6177 28.9302 19.8344C29.1469 20.051 29.2552 20.3038 29.2552 20.5927C29.2552 20.8816 29.1469 21.1344 28.9302 21.351C28.7135 21.5677 28.4608 21.676 28.1719 21.676ZM30.2302 44.2094L43.1219 40.201C42.9413 39.876 42.6792 39.5958 42.3354 39.3604C41.9916 39.1249 41.6038 39.0079 41.1719 39.0094H30.2302C29.2552 39.0094 28.4788 38.9733 27.901 38.901C27.3233 38.8288 26.7274 38.6844 26.1135 38.4677L23.026 37.4385C22.4483 37.258 22.033 36.8969 21.7802 36.3552C21.5274 35.8135 21.4913 35.2538 21.6719 34.676C21.8524 34.0983 22.2049 33.6736 22.7292 33.402C23.2535 33.1305 23.8039 33.0857 24.3802 33.2677L26.6552 34.026C27.2691 34.2066 27.9646 34.351 28.7417 34.4594C29.5188 34.5677 30.5747 34.6399 31.9094 34.676H32.5052C32.5052 34.2788 32.3882 33.8997 32.1542 33.5385C31.9202 33.1774 31.64 32.9427 31.3135 32.8344L18.6385 28.176H15.1719V40.0927L30.2302 44.2094ZM29.0927 48.4344L15.1719 44.5344C14.883 45.4733 14.3139 46.2316 13.4645 46.8094C12.6152 47.3871 11.7399 47.676 10.8385 47.676H6.50521C5.31355 47.676 4.29305 47.2514 3.44371 46.402C2.59438 45.5527 2.17043 44.5329 2.17188 43.3427V28.176C2.17188 26.9844 2.59655 25.9639 3.44588 25.1145C4.29521 24.2652 5.31499 23.8413 6.50521 23.8427H18.6385C18.8913 23.8427 19.1441 23.8702 19.3969 23.925C19.6497 23.9799 19.8844 24.0428 20.101 24.1135L32.8302 28.826C34.0219 29.2594 34.9882 30.0177 35.7292 31.101C36.4702 32.1844 36.84 33.376 36.8385 34.676H41.1719C42.9774 34.676 44.5122 35.2719 45.776 36.4635C47.0399 37.6552 47.6719 39.226 47.6719 41.176C47.6719 41.9705 47.4639 42.5938 47.0479 43.0459C46.6319 43.498 45.9913 43.8678 45.126 44.1552L31.5844 48.3802C31.1872 48.5247 30.7719 48.5969 30.3385 48.5969C29.9052 48.5969 29.4899 48.5427 29.0927 48.4344ZM6.50521 43.3427H10.8385V28.176H6.50521V43.3427Z" fill="#9FA2FF"/>
</svg>
