<svg width="51" height="51" viewBox="0 0 51 51" fill="none" xmlns="http://www.w3.org/2000/svg">
<path d="M5.7185 4.75781L42.4176 41.4569C43.1139 42.1533 43.5051 43.0978 43.5051 44.0826C43.5051 45.0674 43.1139 46.0119 42.4176 46.7083C41.7211 47.4044 40.7766 47.7954 39.7919 47.7954C38.8071 47.7954 37.8627 47.4044 37.1662 46.7083L28.2013 37.5891C27.6147 36.9933 27.2855 36.1909 27.2849 35.3548V34.804C27.285 34.3818 27.2012 33.9638 27.0384 33.5743C26.8756 33.1848 26.6371 32.8315 26.3366 32.5349L25.1792 31.4661C24.7863 31.1035 24.3085 30.8456 23.7897 30.7161C23.271 30.5866 22.7281 30.5897 22.2108 30.725C21.3952 30.9379 20.5381 30.9337 19.7245 30.7131C18.911 30.4924 18.1693 30.0628 17.573 29.4669L9.06339 20.9563C4.01518 15.9081 2.15747 8.28498 5.7185 4.75781Z" fill="#9FA2FF" stroke="#9FA2FF" stroke-width="2" stroke-linejoin="round"/>
<path d="M39.8429 3.1875L32.1481 10.8823C31.556 11.4743 31.0862 12.1772 30.7658 12.9507C30.4453 13.7242 30.2804 14.5533 30.2804 15.3906V16.8708C30.2804 17.0803 30.2392 17.2876 30.159 17.4811C30.0789 17.6746 29.9614 17.8504 29.8132 17.9984L28.6866 19.125M31.8741 22.3125L33.0007 21.1859C33.1488 21.0378 33.3245 20.9203 33.518 20.8401C33.7115 20.76 33.9189 20.7187 34.1283 20.7187H35.6085C36.4458 20.7188 37.2749 20.5538 38.0484 20.2334C38.822 19.9129 39.5248 19.4432 40.1168 18.8511L47.8116 11.1562M43.8273 7.17187L35.8585 15.1406L43.8273 7.17187ZM19.921 36.6562L9.98798 46.6451C9.2408 47.392 8.22754 47.8116 7.17102 47.8116C6.11451 47.8116 5.10125 47.392 4.35407 46.6451C3.60712 45.8979 3.1875 44.8846 3.1875 43.8281C3.1875 42.7716 3.60712 41.7584 4.35407 41.0112L12.7491 32.6719" fill="#9FA2FF"/>
<path d="M39.8429 3.1875L32.1481 10.8823C31.556 11.4743 31.0862 12.1772 30.7658 12.9507C30.4453 13.7242 30.2804 14.5533 30.2804 15.3906V16.8708C30.2804 17.0803 30.2392 17.2876 30.159 17.4811C30.0789 17.6746 29.9614 17.8504 29.8132 17.9984L28.6866 19.125M31.8741 22.3125L33.0007 21.1859C33.1488 21.0378 33.3245 20.9203 33.518 20.8401C33.7115 20.76 33.9189 20.7187 34.1283 20.7187H35.6085C36.4458 20.7188 37.2749 20.5538 38.0484 20.2334C38.822 19.9129 39.5248 19.4432 40.1168 18.8511L47.8116 11.1562M43.8273 7.17187L35.8585 15.1406M19.921 36.6562L9.98798 46.6451C9.2408 47.392 8.22754 47.8116 7.17102 47.8116C6.11451 47.8116 5.10125 47.392 4.35407 46.6451C3.60712 45.8979 3.1875 44.8846 3.1875 43.8281C3.1875 42.7716 3.60712 41.7583 4.35407 41.0112L12.7491 32.6719" stroke="#9FA2FF" stroke-width="3.1875" stroke-linecap="round" stroke-linejoin="round"/>
</svg>
