<svg width="70" height="70" viewBox="0 0 70 70" fill="none" xmlns="http://www.w3.org/2000/svg">
<path fill-rule="evenodd" clip-rule="evenodd" d="M34.6788 54.8073C35.6588 55.6177 36.8078 55.9634 38.0481 56.0273C38.5611 56.0541 39.0888 56.029 39.5936 55.9371C40.3942 55.7916 41.1927 55.609 41.9714 55.3744C43.5573 54.8959 44.9278 54.069 45.951 52.7335C46.534 51.9723 47.0125 51.1492 47.3198 50.2392C47.5736 49.4884 47.812 48.7298 48.0018 47.9615C48.1516 47.3561 48.226 46.731 48.3168 46.1125C48.3775 45.7034 48.4141 45.29 48.4519 44.8771C48.5131 44.2072 48.5771 43.5384 48.6214 42.8668C48.6526 42.3998 48.6515 41.9305 48.6695 41.463C48.6755 41.3202 48.6985 41.1786 48.7122 41.037C48.7237 40.9052 48.7904 40.8598 48.9249 40.862C49.3974 40.8691 49.871 40.8811 50.343 40.8598C50.8718 40.8362 51.4044 40.8133 51.9251 40.7263C52.6659 40.6023 53.4009 40.4453 54.1279 40.256C54.9854 40.0312 55.7723 39.6293 56.5303 39.1721C57.4119 38.6389 58.2169 38.0138 58.8682 37.2083C59.4364 36.5072 59.7055 35.6945 59.5682 34.808C59.3691 33.5202 58.2869 32.6763 57.0285 32.6189C56.5724 32.5981 56.1098 32.6462 55.6559 32.7037C55.1062 32.7737 54.5648 32.8973 54.0169 32.9788C53.6384 33.0356 53.2551 33.0608 52.8777 33.1002L52.8673 33.0509C53.5728 31.7182 54.3078 30.4008 54.975 29.05C55.4874 28.0131 55.9249 26.9396 56.3772 25.8732C57.1264 24.1079 57.7241 22.2884 58.2196 20.4384C58.6937 18.6676 59.0995 16.8777 59.228 15.0402C59.2794 14.3068 59.315 13.5702 59.3101 12.8357C59.3068 12.2495 59.2434 11.6627 59.1848 11.0786C59.1181 10.4092 58.9158 9.77484 58.6358 9.16453C58.2672 8.35953 57.6946 7.69945 57.0925 7.07273C56.6107 6.5707 56.0802 6.11352 55.5547 5.65633C54.8049 5.00445 53.9616 4.48328 53.0866 4.02117C52.0948 3.49434 51.044 3.08681 49.9563 2.80711C49.2935 2.63999 48.6265 2.49028 47.9559 2.35812C47.7174 2.31 47.4768 2.1875 47.2367 2.1875H42.7151C42.5516 2.1875 42.3898 2.29469 42.2252 2.31273C41.143 2.43085 40.0745 2.6515 39.0341 2.97172C38.6459 3.09148 38.2915 3.02148 37.9223 2.98703C37.6391 2.96078 37.3607 2.88805 37.0774 2.87383C35.9995 2.82023 34.9205 2.74258 33.8421 2.75406C32.8096 2.765 31.7875 2.93563 30.7884 3.21891C29.9522 3.45734 29.1335 3.74664 28.3832 4.18688C28.0627 4.375 27.8079 4.33945 27.4759 4.2443C26.3611 3.9177 25.2366 3.62517 24.1039 3.36711C23.3979 3.20906 22.6711 3.12922 21.9498 3.05484C21.2575 2.98294 20.5626 2.9397 19.8667 2.92523C19.1875 2.91047 18.5039 2.91102 17.8274 2.97117C16.7506 3.06688 15.6946 3.28562 14.6676 3.63891C13.5355 4.02597 12.4776 4.60316 11.5394 5.3457C10.5824 6.10312 9.81461 7.0268 9.19828 8.08281C8.54804 9.1968 8.10125 10.3895 7.82453 11.6413C7.67414 12.32 7.72937 13.0178 7.62601 13.7069C7.59429 13.9202 7.65828 14.1345 7.65828 14.3489V17.3485C7.65828 17.5476 7.59976 17.7472 7.62492 17.9473C7.68672 18.428 7.66539 18.9126 7.74687 19.39C7.87484 20.1458 7.99023 20.8988 8.14554 21.6491C8.36265 22.6975 8.56992 23.7448 8.81054 24.7882C8.98554 25.5478 9.17531 26.303 9.38367 27.0539C9.70086 28.2013 10.0104 29.3502 10.3697 30.4839C10.7038 31.5377 11.0844 32.5763 11.4645 33.6153C11.9853 35.0521 12.6237 36.4435 13.3731 37.7754C14.0266 38.9298 14.772 40.011 15.7728 40.8997C16.4329 41.4859 17.1662 41.936 18.0199 42.1613C18.6868 42.3384 19.3857 42.3579 20.0614 42.2182C20.8447 42.059 21.5764 41.7087 22.1915 41.1983C22.2637 41.1398 22.3419 41.0944 22.4277 41.2027C22.7526 41.6139 23.1868 41.8884 23.6412 42.1252C24.8673 42.7651 26.2034 42.957 27.5602 43.0347C27.8894 43.0533 28.2208 43.0062 28.5516 42.9975C29.1975 42.9795 29.8242 42.8537 30.4405 42.6754C30.7643 42.5819 31.0798 42.4627 31.4091 42.3522C31.426 42.7027 31.4479 43.0396 31.4588 43.377L31.5042 45.2162C31.513 45.4962 31.5239 45.7762 31.5496 46.0551C31.6163 46.7737 31.6814 47.4923 31.7673 48.2087C31.8263 48.7025 31.8887 49.1996 32.0046 49.682C32.2377 50.654 32.5565 51.6034 32.9573 52.5191C33.3409 53.4079 33.9311 54.1924 34.6788 54.8073ZM32.715 45.6373C32.6762 44.7737 32.6472 43.9098 32.628 43.0456C32.6051 41.9836 32.5974 40.921 32.5827 39.859L32.5799 39.8185C32.0402 40.1428 31.508 40.4972 30.9453 40.7898C30.2852 41.1327 29.5688 41.3312 28.8267 41.3875C28.2454 41.4313 27.6553 41.4712 27.0767 41.4252C26.1273 41.3481 25.178 41.1999 24.3281 40.7318C23.9836 40.542 23.6237 40.3107 23.3859 40.0083C22.8166 39.2815 23.0894 38.3633 23.948 37.9214C24.5414 37.6152 25.1889 37.4877 25.832 37.339C26.3918 37.2121 26.9458 37.0606 27.4923 36.8851C28.0316 36.7084 28.3717 36.2709 28.708 35.8416L29.2407 35.157L28.6003 35.0902C27.9648 35.0312 27.3584 34.8556 26.7787 34.5986C26.2832 34.3793 26.2755 34.3552 25.9113 34.7501C25.3043 35.4091 24.7137 36.0845 24.1181 36.7549C23.6801 37.2482 23.2453 37.7442 22.8084 38.2391C22.3774 38.7286 21.9727 39.2454 21.5073 39.7004C20.8172 40.3763 19.9848 40.7827 18.9917 40.7367C18.3546 40.7072 17.7716 40.4841 17.2466 40.1193C16.1644 39.3657 15.4354 38.3102 14.7709 37.2028C13.9205 35.7831 13.267 34.271 12.7087 32.7179C12.322 31.6438 11.9332 30.5692 11.5963 29.4798C11.2294 28.2959 10.9073 27.0982 10.5906 25.8995C10.3511 24.9955 10.1389 24.0838 9.93656 23.1705C9.70362 22.1324 9.48812 21.0905 9.29015 20.0452C9.15836 19.3391 9.08234 18.6227 8.9757 17.9123C8.83187 16.9537 8.80562 15.9873 8.85812 15.0254C8.90461 14.1586 9.02875 13.2945 9.15234 12.4338C9.32351 11.2427 9.71617 10.1188 10.2805 9.05734C10.6287 8.4105 11.0554 7.80913 11.5509 7.26688C12.3658 6.36508 13.3518 5.71375 14.4488 5.2243C15.215 4.8825 16.0249 4.67742 16.8502 4.51609C18.0752 4.27766 19.3111 4.2875 20.547 4.31266C21.0873 4.32414 21.626 4.42203 22.1658 4.47617C23.3284 4.59156 24.4676 4.83656 25.5925 5.13789C26.4128 5.35773 27.2162 5.6432 28.0288 5.89039C28.1098 5.915 28.2295 5.91281 28.2968 5.86961C29.3987 5.14992 30.6024 4.67523 31.8837 4.40344C32.3699 4.30063 32.872 4.25523 33.3691 4.22352C33.9728 4.18578 34.5826 4.14969 35.1852 4.18523C35.9098 4.2268 36.6323 4.33344 37.3525 4.43187C37.7025 4.48 38.0437 4.60086 38.3937 4.63367C38.5622 4.64953 38.7399 4.52758 38.9171 4.48602C39.8216 4.27656 40.7223 4.04414 41.6351 3.87953C42.3143 3.75703 43.0088 3.69906 43.699 3.65969C44.4701 3.61539 45.2455 3.58312 46.0155 3.62031C46.989 3.66734 47.9553 3.8057 48.9091 4.02773C50.0914 4.30281 51.2245 4.70203 52.3024 5.25656C53.108 5.67164 53.873 6.1518 54.5626 6.74242C55.0144 7.13016 55.477 7.51242 55.8844 7.94445C56.3876 8.47711 56.9005 9.00922 57.2166 9.69117C57.4545 10.2058 57.6241 10.7384 57.6711 11.3012C57.7291 12.0017 57.7996 12.7045 57.7936 13.4061C57.7876 14.0766 57.6957 14.7465 57.6312 15.4159C57.483 16.9405 57.1521 18.4324 56.7491 19.9046C56.4127 21.1206 56.0317 22.3239 55.6066 23.5118C55.2189 24.6072 54.771 25.6823 54.3187 26.7537C53.9854 27.5469 53.6235 28.3278 53.2337 29.0948C52.4933 30.5452 51.7233 31.9807 50.8324 33.3479C50.6787 33.5836 50.5327 33.8253 50.3829 34.0665C50.7717 34.3284 51.2119 34.4209 51.6549 34.469C52.0766 34.5144 52.5064 34.5423 52.9275 34.5105C53.6018 34.4602 54.2739 34.364 54.9444 34.2705C55.6083 34.1775 56.2585 33.9888 56.941 34.0386C57.6213 34.0884 58.1091 34.6057 58.0627 35.2434C58.0331 35.647 57.8477 35.9931 57.5798 36.289C56.3137 37.6857 54.7245 38.5323 52.9067 38.9495C52.216 39.1081 51.504 39.1896 50.7969 39.2558C50.193 39.3091 49.5864 39.3233 48.9807 39.2984C48.5366 39.282 48.0964 39.1803 47.6425 39.1147C47.5966 39.5298 47.5534 39.9623 47.5009 40.3933L47.2892 42.0465C47.2252 42.5704 47.1755 43.0965 47.1093 43.6204C47.0448 44.129 46.9644 44.6348 46.8966 45.1429C46.8337 45.6159 46.7872 46.0917 46.7161 46.5642C46.6084 47.2883 46.505 48.014 46.3634 48.7326C46.1938 49.5912 45.9346 50.4224 45.5097 51.1973C44.9923 52.1429 44.259 52.8631 43.3249 53.3963C42.3624 53.9459 41.3097 54.232 40.2438 54.4715C39.488 54.6416 38.7109 54.6689 37.9459 54.5995C36.6197 54.4797 35.4877 53.9126 34.6318 52.8839C33.8153 51.9023 33.2624 50.7779 33.065 49.5042C32.972 48.8982 32.8998 48.2892 32.8484 47.6782C32.7892 46.9989 32.7447 46.3185 32.715 45.6373ZM34.2058 36.9124C34.214 37.3663 34.167 37.8202 34.1691 38.2741C34.1784 40.3867 34.1937 42.4998 34.2118 44.613C34.2151 44.958 34.232 45.3042 34.2566 45.6488C34.3086 46.3706 34.36 47.093 34.43 47.8127C34.4803 48.3241 34.5487 48.8337 34.6291 49.3412C34.7439 50.0593 35.0709 50.6991 35.4417 51.3111C35.7611 51.8372 36.1773 52.2834 36.7247 52.5919C37.6555 53.1152 38.6568 53.159 39.6663 52.9665C40.3483 52.8369 41.0187 52.6274 41.6805 52.4114C42.3318 52.2025 42.9264 51.8469 43.4184 51.3718C43.8827 50.9223 44.2119 50.3737 44.434 49.7684C44.8644 48.5948 44.9995 47.3583 45.1772 46.1322C45.2439 45.6728 45.3019 45.2123 45.3626 44.7524C45.432 44.2291 45.502 43.7062 45.5687 43.1829C45.6191 42.7924 45.6639 42.4025 45.7115 42.0126C45.7798 41.4526 45.8515 40.8931 45.9166 40.3331C45.9663 39.9 46.0079 39.4652 46.0527 39.031C46.1096 38.4759 46.1703 37.9225 46.2201 37.3663C46.2573 36.9452 46.242 36.5159 46.3169 36.102C46.4541 35.3434 46.8129 34.6981 47.4855 34.2803C47.7666 34.1064 48.0849 33.9916 48.3966 33.8439L48.343 33.7624C48.0548 33.3884 47.7595 33.0203 47.4768 32.6419C47.0327 32.048 46.7134 31.3857 46.3923 30.7202C46.0883 30.0891 45.7164 29.4919 45.3965 28.8679C44.8381 27.7796 44.2694 26.6941 43.7548 25.5855C43.1078 24.191 42.5981 22.7484 42.4379 21.204C42.3695 20.551 42.352 19.898 42.4849 19.2511C42.6966 18.2175 43.2358 17.4092 44.1436 16.8547C44.9858 16.3406 45.9237 16.1744 46.8845 16.1224C47.4806 16.0902 48.0805 16.1164 48.6991 16.1164L48.6788 16.012C48.2938 15.207 47.9345 14.3883 47.5129 13.603C46.919 12.4939 46.1577 11.4942 45.3112 10.5662C44.6865 9.87611 44 9.24458 43.2604 8.67945C42.5287 8.12547 41.7576 7.63055 40.9345 7.22641C39.9568 6.74006 38.9242 6.37285 37.8589 6.13266C36.828 5.90406 35.7917 5.76406 34.7341 5.75258C33.8328 5.74273 32.937 5.7843 32.0587 5.98719C30.7331 6.29398 29.5207 6.83977 28.4669 7.72352C27.8832 8.21278 27.3617 8.77186 26.9143 9.3882C26.3855 10.1128 25.96 10.897 25.5958 11.7179C25.0959 12.845 24.753 14.017 24.5179 15.2223C24.4009 15.8238 24.309 16.4292 24.2155 17.0346C24.1827 17.2473 24.1805 17.4634 24.1608 17.7067L24.5611 17.4984L24.9516 17.3234C26.2734 16.7191 27.6422 16.3302 29.1133 16.3745C29.7389 16.3931 30.3361 16.5173 30.8928 16.7913C31.9592 17.3173 32.5827 18.2115 32.8539 19.3424C33.0409 20.1234 33.1695 20.9196 33.2941 21.7142C33.3915 22.3344 33.4916 22.9611 33.5025 23.5867C33.5184 24.5011 33.4724 25.4177 33.4227 26.3315C33.3801 27.1086 33.2193 27.8746 32.9458 28.6032C32.4514 29.9245 31.9002 31.2244 31.3855 32.538C31.2155 32.9722 31.0848 33.4212 30.9245 33.8986L31.5742 33.8991C31.653 33.9008 31.7334 33.903 31.8094 33.921C32.4005 34.0605 32.9141 34.3284 33.3346 34.7834C33.8968 35.3872 34.191 36.0938 34.2058 36.9124ZM22.9144 30.648C22.5794 29.8594 22.3772 29.0208 22.3162 28.1663C22.2593 27.3602 22.355 26.5584 22.4381 25.7556C22.518 24.9785 22.5858 24.1976 22.6087 23.4177C22.6476 22.1342 22.5612 20.854 22.4999 19.5716C22.4633 18.8081 22.5519 18.0354 22.6197 17.2703C22.6809 16.5813 22.7575 15.8905 22.8882 15.2113C23.1064 14.0716 23.3968 12.9484 23.8097 11.8595C24.2007 10.827 24.6513 9.82242 25.2857 8.91734C25.7216 8.29609 26.2148 7.71695 26.689 7.10992L26.5479 7.05961C25.0041 6.56961 23.4345 6.1857 21.8196 6.01891C21.0567 5.93961 20.2905 5.89367 19.5255 5.84773C19.2903 5.83406 19.0519 5.86578 18.8162 5.8882C18.2327 5.94453 17.6415 5.96641 17.0673 6.07578C16.09 6.26172 15.1521 6.57453 14.2842 7.08367C13.5161 7.53563 12.8428 8.13192 12.3012 8.83969C11.6959 9.62227 11.2873 10.5071 10.9948 11.4499C10.6491 12.5628 10.484 13.7085 10.4397 14.8641C10.4009 15.8774 10.3817 16.8963 10.5567 17.9058C10.6863 18.6566 10.7733 19.4163 10.9166 20.1649C11.1092 21.1857 11.3254 22.2019 11.5652 23.2127C11.9113 24.6586 12.258 26.1056 12.6687 27.5341C13.0614 28.9018 13.5038 30.2575 13.9851 31.5973C14.3777 32.6905 14.8322 33.7635 15.3107 34.8217C15.6224 35.5113 15.9998 36.1752 16.3957 36.8205C16.8162 37.5063 17.2953 38.1571 17.9439 38.6548C18.7637 39.2826 19.3975 39.3805 20.2309 38.6909C20.5875 38.3961 20.8888 38.0308 21.1995 37.6835C21.6922 37.1323 22.168 36.5646 22.6591 36.0106C23.2841 35.3057 23.9169 34.6079 24.5452 33.9052C24.6781 33.757 24.8066 33.6038 24.9357 33.454L24.7208 33.2664C23.946 32.5263 23.3312 31.6351 22.9144 30.648ZM46.6166 9.64633C47.1305 10.2434 47.6181 10.8627 48.0778 11.5024C48.959 12.7381 49.6682 14.0877 50.186 15.5143C50.4157 16.1459 50.5994 16.7836 50.5174 17.4743C50.4605 17.9583 50.4644 18.4488 50.4223 18.9355C50.3867 19.3402 50.3222 19.7427 50.2702 20.1463C50.1915 20.7545 50.0777 21.3615 50.0438 21.9723C50.011 22.5542 50.0455 23.1416 50.0821 23.724C50.1187 24.3162 50.1986 24.9058 50.2527 25.4964C50.314 26.1674 50.3971 26.8368 50.4157 27.5089C50.431 28.0602 50.3818 28.6141 50.3342 29.1654C50.2731 29.8259 50.1127 30.4734 49.8584 31.086C49.6818 31.5202 49.4712 31.9402 49.2727 32.3745L49.3526 32.4587L49.474 32.5527L49.597 32.334C50.6297 30.7091 51.5473 29.0138 52.3429 27.2606C52.853 26.129 53.3369 24.9857 53.7943 23.8317C54.5074 22.0379 55.0834 20.1925 55.5175 18.3116C55.7144 17.4672 55.8653 16.6097 55.9987 15.7522C56.1032 15.0817 56.1896 14.4036 56.2093 13.7271C56.2295 13.0096 56.1902 12.2866 56.124 11.5713C56.0742 11.031 55.9408 10.4874 55.6028 10.0472C55.0581 9.34008 54.4708 8.66414 53.7484 8.12875C53.1397 7.67867 52.5326 7.21547 51.8802 6.83703C50.845 6.23602 49.7244 5.8368 48.5536 5.56445C47.4101 5.29813 46.2529 5.18328 45.088 5.15867C44.4012 5.14391 43.711 5.21773 43.0258 5.28281C42.4045 5.34078 41.7871 5.44031 41.162 5.52234C41.833 5.89969 42.4953 6.23547 43.1187 6.63086C44.4312 7.46211 45.6081 8.46234 46.6166 9.64633ZM29.565 32.923C29.9888 31.5667 30.5669 30.2706 31.1263 28.968C31.5808 27.9109 31.8285 26.798 31.9111 25.6539C31.9521 25.0901 31.9412 24.5191 31.9133 23.9537C31.8861 23.3245 31.8284 22.6971 31.7405 22.0735C31.6229 21.2784 31.4895 20.4827 31.3013 19.7023C31.0973 18.8579 30.5833 18.2695 29.7017 18.0523C29.1652 17.9205 28.6315 17.926 28.0884 18.0119C26.7634 18.2202 25.5504 18.7086 24.4205 19.4239C24.193 19.5677 24.0673 19.6842 24.1072 20.0096C24.1903 20.7009 24.2084 21.403 24.2051 22.1003C24.2007 23.0874 24.1586 24.0745 24.1214 25.0611C24.1094 25.3821 24.0629 25.7026 24.0279 26.0225C23.9754 26.5125 23.8731 27.002 23.8764 27.4914C23.8797 27.9956 23.9311 28.5113 24.0536 28.9997C24.4424 30.5484 25.2649 31.815 26.6141 32.7091C27.4437 33.2593 28.3613 33.536 29.3692 33.5891C29.4359 33.3577 29.4977 33.1395 29.565 32.923ZM27.9812 19.6399C27.8035 19.2675 27.9052 18.9585 28.3165 18.8152C28.4171 18.7808 28.5199 18.7425 28.6238 18.7327C28.7677 18.7184 28.9126 18.7288 29.0575 18.7288C29.5798 18.7321 30.0818 18.8048 30.5122 19.1362C30.7889 19.3495 30.8633 19.6312 30.6839 19.9221C30.4296 20.3339 30.043 20.5406 29.5672 20.58C28.8185 20.6418 28.293 20.2929 27.9812 19.6399ZM48.7488 19.5037L48.9189 18.0135C48.9435 17.8145 48.8391 17.7598 48.6717 17.7548C48.1451 17.7406 47.619 17.7215 47.0923 17.7127C46.4995 17.7018 45.9215 17.797 45.3724 18.0223C44.7632 18.2733 44.2994 18.6747 44.1097 19.338C43.9708 19.8268 43.927 20.3377 43.9806 20.843C44.0546 21.6249 44.2317 22.3935 44.5073 23.129C44.8759 24.1095 45.2609 25.0895 45.7219 26.0291C46.3459 27.3005 47.0513 28.5321 47.7141 29.7845C47.8908 30.1186 48.0406 30.468 48.2249 30.858C48.5971 30.0823 48.8003 29.2364 48.821 28.3763C48.8391 27.6648 48.7827 26.9516 48.7412 26.2402C48.7155 25.8048 48.6537 25.3717 48.6116 24.9375C48.553 24.3327 48.4634 23.7273 48.4491 23.1208C48.4355 22.5039 48.4792 21.8837 48.5317 21.2674C48.5809 20.6779 48.6783 20.0922 48.7488 19.5037ZM47.5627 19.0258C47.3669 19.5655 46.9491 19.8707 46.4066 19.9598C45.9012 20.0435 45.4583 19.857 45.1291 19.4534C44.8944 19.1663 44.9841 18.8267 45.3358 18.632C45.7394 18.4089 46.1829 18.3526 46.7062 18.3187C46.849 18.3444 47.0623 18.3668 47.2657 18.4242C47.5605 18.5073 47.6698 18.7305 47.5627 19.0258ZM31.9231 35.6524C31.6344 35.4162 31.2516 35.4025 30.977 35.6617C30.6358 35.9844 30.3355 36.353 30.0353 36.7161C29.6891 37.1361 29.3632 37.5725 28.917 37.8979C28.2667 38.3709 27.5071 38.5667 26.7448 38.7521C26.1388 38.8998 25.5296 39.037 24.922 39.1781L24.9144 39.2569C25.0948 39.34 25.2693 39.4445 25.458 39.5041C26.3849 39.7972 27.3283 39.9437 28.3083 39.8606C29.0148 39.7999 29.6886 39.6457 30.3268 39.3433C31.2056 38.9271 31.8821 38.267 32.4569 37.5003C32.5531 37.3723 32.5969 37.1831 32.6078 37.018C32.6466 36.435 32.3508 36.0013 31.9231 35.6524ZM48.8462 35.3998C48.3917 35.5523 48.022 35.7848 47.9121 36.2764C47.8372 36.6089 47.8098 36.9529 47.7809 37.2936C47.7754 37.3537 47.8503 37.4642 47.9072 37.4795C48.2572 37.572 48.6094 37.6808 48.967 37.713C49.4073 37.753 49.8546 37.7404 50.2976 37.7185C50.7755 37.6945 51.2568 37.6633 51.7282 37.5845C52.8378 37.3975 53.9124 37.0945 54.8662 36.4645C55.2107 36.2376 55.5509 36.0057 55.8932 35.7749L55.8648 35.7262C55.5 35.7804 55.1363 35.8466 54.7699 35.8854C54.024 35.9652 53.2775 36.0495 52.5288 36.0927C52.1673 36.1134 51.8009 36.044 51.4367 36.0145C50.8253 35.9647 50.2281 35.8291 49.7113 35.502C49.4133 35.3139 49.1639 35.2931 48.8462 35.3998Z" fill="#336791"/>
<path d="M1.55469 56.4264C2.33989 56.299 3.13432 56.2372 3.92977 56.2416C5.15203 56.2416 6.04836 56.5259 6.61711 57.0378C7.1432 57.4928 7.45602 58.1895 7.45602 59.0432C7.45602 59.9105 7.19953 60.593 6.71609 61.0907C6.06203 61.7874 4.99563 62.1429 3.78703 62.1429C3.41734 62.1429 3.07609 62.1287 2.79227 62.0576V65.8972H1.55469V56.4264ZM2.79227 61.0475C3.06242 61.1186 3.40367 61.147 3.81602 61.147C5.30844 61.147 6.21898 60.4219 6.21898 59.0995C6.21898 57.8341 5.3232 57.2227 3.9582 57.2227C3.41789 57.2227 3.00555 57.2653 2.79227 57.3222V61.0475ZM14.9493 62.3983C14.9493 64.9434 13.1856 66.053 11.522 66.053C9.65938 66.053 8.22328 64.688 8.22328 62.512C8.22328 60.2086 9.73047 58.8578 11.6358 58.8578C13.6127 58.8573 14.9493 60.2939 14.9493 62.3983ZM9.4893 62.4694C9.4893 63.9766 10.3566 65.1141 11.5795 65.1141C12.7738 65.1141 13.6691 63.9908 13.6691 62.4409C13.6691 61.275 13.0866 59.7962 11.6073 59.7962C10.128 59.7962 9.4893 61.1612 9.4893 62.4694ZM16.3564 64.6164C16.7261 64.8581 17.3802 65.1141 18.0058 65.1141C18.9158 65.1141 19.3423 64.6591 19.3423 64.0903C19.3423 63.4931 18.9874 63.1661 18.0627 62.8248C16.8256 62.3841 16.2427 61.7016 16.2427 60.8769C16.2427 59.7678 17.1384 58.8578 18.6172 58.8578C19.3139 58.8578 19.9259 59.0569 20.3098 59.2844L19.997 60.1944C19.5738 59.9336 19.0864 59.7957 18.5893 59.7962C17.8499 59.7962 17.4376 60.2228 17.4376 60.7347C17.4376 61.3034 17.8505 61.5594 18.7463 61.9006C19.9406 62.3556 20.552 62.9528 20.552 63.9766C20.552 65.1852 19.6136 66.0383 17.9784 66.0383C17.2248 66.0383 16.5281 65.8534 16.0447 65.5691L16.3564 64.6164ZM23.6654 57.0373V59.0137H25.4564V59.9663H23.6654V63.6774C23.6654 64.5305 23.9066 65.014 24.6038 65.014C24.8482 65.0175 25.0921 64.9888 25.329 64.9287L25.3859 65.8671C25.1447 65.9666 24.7602 66.0377 24.2773 66.0377C23.6944 66.0377 23.2246 65.8529 22.926 65.5116C22.5711 65.142 22.4426 64.5305 22.4426 63.7201V59.9663H21.3762V59.0137H22.4426V57.3643L23.6654 57.0373ZM32.7085 59.0142C32.6795 59.5119 32.6516 60.0664 32.6516 60.9053V64.9008C32.6516 66.4791 32.3388 67.4459 31.6705 68.0437C31.0023 68.6693 30.0354 68.8684 29.168 68.8684C28.3434 68.8684 27.4334 68.6693 26.8783 68.2996L27.1911 67.347C27.6461 67.6313 28.357 67.8873 29.2102 67.8873C30.4898 67.8873 31.4283 67.219 31.4283 65.4843V64.7165H31.3998C31.0159 65.3563 30.2766 65.8682 29.2102 65.8682C27.5039 65.8682 26.2811 64.4179 26.2811 62.512C26.2811 60.1802 27.8025 58.8578 29.3808 58.8578C30.5757 58.8578 31.2298 59.4834 31.5284 60.0522H31.5568L31.6137 59.0142H32.7085ZM31.4146 61.73C31.4146 61.5167 31.4004 61.3319 31.3435 61.1613C31.116 60.4361 30.5046 59.8389 29.5946 59.8389C28.3997 59.8389 27.5471 60.8484 27.5471 62.4409C27.5471 63.7917 28.2296 64.915 29.5804 64.915C30.3482 64.915 31.0449 64.4316 31.3151 63.6353C31.3862 63.422 31.4152 63.1803 31.4152 62.967V61.73H31.4146ZM34.6417 61.1613C34.6417 60.3508 34.6275 59.6541 34.5848 59.0142H35.6802L35.7223 60.365H35.7792C36.092 59.4408 36.8456 58.8578 37.6845 58.8578C37.8267 58.8578 37.9257 58.872 38.0395 58.9005V60.0806C37.8995 60.0502 37.7566 60.0359 37.6134 60.038C36.7319 60.038 36.1057 60.7062 35.9356 61.6447C35.9005 61.8371 35.8815 62.0321 35.8787 62.2277V65.8961H34.6417V61.1613ZM39.8463 62.6827C39.8748 64.3747 40.9548 65.0714 42.2061 65.0714C43.1024 65.0714 43.6422 64.915 44.1114 64.7159L44.3247 65.6117C43.8839 65.8108 43.1303 66.0383 42.0355 66.0383C39.9169 66.0383 38.6514 64.6448 38.6514 62.5689C38.6514 60.493 39.8742 58.8573 41.8791 58.8573C44.1256 58.8573 44.7228 60.8337 44.7228 62.0991C44.7228 62.3551 44.6944 62.5541 44.6802 62.6821H39.8463V62.6827ZM43.5148 61.7869C43.5284 60.9906 43.1872 59.7536 41.7801 59.7536C40.5146 59.7536 39.9601 60.9195 39.86 61.7869H43.5148ZM46.1447 64.3889C46.815 64.7915 47.5809 65.0076 48.3628 65.0145C49.6283 65.0145 50.3677 64.3463 50.3677 63.3794C50.3677 62.4836 49.8558 61.9717 48.5619 61.4741C46.9978 60.9195 46.0309 60.1091 46.0309 58.7583C46.0309 57.2653 47.268 56.1562 49.1306 56.1562C50.1117 56.1562 50.8227 56.3837 51.2492 56.6255L50.908 57.635C50.3486 57.3343 49.723 57.1779 49.088 57.18C47.7798 57.18 47.2822 57.962 47.2822 58.6161C47.2822 59.5119 47.8646 59.9527 49.1875 60.4645C50.8084 61.0907 51.6331 61.8722 51.6331 63.2798C51.6331 64.7586 50.5383 66.0383 48.2775 66.0383C47.3533 66.0383 46.3438 65.7681 45.8313 65.4269L46.1447 64.3889ZM61.2308 67.3037C59.9947 66.9794 58.7711 66.6094 57.5623 66.1947C57.3633 66.1236 57.1642 66.0525 56.9794 66.0525C54.7044 65.9672 52.7564 64.2894 52.7564 61.2039C52.7564 58.1327 54.6333 56.1562 57.2211 56.1562C59.8231 56.1562 61.5157 58.1753 61.5157 61.0048C61.5157 63.4647 60.3782 65.043 58.7857 65.5975V65.6544C59.7384 65.8961 60.7763 66.1236 61.5868 66.2658L61.2308 67.3037ZM60.207 61.0617C60.207 59.1422 59.2123 57.1652 57.1784 57.1652C55.0883 57.1652 54.0645 59.099 54.0788 61.1755C54.0645 63.2087 55.1878 65.043 57.1216 65.043C59.0985 65.043 60.207 63.2514 60.207 61.0617ZM63.1213 56.3127H64.3589V64.8581H68.4539V65.8961H63.1213V56.3127Z" fill="#336791"/>
</svg>
