<svg width="70" height="70" viewBox="0 0 70 70" fill="none" xmlns="http://www.w3.org/2000/svg">
<path d="M35 31.0625C37.8089 31.0625 40.0859 28.7854 40.0859 25.9766C40.0859 23.1677 37.8089 20.8906 35 20.8906C32.1911 20.8906 29.9141 23.1677 29.9141 25.9766C29.9141 28.7854 32.1911 31.0625 35 31.0625Z" fill="#61DAFB"/>
<path d="M35 44.6797C38.9922 48.5625 42.9297 50.8594 46.1016 50.8594C47.1406 50.8594 48.125 50.6406 48.9453 50.1484C51.7891 48.5078 52.8281 44.4062 51.8438 38.5547C51.6797 37.5156 51.4609 36.4766 51.1875 35.3828C52.2812 35.0547 53.2656 34.7266 54.25 34.3984C59.7734 32.2656 62.8359 29.3125 62.8359 26.0859C62.8359 22.8047 59.7734 19.8516 54.25 17.7734C53.2656 17.3906 52.2812 17.0625 51.1875 16.7891C51.4609 15.6953 51.6797 14.6562 51.8438 13.6172C52.7734 7.65625 51.7344 3.5 48.8906 1.85938C48.0703 1.36719 47.0859 1.14844 46.0469 1.14844C42.9297 1.14844 38.9375 3.44531 34.9453 7.32812C31.0078 3.44531 27.0703 1.14844 23.8984 1.14844C22.8594 1.14844 21.875 1.36719 21.0547 1.85938C18.2109 3.5 17.1719 7.60156 18.1562 13.4531C18.3203 14.4922 18.5391 15.5312 18.8125 16.625C17.7188 16.9531 16.7344 17.2812 15.75 17.6094C10.2266 19.7422 7.16406 22.6953 7.16406 25.9219C7.16406 29.2031 10.2266 32.1562 15.75 34.2344C16.7344 34.6172 17.7188 34.9453 18.8125 35.2188C18.5391 36.3125 18.3203 37.3516 18.1562 38.3906C17.2266 44.2422 18.2656 48.3984 21.0547 49.9844C21.875 50.4766 22.8594 50.6953 23.8984 50.6953C27.0703 50.8047 31.0078 48.5078 35 44.6797ZM31.9375 37.2969C32.9219 37.3516 33.9609 37.3516 35 37.3516C36.0391 37.3516 37.0781 37.3516 38.0625 37.2969C37.0781 38.6094 36.0391 39.8125 35 40.9609C33.9609 39.8125 32.9219 38.6094 31.9375 37.2969ZM25.1562 31.6641C25.7031 32.5938 26.1953 33.4688 26.7969 34.3438C25.1016 34.125 23.5156 33.8516 21.9844 33.5234C22.4766 32.0469 23.0234 30.5156 23.6797 28.9844C24.1172 29.8594 24.6094 30.7891 25.1562 31.6641ZM21.9844 18.4844C23.5156 18.1562 25.1016 17.8828 26.7969 17.6641C26.25 18.5391 25.7031 19.4141 25.1562 20.3438C24.6094 21.2734 24.1172 22.1484 23.6797 23.0781C22.9687 21.4922 22.4219 19.9609 21.9844 18.4844ZM24.9922 25.9766C25.7031 24.5 26.4688 23.0234 27.3438 21.5469C28.1641 20.125 29.0938 18.7031 30.0234 17.2812C31.6641 17.1719 33.3047 17.1172 35 17.1172C36.75 17.1172 38.3906 17.1719 39.9766 17.2812C40.9609 18.7031 41.8359 20.125 42.6562 21.5469C43.5312 23.0234 44.2969 24.5 45.0078 25.9766C44.2969 27.4531 43.5312 28.9297 42.6562 30.4062C41.8359 31.8281 40.9062 33.25 39.9766 34.6719C38.3359 34.7812 36.6953 34.8359 35 34.8359C33.25 34.8359 31.6094 34.7812 30.0234 34.6719C29.0391 33.25 28.1641 31.8281 27.3438 30.4062C26.4688 28.9297 25.7031 27.4531 24.9922 25.9766ZM46.375 23.0234L44.8984 20.2891C44.3516 19.3594 43.8594 18.4844 43.2578 17.6094C44.9531 17.8281 46.5391 18.1016 48.0703 18.4297C47.5781 19.9609 47.0313 21.4922 46.375 23.0234ZM46.375 28.9297C47.0313 30.4609 47.5781 31.9922 48.0703 33.4688C46.5391 33.7969 44.9531 34.0703 43.2578 34.2891C43.8047 33.4141 44.3516 32.5391 44.8984 31.6094C45.3906 30.7891 45.8828 29.8594 46.375 28.9297ZM47.6328 47.9062C47.1953 48.1797 46.6484 48.2891 46.0469 48.2891C43.3672 48.2891 40.0312 46.1016 36.75 42.8203C38.3359 41.125 39.8672 39.2109 41.3984 37.0781C43.9688 36.8594 46.4297 36.4766 48.7266 35.9297C49 36.9141 49.1641 37.8984 49.3281 38.8828C50.0938 43.5312 49.4922 46.8672 47.6328 47.9062ZM50.4766 19.0859C56.6016 20.8359 60.2656 23.5156 60.2656 25.9766C60.2656 28.1094 57.75 30.2422 53.3203 31.9375C52.4453 32.2656 51.4609 32.5938 50.4766 32.8672C49.7656 30.625 48.8906 28.3281 47.7969 25.9766C48.8906 23.625 49.8203 21.3281 50.4766 19.0859ZM46.1016 3.66406C46.7031 3.66406 47.1953 3.77344 47.6875 4.04688C49.4922 5.08594 50.1484 8.36719 49.3828 13.0703C49.2188 14 49 14.9844 48.7812 16.0234C46.4844 15.5312 44.0234 15.1484 41.4531 14.875C39.9766 12.7422 38.3906 10.8281 36.8047 9.13281C40.0859 5.90625 43.4219 3.66406 46.1016 3.66406ZM38.0625 14.6562C37.0781 14.6016 36.0391 14.6016 35 14.6016C33.9609 14.6016 32.9219 14.6016 31.9375 14.6562C32.9219 13.3437 33.9609 12.1406 35 10.9922C36.0391 12.1406 37.0781 13.3984 38.0625 14.6562ZM22.3672 4.04688C22.8047 3.77344 23.3516 3.66406 23.9531 3.66406C26.6328 3.66406 29.9687 5.85156 33.25 9.13281C31.6641 10.8281 30.1328 12.7422 28.6016 14.875C26.0312 15.0938 23.5703 15.4766 21.2734 16.0234C21 15.0391 20.8359 14.0547 20.6719 13.0703C19.9062 8.42187 20.5078 5.14062 22.3672 4.04688ZM19.5234 32.8672C13.3984 31.1172 9.73437 28.4375 9.73437 25.9766C9.73437 23.8438 12.25 21.7109 16.6797 20.0156C17.5547 19.6875 18.5391 19.3594 19.5234 19.0859C20.2344 21.3281 21.1094 23.625 22.2031 25.9766C21.1094 28.3281 20.1797 30.6797 19.5234 32.8672ZM20.6719 38.8828C20.8359 37.9531 21.0547 36.9688 21.2734 35.9297C23.5703 36.4219 26.0312 36.8047 28.6016 37.0781C30.0781 39.2109 31.6641 41.125 33.25 42.8203C29.9687 46.0469 26.6328 48.2891 23.9531 48.2891C23.3516 48.2891 22.8594 48.1797 22.3672 47.9062C20.5078 46.8672 19.9062 43.5312 20.6719 38.8828ZM18.375 61.4141C19.5781 59.9375 19.6328 58.2969 18.9766 56.6562C18.3203 55.0156 16.9531 54.25 15.2578 54.1953C13.2344 54.1406 11.1563 54.1953 9.13281 54.1953H8.75V68.3594H10.3906V63H12.9609C13.2891 63 13.5625 63.1094 13.7266 63.3828L17.0078 68.4688C17.0625 68.5781 17.2266 68.7422 17.3359 68.7422H19.4687C18.1562 66.7188 16.8984 64.8047 15.5859 62.8359C16.7344 62.6719 17.7187 62.2891 18.375 61.4141ZM10.3906 61.3047V55.8906H10.9922C12.25 55.8906 13.5625 55.8359 14.8203 55.9453C16.2969 56 17.3359 57.1484 17.3359 58.625C17.3359 60.1016 16.1328 61.25 14.6562 61.3047C13.3437 61.3594 12.0312 61.3047 10.3906 61.3047ZM31.5547 62.0156C30.6797 58.1875 27.1797 57.2031 24.5 58.4063C22.4219 59.3359 21.4922 61.1406 21.4375 63.3828C21.3828 65.0781 21.875 66.6094 23.1875 67.7578C24.6641 69.0703 26.4687 69.2344 28.3281 68.9062C29.3672 68.6875 30.2969 68.1953 31.0078 67.4297C30.7344 67.0469 30.4609 66.6641 30.1875 66.3359C28.6562 67.6484 26.9609 68.0859 25.1016 67.2109C23.8984 66.6094 23.2969 65.1328 23.1875 64.0391H31.6641V63.3281C31.7188 62.8359 31.6641 62.3984 31.5547 62.0156ZM23.2969 62.8906C23.1328 61.25 24.7734 59.5 26.5781 59.5C28.6562 59.4453 29.9688 60.7031 30.0234 62.8906H23.2969ZM40.0859 58.1328C39.2656 57.9688 38.3906 57.9141 37.5703 57.9688C36.2578 58.0781 35.1094 58.6797 34.1797 59.6641C34.4531 60.0469 34.6719 60.4297 35 60.8672C35.1094 60.7578 35.2188 60.6484 35.3281 60.5938C36.2031 59.7734 37.2422 59.3359 38.5 59.4453C39.4844 59.5 40.4141 59.8281 40.6875 60.8125C40.9062 61.5781 40.8516 62.3984 40.9063 63.2188C40.7422 63.2188 40.6875 63.1641 40.6328 63.1094C39.3203 62.0156 37.8438 61.7969 36.2578 62.1797C34.7813 62.5625 33.8516 63.7109 33.7422 65.1875C33.6328 66.8828 34.3984 68.1406 35.875 68.7422C36.8047 69.125 37.8438 69.125 38.8281 68.9062C39.5938 68.7422 39.9219 68.3047 41.0156 67.7031V68.4141H42.5469C42.5469 66.2266 42.6016 63.5469 42.5469 61.0312C42.5469 59.4453 41.6172 58.4609 40.0859 58.1328ZM40.8516 65.0234C40.7969 65.1875 40.8516 65.3516 40.8516 65.5156C40.8516 66.6641 40.5781 67.0469 39.4844 67.4844C38.7188 67.7578 37.8984 67.8672 37.0781 67.5938C36.1484 67.3203 35.4922 66.5 35.4922 65.5703C35.4375 64.6406 36.0391 63.7109 36.9688 63.4375C38.2266 63 39.375 63.2734 40.4141 64.0391C40.7422 64.3125 40.9609 64.5859 40.8516 65.0234ZM49.3828 59.6094C50.8047 59.1719 52.1172 59.4453 53.1016 60.6484L53.2656 60.7578C53.6484 60.4297 53.9766 60.1016 54.4141 59.7188C54.25 59.5547 54.1953 59.4453 54.0859 59.2812C52.5 57.5859 49.3828 57.3672 47.4688 58.7344C44.7891 60.7031 44.8438 64.5312 46.1562 66.5547C47.4141 68.4688 49.2188 69.125 51.3516 68.8516C52.6094 68.6875 53.6484 68.0859 54.4688 67.0469C54.0859 66.7188 53.7031 66.3906 53.3203 66.0078C53.2109 66.1172 53.1562 66.1719 53.1016 66.2812C51.625 67.9219 49.1641 67.7578 47.8516 66.0078C47.0859 64.9688 46.9219 63.7656 47.1406 62.5625C47.25 61.1953 47.9609 60.1016 49.3828 59.6094ZM60.7578 67.0469C60.6484 67.1016 60.5938 67.1562 60.5938 67.1562C60.1563 67.4844 59.7188 67.5391 59.2266 67.375C58.7344 67.1562 58.6797 66.7188 58.625 66.2812V60.0469C58.625 59.9375 58.625 60.1562 58.6797 59.6094H60.7578V57.9688H58.5703V55.2344H56.9297V58.1875H55.5078C55.3984 58.1875 55.2344 58.2969 55.2344 58.4063C55.1797 58.7891 55.2344 59.0625 55.2344 59.6094H56.9844V66.6094C56.9844 67.4844 57.2031 68.25 57.9688 68.6875C58.7891 69.1797 60.375 69.0703 61.0859 68.4688C61.1953 68.4141 61.25 68.1953 61.25 68.1406C61.0859 67.8125 60.9219 67.4297 60.7578 67.0469Z" fill="#61DAFB"/>
</svg>
