<svg width="70" height="70" viewBox="0 0 70 70" fill="none" xmlns="http://www.w3.org/2000/svg">
<path d="M44.3516 55.8359C41.6172 55.8359 39.7578 57.8047 39.7578 60.5391C39.7578 63.1094 41.6172 65.2422 44.3516 65.2422C47.0312 65.2422 48.8906 63.1094 48.8906 60.5391C48.8906 57.8047 47.0859 55.8359 44.3516 55.8359ZM44.3516 63.875C42.3828 63.875 41.5625 62.125 41.5625 60.5391C41.5625 58.8438 42.6016 57.2031 44.3516 57.2031C46.1016 57.2031 47.1406 58.8438 47.1406 60.5391C47.1406 62.125 46.2656 63.875 44.3516 63.875ZM35.5469 55.3438V55.7812H33.3594V56.7109C33.3594 57.0938 33.7422 57.3672 34.125 57.3672H35.5469V65.0234H36.4219C36.8047 65.0234 37.1875 64.6406 37.1875 64.3125V57.4219H38.8281C39.2109 57.4219 39.375 57.0391 39.375 56.6562V55.7812H37.1875V55.1797C37.1875 53.9766 37.3516 53.0469 38.7734 53.0469H38.8281C39.2109 53.1016 39.5391 52.7734 39.5938 52.3359L39.6484 51.7891C39.3203 51.7344 38.9922 51.6797 38.5547 51.6797C36.0938 51.7344 35.5469 53.1562 35.5469 55.3438ZM17.5547 55.8906V55.9453C17.2266 55.9453 16.8438 56.2188 16.7344 56.5469L14.4375 63.4375H14.3828L12.1406 56.6016C11.9766 56.2734 11.6484 55.8906 11.3203 55.8906V55.7812H10.1719L13.2344 64.2578C13.3438 64.5312 13.5625 65.0781 13.5625 65.2969C13.5625 65.4609 13.0703 67.5391 11.5938 67.5391H11.4844C11.1016 67.5391 10.8281 67.8125 10.7734 68.1953L10.7188 68.7969C10.9922 68.8516 11.3203 68.9062 11.8672 68.9062C14.0547 68.9062 14.7109 66.7734 15.3125 65.0781L18.5938 55.7812H17.5547V55.8906ZM7.05469 57.8594C5.6875 57.1484 4.21094 56.7109 4.15625 55.2891C4.15625 53.8125 5.52344 53.4297 6.5625 53.4297C7 53.4297 7.38281 53.4844 7.76562 53.5391C8.14844 53.5938 8.47656 53.2656 8.53125 52.8828L8.58594 52.3359C7.875 52.1719 7.16406 52.0625 6.5625 52.0625C4.26563 52.0625 2.57031 53.2109 2.57031 55.4531C2.57031 57.3672 3.88281 58.1328 5.25 58.7891C6.61719 59.4453 8.14844 59.9922 8.14844 61.5781C8.14844 63.2188 6.5625 63.875 5.41406 63.875C4.75781 63.875 4.04688 63.7109 3.5 63.5469C3.11719 63.4922 2.84375 63.8203 2.78906 64.2578L2.73438 64.6953C3.55469 64.9688 4.375 65.1328 5.19531 65.1328C7.76562 65.1328 9.78906 64.1484 9.78906 61.4688C9.73438 59.3906 8.42188 58.5703 7.05469 57.8594ZM29.6953 55.8359C28.875 55.8359 27.5078 56.2734 26.9062 57.5859C26.4141 56.3828 25.375 55.8906 24.3359 55.8906C23.0234 55.8906 22.0938 56.3281 21.4922 57.4219H21.3281V56.7656C21.3281 56.3828 21.0547 55.8906 20.6172 55.8906L20.6719 55.7812H19.6875V65.0781H20.7812C21.2188 65.0781 21.4375 64.6953 21.4375 64.3125L21.3281 64.2578V60.5391C21.3281 58.8438 22.2031 57.2031 23.8984 57.2031C25.2109 57.2031 25.7031 58.5703 25.7031 59.7188V65.1328H26.4141C26.7969 65.1328 27.3438 64.75 27.3438 64.3672V60.5391C27.3438 58.8438 27.9453 57.2031 29.6406 57.2031C30.9531 57.2031 31.1719 58.5703 31.1719 59.7188V65.1328H32.0469C32.4297 65.1328 32.8125 64.8047 32.8125 64.4766V59.3359C32.8125 57.3125 31.9922 55.8359 29.6953 55.8359ZM55.0703 55.7812C53.8125 55.7812 52.5547 56.3281 52.0625 57.4219H51.9531V56.7656C51.9531 56.3281 51.625 55.8906 51.1875 55.8906V55.7812H50.3125V65.0781H51.2969C51.6797 65.0781 51.9531 64.6953 51.9531 64.3125V60.8672C51.9531 58.6797 52.9375 57.1484 54.8516 57.1484C56.2734 57.2578 56.875 58.2422 56.875 60.3203V65.0234H57.5859C57.9688 65.0234 58.5156 64.6406 58.5156 64.2578V59.6641C58.5156 57.2578 57.3672 55.7812 55.0703 55.7812ZM66.5 55.7812V55.9453C66.1719 55.9453 65.7891 56.2188 65.6797 56.5469L63.3828 63.4375H63.3281L61.0859 56.6016C60.9219 56.2734 60.5938 55.8906 60.2656 55.8906V55.7812H59.1172L62.1797 64.2578C62.2891 64.5312 62.5078 65.0781 62.5078 65.2969C62.5078 65.4609 62.0156 67.5391 60.5391 67.5391H60.4297C60.0469 67.5391 59.7734 67.8125 59.7188 68.1953L59.6641 68.7969C59.9375 68.8516 60.2656 68.9062 60.8125 68.9062C63 68.9062 63.6562 66.7734 64.2578 65.0781L67.5391 55.7812H66.5ZM35 49.3281C48.4531 49.3281 59.3906 38.3906 59.3906 24.9375C59.3906 11.4844 48.4531 0.546875 35 0.546875C21.5469 0.546875 10.6094 11.4844 10.6094 24.9375C10.6094 38.3906 21.5469 49.3281 35 49.3281ZM18.8125 26.6875C19.1953 25.4844 20.125 25.2656 21.1094 25.5391C22.0937 25.8672 22.5312 27.0703 22.2031 28C22.1484 28.1094 22.0938 28.2734 22.0391 28.4922L21.6016 29.2578C21.3828 30.0234 22.3672 30.5156 23.0781 30.7344C24.6641 31.2266 26.1953 30.4062 26.5781 29.0938C26.9609 27.8906 26.1953 27.0703 25.8672 26.7969L24.3906 25.2109C23.6797 24.4453 22.2031 22.3125 22.9141 19.9062C23.1875 18.9766 23.7891 17.9922 24.6641 17.3359C26.4687 15.9688 28.4922 15.75 30.3516 16.2969C32.8125 17.0078 33.9609 18.6484 35.4922 19.8516C36.3672 17.3359 37.5156 14.875 39.3203 12.7969C40.9063 10.8828 43.0938 9.57031 45.5547 9.46094C48.0156 9.40625 49.875 10.5 49.9844 12.25C49.9844 13.0156 49.6016 14.4922 48.0703 14.5469C46.9219 14.6016 46.1563 13.8906 46.1016 12.9062C46.1016 12.5234 46.2109 12.1953 46.4297 11.8125C46.7031 11.3203 46.7578 11.2656 46.7031 11.0469C46.7031 10.3906 45.7188 10.3906 45.4453 10.3906C41.7812 10.5 40.7969 15.4766 40.0312 19.4688L39.6484 21.6016C41.7812 21.9297 43.2578 21.5469 44.0781 21C45.2266 20.2344 43.75 19.4688 43.9141 18.5938C44.1328 17.7188 44.8984 17.2812 45.5547 17.2812C46.4297 17.2812 47.0859 18.2109 47.0859 19.1406C47.0312 20.6719 45.0078 22.8594 40.8516 22.75C40.3594 22.75 39.8672 22.6953 39.4297 22.6406L38.8281 26.9609C38.1172 30.2422 37.1875 34.6719 33.9062 38.5547C31.0625 41.9453 28.1641 42.4922 26.8516 42.4922C24.4453 42.5469 22.8047 41.2891 22.75 39.5391C22.6953 37.8438 24.1719 36.9688 25.1562 36.9141C26.4688 36.8594 27.3437 37.7891 27.3984 38.8828C27.4531 39.8125 26.9609 40.0859 26.6328 40.25C26.4141 40.4141 26.0859 40.5781 26.1406 40.9609C26.1406 41.125 26.3047 41.5078 26.8516 41.4531C27.8906 41.3984 28.5469 40.9062 29.0391 40.5781C31.3906 38.6094 32.3203 35.1641 33.5234 28.9297L33.7969 27.3984C34.1797 25.375 34.6719 23.1328 35.3281 20.8359C33.6875 19.5781 32.6484 18.0469 30.4062 17.4453C28.875 17.0078 27.9453 17.3906 27.2891 18.2109C26.5234 19.1953 26.7422 20.4531 27.5078 21.2188L28.7656 22.5859C30.2969 24.3359 31.1172 25.7031 30.7891 27.5625C30.2969 30.5156 26.7969 32.7578 22.6406 31.5C19.0312 30.5703 18.375 28.0547 18.8125 26.6875Z" fill="#1A171B"/>
</svg>
