<svg width="128" height="16" viewBox="0 0 128 16" fill="none" xmlns="http://www.w3.org/2000/svg">
<path d="M13.227 0C9.699 0 7.5 1.778 6.625 5.301C7.949 3.528 9.5 2.875 11.25 3.324C12.25 3.574 12.977 4.301 13.773 5.125C15.074 6.449 16.574 7.977 19.852 7.977C23.375 7.977 25.574 6.199 26.449 2.676C25.125 4.449 23.574 5.102 21.824 4.653C20.824 4.403 20.102 3.676 19.301 2.852C18 1.528 16.5 0 13.227 0ZM6.602 7.926C3.074 7.926 0.875 9.699 0 13.226C1.324 11.449 2.875 10.801 4.625 11.25C5.625 11.5 6.352 12.227 7.148 13.051C8.449 14.375 9.949 15.903 13.227 15.903C16.75 15.903 18.949 14.125 19.824 10.602C18.5 12.375 16.949 13.028 15.199 12.574C14.199 12.324 13.477 11.602 12.676 10.778C11.398 9.449 9.898 7.926 6.602 7.926Z" fill="url(#paint0_linear_2727_4548)"/>
<path d="M39.6764 6.68338H37.3754V11.1604C37.3754 12.3594 38.1484 12.3314 39.6754 12.2574V14.0584C36.5754 14.4334 35.3524 13.5814 35.3524 11.1604V6.68338H33.6484V4.75738H35.3524V2.25738L37.3524 1.66038V4.75738H39.6484V6.68338H39.6764ZM48.4764 4.75738H50.4764V14.0584H48.4764V12.7064C47.7734 13.6834 46.6764 14.2854 45.2264 14.2854C42.6994 14.2854 40.6024 12.1324 40.6024 9.38237C40.6024 6.60937 42.6994 4.48438 45.2274 4.48438C46.6764 4.48438 47.7734 5.08138 48.4774 6.05838L48.4764 4.75738ZM45.5234 12.3824C47.1994 12.3824 48.4774 11.1324 48.4774 9.41037C48.4774 7.68337 47.1994 6.43338 45.5234 6.43338C43.8524 6.43338 42.5744 7.68337 42.5744 9.41037C42.6024 11.1324 43.8524 12.3824 45.5244 12.3824H45.5234ZM53.8244 3.35938C53.1254 3.35938 52.5514 2.75738 52.5514 2.08138C52.5514 1.38238 53.1254 0.808376 53.8244 0.808376C54.5244 0.808376 55.1024 1.38238 55.1024 2.08138C55.1254 2.75738 54.5234 3.35938 53.8244 3.35938ZM52.8244 14.0584V4.75838H54.8244V14.0584H52.8244ZM57.1484 14.0584V0.484375H59.1484V14.0584H57.1484ZM72.2274 4.75838H74.3524L71.4264 14.0584H69.4494L67.5234 7.78538L65.5744 14.0584H63.6024L60.6764 4.75838H62.8004L64.6004 11.1834L66.5504 4.75738H68.4764L70.3974 11.1834L72.2274 4.75838ZM76.8244 3.35838C76.1254 3.35838 75.5514 2.75838 75.5514 2.08138C75.5514 1.38238 76.1254 0.808376 76.8244 0.808376C77.5244 0.808376 78.1024 1.38238 78.1024 2.08138C78.1254 2.75738 77.5514 3.35938 76.8244 3.35938V3.35838ZM75.8244 14.0584V4.75838H77.8244V14.0584H75.8244ZM85.0514 4.50838C87.1254 4.50838 88.6254 5.93338 88.6254 8.33138V14.0584H86.6254V8.55838C86.6254 7.13238 85.8014 6.41038 84.5514 6.41038C83.2274 6.41038 82.1764 7.18338 82.1764 9.08138V14.0814H80.1764V4.78538H82.1764V5.98438C82.8014 4.98438 83.8014 4.50738 85.0514 4.50738V4.50838ZM98.1764 1.03538H100.176V14.0584H98.1764V12.7064C97.4764 13.6834 96.3754 14.2854 94.9264 14.2854C92.3984 14.2854 90.3014 12.1324 90.3014 9.38237C90.3014 6.60937 92.3984 4.48438 94.9264 4.48438C96.3754 4.48438 97.4764 5.08138 98.1764 6.05838V1.03538ZM95.2264 12.3824C96.8984 12.3824 98.1764 11.1324 98.1764 9.41037C98.1764 7.68337 96.8984 6.43338 95.2264 6.43338C93.5514 6.43338 92.2734 7.68337 92.2734 9.41037C92.2734 11.1324 93.5514 12.3824 95.2274 12.3824H95.2264ZM106.898 14.3084C104.102 14.3084 101.977 12.1604 101.977 9.41037C101.977 6.63237 104.074 4.50738 106.898 4.50738C108.727 4.50738 110.301 5.45738 111.051 6.91038L109.324 7.91038C108.926 7.03538 108 6.48438 106.875 6.48438C105.227 6.48438 104 7.73437 104 9.41037C104 11.0814 105.25 12.3314 106.875 12.3314C108 12.3314 108.898 11.7574 109.352 10.9104L111.074 11.8824C110.324 13.3594 108.727 14.3084 106.898 14.3084ZM114.426 7.30838C114.426 9.00838 119.426 7.98438 119.426 11.4334C119.426 13.2854 117.801 14.3084 115.801 14.3084C113.949 14.3084 112.601 13.4564 112 12.1324L113.727 11.1324C114.023 11.9844 114.773 12.4844 115.801 12.4844C116.699 12.4844 117.375 12.1834 117.375 11.4334C117.375 9.78538 112.375 10.7064 112.375 7.38338C112.375 5.63338 113.875 4.53538 115.773 4.53538C117.301 4.53538 118.574 5.23438 119.227 6.45638L117.523 7.41038C117.199 6.68338 116.551 6.35938 115.773 6.35938C115.051 6.33138 114.426 6.65938 114.426 7.30838ZM123 7.30838C123 9.00838 128 7.98438 128 11.4334C128 13.2854 126.375 14.3084 124.375 14.3084C122.523 14.3084 121.175 13.4564 120.575 12.1324L122.301 11.1324C122.601 11.9844 123.351 12.4844 124.375 12.4844C125.273 12.4844 125.949 12.1834 125.949 11.4334C125.949 9.78538 120.949 10.7064 120.949 7.38338C120.949 5.63338 122.449 4.53538 124.352 4.53538C125.875 4.53538 127.148 5.23438 127.801 6.45638L126.101 7.41038C125.773 6.68338 125.125 6.35938 124.351 6.35938C123.625 6.33138 123 6.65938 123 7.30838Z" fill="#2D3748"/>
<defs>
<linearGradient id="paint0_linear_2727_4548" x1="-0.707677" y1="5.04159" x2="22.1447" y2="18.2177" gradientUnits="userSpaceOnUse">
<stop stop-color="#2298BD"/>
<stop offset="1" stop-color="#0ED7B5"/>
</linearGradient>
</defs>
</svg>
