<svg width="128" height="128" viewBox="0 0 128 128" fill="none" xmlns="http://www.w3.org/2000/svg">
<path d="M30.1319 72.1994L17.8619 79.1394V73.7294L25.5119 69.5194L30.1419 72.1894L30.1319 72.1994ZM30.9719 71.4394V56.9194L26.4819 59.5094V68.8394L31.0019 71.4394H30.9719ZM4.51188 72.1994L16.7819 79.1394V73.7294L9.13188 69.5294L4.51188 72.1994ZM3.67188 71.4394V56.9194L8.16187 59.5094V68.8394L3.67188 71.4394ZM4.20187 55.9994L16.7919 48.8794V54.0994L8.72188 58.5194H8.66187L4.20187 55.9994ZM30.4519 55.9994L17.8619 48.8594V54.0794L25.9219 58.5094H25.9819L30.4519 55.9994ZM16.7819 72.4994L9.24187 68.3494V60.1294L16.7919 64.4894L16.7819 72.4994ZM17.8619 72.4994L25.4119 68.3494V60.1294L17.8619 64.4894V72.4994ZM9.75187 59.1894L17.3219 54.9994L24.8919 59.1594L17.3219 63.5294L9.75187 59.1894ZM48.6119 69.5694H51.9319L55.3119 58.2994H52.0819L50.0819 66.2994L47.9419 58.2994H45.1419L42.9819 66.2994L40.9819 58.2994H37.7719L41.1319 69.5694H44.4519L46.5419 62.3494L48.6119 69.5694ZM55.4919 63.9994C55.4542 64.7858 55.5822 65.5714 55.8676 66.3052C56.1529 67.039 56.5893 67.7046 57.1484 68.259C57.7074 68.8134 58.3768 69.2441 59.113 69.5232C59.8492 69.8024 60.6358 69.9237 61.4219 69.8794C62.3601 69.9183 63.2921 69.7097 64.1241 69.2744C64.9561 68.839 65.6589 68.1924 66.1619 67.3994L64.1619 65.9094C63.8516 66.3447 63.44 66.6978 62.9626 66.9383C62.4852 67.1788 61.9563 67.2993 61.4219 67.2894C61.0587 67.3151 60.694 67.2682 60.3492 67.1514C60.0043 67.0346 59.6862 66.8503 59.4134 66.6092C59.1406 66.368 58.9187 66.0749 58.7604 65.747C58.6022 65.4191 58.5109 65.063 58.4919 64.6994H66.4319V64.0494C66.4319 60.3694 64.4319 58.0494 60.9619 58.0494C57.7519 58.0494 55.4419 60.5894 55.4419 63.9994H55.4919ZM58.6219 62.7694C58.64 62.1494 58.8985 61.5608 59.3426 61.1279C59.7867 60.695 60.3817 60.4517 61.0019 60.4494C61.3114 60.4345 61.6207 60.4824 61.9112 60.5901C62.2017 60.6977 62.4675 60.863 62.6926 61.076C62.9177 61.2889 63.0974 61.5451 63.221 61.8292C63.3446 62.1134 63.4095 62.4195 63.4119 62.7294L58.6219 62.7694ZM67.6219 69.5994H70.4219V68.3994C70.8434 68.8641 71.3596 69.2332 71.9357 69.4816C72.5119 69.73 73.1346 69.852 73.7619 69.8394C76.9919 69.8394 79.2819 67.4094 79.2819 63.9394C79.2819 60.4694 77.1519 57.9994 73.9219 57.9994C73.2916 57.9791 72.6648 58.0996 72.087 58.3521C71.5092 58.6047 70.995 58.983 70.5819 59.4594V53.9994H67.5819V69.5694L67.6219 69.5994ZM70.4919 63.9994C70.4919 61.8894 71.7419 60.6794 73.3819 60.6794C75.0219 60.6794 76.2719 61.9994 76.2719 63.9994C76.2719 65.9994 75.0619 67.2494 73.3819 67.2494C72.9753 67.2359 72.5757 67.1399 72.2074 66.9671C71.8391 66.7944 71.5098 66.5485 71.2395 66.2445C70.9691 65.9405 70.7635 65.5848 70.6349 65.1988C70.5064 64.8128 70.4577 64.4047 70.4919 63.9994ZM80.4219 73.6294H83.4219V68.3994C83.8396 68.8689 84.3551 69.2411 84.9321 69.4899C85.5092 69.7387 86.1338 69.858 86.7619 69.8394C89.9919 69.8394 92.1119 67.4094 92.1119 63.9194C92.1119 60.4294 89.8019 57.9994 86.5719 57.9994C85.9424 57.9846 85.3173 58.1076 84.7403 58.3598C84.1634 58.612 83.6486 58.9873 83.2319 59.4594V58.2894H80.4319V73.5994L80.4219 73.6294ZM83.3119 63.9294C83.2777 63.524 83.3264 63.1159 83.4549 62.73C83.5835 62.344 83.7891 61.9882 84.0595 61.6842C84.3298 61.3802 84.6591 61.1344 85.0274 60.9616C85.3957 60.7889 85.7953 60.6929 86.2019 60.6794C87.8819 60.6794 89.0919 61.9294 89.0919 63.9294C89.0919 65.9294 87.9319 67.2494 86.2019 67.2494C84.4719 67.2494 83.3119 65.9994 83.3119 63.8994V63.9294ZM92.6219 66.1094C92.6219 68.4794 94.5619 69.8794 96.8419 69.8794C97.3435 69.9182 97.8477 69.849 98.3203 69.6765C98.793 69.504 99.2232 69.2322 99.5819 68.8794L99.7719 69.6094H102.402V62.4294C102.402 59.9094 101.322 58.0094 97.7019 58.0094C96.1255 58.0311 94.587 58.4954 93.2619 59.3494L94.3819 61.3494C95.3047 60.8497 96.3328 60.5756 97.3819 60.5494C98.7019 60.5494 99.3819 61.2194 99.3819 62.2094V62.9994C98.6631 62.5686 97.8398 62.3437 97.0019 62.3494C94.3719 62.3494 92.6219 63.8494 92.6219 66.0694V66.1094ZM95.6219 66.0194C95.6219 65.0894 96.4219 64.4494 97.5619 64.4494C98.7019 64.4494 99.5619 65.0294 99.5619 66.0194C99.5619 67.0094 98.7419 67.5694 97.6219 67.5694C96.5019 67.5694 95.6219 66.9494 95.6219 66.0194ZM109.622 67.2494C108.78 67.2176 107.983 66.8641 107.394 66.2617C106.805 65.6594 106.469 64.8541 106.457 64.0118C106.444 63.1695 106.754 62.3544 107.325 61.7344C107.895 61.1144 108.681 60.7368 109.522 60.6794C110.505 60.6886 111.446 61.0753 112.152 61.7594L112.992 59.2594C111.984 58.452 110.733 58.0081 109.442 57.9994C108.651 57.9733 107.863 58.1089 107.127 58.398C106.39 58.6872 105.721 59.1237 105.159 59.6808C104.597 60.2379 104.155 60.9038 103.86 61.6378C103.565 62.3719 103.422 63.1584 103.442 63.9494C103.42 64.7376 103.562 65.5219 103.857 66.253C104.153 66.9841 104.596 67.6463 105.159 68.1983C105.722 68.7502 106.393 69.18 107.13 69.4606C107.867 69.7413 108.654 69.8668 109.442 69.8294C110.729 69.8484 111.985 69.4287 113.002 68.6394L112.202 66.2094C111.491 66.8238 110.591 67.1766 109.652 67.2094L109.622 67.2494ZM114.082 69.5994H117.082V63.7494L120.852 69.5694H124.342L120.072 63.3994L124.072 58.2894H120.732L117.062 62.9994V53.9994H114.062V69.5694L114.082 69.5994Z" fill="#1C78C0"/>
</svg>
