<svg width="70" height="70" viewBox="0 0 70 70" fill="none" xmlns="http://www.w3.org/2000/svg">
<path fill-rule="evenodd" clip-rule="evenodd" d="M32.6058 62.5523C31.284 62.4342 29.9485 62.4747 28.6185 62.4643C28.4889 62.4637 28.3577 62.6065 28.2275 62.6825C28.3418 62.7563 28.4539 62.8892 28.5715 62.8947C29.1949 62.9253 29.435 63.2939 29.4405 63.8534C29.452 65.0729 29.4673 66.2941 29.4345 67.5125C29.4137 68.2677 29.0002 68.5953 28.2384 68.4652C27.8578 68.3995 27.4433 68.2568 27.1507 68.0184C26.4912 67.4813 25.8978 66.8623 25.2279 66.229L25.6266 66.0802C26.6667 65.6848 27.1266 65.0696 27.0506 64.1738C26.9817 63.3568 26.3063 62.648 25.2826 62.5611C23.9827 62.4512 22.6702 62.4807 21.3631 62.4643C21.2641 62.4627 21.1641 62.5775 21.064 62.6382C21.1641 62.7241 21.2609 62.8816 21.3637 62.8859C22.1052 62.9144 22.2846 63.3743 22.2819 64.0043C22.2759 65.1349 22.2753 66.2654 22.2802 67.396C22.2835 68.0107 22.0752 68.4263 21.3905 68.4837C21.2762 68.4936 21.1728 68.6292 21.064 68.7069C21.198 68.7763 21.3309 68.9037 21.4665 68.9059C22.4864 68.9223 23.5074 68.9229 24.5273 68.9048C24.6575 68.9032 24.7855 68.7654 24.914 68.6905L24.5722 68.4712C24.3091 68.3038 23.8793 68.1835 23.817 67.9598C23.6693 67.4316 23.6966 66.8552 23.6534 66.299L23.8979 66.2186C24.0548 66.3936 24.22 66.5615 24.3671 66.7441C24.8549 67.3479 25.3263 67.9642 25.8262 68.5576C25.9563 68.7118 26.1691 68.8994 26.3424 68.8983C28.5141 68.883 30.6912 68.9125 32.8552 68.7654C34.0933 68.6812 35.0558 67.9659 35.4577 66.702C36.1167 64.6288 34.8605 62.7525 32.6058 62.5523ZM23.5123 65.5837V63.114C24.0592 63.0396 24.9096 62.9368 25.2558 63.5252C25.4838 63.9124 25.4723 64.5714 25.3072 64.9963C25.0119 65.7543 24.0592 65.6012 23.5123 65.5837ZM33.7176 67.2046C33.3577 68.0107 32.0698 68.5297 31.273 68.212C31.0707 68.1316 30.8525 67.7898 30.8465 67.5628C30.8082 66.089 30.8268 64.6124 30.8268 63.0894C31.8937 63.056 32.9634 62.9559 33.6066 63.966C34.2579 64.9898 34.1994 66.1256 33.7176 67.2046ZM55.1064 68.1562C54.5672 68.3219 53.8185 68.3722 53.3575 68.119C52.4535 67.6224 53.0376 66.6555 52.8686 65.8998C54.0247 65.7964 54.0214 65.797 54.4223 66.7655C54.4551 66.8453 54.565 66.8918 54.6394 66.9547C54.7055 66.8377 54.8264 66.7223 54.8291 66.6041C54.8461 65.8494 54.8428 65.0942 54.8291 64.3395C54.827 64.2384 54.7252 64.1394 54.6159 63.9436C54.4272 64.3647 54.4283 64.7994 54.1822 64.975C53.8885 65.1844 53.0436 65.1708 53.0436 65.2692V63.0462C53.5905 63.0845 54.2095 63.1473 54.8029 63.1495C55.5784 63.1523 55.5002 63.9627 55.8759 64.3548L56.0416 64.2805L55.93 62.5228C54.3173 62.3166 50.598 62.42 50.2119 62.7044C50.3322 62.7755 50.429 62.8832 50.5302 62.8848C51.2717 62.8952 51.4659 63.3535 51.4691 63.9857C51.4724 65.051 51.4987 66.1169 51.4762 67.1822C51.4495 68.4504 50.7243 68.8655 49.6623 68.1381C48.9109 67.6241 48.2912 66.9164 47.7531 66.4237C48.3202 65.8577 48.965 65.4579 49.2439 64.8826C49.7536 63.8282 48.9043 62.683 47.5305 62.5545C46.2749 62.4375 45.0045 62.4791 43.7402 62.467C43.6171 62.4659 43.4935 62.5819 43.3699 62.6437C43.4744 62.7279 43.5772 62.8816 43.6849 62.8848C44.433 62.9111 44.5998 63.3973 44.6086 64.0103C44.6217 64.8984 44.6288 65.786 44.6294 66.6736C44.631 68.0966 44.6277 68.0966 43.4005 68.592L43.3152 68.7577C43.4848 68.8141 43.6362 68.9059 43.7888 68.9081C44.788 68.9212 45.7866 68.9218 46.7857 68.9076C46.9345 68.9048 47.0816 68.7998 47.2298 68.7419C47.0854 68.6462 46.9487 68.4859 46.7961 68.4684C46.2771 68.4099 46.0512 68.0987 46.0206 67.6295C45.9905 67.1811 46.0141 66.7288 46.0141 66.0972C46.2798 66.3455 46.445 66.4685 46.5719 66.6233C47.0783 67.2412 47.5934 67.8538 48.0627 68.5002C48.3011 68.8283 48.5652 68.9262 48.9557 68.9229C51.2203 68.9065 53.4926 68.9158 55.7583 68.9125C55.9262 68.9125 56.3248 68.8852 56.3248 68.8655V67.1723C55.778 67.5158 55.5658 68.0162 55.1064 68.1562ZM45.9342 65.5788V63.126C47.028 62.9827 47.8614 63.3573 47.8942 64.2859C47.9281 65.249 47.5748 65.6362 45.9342 65.5788ZM14.4151 60.8127C13.9393 60.4327 11.0507 60.4622 10.6816 60.8718C10.8954 60.9287 11.0726 61.0003 11.2558 61.0216C11.812 61.084 12.0039 61.4291 11.8563 61.9065C11.4308 63.2852 10.961 64.6502 10.4541 66.188C10.3392 65.8932 10.2884 65.7778 10.249 65.658C9.75461 64.1662 9.26953 62.6721 8.76039 61.1852C8.68273 60.9582 8.49734 60.7684 8.36172 60.5617C8.22445 60.7619 8.03578 60.944 7.95867 61.1655C7.39812 62.7716 6.86055 64.3849 6.31586 65.9966L6.16984 66.013C5.76789 64.794 5.35992 63.5783 4.96453 62.3566C4.65117 61.3908 4.72336 61.2754 5.71812 60.9752C5.82148 60.9429 5.90352 60.8434 5.99594 60.7744C5.91062 60.7023 5.82531 60.5677 5.73891 60.5672C4.4959 60.5536 3.25278 60.5534 2.00977 60.5666C1.92281 60.5677 1.83641 60.7006 1.75 60.7717C1.81891 60.8379 1.88562 60.9598 1.95781 60.9631C3.06359 61.0167 3.3343 61.8534 3.605 62.6951C4.23609 64.6551 4.86609 66.6162 5.50484 68.5745C5.57922 68.8026 5.70336 69.0153 5.80398 69.2346L5.99758 69.2226L7.97727 63.3229L9.93398 69.2406L10.1648 69.2242C10.2473 69.012 10.3392 68.8026 10.412 68.5866C11.1109 66.5062 11.812 64.4276 12.4999 62.344C12.757 61.5647 13.1748 61.0003 14.0771 60.9653C14.1827 60.9615 14.2855 60.874 14.4151 60.8127ZM40.9768 60.7061C39.3772 60.5202 37.747 60.5951 36.1298 60.571C36.0467 60.5694 35.9609 60.7077 35.8083 60.8395C36.0161 60.9079 36.1309 60.9746 36.2485 60.9795C37.0262 61.0112 37.3729 61.4695 37.3816 62.1859C37.4019 63.8709 37.4041 65.5558 37.38 67.2407C37.3696 67.9358 37.0699 68.4329 36.2698 68.463C36.1468 68.4679 36.0303 68.6309 35.9111 68.7211C36.0544 68.7851 36.196 68.9032 36.3404 68.9048C37.538 68.9191 38.7373 68.9196 39.9355 68.9037C40.0728 68.9021 40.2084 68.7741 40.3457 68.7052C40.2205 68.621 40.1023 68.4744 39.9711 68.4635C39.3909 68.4137 38.9807 68.1704 38.9189 67.5612C38.8451 66.8409 38.8194 66.1147 38.7691 65.3201C39.3422 65.3201 39.8311 65.3573 40.3129 65.313C41.4548 65.2091 42.4637 64.8344 42.8728 63.6373C43.3295 62.3024 42.4911 60.8816 40.9768 60.7061ZM41.2054 63.8687C40.8521 64.5189 40.4655 64.6589 38.8248 64.5069V61.2869C39.3717 61.318 40.5617 61.0659 41.1414 61.918C41.5598 62.5348 41.5598 63.2168 41.2054 63.8687ZM19.5344 63.1375C18.0496 61.8791 15.6576 61.9349 14.2116 63.231C12.8707 64.433 12.7001 66.3209 13.8228 67.711C14.6136 68.6905 15.6805 69.1017 16.9914 69.1586C17.2222 69.1301 17.5372 69.1241 17.8347 69.0487C19.2664 68.6855 20.3197 67.886 20.6888 66.393C21.0159 65.0696 20.5395 63.9901 19.5344 63.1375ZM18.573 67.7438C17.6323 68.9437 15.7106 68.6905 14.9915 67.3413C14.5091 66.4373 14.4687 65.4776 14.7815 64.5085C15.1342 63.4191 15.8583 62.8837 16.9356 62.8859C18.0168 62.8881 18.7523 63.4213 19.1034 64.4987C19.2254 64.8738 19.273 65.273 19.3539 65.6608L19.4764 65.7412C19.1833 66.4155 19.0116 67.1849 18.573 67.7438ZM66.7702 65.2342C66.1779 64.9351 65.5638 64.666 65.012 64.3029C64.8009 64.164 64.5854 63.7571 64.645 63.5515C64.7183 63.2994 65.0464 63.0259 65.3193 62.9445C66.1144 62.706 66.8112 63.1971 67.1338 64.1022C67.1978 64.2821 67.4532 64.4281 67.5686 64.5895C67.6156 64.5545 67.8081 64.5184 67.8081 64.4828V62.0897C67.2613 62.3352 67.2684 62.4769 67.2224 62.5173C66.4748 62.4227 65.8224 62.2696 65.2241 62.2877C64.4175 62.3112 63.7416 62.8723 63.56 63.5345C63.3566 64.2755 63.6163 65.0062 64.3037 65.5131C64.4979 65.6559 64.7123 65.7658 64.9277 65.8768C65.4199 66.1289 65.9247 66.3526 66.4054 66.626C66.8429 66.8748 67.2476 67.2041 67.0715 67.7876C66.8773 68.4252 66.3294 68.4941 65.7694 68.4367C64.7877 68.3355 64.237 67.7345 63.951 66.8289C63.9078 66.6922 63.7602 66.5872 63.6623 66.468C63.5994 66.5451 63.4834 66.6211 63.4818 66.6993C63.4692 67.507 63.4736 68.3148 63.4736 69.1225L63.6814 69.1859L64.1501 68.5702C64.4569 68.7162 64.7631 68.9005 65.0951 69.0137C66.2977 69.4194 67.6397 68.8759 68.0821 67.8253C68.5191 66.7901 68.0591 65.8866 66.7702 65.2342ZM60.8535 65.2255C60.3187 64.9569 59.78 64.6977 59.2534 64.4145C58.8777 64.2137 58.5227 63.8818 58.7688 63.4689C58.9367 63.1878 59.3715 62.9537 59.7133 62.9122C60.4401 62.8236 60.9355 63.2879 61.2495 64.1257C61.3123 64.293 61.4731 64.4237 61.5885 64.5709L61.7613 64.4549C61.7613 63.7899 61.7624 63.1255 61.7586 62.461C61.758 62.4014 61.7187 62.3418 61.6563 62.1684L61.0668 62.653C60.9569 62.5961 60.8245 62.5201 60.684 62.4594C59.5361 61.965 58.1629 62.3598 57.715 63.3103C57.2655 64.2657 57.7948 65.278 59.051 65.891C59.6094 66.158 60.1583 66.4446 60.6966 66.7502C61.0952 66.9804 61.3791 67.3977 61.1417 67.8029C60.9656 68.1048 60.5276 68.3744 60.1727 68.4252C59.3239 68.5488 58.5845 68.0419 58.2187 67.2309C58.1383 67.0515 58.1164 66.8426 58.0245 66.6709C57.9748 66.5784 57.8315 66.5369 57.7309 66.4729C57.6784 66.5582 57.5827 66.6435 57.5816 66.7305C57.5694 67.4406 57.5691 68.1509 57.5805 68.8611C57.5821 68.9497 57.6565 69.0886 57.7259 69.1105C57.7992 69.1334 57.9376 69.0667 57.9939 68.9967C58.0869 68.8797 58.1377 68.7282 58.2285 68.5477C58.5725 68.7156 58.8585 68.8906 59.1686 69C60.3553 69.4211 61.7411 68.8901 62.1857 67.8641C62.6407 66.8103 62.1759 65.8883 60.8535 65.2255ZM35.0908 53.4283C49.5775 53.4069 61.3041 41.6229 61.3036 27.0869C61.3036 12.7878 49.6311 1.01085 35.6858 0.762027C21.0405 0.501167 8.80305 12.3853 8.79922 26.7966C8.7943 41.6218 20.4684 53.4502 35.0908 53.4283ZM35.0481 2.03789C48.9562 2.03351 60.0376 13.333 60.0332 27.5152C60.0288 40.9037 48.6538 52.1048 35.0591 52.1076C21.2084 52.1103 10.0696 40.8802 10.0702 26.9141C10.0707 13.3079 21.3823 2.04226 35.0481 2.03789ZM24.5514 15.2526C24.7789 16.01 24.1423 16.2741 23.4653 16.3261C22.7538 16.3819 22.0412 16.4349 21.2149 16.4978L29.3825 40.8305C29.5788 40.5095 29.6598 40.4192 29.6953 40.3137C31.2058 35.7992 32.725 31.2875 34.1972 26.7599C34.3317 26.347 34.265 25.8002 34.1173 25.3758C33.3386 23.1276 32.4056 20.928 31.7226 18.6525C31.255 17.0944 30.6354 16.0866 28.7946 16.267C28.4807 16.2977 28.0984 15.6228 27.7468 15.2739C28.1717 15.0207 28.5934 14.5542 29.0221 14.5477C32.772 14.4902 36.5226 14.4913 40.2724 14.5509C40.7017 14.558 41.1239 15.0371 41.5494 15.2969C41.177 15.637 40.8559 16.1467 40.4212 16.278C39.7234 16.4885 38.9495 16.4486 38.1144 16.523L46.2919 40.8502C47.5311 36.7355 48.6834 32.9566 49.8039 29.1689C50.8041 25.787 50.208 22.6294 48.4001 19.6511C47.8565 18.7553 47.1882 17.8863 46.8809 16.9096C46.5303 15.7984 46.2399 14.5334 46.4259 13.4194C46.7403 11.5305 48.1895 10.5927 50.1512 10.4133C39.4182 0.453589 22.5542 4.01867 16.3401 14.8408C18.7321 14.7298 21.0159 14.5848 23.3012 14.5542C23.7338 14.5487 24.4497 14.9135 24.5514 15.2526ZM28.8274 48.2062C28.7771 48.3522 28.7744 48.5141 28.7355 48.7569C33.361 50.0387 37.8962 49.9463 42.5387 48.3823L35.4462 28.9573C33.1767 35.5548 30.9996 41.8799 28.8274 48.2062ZM25.2536 47.3279L14.5688 18.0176C9.74859 27.4331 13.4154 41.799 25.2536 47.3279ZM57.5553 28.4941C57.8938 24.0419 56.3587 17.8776 55.032 17.0299C54.8844 18.6673 54.9872 20.49 54.5174 22.1498C53.4116 26.061 52.0592 29.905 50.7566 33.7594C49.3407 37.9484 47.8691 42.1189 46.4209 46.2976C53.2224 42.2655 56.9603 36.3149 57.5553 28.4941Z" fill="#494949"/>
</svg>
