<svg width="70" height="70" viewBox="0 0 70 70" fill="none" xmlns="http://www.w3.org/2000/svg">
<path d="M0.539062 0.539062V69.4519H69.4519V0.539062H0.539062ZM39.8703 23.352C39.8703 23.352 42.0512 39.7888 42.0512 40.5473L45.2149 30.638H45.193C46.5887 26.8864 49.3378 23.352 54.573 23.352L47.1558 41.2621C46.512 43.2916 45.2347 45.0645 43.5092 46.324C41.7836 47.5835 39.6994 48.264 37.5587 48.267C37.5587 48.267 35.3766 32.8709 35.3766 32.5236L32.1052 40.981C30.6434 44.7326 27.8084 48.267 22.5732 48.267L18.4716 23.3744C20.4676 23.4241 22.376 24.1997 23.8353 25.5543C25.2945 26.9088 26.2035 28.7483 26.3898 30.7244C26.3898 30.7244 26.9356 39.8534 26.9356 40.5687L30.7966 30.6374C32.1927 26.8859 34.8533 23.352 39.8703 23.352Z" fill="#4353FF"/>
</svg>
