<svg width="70" height="70" viewBox="0 0 70 70" fill="none" xmlns="http://www.w3.org/2000/svg">
<path d="M52.8563 1.01562C46.9555 1.23656 39.7821 8.64726 42.2365 15.5598C44.8347 22.4181 46.4994 27.2962 46.8472 34.9476C53.0832 28.6733 58.8128 21.8614 59.2749 13.9574C59.4264 7.54313 56.3902 2.81648 52.8563 1.01562ZM45.9481 36.2426C43.4697 32.502 38.9711 30.1991 37.2971 29.4925C36.4112 31.0757 35.2485 32.7956 33.7337 34.6785C30.5492 38.6926 27.338 45.2753 28.3262 52.9917C41.4802 51.5403 45.5877 41.6676 45.9481 36.2426ZM23.3551 23.6852C27.764 24.9912 30.8522 25.7945 34.1958 27.0091C39.0843 28.7854 42.9223 31.0533 45.9623 34.9667C45.3985 28.233 42.6248 20.5166 38.1967 14.4977C31.8781 5.9118 20.9368 1.78945 10.7704 5.81281C10.3034 11.8503 12.8863 20.8278 23.3551 23.6852Z" fill="#0073BB"/>
<path d="M15.6018 65.5501V57.9873C15.6018 57.9242 15.5768 57.8636 15.5322 57.8189C15.4876 57.7742 15.427 57.7491 15.3639 57.7489H14.2691C14.2061 57.7493 14.1458 57.7746 14.1013 57.8193C14.0569 57.8639 14.0319 57.9243 14.0317 57.9873V65.5501C14.0317 65.6808 14.1384 65.8 14.2691 65.8H15.3639C15.4952 65.8 15.6018 65.6808 15.6018 65.5501ZM9.82133 65.777V57.7992C9.20719 57.8118 8.26328 58.2127 8.2518 59.0532V64.5159C7.91875 64.5635 7.39484 64.6116 7.10937 64.6116C6.08672 64.6116 5.8368 63.8859 5.8368 62.9098V59.0095C5.77281 58.0579 4.69984 57.7806 4.26672 57.8091V62.9098C4.26672 64.7659 5.19422 65.8984 7.10937 65.8984C7.3943 65.8984 8.00188 65.8148 8.2518 65.7645V65.8618C8.49406 67.4259 6.59641 66.8358 5.56828 66.7297C4.81086 66.7297 4.29352 67.3537 4.15625 68.057C4.59648 68.1997 6.04789 68.3834 7.05469 68.4627C8.87523 68.4622 9.82133 67.4669 9.82133 65.777ZM12.6941 65.5501V57.9873C12.6941 57.9242 12.669 57.8636 12.6244 57.8189C12.5798 57.7742 12.5193 57.7491 12.4562 57.7489H11.3619C11.2987 57.7491 11.2381 57.7742 11.1934 57.8189C11.1487 57.8636 11.1236 57.9242 11.1234 57.9873V65.5501C11.1234 65.6808 11.2301 65.8 11.3619 65.8H12.4562C12.5874 65.8 12.6941 65.6808 12.6941 65.5501ZM11.9087 55.6172C12.1259 55.6173 12.3341 55.7037 12.4875 55.8574C12.6409 56.011 12.727 56.2193 12.7269 56.4364C12.7267 56.6535 12.6403 56.8617 12.4867 57.0151C12.3331 57.1686 12.1248 57.2547 11.9077 57.2545C11.6905 57.2544 11.4824 57.168 11.3289 57.0144C11.1755 56.8607 11.0894 56.6524 11.0895 56.4353C11.0897 56.2182 11.1761 56.01 11.3297 55.8566C11.4833 55.7032 11.6916 55.617 11.9087 55.6172ZM14.8241 55.6172C14.9317 55.6173 15.0381 55.6385 15.1374 55.6797C15.2367 55.7209 15.3269 55.7813 15.4029 55.8574C15.4788 55.9334 15.5391 56.0237 15.5802 56.1231C15.6212 56.2224 15.6423 56.3289 15.6423 56.4364C15.6422 56.5439 15.6209 56.6504 15.5797 56.7497C15.5385 56.849 15.4782 56.9392 15.4021 57.0151C15.326 57.0911 15.2357 57.1513 15.1364 57.1924C15.037 57.2335 14.9306 57.2546 14.823 57.2545C14.6059 57.2544 14.3977 57.168 14.2443 57.0144C14.0909 56.8607 14.0048 56.6524 14.0049 56.4353C14.0051 56.2182 14.0915 56.01 14.2451 55.8566C14.3987 55.7032 14.607 55.617 14.8241 55.6172Z" fill="#0073BB"/>
<path d="M20.4996 57.4638V57.0564C20.4996 56.9486 20.44 56.8765 20.2601 56.8529C19.9025 56.8039 19.542 56.7799 19.1811 56.7813C18.0545 56.7813 17.3359 57.1641 17.3359 58.4471V65.6358C17.3359 65.7681 17.4437 65.8753 17.576 65.8753H18.1508C18.2143 65.8751 18.2751 65.8499 18.32 65.805C18.3649 65.7601 18.3902 65.6992 18.3903 65.6358V60.1244H20.2595C20.3908 60.1244 20.487 60.0281 20.487 59.9089V59.5009C20.487 59.3691 20.3908 59.2854 20.2595 59.2854H18.3903V58.4471C18.3903 57.7394 18.5216 57.6317 19.1805 57.6317H20.247C20.4159 57.6311 20.4996 57.5715 20.4996 57.4638ZM24.3261 59.9313V59.3806C24.3261 59.2133 24.2304 59.2012 24.0751 59.2012C23.0803 59.2012 22.2534 59.2368 21.5704 59.5365C21.4386 59.5961 21.3544 59.6803 21.3544 59.8115V65.6347C21.3544 65.767 21.4501 65.8742 21.5704 65.8742H22.1938C22.3251 65.8742 22.4093 65.7544 22.4093 65.6347V60.243C22.8648 60.1473 23.2608 60.1233 24.0756 60.1233C24.302 60.1238 24.3261 60.0637 24.3261 59.9313ZM29.5066 65.4072V59.7519C29.5066 59.584 29.4711 59.5244 29.2551 59.4769C28.6202 59.321 27.7692 59.2018 27.0506 59.2018C25.253 59.2018 24.4388 60.3633 24.4388 62.1609V62.9993C24.4388 64.7963 25.2662 65.9606 27.0506 65.9606C27.7812 65.9606 28.6202 65.8386 29.2551 65.6833C29.4711 65.6352 29.5066 65.563 29.5066 65.4072ZM28.4517 64.9522C28.117 65.0118 27.5532 65.0719 27.0501 65.0719C25.8639 65.0719 25.492 64.2571 25.492 62.9987V62.1604C25.492 60.89 25.8639 60.0872 27.0501 60.0872C27.5532 60.0872 28.1285 60.1473 28.4517 60.2069V64.9522ZM38.2096 65.6352V61.2979C38.2096 60.0636 37.5145 59.2012 36.0773 59.2012H35.8017C35.0831 59.2012 34.6035 59.321 34.2442 59.6322C33.8723 59.2969 33.4053 59.2012 32.6862 59.2012H32.4111C30.9728 59.2012 30.2783 60.0636 30.2783 61.2979V65.6352C30.2783 65.7676 30.3614 65.8747 30.4943 65.8747H31.1177C31.249 65.8747 31.3332 65.7676 31.3332 65.6352V61.2979C31.3332 60.2671 31.7887 60.1238 32.4122 60.1238H32.6878C33.454 60.1238 33.7181 60.2556 33.7181 60.9386V65.6352C33.7181 65.7676 33.8018 65.8747 33.9341 65.8747H34.557C34.6888 65.8747 34.773 65.7676 34.773 65.6352V60.9386C34.773 60.2556 35.0366 60.1238 35.8039 60.1238H36.0795C36.7139 60.1238 37.158 60.2676 37.158 61.2979V65.6352C37.158 65.7676 37.2416 65.8747 37.374 65.8747H37.9974C38.1259 65.8747 38.2096 65.7676 38.2096 65.6352ZM44.0612 62.652V62.0051C44.0612 60.3032 43.1747 59.2018 41.4252 59.2018C39.7119 59.2018 38.7652 60.2917 38.7652 62.0051V63.0829C38.7652 65.312 40.1073 65.9606 41.4854 65.9606C42.2882 65.9606 42.9472 65.889 43.6302 65.7555C43.8222 65.7194 43.8698 65.6358 43.8698 65.4799V65.0725C43.8698 64.9527 43.7735 64.9046 43.6778 64.9046H43.6182C43.067 64.9883 42.1805 65.0364 41.4854 65.0364C40.3829 65.0364 39.8196 64.5092 39.8196 63.0835V62.9162H43.8337C43.9775 62.9156 44.0612 62.8079 44.0612 62.652ZM42.9948 62.1128H39.8191V62.0051C39.8191 60.7112 40.3949 60.1238 41.4252 60.1238C42.4796 60.1238 42.9948 60.651 42.9948 62.0051V62.1128ZM52.7767 63.2744V59.5244C52.7764 59.4609 52.751 59.4001 52.706 59.3552C52.6611 59.3103 52.6002 59.285 52.5366 59.2849H51.9739C51.9105 59.2852 51.8497 59.3105 51.8049 59.3554C51.76 59.4002 51.7347 59.461 51.7344 59.5244V63.2744C51.7344 64.5814 51.2433 65.0599 50.2605 65.0599C49.9603 65.0599 49.6497 64.9883 49.3019 64.904V59.5244C49.3016 59.461 49.2763 59.4002 49.2314 59.3554C49.1865 59.3105 49.1258 59.2852 49.0623 59.2849H48.4755C48.4121 59.2852 48.3513 59.3105 48.3065 59.3554C48.2616 59.4002 48.2363 59.461 48.236 59.5244V64.904C47.8887 64.9877 47.577 65.0599 47.2773 65.0599C46.2711 65.0599 45.8041 64.5814 45.8041 63.2744V59.5244C45.8038 59.461 45.7784 59.4002 45.7336 59.3554C45.6887 59.3105 45.628 59.2852 45.5645 59.2849H45.0002C44.9367 59.2852 44.876 59.3105 44.8311 59.3554C44.7862 59.4002 44.7609 59.461 44.7606 59.5244V63.2744C44.7606 65.3957 45.9468 65.9606 47.1805 65.9606C47.7805 65.9606 48.271 65.8518 48.7747 65.6713C49.2778 65.8518 49.7569 65.9606 50.3562 65.9606C51.59 65.9606 52.7767 65.3957 52.7767 63.2744ZM58.9034 63.0354V62.1248C58.9034 60.3633 57.9923 59.2018 56.2308 59.2018C54.4698 59.2018 53.5713 60.3633 53.5713 62.1248V63.0354C53.5713 64.7963 54.4704 65.9606 56.2308 65.9606C57.9923 65.9606 58.9034 64.7958 58.9034 63.0354ZM57.8484 63.0354C57.8484 64.2697 57.3453 65.0364 56.2308 65.0364C55.1048 65.0364 54.6257 64.2576 54.6257 63.0354V62.1248C54.6257 60.8905 55.1162 60.1238 56.2308 60.1238C57.3579 60.1238 57.8484 60.9026 57.8484 62.1248V63.0354ZM62.6697 59.9313V59.3806C62.6697 59.2133 62.574 59.2012 62.4187 59.2012C61.4239 59.2012 60.597 59.2368 59.914 59.5365C59.7822 59.5961 59.698 59.6803 59.698 59.8115V65.6347C59.698 65.767 59.7942 65.8742 59.914 65.8742H60.5374C60.6692 65.8742 60.7534 65.7544 60.7534 65.6347V60.243C61.209 60.1473 61.6044 60.1233 62.4192 60.1233C62.6462 60.1238 62.6697 60.0637 62.6697 59.9313ZM68.0296 65.7189C68.0296 65.6833 68.0176 65.6352 67.9935 65.6111L65.3341 62.3999L67.97 59.5485C68.0062 59.5139 68.0275 59.4667 68.0296 59.4167C68.0296 59.3451 67.97 59.2849 67.8502 59.2849H67.0113C66.8916 59.2849 66.8434 59.309 66.7718 59.3926L64.3754 62.0887V57.104C64.3751 57.0405 64.3498 56.9798 64.3049 56.9349C64.2601 56.89 64.1993 56.8647 64.1359 56.8644H63.56C63.4966 56.8647 63.4358 56.89 63.3909 56.9349C63.3461 56.9798 63.3208 57.0405 63.3205 57.104V65.6352C63.3205 65.7676 63.4282 65.8747 63.56 65.8747H64.1359C64.1993 65.8745 64.2601 65.8491 64.3049 65.8043C64.3498 65.7594 64.3751 65.6987 64.3754 65.6352V62.7718L66.7598 65.7189C66.8555 65.8387 66.9036 65.8747 67.0354 65.8747H67.8978C67.982 65.8747 68.0296 65.8031 68.0296 65.7189Z" fill="#0073BB"/>
</svg>
