<svg width="219" height="42" viewBox="0 0 219 42" fill="none" xmlns="http://www.w3.org/2000/svg">
<g clip-path="url(#clip0_3526_1841)">
<path fill-rule="evenodd" clip-rule="evenodd" d="M17.0084 0.138578L16.9753 0L0.00390625 42L17.0084 34.0888L9.6915 30.6847L17.0084 0.138578Z" fill="url(#paint0_linear_3526_1841)"/>
<path fill-rule="evenodd" clip-rule="evenodd" d="M17 34.0925L33.9967 42L17.0254 0L17 0.105963L24.3248 30.6847L17 34.0925Z" fill="url(#paint1_linear_3526_1841)"/>
<path fill-rule="evenodd" clip-rule="evenodd" d="M17.0123 0.140625L9.69922 30.6705L17.0123 34.0728L24.3253 30.6705L17.0123 0.140625Z" fill="url(#paint2_linear_3526_1841)"/>
</g>
<path d="M78.1458 30.7453C76.7495 30.7453 75.6238 30.4357 74.8559 29.6133L74.693 29.4388C73.8087 28.4918 73.32 27.0214 73.32 25.1772L73.2734 10H73.6628H77.3691H77.5553V24.9529C77.5553 25.4514 77.7364 25.9184 77.9458 26.1925C78.5043 26.7159 79.3403 26.557 79.5032 26.5819V26.9973C79.5032 27.339 79.5032 28.2531 79.5032 29.0838C79.5032 30.7453 79.5032 30.1222 79.5032 30.7597L78.1458 30.7453Z" fill="#333333"/>
<path d="M145.396 30.7453C144 30.7453 142.874 30.4357 142.106 29.6133L141.943 29.4388C141.059 28.4918 140.57 27.0214 140.57 25.1772L140.523 10H140.913H144.619H144.805V24.9529C144.805 25.4514 144.986 25.9184 145.196 26.1925C145.754 26.7159 146.59 26.557 146.753 26.5819V26.9973C146.753 27.339 146.753 28.2531 146.753 29.0838C146.753 30.7453 146.753 30.1222 146.753 30.7597L145.396 30.7453Z" fill="#333333"/>
<path d="M66.112 30.7453C67.5083 30.7453 68.634 30.4357 69.402 29.6133L69.5649 29.4388C70.4491 28.4918 70.9378 27.0214 70.9378 25.1772L70.9844 10H70.595H66.8887H66.7025V24.9529C66.7025 25.4514 66.5215 25.9184 66.312 26.1925C65.7535 26.7159 64.9175 26.557 64.7546 26.5819V26.9973C64.7546 27.339 64.7546 28.2531 64.7546 29.0838C64.7546 30.7453 64.7546 30.1222 64.7546 30.7597L66.112 30.7453Z" fill="#333333"/>
<path d="M70.9918 10H65.0452L49.1875 30.7597H55.5306L70.9918 10Z" fill="#333333"/>
<path d="M113.352 13.6797C114.153 13.6797 114.92 13.8328 115.654 14.1391C116.365 14.43 116.999 14.8473 117.555 15.391C118.118 15.9346 118.563 16.5625 118.889 17.2745C119.23 18.0096 119.43 18.7829 119.489 19.5945H119.501V30.7488H115.364V20.031C115.364 19.4567 115.168 18.9667 114.775 18.5609C114.382 18.1551 113.908 17.9522 113.352 17.9522C112.796 17.9522 112.322 18.1551 111.929 18.5609C111.536 18.9667 111.336 19.4567 111.328 20.031L111.363 30.7488H107.193L107.192 20.031C107.192 19.4567 106.996 18.9667 106.603 18.5609C106.21 18.1551 105.736 17.9522 105.18 17.9522C104.624 17.9522 104.15 18.1551 103.757 18.5609C103.364 18.9667 103.167 19.4567 103.167 20.031V30.7488H99.0312V19.5945H99.0424C99.0943 18.7829 99.2907 18.0096 99.6317 17.2745C99.9652 16.5625 100.414 15.9346 100.977 15.391C101.533 14.8473 102.167 14.43 102.878 14.1391C103.612 13.8328 104.379 13.6797 105.18 13.6797C105.951 13.6797 106.692 13.8213 107.404 14.1046C108.093 14.3803 108.712 14.7708 109.26 15.2761C110.432 14.2118 111.795 13.6797 113.352 13.6797Z" fill="#333333"/>
<path d="M84.7527 29.5436C83.9277 28.941 83.2822 28.1762 82.8162 27.2492C82.3502 26.3299 82.1172 25.3565 82.1172 24.329V13.6797H86.3799V24.329C86.3799 24.6689 86.4601 24.9895 86.6205 25.2908C86.7733 25.5921 86.9834 25.8432 87.2508 26.044C87.6174 26.3067 88.0261 26.438 88.4769 26.438H89.1186C89.5693 26.438 89.9741 26.3067 90.3332 26.044C90.6082 25.8432 90.8221 25.5921 90.9749 25.2908C91.1277 24.9895 91.2041 24.6689 91.2041 24.329V13.6797H95.4668V24.329C95.4668 25.3565 95.2338 26.3299 94.7678 27.2492C94.3018 28.1762 93.6563 28.941 92.8312 29.5436C91.7694 30.3161 90.5815 30.7179 89.2675 30.7488H88.3164C87.0101 30.7179 85.8222 30.3161 84.7527 29.5436Z" fill="#333333"/>
<path d="M131.896 27.0134C132.674 26.8965 133.343 26.6736 133.903 26.345C134.478 25.9936 134.988 25.5095 135.432 24.8926L138.116 27.2403C136.95 29.1885 135.014 30.3659 132.308 30.7726C130.621 31.0261 129.08 30.901 127.685 30.3974C126.287 29.8738 125.148 29.0362 124.268 27.8846C123.388 26.733 122.836 25.3588 122.613 23.762C122.392 22.1852 122.537 20.7165 123.047 19.356C123.573 17.9727 124.389 16.8413 125.496 15.9616C126.619 15.0593 127.941 14.4939 129.461 14.2655C130.888 14.051 132.231 14.1854 133.491 14.6686C134.748 15.1318 135.806 15.9306 136.665 17.0651C137.54 18.1768 137.98 19.97 138.215 21.6466L127.456 25.3773C127.883 26.1283 128.587 26.4918 129.31 26.7907C130.051 27.0868 130.913 27.1611 131.896 27.0134ZM129.955 17.7983C128.861 17.9627 128.024 18.4756 127.444 19.3371C126.865 20.1987 126.666 20.9527 126.816 22.2956L133.746 19.8961C133.424 19.0884 133.039 18.6085 132.339 18.2042C131.639 17.7999 130.844 17.6646 129.955 17.7983Z" fill="#333333"/>
<path d="M204.766 30.8074V30.7877L204.793 20.6115V10H208.767V16.7074C210.017 16.2562 211.05 16.0305 211.865 16.0305C212.791 16.0305 213.68 16.213 214.532 16.5778C215.356 16.9139 216.092 17.4036 216.741 18.0469C217.398 18.671 217.917 19.4007 218.297 20.236C218.686 21.0714 218.922 22.1468 219.005 23.4622V30.8074H214.935V23.4334C214.935 22.5596 214.634 21.8107 214.032 21.1866C213.43 20.5529 212.707 20.236 211.865 20.236C211.022 20.236 210.299 20.5529 209.697 21.1866C209.095 21.8107 208.794 22.5596 208.794 23.4334V30.8074H204.766Z" fill="#333333"/>
<path d="M179.076 27.0134C179.854 26.8965 180.523 26.6736 181.083 26.345C181.658 25.9936 182.168 25.5095 182.611 24.8926L185.296 27.2403C184.13 29.1885 182.194 30.3659 179.488 30.7726C177.801 31.0261 176.26 30.901 174.865 30.3974C173.467 29.8738 172.328 29.0362 171.447 27.8846C170.567 26.733 170.016 25.3588 169.792 23.762C169.572 22.1852 169.717 20.7165 170.227 19.356C170.752 17.9727 171.569 16.8413 172.676 15.9616C173.799 15.0593 175.12 14.4939 176.64 14.2655C178.068 14.051 179.411 14.1854 180.671 14.6686C181.928 15.1318 182.986 15.9306 183.845 17.0651C184.719 18.1768 185.16 19.97 185.394 21.6466L174.636 25.3773C175.063 26.1283 175.766 26.4918 176.489 26.7907C177.231 27.0868 178.093 27.1611 179.076 27.0134ZM177.134 17.7983C176.041 17.9627 175.204 18.4756 174.624 19.3371C174.044 20.1987 173.846 20.9527 173.996 22.2956L180.925 19.8961C180.604 19.0884 180.219 18.6085 179.519 18.2042C178.819 17.7999 178.024 17.6646 177.134 17.7983Z" fill="#333333"/>
<path d="M167.665 29.7236C167.227 30.0696 166.684 30.3341 166.036 30.5173C165.407 30.6801 164.75 30.7615 164.064 30.7615C162.216 30.7615 160.797 30.2629 159.806 29.2658C158.816 28.2687 158.32 26.8035 158.32 24.8704V10H162.54V14.4617H166.35V18.1246H162.54V24.9222C162.54 25.6141 162.94 26.0404 163.264 26.4271C163.588 26.7934 164.055 26.9765 164.664 26.9765C165.35 26.9765 165.96 26.773 166.493 26.366L167.665 29.7236Z" fill="#333333"/>
<path d="M196.052 30.8134C194.456 30.8134 193.019 30.4628 191.738 29.7616C190.477 29.0403 189.484 28.0486 188.761 26.7863C188.056 25.5241 187.703 24.0916 187.703 22.4887C187.703 20.8859 188.056 19.4534 188.761 18.1912C189.484 16.9289 190.477 15.9472 191.738 15.246C193.019 14.5247 194.456 14.1641 196.052 14.1641C197.629 14.1641 199.002 14.5247 200.171 15.246C201.358 15.9472 202.221 16.959 202.759 18.2813L199.392 20.2348C198.612 18.7522 197.49 18.0108 196.024 18.0108C194.892 18.0108 193.956 18.4116 193.213 19.213C192.471 20.0144 192.1 21.1063 192.1 22.4887C192.1 23.8712 192.471 24.9631 193.213 25.7645C193.956 26.5659 194.892 26.9666 196.024 26.9666C197.508 26.9666 198.631 26.2253 199.392 24.7427L202.759 26.7262C202.221 28.0085 201.358 29.0102 200.171 29.7315C199.002 30.4528 197.629 30.8134 196.052 30.8134Z" fill="#333333"/>
<defs>
<linearGradient id="paint0_linear_3526_1841" x1="20.3826" y1="7" x2="4.2526" y2="51.2072" gradientUnits="userSpaceOnUse">
<stop offset="0.360361" stop-color="#CE023D"/>
<stop offset="0.972228" stop-color="#CE023D" stop-opacity="0.2"/>
</linearGradient>
<linearGradient id="paint1_linear_3526_1841" x1="14.1093" y1="7.5" x2="30.0689" y2="51.0982" gradientUnits="userSpaceOnUse">
<stop offset="0.352584" stop-color="#CE023D"/>
<stop offset="0.97887" stop-color="#CE023D" stop-opacity="0.2"/>
</linearGradient>
<linearGradient id="paint2_linear_3526_1841" x1="17.0123" y1="0.140625" x2="17.01" y2="43.034" gradientUnits="userSpaceOnUse">
<stop offset="0.144" stop-color="#CD013C"/>
<stop offset="0.774799" stop-color="#DE5D82"/>
</linearGradient>
<clipPath id="clip0_3526_1841">
<rect width="34" height="42" fill="white"/>
</clipPath>
</defs>
</svg>
