<svg width="94" height="32" viewBox="0 0 94 32" fill="none" xmlns="http://www.w3.org/2000/svg">
<g id="Allegro.pl_sklep 1">
<rect width="94" height="32" fill="white"/>
<path id="Vector" d="M90.7131 10.6822C89.9397 9.67218 88.9487 8.85474 87.8158 8.29239C86.6828 7.73004 85.438 7.43769 84.1764 7.43769C82.9149 7.43769 81.67 7.73004 80.5371 8.29239C79.4041 8.85474 78.4131 9.67218 77.6397 10.6822C76.6032 12.1808 76.0595 13.9724 76.0861 15.8022C76.0595 17.632 76.6032 19.4237 77.6397 20.9222C78.4131 21.9323 79.4041 22.7497 80.5371 23.3121C81.67 23.8744 82.9149 24.1668 84.1764 24.1668C85.438 24.1668 86.6828 23.8744 87.8158 23.3121C88.9487 22.7497 89.9397 21.9323 90.7131 20.9222C91.7492 19.4235 92.2928 17.632 92.2667 15.8022C92.2928 13.9725 91.7492 12.181 90.7131 10.6822ZM88.1237 17.7222C87.53 19.5206 86.1216 20.9222 84.1701 20.967C82.2186 21.0118 80.8102 19.5206 80.2228 17.7222C79.8027 16.4776 79.8027 15.1268 80.2228 13.8822C80.8165 12.0838 82.2249 10.6822 84.1701 10.6374C86.1153 10.5926 87.53 12.0838 88.1237 13.8822C88.5418 15.125 88.5418 16.4731 88.1237 17.7158V17.7222ZM28.5989 23.7382C28.5989 23.8638 28.5497 23.9843 28.462 24.0731C28.3744 24.1619 28.2555 24.2118 28.1315 24.2118H25.4158C25.2919 24.2118 25.173 24.1619 25.0854 24.0731C24.9977 23.9843 24.9485 23.8638 24.9485 23.7382V1.11422C24.9485 0.988618 24.9977 0.868156 25.0854 0.779339C25.173 0.690522 25.2919 0.640625 25.4158 0.640625H28.1315C28.2555 0.640625 28.3744 0.690522 28.462 0.779339C28.5497 0.868156 28.5989 0.988618 28.5989 1.11422V23.7382ZM22.2201 23.7382C22.2201 23.8638 22.1709 23.9843 22.0832 24.0731C21.9956 24.1619 21.8767 24.2118 21.7528 24.2118H19.037C18.9131 24.2118 18.7942 24.1619 18.7066 24.0731C18.6189 23.9843 18.5697 23.8638 18.5697 23.7382V1.11422C18.5697 0.989719 18.618 0.870217 18.7043 0.781582C18.7906 0.692946 18.9079 0.642308 19.0307 0.640625H21.7465C21.8704 0.640625 21.9893 0.690522 22.0769 0.779339C22.1646 0.868156 22.2138 0.988618 22.2138 1.11422V23.7382H22.2201ZM75.4735 8.37822V10.2982C75.4845 10.3811 75.4747 10.4654 75.4452 10.5435C75.4156 10.6215 75.3671 10.6908 75.3043 10.745C75.2414 10.7991 75.1661 10.8364 75.0854 10.8534C75.0046 10.8704 74.9209 10.8665 74.8419 10.8422C71.7725 10.2022 69.8841 11.5846 69.8841 14.4582V23.7382C69.8841 23.8638 69.8349 23.9843 69.7473 24.0731C69.6596 24.1619 69.5407 24.2118 69.4168 24.2118H66.7011C66.5771 24.2118 66.4583 24.1619 66.3706 24.0731C66.283 23.9843 66.2337 23.8638 66.2337 23.7382V14.2598C66.2174 13.3633 66.3872 12.4732 66.7321 11.6475C67.077 10.8217 67.5893 10.0785 68.2358 9.46622C69.5634 8.15089 71.3495 7.41953 73.2062 7.43102C73.8418 7.43275 74.4759 7.49273 75.1009 7.61022C75.423 7.71902 75.4735 7.91102 75.4735 8.40382V8.37822ZM63.8464 15.7958C63.8808 13.9649 63.3364 12.1708 62.2928 10.6758C61.5194 9.66578 60.5284 8.84834 59.3954 8.28599C58.2625 7.72364 57.0177 7.43129 55.7561 7.43129C54.4945 7.43129 53.2497 7.72364 52.1167 8.28599C50.9838 8.84834 49.9928 9.66578 49.2194 10.6758C48.193 12.1806 47.6432 13.9665 47.6432 15.7958C47.6432 17.6251 48.193 19.411 49.2194 20.9158C49.9803 21.9396 50.9688 22.767 52.1046 23.3308C53.2404 23.8946 54.4915 24.1789 55.7561 24.1606C57.4125 24.1661 59.0329 23.6715 60.4107 22.7398V24.7622C60.4107 27.5078 58.0424 28.007 56.5266 28.103C55.4836 28.138 54.4397 28.0801 53.4067 27.9302C52.9899 27.8662 52.6993 27.9302 52.6993 28.3846V30.8166C52.7018 30.8713 52.7148 30.9249 52.7377 30.9744C52.7606 31.024 52.793 31.0684 52.8328 31.1053C52.8727 31.1421 52.9194 31.1707 52.9702 31.1892C53.021 31.2078 53.0749 31.216 53.1288 31.2134C56.6466 31.5206 59.015 31.4566 60.796 30.4262C62.0437 29.6785 62.9698 28.4844 63.3917 27.079C63.7067 25.9948 63.8579 24.8684 63.8401 23.7382V15.7958H63.8464ZM55.7561 20.9542C53.8046 20.9542 52.3962 19.5078 51.8025 17.7094C51.3824 16.4648 51.3824 15.114 51.8025 13.8694C52.3962 12.071 53.8046 10.6246 55.7561 10.6246C60.1202 10.6246 60.2655 15.1366 60.2655 15.7894C60.2655 16.4422 60.1202 20.9542 55.7561 20.9542ZM16.0813 14.1382C16.0813 11.9558 15.6013 10.2982 14.5656 9.15262C13.5298 8.00702 11.4457 7.43742 9.51308 7.43742C7.5732 7.42973 5.66612 7.94434 3.98691 8.92862C3.93435 8.96012 3.89091 9.00511 3.86097 9.05904C3.83103 9.11297 3.81566 9.17395 3.81639 9.23582L3.96165 11.6422C3.97455 11.7171 4.00685 11.7871 4.05525 11.8452C4.10365 11.9032 4.1664 11.9472 4.23708 11.9726C4.30776 11.998 4.38384 12.0039 4.45751 11.9897C4.53118 11.9755 4.59981 11.9417 4.65637 11.8918C7.02472 10.4134 9.86676 10.1382 11.313 10.8806C11.7109 11.113 12.0388 11.4509 12.2613 11.858C12.4839 12.2651 12.5927 12.7259 12.5762 13.191V13.543H8.62889C6.92999 13.543 1.72591 14.183 1.72591 19.0278V19.079C1.68542 19.8163 1.817 20.5528 2.10999 21.2289C2.40297 21.905 2.8491 22.5016 3.41219 22.9702C4.64215 23.8482 6.12894 24.279 7.63102 24.1926H15.6203C15.7442 24.1926 15.8631 24.1427 15.9508 24.0539C16.0384 23.9651 16.0876 23.8446 16.0876 23.719V14.119L16.0813 14.1382ZM12.5762 21.2358H7.85839C7.25307 21.2182 6.66816 21.0102 6.18475 20.6406C5.93608 20.4637 5.73407 20.2276 5.59643 19.9531C5.45878 19.6786 5.38972 19.3741 5.39529 19.0662C5.39529 18.2022 5.97002 16.4742 8.84363 16.4742H12.5762V21.2358ZM38.5965 7.43742C33.7651 7.43742 31.6494 10.7206 30.9736 13.4982C30.7877 14.2474 30.6944 15.017 30.6957 15.7894C30.6696 17.6192 31.2132 19.4107 32.2493 20.9094C33.0236 21.9184 34.0148 22.7352 35.1476 23.2975C36.2803 23.8597 37.5247 24.1528 38.786 24.1542C41.3944 24.2502 43.1375 23.8022 44.4701 23.0342C44.6 22.9493 44.7004 22.8251 44.757 22.6793C44.8137 22.5335 44.8238 22.3734 44.7859 22.2214V20.0902C44.7859 19.655 44.5269 19.4502 44.1543 19.7126C42.5945 20.7256 40.7434 21.1765 38.8997 20.9926C37.8497 20.9786 36.8411 20.5758 36.0639 19.8602C35.2868 19.1446 34.7949 18.1656 34.6809 17.1078H45.4174C45.5336 17.1078 45.6451 17.0615 45.7278 16.9789C45.8105 16.8962 45.8578 16.7839 45.8595 16.6662C46.049 13.6902 45.1964 7.43742 38.5965 7.43742ZM34.7377 14.1638C34.7594 13.6739 34.8771 13.1932 35.0838 12.7498C35.2906 12.3063 35.5823 11.909 35.9419 11.5808C36.3016 11.2527 36.7221 11.0003 37.1789 10.8383C37.6357 10.6764 38.1198 10.6081 38.6029 10.6374C39.0652 10.6087 39.5283 10.6807 39.9609 10.8484C40.3936 11.0161 40.7858 11.2757 41.1112 11.6097C41.4367 11.9437 41.6878 12.3445 41.8478 12.785C42.0077 13.2256 42.0728 13.6957 42.0386 14.1638H34.7377Z" fill="#FF5A00"/>
</g>
</svg>
