<svg width="58" height="57" viewBox="0 0 58 57" fill="none" xmlns="http://www.w3.org/2000/svg">
<path d="M43.3551 23.5537V46.9048C43.3551 51.928 39.2968 56 34.2904 56H4.28217V51.9789" stroke="#101D2C" stroke-width="1.28427" stroke-linecap="round" stroke-linejoin="round"/>
<path d="M39.3476 9.88789V5.61169H29.4296" stroke="#101D2C" stroke-width="1.28427" stroke-linecap="round" stroke-linejoin="round"/>
<path d="M29.4296 5.61157H1V51.979H31.1644C32.5527 51.979 33.6782 50.8496 33.6782 49.4566V46.2905H36.8338C38.2221 46.2905 39.3476 45.1612 39.3476 43.7682V27.5748" stroke="#101D2C" stroke-width="1.28427" stroke-linecap="round" stroke-linejoin="round"/>
<path d="M29.22 23.6329L51.0608 1.72882C52.0293 0.757058 53.5994 0.757058 54.5679 1.72882L56.2736 3.44033C57.2421 4.4121 57.2421 5.98747 56.2736 6.95924L34.3697 28.937" stroke="#101D2C" stroke-width="1.28427" stroke-linecap="round" stroke-linejoin="round"/>
<path d="M34.4413 28.8679C34.0863 27.668 33.4369 26.537 32.4928 25.5896C31.5473 24.641 30.4179 23.989 29.2199 23.6328L27.2398 28.7952" stroke="#101D2C" stroke-width="1.28427" stroke-linecap="round" stroke-linejoin="round"/>
<path d="M53.3548 9.8879L48.1368 4.65234" stroke="#101D2C" stroke-width="1.28427" stroke-linecap="round" stroke-linejoin="round"/>
<path d="M17.0984 27.3933C17.5476 26.74 17.9184 26.0328 18.1923 25.2837C18.6804 23.948 18.8716 22.3971 18.031 21.1736C17.5425 20.4625 16.7178 20.0109 15.8641 20.1269C14.5188 20.3093 13.9411 21.6753 13.8217 22.9125C13.6186 25.0208 14.3819 27.2037 15.8538 28.723C16.8347 29.7354 18.1817 30.36 19.5853 30.7226C20.6106 30.9876 21.6713 31.0869 22.7298 31.0869H23.9735C25.9903 31.0869 27.9968 30.7996 29.933 30.2337L34.3697 28.937" stroke="#101D2C" stroke-width="1.28427" stroke-linecap="round" stroke-linejoin="round"/>
<path d="M8.37 31.8738C11.3067 31.9928 13.8674 30.8824 15.8535 28.7227" stroke="#101D2C" stroke-width="1.28427" stroke-linecap="round" stroke-linejoin="round"/>
<path fill-rule="evenodd" clip-rule="evenodd" d="M3.55981 28.06L3.77015 27.3361C6.23962 18.8462 12.2682 11.8542 20.2859 8.1803H3.55981V28.06Z" fill="#FF6666"/>
</svg>
