<svg width="46" height="57" viewBox="0 0 46 57" fill="none" xmlns="http://www.w3.org/2000/svg">
<path d="M23.1774 27.8093C23.4407 29.3706 23.6818 31.1591 23.6703 32.4319C23.6024 33.8952 23.2499 35.0206 22.3325 36.1457C21.7238 36.892 21.468 37.8648 21.5797 38.8205L21.6313 39.2625C21.671 39.602 21.8577 39.9068 22.1418 40.0978C22.2429 40.1659 22.3538 40.2177 22.4709 40.2516L27.8641 41.8124C28.5441 41.9614 29.2539 42.3315 29.9551 42.9065C31.0534 43.8111 31.8099 45.0745 32.0887 46.4623L33.3503 56" stroke="#101D2C" stroke-width="1.22419" stroke-linecap="round" stroke-linejoin="round"/>
<path d="M10.2372 36.8517C5.7523 37.6189 3.6908 34.0953 3.6908 34.0953C5.37856 33.8929 6.44411 32.9747 7.1396 31.6689C8.0934 29.8795 8.19533 27.9918 8.42661 26.0078C8.59076 24.6008 8.82655 23.1824 9.40702 21.8892C10.726 18.9516 14.0258 17.2051 17.1753 17.2051C20.3245 17.2051 23.6247 18.9516 24.9432 21.8892C25.5237 23.1824 25.7599 24.6008 25.924 26.0078C26.1553 27.9918 26.2573 29.8795 27.2106 31.6689C27.9061 32.9747 28.9721 33.8929 30.6599 34.0953C30.6599 34.0953 28.5984 37.6189 24.1135 36.8517" stroke="#101D2C" stroke-width="1.22419" stroke-linecap="round" stroke-linejoin="round"/>
<path d="M12.2085 40.0978L17.1752 43.7944L22.1419 40.0978" stroke="#101D2C" stroke-width="1.22419" stroke-linecap="round" stroke-linejoin="round"/>
<path d="M22.5923 52.3343H27.1983" stroke="#101D2C" stroke-width="1.22419" stroke-linecap="round" stroke-linejoin="round"/>
<path d="M1 56L2.26163 46.4623C2.5404 45.0741 3.29689 43.8111 4.39518 42.9064C5.09641 42.3315 5.80623 41.9614 6.48616 41.8124L11.8794 40.2516C11.9965 40.2177 12.1074 40.1659 12.2085 40.0977C12.4926 39.9068 12.6793 39.6015 12.719 39.2624L12.7706 38.8205C12.8823 37.8648 12.6265 36.892 12.0178 36.1456C11.1004 35.0206 10.7479 33.8952 10.68 32.4319C10.6669 30.9237 11.0071 28.6915 11.3198 26.9716C11.6039 25.4099 12.6474 24.0923 14.1042 23.452C15.2807 22.935 16.6754 23.2365 17.4896 24.2281C17.4953 24.2351 17.5011 24.242 17.5068 24.2494C18.0783 24.9525 18.5019 25.7735 19.134 26.4235C20.1615 27.4804 21.7236 27.9925 23.1796 27.7493" stroke="#101D2C" stroke-width="1.22419" stroke-linecap="round" stroke-linejoin="round"/>
<path d="M32.7883 7.78836L35.3779 10.0902L39.5697 4.98047" stroke="#101D2C" stroke-width="1.22419" stroke-linecap="round" stroke-linejoin="round"/>
<path fill-rule="evenodd" clip-rule="evenodd" d="M45 1.81898V13.5863C45 14.0389 44.632 14.4057 44.1784 14.4057H30.5019C30.2837 14.4057 30.0745 14.4922 29.9202 14.6461L27.3577 17.205V14.4057V1.81898C27.3577 1.36644 27.7257 1 28.1796 1H44.1784C44.632 1 45 1.36644 45 1.81898Z" stroke="#101D2C" stroke-width="1.22419" stroke-linecap="round" stroke-linejoin="round"/>
<path d="M17.1751 43.7944V56" stroke="#101D2C" stroke-width="1.22419" stroke-linecap="round" stroke-linejoin="round"/>
<path fill-rule="evenodd" clip-rule="evenodd" d="M17.1751 19.6536C14.954 19.6536 12.7664 20.8586 11.8142 22.5631C12.1482 22.3484 12.4905 22.1464 12.8523 21.9759C13.6931 21.5792 14.6109 21.323 15.541 21.316C16.4714 21.3091 17.415 21.5617 18.169 22.1052C18.9767 22.6879 19.5211 23.5583 20.2305 24.2565C21.1016 25.1139 22.238 25.6843 23.4382 25.9178C23.3052 24.8711 23.1116 23.8028 22.7014 22.8899C21.8593 21.0145 19.5359 19.6536 17.1751 19.6536Z" fill="#FF6666"/>
</svg>
