<svg width="42" height="57" viewBox="0 0 42 57" fill="none" xmlns="http://www.w3.org/2000/svg">
<path d="M21.0042 33.9603V30.1671" stroke="#101D2C" stroke-width="1.16977" stroke-linecap="round" stroke-linejoin="round"/>
<path d="M16.1204 35.1716L14.3655 31.0424" stroke="#101D2C" stroke-width="1.16977" stroke-linecap="round" stroke-linejoin="round"/>
<path d="M26.2369 35.1716L27.6343 31.3608" stroke="#101D2C" stroke-width="1.16977" stroke-linecap="round" stroke-linejoin="round"/>
<path d="M37.3839 34.851L37.2904 34.123C36.986 32.6132 36.1594 31.2391 34.96 30.2554C34.1939 29.6303 33.4188 29.2275 32.6759 29.0657L26.7849 27.368C26.6568 27.3313 26.5354 27.2748 26.425 27.2011C26.1147 26.9933 25.9112 26.6614 25.868 26.2922L25.5957 23.9784C27.2457 22.7072 28.4656 20.8071 29.0513 18.5881C30.103 18.4957 30.9111 17.3345 30.9111 15.8695C30.9111 14.5157 30.226 13.4208 29.2874 13.1873" stroke="#101D2C" stroke-width="1.16977" stroke-linecap="round" stroke-linejoin="round"/>
<path d="M12.663 13.2019C11.7507 13.4604 11.0903 14.5397 11.0903 15.8698C11.0903 17.3331 11.8937 18.4928 12.9443 18.5883C13.5332 20.805 14.7526 22.7055 16.401 23.9786L16.1315 26.292C16.0887 26.6613 15.8852 26.9935 15.5745 27.2013C15.4645 27.275 15.3431 27.3312 15.2154 27.3682L9.34406 29.0597C8.58309 29.2262 7.80601 29.6294 7.0415 30.2556C5.83777 31.2425 5.01079 32.6158 4.70947 34.1232L4.61597 34.8512" stroke="#101D2C" stroke-width="1.16977" stroke-linecap="round" stroke-linejoin="round"/>
<path d="M13.6764 8.16711C12.4349 9.97207 12.6628 13.2018 12.6628 13.2018" stroke="#101D2C" stroke-width="1.16977" stroke-linecap="round" stroke-linejoin="round"/>
<path d="M29.2872 13.1872C29.2872 13.1872 29.3799 11.3417 28.7552 9.26184" stroke="#101D2C" stroke-width="1.16977" stroke-linecap="round" stroke-linejoin="round"/>
<path d="M13.6764 8.16717C13.709 4.50307 16.822 2.41191 19.7308 2.03135C20.447 1.93776 22.8352 1.66092 24.4738 1L24.4884 1.02301C24.7032 1.36185 24.7398 1.78297 24.587 2.15339C26.3462 2.62286 27.7915 2.40606 29.2923 1.7818C29.3099 2.8459 29.3406 4.98735 28.9088 5.96138C28.4767 6.93541 27.6792 7.78778 26.6538 8.09855C25.9946 8.29819 25.287 8.2666 24.6039 8.17653C23.2284 7.996 21.8939 7.5897 20.5318 7.32884C19.1694 7.06798 17.7378 6.95685 16.4115 7.36159" stroke="#101D2C" stroke-width="1.16977" stroke-linecap="round" stroke-linejoin="round"/>
<path fill-rule="evenodd" clip-rule="evenodd" d="M39.1519 56H2.8479C2.8479 54.2368 4.28813 52.8077 6.06426 52.8077H35.9355C37.7117 52.8077 39.1519 54.2368 39.1519 56Z" stroke="#101D2C" stroke-width="1.16977" stroke-linecap="round" stroke-linejoin="round"/>
<path d="M37.0716 52.8074L40.9071 40.0027C41.3275 38.5993 40.2683 37.1906 38.7935 37.1906H21H3.20609C1.73168 37.1906 0.672525 38.5993 1.09289 40.0027L4.9284 52.8077" stroke="#101D2C" stroke-width="1.16977" stroke-linecap="round" stroke-linejoin="round"/>
<path d="M16.4011 23.9785L19.2073 25.4961C20.3274 26.1016 21.6804 26.1009 22.7997 25.4941L25.5957 23.9785" stroke="#101D2C" stroke-width="1.16977" stroke-linecap="round" stroke-linejoin="round"/>
<path fill-rule="evenodd" clip-rule="evenodd" d="M3.4104 39.53L6.29558 49.1631C6.81769 48.2316 7.23531 47.2427 7.52249 46.2145C7.76685 45.3407 7.96053 44.3791 8.64529 43.7782C9.38073 43.1329 10.4603 43.0998 11.4417 43.1286C14.7661 43.2261 18.1164 43.6386 21.4003 43.1173C24.3621 42.6471 27.175 41.3767 29.5263 39.53H20.9996H3.4104Z" fill="#FF6666"/>
</svg>
