<svg width="69" height="67" viewBox="0 0 69 67" fill="none" xmlns="http://www.w3.org/2000/svg">
<path d="M58.0818 49.0929H67.7005" stroke="#344154" stroke-width="1.63494" stroke-linecap="round" stroke-linejoin="round"/>
<path fill-rule="evenodd" clip-rule="evenodd" d="M33.7036 61.2204C33.7036 58.5805 31.5608 56.4409 28.9183 56.4409C26.2751 56.4409 24.1329 58.5805 24.1329 61.2204C24.1329 63.8603 26.2751 65.9999 28.9183 65.9999C31.5608 65.9999 33.7036 63.8603 33.7036 61.2204Z" stroke="#344154" stroke-width="1.63494" stroke-linecap="round" stroke-linejoin="round"/>
<path d="M22.1977 57.7844C21.3366 56.9539 20.1673 56.441 18.8758 56.441C16.2332 56.441 14.0905 58.5806 14.0905 61.2205C14.0905 63.8598 16.2332 66 18.8758 66C20.1673 66 21.3366 65.4866 22.1977 64.6566" stroke="#344154" stroke-width="1.63494" stroke-linecap="round" stroke-linejoin="round"/>
<path d="M10.1079 58.9221H4.38792C2.5169 58.9221 1 57.407 1 55.5383V50.4738H48.7086C50.7014 50.4738 52.3165 48.8607 52.3165 46.8709V31.5063H58.0818C60.8149 31.5063 63.7429 33.1293 64.8276 36.0716C66.9278 42.1514 68 49.059 68 55.4903V58.9221H62.3013" stroke="#344154" stroke-width="1.63494" stroke-linecap="round" stroke-linejoin="round"/>
<path fill-rule="evenodd" clip-rule="evenodd" d="M62.8903 61.2204C62.8903 58.5805 60.7475 56.4409 58.1044 56.4409C55.4618 56.4409 53.3191 58.5805 53.3191 61.2204C53.3191 63.8603 55.4618 65.9999 58.1044 65.9999C60.7475 65.9999 62.8903 63.8603 62.8903 61.2204Z" stroke="#344154" stroke-width="1.63494" stroke-linecap="round" stroke-linejoin="round"/>
<path d="M37.1826 58.922H49.7723" stroke="#344154" stroke-width="1.63494" stroke-linecap="round" stroke-linejoin="round"/>
<path d="M52.3164 31.5065V26.538" stroke="#344154" stroke-width="1.63494" stroke-linecap="round" stroke-linejoin="round"/>
<path d="M2.26074 45.9961H46.6371C47.3334 45.9961 47.8981 45.4326 47.8981 44.7372V15.0527" stroke="#344154" stroke-width="1.63494" stroke-linecap="round" stroke-linejoin="round"/>
<path d="M27.6053 42.42V26.0444H44.0009V42.42" stroke="#344154" stroke-width="1.63494" stroke-linecap="round" stroke-linejoin="round"/>
<path d="M17.0072 22.1513V5.77576H33.4028V22.1513" stroke="#344154" stroke-width="1.63494" stroke-linecap="round" stroke-linejoin="round"/>
<path d="M6.28345 42.42V26.0444H22.6791V42.42" stroke="#344154" stroke-width="1.63494" stroke-linecap="round" stroke-linejoin="round"/>
<path d="M41.9257 5.77579H60.3789" stroke="#344154" stroke-width="1.63494" stroke-linecap="round" stroke-linejoin="round"/>
<path d="M60.3788 1L65.199 5.81489L60.4568 10.5513" stroke="#344154" stroke-width="1.63494" stroke-linecap="round" stroke-linejoin="round"/>
<path fill-rule="evenodd" clip-rule="evenodd" d="M20.281 9.0459V17.7214C21.8203 17.1726 23.4769 16.8718 25.2049 16.8718C26.9324 16.8718 28.5896 17.1726 30.1288 17.7214V9.0459H20.281Z" fill="#FF6666"/>
<path fill-rule="evenodd" clip-rule="evenodd" d="M9.55725 29.0222V37.6977C11.0965 37.1489 12.7531 36.8481 14.4812 36.8481C16.2092 36.8481 17.8658 37.1489 19.4051 37.6977V29.0222H9.55725Z" fill="#FF6666"/>
<path fill-rule="evenodd" clip-rule="evenodd" d="M30.8793 29.0222V37.6977C32.4185 37.1489 34.0751 36.8481 35.8032 36.8481C37.5307 36.8481 39.1878 37.1489 40.7271 37.6977V29.0222H30.8793Z" fill="#FF6666"/>
</svg>
