<svg width="274" height="178" viewBox="0 0 274 178" fill="none" xmlns="http://www.w3.org/2000/svg">
<path opacity="0.125193" fill-rule="evenodd" clip-rule="evenodd" d="M10.3848 5.18834C10.3848 8.05378 8.06011 10.3767 5.19242 10.3767C2.32473 10.3767 0 8.05378 0 5.18834C0 2.3229 2.32473 0 5.19242 0C8.06011 0 10.3848 2.3229 10.3848 5.18834ZM5.19242 34.3229C8.06011 34.3229 10.3848 32 10.3848 29.1345C10.3848 26.2691 8.06011 23.9462 5.19242 23.9462C2.32473 23.9462 0 26.2691 0 29.1345C0 32 2.32473 34.3229 5.19242 34.3229ZM29.1574 34.3229C32.0251 34.3229 34.3499 32 34.3499 29.1345C34.3499 26.2691 32.0251 23.9462 29.1574 23.9462C26.2897 23.9462 23.965 26.2691 23.965 29.1345C23.965 32 26.2897 34.3229 29.1574 34.3229ZM58.3149 29.1345C58.3149 32 55.9901 34.3229 53.1225 34.3229C50.2548 34.3229 47.93 32 47.93 29.1345C47.93 26.2691 50.2548 23.9462 53.1225 23.9462C55.9901 23.9462 58.3149 26.2691 58.3149 29.1345ZM77.0875 34.3229C79.9552 34.3229 82.2799 32 82.2799 29.1345C82.2799 26.2691 79.9552 23.9462 77.0875 23.9462C74.2198 23.9462 71.895 26.2691 71.895 29.1345C71.895 32 74.2198 34.3229 77.0875 34.3229ZM106.245 29.1345C106.245 32 103.92 34.3229 101.052 34.3229C98.1848 34.3229 95.8601 32 95.8601 29.1345C95.8601 26.2691 98.1848 23.9462 101.052 23.9462C103.92 23.9462 106.245 26.2691 106.245 29.1345ZM125.017 34.3229C127.885 34.3229 130.21 32 130.21 29.1345C130.21 26.2691 127.885 23.9462 125.017 23.9462C122.15 23.9462 119.825 26.2691 119.825 29.1345C119.825 32 122.15 34.3229 125.017 34.3229ZM154.175 29.1345C154.175 32 151.85 34.3229 148.982 34.3229C146.115 34.3229 143.79 32 143.79 29.1345C143.79 26.2691 146.115 23.9462 148.982 23.9462C151.85 23.9462 154.175 26.2691 154.175 29.1345ZM172.948 34.3229C175.815 34.3229 178.14 32 178.14 29.1345C178.14 26.2691 175.815 23.9462 172.948 23.9462C170.08 23.9462 167.755 26.2691 167.755 29.1345C167.755 32 170.08 34.3229 172.948 34.3229ZM202.105 29.1345C202.105 32 199.78 34.3229 196.913 34.3229C194.045 34.3229 191.72 32 191.72 29.1345C191.72 26.2691 194.045 23.9462 196.913 23.9462C199.78 23.9462 202.105 26.2691 202.105 29.1345ZM220.878 34.3229C223.745 34.3229 226.07 32 226.07 29.1345C226.07 26.2691 223.745 23.9462 220.878 23.9462C218.01 23.9462 215.685 26.2691 215.685 29.1345C215.685 32 218.01 34.3229 220.878 34.3229ZM250.035 29.1345C250.035 32 247.71 34.3229 244.843 34.3229C241.975 34.3229 239.65 32 239.65 29.1345C239.65 26.2691 241.975 23.9462 244.843 23.9462C247.71 23.9462 250.035 26.2691 250.035 29.1345ZM268.808 34.3229C271.675 34.3229 274 32 274 29.1345C274 26.2691 271.675 23.9462 268.808 23.9462C265.94 23.9462 263.615 26.2691 263.615 29.1345C263.615 32 265.94 34.3229 268.808 34.3229ZM10.3848 53.0807C10.3848 55.9462 8.06011 58.2691 5.19242 58.2691C2.32473 58.2691 0 55.9462 0 53.0807C0 50.2153 2.32473 47.8924 5.19242 47.8924C8.06011 47.8924 10.3848 50.2153 10.3848 53.0807ZM34.3499 53.0807C34.3499 55.9462 32.0251 58.2691 29.1574 58.2691C26.2897 58.2691 23.965 55.9462 23.965 53.0807C23.965 50.2153 26.2897 47.8924 29.1574 47.8924C32.0251 47.8924 34.3499 50.2153 34.3499 53.0807ZM53.1225 58.2691C55.9901 58.2691 58.3149 55.9462 58.3149 53.0807C58.3149 50.2153 55.9901 47.8924 53.1225 47.8924C50.2548 47.8924 47.93 50.2153 47.93 53.0807C47.93 55.9462 50.2548 58.2691 53.1225 58.2691ZM82.2799 53.0807C82.2799 55.9462 79.9552 58.2691 77.0875 58.2691C74.2198 58.2691 71.895 55.9462 71.895 53.0807C71.895 50.2153 74.2198 47.8924 77.0875 47.8924C79.9552 47.8924 82.2799 50.2153 82.2799 53.0807ZM101.052 58.2691C103.92 58.2691 106.245 55.9462 106.245 53.0807C106.245 50.2153 103.92 47.8924 101.052 47.8924C98.1848 47.8924 95.8601 50.2153 95.8601 53.0807C95.8601 55.9462 98.1848 58.2691 101.052 58.2691ZM130.21 53.0807C130.21 55.9462 127.885 58.2691 125.017 58.2691C122.15 58.2691 119.825 55.9462 119.825 53.0807C119.825 50.2153 122.15 47.8924 125.017 47.8924C127.885 47.8924 130.21 50.2153 130.21 53.0807ZM148.982 58.2691C151.85 58.2691 154.175 55.9462 154.175 53.0807C154.175 50.2153 151.85 47.8924 148.982 47.8924C146.115 47.8924 143.79 50.2153 143.79 53.0807C143.79 55.9462 146.115 58.2691 148.982 58.2691ZM178.14 53.0807C178.14 55.9462 175.815 58.2691 172.948 58.2691C170.08 58.2691 167.755 55.9462 167.755 53.0807C167.755 50.2153 170.08 47.8924 172.948 47.8924C175.815 47.8924 178.14 50.2153 178.14 53.0807ZM196.913 58.2691C199.78 58.2691 202.105 55.9462 202.105 53.0807C202.105 50.2153 199.78 47.8924 196.913 47.8924C194.045 47.8924 191.72 50.2153 191.72 53.0807C191.72 55.9462 194.045 58.2691 196.913 58.2691ZM226.07 53.0807C226.07 55.9462 223.745 58.2691 220.878 58.2691C218.01 58.2691 215.685 55.9462 215.685 53.0807C215.685 50.2153 218.01 47.8924 220.878 47.8924C223.745 47.8924 226.07 50.2153 226.07 53.0807ZM244.843 58.2691C247.71 58.2691 250.035 55.9462 250.035 53.0807C250.035 50.2153 247.71 47.8924 244.843 47.8924C241.975 47.8924 239.65 50.2153 239.65 53.0807C239.65 55.9462 241.975 58.2691 244.843 58.2691ZM274 53.0807C274 55.9462 271.675 58.2691 268.808 58.2691C265.94 58.2691 263.615 55.9462 263.615 53.0807C263.615 50.2153 265.94 47.8924 268.808 47.8924C271.675 47.8924 274 50.2153 274 53.0807ZM34.3499 5.18834C34.3499 8.05378 32.0251 10.3767 29.1574 10.3767C26.2897 10.3767 23.965 8.05378 23.965 5.18834C23.965 2.3229 26.2897 0 29.1574 0C32.0251 0 34.3499 2.3229 34.3499 5.18834ZM10.3848 77.0269C10.3848 79.8923 8.06011 82.2152 5.19242 82.2152C2.32473 82.2152 0 79.8923 0 77.0269C0 74.1615 2.32473 71.8386 5.19242 71.8386C8.06011 71.8386 10.3848 74.1615 10.3848 77.0269ZM34.3499 77.0269C34.3499 79.8923 32.0251 82.2152 29.1574 82.2152C26.2897 82.2152 23.965 79.8923 23.965 77.0269C23.965 74.1615 26.2897 71.8386 29.1574 71.8386C32.0251 71.8386 34.3499 74.1615 34.3499 77.0269ZM53.1225 82.2152C55.9901 82.2152 58.3149 79.8923 58.3149 77.0269C58.3149 74.1615 55.9901 71.8386 53.1225 71.8386C50.2548 71.8386 47.93 74.1615 47.93 77.0269C47.93 79.8923 50.2548 82.2152 53.1225 82.2152ZM82.2799 77.0269C82.2799 79.8923 79.9552 82.2152 77.0875 82.2152C74.2198 82.2152 71.895 79.8923 71.895 77.0269C71.895 74.1615 74.2198 71.8386 77.0875 71.8386C79.9552 71.8386 82.2799 74.1615 82.2799 77.0269ZM101.052 82.2152C103.92 82.2152 106.245 79.8923 106.245 77.0269C106.245 74.1615 103.92 71.8386 101.052 71.8386C98.1848 71.8386 95.8601 74.1615 95.8601 77.0269C95.8601 79.8923 98.1848 82.2152 101.052 82.2152ZM130.21 77.0269C130.21 79.8923 127.885 82.2152 125.017 82.2152C122.15 82.2152 119.825 79.8923 119.825 77.0269C119.825 74.1615 122.15 71.8386 125.017 71.8386C127.885 71.8386 130.21 74.1615 130.21 77.0269ZM148.982 82.2152C151.85 82.2152 154.175 79.8923 154.175 77.0269C154.175 74.1615 151.85 71.8386 148.982 71.8386C146.115 71.8386 143.79 74.1615 143.79 77.0269C143.79 79.8923 146.115 82.2152 148.982 82.2152ZM178.14 77.0269C178.14 79.8923 175.815 82.2152 172.948 82.2152C170.08 82.2152 167.755 79.8923 167.755 77.0269C167.755 74.1615 170.08 71.8386 172.948 71.8386C175.815 71.8386 178.14 74.1615 178.14 77.0269ZM196.913 82.2152C199.78 82.2152 202.105 79.8923 202.105 77.0269C202.105 74.1615 199.78 71.8386 196.913 71.8386C194.045 71.8386 191.72 74.1615 191.72 77.0269C191.72 79.8923 194.045 82.2152 196.913 82.2152ZM226.07 77.0269C226.07 79.8923 223.745 82.2152 220.878 82.2152C218.01 82.2152 215.685 79.8923 215.685 77.0269C215.685 74.1615 218.01 71.8386 220.878 71.8386C223.745 71.8386 226.07 74.1615 226.07 77.0269ZM244.843 82.2152C247.71 82.2152 250.035 79.8923 250.035 77.0269C250.035 74.1615 247.71 71.8386 244.843 71.8386C241.975 71.8386 239.65 74.1615 239.65 77.0269C239.65 79.8923 241.975 82.2152 244.843 82.2152ZM274 77.0269C274 79.8923 271.675 82.2152 268.808 82.2152C265.94 82.2152 263.615 79.8923 263.615 77.0269C263.615 74.1615 265.94 71.8386 268.808 71.8386C271.675 71.8386 274 74.1615 274 77.0269ZM58.3149 5.18834C58.3149 8.05378 55.9901 10.3767 53.1225 10.3767C50.2548 10.3767 47.93 8.05378 47.93 5.18834C47.93 2.3229 50.2548 0 53.1225 0C55.9901 0 58.3149 2.3229 58.3149 5.18834ZM10.3848 100.973C10.3848 103.839 8.06011 106.161 5.19242 106.161C2.32473 106.161 0 103.839 0 100.973C0 98.1077 2.32473 95.7848 5.19242 95.7848C8.06011 95.7848 10.3848 98.1077 10.3848 100.973ZM34.3499 100.973C34.3499 103.839 32.0251 106.161 29.1574 106.161C26.2897 106.161 23.965 103.839 23.965 100.973C23.965 98.1077 26.2897 95.7848 29.1574 95.7848C32.0251 95.7848 34.3499 98.1077 34.3499 100.973ZM53.1225 106.161C55.9901 106.161 58.3149 103.839 58.3149 100.973C58.3149 98.1077 55.9901 95.7848 53.1225 95.7848C50.2548 95.7848 47.93 98.1077 47.93 100.973C47.93 103.839 50.2548 106.161 53.1225 106.161ZM82.2799 100.973C82.2799 103.839 79.9552 106.161 77.0875 106.161C74.2198 106.161 71.895 103.839 71.895 100.973C71.895 98.1077 74.2198 95.7848 77.0875 95.7848C79.9552 95.7848 82.2799 98.1077 82.2799 100.973ZM101.052 106.161C103.92 106.161 106.245 103.839 106.245 100.973C106.245 98.1077 103.92 95.7848 101.052 95.7848C98.1848 95.7848 95.8601 98.1077 95.8601 100.973C95.8601 103.839 98.1848 106.161 101.052 106.161ZM130.21 100.973C130.21 103.839 127.885 106.161 125.017 106.161C122.15 106.161 119.825 103.839 119.825 100.973C119.825 98.1077 122.15 95.7848 125.017 95.7848C127.885 95.7848 130.21 98.1077 130.21 100.973ZM148.982 106.161C151.85 106.161 154.175 103.839 154.175 100.973C154.175 98.1077 151.85 95.7848 148.982 95.7848C146.115 95.7848 143.79 98.1077 143.79 100.973C143.79 103.839 146.115 106.161 148.982 106.161ZM178.14 100.973C178.14 103.839 175.815 106.161 172.948 106.161C170.08 106.161 167.755 103.839 167.755 100.973C167.755 98.1077 170.08 95.7848 172.948 95.7848C175.815 95.7848 178.14 98.1077 178.14 100.973ZM196.913 106.161C199.78 106.161 202.105 103.839 202.105 100.973C202.105 98.1077 199.78 95.7848 196.913 95.7848C194.045 95.7848 191.72 98.1077 191.72 100.973C191.72 103.839 194.045 106.161 196.913 106.161ZM226.07 100.973C226.07 103.839 223.745 106.161 220.878 106.161C218.01 106.161 215.685 103.839 215.685 100.973C215.685 98.1077 218.01 95.7848 220.878 95.7848C223.745 95.7848 226.07 98.1077 226.07 100.973ZM244.843 106.161C247.71 106.161 250.035 103.839 250.035 100.973C250.035 98.1077 247.71 95.7848 244.843 95.7848C241.975 95.7848 239.65 98.1077 239.65 100.973C239.65 103.839 241.975 106.161 244.843 106.161ZM274 100.973C274 103.839 271.675 106.161 268.808 106.161C265.94 106.161 263.615 103.839 263.615 100.973C263.615 98.1077 265.94 95.7848 268.808 95.7848C271.675 95.7848 274 98.1077 274 100.973ZM82.2799 5.18834C82.2799 8.05378 79.9552 10.3767 77.0875 10.3767C74.2198 10.3767 71.895 8.05378 71.895 5.18834C71.895 2.3229 74.2198 0 77.0875 0C79.9552 0 82.2799 2.3229 82.2799 5.18834ZM10.3848 124.919C10.3848 127.785 8.06011 130.108 5.19242 130.108C2.32473 130.108 0 127.785 0 124.919C0 122.054 2.32473 119.731 5.19242 119.731C8.06011 119.731 10.3848 122.054 10.3848 124.919ZM34.3499 124.919C34.3499 127.785 32.0251 130.108 29.1574 130.108C26.2897 130.108 23.965 127.785 23.965 124.919C23.965 122.054 26.2897 119.731 29.1574 119.731C32.0251 119.731 34.3499 122.054 34.3499 124.919ZM53.1225 130.108C55.9901 130.108 58.3149 127.785 58.3149 124.919C58.3149 122.054 55.9901 119.731 53.1225 119.731C50.2548 119.731 47.93 122.054 47.93 124.919C47.93 127.785 50.2548 130.108 53.1225 130.108ZM82.2799 124.919C82.2799 127.785 79.9552 130.108 77.0875 130.108C74.2198 130.108 71.895 127.785 71.895 124.919C71.895 122.054 74.2198 119.731 77.0875 119.731C79.9552 119.731 82.2799 122.054 82.2799 124.919ZM101.052 130.108C103.92 130.108 106.245 127.785 106.245 124.919C106.245 122.054 103.92 119.731 101.052 119.731C98.1848 119.731 95.8601 122.054 95.8601 124.919C95.8601 127.785 98.1848 130.108 101.052 130.108ZM130.21 124.919C130.21 127.785 127.885 130.108 125.017 130.108C122.15 130.108 119.825 127.785 119.825 124.919C119.825 122.054 122.15 119.731 125.017 119.731C127.885 119.731 130.21 122.054 130.21 124.919ZM148.982 130.108C151.85 130.108 154.175 127.785 154.175 124.919C154.175 122.054 151.85 119.731 148.982 119.731C146.115 119.731 143.79 122.054 143.79 124.919C143.79 127.785 146.115 130.108 148.982 130.108ZM178.14 124.919C178.14 127.785 175.815 130.108 172.948 130.108C170.08 130.108 167.755 127.785 167.755 124.919C167.755 122.054 170.08 119.731 172.948 119.731C175.815 119.731 178.14 122.054 178.14 124.919ZM196.913 130.108C199.78 130.108 202.105 127.785 202.105 124.919C202.105 122.054 199.78 119.731 196.913 119.731C194.045 119.731 191.72 122.054 191.72 124.919C191.72 127.785 194.045 130.108 196.913 130.108ZM226.07 124.919C226.07 127.785 223.745 130.108 220.878 130.108C218.01 130.108 215.685 127.785 215.685 124.919C215.685 122.054 218.01 119.731 220.878 119.731C223.745 119.731 226.07 122.054 226.07 124.919ZM244.843 130.108C247.71 130.108 250.035 127.785 250.035 124.919C250.035 122.054 247.71 119.731 244.843 119.731C241.975 119.731 239.65 122.054 239.65 124.919C239.65 127.785 241.975 130.108 244.843 130.108ZM274 124.919C274 127.785 271.675 130.108 268.808 130.108C265.94 130.108 263.615 127.785 263.615 124.919C263.615 122.054 265.94 119.731 268.808 119.731C271.675 119.731 274 122.054 274 124.919ZM106.245 5.18834C106.245 8.05378 103.92 10.3767 101.052 10.3767C98.1848 10.3767 95.8601 8.05378 95.8601 5.18834C95.8601 2.3229 98.1848 0 101.052 0C103.92 0 106.245 2.3229 106.245 5.18834ZM10.3848 148.865C10.3848 151.731 8.06011 154.054 5.19242 154.054C2.32473 154.054 0 151.731 0 148.865C0 146 2.32473 143.677 5.19242 143.677C8.06011 143.677 10.3848 146 10.3848 148.865ZM34.3499 148.865C34.3499 151.731 32.0251 154.054 29.1574 154.054C26.2897 154.054 23.965 151.731 23.965 148.865C23.965 146 26.2897 143.677 29.1574 143.677C32.0251 143.677 34.3499 146 34.3499 148.865ZM53.1225 154.054C55.9901 154.054 58.3149 151.731 58.3149 148.865C58.3149 146 55.9901 143.677 53.1225 143.677C50.2548 143.677 47.93 146 47.93 148.865C47.93 151.731 50.2548 154.054 53.1225 154.054ZM82.2799 148.865C82.2799 151.731 79.9552 154.054 77.0875 154.054C74.2198 154.054 71.895 151.731 71.895 148.865C71.895 146 74.2198 143.677 77.0875 143.677C79.9552 143.677 82.2799 146 82.2799 148.865ZM101.052 154.054C103.92 154.054 106.245 151.731 106.245 148.865C106.245 146 103.92 143.677 101.052 143.677C98.1848 143.677 95.8601 146 95.8601 148.865C95.8601 151.731 98.1848 154.054 101.052 154.054ZM130.21 148.865C130.21 151.731 127.885 154.054 125.017 154.054C122.15 154.054 119.825 151.731 119.825 148.865C119.825 146 122.15 143.677 125.017 143.677C127.885 143.677 130.21 146 130.21 148.865ZM148.982 154.054C151.85 154.054 154.175 151.731 154.175 148.865C154.175 146 151.85 143.677 148.982 143.677C146.115 143.677 143.79 146 143.79 148.865C143.79 151.731 146.115 154.054 148.982 154.054ZM178.14 148.865C178.14 151.731 175.815 154.054 172.948 154.054C170.08 154.054 167.755 151.731 167.755 148.865C167.755 146 170.08 143.677 172.948 143.677C175.815 143.677 178.14 146 178.14 148.865ZM196.913 154.054C199.78 154.054 202.105 151.731 202.105 148.865C202.105 146 199.78 143.677 196.913 143.677C194.045 143.677 191.72 146 191.72 148.865C191.72 151.731 194.045 154.054 196.913 154.054ZM226.07 148.865C226.07 151.731 223.745 154.054 220.878 154.054C218.01 154.054 215.685 151.731 215.685 148.865C215.685 146 218.01 143.677 220.878 143.677C223.745 143.677 226.07 146 226.07 148.865ZM244.843 154.054C247.71 154.054 250.035 151.731 250.035 148.865C250.035 146 247.71 143.677 244.843 143.677C241.975 143.677 239.65 146 239.65 148.865C239.65 151.731 241.975 154.054 244.843 154.054ZM274 148.865C274 151.731 271.675 154.054 268.808 154.054C265.94 154.054 263.615 151.731 263.615 148.865C263.615 146 265.94 143.677 268.808 143.677C271.675 143.677 274 146 274 148.865ZM130.21 5.18834C130.21 8.05378 127.885 10.3767 125.017 10.3767C122.15 10.3767 119.825 8.05378 119.825 5.18834C119.825 2.3229 122.15 0 125.017 0C127.885 0 130.21 2.3229 130.21 5.18834ZM10.3848 172.812C10.3848 175.677 8.06011 178 5.19242 178C2.32473 178 0 175.677 0 172.812C0 169.946 2.32473 167.623 5.19242 167.623C8.06011 167.623 10.3848 169.946 10.3848 172.812ZM34.3499 172.812C34.3499 175.677 32.0251 178 29.1574 178C26.2897 178 23.965 175.677 23.965 172.812C23.965 169.946 26.2897 167.623 29.1574 167.623C32.0251 167.623 34.3499 169.946 34.3499 172.812ZM53.1225 178C55.9901 178 58.3149 175.677 58.3149 172.812C58.3149 169.946 55.9901 167.623 53.1225 167.623C50.2548 167.623 47.93 169.946 47.93 172.812C47.93 175.677 50.2548 178 53.1225 178ZM82.2799 172.812C82.2799 175.677 79.9552 178 77.0875 178C74.2198 178 71.895 175.677 71.895 172.812C71.895 169.946 74.2198 167.623 77.0875 167.623C79.9552 167.623 82.2799 169.946 82.2799 172.812ZM101.052 178C103.92 178 106.245 175.677 106.245 172.812C106.245 169.946 103.92 167.623 101.052 167.623C98.1848 167.623 95.8601 169.946 95.8601 172.812C95.8601 175.677 98.1848 178 101.052 178ZM130.21 172.812C130.21 175.677 127.885 178 125.017 178C122.15 178 119.825 175.677 119.825 172.812C119.825 169.946 122.15 167.623 125.017 167.623C127.885 167.623 130.21 169.946 130.21 172.812ZM148.982 178C151.85 178 154.175 175.677 154.175 172.812C154.175 169.946 151.85 167.623 148.982 167.623C146.115 167.623 143.79 169.946 143.79 172.812C143.79 175.677 146.115 178 148.982 178ZM178.14 172.812C178.14 175.677 175.815 178 172.948 178C170.08 178 167.755 175.677 167.755 172.812C167.755 169.946 170.08 167.623 172.948 167.623C175.815 167.623 178.14 169.946 178.14 172.812ZM196.913 178C199.78 178 202.105 175.677 202.105 172.812C202.105 169.946 199.78 167.623 196.913 167.623C194.045 167.623 191.72 169.946 191.72 172.812C191.72 175.677 194.045 178 196.913 178ZM226.07 172.812C226.07 175.677 223.745 178 220.878 178C218.01 178 215.685 175.677 215.685 172.812C215.685 169.946 218.01 167.623 220.878 167.623C223.745 167.623 226.07 169.946 226.07 172.812ZM244.843 178C247.71 178 250.035 175.677 250.035 172.812C250.035 169.946 247.71 167.623 244.843 167.623C241.975 167.623 239.65 169.946 239.65 172.812C239.65 175.677 241.975 178 244.843 178ZM274 172.812C274 175.677 271.675 178 268.808 178C265.94 178 263.615 175.677 263.615 172.812C263.615 169.946 265.94 167.623 268.808 167.623C271.675 167.623 274 169.946 274 172.812ZM154.175 5.18834C154.175 8.05378 151.85 10.3767 148.982 10.3767C146.115 10.3767 143.79 8.05378 143.79 5.18834C143.79 2.3229 146.115 0 148.982 0C151.85 0 154.175 2.3229 154.175 5.18834ZM172.948 10.3767C175.815 10.3767 178.14 8.05378 178.14 5.18834C178.14 2.3229 175.815 0 172.948 0C170.08 0 167.755 2.3229 167.755 5.18834C167.755 8.05378 170.08 10.3767 172.948 10.3767ZM202.105 5.18834C202.105 8.05378 199.78 10.3767 196.913 10.3767C194.045 10.3767 191.72 8.05378 191.72 5.18834C191.72 2.3229 194.045 0 196.913 0C199.78 0 202.105 2.3229 202.105 5.18834ZM220.878 10.3767C223.745 10.3767 226.07 8.05378 226.07 5.18834C226.07 2.3229 223.745 0 220.878 0C218.01 0 215.685 2.3229 215.685 5.18834C215.685 8.05378 218.01 10.3767 220.878 10.3767ZM250.035 5.18834C250.035 8.05378 247.71 10.3767 244.843 10.3767C241.975 10.3767 239.65 8.05378 239.65 5.18834C239.65 2.3229 241.975 0 244.843 0C247.71 0 250.035 2.3229 250.035 5.18834ZM268.808 10.3767C271.675 10.3767 274 8.05378 274 5.18834C274 2.3229 271.675 0 268.808 0C265.94 0 263.615 2.3229 263.615 5.18834C263.615 8.05378 265.94 10.3767 268.808 10.3767Z" fill="#AFBCD0"/>
</svg>
