<svg width="55" height="69" viewBox="0 0 55 69" fill="none" xmlns="http://www.w3.org/2000/svg">
<path d="M27.4999 67.5319L7.43079 60.4593V46.4885" stroke="#344154" stroke-width="1.3078" stroke-linecap="round" stroke-linejoin="round"/>
<path d="M7.43091 34.5667L27.5 41.6392" stroke="#344154" stroke-width="1.3078" stroke-linecap="round" stroke-linejoin="round"/>
<path d="M27.4999 47.0337V67.5317L47.569 60.4596V46.4888" stroke="#344154" stroke-width="1.3078" stroke-linecap="round" stroke-linejoin="round"/>
<path d="M47.569 34.5667L27.4999 41.6392" stroke="#344154" stroke-width="1.3078" stroke-linecap="round" stroke-linejoin="round"/>
<path d="M33.6377 30.9885L47.5693 34.5667L54.0001 41.0198L34.3488 48.3522L27.5001 41.6393" stroke="#344154" stroke-width="1.3078" stroke-linecap="round" stroke-linejoin="round"/>
<path d="M27.4999 41.6393L20.6508 48.3523L1 41.0199L7.4308 34.5667L21.3602 30.989" stroke="#344154" stroke-width="1.3078" stroke-linecap="round" stroke-linejoin="round"/>
<path fill-rule="evenodd" clip-rule="evenodd" d="M22.5314 63.0089C22.4888 62.9051 22.4524 62.7987 22.4067 62.6963C21.4727 60.5973 19.8762 58.8003 17.9048 57.6299C17.0094 57.098 16.0072 56.6647 15.3751 55.836C14.6536 54.89 14.5575 53.6184 14.1036 52.5181C13.3911 50.7918 11.8107 49.5825 10.0374 48.9421V58.6059L22.5314 63.0089Z" fill="#FF6666"/>
<path fill-rule="evenodd" clip-rule="evenodd" d="M32.6276 63.0089C32.6701 62.9051 32.7066 62.7987 32.7522 62.6963C33.6863 60.5973 35.2828 58.8003 37.2542 57.6299C38.1495 57.098 39.1518 56.6647 39.7838 55.836C40.5054 54.89 40.6014 53.6184 41.0554 52.5181C41.7679 50.7918 43.3483 49.5825 45.1216 48.9421V58.6059L32.6276 63.0089Z" fill="#FF6666"/>
<path fill-rule="evenodd" clip-rule="evenodd" d="M41.8229 6.94059C41.8299 6.9472 41.8368 6.95403 41.8435 6.961C42.06 7.18643 42.0507 7.54267 41.8229 7.75678L37.0884 12.4907V25.4371C37.0884 25.748 36.8336 26 36.5194 26H18.4806C18.1664 26 17.9116 25.748 17.9116 25.4371V12.4907L13.1771 7.75678C13.1701 7.75017 13.1632 7.74334 13.1565 7.73637C12.94 7.51101 12.9493 7.1547 13.1771 6.94059L19.1236 1.69447C19.1783 1.64522 19.242 1.60701 19.3114 1.58189L23.6362 0.033947C23.6872 0.016216 23.7405 0.00580259 23.7944 0.00291779C24.1082 -0.0136874 24.3762 0.224485 24.393 0.534918C24.3987 0.658753 24.5808 3.5126 27.4829 3.55763C30.368 3.5126 30.5558 0.658753 30.5558 0.534918C30.5586 0.47891 30.5699 0.423677 30.5892 0.370977C30.6965 0.078767 31.0229 -0.0721575 31.3183 0.033947L35.6487 1.565C35.7182 1.59012 35.7819 1.62833 35.8365 1.67758L41.8229 6.94059ZM37.0714 8.27464V10.8864L40.5653 7.38527L35.1651 2.58946L31.6028 1.31733C31.2769 2.97835 29.964 4.27707 28.2848 4.59947C26.011 5.03599 23.81 3.5665 23.3687 1.31733L19.8065 2.58946L14.3892 7.38527L17.8888 10.8921V8.27464C17.8888 7.96378 18.1436 7.71175 18.4579 7.71175C18.7721 7.71175 19.0269 7.96378 19.0269 8.27464V24.8461H35.9333V8.27464C35.9333 7.96378 36.1881 7.71175 36.5023 7.71175C36.8166 7.71175 37.0714 7.96378 37.0714 8.27464Z" fill="black"/>
</svg>
