<svg width="44" height="61" viewBox="0 0 44 61" fill="none" xmlns="http://www.w3.org/2000/svg">
<path d="M42.327 60V20.0288C42.327 18.5072 41.0855 17.2737 39.5539 17.2737H4.44618C2.91465 17.2737 1.6731 18.5072 1.6731 20.0288V60" stroke="#344154" stroke-width="1.35639" stroke-linecap="round" stroke-linejoin="round"/>
<path d="M12.083 60V52.8508C12.083 52.0236 12.758 51.353 13.5905 51.353H29.7932C30.6257 51.353 31.3007 52.0236 31.3007 52.8508V60" stroke="#344154" stroke-width="1.35639" stroke-linecap="round" stroke-linejoin="round"/>
<path d="M21.6918 51.353V60" stroke="#344154" stroke-width="1.35639" stroke-linecap="round" stroke-linejoin="round"/>
<path fill-rule="evenodd" clip-rule="evenodd" d="M13.6954 27.9721H9.85307C9.44841 27.9721 9.12048 27.6463 9.12048 27.2445V23.4268C9.12048 23.025 9.44841 22.6992 9.85307 22.6992H13.6954C14.0998 22.6992 14.4277 23.025 14.4277 23.4268V27.2445C14.4277 27.6463 14.0998 27.9721 13.6954 27.9721Z" fill="#0A0E28"/>
<path fill-rule="evenodd" clip-rule="evenodd" d="M23.9212 27.9721H20.0789C19.6742 27.9721 19.3463 27.6463 19.3463 27.2445V23.4268C19.3463 23.025 19.6742 22.6992 20.0789 22.6992H23.9212C24.3256 22.6992 24.6536 23.025 24.6536 23.4268V27.2445C24.6536 27.6463 24.3256 27.9721 23.9212 27.9721Z" fill="#0A0E28"/>
<path fill-rule="evenodd" clip-rule="evenodd" d="M34.1472 27.9721H30.3049C29.9002 27.9721 29.5723 27.6463 29.5723 27.2445V23.4268C29.5723 23.025 29.9002 22.6992 30.3049 22.6992H34.1472C34.5516 22.6992 34.8795 23.025 34.8795 23.4268V27.2445C34.8795 27.6463 34.5516 27.9721 34.1472 27.9721Z" fill="#0A0E28"/>
<path fill-rule="evenodd" clip-rule="evenodd" d="M13.6954 37.3549H9.85307C9.44841 37.3549 9.12048 37.0291 9.12048 36.6273V32.8096C9.12048 32.4078 9.44841 32.082 9.85307 32.082H13.6954C14.0998 32.082 14.4277 32.4078 14.4277 32.8096V36.6273C14.4277 37.0291 14.0998 37.3549 13.6954 37.3549Z" fill="#0A0E28"/>
<path fill-rule="evenodd" clip-rule="evenodd" d="M23.9212 37.3549H20.0789C19.6742 37.3549 19.3463 37.0291 19.3463 36.6273V32.8096C19.3463 32.4078 19.6742 32.082 20.0789 32.082H23.9212C24.3256 32.082 24.6536 32.4078 24.6536 32.8096V36.6273C24.6536 37.0291 24.3256 37.3549 23.9212 37.3549Z" fill="#0A0E28"/>
<path fill-rule="evenodd" clip-rule="evenodd" d="M34.1472 37.3549H30.3049C29.9002 37.3549 29.5723 37.0291 29.5723 36.6273V32.8096C29.5723 32.4078 29.9002 32.082 30.3049 32.082H34.1472C34.5516 32.082 34.8795 32.4078 34.8795 32.8096V36.6273C34.8795 37.0291 34.5516 37.3549 34.1472 37.3549Z" fill="#0A0E28"/>
<path fill-rule="evenodd" clip-rule="evenodd" d="M13.6954 46.7374H9.85307C9.44841 46.7374 9.12048 46.4116 9.12048 46.0099V42.1922C9.12048 41.7904 9.44841 41.4646 9.85307 41.4646H13.6954C14.0998 41.4646 14.4277 41.7904 14.4277 42.1922V46.0099C14.4277 46.4116 14.0998 46.7374 13.6954 46.7374Z" fill="#0A0E28"/>
<path fill-rule="evenodd" clip-rule="evenodd" d="M23.9212 46.7374H20.0789C19.6742 46.7374 19.3463 46.4116 19.3463 46.0099V42.1922C19.3463 41.7904 19.6742 41.4646 20.0789 41.4646H23.9212C24.3256 41.4646 24.6536 41.7904 24.6536 42.1922V46.0099C24.6536 46.4116 24.3256 46.7374 23.9212 46.7374Z" fill="#0A0E28"/>
<path fill-rule="evenodd" clip-rule="evenodd" d="M34.1472 46.7374H30.3049C29.9002 46.7374 29.5723 46.4116 29.5723 46.0099V42.1922C29.5723 41.7904 29.9002 41.4646 30.3049 41.4646H34.1472C34.5516 41.4646 34.8795 41.7904 34.8795 42.1922V46.0099C34.8795 46.4116 34.5516 46.7374 34.1472 46.7374Z" fill="#0A0E28"/>
<path fill-rule="evenodd" clip-rule="evenodd" d="M22 0L23.306 2.62923C23.7898 3.60339 24.7253 4.2786 25.8071 4.43459L28.7276 4.85615L26.6145 6.90268C25.8314 7.6609 25.4743 8.75334 25.6591 9.82408L26.158 12.7137L23.5457 11.3495C22.578 10.8441 21.4219 10.8441 20.4543 11.3495L17.842 12.7137L18.3409 9.82408C18.5257 8.75334 18.1686 7.6609 17.3857 6.90268L15.2723 4.85615L18.1929 4.43459C19.2747 4.2786 20.2101 3.60339 20.694 2.62923L22 0Z" fill="#FF6666"/>
<path fill-rule="evenodd" clip-rule="evenodd" d="M38.2803 3.79443L39.1967 5.63886C39.5361 6.32221 40.1922 6.79586 40.9513 6.90545L43 7.20142L41.5176 8.63702C40.9682 9.169 40.7175 9.93536 40.8472 10.6865L41.1973 12.7138L39.3649 11.7565C38.6858 11.4022 37.8748 11.4022 37.1958 11.7565L35.3633 12.7138L35.7134 10.6865C35.8431 9.93536 35.5924 9.169 35.043 8.63702L33.5607 7.20142L35.6094 6.90545C36.3684 6.79586 37.0246 6.32221 37.364 5.63886L38.2803 3.79443Z" fill="#FF6666"/>
<path fill-rule="evenodd" clip-rule="evenodd" d="M5.71964 3.79443L6.63599 5.63886C6.97539 6.32221 7.63153 6.79586 8.3906 6.90545L10.4393 7.20142L8.95691 8.63702C8.40753 9.169 8.15688 9.93536 8.28685 10.6865L8.63662 12.7138L6.80419 11.7565C6.12512 11.4022 5.31417 11.4022 4.6351 11.7565L2.80267 12.7138L3.15271 10.6865C3.28241 9.93536 3.03175 9.169 2.48238 8.63702L1 7.20142L3.04868 6.90545C3.80776 6.79586 4.46389 6.32221 4.80357 5.63886L5.71964 3.79443Z" fill="#FF6666"/>
</svg>
