<svg width="58" height="48" viewBox="0 0 58 48" fill="none" xmlns="http://www.w3.org/2000/svg">
<path d="M19.8596 6.34727C19.8596 6.34727 18.2254 3.36179 21.7077 2.89087C21.7077 2.89087 22.4321 4.77411 25.3024 5.0842C26.9752 5.26509 27.9256 7.13719 27.062 8.56912C27.0503 8.58872 27.0377 8.60833 27.0256 8.62748" stroke="#344154" stroke-width="1.35" stroke-linecap="round"/>
<path d="M21.7077 2.89108C21.7077 2.89108 21.7019 2.87148 21.6947 2.83539C21.4642 1.70554 22.5542 0.737404 23.669 1.06442C24.5794 1.33174 25.9754 1.53935 27.7624 1.19362C28.6418 1.02388 29.5566 1.19674 30.3016 1.6895C31.473 2.46427 33.2178 3.81021 34.741 5.75939" stroke="#344154" stroke-width="1.35" stroke-linecap="round"/>
<path d="M27.387 7.0976L34.8849 5.93923C35.6547 5.82072 36.4396 5.84701 37.199 6.01765L38.534 6.31749C40.1498 6.68015 40.915 8.56295 39.9516 9.89997C39.939 9.91779 39.9255 9.93606 39.9121 9.95433C39.9121 9.95433 41.9381 10.8017 41.2416 13.5016C41.2416 13.5016 43.0142 14.6315 41.9381 16.7976C41.9381 16.7976 43.7741 17.8335 43.2048 19.9052C39.9916 22.3747 36.525 24.5026 32.863 26.2535L31.2795 27.0105L25.0886 27.6048C23.4162 27.7656 21.7825 28.2009 20.2543 28.8933L10.2998 35.3187" stroke="#344154" stroke-width="1.35" stroke-linecap="round"/>
<path d="M17.7839 13.3379C17.7839 13.3379 16.2863 13.7683 16.4206 15.1253C16.4957 15.8778 17.0798 16.4855 17.8145 16.6883L20.0503 17.3053C21.0541 17.582 22.1523 17.013 22.3725 16.003C22.4623 15.5896 22.4084 15.1178 22.0714 14.6134" stroke="#344154" stroke-width="1.35" stroke-linecap="round"/>
<path d="M17.6076 16.616L10.2997 21.977" stroke="#344154" stroke-width="1.35" stroke-linecap="round"/>
<path d="M31.2795 27.0103C31.2795 27.0103 41.9381 32.9327 47.6999 35.4441" stroke="#344154" stroke-width="1.35" stroke-linecap="round"/>
<path d="M43.2046 19.9053L47.067 21.8968" stroke="#344154" stroke-width="1.35" stroke-linecap="round"/>
<path d="M39.9119 9.95429L35.0681 10.3936" stroke="#344154" stroke-width="1.35" stroke-linecap="round"/>
<path d="M41.2414 13.5015L36.0099 14.7984" stroke="#344154" stroke-width="1.35" stroke-linecap="round"/>
<path d="M41.9381 16.7976L37.4897 19.1518" stroke="#344154" stroke-width="1.35" stroke-linecap="round"/>
<path d="M5.2341 22.8874L10.2994 20.282V37.3591L4.88586 40.247" stroke="#344154" stroke-width="1.35" stroke-linejoin="round"/>
<mask id="mask0_0_881" style="mask-type:luminance" maskUnits="userSpaceOnUse" x="0" y="21" width="7" height="27">
<path fill-rule="evenodd" clip-rule="evenodd" d="M0 21.0452H6.07855V48H0V21.0452Z" fill="white"/>
</mask>
<g mask="url(#mask0_0_881)">
<path fill-rule="evenodd" clip-rule="evenodd" d="M6.07855 22.5463V43.4861C6.07855 44.0088 5.80356 44.4939 5.35333 44.7661L0 48.0002V23.5051L3.7919 21.2597C4.7993 20.6627 6.07855 21.3826 6.07855 22.5463Z" fill="#FF6666"/>
</g>
<path d="M52.7655 22.8874L47.7002 20.282V37.3591L53.1142 40.247" stroke="#344154" stroke-width="1.35" stroke-linejoin="round"/>
<mask id="mask1_0_881" style="mask-type:luminance" maskUnits="userSpaceOnUse" x="51" y="21" width="7" height="27">
<path fill-rule="evenodd" clip-rule="evenodd" d="M51.9216 21.0452H58V48H51.9216V21.0452Z" fill="white"/>
</mask>
<g mask="url(#mask1_0_881)">
<path fill-rule="evenodd" clip-rule="evenodd" d="M51.9216 22.5463V43.4861C51.9216 44.0088 52.1966 44.4939 52.6469 44.7661L58.0002 48.0002V23.5051L54.2083 21.2597C53.2009 20.6627 51.9216 21.3826 51.9216 22.5463Z" fill="#FF6666"/>
</g>
<path d="M23.3411 11.5276L25.3146 12.0832C26.3521 12.3755 27.4337 11.7878 27.7437 10.764C28.0497 9.75267 27.4916 8.68295 26.482 8.34658L20.828 6.46333C20.1181 6.22721 19.3142 6.3172 18.7319 6.78367C18.3653 7.07727 18.0435 7.52013 17.9483 8.18619C17.8175 9.10264 18.3981 9.97587 19.2877 10.2548L25.1618 12.0997L24.7574 13.3129C24.3894 14.4178 23.1762 15.0054 22.0713 14.6134L21.7393 14.4958L17.592 13.2817C16.6996 12.9471 16.2889 11.6319 16.674 10.7667C16.8964 10.2677 17.4001 9.83375 18.4439 9.72371" stroke="#344154" stroke-width="1.35"/>
</svg>
