<svg width="17" height="18" viewBox="0 0 17 18" fill="none" xmlns="http://www.w3.org/2000/svg">
<path fill-rule="evenodd" clip-rule="evenodd" d="M13.8166 9.8883C14.0244 8.33664 13.6838 6.92783 12.7947 5.66188C11.9057 4.39593 10.6944 3.59494 9.16095 3.25892L9.36298 2.11316C10.2904 2.30294 11.1275 2.65072 11.8741 3.15648C12.6208 3.66224 13.2466 4.27468 13.7517 4.9938C14.2567 5.71292 14.6198 6.50876 14.8411 7.38131C15.0624 8.25386 15.1039 9.15705 14.9656 10.0909L13.8166 9.8883ZM10.5613 9.3143C10.6097 8.66651 10.4492 8.08362 10.0798 7.56563C9.71047 7.04764 9.21225 6.70054 8.58517 6.52433L8.7872 5.37857C9.73343 5.61105 10.4833 6.11738 11.0368 6.89755C11.5903 7.67772 11.8147 8.55083 11.7102 9.51689L10.5613 9.3143ZM8.48394 14.9928C9.88756 16.0278 11.3681 16.6827 12.9256 16.9573C13.1681 17.0001 13.387 16.9533 13.5821 16.8171C13.7772 16.6809 13.8961 16.4918 13.9388 16.2499L14.3933 13.672C14.4293 13.4683 14.3969 13.2788 14.2961 13.1035C14.1954 12.9282 14.0527 12.8046 13.8679 12.7327L11.6767 11.8344C11.5175 11.7669 11.3499 11.7472 11.1738 11.7752C10.9977 11.8032 10.8335 11.876 10.6812 11.9936L8.53205 13.5442C7.51639 12.735 6.64238 11.813 5.91003 10.7782C5.17768 9.74331 4.55844 8.57087 4.0523 7.26086L6.30729 5.66982C6.42737 5.58598 6.51628 5.47367 6.57401 5.3329C6.63174 5.19212 6.66355 5.03037 6.66945 4.84764L6.57668 2.35038C6.5743 2.13994 6.51675 1.96243 6.40403 1.81785C6.29131 1.67327 6.14559 1.58523 5.96687 1.55371L3.286 1.081C3.04345 1.03823 2.8246 1.08497 2.62946 1.2212C2.43432 1.35744 2.31543 1.5465 2.27277 1.78838C1.99891 3.34152 2.10972 4.95264 2.60519 6.62175C3.10065 8.29085 3.85341 9.84453 4.86345 11.2828C5.87349 12.721 7.08032 13.9577 8.48394 14.9928Z" fill="black"/>
</svg>
