<svg width="55" height="63" viewBox="0 0 55 63" fill="none" xmlns="http://www.w3.org/2000/svg">
<path d="M27.4999 61.5319L7.43079 54.4593V40.4885" stroke="#344154" stroke-width="1.3078" stroke-linecap="round" stroke-linejoin="round"/>
<path d="M7.43091 28.5667L27.5 35.6392" stroke="#344154" stroke-width="1.3078" stroke-linecap="round" stroke-linejoin="round"/>
<path d="M27.4999 41.0337V61.5317L47.569 54.4596V40.4888" stroke="#344154" stroke-width="1.3078" stroke-linecap="round" stroke-linejoin="round"/>
<path d="M47.569 28.5667L27.4999 35.6392" stroke="#344154" stroke-width="1.3078" stroke-linecap="round" stroke-linejoin="round"/>
<path d="M33.6377 24.9885L47.5693 28.5667L54.0001 35.0198L34.3488 42.3522L27.5001 35.6393" stroke="#344154" stroke-width="1.3078" stroke-linecap="round" stroke-linejoin="round"/>
<path d="M27.4999 35.6393L20.6508 42.3523L1 35.0199L7.4308 28.5667L21.3602 24.989" stroke="#344154" stroke-width="1.3078" stroke-linecap="round" stroke-linejoin="round"/>
<path fill-rule="evenodd" clip-rule="evenodd" d="M22.5314 57.0089C22.4888 56.9051 22.4523 56.7987 22.4067 56.6963C21.4727 54.5973 19.8762 52.8003 17.9047 51.6299C17.0094 51.098 16.0072 50.6647 15.3751 49.836C14.6535 48.89 14.5575 47.6184 14.1035 46.5181C13.3911 44.7918 11.8106 43.5825 10.0373 42.9421V52.6059L22.5314 57.0089Z" fill="#FF6666"/>
<path fill-rule="evenodd" clip-rule="evenodd" d="M32.6276 57.0089C32.6701 56.9051 32.7066 56.7987 32.7522 56.6963C33.6863 54.5973 35.2828 52.8003 37.2542 51.6299C38.1495 51.098 39.1518 50.6647 39.7838 49.836C40.5054 48.89 40.6014 47.6184 41.0554 46.5181C41.7679 44.7918 43.3483 43.5825 45.1216 42.9421V52.6059L32.6276 57.0089Z" fill="#FF6666"/>
<path fill-rule="evenodd" clip-rule="evenodd" d="M35.5661 0.418218L39.8993 5.49512C40.0073 5.6216 40.0302 5.79721 39.9591 5.94525C39.8876 6.09374 39.7346 6.18893 39.5665 6.18893H14.4336C14.2654 6.18893 14.1125 6.09374 14.041 5.94525C13.9695 5.79676 13.9929 5.6212 14.1008 5.49512L18.434 0.418218C18.5164 0.321787 18.6382 0.266357 18.7669 0.266357H35.2333C35.362 0.266357 35.4838 0.322184 35.5661 0.418218ZM18.9697 1.11208L15.3588 5.34282H38.641L35.0301 1.11208H18.9697Z" fill="black"/>
<path fill-rule="evenodd" clip-rule="evenodd" d="M27.0005 0.265869C27.1756 0.265869 27.3337 0.368696 27.4009 0.526903C27.4681 0.68511 27.4308 0.867066 27.3069 0.988039L22.107 6.06494C22.0251 6.14491 21.9146 6.18889 21.8002 6.18889C21.782 6.18889 21.7634 6.18765 21.7447 6.18552C21.6113 6.16861 21.4938 6.09201 21.4262 5.97907L18.393 0.902168C18.3145 0.771031 18.3141 0.609849 18.3916 0.478266C18.4692 0.346683 18.6122 0.265869 18.7673 0.265869H27.0005ZM19.5213 1.11204L21.8912 5.07876L25.954 1.11204H19.5213Z" fill="black"/>
<path fill-rule="evenodd" clip-rule="evenodd" d="M39.5661 5.34229C39.7308 5.34229 39.8816 5.43366 39.9544 5.57793C40.0272 5.72221 40.0103 5.8944 39.9102 6.02216L27.3437 22.099C27.2627 22.204 27.1353 22.2657 27.0001 22.2657C26.8649 22.2657 26.7375 22.204 26.6556 22.099L14.0891 6.02216C13.989 5.8944 13.9721 5.72221 14.045 5.57793C14.1182 5.43366 14.2685 5.34229 14.4332 5.34229H39.5661ZM15.3094 6.1889L27.0001 21.1454L38.6908 6.1889H15.3094Z" fill="black"/>
<path fill-rule="evenodd" clip-rule="evenodd" d="M22.2136 5.63802L27.4135 21.7149C27.4767 21.9108 27.3866 22.1232 27.1998 22.2175C27.1365 22.2505 27.0681 22.2657 27.0005 22.2657C26.8688 22.2657 26.74 22.2069 26.656 22.099L14.0895 6.02216C13.9894 5.8944 13.9725 5.72221 14.0453 5.57793C14.1185 5.43366 14.2689 5.34229 14.4336 5.34229H21.8002C21.9895 5.34229 22.1564 5.46202 22.2136 5.63802ZM21.4825 6.1889H15.3093L25.84 19.6613L21.4825 6.1889Z" fill="black"/>
<path fill-rule="evenodd" clip-rule="evenodd" d="M35.2333 0.265869C35.3885 0.265869 35.5319 0.346683 35.609 0.478266C35.6861 0.609849 35.6857 0.771031 35.6077 0.902168L32.5744 5.97907C32.5068 6.09246 32.389 6.16861 32.2559 6.18552C32.2373 6.1876 32.2186 6.18889 32.2 6.18889C32.0856 6.18889 31.9751 6.14491 31.8936 6.06494L26.6937 0.988039C26.5698 0.867066 26.5325 0.68511 26.5997 0.526903C26.6669 0.368696 26.825 0.265869 27.0001 0.265869H35.2333ZM28.0461 1.11204L32.109 5.07876L34.4788 1.11204H28.0461Z" fill="black"/>
<path fill-rule="evenodd" clip-rule="evenodd" d="M39.567 5.34326C39.7317 5.34326 39.8825 5.43464 39.9553 5.57891C40.028 5.72314 40.0112 5.89533 39.911 6.02319L27.3446 22.1001C27.2601 22.2071 27.1314 22.2659 27.0001 22.2659C26.9325 22.2659 26.864 22.2506 26.8008 22.2185C26.614 22.1237 26.5238 21.9113 26.5871 21.7159L31.787 5.639C31.8438 5.463 32.0111 5.34326 32.2004 5.34326H39.567ZM32.5177 6.18893L28.1601 19.6614L38.6908 6.18893H32.5177Z" fill="black"/>
</svg>
