<svg width="64" height="50" viewBox="0 0 64 50" fill="none" xmlns="http://www.w3.org/2000/svg">
<path d="M41.3534 8.98926H33.8597H9.42786L17.0194 32.2807L33.8597 32.2763H50.7114L53.5888 23.4366" stroke="#344154" stroke-width="1.44724" stroke-linecap="round" stroke-linejoin="round"/>
<path d="M9.42782 8.98932L7.58764 4.14395C6.92926 2.41112 5.26982 1.26587 3.41759 1.26587H1" stroke="#344154" stroke-width="1.44724" stroke-linecap="round" stroke-linejoin="round"/>
<path fill-rule="evenodd" clip-rule="evenodd" d="M28.5169 45.5893C28.5169 47.6198 26.8724 49.2658 24.8438 49.2658C22.8152 49.2658 21.1707 47.6198 21.1707 45.5893C21.1707 43.5588 22.8152 41.9128 24.8438 41.9128C26.8724 41.9128 28.5169 43.5588 28.5169 45.5893Z" stroke="#344154" stroke-width="1.44724" stroke-linecap="round" stroke-linejoin="round"/>
<path fill-rule="evenodd" clip-rule="evenodd" d="M46.5487 45.5893C46.5487 47.6198 44.9042 49.2658 42.8755 49.2658C40.8469 49.2658 39.2024 47.6198 39.2024 45.5893C39.2024 43.5588 40.8469 41.9128 42.8755 41.9128C44.9042 41.9128 46.5487 43.5588 46.5487 45.5893Z" stroke="#344154" stroke-width="1.44724" stroke-linecap="round" stroke-linejoin="round"/>
<path d="M20.127 37.3643H47.5923" stroke="#344154" stroke-width="1.44724" stroke-linecap="round" stroke-linejoin="round"/>
<path fill-rule="evenodd" clip-rule="evenodd" d="M44.47 11.0442C44.47 16.166 48.6178 20.3176 53.735 20.3176C58.8521 20.3176 63 16.166 63 11.0442C63 5.92241 58.8521 1.77075 53.735 1.77075C48.6178 1.77075 44.47 5.92241 44.47 11.0442Z" stroke="#344154" stroke-width="1.44724" stroke-linecap="round" stroke-linejoin="round"/>
<path d="M49.7622 11.5281L52.9288 14.3546L58.0546 8.08032" stroke="#344154" stroke-width="1.44724" stroke-linecap="round" stroke-linejoin="round"/>
<path fill-rule="evenodd" clip-rule="evenodd" d="M19.118 29.3858L33.8587 29.3819H39.1359C35.2184 27.6052 31.3322 25.7513 27.6914 23.4656C26.6397 22.8056 25.5871 22.0883 24.8607 21.081C24.1339 20.0737 23.7845 18.7104 24.2655 17.5647C24.8019 16.2868 26.1645 15.6133 27.3053 14.8265C28.4529 14.0349 29.4501 13.029 30.2453 11.8838H13.4128L19.118 29.3858Z" fill="#FF6666"/>
</svg>
