<svg width="59" height="67" viewBox="0 0 59 67" fill="none" xmlns="http://www.w3.org/2000/svg">
<path d="M33.6125 66H54.648V30.0377C54.648 29.1491 53.9304 28.4299 53.044 28.4299H49.687C48.8024 28.4299 48.083 29.1491 48.083 30.0377V45.0409" stroke="#344154" stroke-width="1.72975" stroke-linecap="round"/>
<path fill-rule="evenodd" clip-rule="evenodd" d="M58 11.0271C58 7.14151 54.8574 3.99155 50.9809 3.99155C50.327 3.99155 49.6966 4.08805 49.0972 4.25556C48.703 2.39654 47.0554 1 45.0827 1C42.8156 1 40.9773 2.84263 40.9773 5.11497C40.9773 7.09234 42.3706 8.74198 44.2271 9.13709C44.0599 9.73977 43.9637 10.3716 43.9637 11.0271C43.9637 13.3012 45.0427 15.315 46.7121 16.6023C46.3742 17.2596 46.1817 18.0043 46.1817 18.7963C46.1817 21.4529 48.3306 23.6069 50.9809 23.6069C53.6331 23.6069 55.782 21.4529 55.782 18.7963C55.782 18.0043 55.5876 17.2596 55.2498 16.6023C56.9192 15.315 58 13.3012 58 11.0271Z" stroke="#344154" stroke-width="1.72975" stroke-linecap="round"/>
<path d="M5.3851 58.463H30.4859C31.9246 58.463 32.911 56.9645 32.297 55.6608C32.2934 55.6517 32.2879 55.6426 32.2843 55.6335C30.2788 51.3947 26.822 41.9012 27.8992 28.4547C27.9882 27.3586 27.1308 26.4154 26.0336 26.4154H17.307H8.58038C7.4832 26.4154 6.62579 27.3586 6.71299 28.4547C7.79201 41.9012 4.33333 51.3947 2.32788 55.6335C1.4614 57.4634 1 59.4608 1 61.4874V65.9993H33.6122" stroke="#344154" stroke-width="1.72975" stroke-linecap="round"/>
<path d="M48.0836 36.2933H43.0699C42.1835 36.2933 41.4659 37.0125 41.4659 37.9011V49.3265" stroke="#344154" stroke-width="1.72975" stroke-linecap="round"/>
<path d="M41.4659 42.3628H31.5222" stroke="#344154" stroke-width="1.72975" stroke-linecap="round"/>
<path d="M24.7041 7.75219H26.8058" stroke="#344154" stroke-width="1.72975" stroke-linecap="round"/>
<path d="M24.7041 12.3038H26.8058" stroke="#344154" stroke-width="1.72975" stroke-linecap="round"/>
<path d="M24.7041 16.8552H26.8058" stroke="#344154" stroke-width="1.72975" stroke-linecap="round"/>
<path d="M7.80652 12.3038H9.90824" stroke="#344154" stroke-width="1.72975" stroke-linecap="round"/>
<path d="M7.80652 16.8552H9.90824" stroke="#344154" stroke-width="1.72975" stroke-linecap="round"/>
<path d="M21.8472 19.7188V21.8254" stroke="#344154" stroke-width="1.72975" stroke-linecap="round"/>
<path d="M17.3065 19.7188V21.8254" stroke="#344154" stroke-width="1.72975" stroke-linecap="round"/>
<path d="M12.7654 19.7188V21.8254" stroke="#344154" stroke-width="1.72975" stroke-linecap="round"/>
<path d="M21.8472 2.78162V4.88826" stroke="#344154" stroke-width="1.72975" stroke-linecap="round"/>
<path d="M17.3065 2.78162V4.88826" stroke="#344154" stroke-width="1.72975" stroke-linecap="round"/>
<path fill-rule="evenodd" clip-rule="evenodd" d="M16.3114 7.7522C16.3114 9.77327 14.6765 11.4102 12.6602 11.4102V16.8543H21.7428V7.7522H16.3114Z" stroke="#344154" stroke-width="1.72975" stroke-linecap="round"/>
<path fill-rule="evenodd" clip-rule="evenodd" d="M25.325 42.5507C19.9299 43.5266 15.8354 48.2534 15.8354 53.9415C15.8354 54.444 15.8718 54.9356 15.9335 55.4218H28.8636C27.6029 52.4521 26.1497 48.0986 25.325 42.5507Z" fill="#FF6666"/>
</svg>
