<svg width="62" height="51" viewBox="0 0 62 51" fill="none" xmlns="http://www.w3.org/2000/svg">
<path fill-rule="evenodd" clip-rule="evenodd" d="M60.9999 45.9898V4.22103C60.9999 2.44241 59.5559 1 57.7771 1H4.22299C2.44239 1 1.00012 2.44241 1.00012 4.22103V45.9898C1.00012 48.204 2.79816 50 5.01476 50H21.0419H56.9853C59.2019 50 60.9999 48.204 60.9999 45.9898Z" stroke="#344154" stroke-width="1.65493" stroke-linecap="round" stroke-linejoin="round"/>
<path fill-rule="evenodd" clip-rule="evenodd" d="M9.06434 7.47441C9.06434 7.16259 8.81146 6.90999 8.49929 6.90999C8.18886 6.90999 7.93599 7.16259 7.93599 7.47441C7.93599 7.78624 8.18886 8.03883 8.49929 8.03883C8.81146 8.03883 9.06434 7.78624 9.06434 7.47441Z" stroke="#344154" stroke-width="1.65493" stroke-linecap="round" stroke-linejoin="round"/>
<path fill-rule="evenodd" clip-rule="evenodd" d="M15.4996 7.47441C15.4996 7.16259 15.2468 6.90999 14.9346 6.90999C14.6242 6.90999 14.3713 7.16259 14.3713 7.47441C14.3713 7.78624 14.6242 8.03883 14.9346 8.03883C15.2468 8.03883 15.4996 7.78624 15.4996 7.47441Z" stroke="#344154" stroke-width="1.65493" stroke-linecap="round" stroke-linejoin="round"/>
<path fill-rule="evenodd" clip-rule="evenodd" d="M21.9351 7.47441C21.9351 7.16259 21.6822 6.90999 21.37 6.90999C21.0596 6.90999 20.8067 7.16259 20.8067 7.47441C20.8067 7.78624 21.0596 8.03883 21.37 8.03883C21.6822 8.03883 21.9351 7.78624 21.9351 7.47441Z" stroke="#344154" stroke-width="1.65493" stroke-linecap="round" stroke-linejoin="round"/>
<path d="M1 13.8273H60.9998" stroke="#344154" stroke-width="1.65493" stroke-linecap="round" stroke-linejoin="round"/>
<path d="M11.3365 25.6804L14.1792 34.7181L16.5528 25.6804" stroke="#344154" stroke-width="1.65493" stroke-linecap="round" stroke-linejoin="round"/>
<path d="M21.7697 25.6804L18.927 34.7181L16.5535 25.6804" stroke="#344154" stroke-width="1.65493" stroke-linecap="round" stroke-linejoin="round"/>
<path d="M25.7833 25.6804L28.626 34.7181L30.9996 25.6804" stroke="#344154" stroke-width="1.65493" stroke-linecap="round" stroke-linejoin="round"/>
<path d="M36.2167 25.6804L33.374 34.7181L31.0005 25.6804" stroke="#344154" stroke-width="1.65493" stroke-linecap="round" stroke-linejoin="round"/>
<path d="M40.2301 25.6804L43.0728 34.7181L45.4463 25.6804" stroke="#344154" stroke-width="1.65493" stroke-linecap="round" stroke-linejoin="round"/>
<path d="M50.6634 25.6804L47.8207 34.7181L45.4471 25.6804" stroke="#344154" stroke-width="1.65493" stroke-linecap="round" stroke-linejoin="round"/>
<path fill-rule="evenodd" clip-rule="evenodd" d="M30.9999 42.4104C20.6547 42.4104 11.1971 38.9194 3.91248 33.1515V45.9903C3.91248 46.5965 4.40777 47.0913 5.01467 47.0913H56.9852C57.5921 47.0913 58.0874 46.5965 58.0874 45.9903V33.1515C50.8028 38.9194 41.3452 42.4104 30.9999 42.4104Z" fill="#FF6666"/>
</svg>
