<svg width="1960" height="1008" viewBox="0 0 1960 1008" fill="none" xmlns="http://www.w3.org/2000/svg">
<rect width="1960" height="1008" fill="#022D72"/>
<mask id="mask0_0_66" style="mask-type:luminance" maskUnits="userSpaceOnUse" x="0" y="0" width="1960" height="1008">
<rect width="1960" height="1008" fill="white"/>
</mask>
<g mask="url(#mask0_0_66)">
<path opacity="0.01209" fill-rule="evenodd" clip-rule="evenodd" d="M531.608 -1441.79L-1030.37 419.699L-1022.71 426.127L539.269 -1435.36L531.608 -1441.79ZM546.608 -1428.79L-1015.37 432.699L-1007.71 439.127L554.269 -1422.36L546.608 -1428.79ZM-999.366 445.699L562.608 -1415.79L570.269 -1409.36L-991.705 452.127L-999.366 445.699ZM577.608 -1402.79L-984.366 458.699L-976.705 465.127L585.269 -1396.36L577.608 -1402.79ZM-968.366 471.699L593.608 -1389.79L601.269 -1383.36L-960.705 478.127L-968.366 471.699ZM608.608 -1376.79L-953.366 484.699L-945.705 491.127L616.269 -1370.36L608.608 -1376.79ZM-938.366 497.699L623.608 -1363.79L631.269 -1357.36L-930.705 504.127L-938.366 497.699ZM639.608 -1350.79L-922.366 510.699L-914.705 517.127L647.269 -1344.36L639.608 -1350.79ZM-907.366 523.699L654.608 -1337.79L662.269 -1331.36L-899.705 530.127L-907.366 523.699ZM670.608 -1324.79L-891.366 536.699L-883.705 543.127L678.269 -1318.36L670.608 -1324.79ZM-876.366 549.699L685.608 -1311.79L693.269 -1305.36L-868.705 556.127L-876.366 549.699ZM701.608 -1298.79L-860.366 562.699L-852.705 569.127L709.269 -1292.36L701.608 -1298.79ZM-845.366 575.699L716.608 -1285.79L724.269 -1279.36L-837.705 582.127L-845.366 575.699ZM731.608 -1272.79L-830.366 588.699L-822.705 595.127L739.269 -1266.36L731.608 -1272.79ZM-814.366 601.699L747.608 -1259.79L755.269 -1253.36L-806.705 608.127L-814.366 601.699ZM762.608 -1247.79L-799.366 613.699L-791.705 620.127L770.269 -1241.36L762.608 -1247.79ZM-783.366 626.699L778.608 -1234.79L786.269 -1228.36L-775.705 633.127L-783.366 626.699ZM793.608 -1221.79L-768.366 639.699L-760.705 646.127L801.269 -1215.36L793.608 -1221.79ZM-753.366 652.699L808.608 -1208.79L816.269 -1202.36L-745.705 659.127L-753.366 652.699ZM824.608 -1195.79L-737.366 665.699L-729.705 672.127L832.269 -1189.36L824.608 -1195.79ZM-722.366 678.699L839.608 -1182.79L847.269 -1176.36L-714.705 685.127L-722.366 678.699ZM855.608 -1169.79L-706.366 691.699L-698.705 698.127L863.269 -1163.36L855.608 -1169.79ZM-691.366 704.699L870.608 -1156.79L878.269 -1150.36L-683.705 711.127L-691.366 704.699ZM886.608 -1143.79L-675.366 717.699L-667.705 724.127L894.269 -1137.36L886.608 -1143.79ZM-660.366 730.699L901.608 -1130.79L909.269 -1124.36L-652.705 737.127L-660.366 730.699ZM916.608 -1117.79L-645.366 743.699L-637.705 750.127L924.269 -1111.36L916.608 -1117.79ZM-629.366 756.699L932.608 -1104.79L940.269 -1098.36L-621.705 763.127L-629.366 756.699ZM947.608 -1091.79L-614.366 769.699L-606.705 776.127L955.269 -1085.36L947.608 -1091.79ZM-598.366 782.699L963.608 -1078.79L971.269 -1072.36L-590.705 789.127L-598.366 782.699ZM978.608 -1065.79L-583.366 795.699L-575.705 802.127L986.269 -1059.36L978.608 -1065.79ZM-567.366 808.699L994.608 -1052.79L1002.27 -1046.36L-559.705 815.127L-567.366 808.699ZM1009.61 -1039.79L-552.366 821.699L-544.705 828.127L1017.27 -1033.36L1009.61 -1039.79ZM-537.366 833.699L1024.61 -1027.79L1032.27 -1021.36L-529.705 840.127L-537.366 833.699ZM1040.61 -1014.79L-521.366 846.699L-513.705 853.127L1048.27 -1008.36L1040.61 -1014.79ZM-506.366 859.699L1055.61 -1001.79L1063.27 -995.361L-498.705 866.127L-506.366 859.699ZM1071.61 -988.789L-490.366 872.699L-482.705 879.127L1079.27 -982.361L1071.61 -988.789ZM-475.366 885.699L1086.61 -975.789L1094.27 -969.361L-467.705 892.127L-475.366 885.699ZM1101.61 -962.789L-460.366 898.699L-452.705 905.127L1109.27 -956.361L1101.61 -962.789ZM-444.366 911.699L1117.61 -949.789L1125.27 -943.361L-436.705 918.127L-444.366 911.699ZM1132.61 -936.789L-429.366 924.699L-421.705 931.127L1140.27 -930.361L1132.61 -936.789ZM-413.366 937.699L1148.61 -923.789L1156.27 -917.361L-405.705 944.127L-413.366 937.699ZM1163.61 -910.789L-398.366 950.699L-390.705 957.127L1171.27 -904.361L1163.61 -910.789ZM-382.366 963.699L1179.61 -897.789L1187.27 -891.361L-374.705 970.127L-382.366 963.699ZM1194.61 -884.789L-367.366 976.699L-359.705 983.127L1202.27 -878.361L1194.61 -884.789ZM-352.366 989.699L1209.61 -871.789L1217.27 -865.361L-344.705 996.127L-352.366 989.699ZM1225.61 -858.789L-336.366 1002.7L-328.705 1009.13L1233.27 -852.361L1225.61 -858.789ZM-321.366 1015.7L1240.61 -845.789L1248.27 -839.361L-313.705 1022.13L-321.366 1015.7ZM1256.61 -832.789L-305.366 1028.7L-297.705 1035.13L1264.27 -826.361L1256.61 -832.789ZM-290.366 1040.7L1271.61 -820.789L1279.27 -814.361L-282.705 1047.13L-290.366 1040.7ZM1287.61 -807.789L-274.366 1053.7L-266.705 1060.13L1295.27 -801.361L1287.61 -807.789ZM-259.366 1066.7L1302.61 -794.789L1310.27 -788.361L-251.705 1073.13L-259.366 1066.7ZM1317.61 -781.789L-244.366 1079.7L-236.705 1086.13L1325.27 -775.361L1317.61 -781.789ZM-228.366 1092.7L1333.61 -768.789L1341.27 -762.361L-220.705 1099.13L-228.366 1092.7ZM1348.61 -755.789L-213.366 1105.7L-205.705 1112.13L1356.27 -749.361L1348.61 -755.789ZM-197.366 1118.7L1364.61 -742.789L1372.27 -736.361L-189.705 1125.13L-197.366 1118.7ZM1379.61 -729.789L-182.366 1131.7L-174.705 1138.13L1387.27 -723.361L1379.61 -729.789ZM-167.366 1144.7L1394.61 -716.789L1402.27 -710.361L-159.705 1151.13L-167.366 1144.7ZM1410.61 -703.789L-151.366 1157.7L-143.705 1164.13L1418.27 -697.361L1410.61 -703.789ZM-136.366 1170.7L1425.61 -690.789L1433.27 -684.361L-128.705 1177.13L-136.366 1170.7ZM1441.61 -677.789L-120.366 1183.7L-112.705 1190.13L1449.27 -671.361L1441.61 -677.789ZM-105.366 1196.7L1456.61 -664.789L1464.27 -658.361L-97.7051 1203.13L-105.366 1196.7ZM1472.61 -651.789L-89.3656 1209.7L-81.7051 1216.13L1480.27 -645.361L1472.61 -651.789ZM-74.3656 1222.7L1487.61 -638.789L1495.27 -632.361L-66.7051 1229.13L-74.3656 1222.7ZM1502.61 -625.789L-59.3656 1235.7L-51.7051 1242.13L1510.27 -619.361L1502.61 -625.789ZM-43.3656 1248.7L1518.61 -612.789L1526.27 -606.361L-35.7051 1255.13L-43.3656 1248.7ZM1533.61 -600.789L-28.3656 1260.7L-20.7051 1267.13L1541.27 -594.361L1533.61 -600.789ZM-12.3656 1273.7L1549.61 -587.789L1557.27 -581.361L-4.70517 1280.13L-12.3656 1273.7ZM1564.61 -574.789L2.6344 1286.7L10.2948 1293.13L1572.27 -568.361L1564.61 -574.789ZM17.6344 1299.7L1579.61 -561.789L1587.27 -555.361L25.2949 1306.13L17.6344 1299.7ZM1595.61 -548.789L33.6344 1312.7L41.2948 1319.13L1603.27 -542.361L1595.61 -548.789ZM48.6344 1325.7L1610.61 -535.789L1618.27 -529.361L56.2948 1332.13L48.6344 1325.7ZM1626.61 -522.789L64.6345 1338.7L72.2949 1345.13L1634.27 -516.361L1626.61 -522.789ZM79.6344 1351.7L1641.61 -509.789L1649.27 -503.361L87.2948 1358.13L79.6344 1351.7ZM1657.61 -496.789L95.6345 1364.7L103.295 1371.13L1665.27 -490.361L1657.61 -496.789ZM110.634 1377.7L1672.61 -483.789L1680.27 -477.361L118.295 1384.13L110.634 1377.7ZM1687.61 -470.789L125.634 1390.7L133.295 1397.13L1695.27 -464.361L1687.61 -470.789ZM141.634 1403.7L1703.61 -457.789L1711.27 -451.361L149.295 1410.13L141.634 1403.7ZM1718.61 -444.789L156.634 1416.7L164.295 1423.13L1726.27 -438.361L1718.61 -444.789ZM172.634 1429.7L1734.61 -431.789L1742.27 -425.361L180.295 1436.13L172.634 1429.7ZM1749.61 -418.789L187.634 1442.7L195.295 1449.13L1757.27 -412.361L1749.61 -418.789ZM203.634 1455.7L1765.61 -405.789L1773.27 -399.361L211.295 1462.13L203.634 1455.7ZM1780.61 -393.789L218.634 1467.7L226.295 1474.13L1788.27 -387.361L1780.61 -393.789ZM233.634 1480.7L1795.61 -380.789L1803.27 -374.361L241.295 1487.13L233.634 1480.7ZM1811.61 -367.789L249.634 1493.7L257.295 1500.13L1819.27 -361.361L1811.61 -367.789ZM264.634 1506.7L1826.61 -354.789L1834.27 -348.361L272.295 1513.13L264.634 1506.7ZM1842.61 -341.789L280.634 1519.7L288.295 1526.13L1850.27 -335.361L1842.61 -341.789ZM295.634 1532.7L1857.61 -328.789L1865.27 -322.361L303.295 1539.13L295.634 1532.7ZM1872.61 -315.789L310.634 1545.7L318.295 1552.13L1880.27 -309.361L1872.61 -315.789ZM326.634 1558.7L1888.61 -302.789L1896.27 -296.361L334.295 1565.13L326.634 1558.7ZM1903.61 -289.789L341.634 1571.7L349.295 1578.13L1911.27 -283.361L1903.61 -289.789ZM357.634 1584.7L1919.61 -276.789L1927.27 -270.361L365.295 1591.13L357.634 1584.7ZM1934.61 -263.789L372.634 1597.7L380.295 1604.13L1942.27 -257.361L1934.61 -263.789ZM388.634 1610.7L1950.61 -250.789L1958.27 -244.361L396.295 1617.13L388.634 1610.7ZM1965.61 -237.789L403.634 1623.7L411.295 1630.13L1973.27 -231.361L1965.61 -237.789ZM418.634 1636.7L1980.61 -224.789L1988.27 -218.361L426.295 1643.13L418.634 1636.7ZM1996.61 -211.789L434.634 1649.7L442.295 1656.13L2004.27 -205.361L1996.61 -211.789ZM449.634 1662.7L2011.61 -198.789L2019.27 -192.361L457.295 1669.13L449.634 1662.7ZM2027.61 -185.789L465.634 1675.7L473.295 1682.13L2035.27 -179.361L2027.61 -185.789ZM480.634 1687.7L2042.61 -173.789L2050.27 -167.361L488.295 1694.13L480.634 1687.7ZM2058.61 -160.789L496.634 1700.7L504.295 1707.13L2066.27 -154.361L2058.61 -160.789ZM511.634 1713.7L2073.61 -147.789L2081.27 -141.361L519.295 1720.13L511.634 1713.7ZM2088.61 -134.789L526.634 1726.7L534.295 1733.13L2096.27 -128.361L2088.61 -134.789ZM542.634 1739.7L2104.61 -121.789L2112.27 -115.361L550.295 1746.13L542.634 1739.7ZM2119.61 -108.789L557.634 1752.7L565.295 1759.13L2127.27 -102.361L2119.61 -108.789ZM573.634 1765.7L2135.61 -95.7891L2143.27 -89.3612L581.295 1772.13L573.634 1765.7ZM2150.61 -82.789L588.634 1778.7L596.295 1785.13L2158.27 -76.3611L2150.61 -82.789ZM603.635 1791.7L2165.61 -69.789L2173.27 -63.3612L611.295 1798.13L603.635 1791.7ZM2181.61 -56.7891L619.634 1804.7L627.295 1811.13L2189.27 -50.3612L2181.61 -56.7891ZM634.634 1817.7L2196.61 -43.7891L2204.27 -37.3613L642.295 1824.13L634.634 1817.7ZM2212.61 -30.789L650.634 1830.7L658.295 1837.13L2220.27 -24.3611L2212.61 -30.789ZM665.634 1843.7L2227.61 -17.7891L2235.27 -11.3612L673.295 1850.13L665.634 1843.7ZM2243.61 -4.78912L681.634 1856.7L689.295 1863.13L2251.27 1.63876L2243.61 -4.78912ZM696.634 1869.7L2258.61 8.21099L2266.27 14.6389L704.295 1876.13L696.634 1869.7ZM2273.61 21.2109L711.634 1882.7L719.295 1889.13L2281.27 27.6388L2273.61 21.2109ZM727.634 1894.7L2289.61 33.211L2297.27 39.6388L735.295 1901.13L727.634 1894.7ZM2304.61 46.2109L742.634 1907.7L750.295 1914.13L2312.27 52.6388L2304.61 46.2109ZM758.635 1920.7L2320.61 59.211L2328.27 65.6389L766.295 1927.13L758.635 1920.7ZM2335.61 72.2108L773.634 1933.7L781.295 1940.13L2343.27 78.6387L2335.61 72.2108ZM789.634 1946.7L2351.61 85.2109L2359.27 91.6388L797.295 1953.13L789.634 1946.7ZM2366.61 98.2109L804.634 1959.7L812.295 1966.13L2374.27 104.639L2366.61 98.2109ZM819.634 1972.7L2381.61 111.211L2389.27 117.639L827.295 1979.13L819.634 1972.7ZM2397.61 124.211L835.635 1985.7L843.295 1992.13L2405.27 130.639L2397.61 124.211ZM850.634 1998.7L2412.61 137.211L2420.27 143.639L858.295 2005.13L850.634 1998.7ZM2428.61 150.211L866.634 2011.7L874.295 2018.13L2436.27 156.639L2428.61 150.211ZM881.634 2024.7L2443.61 163.211L2451.27 169.639L889.295 2031.13L881.634 2024.7ZM2458.61 176.211L896.634 2037.7L904.295 2044.13L2466.27 182.639L2458.61 176.211ZM912.634 2050.7L2474.61 189.211L2482.27 195.639L920.295 2057.13L912.634 2050.7ZM2489.61 202.211L927.635 2063.7L935.295 2070.13L2497.27 208.639L2489.61 202.211ZM943.634 2076.7L2505.61 215.211L2513.27 221.639L951.295 2083.13L943.634 2076.7ZM2520.61 228.211L958.634 2089.7L966.295 2096.13L2528.27 234.639L2520.61 228.211ZM974.634 2102.7L2536.61 241.211L2544.27 247.639L982.295 2109.13L974.634 2102.7ZM2551.61 253.211L989.634 2114.7L997.295 2121.13L2559.27 259.639L2551.61 253.211ZM1004.63 2127.7L2566.61 266.211L2574.27 272.639L1012.29 2134.13L1004.63 2127.7ZM2582.61 279.211L1020.63 2140.7L1028.29 2147.13L2590.27 285.639L2582.61 279.211ZM1035.63 2153.7L2597.61 292.211L2605.27 298.639L1043.29 2160.13L1035.63 2153.7ZM2613.61 305.211L1051.63 2166.7L1059.29 2173.13L2621.27 311.639L2613.61 305.211ZM1066.63 2179.7L2628.61 318.211L2636.27 324.639L1074.29 2186.13L1066.63 2179.7ZM2644.61 331.211L1082.63 2192.7L1090.29 2199.13L2652.27 337.639L2644.61 331.211ZM1097.63 2205.7L2659.61 344.211L2667.27 350.639L1105.29 2212.13L1097.63 2205.7ZM2674.61 357.211L1112.63 2218.7L1120.29 2225.13L2682.27 363.639L2674.61 357.211ZM1128.63 2231.7L2690.61 370.211L2698.27 376.639L1136.29 2238.13L1128.63 2231.7ZM2705.61 383.211L1143.63 2244.7L1151.29 2251.13L2713.27 389.639L2705.61 383.211ZM1159.63 2257.7L2721.61 396.211L2729.27 402.639L1167.29 2264.13L1159.63 2257.7ZM2736.61 409.211L1174.63 2270.7L1182.29 2277.13L2744.27 415.639L2736.61 409.211ZM1189.63 2283.7L2751.61 422.211L2759.27 428.639L1197.29 2290.13L1189.63 2283.7ZM2767.61 435.211L1205.63 2296.7L1213.29 2303.13L2775.27 441.639L2767.61 435.211ZM1220.63 2309.7L2782.61 448.211L2790.27 454.639L1228.29 2316.13L1220.63 2309.7ZM2798.61 460.211L1236.63 2321.7L1244.29 2328.13L2806.27 466.639L2798.61 460.211ZM1251.63 2334.7L2813.61 473.211L2821.27 479.639L1259.29 2341.13L1251.63 2334.7ZM2829.61 486.211L1267.63 2347.7L1275.29 2354.13L2837.27 492.639L2829.61 486.211ZM1282.63 2360.7L2844.61 499.211L2852.27 505.639L1290.29 2367.13L1282.63 2360.7ZM2859.61 512.211L1297.63 2373.7L1305.29 2380.13L2867.27 518.639L2859.61 512.211ZM1313.63 2386.7L2875.61 525.211L2883.27 531.639L1321.29 2393.13L1313.63 2386.7ZM2890.61 538.211L1328.63 2399.7L1336.29 2406.13L2898.27 544.639L2890.61 538.211ZM1344.63 2412.7L2906.61 551.211L2914.27 557.639L1352.29 2419.13L1344.63 2412.7ZM2921.61 564.211L1359.63 2425.7L1367.29 2432.13L2929.27 570.639L2921.61 564.211ZM1375.63 2438.7L2937.61 577.211L2945.27 583.639L1383.29 2445.13L1375.63 2438.7ZM2952.61 590.211L1390.63 2451.7L1398.29 2458.13L2960.27 596.639L2952.61 590.211ZM1405.63 2464.7L2967.61 603.211L2975.27 609.639L1413.29 2471.13L1405.63 2464.7ZM2983.61 616.211L1421.63 2477.7L1429.29 2484.13L2991.27 622.639L2983.61 616.211Z" fill="white"/>
</g>
</svg>
