<svg width="57" height="63" viewBox="0 0 57 63" fill="none" xmlns="http://www.w3.org/2000/svg">
<path d="M49.8888 41.6136L25.2489 55.9468C24.1623 56.5794 22.8212 56.581 21.7331 55.953L6.56484 47.2049C5.5528 46.6219 4.93036 45.5458 4.93036 44.3782V23.6568C4.93036 22.2629 5.67232 20.9744 6.87684 20.2735L32.6297 5.29224" stroke="#344154" stroke-width="1.482" stroke-linecap="round" stroke-linejoin="round"/>
<path d="M49.2336 35.4005L53.5844 37.9093C54.4149 38.3884 54.9256 39.2738 54.9256 40.2304V41.981C54.9256 42.9346 54.418 43.8168 53.5938 44.296L25.2379 60.7906C24.1575 61.4186 22.8242 61.4248 21.7392 60.8061L2.64845 49.9353C1.62865 49.3554 1 48.2731 1 47.1009V21.4674C1 20.075 1.74041 18.7865 2.94648 18.0841L31.3427 1.5662C32.0179 1.17391 32.8515 1.16461 33.5345 1.54604L34.8554 2.281C35.7867 2.79888 36.3642 3.78037 36.3642 4.84559V9.57938" stroke="#344154" stroke-width="1.482" stroke-linecap="round" stroke-linejoin="round"/>
<path d="M10.5713 42.9818L25.7923 34.1267" stroke="#344154" stroke-width="1.482" stroke-linecap="round" stroke-linejoin="round"/>
<path fill-rule="evenodd" clip-rule="evenodd" d="M40.2841 16.3794H44.7436V19.9208H48.2889V24.7384H44.7436V28.2798H39.9209V24.7384H36.3756V19.9208H40.2841V16.3794Z" fill="#FF6666"/>
<path fill-rule="evenodd" clip-rule="evenodd" d="M33.5364 32.983L28.6655 37.709V25.3807V17.2419C28.6655 14.4571 30.9256 12.198 33.7149 12.198H50.9507C53.74 12.198 56.0001 14.4571 56.0001 17.2419V27.9391C56.0001 30.7254 53.74 32.983 50.9507 32.983H33.5364Z" stroke="#344154" stroke-width="1.482" stroke-linecap="round" stroke-linejoin="round"/>
<path d="M32.4108 37.7087C32.4108 39.7756 30.7344 41.4502 28.6653 41.4502C26.5962 41.4502 24.9198 39.7756 24.9198 37.7087" stroke="#344154" stroke-width="1.482" stroke-linecap="round" stroke-linejoin="round"/>
</svg>
