<svg width="65" height="67" viewBox="0 0 65 67" fill="none" xmlns="http://www.w3.org/2000/svg">
<path d="M17.0279 20.7515C20.4652 25.5824 24.2425 31.4992 26.3517 36.5034C26.3517 36.5034 32.1805 49.212 39.9455 48.6524C42.5209 48.4668 45.0807 49.1607 47.3359 50.4282C50.801 52.3762 54.8429 55.2709 55.7519 58.5336C56.0042 59.4402 56.0175 60.375 55.7061 61.3263V61.3263C55.1984 62.8776 53.9254 64.0472 52.3453 64.4112C47.6496 65.4934 37.4629 67.2772 29.9173 64.5864C28.7288 64.1629 27.8715 63.1142 27.6195 61.8693C27.4445 61.0064 27.1964 59.8844 26.8651 58.5951C25.5342 53.412 22.8437 45.4805 18.0037 40.3749C15.0054 37.2119 9.71333 39.2732 9.47181 43.6411V66H3.91404C3.91404 29.5825 -6.29025 22.0763 11.4918 13.6467" stroke="#344154" stroke-width="1.57508" stroke-linecap="round" stroke-linejoin="round"/>
<path d="M50.8163 39.3313L56.3215 29.2302" stroke="#344154" stroke-width="1.57508" stroke-linecap="round" stroke-linejoin="round"/>
<path fill-rule="evenodd" clip-rule="evenodd" d="M57.375 39.3313V39.3313C56.3908 39.3313 55.5929 38.5272 55.5929 37.5352V36.2912C55.5929 35.2991 56.3908 34.495 57.375 34.495C58.3593 34.495 59.1571 35.2991 59.1571 36.2912V37.5352C59.1571 38.5272 58.3593 39.3313 57.375 39.3313Z" stroke="#344154" stroke-width="1.57508" stroke-linecap="round" stroke-linejoin="round"/>
<path fill-rule="evenodd" clip-rule="evenodd" d="M49.8861 34.0664V34.0664C48.9018 34.0664 48.1039 33.2623 48.1039 32.2703V31.0263C48.1039 30.0343 48.9018 29.2301 49.8861 29.2301C50.8703 29.2301 51.6682 30.0343 51.6682 31.0263V32.2703C51.6682 33.2623 50.8703 34.0664 49.8861 34.0664Z" stroke="#344154" stroke-width="1.57508" stroke-linecap="round" stroke-linejoin="round"/>
<path fill-rule="evenodd" clip-rule="evenodd" d="M64 34.0664C64 39.8727 59.3299 44.5796 53.569 44.5796C47.8081 44.5796 43.1379 39.8727 43.1379 34.0664C43.1379 28.2601 47.8081 23.5532 53.569 23.5532C59.3299 23.5532 64 28.2601 64 34.0664Z" stroke="#344154" stroke-width="1.57508" stroke-linecap="round" stroke-linejoin="round"/>
<path d="M10.9965 17.0835C13.7935 18.2994 17.1847 18.0116 19.7406 16.3412C22.2964 14.671 23.2378 12.7746 23.829 9.9292" stroke="#344154" stroke-width="1.57508" stroke-linecap="round" stroke-linejoin="round"/>
<path d="M24.4953 16.6752L40.4639 24.0846L46.7164 10.3963L26.4652 1C25.6986 2.67846 23.7267 3.41302 22.0613 2.64008" stroke="#344154" stroke-width="1.57508" stroke-linecap="round" stroke-linejoin="round"/>
<path fill-rule="evenodd" clip-rule="evenodd" d="M25.2295 6.86332C24.3895 6.47356 23.3951 6.84384 23.0083 7.69066C22.6216 8.53719 22.989 9.53952 23.8292 9.92928C24.6691 10.319 25.6636 9.94846 26.0503 9.10193C26.4371 8.2554 26.0697 7.25308 25.2295 6.86332Z" stroke="#344154" stroke-width="1.57508" stroke-linecap="round" stroke-linejoin="round"/>
<path d="M34.1639 9.67188L41.6254 13.1339" stroke="#344154" stroke-width="1.57508" stroke-linecap="round" stroke-linejoin="round"/>
<path d="M32.9598 12.3081L40.421 15.7701" stroke="#344154" stroke-width="1.57508" stroke-linecap="round" stroke-linejoin="round"/>
<path d="M31.7556 14.9442L39.2171 18.4062" stroke="#344154" stroke-width="1.57508" stroke-linecap="round" stroke-linejoin="round"/>
<path d="M20.8021 5.39673C17.4885 4.50552 13.885 5.45143 11.6554 7.36386C9.42544 9.276 8.11072 12.2268 8.1738 15.1768" stroke="#344154" stroke-width="1.57508" stroke-linecap="round" stroke-linejoin="round"/>
<path fill-rule="evenodd" clip-rule="evenodd" d="M51.6489 61.3403C52.1644 61.2214 52.5724 60.8472 52.7386 60.3388C52.8392 60.031 52.8409 59.7372 52.7426 59.3861C52.2644 57.6695 49.6742 55.3496 45.8136 53.1797C44.1667 52.2538 42.4377 51.7727 40.7758 51.7727C40.7033 51.7727 40.6317 51.7787 40.5598 51.7804C40.7868 52.1905 40.9815 52.6181 41.1159 53.0754C41.8075 55.4309 40.9383 58.0719 39.2772 59.8695C38.1233 61.1186 36.6353 61.9912 35.0347 62.5746C36.4566 62.769 37.9233 62.8498 39.3781 62.8498C44.3443 62.8498 49.1772 61.9099 51.6489 61.3403Z" fill="#FF6666"/>
</svg>
