<svg width="47" height="55" viewBox="0 0 47 55" fill="none" xmlns="http://www.w3.org/2000/svg">
<path fill-rule="evenodd" clip-rule="evenodd" d="M30.3288 38.9592L23.4916 45.8132L16.5982 38.9592L15.2056 40.2081L23.4916 48.5279L31.7214 40.2081L30.3288 38.9592Z" fill="#FF6666"/>
<path d="M13.2365 14.6965C19.9352 16.8077 26.9189 16.8077 33.6181 14.6965" stroke="#344154" stroke-width="1.26" stroke-linecap="round"/>
<path d="M34.14 18.4045C35.2983 18.7312 36.1373 20.0952 36.1373 21.7762C36.1373 23.6262 35.1163 25.0925 33.7823 25.213C33.0345 28.0149 31.4865 30.4172 29.393 32.0265L29.7346 34.951C29.7895 35.4174 30.0479 35.8374 30.4419 36.0998C30.5825 36.1932 30.7362 36.2646 30.8983 36.3109L38.355 38.4491C39.3216 38.6593 40.3079 39.1691 41.2787 39.9604C42.8073 41.208 43.8579 42.9437 44.2405 44.8492L45.9903 53.5043C46.0182 53.6253 45.9848 53.7538 45.9058 53.8497C45.8248 53.9432 45.7086 53.9999 45.5799 53.9999H37.5797H1.41996C1.2916 53.9999 1.17548 53.9432 1.0944 53.8497C1.01502 53.7538 0.98208 53.6253 1.00953 53.5043L2.75937 44.8492C3.14278 42.9437 4.19252 41.208 5.72152 39.9604C6.69187 39.1691 7.67912 38.6593 8.64567 38.4491L16.1019 36.3109C16.2641 36.2646 16.4182 36.1932 16.558 36.0998C16.9524 35.8374 17.2108 35.4174 17.2652 34.951L17.6077 32.0265C15.5146 30.4172 13.9653 28.0149 13.2175 25.213C11.8836 25.0925 10.8638 23.6262 10.8638 21.7762C10.8638 20.0952 11.7016 18.7312 12.8602 18.4045" stroke="#344154" stroke-width="1.26" stroke-linecap="round"/>
<path d="M13.2333 14.6963C12.7857 16.7711 12.8604 18.4046 12.8604 18.4046" stroke="#344154" stroke-width="1.26" stroke-linecap="round"/>
<path d="M33.9723 18.3862C33.9723 18.3862 34.0547 16.7594 33.6197 14.6917" stroke="#344154" stroke-width="1.26" stroke-linecap="round"/>
<path d="M16.558 36.0999L23.4467 43.1544" stroke="#344154" stroke-width="1.26" stroke-linecap="round"/>
<path d="M30.3356 36.0999L23.4469 43.1544" stroke="#344154" stroke-width="1.26" stroke-linecap="round"/>
<path d="M33.6191 14.6963V7.96045" stroke="#344154" stroke-width="1.26" stroke-linecap="round"/>
<path d="M13.2347 7.96533V14.6966" stroke="#344154" stroke-width="1.26" stroke-linecap="round"/>
<path d="M23.4999 1L40.3928 5.46626L23.4264 10.5253H23.4285L6.4613 5.46626L23.4999 1" stroke="#344154" stroke-width="1.26" stroke-linecap="round" stroke-linejoin="round"/>
<path d="M40.393 5.46631V12.6627" stroke="#344154" stroke-width="1.26" stroke-linecap="round" stroke-linejoin="round"/>
<path d="M40.3929 12.6628L38.5481 15.4885" stroke="#344154" stroke-width="1.26" stroke-linecap="round" stroke-linejoin="round"/>
<path d="M40.3929 12.6628L42.2378 15.4885" stroke="#344154" stroke-width="1.26" stroke-linecap="round" stroke-linejoin="round"/>
<path d="M31.7119 47.7994H38.2164" stroke="#344154" stroke-width="1.26" stroke-linecap="round"/>
</svg>
