<svg width="274" height="179" viewBox="0 0 274 179" fill="none" xmlns="http://www.w3.org/2000/svg">
<path opacity="0.188939" fill-rule="evenodd" clip-rule="evenodd" d="M10.3848 5.19518C10.3848 8.06062 8.06011 10.3835 5.19242 10.3835C2.32473 10.3835 0 8.06062 0 5.19518C0 2.32974 2.32473 0.00683594 5.19242 0.00683594C8.06011 0.00683594 10.3848 2.32974 10.3848 5.19518ZM5.19242 34.3297C8.06011 34.3297 10.3848 32.0068 10.3848 29.1414C10.3848 26.2759 8.06011 23.953 5.19242 23.953C2.32473 23.953 0 26.2759 0 29.1414C0 32.0068 2.32473 34.3297 5.19242 34.3297ZM29.1574 34.3297C32.0251 34.3297 34.3499 32.0068 34.3499 29.1414C34.3499 26.2759 32.0251 23.953 29.1574 23.953C26.2897 23.953 23.965 26.2759 23.965 29.1414C23.965 32.0068 26.2897 34.3297 29.1574 34.3297ZM58.3149 29.1414C58.3149 32.0068 55.9901 34.3297 53.1225 34.3297C50.2548 34.3297 47.93 32.0068 47.93 29.1414C47.93 26.2759 50.2548 23.953 53.1225 23.953C55.9901 23.953 58.3149 26.2759 58.3149 29.1414ZM77.0875 34.3297C79.9552 34.3297 82.2799 32.0068 82.2799 29.1414C82.2799 26.2759 79.9552 23.953 77.0875 23.953C74.2198 23.953 71.895 26.2759 71.895 29.1414C71.895 32.0068 74.2198 34.3297 77.0875 34.3297ZM106.245 29.1414C106.245 32.0068 103.92 34.3297 101.052 34.3297C98.1848 34.3297 95.8601 32.0068 95.8601 29.1414C95.8601 26.2759 98.1848 23.953 101.052 23.953C103.92 23.953 106.245 26.2759 106.245 29.1414ZM125.017 34.3297C127.885 34.3297 130.21 32.0068 130.21 29.1414C130.21 26.2759 127.885 23.953 125.017 23.953C122.15 23.953 119.825 26.2759 119.825 29.1414C119.825 32.0068 122.15 34.3297 125.017 34.3297ZM154.175 29.1414C154.175 32.0068 151.85 34.3297 148.982 34.3297C146.115 34.3297 143.79 32.0068 143.79 29.1414C143.79 26.2759 146.115 23.953 148.982 23.953C151.85 23.953 154.175 26.2759 154.175 29.1414ZM172.948 34.3297C175.815 34.3297 178.14 32.0068 178.14 29.1414C178.14 26.2759 175.815 23.953 172.948 23.953C170.08 23.953 167.755 26.2759 167.755 29.1414C167.755 32.0068 170.08 34.3297 172.948 34.3297ZM202.105 29.1414C202.105 32.0068 199.78 34.3297 196.913 34.3297C194.045 34.3297 191.72 32.0068 191.72 29.1414C191.72 26.2759 194.045 23.953 196.913 23.953C199.78 23.953 202.105 26.2759 202.105 29.1414ZM220.878 34.3297C223.745 34.3297 226.07 32.0068 226.07 29.1414C226.07 26.2759 223.745 23.953 220.878 23.953C218.01 23.953 215.685 26.2759 215.685 29.1414C215.685 32.0068 218.01 34.3297 220.878 34.3297ZM250.035 29.1414C250.035 32.0068 247.71 34.3297 244.843 34.3297C241.975 34.3297 239.65 32.0068 239.65 29.1414C239.65 26.2759 241.975 23.953 244.843 23.953C247.71 23.953 250.035 26.2759 250.035 29.1414ZM268.808 34.3297C271.675 34.3297 274 32.0068 274 29.1414C274 26.2759 271.675 23.953 268.808 23.953C265.94 23.953 263.615 26.2759 263.615 29.1414C263.615 32.0068 265.94 34.3297 268.808 34.3297ZM10.3848 53.0876C10.3848 55.953 8.06011 58.2759 5.19242 58.2759C2.32473 58.2759 0 55.953 0 53.0876C0 50.2221 2.32473 47.8992 5.19242 47.8992C8.06011 47.8992 10.3848 50.2221 10.3848 53.0876ZM34.3499 53.0876C34.3499 55.953 32.0251 58.2759 29.1574 58.2759C26.2897 58.2759 23.965 55.953 23.965 53.0876C23.965 50.2221 26.2897 47.8992 29.1574 47.8992C32.0251 47.8992 34.3499 50.2221 34.3499 53.0876ZM53.1225 58.2759C55.9901 58.2759 58.3149 55.953 58.3149 53.0876C58.3149 50.2221 55.9901 47.8992 53.1225 47.8992C50.2548 47.8992 47.93 50.2221 47.93 53.0876C47.93 55.953 50.2548 58.2759 53.1225 58.2759ZM82.2799 53.0876C82.2799 55.953 79.9552 58.2759 77.0875 58.2759C74.2198 58.2759 71.895 55.953 71.895 53.0876C71.895 50.2221 74.2198 47.8992 77.0875 47.8992C79.9552 47.8992 82.2799 50.2221 82.2799 53.0876ZM101.052 58.2759C103.92 58.2759 106.245 55.953 106.245 53.0876C106.245 50.2221 103.92 47.8992 101.052 47.8992C98.1848 47.8992 95.8601 50.2221 95.8601 53.0876C95.8601 55.953 98.1848 58.2759 101.052 58.2759ZM130.21 53.0876C130.21 55.953 127.885 58.2759 125.017 58.2759C122.15 58.2759 119.825 55.953 119.825 53.0876C119.825 50.2221 122.15 47.8992 125.017 47.8992C127.885 47.8992 130.21 50.2221 130.21 53.0876ZM148.982 58.2759C151.85 58.2759 154.175 55.953 154.175 53.0876C154.175 50.2221 151.85 47.8992 148.982 47.8992C146.115 47.8992 143.79 50.2221 143.79 53.0876C143.79 55.953 146.115 58.2759 148.982 58.2759ZM178.14 53.0876C178.14 55.953 175.815 58.2759 172.948 58.2759C170.08 58.2759 167.755 55.953 167.755 53.0876C167.755 50.2221 170.08 47.8992 172.948 47.8992C175.815 47.8992 178.14 50.2221 178.14 53.0876ZM196.913 58.2759C199.78 58.2759 202.105 55.953 202.105 53.0876C202.105 50.2221 199.78 47.8992 196.913 47.8992C194.045 47.8992 191.72 50.2221 191.72 53.0876C191.72 55.953 194.045 58.2759 196.913 58.2759ZM226.07 53.0876C226.07 55.953 223.745 58.2759 220.878 58.2759C218.01 58.2759 215.685 55.953 215.685 53.0876C215.685 50.2221 218.01 47.8992 220.878 47.8992C223.745 47.8992 226.07 50.2221 226.07 53.0876ZM244.843 58.2759C247.71 58.2759 250.035 55.953 250.035 53.0876C250.035 50.2221 247.71 47.8992 244.843 47.8992C241.975 47.8992 239.65 50.2221 239.65 53.0876C239.65 55.953 241.975 58.2759 244.843 58.2759ZM274 53.0876C274 55.953 271.675 58.2759 268.808 58.2759C265.94 58.2759 263.615 55.953 263.615 53.0876C263.615 50.2221 265.94 47.8992 268.808 47.8992C271.675 47.8992 274 50.2221 274 53.0876ZM34.3499 5.19518C34.3499 8.06062 32.0251 10.3835 29.1574 10.3835C26.2897 10.3835 23.965 8.06062 23.965 5.19518C23.965 2.32974 26.2897 0.00683594 29.1574 0.00683594C32.0251 0.00683594 34.3499 2.32974 34.3499 5.19518ZM10.3848 77.0337C10.3848 79.8992 8.06011 82.2221 5.19242 82.2221C2.32473 82.2221 0 79.8992 0 77.0337C0 74.1683 2.32473 71.8454 5.19242 71.8454C8.06011 71.8454 10.3848 74.1683 10.3848 77.0337ZM34.3499 77.0337C34.3499 79.8992 32.0251 82.2221 29.1574 82.2221C26.2897 82.2221 23.965 79.8992 23.965 77.0337C23.965 74.1683 26.2897 71.8454 29.1574 71.8454C32.0251 71.8454 34.3499 74.1683 34.3499 77.0337ZM53.1225 82.2221C55.9901 82.2221 58.3149 79.8992 58.3149 77.0337C58.3149 74.1683 55.9901 71.8454 53.1225 71.8454C50.2548 71.8454 47.93 74.1683 47.93 77.0337C47.93 79.8992 50.2548 82.2221 53.1225 82.2221ZM82.2799 77.0337C82.2799 79.8992 79.9552 82.2221 77.0875 82.2221C74.2198 82.2221 71.895 79.8992 71.895 77.0337C71.895 74.1683 74.2198 71.8454 77.0875 71.8454C79.9552 71.8454 82.2799 74.1683 82.2799 77.0337ZM101.052 82.2221C103.92 82.2221 106.245 79.8992 106.245 77.0337C106.245 74.1683 103.92 71.8454 101.052 71.8454C98.1848 71.8454 95.8601 74.1683 95.8601 77.0337C95.8601 79.8992 98.1848 82.2221 101.052 82.2221ZM130.21 77.0337C130.21 79.8992 127.885 82.2221 125.017 82.2221C122.15 82.2221 119.825 79.8992 119.825 77.0337C119.825 74.1683 122.15 71.8454 125.017 71.8454C127.885 71.8454 130.21 74.1683 130.21 77.0337ZM148.982 82.2221C151.85 82.2221 154.175 79.8992 154.175 77.0337C154.175 74.1683 151.85 71.8454 148.982 71.8454C146.115 71.8454 143.79 74.1683 143.79 77.0337C143.79 79.8992 146.115 82.2221 148.982 82.2221ZM178.14 77.0337C178.14 79.8992 175.815 82.2221 172.948 82.2221C170.08 82.2221 167.755 79.8992 167.755 77.0337C167.755 74.1683 170.08 71.8454 172.948 71.8454C175.815 71.8454 178.14 74.1683 178.14 77.0337ZM196.913 82.2221C199.78 82.2221 202.105 79.8992 202.105 77.0337C202.105 74.1683 199.78 71.8454 196.913 71.8454C194.045 71.8454 191.72 74.1683 191.72 77.0337C191.72 79.8992 194.045 82.2221 196.913 82.2221ZM226.07 77.0337C226.07 79.8992 223.745 82.2221 220.878 82.2221C218.01 82.2221 215.685 79.8992 215.685 77.0337C215.685 74.1683 218.01 71.8454 220.878 71.8454C223.745 71.8454 226.07 74.1683 226.07 77.0337ZM244.843 82.2221C247.71 82.2221 250.035 79.8992 250.035 77.0337C250.035 74.1683 247.71 71.8454 244.843 71.8454C241.975 71.8454 239.65 74.1683 239.65 77.0337C239.65 79.8992 241.975 82.2221 244.843 82.2221ZM274 77.0337C274 79.8992 271.675 82.2221 268.808 82.2221C265.94 82.2221 263.615 79.8992 263.615 77.0337C263.615 74.1683 265.94 71.8454 268.808 71.8454C271.675 71.8454 274 74.1683 274 77.0337ZM58.3149 5.19518C58.3149 8.06062 55.9901 10.3835 53.1225 10.3835C50.2548 10.3835 47.93 8.06062 47.93 5.19518C47.93 2.32974 50.2548 0.00683594 53.1225 0.00683594C55.9901 0.00683594 58.3149 2.32974 58.3149 5.19518ZM10.3848 100.98C10.3848 103.845 8.06011 106.168 5.19242 106.168C2.32473 106.168 0 103.845 0 100.98C0 98.1145 2.32473 95.7916 5.19242 95.7916C8.06011 95.7916 10.3848 98.1145 10.3848 100.98ZM34.3499 100.98C34.3499 103.845 32.0251 106.168 29.1574 106.168C26.2897 106.168 23.965 103.845 23.965 100.98C23.965 98.1145 26.2897 95.7916 29.1574 95.7916C32.0251 95.7916 34.3499 98.1145 34.3499 100.98ZM53.1225 106.168C55.9901 106.168 58.3149 103.845 58.3149 100.98C58.3149 98.1145 55.9901 95.7916 53.1225 95.7916C50.2548 95.7916 47.93 98.1145 47.93 100.98C47.93 103.845 50.2548 106.168 53.1225 106.168ZM82.2799 100.98C82.2799 103.845 79.9552 106.168 77.0875 106.168C74.2198 106.168 71.895 103.845 71.895 100.98C71.895 98.1145 74.2198 95.7916 77.0875 95.7916C79.9552 95.7916 82.2799 98.1145 82.2799 100.98ZM101.052 106.168C103.92 106.168 106.245 103.845 106.245 100.98C106.245 98.1145 103.92 95.7916 101.052 95.7916C98.1848 95.7916 95.8601 98.1145 95.8601 100.98C95.8601 103.845 98.1848 106.168 101.052 106.168ZM130.21 100.98C130.21 103.845 127.885 106.168 125.017 106.168C122.15 106.168 119.825 103.845 119.825 100.98C119.825 98.1145 122.15 95.7916 125.017 95.7916C127.885 95.7916 130.21 98.1145 130.21 100.98ZM148.982 106.168C151.85 106.168 154.175 103.845 154.175 100.98C154.175 98.1145 151.85 95.7916 148.982 95.7916C146.115 95.7916 143.79 98.1145 143.79 100.98C143.79 103.845 146.115 106.168 148.982 106.168ZM178.14 100.98C178.14 103.845 175.815 106.168 172.948 106.168C170.08 106.168 167.755 103.845 167.755 100.98C167.755 98.1145 170.08 95.7916 172.948 95.7916C175.815 95.7916 178.14 98.1145 178.14 100.98ZM196.913 106.168C199.78 106.168 202.105 103.845 202.105 100.98C202.105 98.1145 199.78 95.7916 196.913 95.7916C194.045 95.7916 191.72 98.1145 191.72 100.98C191.72 103.845 194.045 106.168 196.913 106.168ZM226.07 100.98C226.07 103.845 223.745 106.168 220.878 106.168C218.01 106.168 215.685 103.845 215.685 100.98C215.685 98.1145 218.01 95.7916 220.878 95.7916C223.745 95.7916 226.07 98.1145 226.07 100.98ZM244.843 106.168C247.71 106.168 250.035 103.845 250.035 100.98C250.035 98.1145 247.71 95.7916 244.843 95.7916C241.975 95.7916 239.65 98.1145 239.65 100.98C239.65 103.845 241.975 106.168 244.843 106.168ZM274 100.98C274 103.845 271.675 106.168 268.808 106.168C265.94 106.168 263.615 103.845 263.615 100.98C263.615 98.1145 265.94 95.7916 268.808 95.7916C271.675 95.7916 274 98.1145 274 100.98ZM82.2799 5.19518C82.2799 8.06062 79.9552 10.3835 77.0875 10.3835C74.2198 10.3835 71.895 8.06062 71.895 5.19518C71.895 2.32974 74.2198 0.00683594 77.0875 0.00683594C79.9552 0.00683594 82.2799 2.32974 82.2799 5.19518ZM10.3848 124.926C10.3848 127.792 8.06011 130.114 5.19242 130.114C2.32473 130.114 0 127.792 0 124.926C0 122.061 2.32473 119.738 5.19242 119.738C8.06011 119.738 10.3848 122.061 10.3848 124.926ZM34.3499 124.926C34.3499 127.792 32.0251 130.114 29.1574 130.114C26.2897 130.114 23.965 127.792 23.965 124.926C23.965 122.061 26.2897 119.738 29.1574 119.738C32.0251 119.738 34.3499 122.061 34.3499 124.926ZM53.1225 130.114C55.9901 130.114 58.3149 127.792 58.3149 124.926C58.3149 122.061 55.9901 119.738 53.1225 119.738C50.2548 119.738 47.93 122.061 47.93 124.926C47.93 127.792 50.2548 130.114 53.1225 130.114ZM82.2799 124.926C82.2799 127.792 79.9552 130.114 77.0875 130.114C74.2198 130.114 71.895 127.792 71.895 124.926C71.895 122.061 74.2198 119.738 77.0875 119.738C79.9552 119.738 82.2799 122.061 82.2799 124.926ZM101.052 130.114C103.92 130.114 106.245 127.792 106.245 124.926C106.245 122.061 103.92 119.738 101.052 119.738C98.1848 119.738 95.8601 122.061 95.8601 124.926C95.8601 127.792 98.1848 130.114 101.052 130.114ZM130.21 124.926C130.21 127.792 127.885 130.114 125.017 130.114C122.15 130.114 119.825 127.792 119.825 124.926C119.825 122.061 122.15 119.738 125.017 119.738C127.885 119.738 130.21 122.061 130.21 124.926ZM148.982 130.114C151.85 130.114 154.175 127.792 154.175 124.926C154.175 122.061 151.85 119.738 148.982 119.738C146.115 119.738 143.79 122.061 143.79 124.926C143.79 127.792 146.115 130.114 148.982 130.114ZM178.14 124.926C178.14 127.792 175.815 130.114 172.948 130.114C170.08 130.114 167.755 127.792 167.755 124.926C167.755 122.061 170.08 119.738 172.948 119.738C175.815 119.738 178.14 122.061 178.14 124.926ZM196.913 130.114C199.78 130.114 202.105 127.792 202.105 124.926C202.105 122.061 199.78 119.738 196.913 119.738C194.045 119.738 191.72 122.061 191.72 124.926C191.72 127.792 194.045 130.114 196.913 130.114ZM226.07 124.926C226.07 127.792 223.745 130.114 220.878 130.114C218.01 130.114 215.685 127.792 215.685 124.926C215.685 122.061 218.01 119.738 220.878 119.738C223.745 119.738 226.07 122.061 226.07 124.926ZM244.843 130.114C247.71 130.114 250.035 127.792 250.035 124.926C250.035 122.061 247.71 119.738 244.843 119.738C241.975 119.738 239.65 122.061 239.65 124.926C239.65 127.792 241.975 130.114 244.843 130.114ZM274 124.926C274 127.792 271.675 130.114 268.808 130.114C265.94 130.114 263.615 127.792 263.615 124.926C263.615 122.061 265.94 119.738 268.808 119.738C271.675 119.738 274 122.061 274 124.926ZM106.245 5.19518C106.245 8.06062 103.92 10.3835 101.052 10.3835C98.1848 10.3835 95.8601 8.06062 95.8601 5.19518C95.8601 2.32974 98.1848 0.00683594 101.052 0.00683594C103.92 0.00683594 106.245 2.32974 106.245 5.19518ZM10.3848 148.872C10.3848 151.738 8.06011 154.061 5.19242 154.061C2.32473 154.061 0 151.738 0 148.872C0 146.007 2.32473 143.684 5.19242 143.684C8.06011 143.684 10.3848 146.007 10.3848 148.872ZM34.3499 148.872C34.3499 151.738 32.0251 154.061 29.1574 154.061C26.2897 154.061 23.965 151.738 23.965 148.872C23.965 146.007 26.2897 143.684 29.1574 143.684C32.0251 143.684 34.3499 146.007 34.3499 148.872ZM53.1225 154.061C55.9901 154.061 58.3149 151.738 58.3149 148.872C58.3149 146.007 55.9901 143.684 53.1225 143.684C50.2548 143.684 47.93 146.007 47.93 148.872C47.93 151.738 50.2548 154.061 53.1225 154.061ZM82.2799 148.872C82.2799 151.738 79.9552 154.061 77.0875 154.061C74.2198 154.061 71.895 151.738 71.895 148.872C71.895 146.007 74.2198 143.684 77.0875 143.684C79.9552 143.684 82.2799 146.007 82.2799 148.872ZM101.052 154.061C103.92 154.061 106.245 151.738 106.245 148.872C106.245 146.007 103.92 143.684 101.052 143.684C98.1848 143.684 95.8601 146.007 95.8601 148.872C95.8601 151.738 98.1848 154.061 101.052 154.061ZM130.21 148.872C130.21 151.738 127.885 154.061 125.017 154.061C122.15 154.061 119.825 151.738 119.825 148.872C119.825 146.007 122.15 143.684 125.017 143.684C127.885 143.684 130.21 146.007 130.21 148.872ZM148.982 154.061C151.85 154.061 154.175 151.738 154.175 148.872C154.175 146.007 151.85 143.684 148.982 143.684C146.115 143.684 143.79 146.007 143.79 148.872C143.79 151.738 146.115 154.061 148.982 154.061ZM178.14 148.872C178.14 151.738 175.815 154.061 172.948 154.061C170.08 154.061 167.755 151.738 167.755 148.872C167.755 146.007 170.08 143.684 172.948 143.684C175.815 143.684 178.14 146.007 178.14 148.872ZM196.913 154.061C199.78 154.061 202.105 151.738 202.105 148.872C202.105 146.007 199.78 143.684 196.913 143.684C194.045 143.684 191.72 146.007 191.72 148.872C191.72 151.738 194.045 154.061 196.913 154.061ZM226.07 148.872C226.07 151.738 223.745 154.061 220.878 154.061C218.01 154.061 215.685 151.738 215.685 148.872C215.685 146.007 218.01 143.684 220.878 143.684C223.745 143.684 226.07 146.007 226.07 148.872ZM244.843 154.061C247.71 154.061 250.035 151.738 250.035 148.872C250.035 146.007 247.71 143.684 244.843 143.684C241.975 143.684 239.65 146.007 239.65 148.872C239.65 151.738 241.975 154.061 244.843 154.061ZM274 148.872C274 151.738 271.675 154.061 268.808 154.061C265.94 154.061 263.615 151.738 263.615 148.872C263.615 146.007 265.94 143.684 268.808 143.684C271.675 143.684 274 146.007 274 148.872ZM130.21 5.19518C130.21 8.06062 127.885 10.3835 125.017 10.3835C122.15 10.3835 119.825 8.06062 119.825 5.19518C119.825 2.32974 122.15 0.00683594 125.017 0.00683594C127.885 0.00683594 130.21 2.32974 130.21 5.19518ZM10.3848 172.818C10.3848 175.684 8.06011 178.007 5.19242 178.007C2.32473 178.007 0 175.684 0 172.818C0 169.953 2.32473 167.63 5.19242 167.63C8.06011 167.63 10.3848 169.953 10.3848 172.818ZM34.3499 172.818C34.3499 175.684 32.0251 178.007 29.1574 178.007C26.2897 178.007 23.965 175.684 23.965 172.818C23.965 169.953 26.2897 167.63 29.1574 167.63C32.0251 167.63 34.3499 169.953 34.3499 172.818ZM53.1225 178.007C55.9901 178.007 58.3149 175.684 58.3149 172.818C58.3149 169.953 55.9901 167.63 53.1225 167.63C50.2548 167.63 47.93 169.953 47.93 172.818C47.93 175.684 50.2548 178.007 53.1225 178.007ZM82.2799 172.818C82.2799 175.684 79.9552 178.007 77.0875 178.007C74.2198 178.007 71.895 175.684 71.895 172.818C71.895 169.953 74.2198 167.63 77.0875 167.63C79.9552 167.63 82.2799 169.953 82.2799 172.818ZM101.052 178.007C103.92 178.007 106.245 175.684 106.245 172.818C106.245 169.953 103.92 167.63 101.052 167.63C98.1848 167.63 95.8601 169.953 95.8601 172.818C95.8601 175.684 98.1848 178.007 101.052 178.007ZM130.21 172.818C130.21 175.684 127.885 178.007 125.017 178.007C122.15 178.007 119.825 175.684 119.825 172.818C119.825 169.953 122.15 167.63 125.017 167.63C127.885 167.63 130.21 169.953 130.21 172.818ZM148.982 178.007C151.85 178.007 154.175 175.684 154.175 172.818C154.175 169.953 151.85 167.63 148.982 167.63C146.115 167.63 143.79 169.953 143.79 172.818C143.79 175.684 146.115 178.007 148.982 178.007ZM178.14 172.818C178.14 175.684 175.815 178.007 172.948 178.007C170.08 178.007 167.755 175.684 167.755 172.818C167.755 169.953 170.08 167.63 172.948 167.63C175.815 167.63 178.14 169.953 178.14 172.818ZM196.913 178.007C199.78 178.007 202.105 175.684 202.105 172.818C202.105 169.953 199.78 167.63 196.913 167.63C194.045 167.63 191.72 169.953 191.72 172.818C191.72 175.684 194.045 178.007 196.913 178.007ZM226.07 172.818C226.07 175.684 223.745 178.007 220.878 178.007C218.01 178.007 215.685 175.684 215.685 172.818C215.685 169.953 218.01 167.63 220.878 167.63C223.745 167.63 226.07 169.953 226.07 172.818ZM244.843 178.007C247.71 178.007 250.035 175.684 250.035 172.818C250.035 169.953 247.71 167.63 244.843 167.63C241.975 167.63 239.65 169.953 239.65 172.818C239.65 175.684 241.975 178.007 244.843 178.007ZM274 172.818C274 175.684 271.675 178.007 268.808 178.007C265.94 178.007 263.615 175.684 263.615 172.818C263.615 169.953 265.94 167.63 268.808 167.63C271.675 167.63 274 169.953 274 172.818ZM154.175 5.19518C154.175 8.06062 151.85 10.3835 148.982 10.3835C146.115 10.3835 143.79 8.06062 143.79 5.19518C143.79 2.32974 146.115 0.00683594 148.982 0.00683594C151.85 0.00683594 154.175 2.32974 154.175 5.19518ZM172.948 10.3835C175.815 10.3835 178.14 8.06062 178.14 5.19518C178.14 2.32974 175.815 0.00683594 172.948 0.00683594C170.08 0.00683594 167.755 2.32974 167.755 5.19518C167.755 8.06062 170.08 10.3835 172.948 10.3835ZM202.105 5.19518C202.105 8.06062 199.78 10.3835 196.913 10.3835C194.045 10.3835 191.72 8.06062 191.72 5.19518C191.72 2.32974 194.045 0.00683594 196.913 0.00683594C199.78 0.00683594 202.105 2.32974 202.105 5.19518ZM220.878 10.3835C223.745 10.3835 226.07 8.06062 226.07 5.19518C226.07 2.32974 223.745 0.00683594 220.878 0.00683594C218.01 0.00683594 215.685 2.32974 215.685 5.19518C215.685 8.06062 218.01 10.3835 220.878 10.3835ZM250.035 5.19518C250.035 8.06062 247.71 10.3835 244.843 10.3835C241.975 10.3835 239.65 8.06062 239.65 5.19518C239.65 2.32974 241.975 0.00683594 244.843 0.00683594C247.71 0.00683594 250.035 2.32974 250.035 5.19518ZM268.808 10.3835C271.675 10.3835 274 8.06062 274 5.19518C274 2.32974 271.675 0.00683594 268.808 0.00683594C265.94 0.00683594 263.615 2.32974 263.615 5.19518C263.615 8.06062 265.94 10.3835 268.808 10.3835Z" fill="#AFBCD0"/>
</svg>
