<svg width="58" height="61" viewBox="0 0 58 61" fill="none" xmlns="http://www.w3.org/2000/svg">
<path fill-rule="evenodd" clip-rule="evenodd" d="M29.7456 57.6471C30.8014 56.8229 31.4749 55.6281 31.6327 54.2895L31.6342 54.2764C31.7457 53.32 32.2902 52.4682 33.1085 51.9667L37.394 49.3417L44.8541 44.7704C46.2473 43.9172 47.9201 43.6105 49.5103 43.9797C49.9998 44.0945 50.5082 44.1338 51.018 44.0916C52.3547 43.9811 53.5698 43.3503 54.4287 42.3212C56.2086 40.1889 56.7155 38.4433 56.9979 36.1016C57.0269 35.8662 56.7459 35.7252 56.5765 35.8894L53.144 39.2122C52.5416 39.795 51.6711 40.0043 50.8702 39.7601L50.64 39.6904C49.4422 39.3226 48.5081 38.3735 48.1605 37.1656L48.0606 36.8211C47.8231 35.9955 48.0591 35.106 48.6746 34.51L52.0825 31.2135C52.2519 31.0492 52.1216 30.7614 51.8869 30.7818C49.5451 30.9809 47.7883 31.4257 45.5999 33.1336C44.5442 33.9577 43.8721 35.1525 43.7128 36.4912L43.7114 36.5043C43.5999 37.4607 43.0568 38.3124 42.237 38.8139L37.9516 41.4389L30.4915 46.0088C29.0982 46.8635 27.4255 47.1701 25.8367 46.801C25.3457 46.6861 24.8388 46.6469 24.329 46.689C22.9908 46.7995 21.7772 47.4303 20.9169 48.4594C19.137 50.5917 18.6315 52.3374 18.3476 54.679C18.3187 54.9145 18.6011 55.0555 18.7705 54.8912L22.203 51.5685C22.3159 51.4595 22.4405 51.3679 22.5694 51.285C22.6128 51.2574 22.6548 51.2269 22.6997 51.2022C23.2356 50.9086 23.8757 50.8374 24.4753 51.0205L24.7056 51.0917C25.9048 51.458 26.8375 52.4072 27.1865 53.615L27.285 53.9595C27.4052 54.3723 27.4052 54.8011 27.298 55.2008C27.1923 55.6005 26.9794 55.9726 26.6709 56.2706L23.2646 59.5672C23.0951 59.7314 23.224 60.0192 23.4586 59.9989C25.8019 59.7997 27.5573 59.3549 29.7456 57.6471Z" stroke="#344154" stroke-width="1.3775" stroke-linecap="round" stroke-linejoin="round"/>
<path d="M44.9529 15.9814L30.3933 24.4176" stroke="#344154" stroke-width="1.3775" stroke-linecap="round" stroke-linejoin="round"/>
<path d="M22.6537 24.397L8.13031 15.9812L12.9531 13.2224" stroke="#344154" stroke-width="1.3775" stroke-linecap="round" stroke-linejoin="round"/>
<path d="M21.4534 45.0382L8.13062 37.3186V24.4172" stroke="#344154" stroke-width="1.3775" stroke-linecap="round" stroke-linejoin="round"/>
<path d="M44.9528 24.397V30.7808" stroke="#344154" stroke-width="1.3775" stroke-linecap="round" stroke-linejoin="round"/>
<path d="M26.5415 31.2358V40.8218" stroke="#344154" stroke-width="1.3775" stroke-linecap="round" stroke-linejoin="round"/>
<path d="M26.5414 26.6495L33.6713 30.7804L52.0819 20.1116L44.9534 15.9807L40.0481 13.1348" stroke="#344154" stroke-width="1.3775" stroke-linecap="round" stroke-linejoin="round"/>
<path d="M8.12989 15.9814L1 20.1123L19.412 30.7811L26.5419 26.6502" stroke="#344154" stroke-width="1.3775" stroke-linecap="round" stroke-linejoin="round"/>
<path d="M13.7437 19.2343C13.231 17.7983 12.9529 16.2503 12.9529 14.6383C12.9529 7.10621 19.0372 1 26.5422 1C34.0457 1 40.1299 7.10621 40.1299 14.6383C40.1299 16.2517 39.8504 17.7997 39.3392 19.2358" stroke="#344154" stroke-width="1.3775" stroke-linecap="round" stroke-linejoin="round"/>
<path fill-rule="evenodd" clip-rule="evenodd" d="M29.8467 14.6382C29.8467 16.4696 28.3665 17.9551 26.5417 17.9551C24.7154 17.9551 23.2353 16.4696 23.2353 14.6382C23.2353 12.8068 24.7154 11.3213 26.5417 11.3213C28.3665 11.3213 29.8467 12.8068 29.8467 14.6382Z" stroke="#344154" stroke-width="1.3775" stroke-linecap="round" stroke-linejoin="round"/>
<path fill-rule="evenodd" clip-rule="evenodd" d="M33.6876 14.6384C33.6876 18.5993 30.4883 21.8101 26.5417 21.8101C22.5952 21.8101 19.3945 18.5993 19.3945 14.6384C19.3945 10.6776 22.5952 7.4668 26.5417 7.4668C30.4883 7.4668 33.6876 10.6776 33.6876 14.6384Z" stroke="#344154" stroke-width="1.3775" stroke-linecap="round" stroke-linejoin="round"/>
<path d="M23.6743 8.06882L21.1557 2.11523" stroke="#344154" stroke-width="1.3775" stroke-linecap="round" stroke-linejoin="round"/>
<path d="M29.3385 8.06882L31.8571 2.11523" stroke="#344154" stroke-width="1.3775" stroke-linecap="round" stroke-linejoin="round"/>
<path fill-rule="evenodd" clip-rule="evenodd" d="M47.0808 20.0828L44.8823 18.8096L31.5929 26.6789L33.6451 27.8679L47.0808 20.0828Z" fill="#FF6666"/>
<path fill-rule="evenodd" clip-rule="evenodd" d="M6.00177 20.0828L8.20026 18.8096L21.4897 26.6789L19.4375 27.8679L6.00177 20.0828Z" fill="#FF6666"/>
</svg>
