<svg width="13" height="14" viewBox="0 0 13 14" fill="none" xmlns="http://www.w3.org/2000/svg">
<path fill-rule="evenodd" clip-rule="evenodd" d="M12.1284 6.76989C12.0427 5.17926 11.4652 3.82214 10.3958 2.69853C9.32643 1.57494 8.03978 0.973348 6.53588 0.893766V0C7.41092 0.0345636 8.2294 0.237711 8.99131 0.609443C9.75323 0.981189 10.4207 1.47073 10.9938 2.07808C11.5669 2.68544 12.0303 3.3894 12.3841 4.18996C12.7379 4.9905 12.9362 5.85048 12.9791 6.76989H12.1284ZM8.8949 6.76989C8.79622 6.12798 8.53112 5.57586 8.09959 5.11354C7.66805 4.65122 7.14681 4.3787 6.53588 4.29598V3.40223C7.37603 3.48494 8.09634 3.84359 8.69682 4.47818C9.29729 5.11275 9.64685 5.87666 9.74551 6.76989H8.8949ZM7.86562 12.8439C9.31023 13.6146 10.7395 14 12.1534 14C12.409 14 12.614 13.9189 12.7684 13.7566C12.9228 13.5944 13 13.3797 13 13.1125V10.9685C13 10.7349 12.9291 10.5286 12.7873 10.3495C12.6454 10.1704 12.4632 10.0578 12.2406 10.0119L10.3913 9.56738C10.2382 9.52654 10.0981 9.53072 9.97079 9.57993C9.84352 9.62914 9.72159 9.72182 9.60498 9.85795L7.78266 11.8088C6.63056 11.1303 5.59681 10.3161 4.68141 9.36632C3.766 8.41654 2.94503 7.29922 2.21849 6.01437L4.01796 4.20852C4.11393 4.1286 4.18882 4.00251 4.24264 3.83025C4.29646 3.65799 4.30543 3.4661 4.26956 3.25458L3.82556 1.12937C3.77741 0.90422 3.67045 0.718348 3.50469 0.571749C3.33892 0.42515 3.14839 0.35185 2.93309 0.35185H0.844649C0.590359 0.35185 0.386015 0.432963 0.231617 0.59519C0.0772056 0.757431 0 0.97283 0 1.24139C0 2.72697 0.366762 4.22948 1.10029 5.74891C1.8338 7.26833 2.78358 8.63802 3.94963 9.85797C5.11568 11.0779 6.42101 12.0732 7.86562 12.8439ZM1.78795 5.21171L3.34418 3.69752C3.38404 3.65563 3.41145 3.59804 3.4264 3.52475C3.44136 3.45144 3.44385 3.38338 3.43389 3.32055L3.03154 1.49692C3.02158 1.41314 2.98919 1.35031 2.93437 1.30843C2.87957 1.26654 2.8123 1.2456 2.73256 1.2456H1.09879C1.03898 1.2456 0.989155 1.26654 0.949302 1.30843C0.909436 1.35031 0.889503 1.40267 0.889503 1.46549C0.869564 2.00689 0.938328 2.58754 1.0958 3.20745C1.25327 3.82736 1.48398 4.49545 1.78795 5.21171ZM10.3113 12.8683C9.68895 12.7327 9.11864 12.5198 8.60039 12.2298L10.0878 10.5648C10.1377 10.5229 10.185 10.4941 10.2299 10.4784C10.2747 10.4627 10.327 10.4601 10.3868 10.4706L11.9102 10.8255C11.9899 10.836 12.0497 10.87 12.0896 10.9276C12.1294 10.9852 12.1494 11.0559 12.1494 11.1397V12.8816C12.1494 12.9445 12.1294 13.0002 12.0896 13.0489C12.0497 13.0976 11.9999 13.1152 11.9401 13.1015C11.4767 13.0816 10.9337 13.0039 10.3113 12.8683Z" fill="black"/>
</svg>
