<svg width="15" height="15" viewBox="0 0 15 15" fill="none" xmlns="http://www.w3.org/2000/svg">
<path fill-rule="evenodd" clip-rule="evenodd" d="M4.58609 14.4155C5.49044 14.8052 6.46485 15 7.50934 15C8.53243 15 9.49649 14.8022 10.4015 14.4066C11.3065 14.011 12.1044 13.4727 12.795 12.7918C13.4857 12.1109 14.0259 11.3182 14.4155 10.4139C14.8052 9.50956 15 8.53515 15 7.49066C15 6.46757 14.8036 5.50293 14.4108 4.59676C14.018 3.69061 13.4778 2.89574 12.7903 2.21216C12.1028 1.52858 11.3062 0.988996 10.4005 0.593398C9.49487 0.197799 8.53057 0 7.5076 0C6.45805 0 5.48375 0.19482 4.58469 0.584461C3.68564 0.974116 2.89455 1.51428 2.21144 2.20496C1.52834 2.89564 0.988996 3.69381 0.593398 4.59947C0.197799 5.50513 0 6.46943 0 7.4924C0 8.54195 0.196396 9.51602 0.589189 10.4146C0.981995 11.3132 1.52026 12.1072 2.20398 12.7968C2.88772 13.4863 3.68176 14.0259 4.58609 14.4155ZM2.63298 11.985C3.40221 11.4582 4.17686 11.0487 4.95692 10.7567C5.73699 10.4647 6.58498 10.3186 7.5009 10.3186C8.41683 10.3186 9.26197 10.4647 10.0363 10.7567C10.8107 11.0487 11.5958 11.4582 12.3916 11.985C12.9532 11.3323 13.3828 10.6379 13.6804 9.9015C13.9781 9.16515 14.1269 8.36465 14.1269 7.5C14.1269 5.65057 13.4848 4.08372 12.2005 2.79945C10.9163 1.51519 9.34943 0.873052 7.5 0.873052C5.65057 0.873052 4.08372 1.51519 2.79945 2.79945C1.51519 4.08372 0.873052 5.65057 0.873052 7.5C0.873052 8.36465 1.02265 9.16515 1.32186 9.9015C1.62106 10.6379 2.0581 11.3323 2.63298 11.985ZM7.49585 8.04624C6.76314 8.04624 6.14668 7.79476 5.64648 7.29179C5.14627 6.78883 4.89616 6.17099 4.89616 5.43828C4.89616 4.70555 5.14765 4.08909 5.65061 3.58889C6.15358 3.08869 6.77142 2.83859 7.50415 2.83859C8.23686 2.83859 8.85332 3.09007 9.35352 3.59304C9.85373 4.096 10.1038 4.71384 10.1038 5.44656C10.1038 6.17927 9.85235 6.79572 9.34939 7.29592C8.84642 7.79614 8.22858 8.04624 7.49585 8.04624ZM7.5 14.1269C8.22524 14.1269 8.9533 14.0042 9.68418 13.7587C10.415 13.5132 11.0853 13.1296 11.695 12.6079C11.0908 12.1634 10.4306 11.8162 9.71437 11.5664C8.99815 11.3166 8.26003 11.1917 7.5 11.1917C6.73997 11.1917 6.00067 11.3139 5.28207 11.5584C4.56347 11.8029 3.91622 12.1547 3.34033 12.614C3.92646 13.1264 4.58496 13.5067 5.31582 13.7548C6.0467 14.0029 6.77476 14.1269 7.5 14.1269ZM8.73287 6.67313C8.40093 7.00649 7.99068 7.17317 7.50213 7.17317C7.0136 7.17317 6.60265 7.00721 6.26928 6.67528C5.93592 6.34334 5.76924 5.93309 5.76924 5.44454C5.76924 4.956 5.9352 4.54505 6.26713 4.21169C6.59907 3.87832 7.00932 3.71164 7.49787 3.71164C7.9864 3.71164 8.39735 3.87761 8.73072 4.20953C9.06408 4.54148 9.23076 4.95172 9.23076 5.44027C9.23076 5.92882 9.0648 6.33977 8.73287 6.67313Z" fill="black"/>
</svg>
