<svg width="13" height="14" viewBox="0 0 13 14" fill="none" xmlns="http://www.w3.org/2000/svg">
<path fill-rule="evenodd" clip-rule="evenodd" d="M0.392624 13.594C0.654373 13.8647 0.971394 14 1.34369 14H6.5461V13.1246H1.34369C1.22277 13.1246 1.11193 13.0733 1.01117 12.9708C0.910397 12.8682 0.860011 12.7554 0.860011 12.6323V1.36768C0.860011 1.24461 0.910397 1.13179 1.01117 1.02922C1.11193 0.92666 1.22277 0.87538 1.34369 0.87538H6.5461V0H1.34369C0.971394 0 0.654373 0.13534 0.392624 0.40602C0.130875 0.6767 0 0.997253 0 1.36768V12.6323C0 13.0027 0.130875 13.3233 0.392624 13.594ZM9.39669 9.36308L10.0648 9.99232L13 7.0123L10.0406 3.9923L9.38762 4.61692L11.289 6.5523H4.37867V7.4277H11.2981L9.39669 9.36308Z" fill="black"/>
</svg>
