<svg width="60" height="60" viewBox="0 0 60 60" fill="none" xmlns="http://www.w3.org/2000/svg">
<g id="icon 2">
<rect id="Rectangle 217" width="60" height="60" rx="10" fill="#187DF1"/>
<g id="Layer 2"> 
<path id="Vector" d="M30.5205 34.8457C29.7022 34.8457 28.9022 34.603 28.2217 34.1484C27.5413 33.6937 27.011 33.0475 26.6978 32.2914C26.3846 31.5354 26.3027 30.7034 26.4623 29.9008C26.622 29.0982 27.0161 28.3609 27.5947 27.7822C28.1734 27.2036 28.9107 26.8095 29.7133 26.6498C30.5159 26.4902 31.3479 26.5721 32.1039 26.8853C32.86 27.1985 33.5062 27.7288 33.9609 28.4092C34.4155 29.0897 34.6582 29.8897 34.6582 30.708C34.6582 31.8054 34.2223 32.8578 33.4463 33.6338C32.6703 34.4098 31.6179 34.8457 30.5205 34.8457ZM30.5205 28.6392C30.1113 28.6392 29.7113 28.7605 29.3711 28.9878C29.0309 29.2152 28.7657 29.5383 28.6091 29.9163C28.4526 30.2943 28.4116 30.7103 28.4914 31.1116C28.5712 31.5129 28.7683 31.8816 29.0576 32.1709C29.347 32.4602 29.7156 32.6573 30.1169 32.7371C30.5182 32.8169 30.9342 32.776 31.3122 32.6194C31.6903 32.4628 32.0134 32.1976 32.2407 31.8574C32.468 31.5172 32.5894 31.1172 32.5894 30.708C32.5894 30.1593 32.3714 29.6331 31.9834 29.2451C31.5954 28.8571 31.0692 28.6392 30.5205 28.6392Z" fill="white"/>
<path id="Vector_2" d="M45.0035 30.5115C44.7462 30.5128 44.4976 30.4181 44.3063 30.246C44.1151 30.0738 43.9948 29.8366 43.9691 29.5805C43.9677 26.014 42.5496 22.5941 40.0268 20.0732C37.5039 17.5523 34.0829 16.1368 30.5164 16.1382C26.9499 16.1395 23.53 17.5576 21.0091 20.0805C18.4881 22.6034 17.0727 26.0244 17.074 29.5909C17.0483 29.8469 16.9281 30.0842 16.7368 30.2563C16.5455 30.4285 16.2969 30.5231 16.0396 30.5218C15.8946 30.5226 15.7511 30.4928 15.6183 30.4345C15.4856 30.3761 15.3666 30.2906 15.269 30.1833C15.1715 30.076 15.0976 29.9494 15.0521 29.8117C15.0067 29.674 14.9907 29.5283 15.0052 29.384C15.2912 25.4753 17.0458 21.8196 19.9164 19.1513C22.787 16.4831 26.561 15 30.4802 15C34.3994 15 38.1734 16.4831 41.044 19.1513C43.9146 21.8196 45.6692 25.4753 45.9552 29.384C45.9679 29.5207 45.9533 29.6587 45.9122 29.7897C45.8711 29.9207 45.8043 30.0423 45.7157 30.1472C45.6271 30.2522 45.5185 30.3385 45.3963 30.401C45.274 30.4635 45.1405 30.5011 45.0035 30.5115ZM38.797 45.19H22.2462C21.4231 45.19 20.6338 44.863 20.0518 44.2811C19.4698 43.6991 19.1429 42.9098 19.1429 42.0867C19.1429 41.2637 19.4698 40.4744 20.0518 39.8924C20.6338 39.3104 21.4231 38.9834 22.2462 38.9834H38.797C39.62 38.9834 40.4093 39.3104 40.9913 39.8924C41.5733 40.4744 41.9002 41.2637 41.9002 42.0867C41.9002 42.9098 41.5733 43.6991 40.9913 44.2811C40.4093 44.863 39.62 45.19 38.797 45.19ZM22.2462 41.0523C21.9718 41.0523 21.7087 41.1613 21.5147 41.3553C21.3207 41.5493 21.2117 41.8124 21.2117 42.0867C21.2117 42.3611 21.3207 42.6242 21.5147 42.8182C21.7087 43.0122 21.9718 43.1211 22.2462 43.1211H38.797C39.0713 43.1211 39.3344 43.0122 39.5284 42.8182C39.7224 42.6242 39.8314 42.3611 39.8314 42.0867C39.8314 41.8124 39.7224 41.5493 39.5284 41.3553C39.3344 41.1613 39.0713 41.0523 38.797 41.0523H22.2462Z" fill="white"/>
<path id="Vector_3" d="M31.5532 33.8125H29.4844V40.0191H31.5532V33.8125Z" fill="white"/>
<path id="Vector_4" d="M39.7313 30.8394C39.4787 30.8415 39.2341 30.7512 39.0436 30.5854C38.853 30.4196 38.7297 30.1899 38.6969 29.9394C38.4697 27.9173 37.5055 26.0498 35.9885 24.6937C34.4715 23.3375 32.508 22.5878 30.4732 22.5878C28.4384 22.5878 26.4749 23.3375 24.9579 24.6937C23.4408 26.0498 22.4767 27.9173 22.2495 29.9394C22.2167 30.1899 22.0934 30.4196 21.9028 30.5854C21.7123 30.7512 21.4676 30.8415 21.2151 30.8394C21.0671 30.8407 20.9207 30.8102 20.7855 30.75C20.6504 30.6898 20.5297 30.6013 20.4317 30.4905C20.3336 30.3798 20.2605 30.2492 20.2172 30.1078C20.1739 29.9663 20.1614 29.8172 20.1807 29.6705C20.4368 27.1187 21.6317 24.7531 23.5336 23.0326C25.4354 21.3121 27.9086 20.3594 30.4732 20.3594C33.0378 20.3594 35.511 21.3121 37.4128 23.0326C39.3147 24.7531 40.5096 27.1187 40.7657 29.6705C40.785 29.8172 40.7725 29.9663 40.7292 30.1078C40.6859 30.2492 40.6128 30.3798 40.5147 30.4905C40.4167 30.6013 40.296 30.6898 40.1609 30.75C40.0257 30.8102 39.8792 30.8407 39.7313 30.8394Z" fill="white"/>
</g>
</g>
</svg>
