<svg width="140" height="20" viewBox="0 0 140 20" fill="none" xmlns="http://www.w3.org/2000/svg">
<g clip-path="url(#clip0_2303_3474)">
<mask id="mask0_2303_3474" style="mask-type:luminance" maskUnits="userSpaceOnUse" x="-1" y="-1" width="141" height="21">
<path d="M139.992 -0.0234375H-0.0078125V19.2011H139.992V-0.0234375Z" fill="white"/>
</mask>
<g mask="url(#mask0_2303_3474)">
<path d="M38.9812 1.84639H15.5875V-0.015625H40.6522V19.2261H-0.0078125V17.3641H25.0563L27.2844 14.8812H3.89116V13.0192H28.9553L31.1833 10.5363H7.79012V8.67429H32.8542L35.0823 6.19134H11.6891V4.32931H36.7532L38.9812 1.84639Z" fill="#191D1A"/>
<path d="M88.8278 14.3821C87.8983 15.3025 86.6773 15.8458 85.3025 15.8458C82.2449 15.8458 79.9392 13.1617 79.9392 9.60142C79.9392 6.04117 82.2449 3.35707 85.3025 3.35707C86.6765 3.35707 87.8983 3.90044 88.8278 4.82009L90.4493 3.01287C89.2665 1.19697 87.1167 -0.0234375 84.9944 -0.0234375C80.3628 -0.0234375 76.7344 4.20387 76.7344 9.60078C76.7344 14.9977 80.3628 19.225 84.9944 19.225C87.1167 19.225 89.2665 18.0046 90.4493 16.1887L88.8278 14.3821Z" fill="#191D1A"/>
<path d="M57.2538 9.31808C56.2888 8.55016 55.0713 8.16848 53.8933 7.79826C52.1841 7.26157 50.7087 6.7984 50.7087 5.29061C50.7087 4.19719 51.4692 3.08973 52.9229 3.08973C54.267 3.08973 55.1768 3.85165 55.626 5.35477L55.6866 5.55795L58.046 2.92866C57.673 2.24962 57.1812 1.65746 56.5886 1.18293C55.6039 0.393612 54.3833 -0.0234375 53.0597 -0.0234375C51.5615 -0.0234375 50.1809 0.542654 49.1722 1.56991C48.1628 2.59783 47.6068 4.00003 47.6068 5.51919C47.6068 7.15196 48.1351 8.36968 49.2225 9.24192C50.1581 9.99248 51.3468 10.3741 52.4959 10.7437C54.2436 11.3051 55.7532 11.7903 55.7532 13.415C55.7532 15.2678 54.357 16.1118 53.0597 16.1118C51.3642 16.1118 50.0298 14.9242 49.3977 12.8543L49.3323 12.6398L46.9062 15.3433C48.011 17.7326 50.2745 19.225 52.9229 19.225C54.5495 19.225 56.0638 18.5948 57.1872 17.4506C58.3069 16.3103 58.9234 14.7825 58.9234 13.1484C58.9234 11.5142 58.3771 10.2117 57.2538 9.31808Z" fill="#191D1A"/>
<path d="M120.441 9.31808C119.476 8.55016 118.258 8.16848 117.081 7.79826C115.372 7.26157 113.896 6.7984 113.896 5.29061C113.896 4.19719 114.657 3.08973 116.11 3.08973C117.455 3.08973 118.365 3.85165 118.813 5.35477L118.874 5.55795L121.234 2.92866C120.861 2.24962 120.369 1.65746 119.776 1.18293C118.791 0.393612 117.571 -0.0234375 116.247 -0.0234375C114.749 -0.0234375 113.369 0.542654 112.36 1.56991C111.35 2.59783 110.794 4.00003 110.794 5.51919C110.794 7.15196 111.323 8.36968 112.41 9.24192C113.346 9.99248 114.534 10.3741 115.684 10.7437C117.431 11.3051 118.94 11.7903 118.94 13.415C118.94 15.2678 117.545 16.1118 116.247 16.1118C114.551 16.1118 113.217 14.9242 112.585 12.8543L112.52 12.6398L110.094 15.3433C111.199 17.7326 113.462 19.225 116.11 19.225C117.737 19.225 119.251 18.5948 120.374 17.4506C121.494 16.3103 122.111 14.7825 122.111 13.1484C122.111 11.5142 121.564 10.2117 120.441 9.31808Z" fill="#191D1A"/>
<path d="M136.727 18.6235H139.965V0.578077H136.727V3.03025C135.546 1.20499 133.389 -0.0234375 131.26 -0.0234375C126.628 -0.0234375 123 4.20387 123 9.6008C123 14.9977 126.628 19.225 131.26 19.225C133.389 19.225 135.546 17.9966 136.727 16.1714V18.6235ZM131.567 15.8452C128.511 15.8452 126.204 13.1611 126.204 9.6008C126.204 6.0405 128.511 3.3564 131.567 3.3564C134.625 3.3564 136.931 6.0405 136.931 9.6008C136.931 13.1611 134.625 15.8452 131.567 15.8452Z" fill="#191D1A"/>
<path d="M104.804 18.6235H108.043V0.578077H104.804V3.03025C103.623 1.20499 101.467 -0.0234375 99.3381 -0.0234375C94.7059 -0.0234375 91.0781 4.20387 91.0781 9.6008C91.0781 14.9977 94.7059 19.225 99.3381 19.225C101.467 19.225 103.623 17.9966 104.804 16.1714V18.6235ZM99.6455 15.8452C96.5879 15.8452 94.2822 13.1611 94.2822 9.6008C94.2822 6.0405 96.5879 3.3564 99.6455 3.3564C102.703 3.3564 105.009 6.0405 105.009 9.6008C105.009 13.1611 102.703 15.8452 99.6455 15.8452Z" fill="#191D1A"/>
<path d="M71.3952 0.578125V11.4321C71.3952 14.2191 70.0301 15.8834 67.7427 15.8834C65.4552 15.8834 64.0902 14.2191 64.0902 11.4321V0.578125H60.8516V11.7369C60.8516 13.871 61.5568 15.7958 62.8373 17.1572C64.092 18.4906 65.8337 19.225 67.7421 19.225C71.7346 19.225 74.6324 16.0918 74.6324 11.775V0.578125H71.3939H71.3952Z" fill="#191D1A"/>
</g>
</g>
<defs>
<clipPath id="clip0_2303_3474">
<rect width="140" height="20" fill="white"/>
</clipPath>
</defs>
</svg>
