<svg width="144" height="26" viewBox="0 0 144 26" fill="none" xmlns="http://www.w3.org/2000/svg">
<g clip-path="url(#clip0_2303_3402)">
<path d="M14.1527 13.177C14.5991 13.177 14.9617 12.817 14.9617 12.3736C14.9617 11.9303 14.5991 11.5703 14.1527 11.5703C13.7063 11.5703 13.3438 11.9303 13.3438 12.3736C13.3438 12.817 13.7063 13.177 14.1527 13.177Z" fill="#007F5F"/>
<path d="M31.6641 21.0928L34.5843 3.63281H40.7807C46.0842 3.63281 48.8501 7.01615 47.9236 12.5495C47.0308 17.9128 43.3385 21.0928 37.9813 21.0928H31.6641ZM38.1961 17.9295C41.5091 17.9295 43.6305 16.1295 44.2918 12.1495C44.9262 8.35615 43.5197 6.79615 40.2235 6.79615H37.7698L35.9169 17.9295H38.1961Z" fill="black"/>
<path d="M50.8895 8.01031H54.4341L54.0481 10.2936H54.1857C54.9409 8.67365 56.2702 7.82031 57.7739 7.82031C58.462 7.82031 59.0528 7.99031 59.4724 8.29698L57.8914 11.2803C57.5725 11.127 57.1798 10.9903 56.6797 10.9903C55.2128 10.9903 53.8634 12.0903 53.5714 13.6936L52.3429 21.1003H48.6875L50.8895 8.01031Z" fill="black"/>
<path d="M58.5344 14.5381C59.1856 10.5148 62.0958 7.82812 66.0868 7.82812C70.1047 7.82812 72.1456 10.5715 71.4776 14.6481C70.8163 18.6548 67.9061 21.3481 63.9252 21.3481C59.9005 21.3515 57.8563 18.6048 58.5344 14.5381ZM67.7987 14.5215C68.1579 12.2615 67.5235 10.6015 65.721 10.6015C63.8681 10.6015 62.5959 12.3248 62.22 14.6348C61.8507 16.8848 62.4952 18.5381 64.2977 18.5381C66.1405 18.5381 67.4094 16.8315 67.7987 14.5215Z" fill="black"/>
<path d="M74.4942 8.00594H78.0992L77.7401 10.2059H77.8945C78.5457 9.13927 79.8447 7.83594 82.05 7.83594C84.9434 7.83594 87.0044 10.0693 86.2559 14.5693C85.5275 18.9493 82.7784 21.3126 79.7742 21.3126C77.6461 21.3126 76.7532 20.0926 76.4276 19.0026H76.3001L75.1319 26.0093H71.4766L74.4942 8.00594ZM79.1029 18.4226C80.9054 18.4226 82.1171 16.8359 82.5199 14.5526C82.8791 12.2859 82.1943 10.7259 80.3817 10.7259C78.6128 10.7259 77.3507 12.2193 76.9747 14.5526C76.5988 16.8859 77.344 18.4226 79.1029 18.4226Z" fill="black"/>
<path d="M90.081 3.63281H93.7364L92.6555 10.1961H92.7596C93.4108 9.12948 94.7064 7.82615 96.9151 7.82615C99.8085 7.82615 101.87 10.0595 101.121 14.5595C100.393 18.9395 97.6435 21.3028 94.6393 21.3028C92.5112 21.3028 91.6183 20.0828 91.2927 18.9928H91.1115L90.7691 21.0895H87.1641L90.081 3.63281ZM93.9713 18.4161C95.7739 18.4161 97.0091 16.8295 97.3884 14.5461C97.7476 12.2795 97.0628 10.7195 95.2502 10.7195C93.4813 10.7195 92.2192 12.2128 91.8432 14.5461C91.4639 16.8828 92.2091 18.4161 93.9713 18.4161Z" fill="black"/>
<path d="M112.618 7.99219H116.273L114.074 21.0855H110.563L110.959 18.7055H110.822C110.006 20.2389 108.375 21.2555 106.391 21.2555C103.739 21.2555 102.252 19.3889 102.752 16.3289L104.162 7.99219H107.818L106.529 15.6822C106.28 17.2255 107.009 18.1889 108.402 18.1889C109.714 18.1889 111.07 17.2689 111.355 15.5122L112.618 7.99219Z" fill="black"/>
<path d="M118.714 7.99719H122.37L120.171 21.0905H116.516L118.714 7.99719ZM119.144 4.45052C119.265 3.43719 120.252 2.61719 121.332 2.61719C122.423 2.61719 123.212 3.43719 123.101 4.45052C122.981 5.45719 122.004 6.29052 120.913 6.29052C119.822 6.29052 119.013 5.45719 119.144 4.45052Z" fill="black"/>
<path d="M126.265 21.0928H122.609L125.53 3.63281H129.185L126.265 21.0928Z" fill="black"/>
<path d="M129.318 14.5595C130.066 10.0595 132.879 7.82615 135.782 7.82615C137.988 7.82615 138.83 9.12948 139.129 10.1961H139.24L140.337 3.63281H143.993L141.072 21.0928H137.467L137.82 18.9961H137.665C136.971 20.0861 135.665 21.3061 133.544 21.3061C130.529 21.3028 128.589 18.9428 129.318 14.5595ZM138.599 14.5428C138.985 12.2061 138.213 10.7161 136.437 10.7161C134.624 10.7161 133.433 12.2761 133.064 14.5428C132.678 16.8261 133.356 18.4128 135.158 18.4128C136.917 18.4128 138.213 16.8795 138.599 14.5428Z" fill="black"/>
<path d="M12.4727 0H0.952172V0.01C0.3983 0.02 0.015625 0.453333 0.015625 1.21333C0.015625 1.21333 0.0223386 1.85333 0.0223386 1.88C0.0223386 7.66 1.09652 11.78 7.74298 11.78V12.9767C1.09652 12.9767 0.0223386 17.1 0.0223386 22.88C0.0223386 22.9067 0.015625 23.5267 0.015625 23.5267C0.015625 24.2867 0.3983 24.72 0.952172 24.73V24.74H12.4727C19.3542 24.74 24.9298 19.2033 24.9298 12.37C24.9298 5.53667 19.3508 0 12.4727 0ZM18.6626 12.7167C17.4811 13.89 16.2894 14.9733 14.705 15.3033C13.8691 15.48 12.9897 15.4367 12.1337 15.2633C11.2609 16.03 8.92457 16.1833 8.92457 16.1833C8.92457 16.1833 9.0622 14.66 9.19647 14.1367C8.91786 13.9767 8.65939 13.8167 8.42441 13.6533C8.30021 13.5667 8.22636 13.4267 8.22636 13.2767V11.5033C8.22636 11.38 8.27671 11.2633 8.36063 11.1767C8.37741 11.16 8.9145 10.8 9.19312 10.6433C9.05884 10.12 8.92122 8.59667 8.92122 8.59667C8.92122 8.59667 11.2575 8.75 12.1303 9.51667C12.9863 9.34333 13.8658 9.3 14.7016 9.47667C16.286 9.80667 17.5281 10.9367 18.6626 12.0633C18.8439 12.2433 18.8439 12.5367 18.6626 12.7167Z" fill="#007F5F"/>
</g>
<defs>
<clipPath id="clip0_2303_3402">
<rect width="144" height="26" fill="white"/>
</clipPath>
</defs>
</svg>
