<svg width="152" height="24" viewBox="0 0 152 24" fill="none" xmlns="http://www.w3.org/2000/svg">
<path d="M13.573 11.981C12.3544 11.6357 9.26159 10.088 8.57002 4.11564C8.34001 2.12913 6.80924 0.453125 4.83396 0.453125H0.13078C0.13078 0.453125 -1.16106 6.53804 4.37556 9.66044C6.70928 10.9766 8.63169 11.255 8.63169 12.0707C8.63169 12.8864 6.70928 13.1648 4.37556 14.4809C-1.16106 17.6045 0.13078 23.6894 0.13078 23.6894H4.83396C6.80924 23.6894 8.34001 22.0135 8.57002 20.0269C9.26159 14.0546 12.3544 12.5069 13.573 12.1616C13.6128 12.1489 13.64 12.1133 13.64 12.0707C13.64 12.0281 13.6128 11.9925 13.573 11.9798V11.981Z" fill="#2B2B2B"/>
<path d="M140.719 9.91179H142.154C142.263 9.59014 142.406 9.1465 142.526 8.78045L142.866 7.81555H146.086L146.415 8.79156C146.546 9.15756 146.678 9.56796 146.787 9.91179H148.288C148.178 9.56796 148.003 9.1465 147.872 8.79156L145.166 1.51562H143.852C143.786 1.72636 143.709 1.9371 143.622 2.18111L141.157 8.72499C141.037 9.07993 140.85 9.55685 140.719 9.91179ZM143.205 6.8173L144.487 3.13497L145.747 6.8173H143.205ZM149.286 9.91179H150.699V8.3701V3.05733V1.51562H149.286V3.05733V8.3701V9.91179Z" fill="#2B2B2B"/>
<path d="M39.6144 20.888V20.7989C38.8393 20.2574 38.7293 19.4725 38.7293 17.877V6.33855C38.7293 4.5614 38.775 4.04728 38.885 3.37036L38.8613 3.28125L35.6474 3.66341V3.75253C36.3125 4.27007 36.4699 4.9864 36.4699 6.33855V17.8736C36.4699 19.4708 36.3599 20.2574 35.5391 20.7955V20.888H39.6144Z" fill="#2B2B2B"/>
<path fill-rule="evenodd" clip-rule="evenodd" d="M44.2821 21.1876C46.4671 21.1876 47.5401 20.4987 48.4591 19.0917C48.5183 19.0026 48.6165 18.9495 48.7214 18.958C48.867 18.9683 48.9888 19.0626 48.9888 19.2391C48.9888 20.3958 49.7826 21.0745 50.754 21.0745C52.4447 21.0745 52.5498 19.5458 52.5498 19.5458C52.3061 19.7463 52.0624 19.8389 51.7506 19.8389C51.0858 19.8389 50.7083 19.3453 50.7083 18.0857V13.2085C50.7083 10.4871 48.8907 9.5 46.6092 9.5C43.9724 9.5 41.3983 10.8933 41.2222 13.5015H43.3445C43.7034 13.5015 43.9877 13.2068 44.03 12.8469C44.2229 11.2103 45.0894 10.5351 46.4129 10.5351C47.7364 10.5351 48.52 11.164 48.52 12.3585C48.498 13.7878 47.469 14.0877 45.4178 14.684L45.3755 14.696C42.6286 15.5066 41.0547 16.2469 41.0547 18.2931C41.0547 20.2262 42.4052 21.1961 44.2906 21.1961H44.2838L44.2821 21.1893V21.1876ZM43.2396 17.9932C43.2396 16.6668 44.1721 16.1715 45.9441 15.5889C47.293 15.1382 48.2035 14.8246 48.5149 14.1048V15.1621C48.5149 17.8596 47.073 19.7498 44.9913 19.7498C44.0384 19.7498 43.2396 19.2322 43.2396 17.9966H43.2379V17.9949L43.2396 17.9932Z" fill="#2B2B2B"/>
<path d="M58.5004 21.283C61.6908 21.283 63.5287 19.1683 63.9281 16.4058H62.711C62.3117 18.4073 61.1575 19.8897 59.01 19.8897C56.4388 19.8897 55.4794 17.7099 55.4794 15.0776C55.4794 12.4453 56.4388 10.5808 58.7204 10.5808C60.5516 10.5808 61.3724 11.8301 61.7109 13.1548C61.7908 13.4684 62.0598 13.7066 62.3797 13.7066H63.84C63.5287 11.3914 61.6671 9.52344 58.6766 9.52344C55.4624 9.52344 52.8594 11.681 52.8594 15.4135C52.8594 19.146 55.3305 21.283 58.4973 21.283H58.5004Z" fill="#2B2B2B"/>
<path d="M90.9362 21.2078C95.6122 21.2078 98.6924 18.2859 99.3797 13.6743H97.9375C97.3403 17.2062 95.0134 19.5438 91.4 19.5438C87.1671 19.5438 85.2107 16.2174 85.2107 12.1233C85.2107 8.02926 87.3449 4.81433 91.1341 4.81433C93.9129 4.81433 95.8646 6.53317 96.655 9.27345C96.7395 9.5699 97.0018 9.78413 97.3063 9.78413H99.2241C98.2729 5.66948 95.0809 3.625 91.1341 3.625C85.9908 3.625 82.3047 7.15696 82.3047 12.4404C82.3047 17.3416 85.5693 21.2095 90.9326 21.2095H90.9342V21.2112L90.9362 21.2078Z" fill="#2B2B2B"/>
<path fill-rule="evenodd" clip-rule="evenodd" d="M114.641 21.2813C118.143 21.2813 120.479 18.8975 120.479 15.393C120.479 11.8884 118.145 9.52344 114.641 9.52344C111.138 9.52344 108.805 11.8609 108.805 15.393C108.805 18.9249 111.159 21.2813 114.641 21.2813ZM111.28 15.393C111.28 12.3357 112.47 10.5808 114.664 10.5808C116.857 10.5808 118.001 12.3339 118.001 15.393C118.001 18.4519 116.813 20.2291 114.664 20.2291C112.515 20.2291 111.28 18.4313 111.28 15.393Z" fill="#2B2B2B"/>
<path d="M121.944 12.0587L125.025 20.8964H126.726C126.771 20.5365 126.859 20.2451 127.056 19.6385L129.117 12.9601L131.619 20.8998H133.294C133.335 20.5656 133.424 20.2966 133.552 19.9195L133.575 19.8476L133.595 19.791L133.607 19.7533L136.31 11.9953C136.686 10.8711 137.041 10.3313 137.573 9.97308V9.90625H134.586V9.97308C135.251 10.2199 135.205 10.8728 134.829 11.9765L132.744 18.3172L130.241 10.357H128.956L126.519 18.2966L124.392 11.9336C124.038 10.8522 123.993 10.2473 124.659 9.97825V9.91141H120.609V9.97825C121.207 10.2713 121.518 10.9465 121.941 12.0707V12.0604L121.944 12.0587Z" fill="#2B2B2B"/>
<path fill-rule="evenodd" clip-rule="evenodd" d="M30.796 11.9072C30.796 11.9072 30.7808 11.9021 30.7706 11.9004C30.6674 11.8746 30.4203 11.8147 30.4203 11.5576C30.4203 11.328 30.6149 11.2423 30.7469 11.1977C32.6357 10.4899 33.4785 9.56626 33.4785 7.74288C33.4785 5.02148 30.7131 3.875 26.966 3.875H21.1406V3.94183C22.0038 4.50565 22.1155 5.19971 22.1155 6.88603V17.8864C22.1155 19.4836 22.0055 20.2719 21.1406 20.8083V20.8974H27.1014C31.3105 20.8974 34.3196 19.4116 34.3196 16.1093C34.3196 13.974 32.8862 12.4882 30.7943 11.9089L30.796 11.9072ZM26.768 4.97863C29.2051 4.97863 30.8671 5.76523 30.8671 7.90055C30.8671 10.0358 29.1594 11.3451 26.7206 11.3451H24.5255V4.97863H26.7663H26.768ZM26.9457 19.7972H24.5289V12.1968H26.7663C29.7602 12.1968 31.5745 13.477 31.5745 16.0407C31.5745 18.8084 29.6688 19.7955 26.9423 19.7955H26.944V19.7972H26.9457Z" fill="#2B2B2B"/>
<path d="M103.419 12.9128C103.522 12.9299 103.621 12.8802 103.653 12.7808L103.661 12.7791C104.29 10.9317 105.722 9.78181 108.359 9.75781V11.2351C108.359 11.6104 108.051 11.9069 107.681 11.9222C105.003 12.0354 103.883 13.4663 103.883 15.4028V17.9665C103.883 19.5415 103.993 20.2818 104.858 20.8233V20.8902H100.711V20.801C101.486 20.2629 101.62 19.4764 101.62 17.8792V12.9094C101.62 11.2231 101.486 10.529 100.711 9.9652V9.89665H104.191C104.127 10.0389 104.038 10.1777 103.941 10.3285C103.632 10.8066 103.238 11.4236 103.238 12.702C103.231 12.8048 103.309 12.8957 103.419 12.9128Z" fill="#2B2B2B"/>
<path d="M72.0786 15.7109C71.6607 15.5721 71.4186 15.5001 71.4186 15.279C71.4186 15.0374 71.6592 14.9585 72.0807 14.7752C73.3157 14.2388 74.7358 13.238 74.7358 10.8747C74.7358 10.1738 74.675 9.65971 74.675 9.65971H72.8942C72.5037 9.65971 72.1786 9.97849 72.1786 10.3743C72.1786 10.9656 72.1466 11.4129 72.1327 11.6494C72.0162 13.6304 70.4844 14.8506 68.3858 14.8506V6.33853C68.3858 4.5614 68.4316 4.02329 68.5414 3.34808L68.3858 3.28125L65.3731 3.66341V3.75252C66.0166 4.27007 66.1264 4.96926 66.1264 6.33853V17.8719C66.1264 19.4691 66.0166 20.2557 65.1953 20.7938V20.8829H69.2947C68.496 20.343 68.3858 19.4674 68.3858 17.8736V15.7657C70.9533 15.7657 72.8231 17.3783 73.0504 19.7313C73.1297 20.547 73.1854 20.9 74.0015 20.9H75.6364C75.6364 20.9 75.7091 20.3294 75.7091 19.9026C75.7091 17.2498 73.3786 16.141 72.0786 15.7143V15.7109Z" fill="#2B2B2B"/>
</svg>
