<svg width="126" height="32" viewBox="0 0 126 32" fill="none" xmlns="http://www.w3.org/2000/svg">
<path fill-rule="evenodd" clip-rule="evenodd" d="M115.338 16.8486C115.865 16.3316 116.284 15.7159 116.573 15.0367C116.861 14.3575 117.013 13.6281 117.019 12.8904C117.013 12.1999 116.863 11.5181 116.579 10.8886C116.288 10.2197 115.868 9.61429 115.344 9.10646C114.884 8.56767 114.307 8.14133 113.657 7.86022C112.643 7.43132 111.524 7.31342 110.443 7.52156C109.362 7.72969 108.368 8.25443 107.586 9.02897C106.553 10.0554 105.967 11.4478 105.957 12.9033C105.95 14.3926 106.528 15.8254 107.567 16.8938C108.072 17.4091 108.676 17.8184 109.342 18.0978C110.008 18.3772 110.723 18.5211 111.446 18.521C112.18 18.5179 112.907 18.3697 113.584 18.0849C114.26 17.8001 114.874 17.3843 115.389 16.8615M105.491 18.831C104.709 18.0545 104.089 17.1308 103.666 16.1134C103.243 15.0959 103.026 14.0049 103.028 12.9033C103.037 11.8181 103.261 10.7455 103.688 9.74776C104.116 8.75005 104.737 7.84721 105.517 7.09182C107.084 5.54666 109.192 4.67324 111.394 4.65746C112.503 4.66327 113.601 4.88251 114.627 5.30318C115.634 5.71374 116.548 6.32195 117.316 7.09182C118.075 7.88955 118.687 8.81402 119.126 9.8232C119.544 10.7948 119.763 11.8396 119.773 12.8968C119.764 14.5494 119.268 16.1629 118.346 17.5349C117.423 18.9069 116.116 19.9765 114.587 20.6095C113.059 21.2425 111.377 21.4107 109.753 21.0932C108.13 20.7757 106.636 19.9865 105.459 18.8245L105.491 18.831ZM96.5698 19.9287V6.01347C96.5573 5.8206 96.5863 5.6273 96.6548 5.44653C96.7232 5.26576 96.8296 5.10169 96.9667 4.96534C97.1039 4.82898 97.2686 4.72347 97.4499 4.6559C97.6312 4.58832 97.8249 4.56024 98.0179 4.57352C98.2054 4.57651 98.3904 4.61754 98.5615 4.69414C98.7327 4.77073 98.8865 4.88128 99.0135 5.01906C99.2649 5.2886 99.4017 5.64514 99.395 6.01347V19.9158C99.3813 20.2799 99.233 20.626 98.9786 20.8872C98.7243 21.1484 98.382 21.3062 98.0179 21.3299C97.6392 21.3358 97.2729 21.1946 96.9964 20.936C96.8516 20.8073 96.7344 20.6504 96.6522 20.475C96.5699 20.2996 96.5243 20.1093 96.518 19.9158L96.5698 19.9287ZM80.7887 9.1452C80.273 9.63939 79.8616 10.2316 79.5784 10.887C79.2953 11.5423 79.1463 12.2476 79.1401 12.9614C79.1569 14.4221 79.7454 15.8183 80.7796 16.8513C81.8138 17.8842 83.2117 18.472 84.6742 18.4887C85.3868 18.4886 86.0921 18.3456 86.7484 18.0683C87.4047 17.791 87.9986 17.3851 88.495 16.8744C89.5168 15.8279 90.0877 14.4232 90.0854 12.9614C90.089 12.2515 89.9551 11.5477 89.691 10.8886C89.4186 10.2431 89.0159 9.66056 88.5079 9.17748C87.9944 8.63349 87.3795 8.19482 86.6977 7.88605C86.0389 7.61871 85.3335 7.48482 84.6224 7.49216C83.161 7.50368 81.7637 8.09349 80.737 9.13228L80.7887 9.1452ZM92.3352 9.88132C92.7635 10.8517 92.9837 11.9009 92.9817 12.9614C92.9774 14.0502 92.7569 15.1273 92.3329 16.1303C91.909 17.1334 91.2901 18.0426 90.5121 18.8051C88.951 20.3625 86.8353 21.2379 84.6289 21.2395C83.3897 21.2468 82.1651 20.9731 81.0473 20.4388C80.3448 20.0988 79.6922 19.6643 79.1078 19.1474V26.2502C79.1119 26.4368 79.0793 26.6224 79.0116 26.7963C78.9439 26.9703 78.8426 27.1292 78.7134 27.264C78.4444 27.5204 78.0848 27.6601 77.7131 27.6529C77.3413 27.6456 76.9875 27.4919 76.7287 27.2253C76.4726 26.9619 76.3269 26.6108 76.3214 26.2438V12.8129C76.3835 10.6619 77.2889 8.62127 78.8427 7.13056C80.4032 5.62319 82.4903 4.7824 84.6612 4.78661C85.7673 4.77772 86.8648 4.9816 87.8937 5.38712C88.875 5.78066 89.7578 6.38464 90.4797 7.15639C91.2452 7.94 91.857 8.85986 92.2835 9.8684L92.3352 9.88132ZM69.4426 19.9158V6.01347C69.4303 5.82118 69.4591 5.62846 69.5272 5.44817C69.5953 5.26789 69.7011 5.10416 69.8375 4.96791C69.9739 4.83166 70.1378 4.72601 70.3183 4.658C70.4988 4.59 70.6918 4.5612 70.8843 4.57352C71.0729 4.57601 71.2589 4.61679 71.4312 4.69339C71.6035 4.76999 71.7584 4.88079 71.8864 5.01906C72.1378 5.2886 72.2746 5.64514 72.2678 6.01347V19.9158C72.2541 20.2809 72.1048 20.6279 71.8491 20.8893C71.5934 21.1507 71.2495 21.3077 70.8843 21.3299C70.5077 21.3348 70.1438 21.1936 69.8693 20.936C69.7338 20.8028 69.6263 20.644 69.553 20.4688C69.4797 20.2936 69.4422 20.1056 69.4426 19.9158ZM53.6616 9.13228C53.1479 9.62768 52.7382 10.2203 52.4563 10.8755C52.1744 11.5307 52.0259 12.2354 52.0194 12.9485C52.0329 14.408 52.6185 15.8042 53.6506 16.8375C54.6828 17.8708 56.0793 18.459 57.5406 18.4758C58.2531 18.4757 58.9585 18.3327 59.6148 18.0554C60.271 17.7781 60.865 17.3722 61.3614 16.8615C62.3832 15.8149 62.9541 14.4103 62.9518 12.9485C62.9554 12.2386 62.8215 11.5348 62.5574 10.8757C62.2951 10.2396 61.9083 9.66224 61.4196 9.17748C60.9087 8.63608 60.2986 8.19767 59.6223 7.88605C58.9597 7.6267 58.252 7.50158 57.5406 7.51799C56.0856 7.52715 54.6925 8.1069 53.6616 9.13228ZM65.2145 9.8684C65.6397 10.8398 65.8598 11.8883 65.861 12.9485C65.8525 15.1481 64.9725 17.2549 63.4134 18.8085C61.8543 20.3621 59.7429 21.2361 57.5406 21.2395C56.3014 21.2468 55.0767 20.9731 53.9589 20.4388C53.2564 20.0988 52.6039 19.6643 52.0194 19.1474V26.2502C52.0244 26.6257 51.8803 26.9879 51.6186 27.2576C51.3496 27.5139 50.99 27.6537 50.6182 27.6464C50.2465 27.6392 49.8927 27.4855 49.6339 27.2188C49.3778 26.9555 49.2321 26.6044 49.2266 26.2373V12.8129C49.2853 10.6663 50.1806 8.62751 51.7221 7.13056C53.2825 5.62319 55.3697 4.7824 57.5406 4.78661C58.6467 4.77772 59.7441 4.9816 60.7731 5.38712C61.7544 5.78066 62.6371 6.38464 63.3591 7.15639C64.1387 7.93781 64.7658 8.85752 65.208 9.8684H65.2145Z" fill="#2B2B2B"/>
<mask id="mask0_2303_3445" style="mask-type:luminance" maskUnits="userSpaceOnUse" x="5" y="2" width="20" height="21">
<path d="M20.5342 7.18563L7.31977 2.52355C7.12089 2.45107 6.90724 2.42848 6.69757 2.45775C6.48791 2.48702 6.28864 2.56727 6.11728 2.69143C5.9421 2.81124 5.79914 2.97229 5.70105 3.16036C5.60295 3.34843 5.55273 3.55773 5.55483 3.76978V21.1589C5.55166 21.3721 5.60137 21.5827 5.69951 21.772C5.79765 21.9613 5.94118 22.1233 6.11728 22.2438C6.28921 22.3669 6.48874 22.4459 6.6984 22.4741C6.90805 22.5022 7.12141 22.4786 7.31977 22.4052L20.4243 17.7948L24.174 8.46415L20.5342 7.18563Z" fill="white"/>
</mask>
<g mask="url(#mask0_2303_3445)">
<path d="M19.9382 -5.37511L-2.91406 6.96094L9.74433 30.3536L32.5966 18.0175L19.9382 -5.37511Z" fill="url(#paint0_linear_2303_3445)"/>
</g>
<path fill-rule="evenodd" clip-rule="evenodd" d="M24.1586 8.47656L20.4219 17.8072L20.5447 17.762L31.9813 13.7262C32.2407 13.6356 32.4655 13.4667 32.6245 13.2428C32.7835 13.019 32.869 12.7513 32.869 12.4768C32.869 12.2023 32.7835 11.9346 32.6245 11.7108C32.4655 11.4869 32.2407 11.318 31.9813 11.2273L24.1586 8.47656Z" fill="white"/>
<mask id="mask1_2303_3445" style="mask-type:luminance" maskUnits="userSpaceOnUse" x="14" y="0" width="31" height="32">
<path d="M24.1575 8.46538L31.9737 11.2161C32.2302 11.3097 32.4517 11.4797 32.6082 11.7032C32.7647 11.9267 32.8486 12.1929 32.8486 12.4656C32.8486 12.7383 32.7647 13.0045 32.6082 13.228C32.4517 13.4515 32.2302 13.6215 31.9737 13.7151L20.5306 17.7508L20.4078 17.796L14.8867 31.5239C14.873 31.5601 14.8713 31.5996 14.8818 31.6368C14.8922 31.674 14.9144 31.7069 14.9449 31.7306C14.9754 31.7541 15.0129 31.7669 15.0515 31.7669C15.0902 31.7669 15.1277 31.7541 15.1582 31.7306L32.0577 20.2239C34.7924 18.3642 37.8374 16.6983 38.5227 12.3074L39.305 7.10292C39.5347 5.62944 40.1326 4.23757 41.0433 3.05591C41.9541 1.87426 43.1484 0.940963 44.5158 0.342256C44.5539 0.326501 44.5853 0.297745 44.6042 0.261096C44.6232 0.224447 44.6285 0.182279 44.6192 0.142084C44.6116 0.101635 44.5899 0.0651856 44.5579 0.0391864C44.526 0.0131872 44.4859 -0.000684733 44.4447 2.60167e-05H33.8227C29.5687 2.60167e-05 27.0926 1.15586 25.4505 5.23679L24.1575 8.46538Z" fill="white"/>
</mask>
<g mask="url(#mask1_2303_3445)">
<path d="M25.7106 -14.3065L-0.445312 20.2109L33.7995 46.0975L59.9554 11.5801L25.7106 -14.3065Z" fill="url(#paint1_linear_2303_3445)"/>
</g>
<path fill-rule="evenodd" clip-rule="evenodd" d="M35.0487 5.17718C35.05 4.83692 34.9501 4.50395 34.7616 4.2205C34.5731 3.93706 34.3046 3.71591 33.9901 3.58511C33.6756 3.45431 33.3293 3.41975 32.9952 3.48582C32.661 3.55188 32.354 3.7156 32.1131 3.9562C31.8722 4.1968 31.7083 4.50344 31.6421 4.83723C31.576 5.17101 31.6106 5.5169 31.7415 5.83101C31.8725 6.14512 32.0939 6.41331 32.3777 6.60155C32.6615 6.78979 32.9948 6.88961 33.3355 6.88833C33.7894 6.88663 34.2241 6.7058 34.5451 6.38527C34.866 6.06473 35.047 5.63048 35.0487 5.17718Z" fill="white"/>
<defs>
<linearGradient id="paint0_linear_2303_3445" x1="3.54119" y1="18.7677" x2="25.9662" y2="6.63293" gradientUnits="userSpaceOnUse">
<stop stop-color="#FF4294"/>
<stop offset="1" stop-color="#CE63FF"/>
</linearGradient>
<linearGradient id="paint1_linear_2303_3445" x1="42.9881" y1="-1.57551" x2="16.6718" y2="33.2378" gradientUnits="userSpaceOnUse">
<stop stop-color="#19FFD9"/>
<stop offset="0.49" stop-color="#21C3ED"/>
<stop offset="1" stop-color="#2990FF"/>
</linearGradient>
</defs>
</svg>
