<svg width="126" height="28" viewBox="0 0 126 28" fill="none" xmlns="http://www.w3.org/2000/svg">
<g clip-path="url(#clip0_2303_3462)">
<path d="M31.4229 17.6575L31.3959 17.7884C30.4657 22.8097 27.0668 26.3512 22.0589 27.8896C21.4427 25.0892 18.9883 22.9262 15.8835 22.9262C12.783 22.9262 10.331 25.0834 9.71053 27.8777C4.72731 26.3346 1.34445 22.8024 0.413655 17.7999C0.187412 16.7278 0.0703125 15.5894 0.0703125 14.3906C0.0703125 13.1981 0.186169 12.0664 0.410174 11.001C1.67795 4.14013 7.56012 0.0859375 15.8589 0.0859375L15.9035 0.0862183L15.9484 0.0859375C24.2517 0.0859375 30.1359 4.14455 31.3994 11.0123C31.5599 11.7777 31.6644 12.5773 31.7103 13.4091L22.0822 13.4093C21.4962 10.5134 18.9436 8.33378 15.8835 8.33378C12.3901 8.33378 9.55823 11.1743 9.55823 14.6783C9.55823 18.1822 12.3901 21.0228 15.8835 21.0228C19.0544 21.0228 21.6804 18.6825 22.138 15.63L31.6941 15.6303C31.645 16.3293 31.5539 17.0055 31.4229 17.6575Z" fill="black"/>
<path d="M44.3477 13.0555C45.49 13.0555 46.4947 12.8736 47.3616 12.5096C48.2285 12.1456 48.9104 11.5726 49.4078 10.7908C49.6631 10.4133 49.8579 9.97179 49.9925 9.46627C50.1268 8.96074 50.2074 8.40465 50.2344 7.79801V7.69692H46.4241V7.73735C46.3702 8.47881 46.1654 9.0214 45.8093 9.36515C45.453 9.70893 44.9726 9.8808 44.3678 9.8808C43.7091 9.8808 43.1817 9.64827 42.7853 9.18317C42.3886 8.71808 42.1905 8.03394 42.1905 7.13071V6.80719C42.1905 5.82307 42.3886 5.09175 42.7853 4.61318C43.1817 4.1346 43.7159 3.89532 44.388 3.89532C44.9928 3.89532 45.4665 4.06047 45.8093 4.39075C46.152 4.72101 46.3501 5.2434 46.404 5.95789V6.03877H50.2142V5.97811C50.1739 4.77832 49.9017 3.79758 49.3977 3.03592C48.8937 2.27426 48.2116 1.70469 47.3515 1.32722C46.9214 1.15197 46.4577 1.01716 45.9605 0.922799C45.463 0.828433 44.9323 0.78125 44.3678 0.78125C43.2253 0.78125 42.2107 1.00705 41.3237 1.45866C40.4366 1.91027 39.7376 2.58095 39.227 3.47068C38.9715 3.91555 38.78 4.41771 38.6525 4.97716C38.5247 5.53661 38.4609 6.14662 38.4609 6.80719V7.17117C38.4609 9.12588 38.9715 10.5953 39.9931 11.5794C41.0145 12.5635 42.466 13.0555 44.3477 13.0555ZM55.1947 12.7522V7.55535C55.1947 6.85436 55.2688 6.29827 55.4165 5.8871C55.5644 5.47595 55.8265 5.18274 56.2027 5.00749C56.4043 4.91311 56.6429 4.84235 56.9184 4.79516C57.194 4.74797 57.5065 4.7244 57.8558 4.7244H59.2267V0.862135H58.5614C57.5131 0.862135 56.6865 1.06098 56.0817 1.45866C55.4769 1.85635 55.0805 2.51353 54.8923 3.43023L54.3883 1.0239H51.4449V12.7522H55.1947ZM64.3284 12.9746C65.202 12.9746 65.9278 12.7758 66.5056 12.3781C67.0837 11.9805 67.5204 11.4446 67.816 10.7705L68.1588 12.7522H71.2634V1.0239H67.5338V7.13071C67.5338 7.9126 67.3995 8.54957 67.1306 9.04163C66.8619 9.53368 66.4048 9.77969 65.7597 9.77969C65.1012 9.77969 64.6645 9.56064 64.4493 9.12251C64.2343 8.68438 64.1267 8.10807 64.1267 7.3936V1.0239H60.4576V8.48554C60.4576 9.9145 60.7769 11.0199 61.4152 11.8018C62.0538 12.5837 63.0247 12.9746 64.3284 12.9746ZM76.3247 1.0239L78.2399 3.99642L80.1551 1.0239H84.2879L80.397 6.60496L84.55 12.7522H80.3567L78.2198 9.43594L76.0828 12.7522H71.7686L76.0828 6.64541L72.1718 1.0239H76.3247ZM46.5561 27.0756V15.4079C46.4891 15.4484 46.3412 15.4888 46.1126 15.5293C45.8843 15.5697 45.6356 15.5967 45.3667 15.6102C45.2324 15.6236 45.1081 15.6337 44.9939 15.6405C44.8796 15.6472 44.7687 15.6506 44.6611 15.6506C44.4595 15.6506 44.2211 15.6405 43.9454 15.6203C43.67 15.6 43.418 15.5765 43.1896 15.5495C43.0687 15.536 42.9745 15.5192 42.9072 15.4989C42.8401 15.4787 42.7864 15.4551 42.7461 15.4282V27.0756H46.5561ZM52.1618 27.0756V20.9485C52.1618 20.1397 52.3064 19.4926 52.5952 19.0073C52.8843 18.522 53.3782 18.2794 54.077 18.2794C54.7491 18.2794 55.2027 18.4951 55.4378 18.9264C55.6731 19.3578 55.7906 19.9374 55.7906 20.6654V27.0756H59.5V19.6139C59.5 18.1985 59.1641 17.093 58.492 16.2977C57.8202 15.5023 56.8323 15.1046 55.5285 15.1046C54.6281 15.1046 53.8754 15.3068 53.2706 15.7113C52.6658 16.1157 52.2089 16.6549 51.8997 17.329L51.557 15.3473H48.4322V27.0756H52.1618ZM67.5854 27.0756L72.1214 15.3473H68.3313L65.9524 22.4652L63.6138 15.3473H59.8439L64.1985 27.0756H67.5854ZM77.7875 27.3789C79.4943 27.3789 80.8181 27.0149 81.759 26.2869C82.6997 25.5589 83.3315 24.5817 83.654 23.355H79.7632C79.6286 23.6919 79.4104 23.9616 79.108 24.1636C78.8056 24.3659 78.3989 24.4671 77.8883 24.4671C77.1759 24.4671 76.6215 24.285 76.2251 23.921C75.8285 23.557 75.5833 23.0111 75.4892 22.2831H83.7347V20.9687C83.7347 19.9037 83.5296 18.9298 83.1198 18.0468C82.7098 17.1638 82.0748 16.4527 81.2147 15.9135C80.7845 15.6438 80.2873 15.4416 79.7228 15.3068C79.1584 15.172 78.5334 15.1046 77.848 15.1046C76.6384 15.1046 75.5833 15.3473 74.6828 15.8326C73.7822 16.3179 73.0834 17.0122 72.5862 17.9154C72.3307 18.3602 72.1427 18.8523 72.0217 19.3915C71.9008 19.9307 71.8403 20.5172 71.8403 21.1508V21.4944C71.8403 23.3009 72.3241 24.7332 73.2918 25.7916C74.2595 26.8499 75.7579 27.3789 77.7875 27.3789ZM80.1059 19.9779H75.4892C75.6102 19.2769 75.8723 18.7546 76.2755 18.4108C76.6787 18.067 77.2162 17.8951 77.8883 17.8951C78.5737 17.8951 79.0944 18.0771 79.4507 18.4411C79.8068 18.8051 80.0252 19.3174 80.1059 19.9779ZM90.1669 27.3991C91.3765 27.3991 92.381 27.2205 93.1808 26.8632C93.9804 26.506 94.5819 26.0242 94.9851 25.4174C95.1731 25.1074 95.3178 24.7771 95.4186 24.4266C95.5194 24.0761 95.5698 23.7055 95.5698 23.3144C95.5698 22.627 95.4352 22.0709 95.1666 21.6462C94.8977 21.2215 94.5482 20.8878 94.1182 20.6452C93.6747 20.4026 93.1942 20.2205 92.6768 20.0993C92.1592 19.9779 91.6452 19.8836 91.1346 19.8162C90.2743 19.7083 89.6057 19.5938 89.1286 19.4724C88.6514 19.3511 88.413 19.1084 88.413 18.7444C88.413 18.4614 88.5271 18.2254 88.7557 18.0367C88.984 17.848 89.3806 17.7536 89.9451 17.7536C90.4827 17.7536 90.9093 17.8581 91.2253 18.067C91.5411 18.276 91.7394 18.5894 91.82 19.0073H95.4286C95.2538 17.8345 94.7432 16.8875 93.8965 16.1662C93.0498 15.445 91.746 15.0844 89.9854 15.0844C88.3323 15.0844 87.0688 15.445 86.1954 16.1662C85.3217 16.8875 84.885 17.821 84.885 18.9669C84.885 19.6678 85.016 20.234 85.2781 20.6654C85.5402 21.0968 85.893 21.4271 86.3365 21.6564C86.7664 21.899 87.2402 22.0775 87.7578 22.1921C88.2751 22.3068 88.7824 22.3977 89.2798 22.4652C89.7637 22.5191 90.2138 22.5798 90.6306 22.6471C91.0471 22.7145 91.3765 22.8157 91.6184 22.9504C91.7527 23.0178 91.8502 23.1022 91.9107 23.2032C91.9712 23.3043 92.0014 23.4223 92.0014 23.557C92.0014 23.8807 91.8704 24.1335 91.6083 24.3154C91.3462 24.4973 90.9262 24.5883 90.3483 24.5883C89.7435 24.5883 89.263 24.4671 88.9069 24.2243C88.5506 23.9817 88.3122 23.6246 88.1912 23.1527H84.4011C84.5892 24.5008 85.1604 25.5454 86.1147 26.2869C87.0688 27.0285 88.4196 27.3991 90.1669 27.3991ZM104.179 27.0756V23.6583H103.433C102.855 23.6583 102.422 23.6111 102.133 23.5167C101.844 23.4223 101.646 23.2201 101.538 22.9101C101.498 22.7482 101.464 22.5426 101.437 22.2933C101.411 22.0439 101.397 21.7507 101.397 21.4136V18.6029H104.179V15.3473H101.397V12.4152H98.373C98.3596 12.6579 98.3427 12.9241 98.3226 13.2139C98.3024 13.5038 98.279 13.77 98.252 14.0127C98.1983 14.5115 98.0874 14.8586 97.9194 15.0541C97.7515 15.2495 97.4793 15.3742 97.1029 15.4282C96.9013 15.4686 96.7166 15.4989 96.5485 15.5192C96.3806 15.5394 96.1823 15.5495 95.9538 15.5495V18.6029H97.9295V22.1416C97.9295 23.355 98.0504 24.322 98.2923 25.0434C98.5343 25.7645 98.9712 26.2869 99.6027 26.6104C99.9253 26.7588 100.312 26.8734 100.762 26.9542C101.212 27.0351 101.733 27.0756 102.324 27.0756H104.179ZM110.813 27.3789C112.009 27.3789 113.047 27.1598 113.928 26.7216C114.808 26.2836 115.497 25.6265 115.994 24.7501C116.236 24.3187 116.417 23.83 116.538 23.2841C116.659 22.7382 116.72 22.1416 116.72 21.4944V21.1306C116.72 19.8229 116.475 18.7209 115.984 17.8244C115.493 16.9279 114.805 16.2505 113.917 15.7922C113.474 15.563 112.997 15.3911 112.486 15.2765C111.975 15.1619 111.424 15.1046 110.833 15.1046C109.691 15.1046 108.673 15.3304 107.779 15.782C106.885 16.2337 106.189 16.9043 105.692 17.7941C105.437 18.2389 105.245 18.7411 105.118 19.3005C104.99 19.8601 104.926 20.47 104.926 21.1306V21.4944C104.926 23.4492 105.433 24.9187 106.448 25.9028C107.463 26.8869 108.918 27.3789 110.813 27.3789ZM110.833 24.2042C110.161 24.2042 109.617 23.9716 109.2 23.5065C108.783 23.0415 108.575 22.3573 108.575 21.4541V21.1306C108.575 20.1465 108.783 19.4151 109.2 18.9366C109.617 18.458 110.168 18.2187 110.853 18.2187C111.566 18.2187 112.113 18.4647 112.496 18.9568C112.879 19.4488 113.071 20.1733 113.071 21.1306V21.4541C113.071 22.3709 112.862 23.0583 112.446 23.5167C112.043 23.9751 111.505 24.2042 110.833 24.2042ZM121.902 27.0756V21.8788C121.902 21.1778 121.976 20.6217 122.124 20.2106C122.272 19.7994 122.534 19.5061 122.91 19.3309C123.112 19.2365 123.35 19.1657 123.626 19.1185C123.901 19.0714 124.214 19.0478 124.563 19.0478H125.934V15.1855H125.269C124.22 15.1855 123.394 15.3844 122.789 15.782C122.184 16.1797 121.788 16.8369 121.6 17.7536L121.096 15.3473H118.152V27.0756H121.902Z" fill="black"/>
</g>
<defs>
<clipPath id="clip0_2303_3462">
<rect width="126" height="28" fill="white"/>
</clipPath>
</defs>
</svg>
