<svg width="273" height="568" viewBox="0 0 273 568" fill="none" xmlns="http://www.w3.org/2000/svg">
<g clip-path="url(#clip0_2796_5225)">
<rect x="10" y="10" width="252.975" height="547.483" rx="30" fill="white"/>
<path d="M27.5968 65.5858L38.6094 65.5858" stroke="#200E32" stroke-width="0.943936" stroke-linecap="round" stroke-linejoin="round"/>
<path d="M32.0391 70.0101L27.5973 65.5875L32.0391 61.1641" stroke="#200E32" stroke-width="0.943936" stroke-linecap="round" stroke-linejoin="round"/>
<path d="M30.954 112.312C30.0352 112.312 29.2045 112.155 28.462 111.84C27.732 111.525 27.1531 111.072 26.7251 110.481C26.2972 109.889 26.077 109.191 26.0644 108.385H28.8962C28.9339 108.926 29.1227 109.354 29.4625 109.669C29.8149 109.983 30.2932 110.141 30.8973 110.141C31.514 110.141 31.9986 109.996 32.351 109.707C32.7034 109.405 32.8796 109.014 32.8796 108.536C32.8796 108.146 32.76 107.825 32.5209 107.573C32.2818 107.322 31.9797 107.126 31.6147 106.988C31.2623 106.837 30.7715 106.673 30.1422 106.497C29.2863 106.245 28.5878 106 28.0466 105.761C27.518 105.509 27.0587 105.138 26.6685 104.647C26.2909 104.144 26.1021 103.477 26.1021 102.646C26.1021 101.866 26.2972 101.186 26.6874 100.607C27.0775 100.028 27.625 99.5876 28.3298 99.2855C29.0346 98.9709 29.8401 98.8136 30.7463 98.8136C32.1056 98.8136 33.2068 99.1471 34.0501 99.8141C34.9059 100.469 35.3779 101.387 35.466 102.57H32.5587C32.5335 102.117 32.3384 101.746 31.9734 101.457C31.621 101.155 31.149 101.003 30.5575 101.003C30.0415 101.003 29.6262 101.136 29.3115 101.4C29.0095 101.664 28.8584 102.048 28.8584 102.552C28.8584 102.904 28.9717 103.2 29.1982 103.439C29.4374 103.665 29.7268 103.854 30.0667 104.005C30.4191 104.144 30.9099 104.307 31.5392 104.496C32.395 104.748 33.0936 104.999 33.6347 105.251C34.1759 105.503 34.6416 105.88 35.0318 106.384C35.4219 106.887 35.617 107.548 35.617 108.366C35.617 109.071 35.4345 109.725 35.0695 110.33C34.7045 110.934 34.1696 111.418 33.4648 111.783C32.76 112.136 31.9231 112.312 30.954 112.312ZM39.2488 100.475C38.7831 100.475 38.393 100.33 38.0783 100.041C37.7763 99.7386 37.6252 99.3673 37.6252 98.9268C37.6252 98.4863 37.7763 98.1213 38.0783 97.8319C38.393 97.5298 38.7831 97.3788 39.2488 97.3788C39.7145 97.3788 40.0983 97.5298 40.4004 97.8319C40.7151 98.1213 40.8724 98.4863 40.8724 98.9268C40.8724 99.3673 40.7151 99.7386 40.4004 100.041C40.0983 100.33 39.7145 100.475 39.2488 100.475ZM40.5514 101.721V112.18H37.9084V101.721H40.5514ZM47.2594 101.551C48.0397 101.551 48.7257 101.708 49.3172 102.023C49.9087 102.325 50.3744 102.721 50.7142 103.212V101.721H53.3761V112.255C53.3761 113.224 53.1811 114.086 52.7909 114.842C52.4007 115.609 51.8155 116.213 51.0352 116.654C50.2549 117.107 49.3109 117.334 48.2034 117.334C46.7182 117.334 45.4974 116.987 44.5409 116.295C43.597 115.603 43.0621 114.659 42.9362 113.463H45.5603C45.6988 113.942 45.9946 114.319 46.4476 114.596C46.9133 114.886 47.4734 115.03 48.1278 115.03C48.8956 115.03 49.5186 114.798 49.9968 114.332C50.4751 113.879 50.7142 113.187 50.7142 112.255V110.632C50.3744 111.122 49.9024 111.532 49.2983 111.859C48.7068 112.186 48.0272 112.35 47.2594 112.35C46.3784 112.35 45.5729 112.123 44.843 111.67C44.113 111.217 43.534 110.581 43.1061 109.763C42.6908 108.933 42.4831 107.982 42.4831 106.913C42.4831 105.855 42.6908 104.918 43.1061 104.1C43.534 103.282 44.1067 102.652 44.8241 102.212C45.554 101.771 46.3658 101.551 47.2594 101.551ZM50.7142 106.95C50.7142 106.308 50.5884 105.761 50.3367 105.308C50.0849 104.842 49.7451 104.49 49.3172 104.251C48.8893 103.999 48.4299 103.873 47.9391 103.873C47.4482 103.873 46.9951 103.993 46.5798 104.232C46.1645 104.471 45.8246 104.823 45.5603 105.289C45.3086 105.742 45.1828 106.283 45.1828 106.913C45.1828 107.542 45.3086 108.096 45.5603 108.574C45.8246 109.04 46.1645 109.398 46.5798 109.65C47.0077 109.902 47.4608 110.028 47.9391 110.028C48.4299 110.028 48.8893 109.908 49.3172 109.669C49.7451 109.417 50.0849 109.065 50.3367 108.612C50.5884 108.146 50.7142 107.592 50.7142 106.95ZM61.7533 101.57C62.9993 101.57 64.0061 101.966 64.7739 102.759C65.5416 103.54 65.9255 104.634 65.9255 106.044V112.18H63.2824V106.403C63.2824 105.572 63.0748 104.937 62.6594 104.496C62.2441 104.043 61.6778 103.816 60.9604 103.816C60.2304 103.816 59.6514 104.043 59.2235 104.496C58.8082 104.937 58.6005 105.572 58.6005 106.403V112.18H55.9575V101.721H58.6005V103.024C58.9529 102.57 59.3997 102.218 59.9409 101.966C60.4947 101.702 61.0988 101.57 61.7533 101.57ZM74.2777 100.475C73.812 100.475 73.4218 100.33 73.1072 100.041C72.8051 99.7386 72.6541 99.3673 72.6541 98.9268C72.6541 98.4863 72.8051 98.1213 73.1072 97.8319C73.4218 97.5298 73.812 97.3788 74.2777 97.3788C74.7434 97.3788 75.1272 97.5298 75.4293 97.8319C75.7439 98.1213 75.9012 98.4863 75.9012 98.9268C75.9012 99.3673 75.7439 99.7386 75.4293 100.041C75.1272 100.33 74.7434 100.475 74.2777 100.475ZM75.5803 101.721V112.18H72.9373V101.721H75.5803ZM83.9874 101.57C85.2334 101.57 86.2402 101.966 87.008 102.759C87.7757 103.54 88.1596 104.634 88.1596 106.044V112.18H85.5166V106.403C85.5166 105.572 85.3089 104.937 84.8936 104.496C84.4782 104.043 83.9119 103.816 83.1945 103.816C82.4645 103.816 81.8856 104.043 81.4576 104.496C81.0423 104.937 80.8346 105.572 80.8346 106.403V112.18H78.1916V101.721H80.8346V103.024C81.187 102.57 81.6338 102.218 82.175 101.966C82.7288 101.702 83.3329 101.57 83.9874 101.57Z" fill="#1F1F1F"/>
<rect x="25.4162" y="131.135" width="222.769" height="31.4645" rx="15.7323" stroke="#E9E9E9" stroke-width="0.629291"/>
<rect x="25.1016" y="223.961" width="224.027" height="33.9817" rx="16.9908" fill="#1F1F1F"/>
<rect x="25.1016" y="271.156" width="224.027" height="33.9817" rx="16.9908" fill="#3B5896"/>
<rect x="25.1016" y="500.219" width="224.027" height="33.9817" rx="16.9908" fill="#0373F3"/>
<g clip-path="url(#clip1_2796_5225)">
<path d="M83.6256 288.149C83.6256 284.326 80.5265 281.227 76.7034 281.227C72.8804 281.227 69.7812 284.326 69.7812 288.149C69.7812 291.604 72.3126 294.468 75.6219 294.987V290.15H73.8643V288.149H75.6219V286.624C75.6219 284.889 76.6553 283.931 78.2365 283.931C78.9936 283.931 79.786 284.066 79.786 284.066V285.769H78.9131C78.0533 285.769 77.785 286.303 77.785 286.851V288.149H79.7049L79.398 290.15H77.785V294.987C81.0943 294.468 83.6256 291.604 83.6256 288.149Z" fill="white"/>
</g>
<g clip-path="url(#clip2_2796_5225)">
<path d="M88.0185 244.82C87.8092 245.304 87.5614 245.749 87.2742 246.158C86.8828 246.717 86.5624 247.103 86.3154 247.317C85.9326 247.669 85.5224 247.85 85.0831 247.86C84.7678 247.86 84.3875 247.77 83.9448 247.588C83.5007 247.407 83.0926 247.317 82.7194 247.317C82.328 247.317 81.9082 247.407 81.4593 247.588C81.0096 247.77 80.6473 247.865 80.3704 247.874C79.9491 247.892 79.5293 247.707 79.1102 247.317C78.8427 247.084 78.5082 246.684 78.1074 246.117C77.6774 245.512 77.3238 244.811 77.0469 244.011C76.7503 243.147 76.6016 242.31 76.6016 241.5C76.6016 240.573 76.802 239.772 77.2036 239.102C77.5192 238.563 77.939 238.138 78.4645 237.826C78.99 237.514 79.5578 237.356 80.1692 237.345C80.5038 237.345 80.9425 237.449 81.4877 237.652C82.0314 237.856 82.3805 237.96 82.5335 237.96C82.648 237.96 83.0358 237.839 83.6932 237.598C84.3149 237.374 84.8396 237.281 85.2694 237.318C86.4342 237.412 87.3093 237.871 87.8912 238.698C86.8495 239.329 86.3342 240.213 86.3445 241.347C86.3539 242.231 86.6743 242.966 87.3041 243.55C87.5896 243.82 87.9083 244.03 88.263 244.178C88.186 244.402 88.1049 244.615 88.0185 244.82ZM85.3472 234.308C85.3472 235.001 85.0942 235.647 84.59 236.245C83.9816 236.957 83.2456 237.368 82.4476 237.303C82.4374 237.22 82.4315 237.132 82.4315 237.041C82.4315 236.376 82.7208 235.665 83.2347 235.083C83.4912 234.788 83.8175 234.544 84.2132 234.348C84.608 234.156 84.9814 234.049 85.3327 234.031C85.3429 234.124 85.3472 234.216 85.3472 234.308V234.308Z" fill="white"/>
</g>
<path d="M47.0262 145.492L44.5657 147.473C44.1 147.838 43.4473 147.838 42.9816 147.473L40.5 145.492" stroke="#ADADAD" stroke-width="0.943936" stroke-linecap="round" stroke-linejoin="round"/>
<path fill-rule="evenodd" clip-rule="evenodd" d="M41.0383 142.289H46.4768C47.261 142.298 48.0073 142.629 48.5421 143.206C49.0768 143.783 49.3532 144.556 49.3069 145.343V149.109C49.3532 149.896 49.0768 150.668 48.5421 151.245C48.0073 151.822 47.261 152.154 46.4768 152.162H41.0383C39.354 152.162 38.2188 150.792 38.2188 149.109V145.343C38.2188 143.659 39.354 142.289 41.0383 142.289Z" stroke="#ADADAD" stroke-width="0.943936" stroke-linecap="round" stroke-linejoin="round"/>
<path d="M59.5197 143.735V146.081H62.0771V146.836H59.5197V149.253H62.3792V150.008H58.6034V142.98H62.3792V143.735H59.5197ZM66.4539 144.39C67.1251 144.39 67.6688 144.594 68.085 145.004C68.5012 145.406 68.7093 145.99 68.7093 146.756V150.008H67.8031V146.887C67.8031 146.336 67.6655 145.917 67.3903 145.628C67.1151 145.333 66.7392 145.185 66.2626 145.185C65.7793 145.185 65.3933 145.336 65.1047 145.638C64.8228 145.94 64.6818 146.38 64.6818 146.957V150.008H63.7656V144.49H64.6818V145.276C64.863 144.994 65.108 144.775 65.4168 144.621C65.7323 144.467 66.078 144.39 66.4539 144.39ZM71.3236 145.245V148.498C71.3236 148.766 71.3806 148.957 71.4947 149.071C71.6089 149.179 71.8069 149.233 72.0888 149.233H72.7634V150.008H71.9378C71.4276 150.008 71.045 149.89 70.7899 149.655C70.5349 149.42 70.4073 149.035 70.4073 148.498V145.245H69.6925V144.49H70.4073V143.101H71.3236V144.49H72.7634V145.245H71.3236ZM78.9079 147.038C78.9079 147.212 78.8978 147.397 78.8777 147.591H74.4676C74.5012 148.135 74.6857 148.561 75.0214 148.87C75.3637 149.172 75.7765 149.323 76.2598 149.323C76.6558 149.323 76.9848 149.233 77.2465 149.051C77.515 148.863 77.703 148.615 77.8104 148.306H78.7971C78.6494 148.836 78.3541 149.269 77.9111 149.605C77.468 149.934 76.9176 150.098 76.2598 150.098C75.7362 150.098 75.2664 149.981 74.8502 149.746C74.4407 149.511 74.1185 149.179 73.8836 148.749C73.6487 148.313 73.5312 147.809 73.5312 147.239C73.5312 146.668 73.6453 146.168 73.8735 145.739C74.1018 145.309 74.4206 144.98 74.8301 144.752C75.2462 144.517 75.7228 144.4 76.2598 144.4C76.7834 144.4 77.2465 144.514 77.6493 144.742C78.052 144.97 78.3608 145.286 78.5756 145.688C78.7971 146.084 78.9079 146.534 78.9079 147.038ZM77.9614 146.846C77.9614 146.497 77.8842 146.199 77.7298 145.95C77.5754 145.695 77.364 145.504 77.0955 145.376C76.8337 145.242 76.5417 145.175 76.2195 145.175C75.7564 145.175 75.3603 145.323 75.0314 145.618C74.7092 145.913 74.5246 146.323 74.4777 146.846H77.9614ZM81.0335 145.386C81.1946 145.071 81.4229 144.826 81.7182 144.651C82.0203 144.477 82.3861 144.39 82.8157 144.39V145.336H82.574C81.547 145.336 81.0335 145.893 81.0335 147.007V150.008H80.1173V144.49H81.0335V145.386ZM91.592 147.038C91.592 147.212 91.5819 147.397 91.5618 147.591H87.1517C87.1853 148.135 87.3699 148.561 87.7055 148.87C88.0478 149.172 88.4607 149.323 88.944 149.323C89.34 149.323 89.6689 149.233 89.9307 149.051C90.1992 148.863 90.3871 148.615 90.4945 148.306H91.4813C91.3336 148.836 91.0382 149.269 90.5952 149.605C90.1522 149.934 89.6018 150.098 88.944 150.098C88.4204 150.098 87.9505 149.981 87.5343 149.746C87.1249 149.511 86.8027 149.179 86.5677 148.749C86.3328 148.313 86.2153 147.809 86.2153 147.239C86.2153 146.668 86.3295 146.168 86.5577 145.739C86.7859 145.309 87.1047 144.98 87.5142 144.752C87.9304 144.517 88.407 144.4 88.944 144.4C89.4675 144.4 89.9307 144.514 90.3334 144.742C90.7362 144.97 91.0449 145.286 91.2597 145.688C91.4813 146.084 91.592 146.534 91.592 147.038ZM90.6456 146.846C90.6456 146.497 90.5684 146.199 90.414 145.95C90.2596 145.695 90.0481 145.504 89.7796 145.376C89.5179 145.242 89.2259 145.175 88.9037 145.175C88.4405 145.175 88.0445 145.323 87.7156 145.618C87.3934 145.913 87.2088 146.323 87.1618 146.846H90.6456ZM96.6275 145.93V146.705H92.6101V145.93H96.6275ZM104.982 144.39C105.412 144.39 105.794 144.48 106.13 144.661C106.466 144.836 106.731 145.101 106.926 145.457C107.12 145.813 107.218 146.245 107.218 146.756V150.008H106.311V146.887C106.311 146.336 106.174 145.917 105.899 145.628C105.63 145.333 105.264 145.185 104.801 145.185C104.324 145.185 103.945 145.339 103.663 145.648C103.381 145.95 103.24 146.39 103.24 146.967V150.008H102.334V146.887C102.334 146.336 102.197 145.917 101.921 145.628C101.653 145.333 101.287 145.185 100.824 145.185C100.347 145.185 99.9681 145.339 99.6862 145.648C99.4043 145.95 99.2633 146.39 99.2633 146.967V150.008H98.347V144.49H99.2633V145.286C99.4445 144.997 99.6862 144.775 99.9882 144.621C100.297 144.467 100.636 144.39 101.005 144.39C101.468 144.39 101.878 144.494 102.234 144.702C102.589 144.91 102.854 145.215 103.029 145.618C103.183 145.229 103.438 144.927 103.794 144.712C104.15 144.497 104.546 144.39 104.982 144.39ZM108.378 147.229C108.378 146.665 108.492 146.172 108.721 145.749C108.949 145.319 109.261 144.987 109.657 144.752C110.06 144.517 110.506 144.4 110.996 144.4C111.479 144.4 111.899 144.504 112.255 144.712C112.61 144.92 112.876 145.182 113.05 145.497V144.49H113.976V150.008H113.05V148.981C112.869 149.303 112.597 149.572 112.234 149.786C111.879 149.994 111.463 150.098 110.986 150.098C110.496 150.098 110.053 149.978 109.657 149.736C109.261 149.494 108.949 149.155 108.721 148.719C108.492 148.283 108.378 147.786 108.378 147.229ZM113.05 147.239C113.05 146.823 112.966 146.46 112.798 146.152C112.631 145.843 112.402 145.608 112.114 145.447C111.832 145.279 111.52 145.195 111.177 145.195C110.835 145.195 110.523 145.276 110.241 145.437C109.959 145.598 109.734 145.833 109.566 146.141C109.398 146.45 109.315 146.813 109.315 147.229C109.315 147.652 109.398 148.021 109.566 148.336C109.734 148.645 109.959 148.883 110.241 149.051C110.523 149.212 110.835 149.293 111.177 149.293C111.52 149.293 111.832 149.212 112.114 149.051C112.402 148.883 112.631 148.645 112.798 148.336C112.966 148.021 113.05 147.655 113.05 147.239ZM115.998 143.594C115.823 143.594 115.676 143.534 115.555 143.413C115.434 143.292 115.374 143.144 115.374 142.97C115.374 142.795 115.434 142.648 115.555 142.527C115.676 142.406 115.823 142.346 115.998 142.346C116.166 142.346 116.307 142.406 116.421 142.527C116.542 142.648 116.602 142.795 116.602 142.97C116.602 143.144 116.542 143.292 116.421 143.413C116.307 143.534 116.166 143.594 115.998 143.594ZM116.441 144.49V150.008H115.525V144.49H116.441ZM118.919 142.557V150.008H118.003V142.557H118.919ZM122.822 147.229C122.822 146.665 122.936 146.172 123.165 145.749C123.393 145.319 123.705 144.987 124.101 144.752C124.504 144.517 124.95 144.4 125.44 144.4C125.924 144.4 126.343 144.504 126.699 144.712C127.055 144.92 127.32 145.182 127.494 145.497V144.49H128.421V150.008H127.494V148.981C127.313 149.303 127.041 149.572 126.679 149.786C126.323 149.994 125.907 150.098 125.43 150.098C124.94 150.098 124.497 149.978 124.101 149.736C123.705 149.494 123.393 149.155 123.165 148.719C122.936 148.283 122.822 147.786 122.822 147.229ZM127.494 147.239C127.494 146.823 127.41 146.46 127.243 146.152C127.075 145.843 126.846 145.608 126.558 145.447C126.276 145.279 125.964 145.195 125.621 145.195C125.279 145.195 124.967 145.276 124.685 145.437C124.403 145.598 124.178 145.833 124.01 146.141C123.843 146.45 123.759 146.813 123.759 147.229C123.759 147.652 123.843 148.021 124.01 148.336C124.178 148.645 124.403 148.883 124.685 149.051C124.967 149.212 125.279 149.293 125.621 149.293C125.964 149.293 126.276 149.212 126.558 149.051C126.846 148.883 127.075 148.645 127.243 148.336C127.41 148.021 127.494 147.655 127.494 147.239ZM129.627 147.229C129.627 146.665 129.741 146.172 129.969 145.749C130.197 145.319 130.509 144.987 130.905 144.752C131.308 144.517 131.758 144.4 132.254 144.4C132.684 144.4 133.083 144.5 133.453 144.702C133.822 144.896 134.104 145.155 134.298 145.477V142.557H135.225V150.008H134.298V148.971C134.117 149.3 133.849 149.572 133.493 149.786C133.137 149.994 132.721 150.098 132.244 150.098C131.754 150.098 131.308 149.978 130.905 149.736C130.509 149.494 130.197 149.155 129.969 148.719C129.741 148.283 129.627 147.786 129.627 147.229ZM134.298 147.239C134.298 146.823 134.215 146.46 134.047 146.152C133.879 145.843 133.651 145.608 133.362 145.447C133.08 145.279 132.768 145.195 132.426 145.195C132.083 145.195 131.771 145.276 131.489 145.437C131.207 145.598 130.982 145.833 130.815 146.141C130.647 146.45 130.563 146.813 130.563 147.229C130.563 147.652 130.647 148.021 130.815 148.336C130.982 148.645 131.207 148.883 131.489 149.051C131.771 149.212 132.083 149.293 132.426 149.293C132.768 149.293 133.08 149.212 133.362 149.051C133.651 148.883 133.879 148.645 134.047 148.336C134.215 148.021 134.298 147.655 134.298 147.239ZM136.431 147.229C136.431 146.665 136.545 146.172 136.773 145.749C137.001 145.319 137.313 144.987 137.709 144.752C138.112 144.517 138.562 144.4 139.059 144.4C139.488 144.4 139.888 144.5 140.257 144.702C140.626 144.896 140.908 145.155 141.103 145.477V142.557H142.029V150.008H141.103V148.971C140.921 149.3 140.653 149.572 140.297 149.786C139.941 149.994 139.525 150.098 139.049 150.098C138.559 150.098 138.112 149.978 137.709 149.736C137.313 149.494 137.001 149.155 136.773 148.719C136.545 148.283 136.431 147.786 136.431 147.229ZM141.103 147.239C141.103 146.823 141.019 146.46 140.851 146.152C140.683 145.843 140.455 145.608 140.166 145.447C139.884 145.279 139.572 145.195 139.23 145.195C138.888 145.195 138.575 145.276 138.293 145.437C138.012 145.598 137.787 145.833 137.619 146.141C137.451 146.45 137.367 146.813 137.367 147.229C137.367 147.652 137.451 148.021 137.619 148.336C137.787 148.645 138.012 148.883 138.293 149.051C138.575 149.212 138.888 149.293 139.23 149.293C139.572 149.293 139.884 149.212 140.166 149.051C140.455 148.883 140.683 148.645 140.851 148.336C141.019 148.021 141.103 147.655 141.103 147.239ZM144.494 145.386C144.655 145.071 144.883 144.826 145.178 144.651C145.48 144.477 145.846 144.39 146.276 144.39V145.336H146.034C145.007 145.336 144.494 145.893 144.494 147.007V150.008H143.577V144.49H144.494V145.386ZM152.368 147.038C152.368 147.212 152.358 147.397 152.338 147.591H147.927C147.961 148.135 148.146 148.561 148.481 148.87C148.824 149.172 149.236 149.323 149.72 149.323C150.116 149.323 150.445 149.233 150.706 149.051C150.975 148.863 151.163 148.615 151.27 148.306H152.257C152.109 148.836 151.814 149.269 151.371 149.605C150.928 149.934 150.377 150.098 149.72 150.098C149.196 150.098 148.726 149.981 148.31 149.746C147.901 149.511 147.578 149.179 147.343 148.749C147.109 148.313 146.991 147.809 146.991 147.239C146.991 146.668 147.105 146.168 147.333 145.739C147.562 145.309 147.88 144.98 148.29 144.752C148.706 144.517 149.183 144.4 149.72 144.4C150.243 144.4 150.706 144.514 151.109 144.742C151.512 144.97 151.821 145.286 152.035 145.688C152.257 146.084 152.368 146.534 152.368 147.038ZM151.421 146.846C151.421 146.497 151.344 146.199 151.19 145.95C151.035 145.695 150.824 145.504 150.555 145.376C150.294 145.242 150.002 145.175 149.679 145.175C149.216 145.175 148.82 145.323 148.491 145.618C148.169 145.913 147.984 146.323 147.938 146.846H151.421ZM155.53 150.098C155.108 150.098 154.728 150.028 154.393 149.887C154.057 149.739 153.792 149.538 153.597 149.283C153.403 149.021 153.295 148.722 153.275 148.387H154.222C154.248 148.662 154.376 148.887 154.604 149.061C154.839 149.236 155.144 149.323 155.52 149.323C155.869 149.323 156.145 149.246 156.346 149.092C156.547 148.937 156.648 148.743 156.648 148.508C156.648 148.266 156.541 148.088 156.326 147.974C156.111 147.853 155.779 147.736 155.329 147.622C154.92 147.514 154.584 147.407 154.322 147.299C154.067 147.185 153.846 147.021 153.658 146.806C153.476 146.584 153.386 146.296 153.386 145.94C153.386 145.658 153.47 145.4 153.638 145.165C153.805 144.93 154.044 144.745 154.352 144.611C154.661 144.47 155.014 144.4 155.41 144.4C156.02 144.4 156.514 144.554 156.89 144.863C157.266 145.172 157.467 145.594 157.494 146.131H156.578C156.557 145.843 156.44 145.611 156.225 145.437C156.017 145.262 155.735 145.175 155.379 145.175C155.051 145.175 154.789 145.245 154.594 145.386C154.399 145.527 154.302 145.712 154.302 145.94C154.302 146.121 154.359 146.272 154.473 146.393C154.594 146.507 154.742 146.601 154.916 146.675C155.098 146.742 155.346 146.819 155.661 146.907C156.057 147.014 156.38 147.121 156.628 147.229C156.876 147.33 157.088 147.484 157.262 147.692C157.443 147.9 157.537 148.172 157.544 148.508C157.544 148.81 157.46 149.081 157.292 149.323C157.125 149.565 156.886 149.756 156.578 149.897C156.276 150.031 155.926 150.098 155.53 150.098ZM160.791 150.098C160.368 150.098 159.989 150.028 159.653 149.887C159.318 149.739 159.052 149.538 158.858 149.283C158.663 149.021 158.556 148.722 158.536 148.387H159.482C159.509 148.662 159.636 148.887 159.865 149.061C160.1 149.236 160.405 149.323 160.781 149.323C161.13 149.323 161.405 149.246 161.606 149.092C161.808 148.937 161.909 148.743 161.909 148.508C161.909 148.266 161.801 148.088 161.586 147.974C161.372 147.853 161.039 147.736 160.59 147.622C160.18 147.514 159.844 147.407 159.583 147.299C159.328 147.185 159.106 147.021 158.918 146.806C158.737 146.584 158.646 146.296 158.646 145.94C158.646 145.658 158.73 145.4 158.898 145.165C159.066 144.93 159.304 144.745 159.613 144.611C159.922 144.47 160.274 144.4 160.67 144.4C161.281 144.4 161.774 144.554 162.15 144.863C162.526 145.172 162.727 145.594 162.754 146.131H161.838C161.818 145.843 161.7 145.611 161.486 145.437C161.278 145.262 160.996 145.175 160.64 145.175C160.311 145.175 160.049 145.245 159.855 145.386C159.66 145.527 159.563 145.712 159.563 145.94C159.563 146.121 159.62 146.272 159.734 146.393C159.855 146.507 160.002 146.601 160.177 146.675C160.358 146.742 160.606 146.819 160.922 146.907C161.318 147.014 161.64 147.121 161.888 147.229C162.137 147.33 162.348 147.484 162.523 147.692C162.704 147.9 162.798 148.172 162.805 148.508C162.805 148.81 162.721 149.081 162.553 149.323C162.385 149.565 162.147 149.756 161.838 149.897C161.536 150.031 161.187 150.098 160.791 150.098Z" fill="#ADADAD"/>
<path d="M99.5429 196.641C98.8918 196.641 98.2978 196.49 97.7608 196.188C97.2238 195.879 96.7975 195.453 96.482 194.909C96.1733 194.359 96.0189 193.741 96.0189 193.056C96.0189 192.372 96.1733 191.757 96.482 191.214C96.7975 190.663 97.2238 190.237 97.7608 189.935C98.2978 189.626 98.8918 189.472 99.5429 189.472C100.201 189.472 100.798 189.626 101.335 189.935C101.872 190.237 102.295 190.66 102.604 191.204C102.913 191.747 103.067 192.365 103.067 193.056C103.067 193.748 102.913 194.365 102.604 194.909C102.295 195.453 101.872 195.879 101.335 196.188C100.798 196.49 100.201 196.641 99.5429 196.641ZM99.5429 195.845C100.033 195.845 100.473 195.731 100.862 195.503C101.258 195.275 101.567 194.949 101.788 194.526C102.016 194.103 102.131 193.613 102.131 193.056C102.131 192.493 102.016 192.003 101.788 191.586C101.567 191.163 101.261 190.838 100.872 190.61C100.483 190.381 100.04 190.267 99.5429 190.267C99.0462 190.267 98.6032 190.381 98.2139 190.61C97.8245 190.838 97.5158 191.163 97.2875 191.586C97.066 192.003 96.9553 192.493 96.9553 193.056C96.9553 193.613 97.066 194.103 97.2875 194.526C97.5158 194.949 97.8245 195.275 98.2139 195.503C98.6099 195.731 99.0529 195.845 99.5429 195.845ZM105.193 191.949C105.354 191.633 105.582 191.388 105.877 191.214C106.179 191.039 106.545 190.952 106.975 190.952V191.898H106.733C105.706 191.898 105.193 192.456 105.193 193.57V196.57H104.277V191.053H105.193V191.949ZM110.375 193.801C110.375 193.231 110.489 192.734 110.717 192.311C110.945 191.882 111.261 191.549 111.663 191.314C112.073 191.08 112.539 190.962 113.063 190.962C113.741 190.962 114.298 191.127 114.734 191.455C115.177 191.784 115.469 192.241 115.61 192.825H114.624C114.53 192.489 114.345 192.224 114.07 192.029C113.801 191.835 113.466 191.737 113.063 191.737C112.539 191.737 112.116 191.919 111.794 192.281C111.472 192.637 111.311 193.144 111.311 193.801C111.311 194.466 111.472 194.979 111.794 195.342C112.116 195.704 112.539 195.886 113.063 195.886C113.466 195.886 113.801 195.792 114.07 195.604C114.338 195.416 114.523 195.147 114.624 194.798H115.61C115.463 195.362 115.167 195.815 114.724 196.157C114.281 196.493 113.727 196.661 113.063 196.661C112.539 196.661 112.073 196.543 111.663 196.309C111.261 196.074 110.945 195.741 110.717 195.312C110.489 194.882 110.375 194.379 110.375 193.801ZM119.239 196.661C118.722 196.661 118.253 196.543 117.83 196.309C117.413 196.074 117.085 195.741 116.843 195.312C116.608 194.875 116.491 194.372 116.491 193.801C116.491 193.238 116.611 192.741 116.853 192.311C117.101 191.875 117.437 191.543 117.86 191.314C118.283 191.08 118.756 190.962 119.28 190.962C119.803 190.962 120.276 191.08 120.699 191.314C121.122 191.543 121.454 191.872 121.696 192.301C121.944 192.731 122.069 193.231 122.069 193.801C122.069 194.372 121.941 194.875 121.686 195.312C121.438 195.741 121.099 196.074 120.669 196.309C120.239 196.543 119.763 196.661 119.239 196.661ZM119.239 195.855C119.568 195.855 119.877 195.778 120.166 195.624C120.454 195.469 120.686 195.238 120.86 194.929C121.042 194.62 121.132 194.244 121.132 193.801C121.132 193.358 121.045 192.983 120.87 192.674C120.696 192.365 120.468 192.137 120.186 191.989C119.904 191.835 119.598 191.757 119.269 191.757C118.934 191.757 118.625 191.835 118.343 191.989C118.068 192.137 117.846 192.365 117.679 192.674C117.511 192.983 117.427 193.358 117.427 193.801C117.427 194.251 117.507 194.63 117.669 194.939C117.836 195.248 118.058 195.48 118.333 195.634C118.608 195.782 118.91 195.855 119.239 195.855ZM125.962 190.952C126.633 190.952 127.177 191.157 127.593 191.566C128.009 191.969 128.217 192.553 128.217 193.318V196.57H127.311V193.449C127.311 192.899 127.173 192.479 126.898 192.19C126.623 191.895 126.247 191.747 125.77 191.747C125.287 191.747 124.901 191.898 124.612 192.201C124.33 192.503 124.189 192.942 124.189 193.52V196.57H123.273V191.053H124.189V191.838C124.371 191.556 124.616 191.338 124.924 191.184C125.24 191.029 125.586 190.952 125.962 190.952ZM130.831 191.808V195.06C130.831 195.329 130.888 195.52 131.002 195.634C131.117 195.741 131.315 195.795 131.596 195.795H132.271V196.57H131.445C130.935 196.57 130.553 196.453 130.298 196.218C130.043 195.983 129.915 195.597 129.915 195.06V191.808H129.2V191.053H129.915V189.663H130.831V191.053H132.271V191.808H130.831ZM133.854 190.157C133.68 190.157 133.532 190.096 133.411 189.975C133.291 189.855 133.23 189.707 133.23 189.532C133.23 189.358 133.291 189.21 133.411 189.089C133.532 188.968 133.68 188.908 133.854 188.908C134.022 188.908 134.163 188.968 134.277 189.089C134.398 189.21 134.459 189.358 134.459 189.532C134.459 189.707 134.398 189.855 134.277 189.975C134.163 190.096 134.022 190.157 133.854 190.157ZM134.297 191.053V196.57H133.381V191.053H134.297ZM138.547 190.952C139.219 190.952 139.762 191.157 140.178 191.566C140.595 191.969 140.803 192.553 140.803 193.318V196.57H139.897V193.449C139.897 192.899 139.759 192.479 139.484 192.19C139.209 191.895 138.833 191.747 138.356 191.747C137.873 191.747 137.487 191.898 137.198 192.201C136.916 192.503 136.775 192.942 136.775 193.52V196.57H135.859V191.053H136.775V191.838C136.957 191.556 137.202 191.338 137.51 191.184C137.826 191.029 138.171 190.952 138.547 190.952ZM147.193 191.053V196.57H146.277V195.755C146.102 196.037 145.857 196.258 145.542 196.419C145.233 196.574 144.89 196.651 144.515 196.651C144.085 196.651 143.699 196.564 143.357 196.389C143.014 196.208 142.742 195.939 142.541 195.584C142.346 195.228 142.249 194.795 142.249 194.285V191.053H143.155V194.164C143.155 194.708 143.293 195.127 143.568 195.422C143.843 195.711 144.219 195.855 144.696 195.855C145.186 195.855 145.572 195.704 145.854 195.402C146.136 195.1 146.277 194.661 146.277 194.083V191.053H147.193ZM153.774 193.6C153.774 193.775 153.764 193.959 153.744 194.154H149.334C149.367 194.698 149.552 195.124 149.888 195.433C150.23 195.735 150.643 195.886 151.126 195.886C151.522 195.886 151.851 195.795 152.113 195.614C152.381 195.426 152.569 195.177 152.677 194.869H153.663C153.516 195.399 153.22 195.832 152.777 196.168C152.334 196.496 151.784 196.661 151.126 196.661C150.603 196.661 150.133 196.543 149.716 196.309C149.307 196.074 148.985 195.741 148.75 195.312C148.515 194.875 148.398 194.372 148.398 193.801C148.398 193.231 148.512 192.731 148.74 192.301C148.968 191.872 149.287 191.543 149.696 191.314C150.113 191.08 150.589 190.962 151.126 190.962C151.65 190.962 152.113 191.076 152.516 191.304C152.918 191.533 153.227 191.848 153.442 192.251C153.663 192.647 153.774 193.097 153.774 193.6ZM152.828 193.409C152.828 193.06 152.751 192.761 152.596 192.513C152.442 192.258 152.23 192.066 151.962 191.939C151.7 191.804 151.408 191.737 151.086 191.737C150.623 191.737 150.227 191.885 149.898 192.18C149.576 192.476 149.391 192.885 149.344 193.409H152.828ZM165.018 191.053L163.296 196.57H162.35L161.021 192.19L159.692 196.57H158.745L157.013 191.053H157.95L159.218 195.684L160.588 191.053H161.524L162.863 195.694L164.112 191.053H165.018ZM166.401 190.157C166.226 190.157 166.078 190.096 165.958 189.975C165.837 189.855 165.776 189.707 165.776 189.532C165.776 189.358 165.837 189.21 165.958 189.089C166.078 188.968 166.226 188.908 166.401 188.908C166.568 188.908 166.709 188.968 166.823 189.089C166.944 189.21 167.005 189.358 167.005 189.532C167.005 189.707 166.944 189.855 166.823 189.975C166.709 190.096 166.568 190.157 166.401 190.157ZM166.844 191.053V196.57H165.927V191.053H166.844ZM169.523 191.808V195.06C169.523 195.329 169.58 195.52 169.694 195.634C169.808 195.741 170.006 195.795 170.288 195.795H170.963V196.57H170.137C169.627 196.57 169.244 196.453 168.989 196.218C168.734 195.983 168.607 195.597 168.607 195.06V191.808H167.892V191.053H168.607V189.663H169.523V191.053H170.963V191.808H169.523ZM174.811 190.952C175.228 190.952 175.603 191.043 175.939 191.224C176.275 191.398 176.537 191.664 176.724 192.019C176.919 192.375 177.016 192.808 177.016 193.318V196.57H176.11V193.449C176.11 192.899 175.973 192.479 175.697 192.19C175.422 191.895 175.046 191.747 174.57 191.747C174.086 191.747 173.701 191.898 173.412 192.201C173.13 192.503 172.989 192.942 172.989 193.52V196.57H172.073V189.12H172.989V191.838C173.17 191.556 173.419 191.338 173.734 191.184C174.056 191.029 174.415 190.952 174.811 190.952Z" fill="black"/>
<path d="M98.4741 240.884C98.4741 240.2 98.6318 239.586 98.9473 239.042C99.2695 238.498 99.7025 238.075 100.246 237.773C100.797 237.464 101.397 237.31 102.048 237.31C102.794 237.31 103.455 237.495 104.032 237.864C104.616 238.226 105.039 238.743 105.301 239.414H103.921C103.74 239.045 103.488 238.77 103.166 238.589C102.844 238.408 102.471 238.317 102.048 238.317C101.585 238.317 101.173 238.421 100.81 238.629C100.448 238.837 100.162 239.136 99.9542 239.525C99.7528 239.915 99.6521 240.368 99.6521 240.884C99.6521 241.401 99.7528 241.854 99.9542 242.244C100.162 242.633 100.448 242.935 100.81 243.15C101.173 243.358 101.585 243.462 102.048 243.462C102.471 243.462 102.844 243.371 103.166 243.19C103.488 243.009 103.74 242.734 103.921 242.365H105.301C105.039 243.036 104.616 243.553 104.032 243.915C103.455 244.278 102.794 244.459 102.048 244.459C101.391 244.459 100.79 244.308 100.246 244.006C99.7025 243.697 99.2695 243.271 98.9473 242.727C98.6318 242.183 98.4741 241.569 98.4741 240.884ZM109.051 244.489C108.527 244.489 108.054 244.372 107.631 244.137C107.208 243.895 106.876 243.559 106.634 243.13C106.392 242.693 106.272 242.19 106.272 241.619C106.272 241.056 106.396 240.556 106.644 240.119C106.893 239.683 107.232 239.347 107.661 239.112C108.091 238.877 108.571 238.76 109.101 238.76C109.631 238.76 110.111 238.877 110.541 239.112C110.97 239.347 111.309 239.683 111.558 240.119C111.806 240.556 111.93 241.056 111.93 241.619C111.93 242.183 111.803 242.683 111.548 243.12C111.293 243.556 110.943 243.895 110.5 244.137C110.064 244.372 109.581 244.489 109.051 244.489ZM109.051 243.492C109.346 243.492 109.621 243.422 109.876 243.281C110.138 243.14 110.349 242.928 110.511 242.646C110.672 242.365 110.752 242.022 110.752 241.619C110.752 241.217 110.675 240.878 110.521 240.603C110.366 240.321 110.161 240.109 109.906 239.968C109.651 239.827 109.376 239.757 109.081 239.757C108.785 239.757 108.51 239.827 108.255 239.968C108.007 240.109 107.809 240.321 107.661 240.603C107.513 240.878 107.44 241.217 107.44 241.619C107.44 242.217 107.591 242.68 107.893 243.009C108.201 243.331 108.587 243.492 109.051 243.492ZM115.864 238.76C116.3 238.76 116.69 238.851 117.032 239.032C117.381 239.213 117.653 239.482 117.848 239.837C118.042 240.193 118.14 240.623 118.14 241.126V244.398H117.002V241.297C117.002 240.801 116.878 240.421 116.629 240.16C116.381 239.891 116.042 239.757 115.612 239.757C115.183 239.757 114.84 239.891 114.585 240.16C114.337 240.421 114.213 240.801 114.213 241.297V244.398H113.065V238.851H114.213V239.485C114.401 239.257 114.639 239.079 114.928 238.951C115.223 238.824 115.535 238.76 115.864 238.76ZM120.943 239.787V242.858C120.943 243.066 120.99 243.217 121.084 243.311C121.184 243.398 121.352 243.442 121.587 243.442H122.292V244.398H121.386C120.869 244.398 120.473 244.278 120.198 244.036C119.922 243.794 119.785 243.402 119.785 242.858V239.787H119.13V238.851H119.785V237.471H120.943V238.851H122.292V239.787H120.943ZM123.934 238.116C123.726 238.116 123.551 238.045 123.41 237.904C123.269 237.763 123.199 237.589 123.199 237.381C123.199 237.173 123.269 236.998 123.41 236.857C123.551 236.716 123.726 236.646 123.934 236.646C124.135 236.646 124.306 236.716 124.447 236.857C124.588 236.998 124.659 237.173 124.659 237.381C124.659 237.589 124.588 237.763 124.447 237.904C124.306 238.045 124.135 238.116 123.934 238.116ZM124.498 238.851V244.398H123.35V238.851H124.498ZM128.804 238.76C129.24 238.76 129.629 238.851 129.972 239.032C130.321 239.213 130.593 239.482 130.787 239.837C130.982 240.193 131.079 240.623 131.079 241.126V244.398H129.942V241.297C129.942 240.801 129.817 240.421 129.569 240.16C129.321 239.891 128.982 239.757 128.552 239.757C128.122 239.757 127.78 239.891 127.525 240.16C127.277 240.421 127.153 240.801 127.153 241.297V244.398H126.005V238.851H127.153V239.485C127.34 239.257 127.579 239.079 127.867 238.951C128.163 238.824 128.475 238.76 128.804 238.76ZM137.568 238.851V244.398H136.42V243.744C136.239 243.972 136 244.153 135.705 244.288C135.416 244.415 135.108 244.479 134.779 244.479C134.342 244.479 133.95 244.388 133.601 244.207C133.258 244.026 132.986 243.757 132.785 243.402C132.59 243.046 132.493 242.616 132.493 242.113V238.851H133.631V241.942C133.631 242.438 133.755 242.821 134.003 243.09C134.252 243.351 134.591 243.482 135.02 243.482C135.45 243.482 135.789 243.351 136.037 243.09C136.292 242.821 136.42 242.438 136.42 241.942V238.851H137.568ZM144.167 241.489C144.167 241.697 144.153 241.885 144.127 242.052H139.888C139.921 242.495 140.086 242.851 140.381 243.12C140.676 243.388 141.039 243.522 141.468 243.522C142.086 243.522 142.522 243.264 142.777 242.747H144.016C143.848 243.257 143.543 243.677 143.1 244.006C142.663 244.328 142.12 244.489 141.468 244.489C140.938 244.489 140.462 244.372 140.039 244.137C139.622 243.895 139.294 243.559 139.052 243.13C138.817 242.693 138.7 242.19 138.7 241.619C138.7 241.049 138.814 240.549 139.042 240.119C139.277 239.683 139.602 239.347 140.019 239.112C140.441 238.877 140.925 238.76 141.468 238.76C141.992 238.76 142.459 238.874 142.868 239.102C143.277 239.331 143.596 239.653 143.824 240.069C144.053 240.478 144.167 240.952 144.167 241.489ZM142.969 241.126C142.962 240.703 142.811 240.364 142.516 240.109C142.22 239.854 141.854 239.727 141.418 239.727C141.022 239.727 140.683 239.854 140.401 240.109C140.119 240.358 139.951 240.697 139.898 241.126H142.969ZM155.363 238.851L153.641 244.398H152.433L151.315 240.3L150.197 244.398H148.989L147.257 238.851H148.425L149.583 243.311L150.761 238.851H151.959L153.087 243.291L154.235 238.851H155.363ZM156.804 238.116C156.596 238.116 156.422 238.045 156.281 237.904C156.14 237.763 156.069 237.589 156.069 237.381C156.069 237.173 156.14 236.998 156.281 236.857C156.422 236.716 156.596 236.646 156.804 236.646C157.006 236.646 157.177 236.716 157.318 236.857C157.459 236.998 157.529 237.173 157.529 237.381C157.529 237.589 157.459 237.763 157.318 237.904C157.177 238.045 157.006 238.116 156.804 238.116ZM157.368 238.851V244.398H156.22V238.851H157.368ZM160.214 239.787V242.858C160.214 243.066 160.261 243.217 160.355 243.311C160.456 243.398 160.624 243.442 160.859 243.442H161.564V244.398H160.657C160.141 244.398 159.745 244.278 159.469 244.036C159.194 243.794 159.057 243.402 159.057 242.858V239.787H158.402V238.851H159.057V237.471H160.214V238.851H161.564V239.787H160.214ZM165.491 238.76C165.914 238.76 166.29 238.851 166.619 239.032C166.954 239.213 167.216 239.482 167.404 239.837C167.599 240.193 167.696 240.623 167.696 241.126V244.398H166.558V241.297C166.558 240.801 166.434 240.421 166.186 240.16C165.937 239.891 165.599 239.757 165.169 239.757C164.739 239.757 164.397 239.891 164.142 240.16C163.894 240.421 163.769 240.801 163.769 241.297V244.398H162.622V236.948H163.769V239.495C163.964 239.26 164.209 239.079 164.504 238.951C164.806 238.824 165.135 238.76 165.491 238.76ZM175.995 242.969H173.065L172.561 244.398H171.363L173.87 237.391H175.199L177.706 244.398H176.498L175.995 242.969ZM175.672 242.032L174.535 238.78L173.387 242.032H175.672ZM179.944 239.666C180.139 239.411 180.404 239.196 180.74 239.022C181.075 238.847 181.454 238.76 181.877 238.76C182.361 238.76 182.8 238.881 183.196 239.122C183.599 239.357 183.915 239.69 184.143 240.119C184.371 240.549 184.485 241.042 184.485 241.599C184.485 242.156 184.371 242.657 184.143 243.1C183.915 243.536 183.599 243.878 183.196 244.127C182.8 244.368 182.361 244.489 181.877 244.489C181.454 244.489 181.079 244.405 180.75 244.237C180.421 244.063 180.152 243.848 179.944 243.593V247.036H178.796V238.851H179.944V239.666ZM183.317 241.599C183.317 241.217 183.237 240.888 183.075 240.613C182.921 240.331 182.713 240.119 182.451 239.978C182.196 239.831 181.921 239.757 181.626 239.757C181.337 239.757 181.062 239.831 180.8 239.978C180.545 240.126 180.337 240.341 180.176 240.623C180.021 240.905 179.944 241.237 179.944 241.619C179.944 242.002 180.021 242.338 180.176 242.626C180.337 242.908 180.545 243.123 180.8 243.271C181.062 243.418 181.337 243.492 181.626 243.492C181.921 243.492 182.196 243.418 182.451 243.271C182.713 243.116 182.921 242.895 183.075 242.606C183.237 242.318 183.317 241.982 183.317 241.599ZM186.768 239.666C186.963 239.411 187.228 239.196 187.563 239.022C187.899 238.847 188.278 238.76 188.701 238.76C189.184 238.76 189.624 238.881 190.02 239.122C190.423 239.357 190.738 239.69 190.967 240.119C191.195 240.549 191.309 241.042 191.309 241.599C191.309 242.156 191.195 242.657 190.967 243.1C190.738 243.536 190.423 243.878 190.02 244.127C189.624 244.368 189.184 244.489 188.701 244.489C188.278 244.489 187.902 244.405 187.573 244.237C187.245 244.063 186.976 243.848 186.768 243.593V247.036H185.62V238.851H186.768V239.666ZM190.141 241.599C190.141 241.217 190.06 240.888 189.899 240.613C189.745 240.331 189.537 240.119 189.275 239.978C189.02 239.831 188.745 239.757 188.449 239.757C188.161 239.757 187.886 239.831 187.624 239.978C187.369 240.126 187.161 240.341 187 240.623C186.845 240.905 186.768 241.237 186.768 241.619C186.768 242.002 186.845 242.338 187 242.626C187.161 242.908 187.369 243.123 187.624 243.271C187.886 243.418 188.161 243.492 188.449 243.492C188.745 243.492 189.02 243.418 189.275 243.271C189.537 243.116 189.745 242.895 189.899 242.606C190.06 242.318 190.141 241.982 190.141 241.599ZM193.592 236.948V244.398H192.444V236.948H193.592ZM200.184 241.489C200.184 241.697 200.17 241.885 200.143 242.052H195.904C195.938 242.495 196.102 242.851 196.398 243.12C196.693 243.388 197.056 243.522 197.485 243.522C198.103 243.522 198.539 243.264 198.794 242.747H200.032C199.865 243.257 199.559 243.677 199.116 244.006C198.68 244.328 198.136 244.489 197.485 244.489C196.955 244.489 196.478 244.372 196.055 244.137C195.639 243.895 195.31 243.559 195.069 243.13C194.834 242.693 194.716 242.19 194.716 241.619C194.716 241.049 194.83 240.549 195.059 240.119C195.294 239.683 195.619 239.347 196.035 239.112C196.458 238.877 196.941 238.76 197.485 238.76C198.009 238.76 198.475 238.874 198.885 239.102C199.294 239.331 199.613 239.653 199.841 240.069C200.069 240.478 200.184 240.952 200.184 241.489ZM198.985 241.126C198.979 240.703 198.828 240.364 198.532 240.109C198.237 239.854 197.871 239.727 197.435 239.727C197.039 239.727 196.7 239.854 196.418 240.109C196.136 240.358 195.968 240.697 195.914 241.126H198.985Z" fill="white"/>
<path d="M92.81 288.08C92.81 287.395 92.9678 286.781 93.2833 286.237C93.6055 285.694 94.0384 285.271 94.5821 284.969C95.1325 284.66 95.7333 284.505 96.3844 284.505C97.1295 284.505 97.7907 284.69 98.3679 285.059C98.9519 285.422 99.3748 285.939 99.6366 286.61H98.2572C98.0759 286.241 97.8242 285.965 97.502 285.784C97.1798 285.603 96.8073 285.512 96.3844 285.512C95.9213 285.512 95.5084 285.616 95.146 285.824C94.7835 286.032 94.4982 286.331 94.2901 286.721C94.0888 287.11 93.9881 287.563 93.9881 288.08C93.9881 288.597 94.0888 289.05 94.2901 289.439C94.4982 289.828 94.7835 290.13 95.146 290.345C95.5084 290.553 95.9213 290.657 96.3844 290.657C96.8073 290.657 97.1798 290.567 97.502 290.386C97.8242 290.204 98.0759 289.929 98.2572 289.56H99.6366C99.3748 290.231 98.9519 290.748 98.3679 291.11C97.7907 291.473 97.1295 291.654 96.3844 291.654C95.7266 291.654 95.1258 291.503 94.5821 291.201C94.0384 290.892 93.6055 290.466 93.2833 289.922C92.9678 289.379 92.81 288.764 92.81 288.08ZM103.387 291.684C102.863 291.684 102.39 291.567 101.967 291.332C101.544 291.09 101.212 290.755 100.97 290.325C100.728 289.889 100.608 289.385 100.608 288.815C100.608 288.251 100.732 287.751 100.98 287.315C101.228 286.878 101.567 286.543 101.997 286.308C102.427 286.073 102.907 285.955 103.437 285.955C103.967 285.955 104.447 286.073 104.877 286.308C105.306 286.543 105.645 286.878 105.894 287.315C106.142 287.751 106.266 288.251 106.266 288.815C106.266 289.379 106.139 289.879 105.884 290.315C105.628 290.751 105.279 291.09 104.836 291.332C104.4 291.567 103.917 291.684 103.387 291.684ZM103.387 290.688C103.682 290.688 103.957 290.617 104.212 290.476C104.474 290.335 104.685 290.124 104.846 289.842C105.008 289.56 105.088 289.218 105.088 288.815C105.088 288.412 105.011 288.073 104.857 287.798C104.702 287.516 104.497 287.305 104.242 287.164C103.987 287.023 103.712 286.952 103.417 286.952C103.121 286.952 102.846 287.023 102.591 287.164C102.343 287.305 102.145 287.516 101.997 287.798C101.849 288.073 101.776 288.412 101.776 288.815C101.776 289.412 101.927 289.875 102.229 290.204C102.537 290.526 102.923 290.688 103.387 290.688ZM110.2 285.955C110.636 285.955 111.026 286.046 111.368 286.227C111.717 286.408 111.989 286.677 112.183 287.033C112.378 287.388 112.475 287.818 112.475 288.321V291.594H111.338V288.493C111.338 287.996 111.214 287.617 110.965 287.355C110.717 287.086 110.378 286.952 109.948 286.952C109.519 286.952 109.176 287.086 108.921 287.355C108.673 287.617 108.549 287.996 108.549 288.493V291.594H107.401V286.046H108.549V286.68C108.737 286.452 108.975 286.274 109.264 286.147C109.559 286.019 109.871 285.955 110.2 285.955ZM115.279 286.982V290.053C115.279 290.261 115.326 290.412 115.42 290.506C115.52 290.594 115.688 290.637 115.923 290.637H116.628V291.594H115.722C115.205 291.594 114.809 291.473 114.534 291.231C114.258 290.99 114.121 290.597 114.121 290.053V286.982H113.466V286.046H114.121V284.667H115.279V286.046H116.628V286.982H115.279ZM118.27 285.311C118.062 285.311 117.887 285.24 117.746 285.099C117.605 284.959 117.535 284.784 117.535 284.576C117.535 284.368 117.605 284.193 117.746 284.052C117.887 283.911 118.062 283.841 118.27 283.841C118.471 283.841 118.642 283.911 118.783 284.052C118.924 284.193 118.995 284.368 118.995 284.576C118.995 284.784 118.924 284.959 118.783 285.099C118.642 285.24 118.471 285.311 118.27 285.311ZM118.834 286.046V291.594H117.686V286.046H118.834ZM123.14 285.955C123.576 285.955 123.965 286.046 124.308 286.227C124.657 286.408 124.929 286.677 125.123 287.033C125.318 287.388 125.415 287.818 125.415 288.321V291.594H124.277V288.493C124.277 287.996 124.153 287.617 123.905 287.355C123.657 287.086 123.318 286.952 122.888 286.952C122.458 286.952 122.116 287.086 121.861 287.355C121.613 287.617 121.488 287.996 121.488 288.493V291.594H120.341V286.046H121.488V286.68C121.676 286.452 121.915 286.274 122.203 286.147C122.499 286.019 122.811 285.955 123.14 285.955ZM131.904 286.046V291.594H130.756V290.939C130.575 291.168 130.336 291.349 130.041 291.483C129.752 291.611 129.444 291.674 129.115 291.674C128.678 291.674 128.286 291.584 127.937 291.402C127.594 291.221 127.322 290.953 127.121 290.597C126.926 290.241 126.829 289.812 126.829 289.308V286.046H127.967V289.137C127.967 289.634 128.091 290.016 128.339 290.285C128.588 290.547 128.927 290.678 129.356 290.678C129.786 290.678 130.125 290.547 130.373 290.285C130.628 290.016 130.756 289.634 130.756 289.137V286.046H131.904ZM138.503 288.684C138.503 288.892 138.489 289.08 138.462 289.248H134.224C134.257 289.691 134.422 290.047 134.717 290.315C135.012 290.584 135.375 290.718 135.804 290.718C136.422 290.718 136.858 290.459 137.113 289.942H138.352C138.184 290.453 137.878 290.872 137.435 291.201C136.999 291.523 136.455 291.684 135.804 291.684C135.274 291.684 134.797 291.567 134.375 291.332C133.958 291.09 133.63 290.755 133.388 290.325C133.153 289.889 133.035 289.385 133.035 288.815C133.035 288.244 133.15 287.744 133.378 287.315C133.613 286.878 133.938 286.543 134.354 286.308C134.777 286.073 135.261 285.955 135.804 285.955C136.328 285.955 136.794 286.069 137.204 286.298C137.613 286.526 137.932 286.848 138.16 287.264C138.389 287.674 138.503 288.147 138.503 288.684ZM137.305 288.321C137.298 287.899 137.147 287.56 136.851 287.305C136.556 287.049 136.19 286.922 135.754 286.922C135.358 286.922 135.019 287.049 134.737 287.305C134.455 287.553 134.287 287.892 134.234 288.321H137.305ZM149.699 286.046L147.977 291.594H146.769L145.651 287.496L144.533 291.594H143.325L141.593 286.046H142.761L143.919 290.506L145.097 286.046H146.295L147.423 290.486L148.571 286.046H149.699ZM151.14 285.311C150.932 285.311 150.758 285.24 150.617 285.099C150.476 284.959 150.405 284.784 150.405 284.576C150.405 284.368 150.476 284.193 150.617 284.052C150.758 283.911 150.932 283.841 151.14 283.841C151.342 283.841 151.513 283.911 151.654 284.052C151.795 284.193 151.865 284.368 151.865 284.576C151.865 284.784 151.795 284.959 151.654 285.099C151.513 285.24 151.342 285.311 151.14 285.311ZM151.704 286.046V291.594H150.556V286.046H151.704ZM154.55 286.982V290.053C154.55 290.261 154.597 290.412 154.691 290.506C154.792 290.594 154.96 290.637 155.195 290.637H155.9V291.594H154.993C154.477 291.594 154.081 291.473 153.805 291.231C153.53 290.99 153.392 290.597 153.392 290.053V286.982H152.738V286.046H153.392V284.667H154.55V286.046H155.9V286.982H154.55ZM159.827 285.955C160.25 285.955 160.626 286.046 160.955 286.227C161.29 286.408 161.552 286.677 161.74 287.033C161.935 287.388 162.032 287.818 162.032 288.321V291.594H160.894V288.493C160.894 287.996 160.77 287.617 160.522 287.355C160.273 287.086 159.934 286.952 159.505 286.952C159.075 286.952 158.733 287.086 158.478 287.355C158.229 287.617 158.105 287.996 158.105 288.493V291.594H156.957V284.143H158.105V286.69C158.3 286.455 158.545 286.274 158.84 286.147C159.142 286.019 159.471 285.955 159.827 285.955ZM170.23 284.596V285.532H167.26V287.596H169.575V288.533H167.26V291.594H166.112V284.596H170.23ZM170.911 288.795C170.911 288.238 171.025 287.744 171.253 287.315C171.488 286.885 171.804 286.553 172.2 286.318C172.602 286.076 173.045 285.955 173.529 285.955C173.965 285.955 174.344 286.043 174.667 286.217C174.995 286.385 175.257 286.596 175.452 286.851V286.046H176.61V291.594H175.452V290.768C175.257 291.03 174.992 291.248 174.656 291.423C174.321 291.597 173.938 291.684 173.509 291.684C173.032 291.684 172.596 291.564 172.2 291.322C171.804 291.074 171.488 290.731 171.253 290.295C171.025 289.852 170.911 289.352 170.911 288.795ZM175.452 288.815C175.452 288.432 175.371 288.1 175.21 287.818C175.056 287.536 174.851 287.321 174.596 287.174C174.341 287.026 174.066 286.952 173.77 286.952C173.475 286.952 173.2 287.026 172.945 287.174C172.69 287.315 172.482 287.526 172.321 287.808C172.166 288.083 172.089 288.412 172.089 288.795C172.089 289.177 172.166 289.513 172.321 289.802C172.482 290.09 172.69 290.312 172.945 290.466C173.207 290.614 173.482 290.688 173.77 290.688C174.066 290.688 174.341 290.614 174.596 290.466C174.851 290.318 175.056 290.104 175.21 289.822C175.371 289.533 175.452 289.197 175.452 288.815ZM177.735 288.815C177.735 288.244 177.849 287.744 178.077 287.315C178.312 286.878 178.634 286.543 179.044 286.308C179.453 286.073 179.923 285.955 180.453 285.955C181.125 285.955 181.678 286.116 182.115 286.439C182.558 286.754 182.856 287.207 183.011 287.798H181.772C181.672 287.523 181.511 287.308 181.289 287.153C181.067 286.999 180.789 286.922 180.453 286.922C179.983 286.922 179.608 287.09 179.326 287.425C179.05 287.754 178.913 288.217 178.913 288.815C178.913 289.412 179.05 289.879 179.326 290.214C179.608 290.55 179.983 290.718 180.453 290.718C181.118 290.718 181.558 290.426 181.772 289.842H183.011C182.85 290.406 182.548 290.855 182.105 291.191C181.662 291.52 181.111 291.684 180.453 291.684C179.923 291.684 179.453 291.567 179.044 291.332C178.634 291.09 178.312 290.755 178.077 290.325C177.849 289.889 177.735 289.385 177.735 288.815ZM189.239 288.684C189.239 288.892 189.226 289.08 189.199 289.248H184.96C184.994 289.691 185.158 290.047 185.454 290.315C185.749 290.584 186.111 290.718 186.541 290.718C187.158 290.718 187.595 290.459 187.85 289.942H189.088C188.92 290.453 188.615 290.872 188.172 291.201C187.736 291.523 187.192 291.684 186.541 291.684C186.011 291.684 185.534 291.567 185.111 291.332C184.695 291.09 184.366 290.755 184.124 290.325C183.89 289.889 183.772 289.385 183.772 288.815C183.772 288.244 183.886 287.744 184.114 287.315C184.349 286.878 184.675 286.543 185.091 286.308C185.514 286.073 185.997 285.955 186.541 285.955C187.064 285.955 187.531 286.069 187.94 286.298C188.35 286.526 188.669 286.848 188.897 287.264C189.125 287.674 189.239 288.147 189.239 288.684ZM188.041 288.321C188.034 287.899 187.883 287.56 187.588 287.305C187.293 287.049 186.927 286.922 186.491 286.922C186.095 286.922 185.756 287.049 185.474 287.305C185.192 287.553 185.024 287.892 184.97 288.321H188.041ZM191.517 286.872C191.711 286.603 191.977 286.385 192.312 286.217C192.654 286.043 193.034 285.955 193.45 285.955C193.94 285.955 194.383 286.073 194.779 286.308C195.175 286.543 195.487 286.878 195.715 287.315C195.944 287.744 196.058 288.238 196.058 288.795C196.058 289.352 195.944 289.852 195.715 290.295C195.487 290.731 195.172 291.074 194.769 291.322C194.373 291.564 193.933 291.684 193.45 291.684C193.02 291.684 192.638 291.6 192.302 291.433C191.973 291.265 191.711 291.05 191.517 290.788V291.594H190.369V284.143H191.517V286.872ZM194.89 288.795C194.89 288.412 194.809 288.083 194.648 287.808C194.494 287.526 194.286 287.315 194.024 287.174C193.769 287.026 193.494 286.952 193.198 286.952C192.91 286.952 192.634 287.026 192.373 287.174C192.117 287.321 191.909 287.536 191.748 287.818C191.594 288.1 191.517 288.432 191.517 288.815C191.517 289.197 191.594 289.533 191.748 289.822C191.909 290.104 192.117 290.318 192.373 290.466C192.634 290.614 192.91 290.688 193.198 290.688C193.494 290.688 193.769 290.614 194.024 290.466C194.286 290.312 194.494 290.09 194.648 289.802C194.809 289.513 194.89 289.177 194.89 288.795ZM199.599 291.684C199.076 291.684 198.602 291.567 198.179 291.332C197.757 291.09 197.424 290.755 197.183 290.325C196.941 289.889 196.82 289.385 196.82 288.815C196.82 288.251 196.944 287.751 197.193 287.315C197.441 286.878 197.78 286.543 198.21 286.308C198.639 286.073 199.119 285.955 199.65 285.955C200.18 285.955 200.66 286.073 201.089 286.308C201.519 286.543 201.858 286.878 202.106 287.315C202.355 287.751 202.479 288.251 202.479 288.815C202.479 289.379 202.351 289.879 202.096 290.315C201.841 290.751 201.492 291.09 201.049 291.332C200.613 291.567 200.129 291.684 199.599 291.684ZM199.599 290.688C199.895 290.688 200.17 290.617 200.425 290.476C200.687 290.335 200.898 290.124 201.059 289.842C201.22 289.56 201.301 289.218 201.301 288.815C201.301 288.412 201.224 288.073 201.069 287.798C200.915 287.516 200.71 287.305 200.455 287.164C200.2 287.023 199.925 286.952 199.629 286.952C199.334 286.952 199.059 287.023 198.804 287.164C198.555 287.305 198.357 287.516 198.21 287.798C198.062 288.073 197.988 288.412 197.988 288.815C197.988 289.412 198.139 289.875 198.441 290.204C198.75 290.526 199.136 290.688 199.599 290.688ZM206.02 291.684C205.496 291.684 205.023 291.567 204.6 291.332C204.177 291.09 203.845 290.755 203.603 290.325C203.362 289.889 203.241 289.385 203.241 288.815C203.241 288.251 203.365 287.751 203.613 287.315C203.862 286.878 204.201 286.543 204.63 286.308C205.06 286.073 205.54 285.955 206.07 285.955C206.601 285.955 207.08 286.073 207.51 286.308C207.94 286.543 208.279 286.878 208.527 287.315C208.775 287.751 208.9 288.251 208.9 288.815C208.9 289.379 208.772 289.879 208.517 290.315C208.262 290.751 207.913 291.09 207.47 291.332C207.033 291.567 206.55 291.684 206.02 291.684ZM206.02 290.688C206.315 290.688 206.59 290.617 206.846 290.476C207.107 290.335 207.319 290.124 207.48 289.842C207.641 289.56 207.722 289.218 207.722 288.815C207.722 288.412 207.644 288.073 207.49 287.798C207.336 287.516 207.131 287.305 206.876 287.164C206.621 287.023 206.345 286.952 206.05 286.952C205.755 286.952 205.48 287.023 205.224 287.164C204.976 287.305 204.778 287.516 204.63 287.798C204.483 288.073 204.409 288.412 204.409 288.815C204.409 289.412 204.56 289.875 204.862 290.204C205.171 290.526 205.557 290.688 206.02 290.688ZM212.229 288.825L214.787 291.594H213.236L211.182 289.207V291.594H210.034V284.143H211.182V288.472L213.196 286.046H214.787L212.229 288.825Z" fill="white"/>
<path d="M113.576 517.142C113.576 516.458 113.733 515.843 114.049 515.3C114.371 514.756 114.804 514.333 115.348 514.031C115.898 513.722 116.499 513.568 117.15 513.568C117.895 513.568 118.556 513.753 119.134 514.122C119.718 514.484 120.14 515.001 120.402 515.672H119.023C118.842 515.303 118.59 515.028 118.268 514.847C117.945 514.665 117.573 514.575 117.15 514.575C116.687 514.575 116.274 514.679 115.912 514.887C115.549 515.095 115.264 515.394 115.056 515.783C114.854 516.172 114.754 516.625 114.754 517.142C114.754 517.659 114.854 518.112 115.056 518.502C115.264 518.891 115.549 519.193 115.912 519.408C116.274 519.616 116.687 519.72 117.15 519.72C117.573 519.72 117.945 519.629 118.268 519.448C118.59 519.267 118.842 518.992 119.023 518.622H120.402C120.14 519.294 119.718 519.81 119.134 520.173C118.556 520.535 117.895 520.717 117.15 520.717C116.492 520.717 115.891 520.566 115.348 520.264C114.804 519.955 114.371 519.529 114.049 518.985C113.733 518.441 113.576 517.827 113.576 517.142ZM124.152 520.747C123.629 520.747 123.155 520.629 122.732 520.394C122.31 520.153 121.977 519.817 121.736 519.388C121.494 518.951 121.373 518.448 121.373 517.877C121.373 517.313 121.497 516.813 121.746 516.377C121.994 515.941 122.333 515.605 122.763 515.37C123.192 515.135 123.672 515.018 124.202 515.018C124.733 515.018 125.213 515.135 125.642 515.37C126.072 515.605 126.411 515.941 126.659 516.377C126.908 516.813 127.032 517.313 127.032 517.877C127.032 518.441 126.904 518.941 126.649 519.378C126.394 519.814 126.045 520.153 125.602 520.394C125.166 520.629 124.682 520.747 124.152 520.747ZM124.152 519.75C124.448 519.75 124.723 519.68 124.978 519.539C125.24 519.398 125.451 519.186 125.612 518.904C125.773 518.622 125.854 518.28 125.854 517.877C125.854 517.475 125.777 517.136 125.622 516.86C125.468 516.578 125.263 516.367 125.008 516.226C124.753 516.085 124.478 516.015 124.182 516.015C123.887 516.015 123.612 516.085 123.357 516.226C123.108 516.367 122.91 516.578 122.763 516.86C122.615 517.136 122.541 517.475 122.541 517.877C122.541 518.475 122.692 518.938 122.994 519.267C123.303 519.589 123.689 519.75 124.152 519.75ZM130.966 515.018C131.402 515.018 131.791 515.108 132.134 515.29C132.483 515.471 132.754 515.739 132.949 516.095C133.144 516.451 133.241 516.881 133.241 517.384V520.656H132.103V517.555C132.103 517.058 131.979 516.679 131.731 516.417C131.482 516.149 131.143 516.015 130.714 516.015C130.284 516.015 129.942 516.149 129.687 516.417C129.438 516.679 129.314 517.058 129.314 517.555V520.656H128.166V515.108H129.314V515.743C129.502 515.515 129.741 515.337 130.029 515.209C130.325 515.082 130.637 515.018 130.966 515.018ZM136.044 516.045V519.116C136.044 519.324 136.091 519.475 136.185 519.569C136.286 519.656 136.454 519.7 136.689 519.7H137.394V520.656H136.487C135.97 520.656 135.574 520.535 135.299 520.294C135.024 520.052 134.886 519.659 134.886 519.116V516.045H134.232V515.108H134.886V513.729H136.044V515.108H137.394V516.045H136.044ZM139.035 514.373C138.827 514.373 138.653 514.303 138.512 514.162C138.371 514.021 138.3 513.846 138.3 513.638C138.3 513.43 138.371 513.256 138.512 513.115C138.653 512.974 138.827 512.903 139.035 512.903C139.237 512.903 139.408 512.974 139.549 513.115C139.69 513.256 139.76 513.43 139.76 513.638C139.76 513.846 139.69 514.021 139.549 514.162C139.408 514.303 139.237 514.373 139.035 514.373ZM139.599 515.108V520.656H138.451V515.108H139.599ZM143.905 515.018C144.342 515.018 144.731 515.108 145.073 515.29C145.422 515.471 145.694 515.739 145.889 516.095C146.084 516.451 146.181 516.881 146.181 517.384V520.656H145.043V517.555C145.043 517.058 144.919 516.679 144.671 516.417C144.422 516.149 144.083 516.015 143.654 516.015C143.224 516.015 142.882 516.149 142.627 516.417C142.378 516.679 142.254 517.058 142.254 517.555V520.656H141.106V515.108H142.254V515.743C142.442 515.515 142.68 515.337 142.969 515.209C143.264 515.082 143.576 515.018 143.905 515.018ZM152.669 515.108V520.656H151.521V520.002C151.34 520.23 151.102 520.411 150.807 520.545C150.518 520.673 150.209 520.737 149.88 520.737C149.444 520.737 149.051 520.646 148.702 520.465C148.36 520.284 148.088 520.015 147.887 519.659C147.692 519.304 147.595 518.874 147.595 518.371V515.108H148.732V518.199C148.732 518.696 148.857 519.079 149.105 519.347C149.353 519.609 149.692 519.74 150.122 519.74C150.551 519.74 150.89 519.609 151.139 519.347C151.394 519.079 151.521 518.696 151.521 518.199V515.108H152.669ZM159.268 517.746C159.268 517.954 159.255 518.142 159.228 518.31H154.989C155.023 518.753 155.187 519.109 155.483 519.378C155.778 519.646 156.14 519.78 156.57 519.78C157.188 519.78 157.624 519.522 157.879 519.005H159.117C158.95 519.515 158.644 519.935 158.201 520.264C157.765 520.586 157.221 520.747 156.57 520.747C156.04 520.747 155.563 520.629 155.14 520.394C154.724 520.153 154.395 519.817 154.154 519.388C153.919 518.951 153.801 518.448 153.801 517.877C153.801 517.307 153.915 516.807 154.143 516.377C154.378 515.941 154.704 515.605 155.12 515.37C155.543 515.135 156.026 515.018 156.57 515.018C157.094 515.018 157.56 515.132 157.97 515.36C158.379 515.588 158.698 515.911 158.926 516.327C159.154 516.736 159.268 517.209 159.268 517.746ZM158.07 517.384C158.063 516.961 157.912 516.622 157.617 516.367C157.322 516.112 156.956 515.984 156.52 515.984C156.124 515.984 155.785 516.112 155.503 516.367C155.221 516.615 155.053 516.954 154.999 517.384H158.07Z" fill="white"/>
<rect x="10" y="193.125" width="76.7735" height="0.629291" fill="#E8E8E8"/>
<rect x="186.828" y="193.125" width="76.7735" height="0.629291" fill="#E8E8E8"/>
</g>
<rect x="5" y="5" width="262.975" height="557.483" rx="35" stroke="#333333" stroke-width="10"/>
<defs>
<clipPath id="clip0_2796_5225">
<rect x="10" y="10" width="252.975" height="547.483" rx="30" fill="white"/>
</clipPath>
<clipPath id="clip1_2796_5225">
<rect width="13.8444" height="13.8444" fill="white" transform="translate(69.7812 281.227)"/>
</clipPath>
<clipPath id="clip2_2796_5225">
<rect width="13.8444" height="13.8444" fill="white" transform="translate(75.4453 234.031)"/>
</clipPath>
</defs>
</svg>
