<svg width="583" height="536" viewBox="0 0 583 536" fill="none" xmlns="http://www.w3.org/2000/svg">
<path d="M442.242 276.195L475.124 257.211L504.255 274.03L471.373 293.014L442.242 276.195Z" fill="#1D4BC7"/>
<path d="M442.242 276.195L475.124 257.211L504.255 274.03L471.373 293.014L442.242 276.195Z" fill="#1D4BC7"/>
<path d="M-101.941 554.302H286.045L547.162 403.524C569.949 390.359 582.5 372.83 582.5 346.5C582.5 320.17 569.949 308.165 547.162 295L-107.5 -59L-102 -85V554.302H-101.941Z" fill="#D3E7FD"/>
<path d="M346.345 410.132C332.183 401.956 330.235 389.824 341.994 383.035C353.753 376.246 374.766 377.371 388.928 385.547C403.09 393.723 405.038 405.855 393.279 412.644C381.52 419.433 360.507 418.308 346.345 410.132Z" fill="#5382FF"/>
<path d="M234.172 335.953L372.981 255.811L454.143 302.67L315.334 382.812L234.172 335.953Z" fill="url(#paint0_linear_251_594)"/>
<path d="M239.226 188.223C235.461 186.049 230.823 186.039 227.062 188.21C199.123 204.341 82.9639 271.405 48.8468 291.103C46.9126 292.22 45.6926 294.307 45.7122 296.552C45.7242 298.792 46.8912 300.893 48.845 302.021C49.5636 302.436 50.2748 302.846 50.956 303.24C54.7213 305.414 59.3597 305.424 63.1206 303.253C91.0591 287.122 207.219 220.057 241.336 200.36C243.27 199.243 244.49 197.156 244.47 194.911C244.451 192.666 243.291 190.57 241.337 189.442C240.626 189.031 239.915 188.621 239.226 188.223Z" fill="#1D4BC7"/>
<path d="M359.977 77.2422L366.681 73.3715L421.633 105.098L414.929 108.969L359.977 77.2422Z" fill="#ECECEC"/>
<path d="M360.242 77.3906L414.954 108.995V294.821L360.242 263.217V77.3906Z" fill="#8EABF8"/>
<path d="M421.656 105.086L414.612 109.156V294.996L421.656 290.926V105.086Z" fill="url(#paint1_linear_251_594)"/>
<path d="M84.9223 115.003C84.9223 113.704 86.7524 111.638 89.0548 110.339C112.256 96.9381 226.432 31.0538 249.633 17.6526C251.936 16.3538 253.766 16.2947 253.766 17.5935C253.766 33.7694 253.766 130.116 253.766 146.292C253.766 147.591 251.936 149.657 249.633 150.956C226.432 164.357 112.256 230.242 89.0548 243.643C86.7524 244.942 84.9223 245.001 84.9223 243.702C84.9223 227.526 84.9223 131.179 84.9223 115.003Z" fill="#5981ED"/>
<path d="M95.8403 135.009C95.8403 134.124 96.1945 133.12 96.7258 132.175C97.3162 131.231 98.0836 130.404 98.9102 129.932C118.215 118.833 220.407 59.7971 239.652 48.6983C240.479 48.226 241.246 48.1079 241.837 48.4031C242.427 48.6983 242.781 49.3477 242.781 50.1742C242.781 61.6272 242.781 99.5875 242.781 111.04C242.781 111.926 242.427 112.93 241.837 113.874C241.246 114.819 240.479 115.645 239.652 116.118C220.407 127.216 118.215 186.253 98.9692 197.351C98.1427 197.824 97.3162 197.942 96.7849 197.646C96.1945 197.351 95.8993 196.702 95.8993 195.875C95.8403 184.481 95.8403 146.462 95.8403 135.009Z" fill="#2E59CF"/>
<path d="M137.344 122.212C128.843 127.171 120.991 136.853 115.147 146.063C113.435 148.778 111.191 151.199 108.771 152.203C105.17 153.678 102.395 152.203 100.211 150.55C98.9117 149.546 97.731 148.365 96.7274 146.948C96.7274 146.948 96.1961 146.299 95.0744 147.303L94.7202 147.834C94.484 148.424 94.484 148.424 94.425 148.897L94.5431 149.31C96.7274 152.498 99.6202 154.977 103.458 155.568C106.35 156.04 110.306 154.682 113.612 151.081C116.15 148.365 117.98 144.941 120.224 141.753C121.05 140.631 121.877 139.51 122.703 138.447C123.825 136.971 125.065 135.554 126.245 134.196C131.618 128.234 137.994 123.334 143.779 122.212C147.853 121.445 151.218 122.862 153.874 124.869C160.073 129.415 166.449 133.783 175.304 133.606C180.145 133.547 185.99 131.481 191.362 126.699C196.144 122.389 200.159 116.309 203.347 110.582C206.83 104.442 211.612 98.7158 217.102 95.9411C223.714 92.576 229.5 93.4025 234.223 95.1146C237.056 96.1182 239.713 97.476 241.956 99.3652C241.956 99.3652 242.015 99.8965 243.255 99.129L243.668 98.6567C243.904 98.3025 244.141 97.8893 244.141 97.0628L243.964 96.7085C239.241 92.7531 233.101 90.3917 226.253 90.7459C221.648 90.9821 216.276 92.9302 211.257 97.417C207.066 101.136 203.583 106.331 200.749 111.409C196.439 119.083 190.359 126.463 183.57 129.178C177.43 131.658 172.176 130.654 167.689 128.942C163.025 127.171 158.951 124.337 154.996 121.445C150.804 118.375 144.665 118.021 137.757 121.917C137.639 122.035 137.462 122.094 137.344 122.212Z" fill="#133695"/>
<path d="M95.0691 141.92C94.7149 142.451 94.7149 142.451 94.4788 142.982L94.4197 143.514C94.6559 144.281 95.1282 144.753 95.5414 145.285C97.6667 147.823 100.205 149.949 103.57 150.539C106.463 151.07 110.359 149.831 113.784 146.229C116.204 143.632 117.975 140.444 120.159 137.492C120.868 136.547 121.576 135.544 122.344 134.658C122.934 133.95 123.525 133.182 124.115 132.533C130.019 125.626 137.221 119.781 143.715 118.719C148.792 117.892 152.511 120.549 155.699 122.91C161.544 127.22 167.684 131.293 176.126 131.234C180.908 131.175 186.634 129.286 192.006 124.504C196.611 120.431 200.331 114.763 203.578 109.214C206.943 103.428 211.488 98.0559 216.684 95.3993C223.532 91.8571 229.435 92.9788 234.276 94.8679C237.169 95.9896 239.885 97.4655 242.187 99.4728L242.541 99.6499L242.955 99.5908L243.427 99.2957L243.84 98.8233C244.135 98.292 244.135 98.292 244.312 97.7017V97.2294C243.84 96.3438 242.896 95.9306 242.069 95.3402C237.582 92.2703 232.446 90.086 226.129 90.3221C221.525 90.4993 216.093 92.3294 210.957 96.8752C206.943 100.417 203.578 105.376 200.921 110.099C196.906 117.066 191.475 123.678 185.335 126.57C178.664 129.699 172.938 128.459 168.215 126.57C163.374 124.622 159.241 121.552 155.05 118.423C150.622 115.058 143.833 114.763 136.453 119.132C128.543 123.796 121.104 132.651 115.2 141.625C115.141 141.684 115.082 141.802 115.023 141.861C113.488 144.163 111.54 146.229 109.533 147.233C106.286 148.768 103.688 147.764 101.681 146.525C99.733 145.344 98.08 143.75 96.7812 141.802V141.743C96.486 141.506 96.486 141.506 96.0728 141.506L95.6005 141.743C95.3643 141.625 95.1872 141.802 95.0691 141.92Z" fill="#09E39E"/>
<path d="M238.004 40.0316C237.016 39.461 237.008 37.6251 237.986 35.9309C238.964 34.2368 240.558 33.326 241.547 33.8966C242.535 34.4671 242.543 36.3031 241.565 37.9972C240.587 39.6913 238.993 40.6022 238.004 40.0316Z" fill="#09E39E"/>
<path d="M226.333 46.766C225.344 46.1954 225.336 44.3595 226.314 42.6653C227.292 40.9712 228.886 40.0603 229.875 40.6309C230.863 41.2015 230.871 43.0374 229.893 44.7316C228.915 46.4257 227.321 47.3365 226.333 46.766Z" fill="#09E39E"/>
<path d="M214.653 53.4847C213.665 52.9141 213.656 51.0782 214.635 49.3841C215.613 47.6899 217.207 46.7791 218.195 47.3497C219.183 47.9203 219.191 49.7562 218.213 51.4503C217.235 53.1445 215.641 54.0553 214.653 53.4847Z" fill="#09E39E"/>
<path d="M108.422 187.32C108.422 185.372 109.78 182.951 111.492 182.007C121.233 176.398 151.4 158.982 161.141 153.374C162.853 152.37 164.211 153.197 164.211 155.145C164.211 161.698 164.211 175.572 164.211 182.125C164.211 184.073 162.853 186.493 161.141 187.438C151.4 193.046 121.233 210.462 111.492 216.07C109.78 217.074 108.422 216.247 108.422 214.299C108.422 207.746 108.422 193.873 108.422 187.32Z" fill="#7DA0FF"/>
<path d="M141.655 173.569C141.655 172.861 141.891 172.094 142.304 171.326C142.718 170.618 143.308 169.968 143.898 169.614C146.909 167.902 152.222 164.832 155.233 163.061C155.824 162.707 156.414 162.648 156.827 162.884C157.24 163.12 157.477 163.651 157.477 164.36C157.477 168.256 157.477 175.636 157.477 179.532C157.477 180.241 157.24 181.008 156.827 181.775C156.414 182.484 155.824 183.133 155.233 183.487C152.222 185.2 146.909 188.269 143.898 190.04C143.308 190.395 142.718 190.454 142.304 190.218C141.891 189.981 141.655 189.45 141.655 188.742C141.655 184.845 141.655 177.525 141.655 173.569Z" fill="#9FB9FF"/>
<path d="M112.198 193.812C112.198 192.631 113.024 191.214 114.028 190.624C118.515 188.026 130.027 181.414 134.514 178.817C135.517 178.226 136.344 178.699 136.344 179.879C136.344 181.06 135.517 182.477 134.514 183.067C130.027 185.665 118.515 192.277 114.028 194.874C113.024 195.465 112.198 194.993 112.198 193.812Z" fill="#9FB9FF"/>
<path d="M116.98 199.776C116.98 198.595 117.806 197.178 118.81 196.588C122.529 194.463 130.794 189.681 134.514 187.496C135.517 186.906 136.344 187.378 136.344 188.559C136.344 189.74 135.517 191.157 134.514 191.747C130.794 193.872 122.529 198.654 118.81 200.839C117.806 201.37 116.98 200.898 116.98 199.776Z" fill="#9FB9FF"/>
<path d="M116.634 203.729C116.634 201.25 118.405 198.18 120.53 196.94C132.869 189.797 171.065 167.776 183.463 160.633C185.647 159.393 187.359 160.397 187.359 162.876C187.359 171.2 187.359 188.793 187.359 197.117C187.359 199.597 185.588 202.667 183.463 203.906C171.124 211.05 132.928 233.07 120.53 240.214C118.346 241.453 116.634 240.45 116.634 237.97C116.634 229.646 116.634 212.053 116.634 203.729Z" fill="#D4E0FF"/>
<path d="M158.659 186.314C158.659 185.429 158.954 184.425 159.485 183.48C160.016 182.536 160.725 181.768 161.492 181.355C165.33 179.171 172.06 175.274 175.838 173.09C176.606 172.677 177.314 172.559 177.845 172.913C178.377 173.208 178.672 173.916 178.672 174.743C178.672 179.702 178.672 189.03 178.672 193.989C178.672 194.874 178.377 195.878 177.845 196.822C177.314 197.767 176.606 198.535 175.838 198.948C172.001 201.132 165.271 205.029 161.492 207.213C160.725 207.626 160.016 207.744 159.485 207.39C158.954 207.095 158.659 206.386 158.659 205.56C158.659 200.601 158.659 191.273 158.659 186.314Z" fill="white"/>
<path d="M121.404 211.933C121.404 210.458 122.466 208.686 123.706 207.919C129.374 204.613 143.955 196.23 149.682 192.924C150.981 192.215 151.984 192.806 151.984 194.282C151.984 195.758 150.922 197.529 149.682 198.296C144.014 201.602 129.433 209.985 123.706 213.291C122.407 214 121.404 213.409 121.404 211.933Z" fill="white"/>
<path d="M127.43 219.489C127.43 218.013 128.492 216.242 129.732 215.475C134.396 212.759 144.963 206.679 149.627 203.963C150.926 203.254 151.93 203.845 151.93 205.321C151.93 206.797 150.867 208.568 149.627 209.335C144.963 212.051 134.396 218.132 129.732 220.847C128.492 221.556 127.43 220.965 127.43 219.489Z" fill="white"/>
<path d="M289.207 151.562C289.207 149.827 290.42 149.128 291.922 149.996C300.546 154.976 327.153 170.342 335.777 175.322C337.28 176.19 338.492 178.29 338.492 180.025C338.492 185.821 338.492 198.083 338.492 203.879C338.492 205.614 337.28 206.313 335.777 205.445C327.153 200.464 300.546 185.099 291.922 180.118C290.42 179.25 289.207 177.151 289.207 175.416C289.207 169.62 289.207 157.338 289.207 151.562Z" fill="#648DFF"/>
<path d="M318.528 173.287C318.528 172.675 318.733 172.202 319.109 171.986C319.484 171.769 319.997 171.829 320.526 172.134C323.19 173.674 327.869 176.377 330.533 177.916C331.063 178.222 331.575 178.754 331.951 179.405C332.326 180.056 332.531 180.766 332.531 181.377C332.531 184.827 332.531 191.332 332.531 194.782C332.531 195.393 332.326 195.866 331.951 196.082C331.575 196.299 331.063 196.24 330.533 195.934C327.869 194.395 323.19 191.691 320.526 190.152C319.997 189.846 319.484 189.314 319.109 188.663C318.733 188.012 318.528 187.303 318.528 186.691C318.528 183.222 318.528 176.736 318.528 173.287Z" fill="#A8BFFF"/>
<path d="M292.541 161.136C292.541 160.111 293.258 159.697 294.146 160.21C298.108 162.497 308.269 168.364 312.231 170.651C313.119 171.164 313.836 172.406 313.836 173.432C313.836 174.457 313.119 174.871 312.231 174.358C308.269 172.071 298.108 166.204 294.146 163.916C293.258 163.404 292.541 162.162 292.541 161.136Z" fill="#A8BFFF"/>
<path d="M296.779 171.283C296.779 170.257 297.505 169.848 298.395 170.362C301.654 172.244 309.008 176.49 312.267 178.372C313.157 178.886 313.883 180.133 313.883 181.158C313.883 182.183 313.157 182.592 312.267 182.078C309.008 180.197 301.654 175.951 298.395 174.069C297.491 173.547 296.779 172.308 296.779 171.283Z" fill="#A8BFFF"/>
<path d="M259.743 306.274L260.982 307.809C260.982 307.809 266.886 313.654 269.011 316.96C271.137 320.266 268.421 322.923 263.521 320.797C258.621 318.672 258.267 318.436 258.267 318.436L253.072 312.414L252.363 305.094L259.743 306.274Z" fill="#010324"/>
<path d="M250.178 307.281L255.846 312.004C255.846 312.004 259.565 318.321 260.982 322.04C262.399 325.76 261.985 329.42 256.082 327.826C250.237 326.232 248.761 319.974 246.518 317.908V311.414L250.178 307.281Z" fill="#010324"/>
<path d="M270.071 233.781L274.617 238.268C274.617 238.268 265.762 295.061 260.98 307.813C260.98 307.813 257.556 310.351 254.722 307.813C251.888 305.274 255.253 234.372 255.253 234.372L270.071 233.781Z" fill="#212121"/>
<path d="M274.383 239.859C273.025 241.335 271.018 243.579 269.778 244.7C267.771 246.59 266.472 261.939 268.833 265.894C269.129 266.367 269.542 266.367 270.073 266.012C272.08 254.264 273.733 243.756 274.383 239.859Z" fill="#403B3C"/>
<path d="M265.766 237.801C265.766 237.801 256.969 303.745 255.848 312.069C255.848 312.069 251.715 316.26 246.461 311.419C246.461 311.419 244.04 267.437 243.804 241.107C243.509 214.659 265.766 237.801 265.766 237.801Z" fill="#212121"/>
<path d="M264.992 243.641C259.325 246.474 253.303 245.825 252.949 249.426C252.595 252.968 251.591 263.772 250.764 280.361C250.292 289.217 254.72 290.338 258.911 289.453L261.273 271.801L264.992 243.641Z" fill="url(#paint2_linear_251_594)"/>
<path d="M245.57 243.055L246.75 246.361C246.75 246.361 248.58 249.549 247.104 251.143C245.629 252.678 242.618 249.49 243.326 252.796C244.094 256.102 243.976 258.935 239.902 255.275C235.829 251.674 238.544 244.59 238.544 244.59L245.57 243.055Z" fill="#FFB56D"/>
<path d="M293.454 227.29C293.454 227.29 296.406 231.009 300.243 228.884C304.021 226.758 304.907 228.765 303.549 230.478C303.549 230.478 308.154 229.887 308.744 233.075C309.334 236.263 300.892 239.628 293.985 233.37C286.96 227.112 293.454 227.29 293.454 227.29Z" fill="#FFB56D"/>
<path d="M259.157 196.234L255.791 199.009C255.791 199.009 246.936 200.721 243.63 211.407C240.324 222.151 238.435 244.762 238.435 244.762C238.435 244.762 241.032 249.308 246.759 246.356L249.179 239.272C249.179 239.272 254.02 243.286 261.046 243.936C268.071 244.585 274.624 238.268 274.624 238.268C274.624 238.268 272.44 223.509 272.085 216.956C272.085 216.956 282.535 231.479 294.283 236.32C294.283 236.32 298.297 235.198 297.884 228.291C297.884 228.291 290.032 222.742 284.129 213.827C278.284 204.913 273.325 197.297 265.178 197.769C256.972 198.242 259.157 196.234 259.157 196.234Z" fill="#02F9AA"/>
<path d="M268.07 242.575C265 235.609 254.079 235.668 254.315 228.642C254.61 221.145 255.378 211.876 253.547 218.016C251.835 223.801 249.474 237.498 249.179 239.151V239.328C249.179 239.328 254.02 243.342 261.045 243.933C263.584 244.169 266.004 243.52 268.07 242.575Z" fill="url(#paint3_linear_251_594)"/>
<path d="M286.663 231.838C289.674 231.012 289.379 228.887 285.424 224.105C281.173 218.969 271.609 203.56 271.609 207.22C271.609 210.703 272.081 216.194 272.14 216.843V216.902C272.081 216.961 278.339 225.699 286.663 231.838Z" fill="url(#paint4_linear_251_594)"/>
<path d="M271.61 181.063C272.319 184.665 274.208 187.912 272.791 193.048C271.374 198.184 266.592 197.83 266.592 197.83V199.424C266.592 199.424 265.707 200.959 262.696 201.136C259.685 201.313 255.789 199.01 255.789 199.01C255.789 199.01 257.442 195.763 255.553 189.21C253.722 182.657 253.604 179.233 258.032 176.281C261.633 173.861 270.43 175.337 271.61 181.063Z" fill="#FFB56D"/>
<path d="M271.61 181.063C272.319 184.665 274.208 187.912 272.791 193.048C271.374 198.184 266.592 197.83 266.592 197.83V199.424C266.592 199.424 265.707 200.959 262.696 201.136C259.685 201.313 255.789 199.01 255.789 199.01C255.789 199.01 257.442 195.763 255.553 189.21C253.722 182.657 253.604 179.233 258.032 176.281C261.633 173.861 270.43 175.337 271.61 181.063Z" fill="#FFB56D"/>
<path d="M255.611 189.383C257.382 195.818 255.788 199.006 255.788 199.006C255.788 199.006 259.685 201.308 262.696 201.131C265.706 200.954 266.592 199.419 266.592 199.419V197.825C266.592 197.825 266.651 197.825 266.828 197.825C266.769 197.825 266.651 197.825 266.592 197.825C265.234 197.825 262.164 197.058 260.629 193.22C259.212 189.619 256.851 189.442 255.611 189.383Z" fill="#FF886D"/>
<path d="M270.672 178.935C268.074 175.039 261.108 174.212 257.979 176.279C253.61 179.23 253.669 182.655 255.559 189.208C255.736 189.916 255.913 190.565 256.031 191.215C257.212 190.506 257.979 189.916 257.979 189.916C257.979 189.916 255.382 187.791 257.153 186.61C258.865 185.429 260.636 187.318 260.636 187.318C261.521 184.721 260.222 181.179 266.953 180.116C268.724 179.88 269.963 179.467 270.672 178.935Z" fill="#212121"/>
<path d="M234.508 284.641L349.082 218.491L403.798 250.082L289.224 316.231L234.508 284.641Z" fill="#F9FAFF"/>
<path d="M403.758 250.125L289.176 316.288V367.404L403.758 301.241V250.125Z" fill="url(#paint5_linear_251_594)"/>
<path d="M234.516 284.703L289.221 316.296V367.413L234.516 335.82V284.703Z" fill="url(#paint6_linear_251_594)"/>
<path d="M398.531 376.224C398.531 376.224 397.941 380.77 395.284 378.113C392.628 375.456 394.694 371.383 394.694 371.383L398.531 376.224Z" fill="black"/>
<path d="M382.47 264.59C382.47 264.59 379.872 263.291 383.297 257.564C386.78 251.838 385.245 246.82 379.4 245.403C371.607 243.514 370.072 245.049 368.065 253.314C366.117 261.402 366.707 262.642 369.187 263.232C373.615 264.295 369.836 268.958 368.656 270.375C367.416 271.733 370.899 272.087 377.216 270.375C383.592 268.604 382.47 264.59 382.47 264.59Z" fill="#FFA594"/>
<path d="M382.656 258.861C381.653 258.27 380.354 258.093 378.819 258.506C378.819 258.506 377.402 260.514 375.808 260.1C374.214 259.687 375.454 259.392 373.978 259.215C372.561 258.979 371.262 260.278 370.436 261.399C369.727 262.344 368.074 262.344 367.189 261.635C367.484 262.639 368.192 262.993 369.314 263.288C373.742 264.351 369.963 269.015 368.783 270.432C368.724 270.491 368.665 270.55 368.606 270.609C369.137 270.668 369.786 270.727 370.436 270.786C371.971 270.845 373.329 270.963 374.568 271.081C375.395 270.904 376.339 270.668 377.284 270.432C383.601 268.661 382.538 264.646 382.538 264.646C382.538 264.646 380.295 263.525 382.656 258.861Z" fill="#FF7A60"/>
<path d="M381.647 261.699C381.824 260.695 382.296 259.337 383.359 257.566C386.842 251.839 385.307 246.821 379.463 245.405C374.917 244.283 372.496 244.342 370.902 246.231C370.843 246.703 370.902 246.999 370.902 246.999C370.902 246.999 370.194 249.124 372.674 250.718C375.153 252.312 373.618 254.083 374.149 255.264C374.681 256.444 377.633 254.791 377.455 257.212C377.337 259.632 374.149 259.337 374.149 259.337C374.149 259.337 374.563 262.23 375.802 262.761C375.743 262.702 378.872 260.636 381.647 261.699Z" fill="#373737"/>
<path d="M400.839 367.964L403.731 368.259C403.731 368.259 405.857 371.447 407.805 373.041C409.753 374.635 410.225 375.639 408.927 384.435C407.628 393.291 404.558 395.888 400.898 393.35C397.237 390.752 397.474 387.151 396.942 380.834C396.942 380.834 397.178 377.941 394.758 375.639C392.219 373.336 396.824 366.488 400.839 367.964Z" fill="#EE9F2A"/>
<path d="M409.455 375.338C408.333 374.629 406.975 374.334 405.44 374.866C400.481 376.519 399.242 386.083 400.068 392.695C400.304 392.931 400.599 393.108 400.895 393.344C404.555 395.942 407.625 393.285 408.924 384.429C409.691 379.293 409.868 376.814 409.455 375.338Z" fill="#212121"/>
<path d="M356.857 381.242L358.156 385.375C358.156 385.375 356.917 390.924 356.857 392.459C356.857 393.994 354.437 395.706 350.304 394.761C346.172 393.817 338.261 389.153 336.49 387.5C334.719 385.847 335.959 381.714 341.508 382.954C345.345 383.781 346.585 382.246 346.585 382.246L356.857 381.242Z" fill="#EE9F2A"/>
<path d="M364.82 285.609C364.82 285.609 356.26 286.672 354.902 293.166C353.544 299.66 363.64 296.059 363.64 296.059L364.82 285.609Z" fill="#FFA594"/>
<path d="M387.201 304.74L393.813 305.98C393.813 305.98 392.691 340.693 391.392 344.884C391.392 344.884 402.137 365.842 403.672 368.263C403.672 368.263 398.241 368.499 396.528 371.392C394.816 374.284 395.23 378.476 395.23 378.476C395.23 378.476 377.755 361.828 374.272 350.08C370.789 338.39 372.855 329.299 372.855 329.299L385.075 303.5L387.201 304.74Z" fill="#212121"/>
<path d="M372.329 334.141C372.151 337.919 372.388 343.586 374.336 350.08C375.221 353.091 377.11 356.456 379.295 359.762C379.531 358.286 379.531 355.689 378.468 351.615C376.52 344.413 377.583 339.395 376.048 336.856C375.28 335.557 373.804 334.318 372.329 334.141Z" fill="#564D4E"/>
<path d="M364.406 304.198L359.565 306.323C359.565 306.323 348.643 368.134 346.813 380.709L346.636 382.244C346.636 382.244 348.112 384.546 353.071 385.314C358.03 386.081 358.62 385.077 358.62 385.077C358.62 385.077 374.678 335.841 379.873 314.765C385.009 293.689 364.406 304.198 364.406 304.198Z" fill="#212121"/>
<path d="M365.18 303.789C364.708 304.025 364.413 304.143 364.413 304.143L359.572 306.269C359.572 306.269 354.023 337.617 350.185 360.228C352.842 356.508 362.996 315.124 365.358 315.124C367.719 315.124 371.852 312.054 371.852 312.054C371.852 312.054 369.018 307.744 365.18 303.789Z" fill="#564D4E"/>
<path d="M378.759 313.477C378.759 313.477 381.415 315.956 382.124 320.679C382.832 325.402 380.057 329.475 376.161 327.173C372.265 324.871 375.157 322.155 373.504 321.151C371.851 320.148 370.671 318.908 371.084 317.137C371.497 315.425 378.759 313.477 378.759 313.477Z" fill="#FFA594"/>
<path d="M380.997 313.707C381.233 313.648 381.469 313.589 381.705 313.53C396.287 310.283 393.985 303.199 393.985 303.199C393.985 303.199 389.734 298.417 390.856 285.37C391.977 272.323 389.262 264.235 380.997 264.589C371.374 265.003 365.057 267.718 363.64 275.806C362.754 280.824 362.813 286.078 362.813 286.078C362.813 286.078 359.744 304.793 359.507 306.328C359.507 306.328 363.227 311.405 370.37 313.412C370.901 315.597 371.256 316.954 371.256 316.954C379.166 321.559 380.997 315.301 380.997 315.301C381.056 314.888 381.056 314.357 380.997 313.707Z" fill="#EE9F2A"/>
<path d="M378.226 297.655C379.879 305.92 381 313.713 381 313.713C381.236 313.654 381.473 313.595 381.709 313.536C382.948 313.24 384.07 312.945 385.133 312.591C383.126 308.222 380.351 302.319 378.226 297.655ZM365.828 295.234C363.998 302.732 362.227 305.034 361.518 308.34C363.289 309.993 366.3 312.178 370.433 313.358V313.418C370.433 313.418 369.429 308.399 365.946 295.825C365.887 295.707 365.887 295.471 365.828 295.234Z" fill="#E68636"/>
<path d="M370.026 266.891C366.661 268.603 364.417 271.436 363.65 275.805C362.764 280.823 362.823 286.077 362.823 286.077C362.823 286.077 362.41 288.793 361.82 292.217C362.41 292.276 362.882 291.922 363.059 291.273C363.591 289.383 363.236 288.026 366.483 297.471C369.73 306.917 369.317 290.859 367.369 285.723C365.362 280.528 365.421 276.632 368.195 273.503C370.085 271.259 370.144 268.426 370.026 266.891Z" fill="#EEB663"/>
<path d="M278.734 112.75L367.136 61.7115L421.85 93.301L333.449 144.339L278.734 112.75Z" fill="#F9FAFF"/>
<path d="M421.688 93.2109L333.449 144.157V156.024L421.688 105.078V93.2109Z" fill="url(#paint7_linear_251_594)"/>
<path d="M278.75 112.586L333.462 144.175V156.042L278.75 124.453V112.586Z" fill="#5077E3"/>
<path d="M-88.4531 299.32L-41.309 272.102L0.458336 296.216L-46.6857 323.435L-88.4531 299.32Z" fill="#1D4BC7"/>
<path d="M83.8452 357.533C80.0799 355.359 75.7004 355.199 72.3607 357.128C47.5514 371.451 38.6773 376.575 8.38129 394.066C6.66373 395.058 5.71447 396.989 5.95065 399.108C6.18684 401.228 7.48497 403.245 9.43873 404.373C10.1573 404.787 10.8685 405.198 11.5497 405.591C15.315 407.765 19.6945 407.925 23.0342 405.997C47.8435 391.673 56.7175 386.55 87.0135 369.058C88.7311 368.067 89.6803 366.135 89.4441 364.016C89.208 361.896 87.9099 359.88 85.9562 358.752C85.2451 358.341 84.5339 357.93 83.8452 357.533Z" fill="#1D4BC7"/>
<path d="M6.4723 257.574C6.4723 250.749 11.2568 242.461 17.1686 239.047C30.7458 231.205 53.9922 217.778 67.5693 209.936C73.4811 206.521 78.2656 209.282 78.2656 216.107C78.2656 240.806 78.2656 295.988 78.2656 320.687C78.2656 327.513 73.4811 335.8 67.5693 339.215C53.9922 347.057 30.7458 360.484 17.1686 368.326C11.2568 371.74 6.4723 368.98 6.4723 362.154C6.4723 337.455 6.4723 282.244 6.4723 257.574Z" fill="#A6BCF2"/>
<path d="M20.512 265.656C20.512 258.833 25.3164 250.57 31.1778 247.159C44.7264 239.327 68.0278 225.875 81.5763 218.044C87.4858 214.633 92.2422 217.419 92.2422 224.194C92.2422 248.888 92.2422 304.091 92.2422 328.786C92.2422 335.608 87.4378 343.872 81.5763 347.283C68.0278 355.114 44.7264 368.567 31.1778 376.398C25.2684 379.809 20.512 377.023 20.512 370.248C20.512 345.553 20.512 290.35 20.512 265.656Z" fill="white"/>
<path d="M92.2891 260.228V224.194C92.2891 217.372 87.4846 214.634 81.5752 218.045L40.8816 241.538C40.5453 244.085 40.4012 246.583 40.4012 249.033C40.4012 273.392 57.505 283.241 78.5964 271.086C83.4009 268.299 88.0612 264.6 92.2891 260.228Z" fill="#E2E9FA"/>
<path d="M64.182 339.401C63.7496 344.446 60.1943 350.211 55.9664 352.661C51.7865 355.064 48.3273 353.478 47.7508 349.154L20.5097 369.189V370.246C20.5097 377.068 25.3141 379.806 31.2236 376.395C44.7721 368.564 68.0736 355.112 81.6221 347.281C87.5315 343.869 92.3359 335.606 92.3359 328.783V326.766L64.182 339.401Z" fill="#E2E9FA"/>
<path d="M27.0424 311.875C27.0424 310.77 27.715 309.425 28.5798 308.945L80.9001 278.725C81.7649 278.244 82.4375 278.773 82.4375 279.878V283.962C82.4375 285.067 81.7649 286.412 80.9001 286.892L28.5798 317.112C27.715 317.593 27.0424 317.064 27.0424 315.959V311.875Z" fill="#E2E9FA"/>
<path d="M44.8735 314.471C44.8735 313.847 45.2578 313.174 45.6902 312.886L81.6754 292.131C82.1078 291.89 82.4922 292.131 82.4922 292.755V294.965C82.4922 295.59 82.1078 296.262 81.6754 296.551L45.6902 317.306C45.2578 317.546 44.8735 317.306 44.8735 316.681V314.471Z" fill="#E2E9FA"/>
<path d="M52.4683 349.11C50.5381 347.996 50.5329 344.392 52.4566 341.06C54.3803 337.728 57.5046 335.93 59.4348 337.045C61.365 338.159 61.3702 341.764 59.4465 345.095C57.5227 348.427 54.3985 350.225 52.4683 349.11Z" fill="#09E39E"/>
<path d="M85.7337 443.949C73.0179 443.949 62.7096 438.002 62.7096 430.666C62.7096 423.33 73.0179 417.383 85.7337 417.383C98.4496 417.383 108.758 423.33 108.758 430.666C108.758 438.002 98.4496 443.949 85.7337 443.949Z" fill="#5382FF"/>
<path d="M79.5007 431.164L79.0202 436.209C79.0202 436.209 78.5398 439.091 75.4169 437.89C72.294 436.641 68.3063 436.881 66.817 439.716C65.3276 442.551 71.7175 444.809 78.0113 446.106C84.3051 447.403 86.419 446.49 87.5241 443.944C87.7643 441.638 87.0917 441.638 87.6682 437.218C88.1486 433.086 79.5007 431.164 79.5007 431.164Z" fill="#080343"/>
<path d="M106.315 419.963L107.805 423.326C105.595 424.671 108.189 429.475 105.499 430.1C102.52 430.773 101.271 430.917 99.7813 429.572C98.7243 428.611 94.2562 423.374 94.5445 419.723C94.7847 416.071 99.1567 419.482 101.271 419.578C103.385 419.626 106.315 419.963 106.315 419.963Z" fill="#080343"/>
<path d="M108.287 350.164L111.891 352.23C111.891 352.23 110.738 384.708 109.921 403.733C109.104 422.711 107.807 423.336 107.807 423.336C107.807 423.336 106.029 427.611 98.3902 423.239C98.3902 423.239 93.6338 391.194 93.3455 382.354C93.0572 373.514 102.666 350.741 102.666 350.741L108.287 350.164Z" fill="url(#paint8_linear_251_594)"/>
<path d="M87.9151 346.848L80.3241 356.265C80.3241 356.265 78.018 422.326 79.123 436.451C79.123 436.451 83.5911 441.591 87.6268 437.171C87.6268 437.171 99.782 369.717 103.001 356.697C106.268 343.677 87.9151 346.848 87.9151 346.848Z" fill="url(#paint9_linear_251_594)"/>
<path d="M101.704 349.297C100.887 349.921 99.9746 350.93 99.0618 352.372C99.0618 352.372 93.5367 348.192 92.6719 351.363C91.8071 354.534 80.5167 408.055 78.8832 417.424V417.52C78.8351 425.88 78.8832 432.846 79.1715 436.449C79.1715 436.449 83.6396 441.59 87.6753 437.17C87.6753 437.17 99.8305 369.716 103.049 356.696C103.914 353.188 103.194 350.834 101.704 349.297Z" fill="#22197E"/>
<path d="M85.9929 279.534C85.9929 279.534 83.6868 275.979 85.4645 273.913C87.2421 271.847 85.9449 267.187 82.7259 268.916C79.507 270.646 80.5159 275.498 79.507 276.459C78.498 277.42 76.3841 279.15 77.9215 280.111C79.507 281.024 81.669 284.867 81.669 284.867L85.9929 279.534Z" fill="url(#paint10_linear_251_594)"/>
<path d="M48.8131 319.992C48.8131 319.992 49.7739 318.454 48.1885 316.388C46.6511 314.322 44.3449 306.731 42.7114 307.116C41.0779 307.5 42.8075 312.785 42.8075 312.785C42.8075 312.785 39.9249 314.707 40.5014 317.541C41.0779 320.376 44.441 322.97 44.441 322.97L48.8131 319.992Z" fill="url(#paint11_linear_251_594)"/>
<path d="M106.845 318.448C107.037 319.842 107.565 311.674 103.482 301.104C99.4458 290.535 85.9453 279.484 85.9453 279.484C85.9453 279.484 79.9878 280.734 79.8437 285.97C79.8437 285.97 91.2302 305.669 92.9118 311.386C94.5933 317.103 106.652 317.055 106.845 318.448Z" fill="url(#paint12_linear_251_594)"/>
<path d="M85.7047 302.494C86.8097 303.359 88.1069 303.743 88.8756 304.272C90.413 305.425 90.413 307.875 90.413 307.875L100.406 306.914C100.406 306.914 98.3403 303.551 98.004 302.254C97.8599 301.677 97.5716 299.948 97.2834 298.17C96.899 295.864 96.5627 293.462 96.5627 293.462L86.1851 287.648C86.1851 287.648 84.4555 291.348 83.7829 296.777C83.4466 299.9 84.4555 301.533 85.7047 302.494Z" fill="url(#paint13_linear_251_594)"/>
<path d="M85.7047 302.499C86.8097 303.363 88.1069 303.748 88.8756 304.276C90.413 305.429 90.413 307.88 90.413 307.88L100.406 306.919C100.406 306.919 98.3403 303.556 98.004 302.258C97.8599 301.682 97.5716 299.952 97.2834 298.175C95.2175 297.022 93.4879 296.781 93.4879 296.781C93.4879 296.781 92.7192 299.28 90.0287 299.616C87.8667 299.76 86.9538 300.961 85.7047 302.499Z" fill="#E76258"/>
<path d="M98.0614 302.257C98.0614 302.257 96.524 302.113 94.8905 302.834C93.2089 303.603 92.2 304.419 91.8157 303.651C91.4313 302.93 90.7106 299.519 90.6145 299.134C90.5665 298.75 92.4402 298.126 92.8246 296.492C93.257 294.859 91.7196 294.618 90.5185 294.907C89.3654 295.195 89.1732 295.147 89.0771 293.465C88.933 291.784 88.933 291.159 88.933 291.159C88.933 291.159 85.1855 290.198 84.7051 287.123C84.2247 284.001 87.3475 282.559 89.2693 282.751C91.1911 282.943 92.6804 286.403 94.0737 286.979C95.467 287.556 99.5508 288.901 99.9832 292.312C100.464 295.771 97.6771 299.855 98.0614 302.257Z" fill="#373737"/>
<path d="M43.6689 325.56C45.3024 327.434 53.6621 337.043 56.6889 340.694C58.6587 343.096 64.5201 347.18 70.8619 345.499C73.3602 344.826 75.9546 343.241 78.4049 340.31C79.2697 339.253 80.1345 338.052 80.9513 336.658C80.9513 336.658 81.1434 344.153 81.0473 347.949C80.9993 348.91 80.9513 349.919 80.9032 350.928C80.663 353.858 80.3747 356.549 80.3747 356.549C80.3747 356.549 83.7378 358.951 88.3981 360.44C91.9534 361.593 96.2774 362.17 100.553 360.825C110.354 357.606 111.844 351.937 111.844 351.937C111.844 351.937 111.7 348.285 111.363 343.385C110.931 337.043 110.21 328.635 109.105 323.254C107.087 313.693 104.877 309.321 104.013 307.303C103.292 305.67 98.1992 304.421 93.0104 306.054C91.8093 306.439 90.6082 306.967 89.4551 307.736C83.3535 311.627 73.5524 324.023 69.9011 328.299C67.8832 330.653 66.8743 331.806 65.7212 331.71C65.0966 331.662 64.424 331.278 63.5592 330.461L63.5112 330.413C63.2229 330.124 62.8385 329.788 62.4542 329.404L62.3101 329.26C58.8509 325.704 48.4252 316.288 48.4252 316.288C48.4252 316.288 46.5515 315.855 44.7739 316.96C44.2454 317.249 43.7649 317.729 43.2845 318.354C41.2186 321.044 42.0353 323.687 43.6689 325.56Z" fill="url(#paint14_linear_251_594)"/>
<path d="M80.8563 350.929C80.6161 353.859 80.3278 356.55 80.3278 356.55C80.3278 356.55 83.6909 358.952 88.3512 360.441C91.9065 361.594 96.2305 362.171 100.506 360.826C110.308 357.607 111.797 351.937 111.797 351.937C111.797 351.937 111.653 348.286 111.316 343.386C108.722 343.001 105.407 342.953 101.275 343.674C87.8708 346.076 89.216 334.738 90.225 328.348C91.2339 321.958 90.225 321.766 90.225 321.766L81.0005 336.707C81.0005 336.707 81.1926 344.202 81.0966 347.998C81.0005 348.911 80.9044 349.92 80.8563 350.929Z" fill="#663EDC"/>
<path d="M80.3181 356.551C80.3181 356.551 83.6812 358.953 88.3415 360.442C88.966 356.935 89.3984 354.629 89.3984 354.629L80.8946 350.93C80.6063 353.86 80.3181 356.551 80.3181 356.551Z" fill="#714AE3"/>
<path d="M65.6225 331.71C67.3521 332.575 69.3699 333.344 70.8593 332.911C73.8861 332.047 83.3028 324.648 90.1251 315.615C94.1128 310.283 93.8245 307.496 92.9117 306.055C91.7106 306.439 90.5094 306.968 89.3564 307.736C83.2548 311.628 73.4537 324.023 69.8023 328.299C67.7845 330.653 66.7755 331.758 65.6225 331.71Z" fill="url(#paint15_linear_251_594)"/>
<path d="M43.6663 325.561C45.2998 327.435 53.6595 337.044 56.6863 340.695C58.6561 343.097 64.5175 347.181 70.8594 345.499C69.418 342.809 64.1332 340.743 60.2416 335.698C55.9656 330.173 47.654 320.372 44.7233 316.961C44.1948 317.249 43.7143 317.73 43.2339 318.354C41.216 321.045 42.0328 323.687 43.6663 325.561Z" fill="url(#paint16_linear_251_594)"/>
<path d="M-11.9531 206.227L24.4229 185.225L56.6503 203.831L20.2743 224.833L-11.9531 206.227Z" fill="#1D4BC7"/>
<path d="M-12.4922 183.609L13.4877 168.61L37.5698 182.514L11.5899 197.513L-12.4922 183.609Z" fill="#C1D2FF"/>
<path d="M37.9609 182.297L11.5923 197.525L11.5923 220.009L37.9609 204.781V182.297Z" fill="#6F8FE6"/>
<path d="M-12.4922 183.625L11.5887 197.532V220.016L-12.4922 206.11L-12.4922 183.625Z" fill="#8EABF8"/>
<path d="M459.188 274.289L495.564 253.287L527.791 271.894L491.415 292.896L459.188 274.289Z" fill="#1D4BC7"/>
<path d="M458.656 251.68L484.636 236.68L508.718 250.584L482.738 265.583L458.656 251.68Z" fill="#C1D2FF"/>
<path d="M509.102 250.367L482.733 265.595V288.08L509.102 272.852V250.367Z" fill="#6F8FE6"/>
<path d="M458.656 251.695L482.737 265.602V288.087L458.656 274.18V251.695Z" fill="#8EABF8"/>
<path d="M242.284 482.821C235.735 479.04 236.041 472.734 242.966 468.736C249.891 464.738 260.813 464.561 267.362 468.342C273.91 472.123 273.605 478.429 266.68 482.427C259.754 486.425 248.832 486.601 242.284 482.821Z" fill="#5382FF"/>
<path d="M151.667 491.343C145.118 487.562 145.917 480.971 153.45 476.622C160.984 472.272 172.399 471.811 178.948 475.592C185.496 479.373 184.698 485.963 177.164 490.313C169.631 494.662 158.215 495.123 151.667 491.343Z" fill="#5382FF"/>
<path d="M281.461 399.858C281.461 399.858 279.159 401.039 277.683 399.622C276.207 398.205 277.742 392.597 281.461 399.858Z" fill="#212121"/>
<path d="M286.067 393.602L287.956 396.494C287.956 396.494 288.31 399.446 288.96 400.863C289.609 402.28 292.797 404.228 292.148 407.062C291.498 409.955 288.842 410.014 286.244 407.652C283.646 405.232 282.643 405.94 281.521 407.298C280.34 408.656 277.684 407.947 277.566 405.763C277.389 403.579 279.101 403.402 279.278 401.158C279.455 398.915 277.979 396.672 277.979 396.672V393.07L286.067 393.602Z" fill="#FB876D"/>
<path d="M245.801 386.695L243.735 387.876C243.735 387.876 241.669 390.71 241.374 392.009C241.078 393.248 243.086 393.425 243.086 393.425C243.086 393.425 240.842 399.388 247.1 397.794C253.358 396.2 250.465 390.297 250.465 390.297L245.801 386.695Z" fill="#FB876D"/>
<path d="M250.467 387.75L246.747 393.299C246.747 393.299 244.858 399.911 246.216 424.884C247.574 449.856 248.46 457.177 248.519 458.948C248.578 460.719 248.105 463.73 242.379 466.917C236.711 470.105 237.597 474.061 241.257 474.002C244.917 473.943 254.363 471.581 257.315 469.633C260.267 467.685 259.027 462.608 259.086 459.892C259.145 457.177 263.219 406.405 263.219 397.609C263.278 388.931 250.467 387.75 250.467 387.75Z" fill="#4945AF"/>
<path d="M261.633 425.652C257.973 410.775 253.604 396.016 253.604 396.016C253.604 396.016 252.187 397.255 251.951 401.034C251.715 404.812 253.073 427.836 253.545 438.994C253.781 444.957 251.124 453.753 247.936 452.159C248.645 462.845 248.409 457.708 248.468 458.948C248.527 460.719 248.054 463.73 242.328 466.918C242.269 466.918 242.21 466.977 242.151 466.977C243.686 469.279 245.929 471.051 249.176 471.936C249.589 472.054 249.944 472.172 250.357 472.231C253.25 471.405 255.965 470.46 257.323 469.575C260.275 467.626 259.035 462.549 259.094 459.834C259.212 458.417 260.511 441.592 261.633 425.652Z" fill="#353288"/>
<path d="M252.416 392.477C252.416 392.477 253.892 413.257 257.375 437.403C260.859 461.549 262.748 469.991 260.859 473.238C258.969 476.485 252.475 480.323 252.003 482.802C251.531 485.282 255.782 485.99 262.453 484.691C269.124 483.392 273.256 481.208 273.729 479.378C274.201 477.548 273.256 473.71 273.079 470.345C272.961 466.98 273.138 402.395 273.079 396.963C273.079 391.709 252.416 392.477 252.416 392.477Z" fill="#4945AF"/>
<path d="M272.607 395.773C271.013 396.541 257.494 395.124 255.486 396.718C254.483 395.419 265.404 403.684 265.05 408.643C264.224 419.624 264.991 438.516 266.408 452.035C267.057 458.234 264.047 467.266 261.449 466.44C261.744 469.982 261.567 472.048 260.8 473.288C260.445 473.878 260.032 474.469 259.442 475.059C260.091 479.782 262.689 484.151 270.482 482.261C272.371 481.376 273.492 480.372 273.729 479.428C274.201 477.598 273.256 473.76 273.079 470.395C272.961 467.03 273.138 402.445 273.079 397.013C273.138 396.6 272.961 396.128 272.607 395.773Z" fill="#353288"/>
<path d="M267.121 348.73L269.483 349.025C269.483 349.025 278.279 353.63 281.054 362.957C284.596 375.001 287.961 395.604 287.961 396.49C287.961 397.375 286.072 395.014 282.825 394.719C279.519 394.424 276.921 397.907 277.748 399.678C277.748 399.678 275.681 397.375 274.028 390.055C274.028 390.055 273.792 396.018 273.025 397.316C272.257 398.674 268.479 402.63 260.214 400.209C252.008 397.789 247.403 396.254 246.99 393.066V389.642C246.99 389.642 245.16 389.464 243.743 387.162C243.743 387.162 244.569 375.355 245.337 369.687C246.104 364.02 245.809 347.254 253.838 345.778C261.867 344.302 267.121 348.73 267.121 348.73Z" fill="white"/>
<path d="M273.964 390.06C272.902 383.979 271.249 373.057 270.481 369.043C269.714 365.028 268.651 380.732 267.116 389.646C265.581 398.561 256.135 395.491 253.892 398.266C255.663 398.915 257.788 399.505 260.209 400.273C268.415 402.693 272.193 398.738 273.02 397.38C273.728 396.14 274.023 390.827 274.023 390.178V390.06H273.964Z" fill="#E6E6FF"/>
<path d="M246.925 389.643C247.338 385.746 247.987 379.193 248.696 371.991C249.345 365.202 247.633 364.257 245.685 366.677C245.567 367.858 245.508 368.862 245.39 369.688C244.622 375.356 243.796 387.163 243.796 387.163C244.977 389.229 246.571 389.583 246.925 389.643Z" fill="#E6E6FF"/>
<path d="M277.28 355.811C275.154 355.457 273.56 356.579 274.8 360.652C276.571 366.556 281.826 387.278 283.715 394.834C286.371 395.425 287.906 397.255 287.906 396.428C287.906 395.543 284.541 374.939 280.999 362.896C280.232 360.121 278.815 357.76 277.28 355.811Z" fill="#E6E6FF"/>
<path d="M269.483 349.026C269.483 349.026 265.646 345.956 268.775 341.469C271.254 337.986 271.668 331.787 265.115 330.075C258.562 328.363 255.138 332.377 253.957 338.93C252.894 344.716 253.721 349.793 258.562 349.321C258.562 349.321 258.68 349.911 258.798 350.797C258.975 351.682 260.923 354.457 269.483 349.026Z" fill="#FB876D"/>
<path d="M268.764 341.531C267.406 340.882 266.462 340.469 266.462 340.469C266.462 340.469 266.462 342.712 264.75 343.598C263.038 344.483 262.624 344.66 261.444 346.727C260.263 348.793 259.377 349.029 258.433 349.383C258.492 349.383 258.492 349.383 258.551 349.383C258.551 349.383 258.669 349.974 258.787 350.859C258.905 351.745 260.912 354.46 269.413 349.088C269.472 349.029 265.635 345.959 268.764 341.531Z" fill="#D56147"/>
<path d="M267.594 344.184C267.712 343.358 268.067 342.472 268.775 341.469C271.254 337.986 271.668 331.787 265.115 330.075C260.392 328.835 257.263 330.606 255.492 334.089C257.44 335.506 261.041 334.68 261.277 337.808C261.514 340.996 263.462 339.048 264.583 340.288C265.705 341.528 264.761 343.535 264.761 343.535C265.705 344.243 266.886 344.243 267.594 344.184Z" fill="#212121"/>
<path d="M248.519 460.062C248.283 461.834 247.102 464.372 242.438 466.97C236.771 470.158 237.656 474.113 241.316 474.054C244.977 473.995 254.422 471.634 257.433 469.685C260.149 467.914 259.322 463.369 259.204 460.594C254.422 463.428 250.231 461.243 248.519 460.062Z" fill="#212121"/>
<path d="M261.626 468.872C261.685 470.997 261.449 472.355 260.859 473.299C258.969 476.546 252.475 480.384 252.003 482.863C251.531 485.343 255.782 486.051 262.453 484.752C269.124 483.453 273.256 481.269 273.729 479.439C274.201 477.609 273.256 473.772 273.079 470.406C273.079 470.17 273.079 469.639 273.079 468.812C271.249 470.466 267.353 472.473 261.626 468.872Z" fill="#212121"/>
<path d="M171.062 465.672L169.822 470.631C169.822 470.631 169.999 472.697 169.468 474.173C168.877 475.649 167.578 477.361 173.01 480.254C178.382 483.147 180.035 483.796 182.101 483.501C184.168 483.206 185.702 480.608 182.633 478.247C179.563 475.885 178.382 474.941 178.264 473.76C178.146 472.579 177.024 468.329 177.024 468.329L171.062 465.672Z" fill="#0CDC9A"/>
<path d="M157.726 470.578L159.615 472.231C159.615 472.231 159.32 475.832 159.615 477.426C159.911 479.02 165.755 483.094 164.397 485.691C163.039 488.289 159.202 487.994 155.247 484.865C151.173 481.677 151.882 481.205 151.941 479.02C152.059 476.836 151.468 472.29 151.468 472.29L157.726 470.578Z" fill="#0CDC9A"/>
<path d="M176.963 388.859L180.387 393.877C180.387 393.877 183.162 402.379 181.45 428.118C179.738 453.858 178.38 470.27 178.38 470.27C178.38 470.27 174.425 473.163 169.584 470.506C169.584 470.506 165.274 445.475 162.558 426.879C159.843 408.282 164.507 391.162 164.507 391.162L176.963 388.859Z" fill="#1E1672"/>
<path d="M178.983 391.82C175.972 391.997 173.079 392.352 172.666 393.06C171.78 394.713 169.36 401.207 169.419 406.048C169.478 410.889 171.19 419.449 171.367 440.112C171.485 452.864 175.736 459.062 178.983 461.955C179.514 454.694 180.399 442.887 181.403 428.068C183.115 402.329 180.34 393.828 180.34 393.828L178.983 391.82Z" fill="#3C32A7"/>
<path d="M202.354 385.086C202.354 385.086 207.726 383.137 209.615 384.2C211.563 385.263 209.851 386.561 209.851 386.561C209.851 386.561 213.866 387.506 213.334 390.34C212.862 393.114 205.128 391.461 202.767 390.635C200.465 389.808 202.354 385.086 202.354 385.086Z" fill="#FF9B75"/>
<path d="M143.021 388.094L142.608 392.521C142.608 392.521 143.788 396.595 142.312 396.3C140.777 396.005 140.896 395.06 139.715 397.067C138.534 399.074 135.464 397.835 135.582 394.529C135.7 391.282 137.708 389.393 137.708 389.393L143.021 388.094Z" fill="#FF9B75"/>
<path d="M154.776 388.391L147.101 392.169C147.101 392.169 143.145 398.073 144.503 414.78C145.861 431.546 151.115 468.562 151.529 472.34C151.529 472.34 156.133 474.879 159.617 472.163C159.617 472.163 166.819 432.963 168.472 415.901C170.125 398.84 170.125 397.246 170.125 397.246L154.776 388.391Z" fill="#1E1672"/>
<path d="M162.805 393.055L154.717 394.885C154.717 394.885 152.65 433.376 154.717 446.955C155.661 453.272 158.908 456.46 162.096 458.113C164.339 445.125 167.468 426.41 168.472 415.961C170.125 398.899 170.125 397.305 170.125 397.305L162.805 393.055Z" fill="#3C32A7"/>
<path d="M203.703 384.379C203.703 384.379 189.712 378.535 188.236 376.468C186.76 374.343 184.989 361.355 181.978 356.16C178.967 350.965 165.625 351.732 160.016 354.153C154.408 356.632 139.826 383.258 137.642 389.338C137.642 389.338 138.822 392.172 142.896 392.349C142.896 392.349 155.884 376.232 156.828 374.874C157.714 373.517 156.474 378.594 152.696 383.966C148.918 389.338 148.032 389.692 147.028 392.172C147.028 392.172 150.334 397.367 162.732 399.492C175.13 401.618 180.384 393.884 180.384 393.884C180.384 393.884 177.55 383.848 177.314 380.483C177.314 380.483 182.332 385.973 192.604 389.692C202.877 393.412 203.703 392.821 203.703 392.821C203.703 392.821 206.832 389.043 203.703 384.379Z" fill="url(#paint17_linear_251_594)"/>
<path d="M184.051 361.291C181.571 360.228 181.099 363.357 181.099 363.357C181.807 366.486 181.867 368.965 178.797 372.566C175.845 376.05 177.144 380.241 177.262 380.477C177.262 380.477 182.28 385.968 192.552 389.687C202.824 393.406 203.651 392.816 203.651 392.816C203.651 392.816 204.595 391.635 204.891 389.805C202.647 388.919 199.577 387.798 196.862 386.204C192.316 383.547 189.305 381.894 188.065 377.112C187.947 376.64 187.888 376.227 187.888 375.813C186.885 373.452 185.704 366.663 184.051 361.291Z" fill="url(#paint18_linear_251_594)"/>
<path d="M153.939 397.01C158.013 392.937 162.5 382.015 160.847 379.595C158.957 376.702 159.961 373.219 161.201 370.68C162.5 368.142 162.736 366.961 160.906 369.204C159.607 370.798 157.186 374.222 156.773 374.813C157.6 373.75 156.301 378.709 152.581 383.963C148.803 389.335 147.918 389.69 146.914 392.169C147.032 392.169 148.685 394.767 153.939 397.01ZM156.773 374.99L156.832 374.931L156.773 374.99Z" fill="#1DAE81"/>
<path d="M178.509 339.93C178.509 339.93 180.339 342.941 180.221 347.604C180.103 352.268 177.505 352.032 176.148 352.209C174.79 352.386 175.38 352.741 175.557 354.571C175.557 354.571 175.085 356.637 172.369 357.109C169.713 357.522 167.646 355.043 167.056 354.039C166.407 353.036 171.425 341.169 171.425 341.169L178.509 339.93Z" fill="url(#paint19_linear_251_594)"/>
<path d="M179.211 341.518C179.211 341.518 178.443 343.467 175.61 343.112C172.776 342.817 173.189 345.828 172.481 347.658C171.772 349.488 172.304 354.388 164.865 355.628C157.368 356.927 156.364 357.399 156.364 357.399C156.364 357.399 149.221 367.849 145.206 374.343C145.206 374.343 140.011 370.033 144.143 364.424C148.276 358.816 149.87 356.809 148.099 353.798C146.269 350.728 148.335 345.179 157.427 347.068C166.518 348.957 163.743 345.828 163.743 342.227C163.743 338.508 166.636 334.906 172.776 336.323C178.916 337.74 179.211 341.518 179.211 341.518Z" fill="#310203"/>
<path d="M433.202 295.377L431.675 309.97C431.669 311.431 430.209 311.424 430.202 312.884C427.275 314.331 422.895 314.311 419.982 312.837C418.529 311.371 418.529 311.371 418.535 309.911L417.135 296.764L433.202 295.377Z" fill="#9D5F3A"/>
<path d="M430.465 292.699C433.697 295.085 434.119 297.894 430.515 299.394C427.051 301.83 421.292 301.739 418.06 299.353C414.828 296.967 414.405 294.158 418.009 292.658C419.741 291.44 421.614 291.158 424.423 290.735C427.233 290.313 429.246 290.967 430.465 292.699Z" fill="#8A4C27"/>
<path d="M422.11 254.896C422.11 263.579 426.452 263.579 426.452 259.238C426.452 259.238 430.793 254.896 435.135 254.896C439.476 259.238 439.477 263.579 430.793 267.921C422.11 272.263 426.452 276.604 430.793 276.604C435.135 276.604 439.477 272.263 439.477 276.604C439.477 280.946 435.135 280.946 430.793 285.288C426.452 289.629 426.452 293.971 426.452 293.971C426.452 293.971 426.452 293.971 426.452 298.312H422.11V293.971C417.768 293.971 417.768 293.971 417.768 289.629C417.768 285.288 422.11 289.629 422.11 285.288C422.11 280.946 417.768 280.946 417.768 280.946C413.427 280.946 409.085 280.946 409.085 272.263C409.085 267.921 417.768 272.263 417.768 267.921C417.768 263.579 413.427 263.579 413.427 259.238C413.427 254.896 413.427 250.554 422.11 246.213C426.452 241.871 426.452 246.213 422.11 254.896Z" fill="url(#paint20_linear_251_594)"/>
<path d="M422.98 268.79C422.701 268.071 422.421 267.351 422.062 266.672C420.304 262.917 418.466 259.122 417.747 255.087C417.547 253.929 417.308 252.61 417.867 251.771C418.107 251.372 417.907 251.452 417.787 251.452C417.228 251.811 417.268 252.73 417.308 253.569C417.388 255.726 418.107 257.804 418.826 259.841C419.944 262.957 421.542 265.873 422.701 268.87C419.904 269.589 416.988 270.028 414.192 270.787C413.433 270.987 412.554 271.147 412.274 271.746C412.274 271.746 412.234 272.145 412.554 271.786C413.073 271.226 413.992 271.107 414.871 270.907C417.467 270.268 420.184 269.828 422.781 269.149C422.86 269.389 422.98 269.668 423.06 269.908C424.818 275.062 425.457 280.575 425.297 286.048C425.218 286.087 425.138 286.127 425.058 286.167C423.18 287.086 420.983 287.526 418.946 287.006C418.946 287.006 418.506 287.206 419.025 287.286C421.103 287.725 423.22 287.246 425.297 286.327C425.178 289.723 424.698 293.118 423.979 296.394C423.979 296.394 424.099 296.794 424.219 296.514C424.978 293.198 425.297 289.763 425.417 286.327V286.247C427.854 285.129 430.211 283.371 432.488 281.613C433.727 280.654 434.965 279.656 436.124 278.617C436.124 278.617 436.443 278.218 436.124 278.257C435.924 278.337 435.844 278.497 435.684 278.617C432.488 281.413 429.132 284.05 425.377 285.968C425.537 280.215 424.978 274.422 422.98 269.069C425.177 268.47 427.335 267.711 429.252 266.473C431.689 264.915 433.926 262.797 434.845 260.081C434.845 260.081 434.885 259.881 434.685 259.881C434.605 259.921 434.566 260.041 434.526 260.161C433.247 263.357 430.331 265.833 427.095 267.312C425.857 267.951 424.458 268.39 422.98 268.79Z" fill="white"/>
<defs>
<linearGradient id="paint0_linear_251_594" x1="261.385" y1="340.879" x2="185.66" y2="264.147" gradientUnits="userSpaceOnUse">
<stop stop-color="#2F61E8"/>
<stop offset="1" stop-color="#2355DB"/>
</linearGradient>
<linearGradient id="paint1_linear_251_594" x1="390.987" y1="82.4809" x2="393.392" y2="93.0714" gradientUnits="userSpaceOnUse">
<stop stop-color="#6F8FE6"/>
<stop offset="1" stop-color="#053ED9"/>
</linearGradient>
<linearGradient id="paint2_linear_251_594" x1="260.356" y1="234.448" x2="254.052" y2="289.163" gradientUnits="userSpaceOnUse">
<stop stop-color="#564D4E"/>
<stop offset="1" stop-color="#212121"/>
</linearGradient>
<linearGradient id="paint3_linear_251_594" x1="259.25" y1="200.681" x2="258.519" y2="249.247" gradientUnits="userSpaceOnUse">
<stop stop-color="#02F9AA"/>
<stop offset="1" stop-color="#009666"/>
</linearGradient>
<linearGradient id="paint4_linear_251_594" x1="290.653" y1="234.1" x2="270.083" y2="209.234" gradientUnits="userSpaceOnUse">
<stop stop-color="#02F9AA"/>
<stop offset="1" stop-color="#009666"/>
</linearGradient>
<linearGradient id="paint5_linear_251_594" x1="284.371" y1="313.103" x2="508.54" y2="297.285" gradientUnits="userSpaceOnUse">
<stop stop-color="#D9E3FF"/>
<stop offset="1" stop-color="#5178E0"/>
</linearGradient>
<linearGradient id="paint6_linear_251_594" x1="215.65" y1="324.595" x2="61.4255" y2="320.485" gradientUnits="userSpaceOnUse">
<stop stop-color="#D9E3FF"/>
<stop offset="1" stop-color="#5178E0"/>
</linearGradient>
<linearGradient id="paint7_linear_251_594" x1="368.603" y1="84.8339" x2="398.677" y2="217.495" gradientUnits="userSpaceOnUse">
<stop stop-color="#6F8FE6"/>
<stop offset="1" stop-color="#053ED9"/>
</linearGradient>
<linearGradient id="paint8_linear_251_594" x1="109.503" y1="423.043" x2="103.746" y2="377.492" gradientUnits="userSpaceOnUse">
<stop stop-color="#22197E"/>
<stop offset="1" stop-color="#080343"/>
</linearGradient>
<linearGradient id="paint9_linear_251_594" x1="84.3298" y1="408.289" x2="89.9731" y2="368.481" gradientUnits="userSpaceOnUse">
<stop stop-color="#1C127F"/>
<stop offset="1" stop-color="#544BAE"/>
</linearGradient>
<linearGradient id="paint10_linear_251_594" x1="83.5402" y1="282.896" x2="81.473" y2="273.648" gradientUnits="userSpaceOnUse">
<stop stop-color="#F87065"/>
<stop offset="1" stop-color="#FFABA4"/>
</linearGradient>
<linearGradient id="paint11_linear_251_594" x1="46.0479" y1="320.482" x2="42.4279" y2="312.576" gradientUnits="userSpaceOnUse">
<stop stop-color="#F87065"/>
<stop offset="1" stop-color="#FFABA4"/>
</linearGradient>
<linearGradient id="paint12_linear_251_594" x1="101.907" y1="312.324" x2="87.7919" y2="288.305" gradientUnits="userSpaceOnUse">
<stop stop-color="#6541CE"/>
<stop offset="1" stop-color="#8257FF"/>
</linearGradient>
<linearGradient id="paint13_linear_251_594" x1="94.23" y1="305.929" x2="89.2006" y2="294.091" gradientUnits="userSpaceOnUse">
<stop stop-color="#F87065"/>
<stop offset="1" stop-color="#FFABA4"/>
</linearGradient>
<linearGradient id="paint14_linear_251_594" x1="95.4402" y1="360.077" x2="80.6827" y2="330.631" gradientUnits="userSpaceOnUse">
<stop stop-color="#6541CE"/>
<stop offset="1" stop-color="#8257FF"/>
</linearGradient>
<linearGradient id="paint15_linear_251_594" x1="98.7056" y1="307.165" x2="72.4175" y2="326.278" gradientUnits="userSpaceOnUse">
<stop stop-color="#8C65FF"/>
<stop offset="1" stop-color="#7E56F4"/>
</linearGradient>
<linearGradient id="paint16_linear_251_594" x1="37.635" y1="311.549" x2="56.893" y2="335.142" gradientUnits="userSpaceOnUse">
<stop stop-color="#663EDC"/>
<stop offset="1" stop-color="#7A4FF7"/>
</linearGradient>
<linearGradient id="paint17_linear_251_594" x1="153.133" y1="403.432" x2="186.959" y2="367.782" gradientUnits="userSpaceOnUse">
<stop stop-color="#1BAD7F"/>
<stop offset="1" stop-color="#00FFAE"/>
</linearGradient>
<linearGradient id="paint18_linear_251_594" x1="196.811" y1="386.987" x2="181.312" y2="371.556" gradientUnits="userSpaceOnUse">
<stop stop-color="#0AE09C"/>
<stop offset="1" stop-color="#00C385"/>
</linearGradient>
<linearGradient id="paint19_linear_251_594" x1="165.168" y1="356.41" x2="177.612" y2="344.164" gradientUnits="userSpaceOnUse">
<stop stop-color="#F9926B"/>
<stop offset="1" stop-color="#FFC4AE"/>
</linearGradient>
<linearGradient id="paint20_linear_251_594" x1="425.056" y1="293.884" x2="3617.99" y2="293.884" gradientUnits="userSpaceOnUse">
<stop stop-color="#128509"/>
<stop offset="1" stop-color="#30D623"/>
</linearGradient>
</defs>
</svg>
