<svg width="685" height="149" viewBox="0 0 685 149" fill="none" xmlns="http://www.w3.org/2000/svg">
    <path d="M20.0227 148.415C13.1098 148.415 6.85985 147.136 1.27273 144.58C-4.31439 141.975 -8.74148 138.211 -12.0085 133.287C-15.2282 128.363 -16.8381 122.326 -16.8381 115.176C-16.8381 109.021 -15.6544 103.955 -13.2869 99.9773C-10.9195 96 -7.72348 92.8513 -3.69886 90.5312C0.325758 88.2112 4.82386 86.4593 9.79546 85.2756C14.767 84.0919 19.8333 83.1922 24.9943 82.5767C31.5284 81.8191 36.8314 81.2036 40.9034 80.7301C44.9754 80.2093 47.9347 79.3807 49.7812 78.2443C51.6278 77.108 52.5511 75.2614 52.5511 72.7045V72.2074C52.5511 66.0047 50.7992 61.1989 47.2955 57.7898C43.839 54.3807 38.678 52.6761 31.8125 52.6761C24.6629 52.6761 19.0284 54.2623 14.9091 57.4347C10.8371 60.5597 8.01989 64.0398 6.45739 67.875L-13.5 63.3295C-11.1326 56.7008 -7.67614 51.3504 -3.13068 47.2784C1.46212 43.1591 6.74148 40.1761 12.7074 38.3295C18.6733 36.4356 24.947 35.4886 31.5284 35.4886C35.8845 35.4886 40.5009 36.0095 45.3778 37.0511C50.3021 38.0455 54.8949 39.892 59.1562 42.5909C63.465 45.2898 66.9924 49.1487 69.7386 54.1676C72.4848 59.1392 73.858 65.6023 73.858 73.5568V146H53.1193V131.085H52.267C50.8939 133.831 48.8343 136.53 46.0881 139.182C43.3419 141.833 39.8144 144.035 35.5057 145.787C31.197 147.539 26.036 148.415 20.0227 148.415ZM24.6392 131.369C30.5104 131.369 35.5294 130.209 39.696 127.889C43.91 125.569 47.1061 122.539 49.2841 118.798C51.5095 115.01 52.6222 110.962 52.6222 106.653V92.5909C51.8646 93.3485 50.3968 94.0587 48.2188 94.7216C46.0881 95.3371 43.6496 95.8816 40.9034 96.3551C38.1572 96.7812 35.482 97.1837 32.8778 97.5625C30.2737 97.8939 28.0956 98.178 26.3438 98.4148C22.2244 98.9356 18.4602 99.8116 15.0511 101.043C11.6894 102.274 8.99053 104.049 6.95455 106.369C4.96591 108.642 3.97159 111.672 3.97159 115.46C3.97159 120.716 5.91288 124.693 9.79546 127.392C13.678 130.044 18.6259 131.369 24.6392 131.369ZM87.8473 146V0.54545H109.083V54.5938H110.362C111.593 52.321 113.368 49.6932 115.688 46.7102C118.008 43.7273 121.228 41.1231 125.347 38.8977C129.467 36.625 134.912 35.4886 141.683 35.4886C150.489 35.4886 158.349 37.714 165.262 42.1648C172.175 46.6155 177.596 53.0312 181.526 61.4119C185.504 69.7926 187.492 79.8778 187.492 91.6676C187.492 103.457 185.527 113.566 181.597 121.994C177.667 130.375 172.27 136.838 165.404 141.384C158.539 145.882 150.702 148.131 141.896 148.131C135.267 148.131 129.845 147.018 125.631 144.793C121.465 142.567 118.198 139.963 115.83 136.98C113.463 133.997 111.64 131.346 110.362 129.026H108.586V146H87.8473ZM108.657 91.4545C108.657 99.125 109.77 105.848 111.995 111.625C114.22 117.402 117.44 121.923 121.654 125.19C125.868 128.41 131.029 130.02 137.137 130.02C143.482 130.02 148.785 128.339 153.046 124.977C157.308 121.568 160.527 116.952 162.705 111.128C164.931 105.304 166.043 98.7462 166.043 91.4545C166.043 84.2576 164.954 77.7945 162.776 72.0653C160.646 66.3362 157.426 61.8144 153.117 58.5C148.856 55.1856 143.529 53.5284 137.137 53.5284C130.982 53.5284 125.773 55.1146 121.512 58.2869C117.298 61.4593 114.102 65.8864 111.924 71.5682C109.746 77.25 108.657 83.8788 108.657 91.4545ZM241.29 148.202C231.063 148.202 222.137 145.858 214.514 141.17C206.891 136.483 200.973 129.925 196.759 121.497C192.545 113.069 190.438 103.221 190.438 91.9517C190.438 80.6354 192.545 70.7396 196.759 62.2642C200.973 53.7888 206.891 47.2074 214.514 42.5199C222.137 37.8324 231.063 35.4886 241.29 35.4886C251.517 35.4886 260.442 37.8324 268.065 42.5199C275.688 47.2074 281.607 53.7888 285.821 62.2642C290.035 70.7396 292.142 80.6354 292.142 91.9517C292.142 103.221 290.035 113.069 285.821 121.497C281.607 129.925 275.688 136.483 268.065 141.17C260.442 145.858 251.517 148.202 241.29 148.202ZM241.361 130.375C247.99 130.375 253.482 128.623 257.838 125.119C262.194 121.616 265.414 116.952 267.497 111.128C269.628 105.304 270.693 98.8883 270.693 91.8807C270.693 84.9205 269.628 78.5284 267.497 72.7045C265.414 66.8333 262.194 62.1222 257.838 58.571C253.482 55.0199 247.99 53.2443 241.361 53.2443C234.685 53.2443 229.145 55.0199 224.741 58.571C220.385 62.1222 217.142 66.8333 215.011 72.7045C212.928 78.5284 211.886 84.9205 211.886 91.8807C211.886 98.8883 212.928 105.304 215.011 111.128C217.142 116.952 220.385 121.616 224.741 125.119C229.145 128.623 234.685 130.375 241.361 130.375ZM368.951 100.759V36.9091H390.258V146H369.377V127.108H368.241C365.731 132.932 361.707 137.785 356.167 141.668C350.674 145.503 343.833 147.42 335.641 147.42C328.634 147.42 322.431 145.882 317.033 142.804C311.683 139.679 307.469 135.062 304.391 128.955C301.361 122.847 299.846 115.295 299.846 106.298V36.9091H321.082V103.741C321.082 111.175 323.141 117.094 327.261 121.497C331.38 125.901 336.73 128.102 343.312 128.102C347.289 128.102 351.243 127.108 355.173 125.119C359.15 123.131 362.441 120.124 365.045 116.099C367.696 112.075 368.998 106.961 368.951 100.759ZM453.714 36.9091V53.9545H394.126V36.9091H453.714ZM410.107 10.7727H431.342V113.969C431.342 118.088 431.958 121.189 433.189 123.273C434.42 125.309 436.006 126.705 437.947 127.463C439.936 128.173 442.09 128.528 444.411 128.528C446.115 128.528 447.607 128.41 448.885 128.173C450.163 127.937 451.158 127.747 451.868 127.605L455.703 145.148C454.472 145.621 452.72 146.095 450.447 146.568C448.175 147.089 445.334 147.373 441.925 147.42C436.338 147.515 431.129 146.521 426.3 144.438C421.47 142.354 417.564 139.134 414.581 134.778C411.598 130.422 410.107 124.954 410.107 118.372V10.7727ZM567.24 100.759V36.9091H588.547V146H567.666V127.108H566.53C564.02 132.932 559.996 137.785 554.456 141.668C548.964 145.503 542.122 147.42 533.93 147.42C526.923 147.42 520.72 145.882 515.322 142.804C509.972 139.679 505.758 135.062 502.68 128.955C499.65 122.847 498.135 115.295 498.135 106.298V36.9091H519.371V103.741C519.371 111.175 521.43 117.094 525.55 121.497C529.669 125.901 535.019 128.102 541.601 128.102C545.578 128.102 549.532 127.108 553.462 125.119C557.439 123.131 560.73 120.124 563.334 116.099C565.985 112.075 567.287 106.961 567.24 100.759ZM682.827 63.5426L663.58 66.9517C662.775 64.4896 661.497 62.1458 659.745 59.9205C658.04 57.6951 655.72 55.8722 652.785 54.4517C649.849 53.0312 646.18 52.321 641.776 52.321C635.763 52.321 630.744 53.6705 626.719 56.3693C622.695 59.0208 620.683 62.4536 620.683 66.6676C620.683 70.3134 622.032 73.2491 624.731 75.4744C627.43 77.6998 631.786 79.5227 637.799 80.9432L655.129 84.9205C665.166 87.2405 672.647 90.8153 677.572 95.6449C682.496 100.474 684.958 106.748 684.958 114.466C684.958 121 683.064 126.824 679.276 131.938C675.536 137.004 670.304 140.981 663.58 143.869C656.904 146.758 649.163 148.202 640.356 148.202C628.14 148.202 618.173 145.598 610.455 140.389C602.737 135.134 598.003 127.676 596.251 118.017L616.776 114.892C618.055 120.242 620.683 124.291 624.66 127.037C628.637 129.736 633.822 131.085 640.214 131.085C647.174 131.085 652.737 129.641 656.904 126.753C661.071 123.817 663.154 120.242 663.154 116.028C663.154 112.619 661.876 109.755 659.319 107.435C656.809 105.115 652.951 103.363 647.742 102.179L629.276 98.1307C619.096 95.8106 611.568 92.1174 606.691 87.0511C601.862 81.9848 599.447 75.5691 599.447 67.804C599.447 61.3646 601.246 55.7301 604.844 50.9006C608.443 46.071 613.415 42.3068 619.759 39.608C626.104 36.8617 633.372 35.4886 641.563 35.4886C653.353 35.4886 662.633 38.0455 669.404 43.1591C676.175 48.2254 680.649 55.0199 682.827 63.5426Z" fill="#E8EDFF"/>
</svg>
