<svg width="38" height="36" viewBox="0 0 38 36" fill="none" xmlns="http://www.w3.org/2000/svg">
<rect width="38" height="36" rx="3" fill="#0D3757"/>
<path d="M25.625 15.2109H21.375V10.9609C21.375 10.3974 21.1511 9.85685 20.7526 9.45834C20.3541 9.05982 19.8136 8.83594 19.25 8.83594C18.6864 8.83594 18.1459 9.05982 17.7474 9.45834C17.3489 9.85685 17.125 10.3974 17.125 10.9609L17.2004 15.2109H12.875C12.3114 15.2109 11.7709 15.4348 11.3724 15.8333C10.9739 16.2319 10.75 16.7724 10.75 17.3359C10.75 17.8995 10.9739 18.44 11.3724 18.8385C11.7709 19.2371 12.3114 19.4609 12.875 19.4609L17.2004 19.3855L17.125 23.7109C17.125 24.2745 17.3489 24.815 17.7474 25.2135C18.1459 25.6121 18.6864 25.8359 19.25 25.8359C19.8136 25.8359 20.3541 25.6121 20.7526 25.2135C21.1511 24.815 21.375 24.2745 21.375 23.7109V19.3855L25.625 19.4609C26.1886 19.4609 26.7291 19.2371 27.1276 18.8385C27.5261 18.44 27.75 17.8995 27.75 17.3359C27.75 16.7724 27.5261 16.2319 27.1276 15.8333C26.7291 15.4348 26.1886 15.2109 25.625 15.2109Z" fill="white"/>
</svg>
