<svg width="40" height="40" viewBox="0 0 40 40" fill="none" xmlns="http://www.w3.org/2000/svg">
<path fill-rule="evenodd" clip-rule="evenodd" d="M20.0266 28.8657C20.0147 28.8657 20.0027 28.8657 19.9909 28.8656C17.8483 28.8572 15.7869 28.0697 14.1859 26.6481C13.2648 25.8301 12.5379 24.85 12.0257 23.7347C11.4955 22.5802 11.2266 21.3457 11.2266 20.0657C11.2266 20.0536 11.2266 20.0413 11.2267 20.0292C11.2318 18.7564 11.503 17.5292 12.0326 16.3818C12.5445 15.2727 13.269 14.2975 14.1859 13.4833C15.7869 12.0617 17.8483 11.2743 19.9909 11.2658C20.0146 11.2656 20.0385 11.2656 20.0623 11.2658C22.2049 11.2743 24.2662 12.0617 25.8672 13.4833C26.7841 14.2974 27.5086 15.2726 28.0205 16.3818C28.5501 17.5292 28.8212 18.7564 28.8264 20.0292C28.8266 20.0413 28.8266 20.0536 28.8266 20.0657C28.8266 21.3457 28.5577 22.5802 28.0274 23.7348C27.5152 24.85 26.7884 25.8302 25.8672 26.6482C24.2662 28.0698 22.2048 28.8572 20.0623 28.8656C20.0504 28.8657 20.0384 28.8657 20.0266 28.8657ZM20.0266 27.9291C20.0351 27.9291 20.0439 27.9291 20.0526 27.9291C20.054 27.9291 20.0553 27.9291 20.0567 27.929C21.9718 27.9219 23.8145 27.2183 25.2454 25.9478C26.9261 24.4554 27.89 22.3114 27.89 20.0657C27.89 20.0566 27.89 20.0474 27.8899 20.0383C27.8899 20.037 27.8899 20.0357 27.8898 20.0344C27.8812 17.8008 26.9173 15.6682 25.2453 14.1836C23.8145 12.9131 21.9718 12.2095 20.0566 12.2024C20.0553 12.2024 20.0539 12.2024 20.0525 12.2023C20.0439 12.2022 20.0352 12.2022 20.0265 12.2022C20.0179 12.2022 20.0092 12.2022 20.0005 12.2023C19.9991 12.2023 19.9977 12.2023 19.9963 12.2024C18.0812 12.2095 16.2385 12.9131 14.8076 14.1836C13.1357 15.6682 12.1718 17.8008 12.1631 20.0344C12.1631 20.0357 12.1631 20.037 12.1631 20.0383C12.163 20.0474 12.163 20.0566 12.163 20.0657C12.163 22.3114 13.1269 24.4554 14.8076 25.9478C16.2384 27.2184 18.0812 27.922 19.9963 27.9291C19.9977 27.9291 19.9991 27.9291 20.0005 27.9291C20.0092 27.9292 20.0179 27.9291 20.0266 27.9291Z" fill="white"/>
<path fill-rule="evenodd" clip-rule="evenodd" d="M20.0265 24.2419L19.9921 24.2418C17.9075 24.2384 15.8941 23.895 14.3247 23.2749C13.3948 22.9075 12.6549 22.4611 12.1254 21.9482C11.5374 21.3785 11.2266 20.7278 11.2266 20.0662C11.2266 20.0589 11.2266 20.0516 11.2267 20.0443C11.2334 19.3878 11.5466 18.7423 12.1327 18.1773C12.6616 17.6673 13.3992 17.2233 14.3247 16.8576C15.894 16.2375 17.9075 15.8942 19.9939 15.8907L20.0265 15.8906L20.0609 15.8907C22.1456 15.8941 24.1589 16.2375 25.7283 16.8576C26.6539 17.2233 27.3913 17.6673 27.9203 18.1773C28.5063 18.7423 28.8196 19.3878 28.8262 20.0443C28.8264 20.0516 28.8264 20.059 28.8264 20.0662C28.8264 20.7277 28.5156 21.3785 27.9275 21.9482C27.3981 22.4611 26.6581 22.9075 25.7282 23.2749C24.1588 23.895 22.1454 24.2384 20.059 24.2418L20.0265 24.2419ZM12.1631 20.0625V20.0663C12.1631 20.474 12.3697 20.8809 12.7771 21.2756C13.2114 21.6963 13.8655 22.0865 14.6688 22.404C16.1318 22.982 18.0234 23.3021 19.9954 23.3053L20.0265 23.3054L20.0558 23.3053C22.0296 23.3021 23.9212 22.982 25.3841 22.404C26.1874 22.0866 26.8416 21.6964 27.2759 21.2757C27.6833 20.8809 27.8899 20.4741 27.8899 20.0664V20.0626C27.8898 20.0603 27.8898 20.058 27.8898 20.0557C27.8863 19.6496 27.6779 19.2445 27.2703 18.8516C26.8361 18.433 26.1839 18.0447 25.3841 17.7288C23.9212 17.1507 22.0296 16.8306 20.0575 16.8274L20.0265 16.8273L19.9971 16.8274C18.0234 16.8306 16.1317 17.1508 14.6688 17.7288C13.8691 18.0448 13.2169 18.433 12.7827 18.8516C12.3751 19.2444 12.1667 19.6496 12.1631 20.0557C12.1631 20.0579 12.1631 20.0602 12.1631 20.0625Z" fill="white"/>
<path fill-rule="evenodd" clip-rule="evenodd" d="M20.0228 28.8656C20.0151 28.8656 20.0074 28.8656 19.9997 28.8654C18.7961 28.8552 17.6621 28.0261 16.8061 26.5304C16.3402 25.7164 15.9737 24.7458 15.717 23.6456C15.4537 22.5179 15.3203 21.3135 15.3203 20.0656C15.3203 20.0538 15.3203 20.0417 15.3204 20.0297C15.3228 18.7902 15.4574 17.5922 15.7204 16.471C15.9771 15.3768 16.3423 14.4111 16.8062 13.6008C17.6621 12.1052 18.7962 11.2761 19.9998 11.2658C20.0151 11.2656 20.0305 11.2656 20.0458 11.2658C21.2494 11.2761 22.3835 12.1052 23.2394 13.6008C23.7032 14.4111 24.0685 15.3768 24.3252 16.471C24.588 17.5917 24.7227 18.7893 24.7252 20.0303C24.7253 20.042 24.7253 20.0539 24.7253 20.0656C24.7253 21.3135 24.5918 22.5179 24.3286 23.6456C24.0718 24.7457 23.7054 25.7164 23.2395 26.5304C22.3836 28.0261 21.2495 28.8552 20.0458 28.8654C20.0381 28.8656 20.0304 28.8656 20.0228 28.8656ZM20.0273 12.2022H20.0171C20.0143 12.2023 20.0127 12.2023 20.01 12.2023C19.1523 12.2086 18.3032 12.8704 17.619 14.066C16.758 15.5705 16.2615 17.7456 16.257 20.0335L16.2569 20.0656C16.2569 22.3659 16.7534 24.5527 17.619 26.0652C18.3032 27.2607 19.1524 27.9226 20.01 27.9288C20.0128 27.9288 20.0155 27.9289 20.0182 27.929L20.0284 27.9289C20.0312 27.9288 20.0328 27.9288 20.0356 27.9288C20.8932 27.9226 21.7423 27.2607 22.4266 26.0652C23.2923 24.5526 23.7888 22.3659 23.7888 20.0656C23.7888 20.0556 23.7888 20.0456 23.7887 20.0357C23.7887 20.0349 23.7887 20.0342 23.7887 20.0334C23.7842 17.7455 23.2878 15.5704 22.4267 14.0659C21.7424 12.8704 20.8933 12.2085 20.0357 12.2022C20.0328 12.2023 20.0301 12.2022 20.0273 12.2022Z" fill="white"/>
<path fill-rule="evenodd" clip-rule="evenodd" d="M28.3579 20.4991H11.6949C11.4362 20.4991 11.2266 20.2894 11.2266 20.0308C11.2266 19.7722 11.4362 19.5625 11.6949 19.5625H28.3579C28.6166 19.5625 28.8262 19.7722 28.8262 20.0308C28.8262 20.2895 28.6166 20.4991 28.3579 20.4991Z" fill="white"/>
<path fill-rule="evenodd" clip-rule="evenodd" d="M20.0542 28.8653C19.7956 28.8653 19.5859 28.6556 19.5859 28.397V11.7339C19.5859 11.4753 19.7956 11.2656 20.0542 11.2656C20.3128 11.2656 20.5225 11.4753 20.5225 11.7339V28.3971C20.5225 28.6556 20.3129 28.8653 20.0542 28.8653Z" fill="white"/>
<path fill-rule="evenodd" clip-rule="evenodd" d="M29.3038 12.6467C28.2747 12.6467 27.4375 11.8095 27.4375 10.7804C27.4375 10.3225 27.6049 9.88219 27.909 9.54065C28.2625 9.1426 28.7711 8.91406 29.3038 8.91406C30.3329 8.91406 31.1702 9.7513 31.1702 10.7804C31.1702 11.3132 30.9417 11.8218 30.5433 12.1756C30.2021 12.4793 29.7618 12.6467 29.3038 12.6467ZM29.3038 9.85057C29.0385 9.85057 28.7851 9.96439 28.6089 10.1629C28.4573 10.3331 28.3741 10.5523 28.3741 10.7803C28.3741 11.293 28.7912 11.7101 29.3038 11.7101C29.5319 11.7101 29.7511 11.6268 29.9209 11.4756C30.1198 11.2989 30.2336 11.0457 30.2336 10.7802C30.2337 10.2677 29.8165 9.85057 29.3038 9.85057Z" fill="white"/>
<path fill-rule="evenodd" clip-rule="evenodd" d="M20.0226 8.81081C19.0286 8.81081 18.2099 8.0339 18.1588 7.04203C18.1571 7.01024 18.1562 6.97715 18.1562 6.94447C18.1562 5.91536 18.9935 5.07812 20.0226 5.07812C21.0517 5.07812 21.8889 5.91536 21.8889 6.94447C21.8889 6.97723 21.888 7.01032 21.8863 7.04276C21.8353 8.0339 21.0166 8.81081 20.0226 8.81081ZM20.0226 6.01471C19.5099 6.01471 19.0928 6.43178 19.0928 6.94447C19.0928 6.96073 19.0932 6.97707 19.0941 6.99308C19.1197 7.48747 19.5275 7.87422 20.0226 7.87422C20.5177 7.87422 20.9256 7.48747 20.951 6.99382C20.9519 6.97707 20.9523 6.96065 20.9523 6.94447C20.9523 6.43178 20.5353 6.01471 20.0226 6.01471Z" fill="white"/>
<path fill-rule="evenodd" clip-rule="evenodd" d="M10.7413 12.6467C10.2835 12.6467 9.84313 12.4793 9.50159 12.1754C9.10346 11.8218 8.875 11.3132 8.875 10.7804C8.875 9.7513 9.71224 8.91406 10.7413 8.91406C11.2741 8.91406 11.7827 9.1426 12.1365 9.54097C12.4403 9.88219 12.6077 10.3224 12.6077 10.7804C12.6077 11.8094 11.7704 12.6467 10.7413 12.6467ZM10.7413 9.85057C10.2287 9.85057 9.81159 10.2676 9.81159 10.7803C9.81159 11.0457 9.92541 11.299 10.1239 11.4754C10.2941 11.6268 10.5133 11.7101 10.7413 11.7101C11.254 11.7101 11.6711 11.293 11.6711 10.7803C11.6711 10.5523 11.5878 10.3331 11.4366 10.1632C11.26 9.96447 11.0067 9.85057 10.7413 9.85057Z" fill="white"/>
<path fill-rule="evenodd" clip-rule="evenodd" d="M10.7413 31.2093C9.71224 31.2093 8.875 30.3721 8.875 29.343C8.875 28.8101 9.10346 28.3016 9.50199 27.9477C9.84313 27.644 10.2835 27.4766 10.7413 27.4766C11.7704 27.4766 12.6077 28.3138 12.6077 29.3429C12.6077 29.8008 12.4403 30.2411 12.1363 30.5827C11.7826 30.9808 11.2741 31.2093 10.7413 31.2093ZM10.7413 28.4132C10.5133 28.4132 10.2941 28.4965 10.1243 28.6477C9.92541 28.8244 9.8115 29.0776 9.8115 29.3431C9.8115 29.8558 10.2286 30.2728 10.7413 30.2728C11.0066 30.2728 11.26 30.159 11.4363 29.9605C11.5878 29.7903 11.671 29.5711 11.671 29.3431C11.6711 28.8303 11.254 28.4132 10.7413 28.4132Z" fill="white"/>
<path fill-rule="evenodd" clip-rule="evenodd" d="M29.2959 31.2092C28.7684 31.2092 28.2632 30.9844 27.9099 30.5925C27.6003 30.2497 27.4297 29.8057 27.4297 29.3429C27.4297 28.3138 28.2669 27.4766 29.296 27.4766C29.7601 27.4766 30.2048 27.6479 30.5483 27.9592C30.9384 28.3122 31.1624 28.8166 31.1624 29.3429C31.1622 30.372 30.325 31.2092 29.2959 31.2092ZM29.2959 28.4131C28.7833 28.4131 28.3662 28.8302 28.3662 29.3429C28.3662 29.5734 28.4511 29.7944 28.6052 29.9651C28.7815 30.1606 29.0332 30.2727 29.2959 30.2727C29.8086 30.2727 30.2257 29.8556 30.2257 29.3429C30.2257 29.0807 30.1142 28.8295 29.9196 28.6535C29.7484 28.4983 29.527 28.4131 29.2959 28.4131Z" fill="white"/>
<path fill-rule="evenodd" clip-rule="evenodd" d="M20.0226 35.0451C18.9935 35.0451 18.1562 34.2079 18.1562 33.1788C18.1562 33.146 18.1571 33.1129 18.1589 33.0805C18.2099 32.0894 19.0286 31.3125 20.0226 31.3125C21.0166 31.3125 21.8353 32.0894 21.8864 33.0813C21.8881 33.1131 21.889 33.1461 21.889 33.1788C21.8889 34.2079 21.0517 35.0451 20.0226 35.0451ZM20.0226 32.2489C19.5274 32.2489 19.1196 32.6357 19.0941 33.1293C19.0932 33.1461 19.0928 33.1625 19.0928 33.1787C19.0928 33.6914 19.5099 34.1084 20.0226 34.1084C20.5353 34.1084 20.9523 33.6914 20.9523 33.1787C20.9523 33.1624 20.9519 33.1461 20.951 33.1301C20.9256 32.6357 20.5178 32.2489 20.0226 32.2489Z" fill="white"/>
<path fill-rule="evenodd" clip-rule="evenodd" d="M33.1398 21.928C33.107 21.928 33.0739 21.9271 33.0414 21.9254C32.0503 21.8743 31.2734 21.0556 31.2734 20.0617C31.2734 19.0677 32.0503 18.249 33.0422 18.1978C33.074 18.1961 33.107 18.1953 33.1398 18.1953C34.1689 18.1953 35.0061 19.0325 35.0061 20.0617C35.0061 21.0908 34.1689 21.928 33.1398 21.928ZM33.1398 19.1319C33.1235 19.1319 33.1072 19.1323 33.0912 19.1332C32.5967 19.1586 32.21 19.5665 32.21 20.0617C32.21 20.5568 32.5968 20.9647 33.0904 20.9901C33.1072 20.991 33.1236 20.9914 33.1398 20.9914C33.6525 20.9914 34.0695 20.5743 34.0695 20.0617C34.0695 19.549 33.6525 19.1319 33.1398 19.1319Z" fill="white"/>
<path fill-rule="evenodd" clip-rule="evenodd" d="M6.9054 21.928C5.8763 21.928 5.03906 21.0908 5.03906 20.0617C5.03906 19.0325 5.8763 18.1953 6.9054 18.1953C6.93817 18.1953 6.97126 18.1962 7.0037 18.1979C7.99475 18.249 8.77175 19.0677 8.77175 20.0617C8.77175 21.0556 7.99483 21.8743 7.00296 21.9255C6.97126 21.9271 6.93817 21.928 6.9054 21.928ZM6.9054 19.1319C6.39272 19.1319 5.97565 19.549 5.97565 20.0617C5.97565 20.5743 6.39272 20.9914 6.9054 20.9914C6.92166 20.9914 6.93801 20.991 6.95402 20.9901C7.44841 20.9646 7.83516 20.5568 7.83516 20.0617C7.83516 19.5665 7.44841 19.1586 6.95475 19.1332C6.93801 19.1323 6.92166 19.1319 6.9054 19.1319Z" fill="white"/>
<path fill-rule="evenodd" clip-rule="evenodd" d="M18.6159 33.5048C18.5994 33.5048 18.5827 33.504 18.566 33.5021C15.983 33.2285 13.5825 32.2342 11.5569 30.5982C11.3556 30.4357 11.3243 30.1409 11.4868 29.9397C11.6493 29.7385 11.9441 29.7072 12.1453 29.8696C14.0303 31.392 16.2614 32.3162 18.6646 32.5707C18.9218 32.598 19.1082 32.8285 19.0809 33.0858C19.0555 33.3263 18.8523 33.5048 18.6159 33.5048Z" fill="white"/>
<path fill-rule="evenodd" clip-rule="evenodd" d="M7.05484 19.1282C7.03834 19.1282 7.02167 19.1274 7.00492 19.1256C6.74777 19.0984 6.56134 18.8678 6.58858 18.6106C6.86216 16.0277 7.85175 13.6294 9.48777 11.6038C9.65029 11.4026 9.94508 11.3712 10.1463 11.5337C10.3475 11.6962 10.3789 11.991 10.2164 12.1922C8.69403 14.0772 7.77451 16.3061 7.52004 18.7093C7.49451 18.9496 7.29134 19.1282 7.05484 19.1282Z" fill="white"/>
<path fill-rule="evenodd" clip-rule="evenodd" d="M28.1971 10.3641C28.0938 10.3641 27.9898 10.3301 27.9032 10.2602C26.0182 8.7378 23.7987 7.81358 21.3955 7.55902C21.1383 7.53179 20.952 7.30122 20.9792 7.04398C21.0064 6.78683 21.2368 6.60041 21.4942 6.62764C24.0772 6.90122 26.466 7.89561 28.4916 9.53154C28.6929 9.69406 28.7242 9.98886 28.5617 10.1901C28.4692 10.3046 28.3338 10.3641 28.1971 10.3641Z" fill="white"/>
<path fill-rule="evenodd" clip-rule="evenodd" d="M30.1868 28.7111C30.0834 28.7111 29.9793 28.677 29.8926 28.6069C29.6914 28.4442 29.6603 28.1494 29.823 27.9483C31.3491 26.0614 32.2749 23.8254 32.5298 21.419C32.5571 21.1617 32.7876 20.9754 33.0449 21.0026C33.302 21.0299 33.4884 21.2604 33.4612 21.5177C33.1872 24.1041 32.1912 26.5097 30.5512 28.5373C30.4587 28.6517 30.3233 28.7111 30.1868 28.7111Z" fill="white"/>
<path fill-rule="evenodd" clip-rule="evenodd" d="M21.4521 33.5076C21.2156 33.5076 21.0125 33.3291 20.987 33.0887C20.9598 32.8314 21.1461 32.6009 21.4034 32.5736C23.8024 32.3194 26.016 31.3949 27.899 29.8771C28.1004 29.7149 28.3952 29.7465 28.5574 29.9479C28.7197 30.1492 28.6881 30.444 28.4867 30.6063C26.4633 32.2373 24.0804 33.2318 21.502 33.505C21.4853 33.5067 21.4686 33.5076 21.4521 33.5076Z" fill="white"/>
<path fill-rule="evenodd" clip-rule="evenodd" d="M32.9947 19.1089C32.7582 19.1089 32.555 18.9304 32.5296 18.6899C32.275 16.2867 31.3529 14.0695 29.8306 12.1844C29.668 11.9832 29.6994 11.6884 29.9007 11.5259C30.1019 11.3634 30.3967 11.3947 30.5592 11.596C32.1952 13.6216 33.1874 16.0082 33.461 18.5912C33.4882 18.8483 33.3018 19.079 33.0446 19.1062C33.0279 19.108 33.0112 19.1089 32.9947 19.1089Z" fill="white"/>
<path fill-rule="evenodd" clip-rule="evenodd" d="M11.8515 10.3647C11.7149 10.3647 11.5794 10.3052 11.4868 10.1906C11.3243 9.98943 11.3557 9.69463 11.5569 9.53211C13.5825 7.8961 15.9654 6.9013 18.5484 6.62764C18.8056 6.60041 19.0361 6.78683 19.0634 7.04398C19.0906 7.30122 18.9042 7.53179 18.6471 7.55902C16.2439 7.81358 14.0304 8.73837 12.1454 10.2607C12.0588 10.3307 11.9547 10.3647 11.8515 10.3647Z" fill="white"/>
<path fill-rule="evenodd" clip-rule="evenodd" d="M9.8576 28.7042C9.72102 28.7042 9.58557 28.6447 9.49297 28.5301C7.85703 26.5044 6.86216 24.1006 6.58858 21.5177C6.56134 21.2604 6.74777 21.0299 7.00492 21.0026C7.26208 20.9754 7.49273 21.1618 7.51996 21.419C7.77451 23.8222 8.69931 26.0566 10.2217 27.9417C10.3842 28.1429 10.3528 28.4377 10.1516 28.6002C10.0649 28.6701 9.96094 28.7042 9.8576 28.7042Z" fill="white"/>
</svg>
