<svg width="48" height="48" viewBox="0 0 48 48" fill="none" xmlns="http://www.w3.org/2000/svg">
<rect width="48" height="48" rx="8.02099" fill="#31D7A9"/>
<path d="M14.1084 14.6016H13.3565C12.3175 14.6016 11.4766 15.4438 11.4766 16.4815V29.8916L36.6675 29.8878V16.4815C36.6675 15.4425 35.8253 14.6016 34.7876 14.6016H33.9103" stroke="white" stroke-width="1.20315" stroke-miterlimit="10" stroke-linecap="round"/>
<path d="M33.9453 16.0156C34.5494 16.0156 35.0382 16.5044 35.0382 17.1085V27.7589" stroke="white" stroke-width="1.20315" stroke-miterlimit="10" stroke-linecap="round"/>
<path d="M12.8516 27.7589V17.1085C12.8516 16.5044 13.3403 16.0156 13.9444 16.0156" stroke="white" stroke-width="1.20315" stroke-miterlimit="10" stroke-linecap="round"/>
<path d="M11.472 29.9766L10.2188 34.5122" stroke="white" stroke-width="1.20315" stroke-miterlimit="10" stroke-linecap="round"/>
<path d="M36.5469 29.9766L37.8014 34.5122" stroke="white" stroke-width="1.20315" stroke-miterlimit="10" stroke-linecap="round"/>
<path d="M37.2344 36.0368H11.0421C10.6611 36.0368 10.3516 35.7285 10.3516 35.3462V34.4501C10.3516 34.4263 10.3704 34.4062 10.3954 34.4062H37.8874C37.9074 34.4062 37.9237 34.4225 37.9237 34.4426V35.345C37.9237 35.7285 37.6154 36.0368 37.2344 36.0368Z" stroke="white" stroke-width="1.20315" stroke-miterlimit="10" stroke-linecap="round"/>
<path d="M13.3774 30.9141L12.9663 32.6636C12.9375 32.784 13.0289 32.9005 13.153 32.9005H34.752C34.8711 32.9005 34.9626 32.7927 34.9413 32.6749L34.6305 30.9153" stroke="white" stroke-width="1.20315" stroke-miterlimit="10" stroke-linecap="round"/>
<path d="M31.4856 26.6318H16.653C16.1455 26.6318 15.7344 26.2207 15.7344 25.7131V13.0124C15.7344 12.5048 16.1455 12.0938 16.653 12.0938H31.4856C31.9932 12.0938 32.4043 12.5048 32.4043 13.0124V25.7144C32.403 26.2207 31.9919 26.6318 31.4856 26.6318Z" stroke="white" stroke-width="1.20315" stroke-miterlimit="10" stroke-linecap="round"/>
<path d="M15.7344 15.6016H30.1471" stroke="white" stroke-width="1.20315" stroke-miterlimit="10" stroke-linecap="round"/>
<path d="M29.5234 13.8516H30.1501" stroke="white" stroke-width="1.20315" stroke-miterlimit="10" stroke-linecap="round"/>
<path d="M27.3906 13.8516H28.1426" stroke="white" stroke-width="1.20315" stroke-miterlimit="10" stroke-linecap="round"/>
<path d="M22.2135 19.0156L20.4062 20.8767L22.1947 22.6827" stroke="white" stroke-width="1.20315" stroke-miterlimit="10" stroke-linecap="round"/>
<path d="M26.2344 19.0156L28.0404 20.8767L26.2519 22.6827" stroke="white" stroke-width="1.20315" stroke-miterlimit="10" stroke-linecap="round"/>
<path d="M24.7482 18.4922L23.6328 23.5003" stroke="white" stroke-width="1.20315" stroke-miterlimit="10" stroke-linecap="round"/>
</svg>
