<svg width="95" height="33" viewBox="0 0 95 33" fill="none" xmlns="http://www.w3.org/2000/svg">
<g filter="url(#filter0_d_306_807)">
<path d="M90.8139 10.7084C90.0398 9.6957 89.0477 8.87613 87.9136 8.31231C86.7794 7.7485 85.5333 7.45539 84.2704 7.45539C83.0075 7.45539 81.7614 7.7485 80.6273 8.31231C79.4931 8.87613 78.5011 9.6957 77.7269 10.7084C76.6893 12.2108 76.1451 14.0071 76.1716 15.8417C76.1451 17.6763 76.6893 19.4726 77.7269 20.975C78.5011 21.9877 79.4931 22.8073 80.6273 23.3711C81.7614 23.9349 83.0075 24.228 84.2704 24.228C85.5333 24.228 86.7794 23.9349 87.9136 23.3711C89.0477 22.8073 90.0398 21.9877 90.8139 20.975C91.8511 19.4724 92.3953 17.6762 92.3692 15.8417C92.3953 14.0072 91.8511 12.211 90.8139 10.7084ZM88.2218 17.7667C87.6275 19.5698 86.2177 20.975 84.2641 21.02C82.3105 21.0649 80.9007 19.5698 80.3127 17.7667C79.8922 16.5189 79.8922 15.1646 80.3127 13.9167C80.907 12.1136 82.3168 10.7084 84.2641 10.6635C86.2113 10.6185 87.6275 12.1136 88.2218 13.9167C88.6404 15.1627 88.6404 16.5143 88.2218 17.7603V17.7667ZM28.6348 23.7984C28.6348 23.9243 28.5855 24.0451 28.4978 24.1341C28.41 24.2232 28.291 24.2732 28.167 24.2732H25.4484C25.3243 24.2732 25.2053 24.2232 25.1176 24.1341C25.0299 24.0451 24.9806 23.9243 24.9806 23.7984V1.11546C24.9806 0.989525 25.0299 0.868749 25.1176 0.7797C25.2053 0.690652 25.3243 0.640625 25.4484 0.640625H28.167C28.291 0.640625 28.41 0.690652 28.4978 0.7797C28.5855 0.868749 28.6348 0.989525 28.6348 1.11546V23.7984ZM22.2494 23.7984C22.2494 23.9243 22.2001 24.0451 22.1123 24.1341C22.0246 24.2232 21.9056 24.2732 21.7815 24.2732H19.063C18.9389 24.2732 18.8199 24.2232 18.7321 24.1341C18.6444 24.0451 18.5951 23.9243 18.5951 23.7984V1.11546C18.5951 0.990629 18.6435 0.870815 18.7299 0.781949C18.8163 0.693083 18.9337 0.642312 19.0566 0.640625H21.7752C21.8993 0.640625 22.0183 0.690652 22.106 0.7797C22.1937 0.868749 22.243 0.989525 22.243 1.11546V23.7984H22.2494ZM75.5584 8.39837V10.3234C75.5694 10.4065 75.5596 10.491 75.53 10.5693C75.5004 10.6475 75.4519 10.717 75.389 10.7713C75.3261 10.8256 75.2507 10.863 75.1698 10.88C75.089 10.897 75.0052 10.8932 74.9262 10.8688C71.8536 10.2271 69.9632 11.6131 69.9632 14.4942V23.7984C69.9632 23.9243 69.9139 24.0451 69.8262 24.1341C69.7384 24.2232 69.6194 24.2732 69.4954 24.2732H66.7768C66.6527 24.2732 66.5337 24.2232 66.446 24.1341C66.3583 24.0451 66.309 23.9243 66.309 23.7984V14.2953C66.2926 13.3964 66.4626 12.5041 66.8079 11.6761C67.1531 10.8482 67.666 10.1031 68.3131 9.48921C69.6421 8.17045 71.4301 7.43718 73.2887 7.44871C73.925 7.45044 74.5598 7.51057 75.1854 7.62837C75.5078 7.73746 75.5584 7.92996 75.5584 8.42404V8.39837ZM63.9192 15.8353C63.9536 13.9996 63.4086 12.2008 62.3639 10.702C61.5897 9.68929 60.5977 8.86971 59.4635 8.3059C58.3294 7.74208 57.0833 7.44897 55.8204 7.44897C54.5575 7.44897 53.3114 7.74208 52.1772 8.3059C51.0431 8.86971 50.051 9.68929 49.2769 10.702C48.2494 12.2107 47.6991 14.0012 47.6991 15.8353C47.6991 17.6693 48.2494 19.4599 49.2769 20.9686C50.0386 21.995 51.0281 22.8246 52.1651 23.3899C53.3021 23.9551 54.5544 24.2402 55.8204 24.2219C57.4785 24.2274 59.1006 23.7315 60.4799 22.7974V24.825C60.4799 27.5778 58.109 28.0783 56.5917 28.1745C55.5476 28.2096 54.5026 28.1516 53.4685 28.0013C53.0513 27.9371 52.7604 28.0013 52.7604 28.4569V30.8952C52.7629 30.95 52.7759 31.0038 52.7989 31.0534C52.8218 31.1031 52.8541 31.1477 52.8941 31.1846C52.934 31.2216 52.9807 31.2502 53.0316 31.2688C53.0824 31.2874 53.1364 31.2956 53.1903 31.293C56.7118 31.601 59.0827 31.5369 60.8655 30.5038C62.1146 29.7542 63.0416 28.5569 63.464 27.1479C63.7794 26.0608 63.9307 24.9315 63.9128 23.7984V15.8353H63.9192ZM55.8204 21.0071C53.8668 21.0071 52.457 19.557 51.8627 17.7539C51.4422 16.506 51.4422 15.1517 51.8627 13.9039C52.457 12.1008 53.8668 10.6506 55.8204 10.6506C60.189 10.6506 60.3345 15.1744 60.3345 15.8289C60.3345 16.4834 60.189 21.0071 55.8204 21.0071ZM16.1042 14.1734C16.1042 11.9853 15.6237 10.3234 14.5868 9.17479C13.55 8.02621 11.4636 7.45512 9.52904 7.45512C7.58713 7.44741 5.67806 7.96336 3.99709 8.95021C3.94448 8.98179 3.90099 9.02689 3.87102 9.08096C3.84105 9.13503 3.82566 9.19617 3.82639 9.25821L3.9718 11.6709C3.98472 11.7459 4.01706 11.8162 4.06551 11.8744C4.11395 11.9326 4.17677 11.9766 4.24753 12.0021C4.31828 12.0276 4.39443 12.0335 4.46818 12.0193C4.54193 12.005 4.61063 11.9712 4.66725 11.9211C7.03808 10.4389 9.88309 10.163 11.3309 10.9073C11.7292 11.1403 12.0574 11.4791 12.2802 11.8872C12.503 12.2954 12.6119 12.7574 12.5953 13.2237V13.5766H8.64393C6.94325 13.5766 1.73373 14.2183 1.73373 19.0757V19.127C1.6932 19.8662 1.82492 20.6047 2.11821 21.2825C2.4115 21.9604 2.8581 22.5585 3.42177 23.0284C4.65302 23.9087 6.14136 24.3406 7.64502 24.254H15.6426C15.7667 24.254 15.8857 24.2039 15.9735 24.1149C16.0612 24.0258 16.1105 23.9051 16.1105 23.7791V14.1541L16.1042 14.1734ZM12.5953 21.2895H7.87262C7.26667 21.2718 6.68115 21.0633 6.19723 20.6927C5.9483 20.5153 5.74608 20.2786 5.60829 20.0034C5.47051 19.7282 5.40137 19.4229 5.40695 19.1142C5.40695 18.248 5.98227 16.5155 8.85888 16.5155H12.5953V21.2895ZM38.6429 7.45512C33.8064 7.45512 31.6884 10.7469 31.012 13.5317C30.8259 14.2828 30.7325 15.0544 30.7338 15.8289C30.7076 17.6634 31.2519 19.4596 32.2891 20.9622C33.0642 21.9738 34.0564 22.7927 35.1903 23.3565C36.3242 23.9202 37.5699 24.214 38.8326 24.2155C41.4436 24.3117 43.1886 23.8625 44.5226 23.0925C44.6527 23.0074 44.7531 22.8829 44.8098 22.7367C44.8665 22.5905 44.8766 22.4299 44.8387 22.2776V20.1409C44.8387 19.7045 44.5795 19.4992 44.2065 19.7623C42.645 20.7779 40.792 21.23 38.9464 21.0456C37.8953 21.0316 36.8856 20.6277 36.1077 19.9103C35.3297 19.1928 34.8372 18.2113 34.7231 17.1507H45.4709C45.5872 17.1507 45.6988 17.1043 45.7816 17.0214C45.8644 16.9386 45.9118 16.826 45.9135 16.708C46.1031 13.7242 45.2496 7.45512 38.6429 7.45512ZM34.78 14.199C34.8018 13.7078 34.9196 13.2259 35.1265 12.7813C35.3335 12.3367 35.6255 11.9383 35.9855 11.6093C36.3456 11.2803 36.7665 11.0273 37.2238 10.8649C37.6811 10.7025 38.1656 10.634 38.6492 10.6635C39.1121 10.6347 39.5756 10.7068 40.0087 10.875C40.4418 11.0431 40.8344 11.3034 41.1602 11.6383C41.486 11.9732 41.7374 12.375 41.8975 12.8167C42.0576 13.2583 42.1228 13.7297 42.0885 14.199H34.78Z" fill="#FF5A00"/>
</g>
<defs>
<filter id="filter0_d_306_807" x="-2.27344" y="0.640625" width="98.6406" height="38.8125" filterUnits="userSpaceOnUse" color-interpolation-filters="sRGB">
<feFlood flood-opacity="0" result="BackgroundImageFix"/>
<feColorMatrix in="SourceAlpha" type="matrix" values="0 0 0 0 0 0 0 0 0 0 0 0 0 0 0 0 0 0 127 0" result="hardAlpha"/>
<feOffset dy="4"/>
<feGaussianBlur stdDeviation="2"/>
<feComposite in2="hardAlpha" operator="out"/>
<feColorMatrix type="matrix" values="0 0 0 0 0 0 0 0 0 0 0 0 0 0 0 0 0 0 0.25 0"/>
<feBlend mode="normal" in2="BackgroundImageFix" result="effect1_dropShadow_306_807"/>
<feBlend mode="normal" in="SourceGraphic" in2="effect1_dropShadow_306_807" result="shape"/>
</filter>
</defs>
</svg>
