<svg width="113" height="22" viewBox="0 0 113 22" fill="none" xmlns="http://www.w3.org/2000/svg">
<g clip-path="url(#clip0_306_769)">
<rect width="112.276" height="21.3889" transform="translate(0.226562)" fill="white"/>
<path d="M0.28125 0.117188H8.5043C10.0706 0.117188 11.2453 0.517923 12.1155 1.18581C13.0727 1.98728 13.5948 3.14496 13.5948 4.5698C13.5948 6.21726 12.9421 7.24137 11.6369 7.86473V7.95378C13.3772 8.53262 14.3779 10.1356 14.3779 12.0502C14.3779 13.8758 13.6818 15.3006 12.5506 16.1911C11.5934 16.9035 10.3752 17.2152 8.72184 17.2152H0.28125V0.117188ZM7.67764 6.7961C8.54781 6.7961 9.20043 6.30632 9.20043 5.28222C9.20043 4.30264 8.54781 3.81286 7.63413 3.81286H4.8061V6.75158H7.67764V6.7961ZM8.06922 13.4305C9.0699 13.4305 9.80954 12.8071 9.80954 11.694C9.80954 10.4918 9.0264 9.95746 8.06922 9.95746H4.84961V13.475H8.06922V13.4305ZM15.1175 0.117188H19.4249V17.2597H15.1175V0.117188ZM20.295 11.1597C20.295 7.28589 22.7315 4.70338 26.5167 4.70338C30.3019 4.70338 32.6949 7.33042 32.6949 11.1597C32.6949 15.0334 30.3019 17.6159 26.5167 17.6159C22.7315 17.6159 20.295 15.0334 20.295 11.1597ZM28.3875 11.1597C28.3875 9.02241 27.7349 7.68663 26.4297 7.68663C25.1244 7.68663 24.5153 9.02241 24.5153 11.1597C24.5153 13.2969 25.1244 14.6772 26.4297 14.6772C27.7349 14.6327 28.3875 13.2969 28.3875 11.1597ZM33.1734 11.1597C33.1734 7.28589 35.6099 4.70338 39.3951 4.70338C43.1803 4.70338 45.5298 7.28589 45.5298 11.1597C45.5298 15.0334 43.1368 17.6159 39.3516 17.6159C35.6099 17.6159 33.1734 15.0334 33.1734 11.1597ZM41.266 11.1597C41.266 9.02241 40.6133 7.68663 39.3081 7.68663C38.0029 7.68663 37.3937 9.02241 37.3937 11.1597C37.3937 13.2969 38.0029 14.6772 39.3081 14.6772C40.6133 14.6327 41.266 13.2969 41.266 11.1597ZM46.3999 5.01506H50.4027V6.84063H50.4897C51.2729 5.41579 52.3606 4.65885 54.1009 4.65885C55.6237 4.65885 56.7549 5.41579 57.3205 6.75158H57.4075C58.3647 5.14864 59.6264 4.65885 61.1057 4.65885C63.8902 4.65885 65.0649 6.75158 65.0649 9.55672V17.2152H60.8882V10.3137C60.8882 9.06694 60.4966 8.26547 59.4524 8.26547C58.4082 8.26547 57.8861 9.24504 57.8861 10.5808V17.2152H53.7093V10.3137C53.7093 9.06694 53.3177 8.26547 52.2735 8.26547C51.2293 8.26547 50.7072 9.24504 50.7072 10.5808V17.2152H46.3999V5.01506ZM70.3294 15.6123H70.2859V17.2152H66.2832V0.117188H70.46V6.26179H70.547C71.3301 5.19316 72.4178 4.61433 73.9406 4.61433C76.9427 4.61433 78.683 7.37494 78.683 11.0706C78.683 15.2115 76.8122 17.6159 73.6796 17.6159C72.3743 17.6159 71.0256 16.9926 70.3294 15.6123ZM74.3757 11.0261C74.3757 9.06694 73.6796 7.77568 72.4178 7.77568C71.1126 7.77568 70.3294 9.06694 70.3294 11.0261C70.3294 12.9852 71.1561 14.2765 72.4178 14.2765C73.6796 14.2765 74.3757 13.0298 74.3757 11.0261ZM79.1616 11.1151C79.1616 7.28589 81.6416 4.65885 85.2092 4.65885C86.9931 4.65885 88.3418 5.23769 89.386 6.26179C90.7783 7.6421 91.3874 9.77935 91.3439 12.2728H83.3384C83.5124 13.7867 84.2086 14.5882 85.4703 14.5882C86.2099 14.5882 86.8626 14.232 87.1236 13.4305H91.1699C90.4737 16.2356 88.3418 17.6159 85.3398 17.6159C81.6416 17.5714 79.1616 14.9889 79.1616 11.1151ZM83.3384 9.82388H87.1671C87.0801 8.35452 86.2969 7.59757 85.2963 7.59757C84.1215 7.55305 83.4689 8.39904 83.3384 9.82388ZM96.0863 7.10779H96.1733C97.0435 5.41579 98.1747 4.7479 99.6105 4.7479C99.9585 4.7479 100.176 4.79243 100.307 4.88148V8.62168H100.22C97.7396 8.17641 96.3038 9.37862 96.3038 12.1392V17.2597H92.0835V5.01506H96.0863V7.10779ZM100.742 17.2597H104.788C104.962 17.7941 105.484 18.2838 106.485 18.2838C107.834 18.2838 108.312 17.4378 108.312 16.1466V15.2561H108.225C107.572 16.0575 106.659 16.6364 105.354 16.6364C102.787 16.6364 100.524 14.6772 100.524 10.848C100.524 7.33042 102.351 4.61433 105.136 4.61433C106.746 4.61433 107.703 5.28222 108.356 6.30632H108.443V4.97053H112.445V15.5677C112.445 17.5269 111.793 19.0408 110.792 19.9313C109.748 20.8664 108.269 21.2671 106.572 21.2671C103.352 21.3116 101.133 19.9758 100.742 17.2597ZM108.486 10.6699C108.486 9.15599 107.79 7.90926 106.572 7.90926C105.397 7.90926 104.657 8.97788 104.657 10.6699C104.657 12.3173 105.397 13.475 106.572 13.475C107.746 13.475 108.486 12.2728 108.486 10.6699Z" fill="#FC8D8D"/>
</g>
<defs>
<clipPath id="clip0_306_769">
<rect width="112.276" height="21.3889" fill="white" transform="translate(0.226562)"/>
</clipPath>
</defs>
</svg>
