<svg width="95" height="33" viewBox="0 0 95 33" fill="none" xmlns="http://www.w3.org/2000/svg">
    <rect width="94.0983" height="32.0833" transform="translate(0.226562)" fill="white"/>
    <path d="M91.0405 10.7084C90.2663 9.6957 89.2743 8.87613 88.1401 8.31231C87.006 7.7485 85.7598 7.45539 84.497 7.45539C83.2341 7.45539 81.988 7.7485 80.8538 8.31231C79.7197 8.87613 78.7276 9.6957 77.9535 10.7084C76.9159 12.2108 76.3716 14.0071 76.3982 15.8417C76.3716 17.6763 76.9159 19.4726 77.9535 20.975C78.7276 21.9877 79.7197 22.8073 80.8538 23.3711C81.988 23.9349 83.2341 24.228 84.497 24.228C85.7598 24.228 87.006 23.9349 88.1401 23.3711C89.2743 22.8073 90.2663 21.9877 91.0405 20.975C92.0777 19.4724 92.6219 17.6762 92.5957 15.8417C92.6219 14.0072 92.0777 12.211 91.0405 10.7084ZM88.4484 17.7667C87.8541 19.5698 86.4442 20.975 84.4907 21.02C82.5371 21.0649 81.1272 19.5698 80.5393 17.7667C80.1187 16.5189 80.1187 15.1646 80.5393 13.9167C81.1335 12.1136 82.5434 10.7084 84.4907 10.6635C86.4379 10.6185 87.8541 12.1136 88.4484 13.9167C88.867 15.1627 88.867 16.5143 88.4484 17.7603V17.7667ZM28.8614 23.7984C28.8614 23.9243 28.8121 24.0451 28.7243 24.1341C28.6366 24.2232 28.5176 24.2732 28.3935 24.2732H25.675C25.5509 24.2732 25.4319 24.2232 25.3442 24.1341C25.2564 24.0451 25.2071 23.9243 25.2071 23.7984V1.11546C25.2071 0.989525 25.2564 0.868749 25.3442 0.7797C25.4319 0.690652 25.5509 0.640625 25.675 0.640625H28.3935C28.5176 0.640625 28.6366 0.690652 28.7243 0.7797C28.8121 0.868749 28.8614 0.989525 28.8614 1.11546V23.7984ZM22.4759 23.7984C22.4759 23.9243 22.4266 24.0451 22.3389 24.1341C22.2512 24.2232 22.1322 24.2732 22.0081 24.2732H19.2895C19.1654 24.2732 19.0464 24.2232 18.9587 24.1341C18.871 24.0451 18.8217 23.9243 18.8217 23.7984V1.11546C18.8217 0.990629 18.8701 0.870815 18.9565 0.781949C19.0428 0.693083 19.1602 0.642312 19.2832 0.640625H22.0018C22.1258 0.640625 22.2448 0.690652 22.3326 0.7797C22.4203 0.868749 22.4696 0.989525 22.4696 1.11546V23.7984H22.4759ZM75.7849 8.39837V10.3234C75.7959 10.4065 75.7862 10.491 75.7566 10.5693C75.727 10.6475 75.6785 10.717 75.6156 10.7713C75.5526 10.8256 75.4773 10.863 75.3964 10.88C75.3155 10.897 75.2317 10.8932 75.1527 10.8688C72.0801 10.2271 70.1898 11.6131 70.1898 14.4942V23.7984C70.1898 23.9243 70.1405 24.0451 70.0527 24.1341C69.965 24.2232 69.846 24.2732 69.7219 24.2732H67.0034C66.8793 24.2732 66.7603 24.2232 66.6726 24.1341C66.5848 24.0451 66.5355 23.9243 66.5355 23.7984V14.2953C66.5192 13.3964 66.6892 12.5041 67.0344 11.6761C67.3797 10.8482 67.8925 10.1031 68.5397 9.48921C69.8687 8.17045 71.6567 7.43718 73.5153 7.44871C74.1515 7.45044 74.7863 7.51057 75.4119 7.62837C75.7344 7.73746 75.7849 7.92996 75.7849 8.42404V8.39837ZM64.1457 15.8353C64.1802 13.9996 63.6352 12.2008 62.5905 10.702C61.8163 9.68929 60.8242 8.86971 59.6901 8.3059C58.556 7.74208 57.3098 7.44897 56.047 7.44897C54.7841 7.44897 53.5379 7.74208 52.4038 8.3059C51.2697 8.86971 50.2776 9.68929 49.5034 10.702C48.476 12.2107 47.9256 14.0012 47.9256 15.8353C47.9256 17.6693 48.476 19.4599 49.5034 20.9686C50.2651 21.995 51.2547 22.8246 52.3917 23.3899C53.5287 23.9551 54.781 24.2402 56.047 24.2219C57.7051 24.2274 59.3272 23.7315 60.7064 22.7974V24.825C60.7064 27.5778 58.3356 28.0783 56.8183 28.1745C55.7742 28.2096 54.7292 28.1516 53.6951 28.0013C53.2778 27.9371 52.987 28.0013 52.987 28.4569V30.8952C52.9894 30.95 53.0025 31.0038 53.0254 31.0534C53.0484 31.1031 53.0807 31.1477 53.1206 31.1846C53.1606 31.2216 53.2073 31.2502 53.2581 31.2688C53.309 31.2874 53.3629 31.2956 53.4169 31.293C56.9384 31.601 59.3092 31.5369 61.0921 30.5038C62.3411 29.7542 63.2682 28.5569 63.6905 27.1479C64.0059 26.0608 64.1573 24.9315 64.1394 23.7984V15.8353H64.1457ZM56.047 21.0071C54.0934 21.0071 52.6835 19.557 52.0892 17.7539C51.6687 16.506 51.6687 15.1517 52.0892 13.9039C52.6835 12.1008 54.0934 10.6506 56.047 10.6506C60.4156 10.6506 60.561 15.1744 60.561 15.8289C60.561 16.4834 60.4156 21.0071 56.047 21.0071ZM16.3307 14.1734C16.3307 11.9853 15.8502 10.3234 14.8134 9.17479C13.7765 8.02621 11.6902 7.45512 9.7556 7.45512C7.8137 7.44741 5.90462 7.96336 4.22365 8.95021C4.17104 8.98179 4.12755 9.02689 4.09759 9.08096C4.06762 9.13503 4.05222 9.19617 4.05295 9.25821L4.19837 11.6709C4.21128 11.7459 4.24362 11.8162 4.29207 11.8744C4.34052 11.9326 4.40333 11.9766 4.47409 12.0021C4.54484 12.0276 4.621 12.0335 4.69475 12.0193C4.7685 12.005 4.8372 11.9712 4.89381 11.9211C7.26465 10.4389 10.1096 10.163 11.5574 10.9073C11.9557 11.1403 12.2839 11.4791 12.5067 11.8872C12.7295 12.2954 12.8385 12.7574 12.8219 13.2237V13.5766H8.87049C7.16981 13.5766 1.9603 14.2183 1.9603 19.0757V19.127C1.91976 19.8662 2.05148 20.6047 2.34477 21.2825C2.63806 21.9604 3.08466 22.5585 3.64833 23.0284C4.87958 23.9087 6.36792 24.3406 7.87158 24.254H15.8692C15.9933 24.254 16.1123 24.2039 16.2 24.1149C16.2878 24.0258 16.337 23.9051 16.337 23.7791V14.1541L16.3307 14.1734ZM12.8219 21.2895H8.09918C7.49323 21.2718 6.90771 21.0633 6.42379 20.6927C6.17487 20.5153 5.97264 20.2786 5.83485 20.0034C5.69707 19.7282 5.62793 19.4229 5.63351 19.1142C5.63351 18.248 6.20883 16.5155 9.08545 16.5155H12.8219V21.2895ZM38.8695 7.45512C34.033 7.45512 31.915 10.7469 31.2385 13.5317C31.0525 14.2828 30.959 15.0544 30.9604 15.8289C30.9342 17.6634 31.4784 19.4596 32.5156 20.9622C33.2907 21.9738 34.283 22.7927 35.4169 23.3565C36.5508 23.9202 37.7965 24.214 39.0591 24.2155C41.6702 24.3117 43.4151 23.8625 44.7491 23.0925C44.8792 23.0074 44.9797 22.8829 45.0364 22.7367C45.0931 22.5905 45.1032 22.4299 45.0652 22.2776V20.1409C45.0652 19.7045 44.806 19.4992 44.433 19.7623C42.8716 20.7779 41.0186 21.23 39.1729 21.0456C38.1219 21.0316 37.1122 20.6277 36.3342 19.9103C35.5563 19.1928 35.0638 18.2113 34.9497 17.1507H45.6975C45.8138 17.1507 45.9254 17.1043 46.0082 17.0214C46.091 16.9386 46.1384 16.826 46.14 16.708C46.3297 13.7242 45.4762 7.45512 38.8695 7.45512ZM35.0066 14.199C35.0283 13.7078 35.1461 13.2259 35.3531 12.7813C35.56 12.3367 35.852 11.9383 36.2121 11.6093C36.5721 11.2803 36.993 11.0273 37.4503 10.8649C37.9076 10.7025 38.3922 10.634 38.8758 10.6635C39.3386 10.6347 39.8022 10.7068 40.2353 10.875C40.6684 11.0431 41.061 11.3034 41.3868 11.6383C41.7126 11.9732 41.964 12.375 42.1241 12.8167C42.2842 13.2583 42.3493 13.7297 42.3151 14.199H35.0066Z" fill="#333333"/>
</svg>
