<svg width="131" height="22" viewBox="0 0 131 22" fill="none" xmlns="http://www.w3.org/2000/svg">
<g clip-path="url(#clip0_306_772)">
<rect width="130.454" height="21.3889" fill="white"/>
<path d="M81.9519 6.71189H84.0843V6.75383L81.2202 21.076H79.1505V21.0341L79.4223 19.5452C78.3979 20.6776 76.9971 21.2437 75.241 21.2437C72.8577 21.2437 71.248 19.6081 71.248 17.1757C71.248 16.6724 71.3107 16.295 71.3943 15.8756L71.4152 15.7497L73.234 6.71189H75.3247V6.75383L73.5476 15.561C73.464 16.0433 73.4013 16.5256 73.4013 16.8821C73.4013 18.4338 74.363 19.3775 75.9937 19.3775C76.5581 19.3775 79.4432 19.1887 80.1958 15.4771L81.9519 6.71189ZM94.5374 6.52316C92.9067 6.52316 91.4851 7.17321 90.5652 8.34751L90.8997 6.73286V6.69092H88.83L85.9659 21.0131V21.055H88.0774L89.8335 12.2688C90.2726 10.0251 92.0287 8.38945 93.9729 8.38945C94.8092 8.38945 95.4782 8.72496 95.9799 9.39598L96.0008 9.41695L97.7151 7.88618L97.6942 7.86521C96.8789 6.96352 95.8545 6.52316 94.5374 6.52316ZM59.7914 8.51527V8.5572H66.9622L57.4081 19.2936L57.0527 21.055H67.234L67.5894 19.1887H59.9795L69.5546 8.45235L69.91 6.69092H60.1468L59.7914 8.51527ZM97.9451 21.0131V21.055H100.036L102.9 6.71189H100.83L97.9451 21.0131ZM126.44 6.52316C124.705 6.52316 123.367 7.0474 122.322 8.13781L123.952 0.148438H121.841L117.618 21.055H119.708L121.465 12.2688C122.217 8.5572 125.123 8.36848 125.688 8.36848C127.297 8.36848 128.259 9.29113 128.259 10.8638C128.259 11.2203 128.196 11.7026 128.113 12.1849L126.336 21.0341H128.426L130.266 11.9962C130.35 11.5139 130.412 11.1155 130.412 10.5703C130.433 8.15878 128.824 6.52316 126.44 6.52316ZM112.517 6.52316C108.712 6.52316 106.036 9.18629 105.179 13.8625C105.032 14.6384 104.97 15.5191 104.97 16.0643C104.97 19.2516 106.914 21.2228 110.05 21.2228C111.869 21.2228 113.52 20.5308 114.858 19.2097L114.879 19.1887L113.667 17.7209L113.646 17.6999L113.625 17.7209C112.517 18.8952 111.513 19.3565 110.175 19.3565C108.691 19.3565 107.081 18.4758 107.081 16.0014C107.081 15.2255 107.165 14.5755 107.311 13.8625C107.541 12.6463 108.043 10.9477 109.172 9.77344C110.071 8.85078 111.137 8.38945 112.329 8.38945C113.583 8.38945 114.377 8.82981 115.13 9.96216L115.151 9.98313L116.698 8.68302L116.719 8.66205L116.698 8.64108C115.611 7.17322 114.336 6.52316 112.517 6.52316ZM101.625 2.76962H103.736L104.259 0.148438H102.168L101.625 2.76962ZM81.1993 2.76962H83.3108L83.8335 0.148438H81.7428L81.1993 2.76962ZM75.5964 2.76962H77.708L78.2306 0.148438H76.14L75.5964 2.76962ZM47.5195 8.24266H42.7947L44.4463 0.148438H4.28554L0.0625 21.055H16.0766L17.1219 15.8336H7.67234L8.23681 12.9608H17.6864L18.6481 8.26363H9.19849L9.76296 5.39081H24.7527L21.5958 21.076H28.1604L31.3172 5.39081H36.8364L33.6796 21.076H40.2441L41.8539 12.9818H46.5787L44.948 21.076H51.5125L55.7356 0.169402H49.1711L47.5195 8.24266Z" fill="#17181A"/>
</g>
<defs>
<clipPath id="clip0_306_772">
<rect width="130.454" height="21.3889" fill="white"/>
</clipPath>
</defs>
</svg>
