<svg width="113" height="24" viewBox="0 0 113 24" fill="none" xmlns="http://www.w3.org/2000/svg">
<g clip-path="url(#clip0_306_792)">
<rect width="112.276" height="23.5278" transform="translate(0.226562)" fill="white"/>
<path d="M12.5885 0.101562C5.78711 0.101562 0.28125 5.31859 0.28125 11.7632C0.28125 18.2077 5.78711 23.4247 12.5885 23.4247C19.3898 23.4247 24.8957 18.2077 24.8957 11.7632C24.8957 5.31859 19.3898 0.101562 12.5885 0.101562ZM12.5885 20.6457C7.40648 20.6457 3.21411 16.6733 3.21411 11.7632C3.21411 6.85301 7.40648 2.88057 12.5885 2.88057C17.7705 2.88057 21.9628 6.85301 21.9628 11.7632C21.9628 16.6733 17.7705 20.6457 12.5885 20.6457Z" fill="#2456A6"/>
<path d="M17.9349 8.74365C17.8629 8.60726 17.7009 8.53906 17.557 8.53906H7.64284C7.44492 8.53906 7.26498 8.6584 7.21101 8.84594C7.15703 9.03348 7.24699 9.22103 7.40893 9.32332L12.1591 12.0682V17.0977C12.1591 17.2853 12.303 17.4557 12.483 17.5069C12.519 17.5239 12.5549 17.5239 12.5909 17.5239C12.7529 17.5239 12.8968 17.4387 12.9688 17.3194L17.9169 9.18693C18.0248 9.03348 18.0248 8.88004 17.9349 8.74365Z" fill="#2456A6"/>
<path d="M40.4082 15.0407C40.4082 16.183 39.9764 17.1548 39.0947 17.9561C38.2131 18.7575 37.1695 19.1666 35.9459 19.1666H35.3342C34.0927 19.1666 33.0311 18.7575 32.1494 17.9561C31.2678 17.1548 30.8359 16.166 30.8359 15.0407V7.98241C30.8359 6.84012 31.2678 5.88537 32.1494 5.08406C33.0311 4.28275 34.0927 3.89062 35.3342 3.89062H35.9459C37.1875 3.89062 38.2131 4.28275 39.0947 5.08406C39.9764 5.88537 40.4082 6.85717 40.4082 7.98241V15.0407ZM37.0615 8.42569C37.0615 7.47094 36.3958 6.75488 35.6761 6.75488C34.9563 6.75488 34.2366 7.48799 34.2366 8.42569V14.6657C34.2366 15.6204 34.9383 16.3024 35.6761 16.3024C36.4498 16.3024 37.0615 15.6204 37.0615 14.6657V8.42569Z" fill="#2456A6"/>
<path d="M52.4579 9.00247C52.4579 10.1448 52.0261 11.0995 51.1624 11.9008C50.3168 12.7021 49.2552 13.0943 48.0317 13.0943H46.6462C46.4663 13.0943 46.3943 13.1625 46.3943 13.3329V18.2431C46.3943 18.6352 46.0164 18.9762 45.5666 18.9762H43.8753C43.4254 18.9762 43.1016 18.6352 43.1016 18.2431V4.80839C43.1016 4.34806 43.3535 4.10938 43.8753 4.10938H48.0137C49.2552 4.10938 50.3168 4.51855 51.1444 5.31986C52.0081 6.12117 52.4399 7.09297 52.4399 8.21821V9.00247H52.4579ZM49.1472 8.01362C49.1472 7.36575 48.5355 6.83723 47.8157 6.83723H46.7362C46.5382 6.83723 46.4483 6.90543 46.4483 7.04182V10.1959C46.4483 10.3493 46.5382 10.4175 46.7362 10.4175H47.8157C48.5355 10.4175 49.1472 9.87198 49.1472 9.22411V8.01362Z" fill="#2456A6"/>
<path d="M63.3152 18.1948C63.3152 18.5869 62.9193 18.962 62.4695 18.962H55.83C55.3802 18.962 54.9844 18.5869 54.9844 18.1948V4.84534C54.9844 4.41911 55.3442 4.07812 55.83 4.07812H62.2716C62.7214 4.07812 63.1172 4.41911 63.1172 4.84534V6.10697C63.1172 6.4991 62.7214 6.87418 62.2716 6.87418H58.565C58.3671 6.87418 58.2771 6.94238 58.2771 7.11287V9.56794C58.2771 9.72138 58.3671 9.78958 58.565 9.78958H61.3719C61.8217 9.78958 62.2176 10.1306 62.2176 10.5568V11.7843C62.2176 12.1765 61.8217 12.5515 61.3719 12.5515H58.565C58.3671 12.5515 58.2771 12.6368 58.2771 12.8073V15.842C58.2771 16.0125 58.3671 16.0977 58.565 16.0977H62.4695C62.9193 16.0977 63.3152 16.4728 63.3152 16.865V18.1948Z" fill="#2456A6"/>
<path d="M75.761 18.2289C75.761 18.621 75.4011 18.962 74.9513 18.962H73.4219C73.062 18.962 72.7921 18.7574 72.5942 18.3653L69.0856 11.1706V18.2289C69.0856 18.621 68.7077 18.962 68.2579 18.962H66.6565C66.2067 18.962 65.8828 18.621 65.8828 18.2289V4.82828C65.8828 4.40206 66.1887 4.07812 66.6565 4.07812H68.2579C68.6717 4.07812 68.9596 4.29977 69.1755 4.72599L72.5762 11.665V4.84534C72.5762 4.41911 72.9721 4.07812 73.4219 4.07812H74.9513C75.4011 4.07812 75.761 4.41911 75.761 4.84534V18.2289Z" fill="#2456A6"/>
<path d="M88.0003 18.1948C88.0003 18.587 87.6404 18.962 87.1726 18.962H86.8847C86.5069 18.962 86.201 18.6722 85.9671 18.0755C85.9671 18.0925 85.9671 18.1096 85.9491 18.1266C85.3733 18.8086 84.5636 19.1666 83.5021 19.1666H83.1422C81.7567 19.1666 80.6232 18.7404 79.7775 17.905C78.9318 17.0696 78.5 16.0466 78.5 14.8362V8.16995C78.5 6.99356 78.9498 5.98767 79.8495 5.15226C80.7671 4.31686 81.8647 3.89062 83.1422 3.89062H83.3221C84.5996 3.89062 85.6972 4.31686 86.5789 5.15226C87.4785 5.98767 87.9283 6.99356 87.9283 8.16995V8.76667C87.9283 9.1929 87.5505 9.53388 87.1007 9.53388H85.5892C85.1394 9.53388 84.7436 9.1247 84.7436 8.76667V8.56209C84.7436 7.57324 84.0418 6.78897 83.2681 6.78897C82.4765 6.78897 81.7927 7.57324 81.7927 8.56209V14.5463C81.7927 15.6034 82.3505 16.2683 83.2681 16.2683C84.2398 16.2683 84.7436 15.6886 84.7436 14.5463V13.9496C84.7436 13.7791 84.6536 13.7109 84.4737 13.7109H83.664C83.2502 13.7109 82.8183 13.3529 82.8183 12.9267V11.9549C82.8183 11.5627 83.1962 11.1876 83.664 11.1876H87.1726C87.6404 11.1876 88.0003 11.5968 88.0003 11.9549V18.1948Z" fill="#2456A6"/>
<path d="M100.268 15.0407C100.268 16.183 99.8358 17.1548 98.9541 17.9561C98.0725 18.7575 97.0289 19.1666 95.8053 19.1666H95.1936C93.9521 19.1666 92.8905 18.7575 92.0088 17.9561C91.1271 17.1548 90.6953 16.166 90.6953 15.0407V7.98241C90.6953 6.84012 91.1271 5.88537 92.0088 5.08406C92.8905 4.28275 93.9521 3.89062 95.1936 3.89062H95.8053C97.0469 3.89062 98.0725 4.28275 98.9541 5.08406C99.8358 5.88537 100.268 6.85717 100.268 7.98241V15.0407ZM96.9029 8.42569C96.9029 7.47094 96.2372 6.75488 95.5174 6.75488C94.7977 6.75488 94.078 7.48799 94.078 8.42569V14.6657C94.078 15.6204 94.7797 16.3024 95.5174 16.3024C96.2911 16.3024 96.9029 15.6204 96.9029 14.6657V8.42569Z" fill="#2456A6"/>
<path d="M109.017 18.1849C108.927 18.6452 108.639 18.8668 108.19 18.8668H105.851C105.437 18.8668 105.167 18.6452 105.059 18.1849L102.018 4.86951C102 4.81836 102 4.73311 102 4.68196C102 4.22164 102.234 4 102.684 4H104.321C104.771 4 105.023 4.20459 105.131 4.59672L107.056 13.4964L108.945 4.59672C109.035 4.20459 109.323 4 109.773 4H111.392C111.842 4 112.058 4.20459 112.058 4.61377C112.058 4.68197 112.04 4.78426 112.022 4.86951L109.017 18.1849Z" fill="#2456A6"/>
</g>
<defs>
<clipPath id="clip0_306_792">
<rect width="112.276" height="23.5278" fill="white" transform="translate(0.226562)"/>
</clipPath>
</defs>
</svg>
