<svg width="119" height="22" viewBox="0 0 119 22" fill="none" xmlns="http://www.w3.org/2000/svg">
<g clip-path="url(#clip0_306_779)">
<rect width="118.692" height="21.3889" transform="translate(0.226562)" fill="white"/>
<path d="M105.308 0.5625H103.373C103.256 0.5625 103.158 0.663112 103.158 0.784536V10.1448C103.158 13.4096 101.913 14.995 99.3446 14.995C96.8071 14.995 95.5745 13.4096 95.5745 10.1448V0.784536C95.5745 0.663112 95.4779 0.5625 95.3607 0.5625H93.4255C93.3083 0.5625 93.2109 0.663112 93.2109 0.784536V10.0304C93.2109 14.773 95.3304 17.2813 99.3416 17.2813C103.383 17.2813 105.516 14.773 105.516 10.0304V0.784536C105.519 0.663112 105.425 0.5625 105.308 0.5625Z" fill="black"/>
<path d="M113.25 3.9375C111.74 3.9375 110.448 4.52729 109.503 5.64442L109.326 4.26709C109.312 4.15607 109.222 4.07628 109.115 4.07628H107.535C107.418 4.07628 107.32 4.17689 107.32 4.29831V20.6494C107.32 20.7708 107.418 20.8715 107.535 20.8715H109.359C109.477 20.8715 109.574 20.7708 109.574 20.6494V14.9111C110.414 15.879 111.713 16.4098 113.253 16.4098C116.589 16.4098 118.919 13.846 118.919 10.1719C118.915 6.38339 116.692 3.9375 113.25 3.9375ZM116.618 10.1754C116.618 12.6352 115.192 14.2866 113.073 14.2866C110.963 14.2866 109.547 12.6144 109.547 10.1268C109.547 7.73297 110.997 6.06075 113.073 6.06075C115.195 6.06075 116.618 7.71563 116.618 10.1754Z" fill="black"/>
<path d="M44.3349 2.34881C46.6184 2.34881 48.2456 3.59084 48.8014 5.75919C48.8249 5.85633 48.9119 5.92225 49.009 5.92225H50.9443C51.0079 5.92225 51.0682 5.89449 51.1084 5.84246C51.1486 5.79388 51.1653 5.72797 51.1553 5.66205C50.5559 2.21004 47.9778 0.0625 44.4253 0.0625C39.8516 0.0625 36.7812 3.45207 36.7812 8.49304C36.7812 13.6138 39.7813 16.9201 44.4253 16.9201C47.9644 16.9201 50.5359 14.776 51.1318 11.3206C51.1419 11.2546 51.1251 11.1887 51.0849 11.1401C51.0448 11.0916 50.9845 11.0604 50.9208 11.0604H48.9856C48.8885 11.0604 48.8048 11.1298 48.778 11.2234C48.2222 13.3883 46.605 14.6304 44.3349 14.6304C41.2545 14.6304 39.1853 12.1636 39.1853 8.4896C39.1853 4.81552 41.2579 2.34881 44.3349 2.34881Z" fill="black"/>
<path d="M54.0181 0.046875C53.2244 0.046875 52.625 0.667892 52.625 1.49013C52.625 2.31237 53.2244 2.93339 54.0181 2.93339C54.8117 2.93339 55.4111 2.31237 55.4111 1.49013C55.4111 0.667892 54.8117 0.046875 54.0181 0.046875Z" fill="black"/>
<path d="M54.9222 4.58594H53.0972C52.9799 4.58594 52.8828 4.68655 52.8828 4.80798V16.5656C52.8828 16.6871 52.9799 16.7877 53.0972 16.7877H54.9222C55.0394 16.7877 55.1365 16.6871 55.1365 16.5656V4.80451C55.1365 4.68308 55.0394 4.58594 54.9222 4.58594Z" fill="black"/>
<path d="M63.1883 4.58941H62.676C60.7505 4.58941 59.8732 5.35614 59.3843 5.99797L59.2168 4.77676C59.2001 4.6692 59.1096 4.58594 59.0059 4.58594H57.4253C57.308 4.58594 57.2109 4.68655 57.2109 4.80798V16.5656C57.2109 16.6871 57.308 16.7877 57.4253 16.7877H59.2503C59.3675 16.7877 59.4646 16.6871 59.4646 16.5656V10.574C59.4646 9.19324 59.8296 6.87572 62.2775 6.87572H63.1883C63.3055 6.87572 63.4026 6.7751 63.4026 6.65368V4.80798C63.4026 4.68655 63.3089 4.58941 63.1883 4.58941Z" fill="black"/>
<path d="M69.3226 6.56856C70.8059 6.56856 71.9376 7.44978 72.2757 8.86526C72.2992 8.96586 72.3829 9.0353 72.4833 9.0353H74.3316C74.395 9.0353 74.4555 9.00749 74.4953 8.95547C74.5358 8.90689 74.5528 8.84097 74.5425 8.77504C74.067 6.06204 72.1418 4.44531 69.3929 4.44531C65.9242 4.44531 63.5938 6.94325 63.5938 10.6589C63.5938 14.4024 65.8973 16.9212 69.3259 16.9212C72.0949 16.9212 74.0471 15.2836 74.5425 12.5463C74.5557 12.4804 74.5388 12.4144 74.4953 12.3624C74.4518 12.3103 74.395 12.2826 74.3316 12.2826H72.5068C72.4063 12.2826 72.3192 12.3555 72.2992 12.4561C71.9811 13.9201 70.8728 14.7978 69.3259 14.7978C67.2701 14.7978 65.8906 13.1361 65.8906 10.6624C65.8873 8.21305 67.2701 6.56856 69.3226 6.56856Z" fill="black"/>
<path d="M78.2582 0.59375H76.4333C76.3161 0.59375 76.2188 0.694362 76.2188 0.815792V16.5633C76.2188 16.6846 76.3161 16.7852 76.4333 16.7852H78.2582C78.3754 16.7852 78.4727 16.6846 78.4727 16.5633V0.815792C78.4727 0.694362 78.3754 0.59375 78.2582 0.59375Z" fill="black"/>
<path d="M85.3008 4.44531C81.9531 4.44531 79.7031 6.95366 79.7031 10.6832C79.7031 14.4128 82.0497 16.9212 85.5456 16.9212C88.1841 16.9212 90.2063 15.2489 90.695 12.6608C90.7083 12.5949 90.6921 12.5289 90.6515 12.4768C90.6117 12.4248 90.5513 12.3971 90.4879 12.3971H88.6397C88.5424 12.3971 88.4583 12.4665 88.4318 12.5636C88.0838 13.9618 86.9551 14.7944 85.4114 14.7944C83.4497 14.7944 82.1374 13.417 82.0467 11.28L90.642 11.2695C90.7489 11.2695 90.8462 11.1724 90.8558 11.051C90.8757 10.7803 90.8993 10.4994 90.8993 10.2357C90.8093 6.71774 88.6124 4.44531 85.3008 4.44531ZM88.5519 9.26424H82.1839C82.4448 7.68566 83.7512 6.54775 85.3215 6.54775C87.079 6.54775 88.3079 7.58509 88.5519 9.26424Z" fill="black"/>
<path fill-rule="evenodd" clip-rule="evenodd" d="M8.3911 0C3.88873 0 0.226562 3.79548 0.226562 8.46177C0.226562 13.1281 3.88873 16.9201 8.3911 16.9201C12.8935 16.9201 16.5557 13.1246 16.5557 8.45833C16.5557 3.79201 12.8902 0 8.3911 0Z" fill="#31D7A9"/>
<path fill-rule="evenodd" clip-rule="evenodd" d="M32.8808 8.98929L25.8398 0.292948C25.5242 -0.0959269 24.943 -0.0993682 24.6275 0.292948L17.5699 8.98929C17.354 9.25428 17.5367 9.65693 17.8721 9.65693H19.6158C19.9147 9.65693 20.1239 9.46764 20.2202 9.34717L23.6445 5.28639C23.7839 5.1212 24.0463 5.22444 24.0463 5.44125V16.4639C24.0463 16.7496 24.2688 16.9802 24.5445 16.9802H25.9062C26.1818 16.9802 26.4044 16.7496 26.4044 16.4639V5.42748C26.4044 5.20723 26.6668 5.10399 26.8063 5.27262L30.2437 9.36788C30.3434 9.48834 30.5327 9.66037 30.9113 9.66037H32.5785C32.914 9.66037 33.0967 9.25428 32.8808 8.98929Z" fill="black"/>
</g>
<defs>
<clipPath id="clip0_306_779">
<rect width="118.692" height="21.3889" fill="white" transform="translate(0.226562)"/>
</clipPath>
</defs>
</svg>
