<svg width="40" height="40" viewBox="0 0 40 40" fill="none" xmlns="http://www.w3.org/2000/svg">
<path fill-rule="evenodd" clip-rule="evenodd" d="M18.7997 34.9355C16.9422 34.9355 15.1401 34.5716 13.4433 33.8539C11.8046 33.1608 10.333 32.1687 9.06947 30.905C7.80589 29.6415 6.8137 28.1698 6.12061 26.5312C5.40296 24.8345 5.03906 23.0323 5.03906 21.1748C5.03906 19.3173 5.40297 17.5152 6.12069 15.8184C6.81378 14.1797 7.80589 12.7081 9.06955 11.4446C10.3331 10.181 11.8048 9.18878 13.4434 8.49569C15.1401 7.77805 16.9423 7.41406 18.7998 7.41406C20.6573 7.41406 22.4594 7.77796 24.1562 8.49569C25.7948 9.18878 27.2665 10.1809 28.53 11.4446C29.7936 12.7081 30.7858 14.1798 31.4789 15.8184C32.1965 17.5151 32.5604 19.3173 32.5604 21.1748C32.5604 23.0323 32.1965 24.8344 31.4789 26.5312C30.7858 28.1698 29.7937 29.6415 28.53 30.905C27.2665 32.1686 25.7948 33.1607 24.1562 33.8539C22.4593 34.5716 20.6572 34.9355 18.7997 34.9355ZM18.7997 8.35081C11.7285 8.35081 5.97565 14.1037 5.97565 21.1749C5.97565 28.2461 11.7285 33.9989 18.7997 33.9989C25.8709 33.9989 31.6238 28.2461 31.6238 21.1749C31.6238 14.1037 25.8709 8.35081 18.7997 8.35081Z" fill="white"/>
<path fill-rule="evenodd" clip-rule="evenodd" d="M18.802 31.3852C17.423 31.3852 16.085 31.115 14.8253 30.5822C13.6087 30.0676 12.5163 29.331 11.5781 28.393C10.6401 27.4549 9.9035 26.3624 9.38895 25.1458C8.8561 23.8861 8.58594 22.5481 8.58594 21.1691C8.58594 19.7902 8.8561 18.4522 9.38895 17.1925C9.9035 15.9759 10.6401 14.8835 11.5781 13.9453C12.5162 13.0072 13.6087 12.2707 14.8253 11.7561C16.085 11.2233 17.423 10.9531 18.802 10.9531C20.1809 10.9531 21.5189 11.2233 22.7787 11.7561C23.9953 12.2707 25.0877 13.0073 26.0259 13.9453C26.9639 14.8834 27.7005 15.9759 28.215 17.1925C28.7479 18.4522 29.0181 19.7902 29.0181 21.1691C29.0181 22.5481 28.7479 23.8861 28.215 25.1458C27.7005 26.3624 26.9639 27.4549 26.0259 28.393C25.0878 29.331 23.9953 30.0676 22.7787 30.5822C21.5189 31.1149 20.1809 31.3852 18.802 31.3852ZM18.802 11.8896C13.6853 11.8896 9.52252 16.0524 9.52252 21.1691C9.52252 26.2857 13.6853 30.4485 18.802 30.4485C23.9186 30.4485 28.0814 26.2857 28.0814 21.1691C28.0814 16.0524 23.9187 11.8896 18.802 11.8896Z" fill="white"/>
<path fill-rule="evenodd" clip-rule="evenodd" d="M18.7964 27.8428C17.896 27.8428 17.0222 27.6664 16.1994 27.3184C15.4049 26.9824 14.6915 26.5014 14.079 25.8889C13.4665 25.2763 12.9855 24.5629 12.6495 23.7684C12.3015 22.9456 12.125 22.0719 12.125 21.1714C12.125 20.271 12.3014 19.3972 12.6495 18.5744C12.9855 17.7799 13.4665 17.0665 14.079 16.454C14.6915 15.8415 15.4049 15.3605 16.1994 15.0245C17.0222 14.6765 17.8959 14.5 18.7964 14.5C19.6968 14.5 20.5705 14.6764 21.3934 15.0245C22.1878 15.3605 22.9013 15.8415 23.5139 16.454C24.1264 17.0665 24.6074 17.7799 24.9434 18.5744C25.2914 19.3972 25.4678 20.2709 25.4678 21.1714C25.4678 22.0718 25.2914 22.9455 24.9434 23.7684C24.6074 24.5628 24.1264 25.2763 23.5139 25.8889C22.9013 26.5015 22.1879 26.9824 21.3934 27.3184C20.5705 27.6664 19.6968 27.8428 18.7964 27.8428ZM18.7964 15.4366C15.6342 15.4366 13.0616 18.0092 13.0616 21.1714C13.0616 24.3336 15.6342 26.9062 18.7964 26.9062C21.9586 26.9062 24.5312 24.3336 24.5312 21.1714C24.5312 18.0093 21.9586 15.4366 18.7964 15.4366Z" fill="white"/>
<path fill-rule="evenodd" clip-rule="evenodd" d="M18.7986 24.3004C17.0746 24.3004 15.6719 22.8977 15.6719 21.1736C15.6719 19.4496 17.0746 18.0469 18.7986 18.0469C20.5228 18.0469 21.9254 19.4496 21.9254 21.1736C21.9254 22.8977 20.5227 24.3004 18.7986 24.3004ZM18.7986 18.9834C17.591 18.9834 16.6085 19.9659 16.6085 21.1735C16.6085 22.3813 17.591 23.3637 18.7986 23.3637C20.0063 23.3637 20.9888 22.3812 20.9888 21.1735C20.9888 19.9659 20.0063 18.9834 18.7986 18.9834Z" fill="white"/>
<path fill-rule="evenodd" clip-rule="evenodd" d="M29.9605 10.7099C29.8366 10.7099 29.7174 10.6608 29.6294 10.5727C29.5358 10.4792 29.4862 10.3503 29.4928 10.2181L29.5904 8.27297C29.5963 8.15704 29.6449 8.04736 29.727 7.96533L32.3676 5.32468C32.5046 5.18769 32.7118 5.14923 32.8888 5.22777C33.0659 5.30639 33.1762 5.48582 33.1665 5.67923L33.0948 7.10728L34.5228 7.03557C34.7157 7.02565 34.8958 7.13622 34.9743 7.3133C35.0529 7.49037 35.0144 7.69744 34.8774 7.83444L32.2368 10.4751C32.1546 10.5572 32.045 10.6058 31.9291 10.6117L29.9839 10.7093C29.9761 10.7096 29.9683 10.7099 29.9605 10.7099ZM30.5168 8.49996L30.4541 9.74785L31.702 9.68517L33.3553 8.03183L32.6246 8.0685C32.4922 8.07517 32.3635 8.02549 32.2699 7.93191C32.1763 7.83834 32.1267 7.70948 32.1333 7.57728L32.17 6.84655L30.5168 8.49996Z" fill="white"/>
<path fill-rule="evenodd" clip-rule="evenodd" d="M18.8668 21.6172C18.7456 21.6172 18.6245 21.5704 18.5329 21.4773C18.3515 21.2929 18.354 20.9964 18.5384 20.8151L27.9707 11.539L29.6373 9.90004C29.8217 9.71866 30.1182 9.72118 30.2996 9.90557C30.4809 10.09 30.4785 10.3865 30.2941 10.5678L19.195 21.4828C19.1038 21.5726 18.9853 21.6172 18.8668 21.6172Z" fill="white"/>
</svg>
