<svg width="49" height="48" viewBox="0 0 49 48" fill="none" xmlns="http://www.w3.org/2000/svg">
<rect x="0.40625" width="48" height="48" rx="8.02099" fill="#FF6C40"/>
<path d="M18.2659 10.5971L20.5623 15.0593C20.6177 15.1675 20.6296 15.2915 20.5966 15.4075L19.6904 18.5942H15.6991L14.793 15.4075C14.76 15.2915 14.7719 15.1661 14.8273 15.0593L17.2173 10.4164H17.6948V15.2967M20.2009 24.3979V18.742C20.2009 18.6602 20.1349 18.5942 20.0532 18.5942H15.2045C15.1227 18.5942 15.0568 18.6602 15.0568 18.742V24.3979M35.992 12.7827C37.5419 12.7827 38.7989 14.0384 38.7989 15.5869V28.8495C38.7989 30.398 37.5432 31.6537 35.9947 31.6537H13.6401C12.0916 31.6537 10.8359 30.398 10.8359 28.8495V15.5856C10.8359 14.0371 12.093 12.7814 13.6428 12.7814M10.8359 27.8273H34.3143M21.388 33.2352V33.8565C21.388 34.8207 20.8947 35.7189 20.0809 36.236L17.8267 37.6697C17.7449 37.7225 17.6948 37.8122 17.6948 37.9098V39.3027H31.5443V37.9098C31.5443 37.8122 31.4942 37.7212 31.4124 37.6697L29.1622 36.2399C28.3458 35.7202 27.8511 34.8207 27.8511 33.8525V33.2352M17.8267 37.7199H24.8174M22.1794 24.3979V15.7267L24.4811 11.0759H25.1538L27.4554 15.7267V24.3979M22.1794 15.6924H27.4554M24.8174 15.6924V23.6065M23.8941 12.263H25.7407M29.4339 24.3979V15.7267L31.7356 11.0759H32.4083L34.71 15.7267V24.3979M29.4339 15.6924H34.71M29.4339 22.2875H34.71M32.0719 9.625V10.5483" stroke="white" stroke-width="1.20315" stroke-miterlimit="10" stroke-linecap="round"/>
</svg>
