<svg width="49" height="48" viewBox="0 0 49 48" fill="none" xmlns="http://www.w3.org/2000/svg">
<rect x="0.703125" width="48" height="48" rx="8.02099" fill="#FF6666"/>
<path d="M14.8116 14.6016H14.0596C13.0206 14.6016 12.1797 15.4438 12.1797 16.4815V29.8916L37.3706 29.8878V16.4815C37.3706 15.4425 36.5284 14.6016 35.4907 14.6016H34.6134" stroke="white" stroke-width="1.20315" stroke-miterlimit="10" stroke-linecap="round"/>
<path d="M34.6484 16.0156C35.2525 16.0156 35.7413 16.5044 35.7413 17.1085V27.7589" stroke="white" stroke-width="1.20315" stroke-miterlimit="10" stroke-linecap="round"/>
<path d="M13.5547 27.7589V17.1085C13.5547 16.5044 14.0435 16.0156 14.6475 16.0156" stroke="white" stroke-width="1.20315" stroke-miterlimit="10" stroke-linecap="round"/>
<path d="M12.1752 29.9688L10.9219 34.5044" stroke="white" stroke-width="1.20315" stroke-miterlimit="10" stroke-linecap="round"/>
<path d="M37.25 29.9688L38.5045 34.5044" stroke="white" stroke-width="1.20315" stroke-miterlimit="10" stroke-linecap="round"/>
<path d="M37.9375 36.029H11.7452C11.3642 36.029 11.0547 35.7206 11.0547 35.3384V34.4423C11.0547 34.4185 11.0735 34.3984 11.0986 34.3984H38.5905C38.6105 34.3984 38.6268 34.4147 38.6268 34.4348V35.3371C38.6268 35.7206 38.3185 36.029 37.9375 36.029Z" stroke="white" stroke-width="1.20315" stroke-miterlimit="10" stroke-linecap="round"/>
<path d="M14.0805 30.9141L13.6694 32.6636C13.6406 32.784 13.7321 32.9005 13.8561 32.9005H35.4552C35.5742 32.9005 35.6657 32.7927 35.6444 32.6749L35.3336 30.9153" stroke="white" stroke-width="1.20315" stroke-miterlimit="10" stroke-linecap="round"/>
<path d="M32.1887 26.6318H17.3562C16.8486 26.6318 16.4375 26.2207 16.4375 25.7131V13.0124C16.4375 12.5048 16.8486 12.0938 17.3562 12.0938H32.1887C32.6963 12.0938 33.1074 12.5048 33.1074 13.0124V25.7144C33.1061 26.2207 32.695 26.6318 32.1887 26.6318Z" stroke="white" stroke-width="1.20315" stroke-miterlimit="10" stroke-linecap="round"/>
<path d="M16.4375 15.6016H30.8502" stroke="white" stroke-width="1.20315" stroke-miterlimit="10" stroke-linecap="round"/>
<path d="M30.2266 13.8516H30.8532" stroke="white" stroke-width="1.20315" stroke-miterlimit="10" stroke-linecap="round"/>
<path d="M28.0938 13.8516H28.8457" stroke="white" stroke-width="1.20315" stroke-miterlimit="10" stroke-linecap="round"/>
<path d="M22.9166 19.0156L21.1094 20.8767L22.8978 22.6827" stroke="white" stroke-width="1.20315" stroke-miterlimit="10" stroke-linecap="round"/>
<path d="M26.9375 19.0156L28.7435 20.8767L26.955 22.6827" stroke="white" stroke-width="1.20315" stroke-miterlimit="10" stroke-linecap="round"/>
<path d="M25.4514 18.4922L24.3359 23.5003" stroke="white" stroke-width="1.20315" stroke-miterlimit="10" stroke-linecap="round"/>
</svg>
