<svg width="30" height="30" viewBox="0 0 30 30" fill="none" xmlns="http://www.w3.org/2000/svg">
<g clip-path="url(#clip0_215_1248)">
<path d="M26.6807 19.3883C20.9064 19.3883 15.1984 19.3883 9.42409 19.3883C8.36214 15.406 7.23382 11.4237 6.17188 7.50781C14.1365 7.50781 22.0347 7.50781 29.9329 7.50781C28.871 11.4237 27.809 15.406 26.6807 19.3883Z" fill="#4B5A69"/>
<path d="M9.49115 19.3897L4.9115 2.86318L0 2.66406" stroke="#4B5A69" stroke-width="2" stroke-miterlimit="10"/>
<path d="M12.5457 27.0211C13.792 27.0211 14.8023 26.0108 14.8023 24.7644C14.8023 23.5181 13.792 22.5078 12.5457 22.5078C11.2994 22.5078 10.2891 23.5181 10.2891 24.7644C10.2891 26.0108 11.2994 27.0211 12.5457 27.0211Z" fill="#101010" fill-opacity="0.4"/>
<path d="M23.2332 27.0211C24.4795 27.0211 25.4898 26.0108 25.4898 24.7644C25.4898 23.5181 24.4795 22.5078 23.2332 22.5078C21.9869 22.5078 20.9766 23.5181 20.9766 24.7644C20.9766 26.0108 21.9869 27.0211 23.2332 27.0211Z" fill="#101010" fill-opacity="0.4"/>
</g>
<defs>
<clipPath id="clip0_215_1248">
<rect width="30" height="25.0221" fill="white" transform="translate(0 2)"/>
</clipPath>
</defs>
</svg>
