<svg width="30" height="30" viewBox="0 0 30 30" fill="none" xmlns="http://www.w3.org/2000/svg">
<path d="M15 27.375C14.4698 27.375 13.977 27.1523 13.6117 26.7488L13.5007 26.625H0.99975C0.6555 26.625 0.375 26.3445 0.375 26.0002V6.24975C0.375 5.9055 0.6555 5.625 0.99975 5.625H29.0002C29.3445 5.625 29.625 5.9055 29.625 6.24975V26.0002C29.625 26.3445 29.3445 26.625 29.0002 26.625H16.4993L16.3883 26.7488C16.023 27.1523 15.5302 27.375 15 27.375Z" fill="#101010" fill-opacity="0.4"/>
<path d="M29.0002 6C29.1375 6 29.25 6.1125 29.25 6.24975V25.9995C29.25 26.1375 29.1375 26.25 29.0002 26.25H16.6658H16.332L16.1085 26.4983C15.8175 26.8215 15.4237 27 15 27C14.5763 27 14.1825 26.8215 13.8915 26.4983L13.668 26.25H13.3342H0.99975C0.8625 26.25 0.75 26.1375 0.75 26.0002V6.24975C0.75 6.1125 0.8625 6 0.99975 6H29.0002ZM29.0002 5.25H0.99975C0.44775 5.25 0 5.69775 0 6.24975V25.9995C0 26.5522 0.44775 27 0.99975 27H13.3335C13.7452 27.4575 14.3355 27.75 14.9993 27.75C15.663 27.75 16.2533 27.4575 16.665 27H28.9988C29.5522 27 30 26.5522 30 26.0002V6.24975C30 5.69775 29.5522 5.25 29.0002 5.25Z" fill="#4B5A69"/>
<path d="M14.5875 25.125C14.4135 24.27 13.6552 23.625 12.75 23.625H2.625V3.375H12.9998C13.911 3.375 14.7128 4.24125 14.721 4.25025L14.9985 4.56L15.279 4.251C15.2865 4.242 16.0807 3.375 17.0002 3.375H27.375V23.625H17.25C16.3448 23.625 15.5865 24.27 15.4125 25.125H14.5875Z" fill="white"/>
<path d="M27 3.75V23.25H17.25C16.272 23.25 15.438 23.877 15.1283 24.75H14.871C14.5612 23.877 13.7273 23.25 12.7493 23.25H3V3.75H12.9998C13.62 3.75 14.2522 4.29375 14.4412 4.5L14.997 5.115L15.5565 4.50225C15.7478 4.29375 16.3792 3.75 17.0002 3.75H27ZM27.75 3H17.0002C15.8955 3 15 3.99975 15 3.99975C15 3.99975 14.1045 3 12.9998 3H2.25V24H12.75C13.5787 24 14.25 24.6712 14.25 25.5H15.75C15.75 24.6712 16.4213 24 17.25 24H27.75V3Z" fill="#4B5A69"/>
<path d="M17.0002 3.75C16.2637 3.75 15.5655 4.4925 15.5588 4.5L15 5.124V24.75H15.1282C15.438 23.877 16.272 23.25 17.25 23.25H27V3.75H17.0002Z" fill="#101010" fill-opacity="0.2"/>
<path d="M12.375 13.5H5.625C5.418 13.5 5.25 13.332 5.25 13.125C5.25 12.918 5.418 12.75 5.625 12.75H12.375C12.582 12.75 12.75 12.918 12.75 13.125C12.75 13.332 12.582 13.5 12.375 13.5ZM12.375 7.5H5.625C5.418 7.5 5.25 7.332 5.25 7.125C5.25 6.918 5.418 6.75 5.625 6.75H12.375C12.582 6.75 12.75 6.918 12.75 7.125C12.75 7.332 12.582 7.5 12.375 7.5ZM12.375 10.5H5.625C5.418 10.5 5.25 10.332 5.25 10.125C5.25 9.918 5.418 9.75 5.625 9.75H12.375C12.582 9.75 12.75 9.918 12.75 10.125C12.75 10.332 12.582 10.5 12.375 10.5ZM12.375 16.5H5.625C5.418 16.5 5.25 16.332 5.25 16.125C5.25 15.918 5.418 15.75 5.625 15.75H12.375C12.582 15.75 12.75 15.918 12.75 16.125C12.75 16.332 12.582 16.5 12.375 16.5ZM24.375 13.5H17.625C17.418 13.5 17.25 13.332 17.25 13.125C17.25 12.918 17.418 12.75 17.625 12.75H24.375C24.582 12.75 24.75 12.918 24.75 13.125C24.75 13.332 24.582 13.5 24.375 13.5ZM24.375 16.5H17.625C17.418 16.5 17.25 16.332 17.25 16.125C17.25 15.918 17.418 15.75 17.625 15.75H24.375C24.582 15.75 24.75 15.918 24.75 16.125C24.75 16.332 24.582 16.5 24.375 16.5ZM24.375 7.5H17.625C17.418 7.5 17.25 7.332 17.25 7.125C17.25 6.918 17.418 6.75 17.625 6.75H24.375C24.582 6.75 24.75 6.918 24.75 7.125C24.75 7.332 24.582 7.5 24.375 7.5ZM24.375 10.5H17.625C17.418 10.5 17.25 10.332 17.25 10.125C17.25 9.918 17.418 9.75 17.625 9.75H24.375C24.582 9.75 24.75 9.918 24.75 10.125C24.75 10.332 24.582 10.5 24.375 10.5ZM21.375 19.5H17.625C17.418 19.5 17.25 19.332 17.25 19.125C17.25 18.918 17.418 18.75 17.625 18.75H21.375C21.582 18.75 21.75 18.918 21.75 19.125C21.75 19.332 21.582 19.5 21.375 19.5ZM12.375 19.5H5.625C5.418 19.5 5.25 19.332 5.25 19.125C5.25 18.918 5.418 18.75 5.625 18.75H12.375C12.582 18.75 12.75 18.918 12.75 19.125C12.75 19.332 12.582 19.5 12.375 19.5Z" fill="#4B5A69"/>
</svg>
