<svg width="24" height="24" viewBox="0 0 24 24" fill="none" xmlns="http://www.w3.org/2000/svg">
<g clip-path="url(#clip0_407_642)">
<path d="M22.6738 0H1.3246C0.593539 0 0 0.592354 0 1.3246V22.6738C0 23.4061 0.593539 23.9992 1.3246 23.9992H12.8184V14.7053H9.69105V11.0828H12.8184V8.4115C12.8184 5.31221 14.7108 3.62367 17.4762 3.62367C18.802 3.62367 19.9389 3.72286 20.2704 3.76593V7.0055L18.3523 7.00629C16.8487 7.00629 16.5586 7.72115 16.5586 8.76952V11.0816H20.1459L19.6769 14.7037H16.5582V23.998H22.6734C23.4053 23.998 23.9992 23.4041 23.9992 22.6738V1.32381C23.9988 0.592354 23.4057 0 22.6738 0Z" fill="#444444"/>
</g>
<defs>
<clipPath id="clip0_407_642">
<rect width="24" height="24" fill="white"/>
</clipPath>
</defs>
</svg>
