<svg width="30" height="30" viewBox="0 0 30 30" fill="none" xmlns="http://www.w3.org/2000/svg">
    <circle opacity="0.4" cx="15" cy="15" r="15" fill="#042552"/>
    <path d="M18.7355 9.00268L17.0567 9C15.1707 9 13.9519 10.2443 13.9519 12.1702V13.6318H12.264C12.1181 13.6318 12 13.7495 12 13.8946V16.0124C12 16.1575 12.1182 16.275 12.264 16.275H13.9519V21.6189C13.9519 21.764 14.07 21.8815 14.2158 21.8815H16.4181C16.5639 21.8815 16.682 21.7639 16.682 21.6189V16.275H18.6556C18.8015 16.275 18.9196 16.1575 18.9196 16.0124L18.9204 13.8946C18.9204 13.8249 18.8925 13.7582 18.8431 13.7089C18.7936 13.6596 18.7263 13.6318 18.6563 13.6318H16.682V12.3927C16.682 11.7972 16.8247 11.4949 17.6043 11.4949L18.7352 11.4945C18.8809 11.4945 18.999 11.3768 18.999 11.2318V9.26534C18.999 9.12048 18.8811 9.00295 18.7355 9.00268Z" fill="white"/>
</svg>
