<svg width="30" height="30" viewBox="0 0 30 30" fill="none" xmlns="http://www.w3.org/2000/svg">
    <circle opacity="0.4" cx="15" cy="15" r="15" fill="#3200FF"/>
    <path d="M18.7355 9.0027L17.0567 9C15.1707 9 13.9519 10.2557 13.9519 12.1993V13.6744H12.264C12.1181 13.6744 12 13.7932 12 13.9396V16.0769C12 16.2233 12.1182 16.342 12.264 16.342H13.9519V21.7349C13.9519 21.8814 14.07 22 14.2158 22H16.4181C16.5639 22 16.682 21.8813 16.682 21.7349V16.342H18.6556C18.8015 16.342 18.9196 16.2233 18.9196 16.0769L18.9204 13.9396C18.9204 13.8693 18.8925 13.802 18.8431 13.7522C18.7936 13.7024 18.7263 13.6744 18.6563 13.6744H16.682V12.424C16.682 11.8229 16.8247 11.5178 17.6043 11.5178L18.7352 11.5174C18.8809 11.5174 18.999 11.3987 18.999 11.2523V9.26778C18.999 9.12158 18.8811 9.00298 18.7355 9.0027Z" fill="white"/>
</svg>
