<svg width="30" height="30" viewBox="0 0 30 30" fill="none" xmlns="http://www.w3.org/2000/svg">
<path d="M4.0625 25.3125V10.7812L8.4375 7.5V10.625C8.43746 10.6833 8.45375 10.7404 8.48452 10.7898C8.5153 10.8393 8.55932 10.8791 8.61159 10.9048C8.65536 10.9268 8.70363 10.9383 8.75259 10.9384C8.8185 10.9388 8.88265 10.9172 8.93494 10.8771L13.4375 7.5V10.625C13.4375 10.6833 13.4538 10.7404 13.4845 10.7898C13.5153 10.8393 13.5593 10.8791 13.6116 10.9048C13.6554 10.9268 13.7036 10.9383 13.7526 10.9384C13.8185 10.9388 13.8826 10.9172 13.9349 10.8771L18.4375 7.5V10.625C18.4371 10.6662 18.4449 10.707 18.4604 10.7451C18.476 10.7832 18.499 10.8178 18.5281 10.8469C18.5572 10.876 18.5918 10.899 18.6299 10.9146C18.668 10.9301 18.7088 10.9379 18.75 10.9375H22.5C22.5412 10.9379 22.582 10.9301 22.6201 10.9146C22.6582 10.899 22.6928 10.876 22.7219 10.8469C22.751 10.8178 22.774 10.7832 22.7896 10.7451C22.8051 10.707 22.8129 10.6662 22.8125 10.625V4.6875H25.9375V25.3125H4.0625ZM20 21.5625C19.9171 21.5625 19.8376 21.5954 19.779 21.654C19.7204 21.7126 19.6875 21.7921 19.6875 21.875C19.6875 21.9579 19.7204 22.0374 19.779 22.096C19.8376 22.1546 19.9171 22.1875 20 22.1875H22.5C22.5829 22.1875 22.6624 22.1546 22.721 22.096C22.7796 22.0374 22.8125 21.9579 22.8125 21.875C22.8125 21.7921 22.7796 21.7126 22.721 21.654C22.6624 21.5954 22.5829 21.5625 22.5 21.5625H20ZM13.75 21.5625C13.6671 21.5625 13.5876 21.5954 13.529 21.654C13.4704 21.7126 13.4375 21.7921 13.4375 21.875C13.4375 21.9579 13.4704 22.0374 13.529 22.096C13.5876 22.1546 13.6671 22.1875 13.75 22.1875H16.25C16.3329 22.1875 16.4124 22.1546 16.471 22.096C16.5296 22.0374 16.5625 21.9579 16.5625 21.875C16.5625 21.7921 16.5296 21.7126 16.471 21.654C16.4124 21.5954 16.3329 21.5625 16.25 21.5625H13.75ZM7.5 21.5625C7.41712 21.5625 7.33763 21.5954 7.27903 21.654C7.22042 21.7126 7.1875 21.7921 7.1875 21.875C7.1875 21.9579 7.22042 22.0374 7.27903 22.096C7.33763 22.1546 7.41712 22.1875 7.5 22.1875H10C10.0829 22.1875 10.1624 22.1546 10.221 22.096C10.2796 22.0374 10.3125 21.9579 10.3125 21.875C10.3125 21.7921 10.2796 21.7126 10.221 21.654C10.1624 21.5954 10.0829 21.5625 10 21.5625H7.5ZM20 17.8125C19.9171 17.8125 19.8376 17.8454 19.779 17.904C19.7204 17.9626 19.6875 18.0421 19.6875 18.125C19.6875 18.2079 19.7204 18.2874 19.779 18.346C19.8376 18.4046 19.9171 18.4375 20 18.4375H22.5C22.5829 18.4375 22.6624 18.4046 22.721 18.346C22.7796 18.2874 22.8125 18.2079 22.8125 18.125C22.8125 18.0421 22.7796 17.9626 22.721 17.904C22.6624 17.8454 22.5829 17.8125 22.5 17.8125H20ZM13.75 17.8125C13.6671 17.8125 13.5876 17.8454 13.529 17.904C13.4704 17.9626 13.4375 18.0421 13.4375 18.125C13.4375 18.2079 13.4704 18.2874 13.529 18.346C13.5876 18.4046 13.6671 18.4375 13.75 18.4375H16.25C16.3329 18.4375 16.4124 18.4046 16.471 18.346C16.5296 18.2874 16.5625 18.2079 16.5625 18.125C16.5625 18.0421 16.5296 17.9626 16.471 17.904C16.4124 17.8454 16.3329 17.8125 16.25 17.8125H13.75ZM7.5 17.8125C7.41712 17.8125 7.33763 17.8454 7.27903 17.904C7.22042 17.9626 7.1875 18.0421 7.1875 18.125C7.1875 18.2079 7.22042 18.2874 7.27903 18.346C7.33763 18.4046 7.41712 18.4375 7.5 18.4375H10C10.0829 18.4375 10.1624 18.4046 10.221 18.346C10.2796 18.2874 10.3125 18.2079 10.3125 18.125C10.3125 18.0421 10.2796 17.9626 10.221 17.904C10.1624 17.8454 10.0829 17.8125 10 17.8125H7.5ZM20 14.0625C19.9171 14.0625 19.8376 14.0954 19.779 14.154C19.7204 14.2126 19.6875 14.2921 19.6875 14.375C19.6875 14.4579 19.7204 14.5374 19.779 14.596C19.8376 14.6546 19.9171 14.6875 20 14.6875H22.5C22.5829 14.6875 22.6624 14.6546 22.721 14.596C22.7796 14.5374 22.8125 14.4579 22.8125 14.375C22.8125 14.2921 22.7796 14.2126 22.721 14.154C22.6624 14.0954 22.5829 14.0625 22.5 14.0625H20ZM13.75 14.0625C13.6671 14.0625 13.5876 14.0954 13.529 14.154C13.4704 14.2126 13.4375 14.2921 13.4375 14.375C13.4375 14.4579 13.4704 14.5374 13.529 14.596C13.5876 14.6546 13.6671 14.6875 13.75 14.6875H16.25C16.3329 14.6875 16.4124 14.6546 16.471 14.596C16.5296 14.5374 16.5625 14.4579 16.5625 14.375C16.5625 14.2921 16.5296 14.2126 16.471 14.154C16.4124 14.0954 16.3329 14.0625 16.25 14.0625H13.75ZM7.5 14.0625C7.41712 14.0625 7.33763 14.0954 7.27903 14.154C7.22042 14.2126 7.1875 14.2921 7.1875 14.375C7.1875 14.4579 7.22042 14.5374 7.27903 14.596C7.33763 14.6546 7.41712 14.6875 7.5 14.6875H10C10.0829 14.6875 10.1624 14.6546 10.221 14.596C10.2796 14.5374 10.3125 14.4579 10.3125 14.375C10.3125 14.2921 10.2796 14.2126 10.221 14.154C10.1624 14.0954 10.0829 14.0625 10 14.0625H7.5Z" fill="white"/>
<path d="M26.25 3.75H22.5C22.4178 3.74972 22.3364 3.76569 22.2605 3.797C22.1845 3.82831 22.1155 3.87433 22.0574 3.93243C21.9993 3.99052 21.9533 4.05953 21.922 4.13549C21.8907 4.21145 21.8747 4.29285 21.875 4.375V10H19.375V6.875C19.3749 6.75873 19.3424 6.64477 19.2812 6.54596C19.2199 6.44714 19.1323 6.36737 19.0281 6.31563C18.9242 6.26486 18.8084 6.24355 18.6933 6.25402C18.5781 6.26449 18.468 6.30634 18.375 6.375L14.375 9.375V6.875C14.3749 6.75873 14.3424 6.64477 14.2812 6.54596C14.2199 6.44714 14.1323 6.36737 14.0281 6.31563C13.9242 6.26486 13.8084 6.24355 13.6933 6.25402C13.5781 6.26449 13.468 6.30634 13.375 6.375L9.375 9.375V6.875C9.37494 6.75873 9.34244 6.64477 9.28117 6.54596C9.21989 6.44714 9.13226 6.36737 9.02813 6.31563C8.92424 6.26486 8.80842 6.24355 8.69327 6.25402C8.57811 6.26449 8.46803 6.30634 8.375 6.375L3.375 10.125C3.29761 10.1834 3.23478 10.259 3.19141 10.3457C3.14804 10.4324 3.12531 10.528 3.125 10.625V25.625C3.12472 25.7072 3.14069 25.7886 3.172 25.8645C3.20331 25.9405 3.24933 26.0095 3.30743 26.0676C3.36552 26.1257 3.43453 26.1717 3.51049 26.203C3.58645 26.2343 3.66785 26.2503 3.75 26.25H26.25C26.3322 26.2503 26.4136 26.2343 26.4895 26.203C26.5655 26.1717 26.6345 26.1257 26.6926 26.0676C26.7507 26.0095 26.7967 25.9405 26.828 25.8645C26.8593 25.7886 26.8753 25.7072 26.875 25.625V4.375C26.8753 4.29285 26.8593 4.21145 26.828 4.13549C26.7967 4.05953 26.7507 3.99052 26.6926 3.93243C26.6345 3.87433 26.5655 3.82831 26.4895 3.797C26.4136 3.76569 26.3322 3.74972 26.25 3.75ZM25.625 25H4.375V10.9375L8.125 8.125V10.625C8.12506 10.7413 8.15756 10.8552 8.21884 10.9541C8.28012 11.0529 8.36775 11.1326 8.47188 11.1844C8.57534 11.2368 8.69147 11.259 8.80697 11.2485C8.92247 11.238 9.03269 11.1952 9.125 11.125L13.125 8.125V10.625C13.1251 10.7413 13.1576 10.8552 13.2188 10.9541C13.2801 11.0529 13.3677 11.1326 13.4719 11.1844C13.5753 11.2368 13.6915 11.259 13.807 11.2485C13.9225 11.238 14.0327 11.1952 14.125 11.125L18.125 8.125V10.625C18.1247 10.7072 18.1407 10.7886 18.172 10.8645C18.2033 10.9405 18.2493 11.0095 18.3074 11.0676C18.3655 11.1257 18.4345 11.1717 18.5105 11.203C18.5864 11.2343 18.6678 11.2503 18.75 11.25H22.5C22.5822 11.2503 22.6636 11.2343 22.7395 11.203C22.8155 11.1717 22.8845 11.1257 22.9426 11.0676C23.0007 11.0095 23.0467 10.9405 23.078 10.8645C23.1093 10.7886 23.1253 10.7072 23.125 10.625V5H25.625V25Z" fill="#4B5A69"/>
<path d="M10 13.75H7.5C7.33424 13.75 7.17527 13.8158 7.05806 13.9331C6.94085 14.0503 6.875 14.2092 6.875 14.375C6.875 14.5408 6.94085 14.6997 7.05806 14.8169C7.17527 14.9342 7.33424 15 7.5 15H10C10.1658 15 10.3247 14.9342 10.4419 14.8169C10.5592 14.6997 10.625 14.5408 10.625 14.375C10.625 14.2092 10.5592 14.0503 10.4419 13.9331C10.3247 13.8158 10.1658 13.75 10 13.75Z" fill="#4B5A69"/>
<path d="M16.25 13.75H13.75C13.5842 13.75 13.4253 13.8158 13.3081 13.9331C13.1908 14.0503 13.125 14.2092 13.125 14.375C13.125 14.5408 13.1908 14.6997 13.3081 14.8169C13.4253 14.9342 13.5842 15 13.75 15H16.25C16.4158 15 16.5747 14.9342 16.6919 14.8169C16.8092 14.6997 16.875 14.5408 16.875 14.375C16.875 14.2092 16.8092 14.0503 16.6919 13.9331C16.5747 13.8158 16.4158 13.75 16.25 13.75Z" fill="#4B5A69"/>
<path d="M10 17.5H7.5C7.33424 17.5 7.17527 17.5658 7.05806 17.6831C6.94085 17.8003 6.875 17.9592 6.875 18.125C6.875 18.2908 6.94085 18.4497 7.05806 18.5669C7.17527 18.6842 7.33424 18.75 7.5 18.75H10C10.1658 18.75 10.3247 18.6842 10.4419 18.5669C10.5592 18.4497 10.625 18.2908 10.625 18.125C10.625 17.9592 10.5592 17.8003 10.4419 17.6831C10.3247 17.5658 10.1658 17.5 10 17.5Z" fill="#4B5A69"/>
<path d="M16.25 17.5H13.75C13.5842 17.5 13.4253 17.5658 13.3081 17.6831C13.1908 17.8003 13.125 17.9592 13.125 18.125C13.125 18.2908 13.1908 18.4497 13.3081 18.5669C13.4253 18.6842 13.5842 18.75 13.75 18.75H16.25C16.4158 18.75 16.5747 18.6842 16.6919 18.5669C16.8092 18.4497 16.875 18.2908 16.875 18.125C16.875 17.9592 16.8092 17.8003 16.6919 17.6831C16.5747 17.5658 16.4158 17.5 16.25 17.5Z" fill="#4B5A69"/>
<path d="M10 21.25H7.5C7.33424 21.25 7.17527 21.3158 7.05806 21.4331C6.94085 21.5503 6.875 21.7092 6.875 21.875C6.875 22.0408 6.94085 22.1997 7.05806 22.3169C7.17527 22.4342 7.33424 22.5 7.5 22.5H10C10.1658 22.5 10.3247 22.4342 10.4419 22.3169C10.5592 22.1997 10.625 22.0408 10.625 21.875C10.625 21.7092 10.5592 21.5503 10.4419 21.4331C10.3247 21.3158 10.1658 21.25 10 21.25Z" fill="#4B5A69"/>
<path d="M16.25 21.25H13.75C13.5842 21.25 13.4253 21.3158 13.3081 21.4331C13.1908 21.5503 13.125 21.7092 13.125 21.875C13.125 22.0408 13.1908 22.1997 13.3081 22.3169C13.4253 22.4342 13.5842 22.5 13.75 22.5H16.25C16.4158 22.5 16.5747 22.4342 16.6919 22.3169C16.8092 22.1997 16.875 22.0408 16.875 21.875C16.875 21.7092 16.8092 21.5503 16.6919 21.4331C16.5747 21.3158 16.4158 21.25 16.25 21.25Z" fill="#4B5A69"/>
<path d="M22.5 13.75H20C19.8342 13.75 19.6753 13.8158 19.5581 13.9331C19.4408 14.0503 19.375 14.2092 19.375 14.375C19.375 14.5408 19.4408 14.6997 19.5581 14.8169C19.6753 14.9342 19.8342 15 20 15H22.5C22.6658 15 22.8247 14.9342 22.9419 14.8169C23.0592 14.6997 23.125 14.5408 23.125 14.375C23.125 14.2092 23.0592 14.0503 22.9419 13.9331C22.8247 13.8158 22.6658 13.75 22.5 13.75Z" fill="#4B5A69"/>
<path d="M22.5 17.5H20C19.8342 17.5 19.6753 17.5658 19.5581 17.6831C19.4408 17.8003 19.375 17.9592 19.375 18.125C19.375 18.2908 19.4408 18.4497 19.5581 18.5669C19.6753 18.6842 19.8342 18.75 20 18.75H22.5C22.6658 18.75 22.8247 18.6842 22.9419 18.5669C23.0592 18.4497 23.125 18.2908 23.125 18.125C23.125 17.9592 23.0592 17.8003 22.9419 17.6831C22.8247 17.5658 22.6658 17.5 22.5 17.5Z" fill="#4B5A69"/>
<path d="M22.5 21.25H20C19.8342 21.25 19.6753 21.3158 19.5581 21.4331C19.4408 21.5503 19.375 21.7092 19.375 21.875C19.375 22.0408 19.4408 22.1997 19.5581 22.3169C19.6753 22.4342 19.8342 22.5 20 22.5H22.5C22.6658 22.5 22.8247 22.4342 22.9419 22.3169C23.0592 22.1997 23.125 22.0408 23.125 21.875C23.125 21.7092 23.0592 21.5503 22.9419 21.4331C22.8247 21.3158 22.6658 21.25 22.5 21.25Z" fill="#4B5A69"/>
</svg>
