<svg width="30" height="30" viewBox="0 0 30 30" fill="none" xmlns="http://www.w3.org/2000/svg">
<g clip-path="url(#clip0_215_1199)">
<path d="M7.03125 21.0938H3.28125V28.5938H7.03125V21.0938Z" fill="white"/>
<path d="M13.5938 16.875H9.84375V28.5938H13.5938V16.875Z" fill="#101010" fill-opacity="0.4"/>
<path d="M20.1562 19.6875H16.4062V28.5938H20.1562V19.6875Z" fill="white"/>
<path d="M26.7188 15.4688H22.9688V28.5938H26.7188V15.4688Z" fill="#101010" fill-opacity="0.4"/>
<path d="M11.7188 9.84375C14.0487 9.84375 15.9375 7.95495 15.9375 5.625C15.9375 3.29505 14.0487 1.40625 11.7188 1.40625C9.3888 1.40625 7.5 3.29505 7.5 5.625C7.5 7.95495 9.3888 9.84375 11.7188 9.84375Z" fill="#101010" fill-opacity="0.4"/>
<path d="M29.5312 28.125H27.1875V15.4688C27.1875 15.3444 27.1381 15.2252 27.0502 15.1373C26.9623 15.0494 26.8431 15 26.7188 15H22.9688C22.8444 15 22.7252 15.0494 22.6373 15.1373C22.5494 15.2252 22.5 15.3444 22.5 15.4688V28.125H20.625V19.6875C20.625 19.5632 20.5756 19.444 20.4877 19.356C20.3998 19.2681 20.2806 19.2188 20.1562 19.2188H16.4062C16.2819 19.2188 16.1627 19.2681 16.0748 19.356C15.9869 19.444 15.9375 19.5632 15.9375 19.6875V28.125H14.0625V16.875C14.0625 16.7507 14.0131 16.6315 13.9252 16.5435C13.8373 16.4556 13.7181 16.4062 13.5938 16.4062H9.84375C9.71943 16.4062 9.6002 16.4556 9.51229 16.5435C9.42439 16.6315 9.375 16.7507 9.375 16.875V28.125H7.5V21.0938C7.5 20.9694 7.45061 20.8502 7.36271 20.7623C7.2748 20.6744 7.15557 20.625 7.03125 20.625H3.28125C3.15693 20.625 3.0377 20.6744 2.94979 20.7623C2.86189 20.8502 2.8125 20.9694 2.8125 21.0938V28.125H0.9375V1.40625C0.9375 1.28193 0.888114 1.1627 0.800206 1.07479C0.712299 0.986886 0.59307 0.9375 0.46875 0.9375C0.34443 0.9375 0.225201 0.986886 0.137294 1.07479C0.049386 1.1627 0 1.28193 0 1.40625L0 28.5938C0 28.7181 0.049386 28.8373 0.137294 28.9252C0.225201 29.0131 0.34443 29.0625 0.46875 29.0625H29.5312C29.6556 29.0625 29.7748 29.0131 29.8627 28.9252C29.9506 28.8373 30 28.7181 30 28.5938C30 28.4694 29.9506 28.3502 29.8627 28.2623C29.7748 28.1744 29.6556 28.125 29.5312 28.125ZM3.75 28.125V21.5625H6.5625V28.125H3.75ZM10.3125 28.125V17.3438H13.125V28.125H10.3125ZM16.875 28.125V20.1562H19.6875V28.125H16.875ZM23.4375 28.125V15.9375H26.25V28.125H23.4375Z" fill="#4B5A69"/>
<path d="M5.4819 18.6127L11.7505 12.3441L17.9849 17.2434C18.077 17.3162 18.1931 17.3518 18.3102 17.3431C18.4273 17.3345 18.5368 17.2822 18.6172 17.1966L24.3692 11.033V13.5937C24.3692 13.7181 24.4186 13.8373 24.5065 13.9252C24.5944 14.0131 24.7137 14.0625 24.838 14.0625C24.9623 14.0625 25.0815 14.0131 25.1694 13.9252C25.2574 13.8373 25.3067 13.7181 25.3067 13.5937V9.84375C25.3031 9.72059 25.2525 9.60347 25.1654 9.51634C25.0783 9.42921 24.9612 9.37865 24.838 9.375H21.088C20.9637 9.375 20.8444 9.42439 20.7565 9.51229C20.6686 9.6002 20.6192 9.71943 20.6192 9.84375C20.6192 9.96807 20.6686 10.0873 20.7565 10.1752C20.8444 10.2631 20.9637 10.3125 21.088 10.3125H23.7599L18.2286 16.2403L12.0027 11.3503C11.9125 11.2795 11.7996 11.2441 11.6851 11.2509C11.5706 11.2577 11.4627 11.3063 11.3816 11.3873L4.81908 17.9498C4.7337 18.0382 4.68645 18.1567 4.68752 18.2796C4.68859 18.4025 4.73788 18.52 4.82479 18.6069C4.9117 18.6939 5.02927 18.7432 5.15218 18.7442C5.27508 18.7453 5.39349 18.698 5.4819 18.6127Z" fill="#4B5A69"/>
<path d="M11.5503 6.06375C11.6691 6.09548 11.7797 6.1525 11.8744 6.23089C11.9691 6.30928 12.0458 6.40721 12.0992 6.51797C12.1081 6.55125 12.1311 6.63984 12.0055 6.78984C11.7814 7.05703 11.2391 6.65859 11.2292 6.64922C11.1309 6.57313 11.0064 6.53923 10.883 6.55497C10.7597 6.5707 10.6477 6.63479 10.5716 6.73313C10.4955 6.83146 10.4616 6.956 10.4773 7.07933C10.4931 7.20267 10.5572 7.3147 10.6555 7.39078C10.8354 7.52643 11.0349 7.63405 11.247 7.71V7.96875C11.247 8.09307 11.2964 8.2123 11.3843 8.30021C11.4723 8.38811 11.5915 8.4375 11.7158 8.4375C11.8401 8.4375 11.9593 8.38811 12.0473 8.30021C12.1352 8.2123 12.1846 8.09307 12.1846 7.96875V7.75828C12.3946 7.69068 12.5809 7.56428 12.7213 7.39406C12.8564 7.24618 12.9531 7.06733 13.0028 6.87326C13.0525 6.6792 13.0537 6.47588 13.0063 6.28125C12.9181 6.02312 12.7702 5.78943 12.5748 5.59917C12.3793 5.40891 12.1417 5.26744 11.8813 5.18625C11.7625 5.15452 11.6519 5.0975 11.5572 5.01911C11.4625 4.94072 11.3858 4.84279 11.3324 4.73203C11.3235 4.69875 11.3005 4.61016 11.4261 4.46016C11.6516 4.19156 12.1972 4.59422 12.2005 4.5975C12.2986 4.67383 12.4231 4.70805 12.5465 4.69262C12.6698 4.67719 12.782 4.61339 12.8584 4.51523C12.9347 4.41708 12.9689 4.29263 12.9535 4.16925C12.9381 4.04587 12.8743 3.93368 12.7761 3.85734C12.5964 3.72047 12.3969 3.61173 12.1846 3.53484V3.28125C12.1846 3.15693 12.1352 3.0377 12.0473 2.94979C11.9593 2.86189 11.8401 2.8125 11.7158 2.8125C11.5915 2.8125 11.4723 2.86189 11.3843 2.94979C11.2964 3.0377 11.247 3.15693 11.247 3.28125V3.48469C11.0364 3.55482 10.8502 3.68361 10.7103 3.85594C10.5752 4.00382 10.4785 4.18267 10.4288 4.37674C10.3791 4.5708 10.3779 4.77412 10.4253 4.96875C10.5135 5.22688 10.6614 5.46057 10.8568 5.65083C11.0523 5.84109 11.2899 5.98256 11.5503 6.06375Z" fill="#4B5A69"/>
<path d="M11.7188 10.3125C12.6458 10.3125 13.5521 10.0376 14.323 9.52252C15.0938 9.00745 15.6946 8.27536 16.0494 7.41883C16.4042 6.5623 16.497 5.6198 16.3162 4.71052C16.1353 3.80123 15.6889 2.966 15.0333 2.31044C14.3778 1.65488 13.5425 1.20844 12.6332 1.02757C11.7239 0.846703 10.7815 0.939531 9.92492 1.29432C9.06839 1.6491 8.33631 2.24991 7.82124 3.02077C7.30617 3.79162 7.03125 4.6979 7.03125 5.625C7.03261 6.86779 7.52691 8.05928 8.40569 8.93806C9.28448 9.81684 10.476 10.3111 11.7188 10.3125ZM11.7188 1.875C12.4604 1.875 13.1855 2.09494 13.8021 2.50699C14.4188 2.91905 14.8995 3.50472 15.1833 4.18994C15.4671 4.87516 15.5414 5.62916 15.3967 6.35659C15.252 7.08402 14.8948 7.75221 14.3704 8.27665C13.846 8.8011 13.1778 9.15825 12.4503 9.30295C11.7229 9.44764 10.9689 9.37338 10.2837 9.08955C9.59846 8.80572 9.01279 8.32507 8.60074 7.70839C8.18868 7.09171 7.96875 6.36668 7.96875 5.625C7.96987 4.63078 8.36531 3.6776 9.06833 2.97458C9.77135 2.27157 10.7245 1.87612 11.7188 1.875Z" fill="#4B5A69"/>
</g>
<defs>
<clipPath id="clip0_215_1199">
<rect width="30" height="30" fill="white"/>
</clipPath>
</defs>
</svg>
