<svg width="30" height="26" viewBox="0 0 30 26" fill="none" xmlns="http://www.w3.org/2000/svg">
<g clip-path="url(#clip0_215_1190)">
<path d="M4.34587 12.5948C4.50567 12.7837 4.68001 12.9871 4.85434 13.1614L5.63885 13.9459L16.0553 24.3624L26.4718 13.9459L27.2563 13.1614C30.1037 10.314 30.1037 5.69412 27.2563 2.84666L27.1546 2.74497C24.3071 -0.102489 19.6873 -0.102489 16.8398 2.74497L16.0553 3.52947L15.2708 2.74497C12.4233 -0.102489 7.8035 -0.102489 4.95604 2.74497L4.85434 2.84666C3.43061 4.27039 2.71875 6.12996 2.71875 8.00405" fill="#177DF0" fill-opacity="0.25"/>
<path d="M4.34587 12.5948C4.50567 12.7837 4.68001 12.9871 4.85434 13.1614L5.63885 13.9459L16.0553 24.3624L26.4718 13.9459L27.2563 13.1614C30.1037 10.314 30.1037 5.69412 27.2563 2.84666L27.1546 2.74497C24.3071 -0.102489 19.6873 -0.102489 16.8398 2.74497L16.0553 3.52947L15.2708 2.74497C12.4233 -0.102489 7.8035 -0.102489 4.95604 2.74497L4.85434 2.84666C3.43061 4.27039 2.71875 6.12996 2.71875 8.00405" stroke="#177DF0" stroke-width="1.5"/>
<path d="M6.20182 11.8067C4.10981 9.71472 4.10981 6.30068 6.20182 4.20867L6.30351 4.10697C7.32046 3.09002 8.67155 2.52344 10.1098 2.52344C11.5481 2.52344 12.8992 3.0755 13.9161 4.09245L16.0517 6.22804L18.1873 4.09245C19.2042 3.0755 20.5553 2.52344 21.9936 2.52344C23.4318 2.52344 24.7829 3.0755 25.7999 4.09245L25.9016 4.19414C26.9185 5.21109 27.4851 6.56218 27.4851 8.00043C27.4851 9.43869 26.9185 10.7898 25.9161 11.8067L16.0662 21.6566L6.20182 11.8067Z" fill="#177DF0" fill-opacity="0.25"/>
<path d="M21.0944 9.92006H16.155H13.2349L11.6659 12.8111L9.63196 6.17188L7.84504 10.2542H0" fill="#177DF0" fill-opacity="0.25"/>
<path d="M21.0944 9.92006H16.155H13.2349L11.6659 12.8111L9.63196 6.17188L7.84504 10.2542H0" stroke="#177DF0" stroke-width="1.5"/>
</g>
<defs>
<clipPath id="clip0_215_1190">
<rect width="30" height="25.2203" fill="white"/>
</clipPath>
</defs>
</svg>
