<svg width="30" height="30" viewBox="0 0 30 30" fill="none" xmlns="http://www.w3.org/2000/svg">
    <circle opacity="0.4" cx="15" cy="15" r="15" fill="#3200FF"/>
    <path d="M17.3934 9H12.8152C10.7084 9 9 10.7 9 12.7963V17.3519C9 19.4482 10.7084 21.1482 12.8152 21.1482H17.3934C19.5001 21.1482 21.2086 19.4482 21.2086 17.3519V12.7963C21.2086 10.7 19.5001 9 17.3934 9ZM20.064 17.3519C20.064 18.8172 18.8661 20.0093 17.3934 20.0093H12.8152C11.3425 20.0093 10.1446 18.8172 10.1446 17.3519V12.7963C10.1446 11.3309 11.3425 10.1389 12.8152 10.1389H17.3934C18.8661 10.1389 20.064 11.3309 20.064 12.7963V17.3519Z" fill="white"/>
    <path d="M15.1068 12.0469C13.4213 12.0469 12.0547 13.4067 12.0547 15.0839C12.0547 16.7611 13.4213 18.121 15.1068 18.121C16.7924 18.121 18.159 16.7611 18.159 15.0839C18.159 13.4067 16.7924 12.0469 15.1068 12.0469ZM15.1068 16.9821C14.0554 16.9821 13.1992 16.1302 13.1992 15.0839C13.1992 14.0369 14.0554 13.1858 15.1068 13.1858C16.1583 13.1858 17.0144 14.0369 17.0144 15.0839C17.0144 16.1302 16.1583 16.9821 15.1068 16.9821Z" fill="white"/>
    <path d="M18.3765 12.2255C18.6017 12.2255 18.7842 12.0438 18.7842 11.8198C18.7842 11.5957 18.6017 11.4141 18.3765 11.4141C18.1513 11.4141 17.9688 11.5957 17.9688 11.8198C17.9688 12.0438 18.1513 12.2255 18.3765 12.2255Z" fill="white"/>
</svg>
