<svg width="30" height="30" viewBox="0 0 30 30" fill="none" xmlns="http://www.w3.org/2000/svg">
    <circle opacity="0.4" cx="15" cy="15" r="15" fill="#3200FF"/>
    <path d="M20.3172 20.2604V20.2599H20.32V16.1266C20.32 14.1045 19.8826 12.5469 17.5069 12.5469C16.3648 12.5469 15.5984 13.1705 15.2855 13.7617H15.2525V12.7357H13V20.2599H15.3455V16.5342C15.3455 15.5532 15.5323 14.6046 16.7532 14.6046C17.9562 14.6046 17.9741 15.7241 17.9741 16.5971V20.2604H20.3172Z" fill="white"/>
    <path d="M9.17969 12.75H11.528V20.2742H9.17969V12.75Z" fill="white"/>
    <path d="M10.3601 9C9.60925 9 9 9.60624 9 10.3534C9 11.1005 9.60925 11.7194 10.3601 11.7194C11.1109 11.7194 11.7202 11.1005 11.7202 10.3534C11.7197 9.60624 11.1104 9 10.3601 9V9Z" fill="white"/>
</svg>
