<svg width="30" height="30" viewBox="0 0 30 30" fill="none" xmlns="http://www.w3.org/2000/svg">
<g clip-path="url(#clip0_215_1240)">
<path fill-rule="evenodd" clip-rule="evenodd" d="M6.50165 21.3025C7.71583 21.3025 8.33422 22.7736 7.46786 23.6354C6.60606 24.4923 5.13161 23.8791 5.13161 22.6682C5.13161 21.9155 5.74661 21.3025 6.50165 21.3025ZM6.50094 19.2072C9.577 19.2072 11.1438 22.9342 8.94887 25.1174C6.76544 27.289 3.02985 25.7352 3.02985 22.6676C3.02973 20.7604 4.58786 19.2072 6.50094 19.2072ZM23.0796 21.3025C24.2936 21.3025 24.9123 22.7736 24.0458 23.6354C23.184 24.4923 21.7095 23.8791 21.7095 22.6682C21.7097 21.9155 22.3245 21.3025 23.0796 21.3025ZM23.0789 19.2072C26.1549 19.2072 27.7216 22.9342 25.5268 25.1174C23.3434 27.289 19.6077 25.7352 19.6077 22.6676C19.6077 20.7604 21.1658 19.2072 23.0789 19.2072ZM27.8572 20.5359C29.9339 20.5359 29.7222 20.4188 29.7222 22.7246C29.7222 23.6985 28.0956 23.4367 27.9948 23.3271C27.7714 23.084 28.1826 22.3994 27.5987 20.9138C27.527 20.7313 27.6607 20.5359 27.8572 20.5359ZM11.2793 20.5359H18.2899C18.972 20.5359 18.0897 21.4584 18.2381 23.1155L17.9616 23.4168H11.6215C11.0391 23.4168 11.6782 22.5861 11.0207 20.9139C10.949 20.7316 11.0827 20.5359 11.2793 20.5359ZM0.55438 20.5359C3.11352 20.5359 1.42813 20.4823 1.6604 23.1157C1.69743 23.5362 1.07422 23.4168 0.55438 23.4168C-0.363667 23.4168 -0.140073 22.2122 -0.140073 21.2282C-0.140073 20.8459 0.170826 20.5359 0.55438 20.5359ZM18.6696 18.4589V8.02035C18.6696 7.63809 18.9805 7.32812 19.3639 7.32812H27.057C27.9713 7.32812 27.9713 8.7127 27.057 8.7127H25.6606L26.4575 13.4125C26.7038 14.8653 29.8345 13.5564 29.834 14.9932L29.8359 18.4588C29.8359 18.8413 29.5249 19.1512 29.1416 19.1512H26.7409C25.9687 19.1512 25.486 17.8224 23.0786 17.8224C20.6592 17.8224 20.2719 19.1512 19.3639 19.1512C18.9806 19.1513 18.6696 18.8414 18.6696 18.4589ZM25.05 13.3519L24.2536 8.71281H20.0584V12.997C20.0584 13.2109 20.2191 13.3882 20.4325 13.4102L24.5966 13.8353C24.8721 13.8634 25.0967 13.6238 25.05 13.3519Z" fill="#4B5A69"/>
<path fill-rule="evenodd" clip-rule="evenodd" d="M1.30371 3.86719H16.5826C16.9661 3.86719 17.277 4.17715 17.277 4.55953V18.4616C17.277 18.8441 16.9662 19.1539 16.5826 19.1539H10.1621C9.38988 19.1539 8.9073 17.8252 6.49992 17.8252C4.13684 17.8252 3.60445 19.1539 2.84297 19.1539C1.83223 19.1539 0.609375 19.3807 0.609375 18.4616V4.55953C0.609258 4.17715 0.920273 3.86719 1.30371 3.86719Z" fill="#3B4552" fill-opacity="0.25"/>
</g>
<defs>
<clipPath id="clip0_215_1240">
<rect width="30" height="30" fill="white"/>
</clipPath>
</defs>
</svg>
