<svg width="40" height="40" viewBox="0 0 40 40" fill="none" xmlns="http://www.w3.org/2000/svg">
<path fill-rule="evenodd" clip-rule="evenodd" d="M24.85 14.1279H15.2105C14.9519 14.1279 14.7422 13.9183 14.7422 13.6597V8.44485C14.7422 8.18624 14.9519 7.97656 15.2105 7.97656H24.8499C25.1085 7.97656 25.3182 8.18624 25.3182 8.44485V13.6597C25.3183 13.9183 25.1086 14.1279 24.85 14.1279ZM15.6788 13.1914H24.3816V8.91315H15.6788V13.1914Z" fill="white"/>
<path fill-rule="evenodd" clip-rule="evenodd" d="M14.5927 21.9673H9.77298C9.51436 21.9673 9.30469 21.7576 9.30469 21.499V16.6792C9.30469 16.4206 9.51436 16.2109 9.77298 16.2109H14.5927C14.8514 16.2109 15.061 16.4206 15.061 16.6792V21.499C15.061 21.7576 14.8514 21.9673 14.5927 21.9673ZM10.2413 21.0307H14.1244V17.1475H10.2413V21.0307Z" fill="white"/>
<path fill-rule="evenodd" clip-rule="evenodd" d="M30.2724 21.9673H25.4527C25.194 21.9673 24.9844 21.7576 24.9844 21.499V16.6792C24.9844 16.4206 25.194 16.2109 25.4527 16.2109H30.2724C30.531 16.2109 30.7407 16.4206 30.7407 16.6792V21.499C30.7407 21.7576 30.531 21.9673 30.2724 21.9673ZM25.921 21.0307H29.8041V17.1475H25.921V21.0307Z" fill="white"/>
<path fill-rule="evenodd" clip-rule="evenodd" d="M7.91719 32.1548C6.33012 32.1548 5.03906 30.8636 5.03906 29.2766C5.03906 27.6896 6.3302 26.3984 7.91719 26.3984C9.50418 26.3984 10.7953 27.6896 10.7953 29.2766C10.7953 30.8636 9.50418 32.1548 7.91719 32.1548ZM7.91719 27.335C6.84662 27.335 5.97565 28.206 5.97565 29.2766C5.97565 30.3471 6.84662 31.2182 7.91719 31.2182C8.98776 31.2182 9.85874 30.3472 9.85874 29.2766C9.85874 28.206 8.98776 27.335 7.91719 27.335Z" fill="white"/>
<path fill-rule="evenodd" clip-rule="evenodd" d="M24.0578 32.1548C22.4707 32.1548 21.1797 30.8636 21.1797 29.2766C21.1797 27.6896 22.4708 26.3984 24.0578 26.3984C25.6448 26.3984 26.9359 27.6896 26.9359 29.2766C26.936 30.8636 25.6448 32.1548 24.0578 32.1548ZM24.0578 27.335C22.9872 27.335 22.1163 28.206 22.1163 29.2766C22.1163 30.3471 22.9872 31.2182 24.0578 31.2182C25.1284 31.2182 25.9994 30.3472 25.9994 29.2766C25.9994 28.206 25.1285 27.335 24.0578 27.335Z" fill="white"/>
<path fill-rule="evenodd" clip-rule="evenodd" d="M15.9875 32.1548C14.4005 32.1548 13.1094 30.8636 13.1094 29.2766C13.1094 27.6896 14.4005 26.3984 15.9875 26.3984C17.5746 26.3984 18.8656 27.6896 18.8656 29.2766C18.8656 30.8636 17.5745 32.1548 15.9875 32.1548ZM15.9875 27.335C14.9169 27.335 14.046 28.206 14.046 29.2766C14.046 30.3471 14.9169 31.2182 15.9875 31.2182C17.0581 31.2182 17.929 30.3472 17.929 29.2766C17.929 28.206 17.0581 27.335 15.9875 27.335Z" fill="white"/>
<path fill-rule="evenodd" clip-rule="evenodd" d="M32.1281 32.1548C30.5411 32.1548 29.25 30.8636 29.25 29.2766C29.25 27.6896 30.5411 26.3984 32.1281 26.3984C33.7151 26.3984 35.0063 27.6896 35.0063 29.2766C35.0063 30.8636 33.7152 32.1548 32.1281 32.1548ZM32.1281 27.335C31.0576 27.335 30.1866 28.206 30.1866 29.2766C30.1866 30.3471 31.0576 31.2182 32.1281 31.2182C33.1987 31.2182 34.0697 30.3472 34.0697 29.2766C34.0697 28.206 33.1988 27.335 32.1281 27.335Z" fill="white"/>
<path fill-rule="evenodd" clip-rule="evenodd" d="M25.3859 19.5538H14.6792C14.4206 19.5538 14.2109 19.3441 14.2109 19.0855C14.2109 18.8269 14.4206 18.6172 14.6792 18.6172H25.3859C25.6445 18.6172 25.8542 18.8269 25.8542 19.0855C25.8542 19.3441 25.6446 19.5538 25.3859 19.5538Z" fill="white"/>
<path fill-rule="evenodd" clip-rule="evenodd" d="M20.023 19.5204C19.7644 19.5204 19.5547 19.3127 19.5547 19.0565V13.6826C19.5547 13.4264 19.7644 13.2188 20.023 13.2188C20.2816 13.2188 20.4913 13.4264 20.4913 13.6826V19.0565C20.4913 19.3127 20.2816 19.5204 20.023 19.5204Z" fill="white"/>
<path fill-rule="evenodd" clip-rule="evenodd" d="M15.9965 27.295C15.7378 27.295 15.5282 27.0854 15.5282 26.8268V24.8728H12.1792C11.9206 24.8728 11.7109 24.6632 11.7109 24.4046V21.5542C11.7109 21.2956 11.9206 21.0859 12.1792 21.0859C12.4378 21.0859 12.6475 21.2956 12.6475 21.5542V23.9363H15.9965C16.2551 23.9363 16.4648 24.1459 16.4648 24.4046V26.8268C16.4648 27.0853 16.2551 27.295 15.9965 27.295Z" fill="white"/>
<path fill-rule="evenodd" clip-rule="evenodd" d="M7.92142 27.2811C7.6628 27.2811 7.45312 27.0714 7.45312 26.8128V24.4058C7.45312 24.1472 7.6628 23.9375 7.92142 23.9375H12.1821C12.4407 23.9375 12.6504 24.1472 12.6504 24.4058C12.6504 24.6644 12.4407 24.8741 12.1821 24.8741H8.38971V26.8128C8.38971 27.0714 8.18004 27.2811 7.92142 27.2811Z" fill="white"/>
<path fill-rule="evenodd" clip-rule="evenodd" d="M24.0542 27.2715C23.7956 27.2715 23.5859 27.0618 23.5859 26.8032V24.3243C23.5859 24.0657 23.7956 23.856 24.0542 23.856H27.3839V21.523C27.3839 21.2644 27.5936 21.0547 27.8522 21.0547C28.1108 21.0547 28.3205 21.2644 28.3205 21.523V24.3242C28.3205 24.5828 28.1108 24.7925 27.8522 24.7925H24.5225V26.8031C24.5225 27.0618 24.3128 27.2715 24.0542 27.2715Z" fill="white"/>
<path fill-rule="evenodd" clip-rule="evenodd" d="M32.131 27.2927C31.8724 27.2927 31.6627 27.083 31.6627 26.8244V24.796H27.8511C27.5925 24.796 27.3828 24.5863 27.3828 24.3277C27.3828 24.0691 27.5925 23.8594 27.8511 23.8594H32.131C32.3896 23.8594 32.5993 24.0691 32.5993 24.3277V26.8244C32.5993 27.083 32.3896 27.2927 32.131 27.2927Z" fill="white"/>
</svg>
