<svg width="716" height="139" viewBox="0 0 716 139" fill="none" xmlns="http://www.w3.org/2000/svg">
<path d="M51.2273 138.202C41 138.202 32.0748 135.858 24.4517 131.17C16.8286 126.483 10.91 119.925 6.69602 111.497C2.48201 103.069 0.375 93.2206 0.375 81.9517C0.375 70.6354 2.48201 60.7396 6.69602 52.2642C10.91 43.7888 16.8286 37.2074 24.4517 32.5199C32.0748 27.8324 41 25.4886 51.2273 25.4886C61.4545 25.4886 70.3797 27.8324 78.0028 32.5199C85.6259 37.2074 91.5445 43.7888 95.7585 52.2642C99.9725 60.7396 102.08 70.6354 102.08 81.9517C102.08 93.2206 99.9725 103.069 95.7585 111.497C91.5445 119.925 85.6259 126.483 78.0028 131.17C70.3797 135.858 61.4545 138.202 51.2273 138.202ZM51.2983 120.375C57.9271 120.375 63.4195 118.623 67.7756 115.119C72.1316 111.616 75.3513 106.952 77.4347 101.128C79.5653 95.304 80.6307 88.8883 80.6307 81.8807C80.6307 74.9205 79.5653 68.5284 77.4347 62.7045C75.3513 56.8333 72.1316 52.1222 67.7756 48.571C63.4195 45.0199 57.9271 43.2443 51.2983 43.2443C44.6222 43.2443 39.0824 45.0199 34.679 48.571C30.3229 52.1222 27.0795 56.8333 24.9489 62.7045C22.8655 68.5284 21.8239 74.9205 21.8239 81.8807C21.8239 88.8883 22.8655 95.304 24.9489 101.128C27.0795 106.952 30.3229 111.616 34.679 115.119C39.0824 118.623 44.6222 120.375 51.2983 120.375ZM178.888 90.7585V26.9091H200.195V136H179.315V117.108H178.178C175.669 122.932 171.644 127.785 166.104 131.668C160.612 135.503 153.77 137.42 145.579 137.42C138.571 137.42 132.369 135.882 126.971 132.804C121.621 129.679 117.406 125.062 114.329 118.955C111.299 112.847 109.783 105.295 109.783 96.2983V26.9091H131.019V93.7415C131.019 101.175 133.079 107.094 137.198 111.497C141.317 115.901 146.668 118.102 153.249 118.102C157.227 118.102 161.18 117.108 165.11 115.119C169.087 113.131 172.378 110.124 174.982 106.099C177.634 102.075 178.936 96.9612 178.888 90.7585ZM212.729 136V26.9091H233.254V44.2386H234.391C236.379 38.3674 239.883 33.7509 244.902 30.3892C249.968 26.9801 255.697 25.2756 262.089 25.2756C263.415 25.2756 264.978 25.3229 266.777 25.4176C268.624 25.5123 270.068 25.6307 271.109 25.7727V46.0852C270.257 45.8485 268.742 45.5881 266.564 45.304C264.386 44.9725 262.208 44.8068 260.03 44.8068C255.011 44.8068 250.536 45.8722 246.607 48.0028C242.724 50.0862 239.646 52.9981 237.374 56.7386C235.101 60.4318 233.964 64.6458 233.964 69.3807V136H212.729ZM361.339 26.9091V43.9545H301.751V26.9091H361.339ZM317.732 0.772725H338.967V103.969C338.967 108.088 339.583 111.189 340.814 113.273C342.045 115.309 343.631 116.705 345.572 117.463C347.561 118.173 349.715 118.528 352.036 118.528C353.74 118.528 355.232 118.41 356.51 118.173C357.788 117.937 358.783 117.747 359.493 117.605L363.328 135.148C362.097 135.621 360.345 136.095 358.072 136.568C355.8 137.089 352.959 137.373 349.55 137.42C343.963 137.515 338.754 136.521 333.925 134.438C329.095 132.354 325.189 129.134 322.206 124.778C319.223 120.422 317.732 114.954 317.732 108.372V0.772725ZM414.675 138.202C403.927 138.202 394.671 135.905 386.906 131.312C379.188 126.672 373.222 120.162 369.008 111.781C364.841 103.353 362.758 93.4811 362.758 82.1648C362.758 70.9905 364.841 61.142 369.008 52.6193C373.222 44.0966 379.093 37.4441 386.621 32.6619C394.197 27.8797 403.051 25.4886 413.184 25.4886C419.339 25.4886 425.305 26.5066 431.082 28.5426C436.858 30.5786 442.043 33.7746 446.636 38.1307C451.228 42.4867 454.851 48.1449 457.502 55.1051C460.154 62.018 461.479 70.4223 461.479 80.3182V87.8466H374.761V71.9375H440.67C440.67 66.3504 439.533 61.4025 437.261 57.0938C434.988 52.7377 431.792 49.3049 427.673 46.7955C423.601 44.286 418.818 43.0312 413.326 43.0312C407.36 43.0312 402.152 44.4991 397.701 47.4347C393.298 50.3229 389.888 54.1108 387.474 58.7983C385.106 63.4384 383.923 68.4811 383.923 73.9261V86.3551C383.923 93.6468 385.201 99.8494 387.758 104.963C390.362 110.077 393.984 113.983 398.624 116.682C403.264 119.333 408.686 120.659 414.888 120.659C418.913 120.659 422.583 120.091 425.897 118.955C429.211 117.771 432.076 116.019 434.491 113.699C436.906 111.379 438.752 108.514 440.031 105.105L460.13 108.727C458.52 114.646 455.632 119.83 451.465 124.281C447.346 128.685 442.161 132.117 435.911 134.58C429.709 136.994 422.63 138.202 414.675 138.202ZM500.788 138.415C493.875 138.415 487.625 137.136 482.038 134.58C476.451 131.975 472.024 128.211 468.757 123.287C465.537 118.363 463.928 112.326 463.928 105.176C463.928 99.0208 465.111 93.9545 467.479 89.9773C469.846 86 473.042 82.8513 477.067 80.5312C481.091 78.2112 485.589 76.4593 490.561 75.2756C495.533 74.0919 500.599 73.1922 505.76 72.5767C512.294 71.8191 517.597 71.2036 521.669 70.7301C525.741 70.2093 528.7 69.3807 530.547 68.2443C532.393 67.108 533.317 65.2614 533.317 62.7045V62.2074C533.317 56.0047 531.565 51.1989 528.061 47.7898C524.605 44.3807 519.444 42.6761 512.578 42.6761C505.429 42.6761 499.794 44.2623 495.675 47.4347C491.603 50.5597 488.786 54.0398 487.223 57.875L467.266 53.3295C469.633 46.7008 473.089 41.3504 477.635 37.2784C482.228 33.1591 487.507 30.1761 493.473 28.3295C499.439 26.4356 505.713 25.4886 512.294 25.4886C516.65 25.4886 521.267 26.0095 526.143 27.0511C531.068 28.0455 535.661 29.892 539.922 32.5909C544.231 35.2898 547.758 39.1487 550.504 44.1676C553.25 49.1392 554.624 55.6023 554.624 63.5568V136H533.885V121.085H533.033C531.66 123.831 529.6 126.53 526.854 129.182C524.107 131.833 520.58 134.035 516.271 135.787C511.963 137.539 506.802 138.415 500.788 138.415ZM505.405 121.369C511.276 121.369 516.295 120.209 520.462 117.889C524.676 115.569 527.872 112.539 530.05 108.798C532.275 105.01 533.388 100.962 533.388 96.6534V82.5909C532.63 83.3485 531.162 84.0587 528.984 84.7216C526.854 85.3371 524.415 85.8816 521.669 86.3551C518.923 86.7812 516.248 87.1837 513.643 87.5625C511.039 87.8939 508.861 88.178 507.109 88.4148C502.99 88.9356 499.226 89.8116 495.817 91.0426C492.455 92.2737 489.756 94.0492 487.72 96.3693C485.732 98.642 484.737 101.672 484.737 105.46C484.737 110.716 486.679 114.693 490.561 117.392C494.444 120.044 499.392 121.369 505.405 121.369ZM566.908 136V26.9091H587.292V44.6648H588.641C590.914 38.6515 594.631 33.964 599.792 30.6023C604.953 27.1932 611.132 25.4886 618.329 25.4886C625.621 25.4886 631.728 27.1932 636.653 30.6023C641.624 34.0114 645.294 38.6989 647.661 44.6648H648.798C651.402 38.8409 655.545 34.2008 661.227 30.7443C666.908 27.2405 673.679 25.4886 681.539 25.4886C691.435 25.4886 699.508 28.59 705.758 34.7926C712.055 40.9953 715.204 50.3466 715.204 62.8466V136H693.968V64.8352C693.968 57.4489 691.956 52.0985 687.931 48.7841C683.906 45.4697 679.101 43.8125 673.513 43.8125C666.601 43.8125 661.227 45.9432 657.391 50.2045C653.556 54.4186 651.638 59.84 651.638 66.4688V136H630.474V63.4858C630.474 57.5672 628.627 52.8087 624.934 49.2102C621.241 45.6117 616.435 43.8125 610.516 43.8125C606.492 43.8125 602.775 44.8778 599.366 47.0085C596.004 49.0919 593.281 52.0038 591.198 55.7443C589.162 59.4848 588.144 63.8172 588.144 68.7415V136H566.908Z" fill="#E4F0FF"/>
</svg>
