<svg width="524" height="282" viewBox="0 0 524 282" fill="none" xmlns="http://www.w3.org/2000/svg">
<path d="M55.2273 113.202C45 113.202 36.0748 110.858 28.4517 106.17C20.8286 101.483 14.91 94.9252 10.696 86.4972C6.48201 78.0691 4.375 68.2206 4.375 56.9517C4.375 45.6354 6.48201 35.7396 10.696 27.2642C14.91 18.7888 20.8286 12.2074 28.4517 7.51989C36.0748 2.83239 45 0.488637 55.2273 0.488637C65.4545 0.488637 74.3797 2.83239 82.0028 7.51989C89.6259 12.2074 95.5445 18.7888 99.7585 27.2642C103.973 35.7396 106.08 45.6354 106.08 56.9517C106.08 68.2206 103.973 78.0691 99.7585 86.4972C95.5445 94.9252 89.6259 101.483 82.0028 106.17C74.3797 110.858 65.4545 113.202 55.2273 113.202ZM55.2983 95.375C61.9271 95.375 67.4195 93.6231 71.7756 90.1193C76.1316 86.6155 79.3513 81.9517 81.4347 76.1278C83.5653 70.304 84.6307 63.8883 84.6307 56.8807C84.6307 49.9205 83.5653 43.5284 81.4347 37.7045C79.3513 31.8333 76.1316 27.1222 71.7756 23.571C67.4195 20.0199 61.9271 18.2443 55.2983 18.2443C48.6222 18.2443 43.0824 20.0199 38.679 23.571C34.3229 27.1222 31.0795 31.8333 28.9489 37.7045C26.8655 43.5284 25.8239 49.9205 25.8239 56.8807C25.8239 63.8883 26.8655 70.304 28.9489 76.1278C31.0795 81.9517 34.3229 86.6155 38.679 90.1193C43.0824 93.6231 48.6222 95.375 55.2983 95.375ZM182.888 65.7585V1.90909H204.195V111H183.315V92.108H182.178C179.669 97.9318 175.644 102.785 170.104 106.668C164.612 110.503 157.77 112.42 149.579 112.42C142.571 112.42 136.369 110.882 130.971 107.804C125.621 104.679 121.406 100.062 118.329 93.9545C115.299 87.8466 113.783 80.2945 113.783 71.2983V1.90909H135.019V68.7415C135.019 76.1752 137.079 82.0937 141.198 86.4972C145.317 90.9006 150.668 93.1023 157.249 93.1023C161.227 93.1023 165.18 92.108 169.11 90.1193C173.087 88.1307 176.378 85.1241 178.982 81.0994C181.634 77.0748 182.936 71.9612 182.888 65.7585ZM216.729 111V1.90909H237.254V19.2386H238.391C240.379 13.3674 243.883 8.75094 248.902 5.3892C253.968 1.98011 259.697 0.275563 266.089 0.275563C267.415 0.275563 268.978 0.322913 270.777 0.417613C272.624 0.512304 274.068 0.630675 275.109 0.772725V21.0852C274.257 20.8485 272.742 20.5881 270.564 20.304C268.386 19.9725 266.208 19.8068 264.03 19.8068C259.011 19.8068 254.536 20.8722 250.607 23.0028C246.724 25.0862 243.646 27.9981 241.374 31.7386C239.101 35.4318 237.964 39.6458 237.964 44.3807V111H216.729ZM102.599 169.909L63.0398 279H40.3125L0.681818 169.909H23.4801L51.108 253.858H52.2443L79.8011 169.909H102.599ZM135.179 281.415C128.266 281.415 122.016 280.136 116.429 277.58C110.842 274.975 106.415 271.211 103.148 266.287C99.928 261.363 98.3182 255.326 98.3182 248.176C98.3182 242.021 99.5019 236.955 101.869 232.977C104.237 229 107.433 225.851 111.457 223.531C115.482 221.211 119.98 219.459 124.952 218.276C129.923 217.092 134.99 216.192 140.151 215.577C146.685 214.819 151.988 214.204 156.06 213.73C160.132 213.209 163.091 212.381 164.938 211.244C166.784 210.108 167.707 208.261 167.707 205.705V205.207C167.707 199.005 165.955 194.199 162.452 190.79C158.995 187.381 153.834 185.676 146.969 185.676C139.819 185.676 134.185 187.262 130.065 190.435C125.993 193.56 123.176 197.04 121.614 200.875L101.656 196.33C104.024 189.701 107.48 184.35 112.026 180.278C116.618 176.159 121.898 173.176 127.864 171.33C133.83 169.436 140.103 168.489 146.685 168.489C151.041 168.489 155.657 169.009 160.534 170.051C165.458 171.045 170.051 172.892 174.312 175.591C178.621 178.29 182.149 182.149 184.895 187.168C187.641 192.139 189.014 198.602 189.014 206.557V279H168.276V264.085H167.423C166.05 266.831 163.991 269.53 161.244 272.182C158.498 274.833 154.971 277.035 150.662 278.787C146.353 280.539 141.192 281.415 135.179 281.415ZM139.795 264.369C145.667 264.369 150.686 263.209 154.852 260.889C159.066 258.569 162.262 255.539 164.44 251.798C166.666 248.01 167.778 243.962 167.778 239.653V225.591C167.021 226.348 165.553 227.059 163.375 227.722C161.244 228.337 158.806 228.882 156.06 229.355C153.313 229.781 150.638 230.184 148.034 230.562C145.43 230.894 143.252 231.178 141.5 231.415C137.381 231.936 133.616 232.812 130.207 234.043C126.846 235.274 124.147 237.049 122.111 239.369C120.122 241.642 119.128 244.672 119.128 248.46C119.128 253.716 121.069 257.693 124.952 260.392C128.834 263.044 133.782 264.369 139.795 264.369ZM222.535 133.545V279H201.299V133.545H222.535ZM304.209 233.759V169.909H325.516V279H304.635V260.108H303.499C300.989 265.932 296.964 270.785 291.425 274.668C285.932 278.503 279.09 280.42 270.899 280.42C263.892 280.42 257.689 278.882 252.291 275.804C246.941 272.679 242.727 268.062 239.649 261.955C236.619 255.847 235.104 248.295 235.104 239.298V169.909H256.339V236.741C256.339 244.175 258.399 250.094 262.518 254.497C266.638 258.901 271.988 261.102 278.57 261.102C282.547 261.102 286.5 260.108 290.43 258.119C294.408 256.131 297.698 253.124 300.303 249.099C302.954 245.075 304.256 239.961 304.209 233.759ZM385.066 281.202C374.318 281.202 365.061 278.905 357.296 274.312C349.578 269.672 343.612 263.162 339.398 254.781C335.232 246.353 333.148 236.481 333.148 225.165C333.148 213.991 335.232 204.142 339.398 195.619C343.612 187.097 349.484 180.444 357.012 175.662C364.588 170.88 373.442 168.489 383.575 168.489C389.73 168.489 395.696 169.507 401.472 171.543C407.249 173.579 412.433 176.775 417.026 181.131C421.619 185.487 425.241 191.145 427.893 198.105C430.544 205.018 431.87 213.422 431.87 223.318V230.847H345.151V214.938H411.06C411.06 209.35 409.924 204.402 407.651 200.094C405.379 195.738 402.183 192.305 398.063 189.795C393.991 187.286 389.209 186.031 383.717 186.031C377.751 186.031 372.542 187.499 368.092 190.435C363.688 193.323 360.279 197.111 357.864 201.798C355.497 206.438 354.313 211.481 354.313 216.926V229.355C354.313 236.647 355.592 242.849 358.148 247.963C360.753 253.077 364.375 256.983 369.015 259.682C373.655 262.333 379.076 263.659 385.279 263.659C389.304 263.659 392.973 263.091 396.288 261.955C399.602 260.771 402.467 259.019 404.881 256.699C407.296 254.379 409.143 251.514 410.421 248.105L430.521 251.727C428.911 257.646 426.022 262.83 421.856 267.281C417.737 271.685 412.552 275.117 406.302 277.58C400.099 279.994 393.021 281.202 385.066 281.202ZM521.179 196.543L501.932 199.952C501.127 197.49 499.848 195.146 498.097 192.92C496.392 190.695 494.072 188.872 491.136 187.452C488.201 186.031 484.531 185.321 480.128 185.321C474.115 185.321 469.096 186.67 465.071 189.369C461.046 192.021 459.034 195.454 459.034 199.668C459.034 203.313 460.384 206.249 463.082 208.474C465.781 210.7 470.137 212.523 476.151 213.943L493.48 217.92C503.518 220.241 510.999 223.815 515.923 228.645C520.848 233.474 523.31 239.748 523.31 247.466C523.31 254 521.416 259.824 517.628 264.938C513.887 270.004 508.655 273.981 501.932 276.869C495.256 279.758 487.514 281.202 478.707 281.202C466.491 281.202 456.525 278.598 448.807 273.389C441.089 268.134 436.354 260.676 434.602 251.017L455.128 247.892C456.406 253.242 459.034 257.291 463.011 260.037C466.989 262.736 472.173 264.085 478.565 264.085C485.526 264.085 491.089 262.641 495.256 259.753C499.422 256.817 501.506 253.242 501.506 249.028C501.506 245.619 500.227 242.755 497.67 240.435C495.161 238.115 491.302 236.363 486.094 235.179L467.628 231.131C457.448 228.811 449.92 225.117 445.043 220.051C440.213 214.985 437.798 208.569 437.798 200.804C437.798 194.365 439.598 188.73 443.196 183.901C446.795 179.071 451.766 175.307 458.111 172.608C464.455 169.862 471.723 168.489 479.915 168.489C491.705 168.489 500.985 171.045 507.756 176.159C514.527 181.225 519.001 188.02 521.179 196.543Z" fill="#E4F0FF"/>
</svg>
