<svg width="24" height="24" viewBox="0 0 24 24" fill="none" xmlns="http://www.w3.org/2000/svg">
<g clip-path="url(#clip0_407_652)">
<path d="M15.8844 8.46719C16.1844 8.46719 16.4235 8.21875 16.4235 7.91875C16.4235 7.61875 16.1844 7.37969 15.8844 7.375C15.5844 7.375 15.3407 7.61406 15.336 7.91406C15.3313 8.21875 15.5844 8.46719 15.8844 8.46719Z" fill="#444444"/>
<path d="M14.8908 11.0372C14.0705 10.5779 13.1798 10.3529 12.247 10.2872C11.1408 10.2075 10.0626 10.3435 9.03608 10.7747C8.39389 11.0419 7.82202 11.4075 7.38139 11.956C6.73921 12.7622 6.71577 13.7325 7.32046 14.5622C7.63452 14.9935 8.04702 15.3169 8.51108 15.5747C9.50014 16.1185 10.5689 16.3294 11.5626 16.3341C12.608 16.3341 13.5033 16.1841 14.3564 15.8232C14.9939 15.556 15.5705 15.1904 16.0064 14.6372C16.6486 13.8263 16.6673 12.87 16.0626 12.031C15.7533 11.6091 15.3455 11.2904 14.8908 11.0372ZM8.97983 12.6544C8.98921 12.0919 9.43921 11.656 10.0017 11.6654C10.5455 11.6747 10.9814 12.1294 10.9767 12.6779C10.972 13.231 10.508 13.6716 9.94546 13.6622C9.41108 13.6482 8.97514 13.1935 8.97983 12.6544ZM13.7845 15.0825C13.4517 15.3872 13.0533 15.5607 12.622 15.6497C12.3126 15.7154 11.9986 15.7388 11.6845 15.7857C11.1501 15.7575 10.6345 15.6825 10.1564 15.4388C9.97827 15.3497 9.81421 15.2325 9.65952 15.106C9.47671 14.9513 9.46733 14.7216 9.61264 14.5622C9.75796 14.4075 9.98296 14.4122 10.1564 14.5669C10.4142 14.7966 10.7236 14.9044 11.0564 14.9654C11.6376 15.0732 12.2142 15.0497 12.772 14.8341C12.9548 14.7638 13.1236 14.6513 13.2876 14.5341C13.4564 14.4122 13.6767 14.4169 13.808 14.5622C13.9486 14.7169 13.9392 14.9419 13.7845 15.0825ZM13.4939 13.6575C12.9595 13.6482 12.5142 13.1888 12.5236 12.6497C12.533 12.0872 12.9923 11.6466 13.5642 11.6607C14.0986 11.6747 14.5345 12.1341 14.5251 12.6732C14.5158 13.2404 14.0611 13.6716 13.4939 13.6575Z" fill="#444444"/>
<path d="M16.0781 10.9717C16.2469 11.1592 16.425 11.3326 16.5797 11.5248C16.7297 11.7217 16.8563 11.9373 16.9969 12.1389C17.1844 11.8811 17.1656 11.4967 16.9594 11.2295C16.7438 10.9576 16.3734 10.8498 16.0781 10.9717Z" fill="#444444"/>
<path d="M7.32982 10.9729C7.0392 10.851 6.68295 10.9541 6.46732 11.2119C6.2517 11.4698 6.22826 11.8588 6.41576 12.1354C6.63607 11.6854 6.95013 11.3057 7.32982 10.9729Z" fill="#444444"/>
<path d="M22.125 0H1.875C0.839062 0 0 0.839062 0 1.875V22.125C0 23.1609 0.839062 24 1.875 24H22.125C23.1609 24 24 23.1609 24 22.125V1.875C24 0.839062 23.1609 0 22.125 0ZM17.8594 11.9062C17.8547 11.9156 17.8453 11.9297 17.8453 11.9391C17.7797 12.3516 17.5828 12.6797 17.2594 12.9422C17.2359 12.9609 17.2266 13.0125 17.2313 13.0453C17.2781 13.6312 17.1562 14.175 16.8609 14.6813C16.4578 15.3703 15.8719 15.8578 15.1828 16.2375C14.2453 16.7531 13.2281 17.0016 12.1641 17.0625C10.9406 17.1328 9.75938 16.95 8.63906 16.4484C7.88906 16.1156 7.22812 15.6563 6.73594 14.9859C6.30469 14.4 6.08906 13.7484 6.16406 13.0172C6.16875 12.9797 6.13594 12.9328 6.10312 12.9047C5.91094 12.7406 5.75625 12.5484 5.66719 12.3094C5.62031 12.1781 5.5875 12.0422 5.55 11.9109C5.55 11.7891 5.55 11.6719 5.55 11.55C5.625 11.3438 5.67188 11.1234 5.77969 10.9359C6.21094 10.1953 7.18125 9.97031 7.90313 10.4344C7.97813 10.4813 8.02969 10.4813 8.10469 10.4391C8.96719 9.9375 9.90469 9.67969 10.8937 9.58125C11.0391 9.56719 11.1891 9.55781 11.3391 9.55312C11.4141 9.55312 11.4469 9.52031 11.475 9.45C11.7703 8.59688 12.075 7.74375 12.375 6.89062C12.3891 6.85313 12.4031 6.81562 12.4219 6.76875C12.7406 6.84375 13.0547 6.91875 13.3688 6.99375C13.7953 7.09688 14.2266 7.19531 14.6531 7.30312C14.7328 7.32187 14.7703 7.3125 14.8172 7.24219C15.1313 6.75 15.7078 6.53906 16.2609 6.70312C16.8047 6.86719 17.175 7.37344 17.175 7.95C17.1703 8.57344 16.6828 9.12656 16.0734 9.19688C15.4078 9.27656 14.7938 8.85938 14.6578 8.22656C14.6297 8.09062 14.5781 8.03438 14.4375 8.00156C13.9266 7.88906 13.4203 7.7625 12.8953 7.64062C12.6703 8.27812 12.45 8.91094 12.225 9.54844C12.5062 9.58594 12.7781 9.61406 13.05 9.65625C13.8562 9.7875 14.6156 10.0453 15.3234 10.4578C15.3844 10.4953 15.4266 10.5 15.4922 10.4578C16.4344 9.84844 17.6437 10.3734 17.85 11.4797C17.8547 11.4984 17.8641 11.5172 17.8734 11.5312C17.8594 11.6484 17.8594 11.775 17.8594 11.9062Z" fill="#444444"/>
</g>
<defs>
<clipPath id="clip0_407_652">
<rect width="24" height="24" fill="white"/>
</clipPath>
</defs>
</svg>
