<svg width="48" height="48" viewBox="0 0 48 48" fill="none" xmlns="http://www.w3.org/2000/svg">
<rect width="48" height="48" rx="8.02099" fill="#0077FF"/>
<path fill-rule="evenodd" clip-rule="evenodd" d="M35.623 17.7486H31.1725C30.9651 17.7486 30.7969 17.5804 30.7969 17.373V12.9225C30.7969 12.7151 30.9651 12.5469 31.1725 12.5469H35.623C35.8304 12.5469 35.9986 12.7151 35.9986 12.9225V17.373C35.9986 17.5804 35.8304 17.7486 35.623 17.7486ZM31.5481 16.9974H35.2474V13.2981H31.5481V16.9974Z" fill="white"/>
<path fill-rule="evenodd" clip-rule="evenodd" d="M14.9594 17.9579C14.8633 17.9579 14.7672 17.9212 14.6938 17.8479L12.2663 15.4203C12.1958 15.3499 12.1562 15.2544 12.1562 15.1547C12.1562 15.0551 12.1958 14.9595 12.2663 14.8891L14.6938 12.4616C14.8405 12.3149 15.0783 12.3149 15.225 12.4616L17.6526 14.8891C17.723 14.9595 17.7626 15.0551 17.7626 15.1547C17.7626 15.2544 17.723 15.3499 17.6526 15.4203L15.225 17.8479C15.1517 17.9212 15.0555 17.9579 14.9594 17.9579ZM13.0631 15.1547L14.9595 17.0511L16.8558 15.1547L14.9595 13.2584L13.0631 15.1547Z" fill="white"/>
<path fill-rule="evenodd" clip-rule="evenodd" d="M24.1782 17.9579C22.6325 17.9579 21.375 16.7004 21.375 15.1547C21.375 13.6091 22.6325 12.3516 24.1782 12.3516C25.7239 12.3516 26.9813 13.609 26.9813 15.1547C26.9813 16.7004 25.7239 17.9579 24.1782 17.9579ZM24.1782 13.1028C23.0468 13.1028 22.1262 14.0233 22.1262 15.1547C22.1262 16.2862 23.0468 17.2067 24.1782 17.2067C25.3096 17.2067 26.2301 16.2862 26.2301 15.1547C26.2301 14.0233 25.3096 13.1028 24.1782 13.1028Z" fill="white"/>
<path fill-rule="evenodd" clip-rule="evenodd" d="M25.5846 26.8062C25.5071 26.8062 25.4297 26.7823 25.3639 26.7345L24.0843 25.8048L22.8048 26.7344C22.6732 26.8301 22.4949 26.8301 22.3633 26.7344C22.2316 26.6388 22.1765 26.4693 22.2269 26.3145L22.7156 24.8103L21.4361 23.8807C21.3045 23.785 21.2493 23.6155 21.2997 23.4607C21.35 23.306 21.4942 23.2012 21.6569 23.2012H23.2385L23.7272 21.697C23.7775 21.5423 23.9218 21.4375 24.0845 21.4375C24.2472 21.4375 24.3914 21.5423 24.4417 21.697L24.9305 23.2012H26.512C26.6747 23.2012 26.819 23.306 26.8693 23.4607C26.9195 23.6155 26.8644 23.785 26.7328 23.8807L25.4533 24.8103L25.9421 26.3145C25.9924 26.4692 25.9373 26.6388 25.8057 26.7344C25.7395 26.7823 25.6621 26.8062 25.5846 26.8062ZM24.0843 24.9649C24.1617 24.9649 24.2392 24.9888 24.305 25.0366L24.8701 25.4471L24.6542 24.7829C24.6039 24.6282 24.659 24.4586 24.7907 24.3629L25.3558 23.9524H24.6574C24.4947 23.9524 24.3504 23.8476 24.3001 23.6928L24.0843 23.0285L23.8684 23.6928C23.8181 23.8475 23.6739 23.9523 23.5112 23.9523H22.8127L23.3778 24.3629C23.5094 24.4585 23.5645 24.6281 23.5142 24.7828L23.2984 25.4471L23.8634 25.0366C23.9293 24.9888 24.0068 24.9649 24.0843 24.9649Z" fill="white"/>
<path fill-rule="evenodd" clip-rule="evenodd" d="M35.7307 26.5965H30.8756C30.7414 26.5965 30.6174 26.5249 30.5503 26.4087C30.4832 26.2925 30.4832 26.1493 30.5503 26.0331L32.9779 21.8284C33.045 21.7122 33.169 21.6406 33.3032 21.6406C33.4374 21.6406 33.5613 21.7122 33.6284 21.8284L36.056 26.0331C36.1231 26.1493 36.1231 26.2925 36.056 26.4087C35.9889 26.5249 35.8649 26.5965 35.7307 26.5965ZM31.5262 25.8453H35.0801L33.3032 22.7675L31.5262 25.8453Z" fill="white"/>
<path fill-rule="evenodd" clip-rule="evenodd" d="M16.3659 26.8062H13.3654C13.2027 26.8062 13.0584 26.7014 13.0081 26.5466L12.0809 23.6929C12.0306 23.5381 12.0857 23.3686 12.2173 23.273L14.6449 21.5092C14.7765 21.4136 14.9548 21.4136 15.0864 21.5092L17.514 23.273C17.6456 23.3686 17.7007 23.5382 17.6504 23.6929L16.7232 26.5466C16.6729 26.7014 16.5286 26.8062 16.3659 26.8062ZM13.6382 26.0549H16.093L16.8516 23.7203L14.8656 22.2774L12.8796 23.7203L13.6382 26.0549Z" fill="white"/>
<path fill-rule="evenodd" clip-rule="evenodd" d="M16.2044 35.5574H13.7769C13.6427 35.5574 13.5187 35.4858 13.4516 35.3696L12.2378 33.2673C12.1707 33.1511 12.1707 33.0079 12.2378 32.8917L13.4516 30.7894C13.5187 30.6732 13.6427 30.6016 13.7769 30.6016H16.2044C16.3386 30.6016 16.4627 30.6732 16.5297 30.7894L17.7435 32.8917C17.8106 33.0079 17.8106 33.1511 17.7435 33.2673L16.5297 35.3696C16.4626 35.4858 16.3386 35.5574 16.2044 35.5574ZM13.9938 34.8061H15.9876L16.9845 33.0795L15.9876 31.3528H13.9938L12.9969 33.0795L13.9938 34.8061Z" fill="white"/>
<path fill-rule="evenodd" clip-rule="evenodd" d="M26.471 35.0817H22.026C21.7058 35.0817 21.4453 34.8212 21.4453 34.501V31.6744C21.4453 31.3542 21.7058 31.0938 22.026 31.0938H26.471C26.7911 31.0938 27.0516 31.3543 27.0516 31.6744V34.501C27.0517 34.8212 26.7911 35.0817 26.471 35.0817ZM22.1965 34.3305H26.3004V31.845H22.1965V34.3305Z" fill="white"/>
<path fill-rule="evenodd" clip-rule="evenodd" d="M33.5092 35.8876C33.4443 35.8876 33.3795 35.8708 33.3214 35.8372L31.2191 34.6235C31.1029 34.5564 31.0312 34.4323 31.0312 34.2982V31.8706C31.0312 31.7364 31.1029 31.6125 31.2191 31.5454L33.3214 30.3316C33.4376 30.2645 33.5808 30.2645 33.697 30.3316L35.7993 31.5454C35.9155 31.6125 35.9871 31.7364 35.9871 31.8706V34.2982C35.9871 34.4324 35.9155 34.5564 35.7993 34.6235L33.697 35.8372C33.6389 35.8708 33.574 35.8876 33.5092 35.8876ZM31.7825 34.0813L33.5091 35.0782L35.2358 34.0813V32.0875L33.5091 31.0906L31.7825 32.0875V34.0813Z" fill="white"/>
</svg>
