<svg width="30" height="30" viewBox="0 0 30 30" fill="none" xmlns="http://www.w3.org/2000/svg">
    <circle cx="15" cy="15" r="15" fill="#0D59EF"/>
    <path d="M22.9414 11.3344C22.423 11.5606 21.8705 11.7106 21.2946 11.7835C21.8871 11.4315 22.3393 10.8783 22.5519 10.2116C21.9995 10.5393 21.3896 10.7708 20.7395 10.9C20.215 10.3442 19.4674 10 18.6518 10C17.0695 10 15.7956 11.278 15.7956 12.8447C15.7956 13.0701 15.8147 13.2869 15.8618 13.4932C13.4856 13.3779 11.3831 12.2447 9.97067 10.5185C9.72408 10.9442 9.57944 11.4315 9.57944 11.956C9.57944 12.9409 10.0892 13.814 10.849 14.3195C10.3898 14.3108 9.9393 14.1782 9.55766 13.9692C9.55766 13.9779 9.55766 13.9892 9.55766 14.0005C9.55766 15.3825 10.5484 16.5304 11.8475 16.7949C11.6149 16.8582 11.3613 16.8885 11.0982 16.8885C10.9152 16.8885 10.7305 16.8781 10.5571 16.84C10.9274 17.9662 11.9782 18.7942 13.2277 18.8211C12.2553 19.578 11.0206 20.0341 9.684 20.0341C9.44961 20.0341 9.22481 20.0237 9 19.9951C10.2661 20.8075 11.7665 21.2713 13.3846 21.2713C18.644 21.2713 21.5194 16.9362 21.5194 13.1785C21.5194 13.0528 21.515 12.9314 21.5089 12.8109C22.0762 12.4103 22.5528 11.9101 22.9414 11.3344Z" fill="white"/>
</svg>
