<svg width="24" height="20" viewBox="0 0 24 20" fill="none" xmlns="http://www.w3.org/2000/svg">
<path fill-rule="evenodd" clip-rule="evenodd" d="M7.548 19.5982C16.6044 19.5982 21.558 12.2105 21.558 5.80464C21.558 5.59434 21.558 5.38562 21.5436 5.17768C22.5072 4.49244 23.3388 3.64163 24 2.66811C23.1024 3.06036 22.1484 3.31759 21.1728 3.431C22.2 2.82492 22.9692 1.87273 23.3376 0.749168C22.3704 1.3139 21.3132 1.71246 20.2104 1.92632C18.3456 -0.0254477 15.2268 -0.120011 13.2432 1.71596C11.9652 2.89978 11.4216 4.66482 11.8188 6.34839C7.86 6.15227 4.1712 4.3116 1.6704 1.28354C0.3636 3.49875 1.032 6.33158 3.1956 7.75405C2.412 7.7316 1.6452 7.52389 0.96 7.14819V7.20972C0.9612 9.5171 2.6136 11.5039 4.9104 11.9611C4.1856 12.156 3.4248 12.1843 2.688 12.0437C3.3324 14.0191 5.1816 15.3721 7.2876 15.4111C5.544 16.7603 3.39 17.4929 1.1724 17.4906C0.7812 17.4894 0.39 17.4669 0 17.4208C2.2524 18.8433 4.872 19.5982 7.548 19.5947" fill="#444444"/>
</svg>
