<svg width="199" height="89" viewBox="0 0 199 89" fill="none" xmlns="http://www.w3.org/2000/svg">
<g filter="url(#filter0_d_1842_1091)">
<rect x="10.2266" y="6" width="178" height="69" rx="16" fill="white"/>
<rect width="94.0983" height="32.0833" transform="translate(52.2266 25)" fill="white"/>
<path d="M143.04 35.7084C142.266 34.6957 141.274 33.8761 140.14 33.3123C139.006 32.7485 137.76 32.4554 136.497 32.4554C135.234 32.4554 133.988 32.7485 132.854 33.3123C131.72 33.8761 130.728 34.6957 129.953 35.7084C128.916 37.2108 128.372 39.0071 128.398 40.8417C128.372 42.6763 128.916 44.4726 129.953 45.975C130.728 46.9877 131.72 47.8073 132.854 48.3711C133.988 48.9349 135.234 49.228 136.497 49.228C137.76 49.228 139.006 48.9349 140.14 48.3711C141.274 47.8073 142.266 46.9877 143.04 45.975C144.078 44.4724 144.622 42.6762 144.596 40.8417C144.622 39.0072 144.078 37.211 143.04 35.7084ZM140.448 42.7667C139.854 44.5698 138.444 45.975 136.491 46.02C134.537 46.0649 133.127 44.5698 132.539 42.7667C132.119 41.5189 132.119 40.1646 132.539 38.9167C133.134 37.1136 134.543 35.7084 136.491 35.6635C138.438 35.6185 139.854 37.1136 140.448 38.9167C140.867 40.1627 140.867 41.5143 140.448 42.7603V42.7667ZM80.8614 48.7984C80.8614 48.9243 80.8121 49.0451 80.7243 49.1341C80.6366 49.2232 80.5176 49.2732 80.3935 49.2732H77.675C77.5509 49.2732 77.4319 49.2232 77.3442 49.1341C77.2564 49.0451 77.2071 48.9243 77.2071 48.7984V26.1155C77.2071 25.9895 77.2564 25.8687 77.3442 25.7797C77.4319 25.6907 77.5509 25.6406 77.675 25.6406H80.3935C80.5176 25.6406 80.6366 25.6907 80.7243 25.7797C80.8121 25.8687 80.8614 25.9895 80.8614 26.1155V48.7984ZM74.4759 48.7984C74.4759 48.9243 74.4266 49.0451 74.3389 49.1341C74.2512 49.2232 74.1322 49.2732 74.0081 49.2732H71.2895C71.1654 49.2732 71.0464 49.2232 70.9587 49.1341C70.871 49.0451 70.8217 48.9243 70.8217 48.7984V26.1155C70.8217 25.9906 70.8701 25.8708 70.9565 25.7819C71.0428 25.6931 71.1602 25.6423 71.2832 25.6406H74.0018C74.1258 25.6406 74.2448 25.6907 74.3326 25.7797C74.4203 25.8687 74.4696 25.9895 74.4696 26.1155V48.7984H74.4759ZM127.785 33.3984V35.3234C127.796 35.4065 127.786 35.491 127.757 35.5693C127.727 35.6475 127.679 35.717 127.616 35.7713C127.553 35.8256 127.477 35.863 127.396 35.88C127.316 35.897 127.232 35.8932 127.153 35.8688C124.08 35.2271 122.19 36.6131 122.19 39.4942V48.7984C122.19 48.9243 122.14 49.0451 122.053 49.1341C121.965 49.2232 121.846 49.2732 121.722 49.2732H119.003C118.879 49.2732 118.76 49.2232 118.673 49.1341C118.585 49.0451 118.536 48.9243 118.536 48.7984V39.2953C118.519 38.3964 118.689 37.5041 119.034 36.6761C119.38 35.8482 119.893 35.1031 120.54 34.4892C121.869 33.1704 123.657 32.4372 125.515 32.4487C126.152 32.4504 126.786 32.5106 127.412 32.6284C127.734 32.7375 127.785 32.93 127.785 33.424V33.3984ZM116.146 40.8353C116.18 38.9996 115.635 37.2008 114.59 35.702C113.816 34.6893 112.824 33.8697 111.69 33.3059C110.556 32.7421 109.31 32.449 108.047 32.449C106.784 32.449 105.538 32.7421 104.404 33.3059C103.27 33.8697 102.278 34.6893 101.503 35.702C100.476 37.2107 99.9256 39.0012 99.9256 40.8353C99.9256 42.6693 100.476 44.4599 101.503 45.9686C102.265 46.995 103.255 47.8246 104.392 48.3899C105.529 48.9551 106.781 49.2402 108.047 49.2219C109.705 49.2274 111.327 48.7315 112.706 47.7974V49.825C112.706 52.5778 110.336 53.0783 108.818 53.1745C107.774 53.2096 106.729 53.1516 105.695 53.0013C105.278 52.9371 104.987 53.0013 104.987 53.4569V55.8952C104.989 55.95 105.002 56.0038 105.025 56.0534C105.048 56.1031 105.081 56.1477 105.121 56.1846C105.161 56.2216 105.207 56.2502 105.258 56.2688C105.309 56.2874 105.363 56.2956 105.417 56.293C108.938 56.601 111.309 56.5369 113.092 55.5038C114.341 54.7542 115.268 53.5569 115.691 52.1479C116.006 51.0608 116.157 49.9315 116.139 48.7984V40.8353H116.146ZM108.047 46.0071C106.093 46.0071 104.684 44.557 104.089 42.7539C103.669 41.506 103.669 40.1517 104.089 38.9039C104.684 37.1008 106.093 35.6506 108.047 35.6506C112.416 35.6506 112.561 40.1744 112.561 40.8289C112.561 41.4834 112.416 46.0071 108.047 46.0071ZM68.3307 39.1734C68.3307 36.9853 67.8502 35.3234 66.8134 34.1748C65.7765 33.0262 63.6902 32.4551 61.7556 32.4551C59.8137 32.4474 57.9046 32.9634 56.2237 33.9502C56.171 33.9818 56.1276 34.0269 56.0976 34.081C56.0676 34.135 56.0522 34.1962 56.053 34.2582L56.1984 36.6709C56.2113 36.7459 56.2436 36.8162 56.2921 36.8744C56.3405 36.9326 56.4033 36.9766 56.4741 37.0021C56.5448 37.0276 56.621 37.0335 56.6947 37.0193C56.7685 37.005 56.8372 36.9712 56.8938 36.9211C59.2646 35.4389 62.1096 35.163 63.5574 35.9073C63.9557 36.1403 64.2839 36.4791 64.5067 36.8872C64.7295 37.2954 64.8385 37.7574 64.8219 38.2237V38.5766H60.8705C59.1698 38.5766 53.9603 39.2183 53.9603 44.0757V44.127C53.9198 44.8662 54.0515 45.6047 54.3448 46.2825C54.6381 46.9604 55.0847 47.5585 55.6483 48.0284C56.8796 48.9087 58.3679 49.3406 59.8716 49.254H67.8692C67.9933 49.254 68.1123 49.2039 68.2 49.1149C68.2878 49.0258 68.337 48.9051 68.337 48.7791V39.1541L68.3307 39.1734ZM64.8219 46.2895H60.0992C59.4932 46.2718 58.9077 46.0633 58.4238 45.6927C58.1749 45.5153 57.9726 45.2786 57.8349 45.0034C57.6971 44.7282 57.6279 44.4229 57.6335 44.1142C57.6335 43.248 58.2088 41.5155 61.0854 41.5155H64.8219V46.2895ZM90.8695 32.4551C86.033 32.4551 83.915 35.7469 83.2385 38.5317C83.0525 39.2828 82.959 40.0544 82.9604 40.8289C82.9342 42.6634 83.4784 44.4596 84.5156 45.9622C85.2907 46.9738 86.283 47.7927 87.4169 48.3565C88.5508 48.9202 89.7965 49.214 91.0591 49.2155C93.6702 49.3117 95.4151 48.8625 96.7491 48.0925C96.8792 48.0074 96.9797 47.8829 97.0364 47.7367C97.0931 47.5905 97.1032 47.4299 97.0652 47.2776V45.1409C97.0652 44.7045 96.806 44.4992 96.433 44.7623C94.8716 45.7779 93.0186 46.23 91.1729 46.0456C90.1219 46.0316 89.1122 45.6277 88.3342 44.9103C87.5563 44.1928 87.0638 43.2113 86.9497 42.1507H97.6975C97.8138 42.1507 97.9254 42.1043 98.0082 42.0214C98.091 41.9386 98.1384 41.826 98.14 41.708C98.3297 38.7242 97.4762 32.4551 90.8695 32.4551ZM87.0066 39.199C87.0283 38.7078 87.1461 38.2259 87.3531 37.7813C87.56 37.3367 87.852 36.9383 88.2121 36.6093C88.5721 36.2803 88.993 36.0273 89.4503 35.8649C89.9076 35.7025 90.3922 35.634 90.8758 35.6635C91.3386 35.6347 91.8022 35.7068 92.2353 35.875C92.6684 36.0431 93.061 36.3034 93.3868 36.6383C93.7126 36.9732 93.964 37.375 94.1241 37.8167C94.2842 38.2583 94.3493 38.7297 94.3151 39.199H87.0066Z" fill="#333333"/>
</g>
<defs>
<filter id="filter0_d_1842_1091" x="0.226562" y="0" width="198" height="89" filterUnits="userSpaceOnUse" color-interpolation-filters="sRGB">
<feFlood flood-opacity="0" result="BackgroundImageFix"/>
<feColorMatrix in="SourceAlpha" type="matrix" values="0 0 0 0 0 0 0 0 0 0 0 0 0 0 0 0 0 0 127 0" result="hardAlpha"/>
<feOffset dy="4"/>
<feGaussianBlur stdDeviation="5"/>
<feComposite in2="hardAlpha" operator="out"/>
<feColorMatrix type="matrix" values="0 0 0 0 0 0 0 0 0 0 0 0 0 0 0 0 0 0 0.06 0"/>
<feBlend mode="normal" in2="BackgroundImageFix" result="effect1_dropShadow_1842_1091"/>
<feBlend mode="normal" in="SourceGraphic" in2="effect1_dropShadow_1842_1091" result="shape"/>
</filter>
</defs>
</svg>
