<svg width="199" height="90" viewBox="0 0 199 90" fill="none" xmlns="http://www.w3.org/2000/svg">
<g filter="url(#filter0_d_1842_1067)">
<rect x="10.2266" y="6" width="178" height="70" rx="16" fill="#FBFBFB" fill-opacity="0.5" shape-rendering="crispEdges"/>
<g clip-path="url(#clip0_1842_1067)">
<rect width="118.692" height="21.3889" transform="translate(40.2266 31)" fill="white"/>
<path d="M145.308 31.5625H143.373C143.256 31.5625 143.158 31.6631 143.158 31.7845V41.1448C143.158 44.4096 141.913 45.995 139.345 45.995C136.807 45.995 135.574 44.4096 135.574 41.1448V31.7845C135.574 31.6631 135.478 31.5625 135.361 31.5625H133.425C133.308 31.5625 133.211 31.6631 133.211 31.7845V41.0304C133.211 45.773 135.33 48.2813 139.342 48.2813C143.383 48.2813 145.516 45.773 145.516 41.0304V31.7845C145.519 31.6631 145.425 31.5625 145.308 31.5625Z" fill="#333333"/>
<path d="M153.25 34.9375C151.74 34.9375 150.448 35.5273 149.503 36.6444L149.326 35.2671C149.312 35.1561 149.222 35.0763 149.115 35.0763H147.535C147.418 35.0763 147.32 35.1769 147.32 35.2983V51.6494C147.32 51.7708 147.418 51.8715 147.535 51.8715H149.359C149.477 51.8715 149.574 51.7708 149.574 51.6494V45.9111C150.414 46.879 151.713 47.4098 153.253 47.4098C156.589 47.4098 158.919 44.846 158.919 41.1719C158.915 37.3834 156.692 34.9375 153.25 34.9375ZM156.618 41.1754C156.618 43.6352 155.192 45.2866 153.073 45.2866C150.963 45.2866 149.547 43.6144 149.547 41.1268C149.547 38.733 150.997 37.0608 153.073 37.0608C155.195 37.0608 156.618 38.7156 156.618 41.1754Z" fill="#333333"/>
<path d="M84.3349 33.3488C86.6184 33.3488 88.2456 34.5908 88.8014 36.7592C88.8249 36.8563 88.9119 36.9223 89.009 36.9223H90.9443C91.0079 36.9223 91.0682 36.8945 91.1084 36.8425C91.1486 36.7939 91.1653 36.728 91.1553 36.662C90.5559 33.21 87.9778 31.0625 84.4253 31.0625C79.8516 31.0625 76.7812 34.4521 76.7812 39.493C76.7812 44.6138 79.7813 47.9201 84.4253 47.9201C87.9644 47.9201 90.5359 45.776 91.1318 42.3206C91.1419 42.2546 91.1251 42.1887 91.0849 42.1401C91.0448 42.0916 90.9845 42.0604 90.9208 42.0604H88.9856C88.8885 42.0604 88.8048 42.1298 88.778 42.2234C88.2222 44.3883 86.605 45.6304 84.3349 45.6304C81.2545 45.6304 79.1853 43.1636 79.1853 39.4896C79.1853 35.8155 81.2579 33.3488 84.3349 33.3488Z" fill="#333333"/>
<path d="M94.0181 31.0469C93.2244 31.0469 92.625 31.6679 92.625 32.4901C92.625 33.3124 93.2244 33.9334 94.0181 33.9334C94.8117 33.9334 95.4111 33.3124 95.4111 32.4901C95.4111 31.6679 94.8117 31.0469 94.0181 31.0469Z" fill="#333333"/>
<path d="M94.9222 35.5859H93.0972C92.9799 35.5859 92.8828 35.6865 92.8828 35.808V47.5656C92.8828 47.6871 92.9799 47.7877 93.0972 47.7877H94.9222C95.0394 47.7877 95.1365 47.6871 95.1365 47.5656V35.8045C95.1365 35.6831 95.0394 35.5859 94.9222 35.5859Z" fill="#333333"/>
<path d="M103.188 35.5894H102.676C100.751 35.5894 99.8732 36.3561 99.3843 36.998L99.2168 35.7768C99.2001 35.6692 99.1096 35.5859 99.0059 35.5859H97.4253C97.308 35.5859 97.2109 35.6865 97.2109 35.808V47.5656C97.2109 47.6871 97.308 47.7877 97.4253 47.7877H99.2503C99.3675 47.7877 99.4646 47.6871 99.4646 47.5656V41.574C99.4646 40.1932 99.8296 37.8757 102.278 37.8757H103.188C103.306 37.8757 103.403 37.7751 103.403 37.6537V35.808C103.403 35.6865 103.309 35.5894 103.188 35.5894Z" fill="#333333"/>
<path d="M109.323 37.5686C110.806 37.5686 111.938 38.4498 112.276 39.8653C112.299 39.9659 112.383 40.0353 112.483 40.0353H114.332C114.395 40.0353 114.455 40.0075 114.495 39.9555C114.536 39.9069 114.553 39.841 114.542 39.775C114.067 37.062 112.142 35.4453 109.393 35.4453C105.924 35.4453 103.594 37.9433 103.594 41.6589C103.594 45.4024 105.897 47.9212 109.326 47.9212C112.095 47.9212 114.047 46.2836 114.542 43.5463C114.556 43.4804 114.539 43.4144 114.495 43.3624C114.452 43.3103 114.395 43.2826 114.332 43.2826H112.507C112.406 43.2826 112.319 43.3555 112.299 43.4561C111.981 44.9201 110.873 45.7978 109.326 45.7978C107.27 45.7978 105.891 44.1361 105.891 41.6624C105.887 39.213 107.27 37.5686 109.323 37.5686Z" fill="#333333"/>
<path d="M118.258 31.5938H116.433C116.316 31.5938 116.219 31.6944 116.219 31.8158V47.5633C116.219 47.6846 116.316 47.7852 116.433 47.7852H118.258C118.375 47.7852 118.473 47.6846 118.473 47.5633V31.8158C118.473 31.6944 118.375 31.5938 118.258 31.5938Z" fill="#333333"/>
<path d="M125.301 35.4453C121.953 35.4453 119.703 37.9537 119.703 41.6832C119.703 45.4128 122.05 47.9212 125.546 47.9212C128.184 47.9212 130.206 46.2489 130.695 43.6608C130.708 43.5949 130.692 43.5289 130.652 43.4768C130.612 43.4248 130.551 43.3971 130.488 43.3971H128.64C128.542 43.3971 128.458 43.4665 128.432 43.5636C128.084 44.9618 126.955 45.7944 125.411 45.7944C123.45 45.7944 122.137 44.417 122.047 42.28L130.642 42.2695C130.749 42.2695 130.846 42.1724 130.856 42.051C130.876 41.7803 130.899 41.4994 130.899 41.2357C130.809 37.7177 128.612 35.4453 125.301 35.4453ZM128.552 40.2642H122.184C122.445 38.6857 123.751 37.5477 125.321 37.5477C127.079 37.5477 128.308 38.5851 128.552 40.2642Z" fill="#333333"/>
<path fill-rule="evenodd" clip-rule="evenodd" d="M48.3911 31C43.8887 31 40.2266 34.7955 40.2266 39.4618C40.2266 44.1281 43.8887 47.9201 48.3911 47.9201C52.8935 47.9201 56.5557 44.1246 56.5557 39.4583C56.5557 34.792 52.8902 31 48.3911 31Z" fill="#333333"/>
<path fill-rule="evenodd" clip-rule="evenodd" d="M72.8808 39.9893L65.8398 31.2929C65.5242 30.9041 64.943 30.9006 64.6275 31.2929L57.5699 39.9893C57.354 40.2543 57.5367 40.6569 57.8721 40.6569H59.6158C59.9147 40.6569 60.1239 40.4676 60.2202 40.3472L63.6445 36.2864C63.7839 36.1212 64.0463 36.2244 64.0463 36.4412V47.4639C64.0463 47.7496 64.2688 47.9802 64.5445 47.9802H65.9062C66.1818 47.9802 66.4044 47.7496 66.4044 47.4639V36.4275C66.4044 36.2072 66.6668 36.104 66.8063 36.2726L70.2437 40.3679C70.3434 40.4883 70.5327 40.6604 70.9113 40.6604H72.5785C72.914 40.6604 73.0967 40.2543 72.8808 39.9893Z" fill="#333333"/>
</g>
</g>
<defs>
<filter id="filter0_d_1842_1067" x="0.226562" y="0" width="198" height="90" filterUnits="userSpaceOnUse" color-interpolation-filters="sRGB">
<feFlood flood-opacity="0" result="BackgroundImageFix"/>
<feColorMatrix in="SourceAlpha" type="matrix" values="0 0 0 0 0 0 0 0 0 0 0 0 0 0 0 0 0 0 127 0" result="hardAlpha"/>
<feOffset dy="4"/>
<feGaussianBlur stdDeviation="5"/>
<feComposite in2="hardAlpha" operator="out"/>
<feColorMatrix type="matrix" values="0 0 0 0 0 0 0 0 0 0 0 0 0 0 0 0 0 0 0.06 0"/>
<feBlend mode="normal" in2="BackgroundImageFix" result="effect1_dropShadow_1842_1067"/>
<feBlend mode="normal" in="SourceGraphic" in2="effect1_dropShadow_1842_1067" result="shape"/>
</filter>
<clipPath id="clip0_1842_1067">
<rect width="118.692" height="21.3889" fill="white" transform="translate(40.2266 31)"/>
</clipPath>
</defs>
</svg>
