<svg width="1532" height="1532" viewBox="0 0 1532 1532" fill="none" xmlns="http://www.w3.org/2000/svg">
<path d="M1531.81 766.261C1531.81 1189.49 1190.17 1531.14 766.933 1531.14C343.7 1531.14 2.05469 1189.49 2.05469 766.261C2.05469 343.028 343.7 1.38281 766.933 1.38281C1190.17 1.38281 1531.81 343.028 1531.81 766.261Z" fill="#FFDD67"/>
<path d="M1526.72 286.886C1513.98 218.047 1475.73 161.956 1411.99 144.108C1343.15 126.261 1281.96 151.757 1223.32 212.947C1190.18 121.162 1139.19 52.3231 1057.6 16.6288C976.012 -19.0655 894.425 6.43043 843.433 70.1703C789.892 136.46 769.495 240.993 825.586 376.121C879.128 503.601 1116.24 758.56 1123.89 766.209C1134.09 761.11 1399.24 595.386 1462.98 513.799C1526.72 434.762 1539.47 355.725 1526.72 286.886ZM690.458 70.1703C639.466 6.43043 557.879 -19.0655 476.292 16.6288C394.705 52.3231 343.713 121.162 310.568 212.947C249.378 154.307 188.188 126.261 119.349 146.658C58.1587 164.505 17.3652 220.596 4.61723 289.435C-8.13074 355.725 7.16682 437.312 68.3571 516.349C134.646 595.386 399.804 761.11 410.003 766.209C417.651 758.56 654.764 503.601 708.305 376.121C764.396 240.993 743.999 139.009 690.458 70.1703Z" fill="#F46767"/>
<path d="M1200.36 921.67C1200.36 901.274 1187.61 875.778 1154.47 868.129C1065.23 850.282 935.204 834.984 766.931 834.984C598.658 834.984 468.628 852.832 379.393 868.129C343.698 875.778 333.5 901.274 333.5 921.67C333.5 1107.79 476.277 1293.91 766.931 1293.91C1057.58 1291.36 1200.36 1105.24 1200.36 921.67Z" fill="#664E27"/>
<path d="M1090.67 926.808C1034.58 916.61 917.298 901.312 766.872 901.312C616.446 901.312 499.164 916.61 443.073 926.808C409.929 931.908 407.379 944.656 409.929 965.052C412.478 975.251 412.478 990.548 417.578 1005.85C420.127 1021.14 425.226 1028.79 450.722 1026.24C499.165 1021.14 1037.13 1021.14 1085.57 1026.24C1111.07 1028.79 1113.62 1021.14 1118.72 1005.85C1121.27 990.548 1123.81 977.8 1126.36 965.052C1126.36 944.656 1123.81 931.908 1090.67 926.808Z" fill="white"/>
</svg>
