<svg width="199" height="88" viewBox="0 0 199 88" fill="none" xmlns="http://www.w3.org/2000/svg">
<g filter="url(#filter0_d_1842_1080)">
<rect x="10.2266" y="6" width="178" height="68" rx="15" fill="white"/>
<g clip-path="url(#clip0_1842_1080)">
<rect width="112.276" height="23.5278" transform="translate(43.2266 29)" fill="white"/>
<path d="M55.5885 29.1016C48.7871 29.1016 43.2812 34.3186 43.2812 40.7632C43.2812 47.2077 48.7871 52.4247 55.5885 52.4247C62.3898 52.4247 67.8957 47.2077 67.8957 40.7632C67.8957 34.3186 62.3898 29.1016 55.5885 29.1016ZM55.5885 49.6457C50.4065 49.6457 46.2141 45.6733 46.2141 40.7632C46.2141 35.853 50.4065 31.8806 55.5885 31.8806C60.7705 31.8806 64.9628 35.853 64.9628 40.7632C64.9628 45.6733 60.7705 49.6457 55.5885 49.6457Z" fill="#333333"/>
<path d="M60.9349 37.7436C60.8629 37.6073 60.7009 37.5391 60.557 37.5391H50.6428C50.4449 37.5391 50.265 37.6584 50.211 37.8459C50.157 38.0335 50.247 38.221 50.4089 38.3233L55.1591 41.0682V46.0977C55.1591 46.2853 55.303 46.4557 55.483 46.5069C55.519 46.5239 55.5549 46.5239 55.5909 46.5239C55.7529 46.5239 55.8968 46.4387 55.9688 46.3194L60.9169 38.1869C61.0248 38.0335 61.0248 37.88 60.9349 37.7436Z" fill="#333333"/>
<path d="M83.4082 44.0407C83.4082 45.183 82.9764 46.1548 82.0947 46.9561C81.2131 47.7575 80.1695 48.1666 78.9459 48.1666H78.3342C77.0927 48.1666 76.0311 47.7575 75.1494 46.9561C74.2678 46.1548 73.8359 45.166 73.8359 44.0407V36.9824C73.8359 35.8401 74.2678 34.8854 75.1494 34.0841C76.0311 33.2828 77.0927 32.8906 78.3342 32.8906H78.9459C80.1875 32.8906 81.2131 33.2828 82.0947 34.0841C82.9764 34.8854 83.4082 35.8572 83.4082 36.9824V44.0407ZM80.0615 37.4257C80.0615 36.4709 79.3958 35.7549 78.6761 35.7549C77.9563 35.7549 77.2366 36.488 77.2366 37.4257V43.6657C77.2366 44.6204 77.9383 45.3024 78.6761 45.3024C79.4498 45.3024 80.0615 44.6204 80.0615 43.6657V37.4257Z" fill="#333333"/>
<path d="M95.4579 38.0025C95.4579 39.1448 95.0261 40.0995 94.1624 40.9008C93.3168 41.7021 92.2552 42.0943 91.0317 42.0943H89.6462C89.4663 42.0943 89.3943 42.1625 89.3943 42.3329V47.2431C89.3943 47.6352 89.0164 47.9762 88.5666 47.9762H86.8753C86.4254 47.9762 86.1016 47.6352 86.1016 47.2431V33.8084C86.1016 33.3481 86.3535 33.1094 86.8753 33.1094H91.0137C92.2552 33.1094 93.3168 33.5186 94.1444 34.3199C95.0081 35.1212 95.4399 36.093 95.4399 37.2182V38.0025H95.4579ZM92.1472 37.0136C92.1472 36.3658 91.5355 35.8372 90.8157 35.8372H89.7362C89.5382 35.8372 89.4483 35.9054 89.4483 36.0418V39.1959C89.4483 39.3493 89.5382 39.4175 89.7362 39.4175H90.8157C91.5355 39.4175 92.1472 38.872 92.1472 38.2241V37.0136Z" fill="#333333"/>
<path d="M106.315 47.1948C106.315 47.5869 105.919 47.962 105.469 47.962H98.83C98.3802 47.962 97.9844 47.5869 97.9844 47.1948V33.8453C97.9844 33.4191 98.3442 33.0781 98.83 33.0781H105.272C105.721 33.0781 106.117 33.4191 106.117 33.8453V35.107C106.117 35.4991 105.721 35.8742 105.272 35.8742H101.565C101.367 35.8742 101.277 35.9424 101.277 36.1129V38.5679C101.277 38.7214 101.367 38.7896 101.565 38.7896H104.372C104.822 38.7896 105.218 39.1306 105.218 39.5568V40.7843C105.218 41.1765 104.822 41.5515 104.372 41.5515H101.565C101.367 41.5515 101.277 41.6368 101.277 41.8073V44.842C101.277 45.0125 101.367 45.0977 101.565 45.0977H105.469C105.919 45.0977 106.315 45.4728 106.315 45.865V47.1948Z" fill="#333333"/>
<path d="M118.761 47.2289C118.761 47.621 118.401 47.962 117.951 47.962H116.422C116.062 47.962 115.792 47.7574 115.594 47.3653L112.086 40.1706V47.2289C112.086 47.621 111.708 47.962 111.258 47.962H109.657C109.207 47.962 108.883 47.621 108.883 47.2289V33.8283C108.883 33.4021 109.189 33.0781 109.657 33.0781H111.258C111.672 33.0781 111.96 33.2998 112.176 33.726L115.576 40.665V33.8453C115.576 33.4191 115.972 33.0781 116.422 33.0781H117.951C118.401 33.0781 118.761 33.4191 118.761 33.8453V47.2289Z" fill="#333333"/>
<path d="M131 47.1948C131 47.587 130.64 47.962 130.173 47.962H129.885C129.507 47.962 129.201 47.6722 128.967 47.0755C128.967 47.0925 128.967 47.1096 128.949 47.1266C128.373 47.8086 127.564 48.1666 126.502 48.1666H126.142C124.757 48.1666 123.623 47.7404 122.778 46.905C121.932 46.0696 121.5 45.0466 121.5 43.8362V37.17C121.5 35.9936 121.95 34.9877 122.849 34.1523C123.767 33.3169 124.865 32.8906 126.142 32.8906H126.322C127.6 32.8906 128.697 33.3169 129.579 34.1523C130.479 34.9877 130.928 35.9936 130.928 37.17V37.7667C130.928 38.1929 130.55 38.5339 130.101 38.5339H128.589C128.139 38.5339 127.744 38.1247 127.744 37.7667V37.5621C127.744 36.5732 127.042 35.789 126.268 35.789C125.476 35.789 124.793 36.5732 124.793 37.5621V43.5463C124.793 44.6034 125.351 45.2683 126.268 45.2683C127.24 45.2683 127.744 44.6886 127.744 43.5463V42.9496C127.744 42.7791 127.654 42.7109 127.474 42.7109H126.664C126.25 42.7109 125.818 42.3529 125.818 41.9267V40.9549C125.818 40.5627 126.196 40.1876 126.664 40.1876H130.173C130.64 40.1876 131 40.5968 131 40.9549V47.1948Z" fill="#333333"/>
<path d="M143.268 44.0407C143.268 45.183 142.836 46.1548 141.954 46.9561C141.072 47.7575 140.029 48.1666 138.805 48.1666H138.194C136.952 48.1666 135.89 47.7575 135.009 46.9561C134.127 46.1548 133.695 45.166 133.695 44.0407V36.9824C133.695 35.8401 134.127 34.8854 135.009 34.0841C135.89 33.2828 136.952 32.8906 138.194 32.8906H138.805C140.047 32.8906 141.072 33.2828 141.954 34.0841C142.836 34.8854 143.268 35.8572 143.268 36.9824V44.0407ZM139.903 37.4257C139.903 36.4709 139.237 35.7549 138.517 35.7549C137.798 35.7549 137.078 36.488 137.078 37.4257V43.6657C137.078 44.6204 137.78 45.3024 138.517 45.3024C139.291 45.3024 139.903 44.6204 139.903 43.6657V37.4257Z" fill="#333333"/>
<path d="M152.463 47.2786C152.373 47.7389 152.085 47.9606 151.635 47.9606H149.296C148.882 47.9606 148.612 47.7389 148.504 47.2786L145.463 33.9633C145.445 33.9121 145.445 33.8269 145.445 33.7757C145.445 33.3154 145.679 33.0938 146.129 33.0938H147.766C148.216 33.0938 148.468 33.2983 148.576 33.6905L150.501 42.5901L152.391 33.6905C152.481 33.2983 152.768 33.0938 153.218 33.0938H154.838C155.287 33.0938 155.503 33.2983 155.503 33.7075C155.503 33.7757 155.485 33.878 155.467 33.9633L152.463 47.2786Z" fill="#333333"/>
</g>
</g>
<defs>
<filter id="filter0_d_1842_1080" x="0.226562" y="0" width="198" height="88" filterUnits="userSpaceOnUse" color-interpolation-filters="sRGB">
<feFlood flood-opacity="0" result="BackgroundImageFix"/>
<feColorMatrix in="SourceAlpha" type="matrix" values="0 0 0 0 0 0 0 0 0 0 0 0 0 0 0 0 0 0 127 0" result="hardAlpha"/>
<feOffset dy="4"/>
<feGaussianBlur stdDeviation="5"/>
<feComposite in2="hardAlpha" operator="out"/>
<feColorMatrix type="matrix" values="0 0 0 0 0 0 0 0 0 0 0 0 0 0 0 0 0 0 0.06 0"/>
<feBlend mode="normal" in2="BackgroundImageFix" result="effect1_dropShadow_1842_1080"/>
<feBlend mode="normal" in="SourceGraphic" in2="effect1_dropShadow_1842_1080" result="shape"/>
</filter>
<clipPath id="clip0_1842_1080">
<rect width="112.276" height="23.5278" fill="white" transform="translate(43.2266 29)"/>
</clipPath>
</defs>
</svg>
