<svg width="48" height="48" viewBox="0 0 48 48" fill="none" xmlns="http://www.w3.org/2000/svg">
<g clip-path="url(#clip0_2202_9047)">
<mask id="mask0_2202_9047" style="mask-type:luminance" maskUnits="userSpaceOnUse" x="0" y="0" width="48" height="48">
<path d="M48 0H0V48H48V0Z" fill="white"/>
</mask>
<g mask="url(#mask0_2202_9047)">
<path fill-rule="evenodd" clip-rule="evenodd" d="M3 21C3 16.8579 3 20.25 3 18H45C45 21.75 45 16.8579 45 21V22.5C45 24.9854 42.9854 27 40.5 27H32.4854C31.2918 27 30.1472 27.4742 29.3032 28.3181L25.1186 32.5028C23.7489 33.8724 23.4095 35.9648 24.2757 37.6973L25.3416 39.8292C25.5741 40.2942 25.5493 40.8463 25.2759 41.2885C25.0026 41.7307 24.5199 42 24 42H10.5C6.35787 42 3 38.6421 3 34.5V21Z" fill="url(#paint0_linear_2202_9047)"/>
<path fill-rule="evenodd" clip-rule="evenodd" d="M33.7738 39.4053C34.342 40.008 34.342 40.9854 33.7738 41.5881C33.2054 42.1908 32.284 42.1908 31.7158 41.5881L27.473 37.0881C26.9048 36.4854 26.9048 35.508 27.473 34.9053L31.7158 30.4053C32.284 29.8024 33.2054 29.8024 33.7736 30.4053C34.342 31.008 34.342 31.9854 33.7738 32.5881L30.56 35.9967L33.7738 39.4053ZM37.7158 32.5881C37.1474 31.9854 37.1474 31.0081 37.7158 30.4053C38.284 29.8026 39.2054 29.8026 39.7738 30.4053L44.0164 34.9053C44.5846 35.5081 44.5846 36.4854 44.0164 37.0881L39.7738 41.5881C39.2054 42.1909 38.284 42.1909 37.7158 41.5881C37.1474 40.9854 37.1474 40.008 37.7158 39.4053L40.9294 35.9967L37.7158 32.5881Z" fill="#333333"/>
<path fill-rule="evenodd" clip-rule="evenodd" d="M10.5 6C6.35787 6 3 9.35787 3 13.5V15H45V13.5C45 9.35787 41.6421 6 37.5 6H10.5ZM9 12C9.82842 12 10.5 11.3284 10.5 10.5C10.5 9.67158 9.82842 9 9 9C8.17158 9 7.5 9.67158 7.5 10.5C7.5 11.3284 8.17158 12 9 12ZM13.5 12C14.3284 12 15 11.3284 15 10.5C15 9.67158 14.3284 9 13.5 9C12.6716 9 12 9.67158 12 10.5C12 11.3284 12.6716 12 13.5 12ZM19.5 10.5C19.5 11.3284 18.8284 12 18 12C17.1716 12 16.5 11.3284 16.5 10.5C16.5 9.67158 17.1716 9 18 9C18.8284 9 19.5 9.67158 19.5 10.5Z" fill="url(#paint1_linear_2202_9047)"/>
</g>
</g>
<defs>
<linearGradient id="paint0_linear_2202_9047" x1="45.5" y1="18" x2="28.4248" y2="49.78" gradientUnits="userSpaceOnUse">
<stop stop-color="#C4B6FF"/>
<stop offset="0.0001" stop-color="#BEAFFF"/>
<stop offset="0.664151" stop-color="#2100A7"/>
<stop offset="1" stop-color="#282828"/>
</linearGradient>
<linearGradient id="paint1_linear_2202_9047" x1="41.5" y1="7.5" x2="39.213" y2="20.5554" gradientUnits="userSpaceOnUse">
<stop offset="0.15318" stop-color="#B4A3F9"/>
<stop offset="0.423575" stop-color="#664DCE"/>
<stop offset="0.612495" stop-color="#2606AA"/>
<stop offset="0.816229" stop-color="#271A5C"/>
<stop offset="1" stop-color="#282828"/>
</linearGradient>
<clipPath id="clip0_2202_9047">
<rect width="48" height="48" fill="white"/>
</clipPath>
</defs>
</svg>
