<svg width="48" height="48" viewBox="0 0 48 48" fill="none" xmlns="http://www.w3.org/2000/svg">
<g clip-path="url(#clip0_2202_9063)">
<path d="M20.2031 22.8203V24.0604C20.7113 24.0604 20.7926 23.8913 20.7926 23.4372C20.7926 22.9894 20.7184 22.8203 20.2031 22.8203Z" fill="#333333"/>
<path d="M24.0033 12.6094C17.7251 12.6094 12.6172 17.7184 12.6172 23.9985C12.6172 30.2779 17.7251 35.3869 24.0033 35.3869C30.2819 35.3869 35.3894 30.2779 35.3894 23.9985C35.3894 17.7184 30.2819 12.6094 24.0033 12.6094ZM18.4574 25.5731C18.4574 26.9017 17.9426 26.9494 16.7501 26.9494H15.7533V22.1235H16.7501C17.7056 22.1235 18.4574 22.137 18.4574 23.2961C18.4574 23.8316 18.3018 24.3127 17.6583 24.3739V24.4211C18.3764 24.4211 18.4574 24.9499 18.4574 25.5731ZM20.9568 26.9494C20.8214 26.7525 20.7941 26.4683 20.7941 26.2785V25.2551C20.7941 24.9165 20.5908 24.747 20.3876 24.747H20.2046V26.9498H19.1283V22.1235H20.2117C21.2819 22.1235 21.9194 22.2322 21.9194 23.2485C21.9194 23.8519 21.6686 24.2445 21.0584 24.3465V24.3604C21.6011 24.3739 21.9194 24.5771 21.9194 25.2686V26.2785C21.9194 26.4683 21.9532 26.7525 22.0886 26.9494H20.9568ZM24.3708 26.9494L24.2414 25.7629H23.6321L23.4491 26.9494H22.5007L23.3208 22.1235H24.8658L25.4891 26.9494H24.3708ZM29.1877 26.9494H27.7443L26.9103 22.9166H26.8968V26.9494H25.8783V22.1235H27.5744L28.2929 25.6339H28.3061V22.1235H29.1877V26.9494ZM30.9412 26.9494H29.6283V22.1235H30.9412C32.2012 22.1235 32.6283 22.3271 32.6283 23.7709V25.4918C32.6283 26.4071 32.3572 26.9494 30.9412 26.9494Z" fill="#333333"/>
<path d="M30.9049 22.8162V26.2594C31.4539 26.2594 31.5015 26.0491 31.5015 25.5886V23.6022C31.5015 22.9583 31.4749 22.8162 30.9049 22.8162ZM23.9482 22.8841L23.7521 25.0324H24.1586L23.9621 22.8841H23.9482ZM16.7344 22.8162V24.0837C17.0865 24.0634 17.3306 24.1786 17.3306 23.4533C17.3306 22.9786 17.2901 22.7824 16.7344 22.8162ZM16.7344 24.7744V26.2591C17.337 26.3134 17.3306 25.9677 17.3306 25.4659C17.3306 24.7816 17.2088 24.7744 16.7344 24.7744Z" fill="#333333"/>
<path d="M45.8959 19.3517C45.3255 18.5972 44.7855 17.8847 44.5849 17.2622C44.3666 16.5861 44.3842 15.6549 44.4034 14.6683C44.4341 13.0611 44.4683 11.2389 43.4239 9.78731C42.36 8.31506 40.6155 7.78331 39.0758 7.31456C38.1499 7.03294 37.2761 6.76706 36.7223 6.36056C36.1823 5.96456 35.6681 5.21531 35.124 4.42219C34.2041 3.08156 33.1624 1.56281 31.4224 0.992438C30.9746 0.845438 30.5066 0.773813 29.9925 0.773813C28.7996 0.773813 27.6532 1.17394 26.544 1.56169C25.6072 1.88756 24.7237 2.19619 24 2.19619C23.2759 2.19619 22.3924 1.88719 21.4564 1.56056C20.3482 1.17356 19.2026 0.773438 18.0112 0.773438C17.4975 0.773438 17.0291 0.844313 16.5791 0.991313C14.8369 1.56206 13.7944 3.08156 12.8745 4.42219C12.33 5.21531 11.8155 5.96494 11.2744 6.36206C10.7216 6.76744 9.84788 7.03331 8.92275 7.31531C7.3845 7.78406 5.6415 8.31506 4.57913 9.78394C3.53025 11.2386 3.56475 13.0614 3.59587 14.6698C3.61462 15.6557 3.633 16.5864 3.41513 17.2626C3.2145 17.8847 2.67488 18.5976 2.10413 19.3513C1.1175 20.6556 0 22.1323 0 23.9994C0 25.8658 1.11825 27.3433 2.1045 28.6476C2.67525 29.4021 3.2145 30.1146 3.41513 30.7359C3.63188 31.4102 3.61387 32.3409 3.59512 33.3261C3.56437 34.9348 3.5295 36.7581 4.57762 38.2119C5.63925 39.6834 7.38375 40.2137 8.92237 40.6817C9.84787 40.9629 10.7224 41.2288 11.2744 41.6346C11.8151 42.0317 12.3293 42.7813 12.8741 43.5748C13.794 44.9158 14.8365 46.4368 16.5769 47.0061C17.0276 47.1538 17.4956 47.2251 18.0079 47.2251C19.1981 47.2251 20.3438 46.8253 21.4519 46.4379C22.389 46.1109 23.2736 45.8027 24 45.8027C24.7237 45.8027 25.6065 46.1102 26.5414 46.4368C27.6502 46.8238 28.7977 47.2251 29.9917 47.2251C30.5059 47.2251 30.9746 47.1534 31.4235 47.0046C33.1609 46.4361 34.2034 44.9158 35.1236 43.5741C35.6678 42.7813 36.1819 42.0317 36.7234 41.6331C37.2743 41.2299 38.1488 40.9644 39.0746 40.6832C40.614 40.2152 42.3592 39.6846 43.4212 38.2142C44.4675 36.7588 44.433 34.9378 44.4026 33.3306C44.3831 32.3439 44.3662 31.4124 44.5845 30.7356C44.7844 30.1161 45.3236 29.4039 45.8929 28.6502C46.8817 27.3463 48 25.8669 48 23.9994C48 22.1327 46.8825 20.6556 45.8959 19.3517ZM36.1016 15.5874L37.3474 15.1269L37.6751 13.8411C37.7299 13.6273 37.8844 13.5947 38.0198 13.7676L38.8418 14.8093L40.1663 14.7227C40.3871 14.7077 40.4655 14.8446 40.3436 15.0276L39.606 16.1323L40.0973 17.3657C40.1782 17.5697 40.0729 17.6867 39.8617 17.6274L38.583 17.2682L37.5615 18.1172C37.3927 18.2571 37.2484 18.1937 37.2397 17.9736L37.1865 16.6468L36.0645 15.9377C35.88 15.8211 35.8961 15.6639 36.1016 15.5874ZM30.0919 10.5493L30.9405 9.52706L30.5816 8.24944C30.5224 8.03719 30.6394 7.93181 30.8434 8.01319L32.0756 8.50481L33.18 7.76719C33.363 7.64381 33.5002 7.72331 33.4849 7.94269L33.399 9.26794L34.4404 10.0907C34.6125 10.2268 34.5795 10.3809 34.368 10.4353L33.0806 10.7634L32.6198 12.0092C32.544 12.2147 32.3873 12.2323 32.2691 12.0463L31.56 10.9232L30.2336 10.8707C30.0154 10.8624 29.9516 10.7181 30.0919 10.5493ZM21.7511 6.61931L23.0644 6.42806L23.6516 5.23706C23.7495 5.03906 23.9066 5.03906 24.0037 5.23706L24.5918 6.42806L25.9046 6.61931C26.1225 6.65044 26.1709 6.80044 26.0138 6.95419L25.0635 7.88194L25.2878 9.19106C25.3252 9.40781 25.1977 9.50081 25.0024 9.39844L23.8279 8.78044L22.653 9.39844C22.458 9.50081 22.3305 9.40781 22.3676 9.19106L22.5922 7.88194L21.642 6.95419C21.4845 6.80081 21.5336 6.65044 21.7511 6.61931ZM13.1801 9.95906L14.2219 9.13744L14.1353 7.81219C14.1206 7.59169 14.2571 7.51294 14.4401 7.63594L15.5441 8.37356L16.7771 7.88194C16.9819 7.80019 17.0989 7.90594 17.0392 8.11781L16.6796 9.39581L17.5286 10.4177C17.6689 10.5868 17.6047 10.7312 17.385 10.7402L16.0586 10.7923L15.3502 11.9151C15.2329 12.1011 15.0761 12.0842 14.9993 11.8779L14.5391 10.6318L13.2529 10.3041C13.0402 10.2501 13.008 10.0956 13.1801 9.95906ZM7.35712 14.4954L8.682 14.5813L9.50362 13.5392C9.64013 13.3667 9.79425 13.3997 9.84863 13.6123L10.176 14.8989L11.4221 15.3598C11.6284 15.4359 11.6452 15.5927 11.4589 15.7108L10.3365 16.4196L10.2844 17.7459C10.2758 17.9661 10.1314 18.0302 9.96225 17.8899L8.94075 17.0402L7.6635 17.3998C7.45125 17.4594 7.3455 17.3424 7.42688 17.1377L7.9185 15.9051L7.18087 14.8007C7.05788 14.6169 7.137 14.4808 7.35712 14.4954ZM6.03338 26.2326L5.84288 24.9186L4.65225 24.3313C4.45425 24.2342 4.45425 24.0767 4.65225 23.9792L5.84288 23.3919L6.03338 22.0779C6.06525 21.8601 6.21562 21.8109 6.369 21.9688L7.29562 22.9194L8.60437 22.6948C8.82113 22.6573 8.91412 22.7852 8.81175 22.9806L8.19413 24.1554L8.81213 25.3307C8.91413 25.5253 8.82113 25.6528 8.60437 25.6161L7.29562 25.3918L6.369 26.3413C6.21525 26.4988 6.06525 26.4501 6.03338 26.2326ZM11.2905 32.9852L10.0451 33.4457L9.71737 34.7323C9.663 34.9457 9.50887 34.9787 9.37275 34.8058L8.55112 33.7641L7.22587 33.8507C7.00575 33.8653 6.927 33.7284 7.05 33.5458L7.78763 32.4411L7.29562 31.2084C7.21425 31.0033 7.32 30.8863 7.5315 30.9463L8.80912 31.3052L9.831 30.4562C9.99975 30.3159 10.1445 30.3793 10.1528 30.5998L10.2056 31.9262L11.3284 32.6353C11.514 32.7519 11.4967 32.9087 11.2905 32.9852ZM17.3014 38.0237L16.4528 39.0463L16.8116 40.3232C16.8713 40.5351 16.7542 40.6408 16.5499 40.5598L15.3173 40.0678L14.2133 40.8054C14.0303 40.9292 13.8934 40.8501 13.9084 40.6296L13.9946 39.3047L12.9525 38.4827C12.78 38.3462 12.813 38.1913 13.026 38.1373L14.3119 37.8096L14.7728 36.5638C14.8489 36.3579 15.0052 36.3403 15.123 36.5271L15.8325 37.6487L17.1585 37.7012C17.3775 37.7106 17.4416 37.8546 17.3014 38.0237ZM25.6418 41.9541L24.3289 42.1446L23.7416 43.3363C23.6449 43.5343 23.4862 43.5339 23.3899 43.3363L22.8026 42.1453L21.489 41.9541C21.2711 41.9218 21.2224 41.7718 21.3799 41.6184L22.3294 40.6907L22.1051 39.3816C22.0684 39.1656 22.1955 39.0718 22.3909 39.1742L23.5661 39.7918L24.7406 39.1734C24.9356 39.0718 25.0627 39.1648 25.0256 39.3816L24.8021 40.6907L25.7505 41.6177C25.9088 41.7726 25.8596 41.9218 25.6418 41.9541ZM34.212 38.6143L33.1714 39.4356L33.2576 40.7608C33.273 40.9817 33.1354 41.0604 32.9528 40.9378L31.8484 40.1998L30.6157 40.6914C30.4106 40.7728 30.294 40.6667 30.3536 40.4556L30.7125 39.1776L29.8635 38.1557C29.7236 37.9869 29.7874 37.8418 30.0071 37.8343L31.3342 37.7807L32.0419 36.6572C32.1592 36.4723 32.3164 36.4896 32.3929 36.6954L32.8538 37.9412L34.1393 38.2693C34.3526 38.3233 34.3849 38.4771 34.212 38.6143ZM24 36.9422C16.8529 36.9422 11.0599 31.1481 11.0599 23.9994C11.0599 16.8508 16.8529 11.0556 24 11.0556C31.1464 11.0556 36.9401 16.8504 36.9401 23.9994C36.9401 31.1481 31.1464 36.9422 24 36.9422ZM40.0373 34.0776L38.7116 33.9913L37.89 35.0334C37.7535 35.2056 37.5994 35.1722 37.5454 34.9603L37.2173 33.6737L35.9719 33.2128C35.766 33.1371 35.7484 32.9803 35.9344 32.8622L37.0571 32.1531L37.1092 30.8259C37.1179 30.6073 37.2626 30.5428 37.4306 30.6831L38.4533 31.5321L39.7298 31.1732C39.942 31.1132 40.0481 31.2309 39.9664 31.4353L39.4755 32.6679L40.2124 33.7719C40.3361 33.9561 40.2562 34.0922 40.0373 34.0776ZM42.7421 24.5938L41.5519 25.1814L41.3599 26.4958C41.328 26.7129 41.1776 26.7613 41.025 26.6046L40.0969 25.6539L38.7881 25.8782C38.5714 25.9157 38.4784 25.7889 38.5804 25.5932L39.198 24.4176L38.58 23.2419C38.4784 23.0481 38.5714 22.9206 38.7881 22.9573L40.0969 23.1812L41.0235 22.2321C41.1772 22.0738 41.3284 22.1233 41.3595 22.3404L41.5508 23.6541L42.7414 24.2417C42.9401 24.3388 42.9394 24.4967 42.7421 24.5938Z" fill="url(#paint0_linear_2202_9063)"/>
</g>
<defs>
<linearGradient id="paint0_linear_2202_9063" x1="34.4252" y1="11.2422" x2="12.6421" y2="40.6938" gradientUnits="userSpaceOnUse">
<stop offset="0.0927962" stop-color="#AC9CF6"/>
<stop offset="0.443149" stop-color="#2606AA"/>
<stop offset="1" stop-color="#292929"/>
</linearGradient>
<clipPath id="clip0_2202_9063">
<rect width="48" height="48" fill="white"/>
</clipPath>
</defs>
</svg>
