<svg width="48" height="48" viewBox="0 0 48 48" fill="none" xmlns="http://www.w3.org/2000/svg">
<path fill-rule="evenodd" clip-rule="evenodd" d="M10.5 6C8.51088 6 6.60322 6.79018 5.1967 8.1967C3.79018 9.60322 3 11.5109 3 13.5V34.5C3 36.4891 3.79018 38.3968 5.1967 39.8033C6.60322 41.2098 8.51088 42 10.5 42H24C24.3978 42 24.7794 41.842 25.0607 41.5607C25.342 41.2794 25.5 40.8978 25.5 40.5C25.5 40.1022 25.342 39.7206 25.0607 39.4393C24.7794 39.158 24.3978 39 24 39H10.5C9.30653 39 8.16193 38.5259 7.31802 37.682C6.47411 36.8381 6 35.6935 6 34.5V18H42V25.5C42 25.8978 42.158 26.2794 42.4393 26.5607C42.7206 26.842 43.1022 27 43.5 27C43.8978 27 44.2794 26.842 44.5607 26.5607C44.842 26.2794 45 25.8978 45 25.5V13.5C45 11.5109 44.2098 9.60322 42.8033 8.1967C41.3968 6.79018 39.4891 6 37.5 6H10.5ZM10.5 13.5C10.8978 13.5 11.2794 13.342 11.5607 13.0607C11.842 12.7794 12 12.3978 12 12C12 11.6022 11.842 11.2206 11.5607 10.9393C11.2794 10.658 10.8978 10.5 10.5 10.5C10.1022 10.5 9.72064 10.658 9.43934 10.9393C9.15804 11.2206 9 11.6022 9 12C9 12.3978 9.15804 12.7794 9.43934 13.0607C9.72064 13.342 10.1022 13.5 10.5 13.5ZM15 13.5C15.3978 13.5 15.7794 13.342 16.0607 13.0607C16.342 12.7794 16.5 12.3978 16.5 12C16.5 11.6022 16.342 11.2206 16.0607 10.9393C15.7794 10.658 15.3978 10.5 15 10.5C14.6022 10.5 14.2206 10.658 13.9393 10.9393C13.658 11.2206 13.5 11.6022 13.5 12C13.5 12.3978 13.658 12.7794 13.9393 13.0607C14.2206 13.342 14.6022 13.5 15 13.5ZM21 12C21 12.3978 20.842 12.7794 20.5607 13.0607C20.2794 13.342 19.8978 13.5 19.5 13.5C19.1022 13.5 18.7206 13.342 18.4393 13.0607C18.158 12.7794 18 12.3978 18 12C18 11.6022 18.158 11.2206 18.4393 10.9393C18.7206 10.658 19.1022 10.5 19.5 10.5C19.8978 10.5 20.2794 10.658 20.5607 10.9393C20.842 11.2206 21 11.6022 21 12Z" fill="url(#paint0_linear_2202_9071)"/>
<path d="M26.0011 26.5713C26.0011 26.4198 26.0613 26.2745 26.1685 26.1673C26.2756 26.0602 26.4209 26 26.5724 26H27.0729C27.9035 26 28.3811 26.5404 28.6576 27.0797C28.8461 27.4487 28.9821 27.8989 29.0952 28.2896H40.8578C41.0343 28.2897 41.2085 28.3306 41.3665 28.4093C41.5246 28.488 41.6622 28.6022 41.7687 28.743C41.8752 28.8838 41.9476 29.0474 41.9803 29.2209C42.0129 29.3943 42.0049 29.573 41.9569 29.7429L40.2477 35.7698C40.1117 36.2479 39.8235 36.6687 39.4268 36.9683C39.0301 37.2679 38.5465 37.4299 38.0494 37.4299H32.2463C31.7451 37.43 31.2577 37.2654 30.8592 36.9613C30.4607 36.6572 30.1733 36.2305 30.0412 35.7469L29.3077 33.0563C29.3035 33.0442 29.2997 33.032 29.2963 33.0197L28.1183 29.0243L28.004 28.6392C27.8898 28.2439 27.7892 27.8943 27.6384 27.6007C27.4568 27.2465 27.2899 27.1437 27.0717 27.1437H26.5713C26.4198 27.1437 26.2745 27.0835 26.1673 26.9764C26.0602 26.8692 26 26.7239 26 26.5724L26.0011 26.5713ZM32.2886 42C32.7432 42 33.1791 41.8194 33.5005 41.498C33.8219 41.1766 34.0025 40.7407 34.0025 40.2862C34.0025 39.8317 33.8219 39.3958 33.5005 39.0744C33.1791 38.753 32.7432 38.5724 32.2886 38.5724C31.8341 38.5724 31.3982 38.753 31.0768 39.0744C30.7554 39.3958 30.5748 39.8317 30.5748 40.2862C30.5748 40.7407 30.7554 41.1766 31.0768 41.498C31.3982 41.8194 31.8341 42 32.2886 42ZM38.0014 42C38.4559 42 38.8919 41.8194 39.2133 41.498C39.5347 41.1766 39.7152 40.7407 39.7152 40.2862C39.7152 39.8317 39.5347 39.3958 39.2133 39.0744C38.8919 38.753 38.4559 38.5724 38.0014 38.5724C37.5469 38.5724 37.1109 38.753 36.7895 39.0744C36.4681 39.3958 36.2876 39.8317 36.2876 40.2862C36.2876 40.7407 36.4681 41.1766 36.7895 41.498C37.1109 41.8194 37.5469 42 38.0014 42Z" fill="#333333"/>
<defs>
<linearGradient id="paint0_linear_2202_9071" x1="38.5" y1="10" x2="18.344" y2="39.2392" gradientUnits="userSpaceOnUse">
<stop stop-color="#9DE8EE"/>
<stop offset="0.0001" stop-color="#9DE8EE"/>
<stop offset="0.433154" stop-color="#FA7C0B"/>
<stop offset="1" stop-color="#9F8CED"/>
</linearGradient>
</defs>
</svg>
