<svg width="48" height="48" viewBox="0 0 48 48" fill="none" xmlns="http://www.w3.org/2000/svg">
<path fill-rule="evenodd" clip-rule="evenodd" d="M32.2738 40.9053C32.842 41.508 32.842 42.4854 32.2738 43.0881C31.7054 43.6908 30.784 43.6908 30.2158 43.0881L25.973 38.5881C25.4048 37.9854 25.4048 37.008 25.973 36.4053L30.2158 31.9053C30.784 31.3024 31.7054 31.3024 32.2736 31.9053C32.842 32.508 32.842 33.4854 32.2738 34.0881L29.06 37.4967L32.2738 40.9053ZM36.2158 34.0881C35.6474 33.4854 35.6474 32.5081 36.2158 31.9053C36.784 31.3026 37.7054 31.3026 38.2738 31.9053L42.5164 36.4053C43.0846 37.0081 43.0846 37.9854 42.5164 38.5881L38.2738 43.0881C37.7054 43.6909 36.784 43.6909 36.2158 43.0881C35.6474 42.4854 35.6474 41.508 36.2158 40.9053L39.4294 37.4967L36.2158 34.0881Z" fill="#333333"/>
<path fill-rule="evenodd" clip-rule="evenodd" d="M10.5 9C10.5 6.51471 12.5147 4.5 15 4.5H33C35.4853 4.5 37.5 6.51472 37.5 9V27C37.5 27.8284 36.8284 28.5 36 28.5H29.7426C29.3448 28.5 28.9634 28.6581 28.6819 28.9394L22.0896 35.5317C21.6332 35.9883 21.5199 36.6856 21.8086 37.2631L23.8416 41.3292C24.0741 41.7942 24.0494 42.3463 23.7761 42.7886C23.5026 43.2308 23.0199 43.5 22.5 43.5H15C12.5147 43.5 10.5 41.4854 10.5 39V9ZM19.5 7.5C18.6715 7.5 18 8.17158 18 9C18 9.82842 18.6715 10.5 19.5 10.5H28.5C29.3284 10.5 30 9.82842 30 9C30 8.17158 29.3284 7.5 28.5 7.5H19.5Z" fill="url(#paint0_linear_2202_9078)"/>
<defs>
<linearGradient id="paint0_linear_2202_9078" x1="34" y1="8" x2="7.81033" y2="32.2859" gradientUnits="userSpaceOnUse">
<stop offset="0.0001" stop-color="#B5A3FA"/>
<stop offset="0.203241" stop-color="#B5A3FA"/>
<stop offset="0.573905" stop-color="#2202A8"/>
<stop offset="1" stop-color="#282828"/>
</linearGradient>
</defs>
</svg>
