<svg width="23" height="23" viewBox="0 0 23 23" fill="none" xmlns="http://www.w3.org/2000/svg">
<path d="M7.33832 11.0562C7.33832 9.0294 8.98042 7.38595 11.0066 7.38595C13.0328 7.38595 14.6758 9.0294 14.6758 11.0562C14.6758 13.0829 13.0328 14.7264 11.0066 14.7264C8.98042 14.7264 7.33832 13.0829 7.33832 11.0562ZM5.35484 11.0562C5.35484 14.1785 7.88513 16.7096 11.0066 16.7096C14.1281 16.7096 16.6584 14.1785 16.6584 11.0562C16.6584 7.93379 14.1281 5.40278 11.0066 5.40278C7.88513 5.40278 5.35484 7.93379 5.35484 11.0562ZM15.5613 5.17862C15.5612 5.43992 15.6386 5.69539 15.7836 5.91271C15.9287 6.13003 16.1349 6.29946 16.3762 6.39955C16.6175 6.49964 16.883 6.52591 17.1393 6.47504C17.3955 6.42416 17.6309 6.29843 17.8157 6.11373C18.0005 5.92903 18.1263 5.69367 18.1774 5.43741C18.2285 5.18115 18.2024 4.9155 18.1026 4.67404C18.0027 4.43259 17.8335 4.22618 17.6163 4.08092C17.3992 3.93566 17.1439 3.85808 16.8826 3.85797H16.8821C16.5319 3.85814 16.1962 3.99731 15.9485 4.24493C15.7009 4.49255 15.5616 4.82836 15.5613 5.17862V5.17862ZM6.55993 20.0179C5.48683 19.969 4.90357 19.7902 4.51596 19.6391C4.00209 19.439 3.63544 19.2007 3.24994 18.8156C2.86445 18.4305 2.62582 18.0641 2.42665 17.5501C2.27555 17.1625 2.0968 16.5789 2.04802 15.5055C1.99466 14.345 1.98401 13.9964 1.98401 11.0563C1.98401 8.11611 1.99554 7.76847 2.04802 6.60698C2.09689 5.53357 2.27696 4.95111 2.42665 4.56242C2.6267 4.0484 2.86497 3.68164 3.24994 3.29603C3.63491 2.91043 4.00121 2.67173 4.51596 2.4725C4.9034 2.32136 5.48683 2.14256 6.55993 2.09377C7.72012 2.04039 8.06863 2.02973 11.0066 2.02973C13.9446 2.02973 14.2934 2.04127 15.4546 2.09377C16.5277 2.14265 17.11 2.32277 17.4986 2.4725C18.0124 2.67173 18.3791 2.91096 18.7646 3.29603C19.1501 3.68111 19.3878 4.0484 19.5879 4.56242C19.739 4.94997 19.9177 5.53357 19.9665 6.60698C20.0199 7.76847 20.0305 8.11611 20.0305 11.0563C20.0305 13.9964 20.0199 14.344 19.9665 15.5055C19.9176 16.5789 19.738 17.1624 19.5879 17.5501C19.3878 18.0641 19.1495 18.4309 18.7646 18.8156C18.3796 19.2003 18.0124 19.439 17.4986 19.6391C17.1111 19.7903 16.5277 19.9691 15.4546 20.0179C14.2944 20.0712 13.9459 20.0819 11.0066 20.0819C8.06731 20.0819 7.71976 20.0712 6.55993 20.0179V20.0179ZM6.4688 0.113062C5.29708 0.166437 4.49642 0.352282 3.79719 0.624444C3.07304 0.905502 2.46002 1.28256 1.84744 1.89436C1.23485 2.50615 0.858867 3.12032 0.57789 3.84467C0.305807 4.54454 0.120016 5.345 0.066656 6.51705C0.0124154 7.69096 0 8.06626 0 11.0562C0 14.0461 0.0124154 14.4214 0.066656 15.5953C0.120016 16.7674 0.305807 17.5678 0.57789 18.2677C0.858867 18.9916 1.23494 19.6064 1.84744 20.218C2.45993 20.8295 3.07304 21.206 3.79719 21.4879C4.49774 21.76 5.29708 21.9459 6.4688 21.9993C7.64298 22.0526 8.01756 22.0659 11.0066 22.0659C13.9956 22.0659 14.3708 22.0535 15.5444 21.9993C16.7162 21.9459 17.5163 21.76 18.216 21.4879C18.9397 21.206 19.5532 20.8298 20.1658 20.218C20.7783 19.6062 21.1535 18.9916 21.4353 18.2677C21.7074 17.5678 21.8941 16.7673 21.9465 15.5953C21.9999 14.4205 22.0123 14.0461 22.0123 11.0562C22.0123 8.06626 21.9999 7.69096 21.9465 6.51705C21.8932 5.34491 21.7074 4.5441 21.4353 3.84467C21.1535 3.12076 20.7774 2.50712 20.1658 1.89436C19.5541 1.2816 18.9397 0.905502 18.2169 0.624444C17.5163 0.352282 16.7161 0.165557 15.5453 0.113062C14.3717 0.0596865 13.9965 0.0463867 11.0075 0.0463867C8.01844 0.0463867 7.64298 0.0588058 6.4688 0.113062Z" fill="white"/>
<path d="M7.33832 11.0562C7.33832 9.0294 8.98042 7.38595 11.0066 7.38595C13.0328 7.38595 14.6758 9.0294 14.6758 11.0562C14.6758 13.0829 13.0328 14.7264 11.0066 14.7264C8.98042 14.7264 7.33832 13.0829 7.33832 11.0562ZM5.35484 11.0562C5.35484 14.1785 7.88513 16.7096 11.0066 16.7096C14.1281 16.7096 16.6584 14.1785 16.6584 11.0562C16.6584 7.93379 14.1281 5.40278 11.0066 5.40278C7.88513 5.40278 5.35484 7.93379 5.35484 11.0562ZM15.5613 5.17862C15.5612 5.43992 15.6386 5.69539 15.7836 5.91271C15.9287 6.13003 16.1349 6.29946 16.3762 6.39955C16.6175 6.49964 16.883 6.52591 17.1393 6.47504C17.3955 6.42416 17.6309 6.29843 17.8157 6.11373C18.0005 5.92903 18.1263 5.69367 18.1774 5.43741C18.2285 5.18115 18.2024 4.9155 18.1026 4.67404C18.0027 4.43259 17.8335 4.22618 17.6163 4.08092C17.3992 3.93566 17.1439 3.85808 16.8826 3.85797H16.8821C16.5319 3.85814 16.1962 3.99731 15.9485 4.24493C15.7009 4.49255 15.5616 4.82836 15.5613 5.17862V5.17862ZM6.55993 20.0179C5.48683 19.969 4.90357 19.7902 4.51596 19.6391C4.00209 19.439 3.63544 19.2007 3.24994 18.8156C2.86445 18.4305 2.62582 18.0641 2.42665 17.5501C2.27555 17.1625 2.0968 16.5789 2.04802 15.5055C1.99466 14.345 1.98401 13.9964 1.98401 11.0563C1.98401 8.11611 1.99554 7.76847 2.04802 6.60698C2.09689 5.53357 2.27696 4.95111 2.42665 4.56242C2.6267 4.0484 2.86497 3.68164 3.24994 3.29603C3.63491 2.91043 4.00121 2.67173 4.51596 2.4725C4.9034 2.32136 5.48683 2.14256 6.55993 2.09377C7.72012 2.04039 8.06863 2.02973 11.0066 2.02973C13.9446 2.02973 14.2934 2.04127 15.4546 2.09377C16.5277 2.14265 17.11 2.32277 17.4986 2.4725C18.0124 2.67173 18.3791 2.91096 18.7646 3.29603C19.1501 3.68111 19.3878 4.0484 19.5879 4.56242C19.739 4.94997 19.9177 5.53357 19.9665 6.60698C20.0199 7.76847 20.0305 8.11611 20.0305 11.0563C20.0305 13.9964 20.0199 14.344 19.9665 15.5055C19.9176 16.5789 19.738 17.1624 19.5879 17.5501C19.3878 18.0641 19.1495 18.4309 18.7646 18.8156C18.3796 19.2003 18.0124 19.439 17.4986 19.6391C17.1111 19.7903 16.5277 19.9691 15.4546 20.0179C14.2944 20.0712 13.9459 20.0819 11.0066 20.0819C8.06731 20.0819 7.71976 20.0712 6.55993 20.0179V20.0179ZM6.4688 0.113062C5.29708 0.166437 4.49642 0.352282 3.79719 0.624444C3.07304 0.905502 2.46002 1.28256 1.84744 1.89436C1.23485 2.50615 0.858867 3.12032 0.57789 3.84467C0.305807 4.54454 0.120016 5.345 0.066656 6.51705C0.0124154 7.69096 0 8.06626 0 11.0562C0 14.0461 0.0124154 14.4214 0.066656 15.5953C0.120016 16.7674 0.305807 17.5678 0.57789 18.2677C0.858867 18.9916 1.23494 19.6064 1.84744 20.218C2.45993 20.8295 3.07304 21.206 3.79719 21.4879C4.49774 21.76 5.29708 21.9459 6.4688 21.9993C7.64298 22.0526 8.01756 22.0659 11.0066 22.0659C13.9956 22.0659 14.3708 22.0535 15.5444 21.9993C16.7162 21.9459 17.5163 21.76 18.216 21.4879C18.9397 21.206 19.5532 20.8298 20.1658 20.218C20.7783 19.6062 21.1535 18.9916 21.4353 18.2677C21.7074 17.5678 21.8941 16.7673 21.9465 15.5953C21.9999 14.4205 22.0123 14.0461 22.0123 11.0562C22.0123 8.06626 21.9999 7.69096 21.9465 6.51705C21.8932 5.34491 21.7074 4.5441 21.4353 3.84467C21.1535 3.12076 20.7774 2.50712 20.1658 1.89436C19.5541 1.2816 18.9397 0.905502 18.2169 0.624444C17.5163 0.352282 16.7161 0.165557 15.5453 0.113062C14.3717 0.0596865 13.9965 0.0463867 11.0075 0.0463867C8.01844 0.0463867 7.64298 0.0588058 6.4688 0.113062Z" fill="white"/>
</svg>
