<svg width="28" height="28" viewBox="0 0 28 28" fill="none" xmlns="http://www.w3.org/2000/svg">
<path d="M13.8645 27.1163C6.57916 27.1163 0.649414 21.1865 0.649414 13.9012C0.649414 6.61579 6.57916 0.686035 13.8645 0.686035C21.1499 0.686035 27.0796 6.61579 27.0796 13.9012C27.0796 21.1865 21.1499 27.1163 13.8645 27.1163ZM13.8645 2.81751C7.75147 2.81751 2.78088 7.78809 2.78088 13.9012C2.78088 20.0142 7.75147 24.9848 13.8645 24.9848C19.9776 24.9848 24.9482 20.0142 24.9482 13.9012C24.9482 7.78809 19.9776 2.81751 13.8645 2.81751Z" fill="white"/>
<path d="M10.0281 12.6009C7.53001 12.6009 4.82731 12.2301 1.94556 11.4798C1.37433 11.3306 1.03329 10.7508 1.18249 10.1796C1.3317 9.60835 1.91146 9.26731 2.48269 9.41652C11.2132 11.6844 18.0467 10.2478 22.2414 5.26868C22.6208 4.82107 23.2944 4.76139 23.742 5.14079C24.1939 5.52019 24.2493 6.19374 23.8699 6.64134C20.5405 10.5931 15.8342 12.6009 10.0281 12.6009Z" fill="white"/>
<path d="M4.70042 22.9427C4.45317 22.9427 4.21018 22.8575 4.00982 22.687C3.56221 22.3033 3.51106 21.6297 3.89046 21.1821C10.1229 13.8968 18.1884 12.166 26.0194 16.4417C26.5352 16.7231 26.727 17.3711 26.4457 17.8869C26.1643 18.4027 25.5164 18.5945 25.0005 18.3132C15.5965 13.1849 8.75447 18.7778 5.51038 22.5719C5.30149 22.8148 5.00309 22.9427 4.70042 22.9427Z" fill="white"/>
<path d="M17.356 26.6049C17.3176 26.6049 17.2792 26.6049 17.2409 26.6006C16.6568 26.5367 16.2348 26.0123 16.2987 25.4241C17.13 17.8019 15.1691 10.1158 10.4756 2.57043C10.1644 2.07167 10.3178 1.41518 10.8166 1.10398C11.3154 0.792786 11.9719 0.946252 12.2831 1.44502C17.2366 9.40393 19.2999 17.5504 18.4174 25.6585C18.3535 26.2042 17.8931 26.6049 17.356 26.6049Z" fill="white"/>
</svg>
