<svg width="44" height="44" viewBox="0 0 44 44" fill="none" xmlns="http://www.w3.org/2000/svg">
<path d="M32.92 15.0341C32.1935 15.347 31.4297 15.565 30.6476 15.6825C31.0132 15.6197 31.5513 14.9609 31.7655 14.6942C32.0909 14.292 32.3389 13.8328 32.4969 13.34C32.4969 13.3034 32.5334 13.2511 32.4969 13.225C32.4784 13.2149 32.4578 13.2096 32.4368 13.2096C32.4158 13.2096 32.3951 13.2149 32.3767 13.225C31.5274 13.6853 30.6235 14.0367 29.6863 14.2707C29.6537 14.2807 29.6189 14.2816 29.5858 14.2733C29.5526 14.265 29.5224 14.2479 29.4983 14.2237C29.4253 14.1367 29.3468 14.0546 29.2632 13.9779C28.881 13.6352 28.4473 13.3546 27.9781 13.1466C27.3447 12.8865 26.6605 12.7738 25.9773 12.8172C25.3143 12.8591 24.667 13.037 24.0757 13.34C23.4934 13.6595 22.9817 14.0934 22.5712 14.6158C22.1394 15.1535 21.8277 15.7775 21.657 16.4459C21.5162 17.0816 21.5003 17.7386 21.61 18.3805C21.61 18.4903 21.61 18.5059 21.516 18.4903C17.7912 17.9413 14.7352 16.6184 12.2381 13.7792C12.1284 13.6537 12.0709 13.6537 11.9821 13.7792C10.8955 15.4315 11.4231 18.0458 12.7814 19.3373C12.9642 19.5099 13.1523 19.6772 13.3508 19.834C12.728 19.7898 12.1205 19.6209 11.5642 19.3373C11.4597 19.2693 11.4022 19.3059 11.397 19.4314C11.3822 19.6054 11.3822 19.7803 11.397 19.9543C11.506 20.7881 11.8343 21.5779 12.3483 22.243C12.8623 22.9081 13.5436 23.4247 14.3225 23.7399C14.5123 23.8213 14.7102 23.8826 14.9128 23.9229C14.3363 24.0365 13.745 24.0541 13.1627 23.9751C13.0374 23.949 12.9903 24.017 13.0374 24.1372C13.8053 26.2287 15.4717 26.8666 16.6942 27.2221C16.8613 27.2483 17.0285 27.2483 17.2166 27.2901C17.2166 27.2901 17.2166 27.2901 17.1852 27.3215C16.8248 27.9803 15.3673 28.4247 14.6986 28.6548C13.4781 29.0936 12.1768 29.2613 10.885 29.1463C10.6813 29.1149 10.6343 29.1202 10.5821 29.1463C10.5298 29.1724 10.5821 29.23 10.6395 29.2822C10.9007 29.4548 11.1619 29.6064 11.4336 29.7528C12.2423 30.1943 13.0972 30.545 13.9829 30.7986C18.5696 32.0639 23.7309 31.1332 27.1736 27.7084C29.8796 25.0209 30.8304 21.3137 30.8304 17.6014C30.8304 17.4602 31.0028 17.3766 31.102 17.3034C31.7867 16.7695 32.3902 16.1389 32.8939 15.4315C32.9811 15.326 33.0258 15.1918 33.0193 15.055C33.0193 14.9766 33.0193 14.9923 32.92 15.0341Z" fill="white"/>
</svg>
