<svg width="44" height="44" viewBox="0 0 44 44" fill="none" xmlns="http://www.w3.org/2000/svg">
<path d="M16.9385 30.916V19.0303H12.9914V30.916H16.939H16.9385ZM14.9658 17.4078C16.342 17.4078 17.1987 16.4952 17.1987 15.3546C17.173 14.188 16.342 13.3008 14.992 13.3008C13.6411 13.3008 12.7588 14.188 12.7588 15.3545C12.7588 16.4951 13.6152 17.4077 14.94 17.4077H14.9655L14.9658 17.4078ZM19.1233 30.916H23.0701V24.2792C23.0701 23.9245 23.0959 23.5688 23.2002 23.3154C23.4854 22.6054 24.1348 21.8704 25.2254 21.8704C26.6533 21.8704 27.2248 22.9602 27.2248 24.5582V30.916H31.1715V24.1011C31.1715 20.4505 29.2246 18.7517 26.6278 18.7517C24.4987 18.7517 23.5637 19.9427 23.0442 20.7539H23.0704V19.0308H19.1235C19.1751 20.1458 19.1232 30.9164 19.1232 30.9164L19.1233 30.916Z" fill="white"/>
</svg>
