<svg width="1960" height="3847" viewBox="0 0 1960 3847" fill="none" xmlns="http://www.w3.org/2000/svg">
<rect width="1960" height="3847" fill="#4B5A69"/>
<mask id="mask0_0_134" style="mask-type:luminance" maskUnits="userSpaceOnUse" x="0" y="0" width="1960" height="3847">
<rect width="1960" height="3847" fill="white"/>
</mask>
<g mask="url(#mask0_0_134)">
<path opacity="0.01209" fill-rule="evenodd" clip-rule="evenodd" d="M1360.18 -1646.14L-406.842 459.714L-399.181 466.142L1367.84 -1639.71L1360.18 -1646.14ZM1375.18 -1633.14L-391.842 472.714L-384.181 479.142L1382.84 -1626.71L1375.18 -1633.14ZM-375.842 485.714L1391.18 -1620.14L1398.84 -1613.71L-368.181 492.142L-375.842 485.714ZM1406.18 -1607.14L-360.842 498.714L-353.181 505.142L1413.84 -1600.71L1406.18 -1607.14ZM-344.842 511.714L1422.18 -1594.14L1429.84 -1587.71L-337.181 518.142L-344.842 511.714ZM1437.18 -1581.14L-329.842 524.714L-322.181 531.142L1444.84 -1574.71L1437.18 -1581.14ZM-315.842 537.714L1451.18 -1568.14L1458.84 -1561.71L-308.181 544.142L-315.842 537.714ZM1468.18 -1555.14L-298.842 550.714L-291.181 557.142L1475.84 -1548.71L1468.18 -1555.14ZM-284.842 563.714L1482.18 -1542.14L1489.84 -1535.71L-277.181 570.142L-284.842 563.714ZM1499.18 -1529.14L-267.842 576.714L-260.181 583.142L1506.84 -1522.71L1499.18 -1529.14ZM-253.842 589.714L1513.18 -1516.14L1520.84 -1509.71L-246.181 596.142L-253.842 589.714ZM1530.18 -1503.14L-236.842 602.714L-229.181 609.142L1537.84 -1496.71L1530.18 -1503.14ZM-222.842 615.714L1544.18 -1490.14L1551.84 -1483.71L-215.181 622.142L-222.842 615.714ZM1559.18 -1477.14L-207.842 628.714L-200.181 635.142L1566.84 -1470.71L1559.18 -1477.14ZM-191.842 641.714L1575.18 -1464.14L1582.84 -1457.71L-184.181 648.142L-191.842 641.714ZM1591.18 -1452.14L-175.842 653.714L-168.181 660.142L1598.84 -1445.71L1591.18 -1452.14ZM-159.842 666.714L1607.18 -1439.14L1614.84 -1432.71L-152.181 673.142L-159.842 666.714ZM1622.18 -1426.14L-144.842 679.714L-137.181 686.142L1629.84 -1419.71L1622.18 -1426.14ZM-129.842 692.714L1637.18 -1413.14L1644.84 -1406.71L-122.181 699.142L-129.842 692.714ZM1653.18 -1400.14L-113.842 705.714L-106.181 712.142L1660.84 -1393.71L1653.18 -1400.14ZM-98.8418 718.714L1668.18 -1387.14L1675.84 -1380.71L-91.1814 725.142L-98.8418 718.714ZM1684.18 -1374.14L-82.8418 731.714L-75.1814 738.142L1691.84 -1367.71L1684.18 -1374.14ZM-67.8418 744.714L1699.18 -1361.14L1706.84 -1354.71L-60.1813 751.142L-67.8418 744.714ZM1715.18 -1348.14L-51.8418 757.714L-44.1813 764.142L1722.84 -1341.71L1715.18 -1348.14ZM-36.8418 770.714L1730.18 -1335.14L1737.84 -1328.71L-29.1814 777.142L-36.8418 770.714ZM1744.18 -1322.14L-22.8418 783.714L-15.1813 790.142L1751.84 -1315.71L1744.18 -1322.14ZM-5.84181 796.714L1761.18 -1309.14L1768.84 -1302.71L1.81863 803.142L-5.84181 796.714ZM1775.18 -1296.14L8.15819 809.714L15.8186 816.142L1782.84 -1289.71L1775.18 -1296.14ZM25.1582 822.714L1792.18 -1283.14L1799.84 -1276.71L32.8187 829.142L25.1582 822.714ZM1806.18 -1270.14L39.1582 835.714L46.8186 842.142L1813.84 -1263.71L1806.18 -1270.14ZM56.1582 848.714L1823.18 -1257.14L1830.84 -1250.71L63.8187 855.142L56.1582 848.714ZM1837.18 -1244.14L70.1582 861.714L77.8187 868.142L1844.84 -1237.71L1837.18 -1244.14ZM86.1582 873.714L1853.18 -1232.14L1860.84 -1225.71L93.8187 880.142L86.1582 873.714ZM1869.18 -1219.14L102.158 886.714L109.819 893.142L1876.84 -1212.71L1869.18 -1219.14ZM117.158 899.714L1884.18 -1206.14L1891.84 -1199.71L124.819 906.142L117.158 899.714ZM1900.18 -1193.14L133.158 912.714L140.819 919.142L1907.84 -1186.71L1900.18 -1193.14ZM148.158 925.714L1915.18 -1180.14L1922.84 -1173.71L155.819 932.142L148.158 925.714ZM1929.18 -1167.14L162.158 938.714L169.819 945.142L1936.84 -1160.71L1929.18 -1167.14ZM179.158 951.714L1946.18 -1154.14L1953.84 -1147.71L186.819 958.142L179.158 951.714ZM1960.18 -1141.14L193.158 964.714L200.819 971.142L1967.84 -1134.71L1960.18 -1141.14ZM210.158 977.714L1977.18 -1128.14L1984.84 -1121.71L217.819 984.142L210.158 977.714ZM1991.18 -1115.14L224.158 990.714L231.819 997.142L1998.84 -1108.71L1991.18 -1115.14ZM241.158 1003.71L2008.18 -1102.14L2015.84 -1095.71L248.819 1010.14L241.158 1003.71ZM2022.18 -1089.14L255.158 1016.71L262.819 1023.14L2029.84 -1082.71L2022.18 -1089.14ZM270.158 1029.71L2037.18 -1076.14L2044.84 -1069.71L277.819 1036.14L270.158 1029.71ZM2053.18 -1063.14L286.158 1042.71L293.819 1049.14L2060.84 -1056.71L2053.18 -1063.14ZM301.158 1055.71L2068.18 -1050.14L2075.84 -1043.71L308.819 1062.14L301.158 1055.71ZM2084.18 -1037.14L317.158 1068.71L324.819 1075.14L2091.84 -1030.71L2084.18 -1037.14ZM333.158 1080.71L2100.18 -1025.14L2107.84 -1018.71L340.819 1087.14L333.158 1080.71ZM2116.18 -1012.14L349.158 1093.71L356.819 1100.14L2123.84 -1005.71L2116.18 -1012.14ZM364.158 1106.71L2131.18 -999.142L2138.84 -992.714L371.819 1113.14L364.158 1106.71ZM2146.18 -986.142L379.158 1119.71L386.819 1126.14L2153.84 -979.714L2146.18 -986.142ZM395.158 1132.71L2162.18 -973.142L2169.84 -966.714L402.819 1139.14L395.158 1132.71ZM2177.18 -960.142L410.158 1145.71L417.819 1152.14L2184.84 -953.714L2177.18 -960.142ZM426.158 1158.71L2193.18 -947.142L2200.84 -940.714L433.819 1165.14L426.158 1158.71ZM2208.18 -934.142L441.158 1171.71L448.819 1178.14L2215.84 -927.714L2208.18 -934.142ZM455.158 1184.71L2222.18 -921.142L2229.84 -914.714L462.819 1191.14L455.158 1184.71ZM2239.18 -908.142L472.158 1197.71L479.819 1204.14L2246.84 -901.714L2239.18 -908.142ZM486.158 1210.71L2253.18 -895.142L2260.84 -888.714L493.819 1217.14L486.158 1210.71ZM2270.18 -882.142L503.158 1223.71L510.819 1230.14L2277.84 -875.714L2270.18 -882.142ZM517.158 1236.71L2284.18 -869.142L2291.84 -862.714L524.819 1243.14L517.158 1236.71ZM2301.18 -856.142L534.158 1249.71L541.819 1256.14L2308.84 -849.714L2301.18 -856.142ZM548.158 1262.71L2315.18 -843.142L2322.84 -836.714L555.819 1269.14L548.158 1262.71ZM2330.18 -830.142L563.158 1275.71L570.819 1282.14L2337.84 -823.714L2330.18 -830.142ZM579.158 1288.71L2346.18 -817.142L2353.84 -810.714L586.819 1295.14L579.158 1288.71ZM2362.18 -805.142L595.158 1300.71L602.819 1307.14L2369.84 -798.714L2362.18 -805.142ZM611.158 1313.71L2378.18 -792.142L2385.84 -785.714L618.819 1320.14L611.158 1313.71ZM2393.18 -779.142L626.158 1326.71L633.819 1333.14L2400.84 -772.714L2393.18 -779.142ZM641.158 1339.71L2408.18 -766.142L2415.84 -759.714L648.819 1346.14L641.158 1339.71ZM2424.18 -753.142L657.158 1352.71L664.819 1359.14L2431.84 -746.714L2424.18 -753.142ZM672.158 1365.71L2439.18 -740.142L2446.84 -733.714L679.819 1372.14L672.158 1365.71ZM2455.18 -727.142L688.158 1378.71L695.819 1385.14L2462.84 -720.714L2455.18 -727.142ZM703.158 1391.71L2470.18 -714.142L2477.84 -707.714L710.819 1398.14L703.158 1391.71ZM2486.18 -701.142L719.158 1404.71L726.819 1411.14L2493.84 -694.714L2486.18 -701.142ZM734.158 1417.71L2501.18 -688.142L2508.84 -681.714L741.819 1424.14L734.158 1417.71ZM2515.18 -675.142L748.158 1430.71L755.819 1437.14L2522.84 -668.714L2515.18 -675.142ZM765.158 1443.71L2532.18 -662.142L2539.84 -655.714L772.819 1450.14L765.158 1443.71ZM2546.18 -649.142L779.158 1456.71L786.819 1463.14L2553.84 -642.714L2546.18 -649.142ZM796.158 1469.71L2563.18 -636.142L2570.84 -629.714L803.819 1476.14L796.158 1469.71ZM2577.18 -623.142L810.158 1482.71L817.819 1489.14L2584.84 -616.714L2577.18 -623.142ZM827.158 1495.71L2594.18 -610.142L2601.84 -603.714L834.819 1502.14L827.158 1495.71ZM2609.18 -598.142L842.158 1507.71L849.819 1514.14L2616.84 -591.714L2609.18 -598.142ZM857.158 1520.71L2624.18 -585.142L2631.84 -578.714L864.819 1527.14L857.158 1520.71ZM2640.18 -572.142L873.158 1533.71L880.819 1540.14L2647.84 -565.714L2640.18 -572.142ZM888.158 1546.71L2655.18 -559.142L2662.84 -552.714L895.819 1553.14L888.158 1546.71ZM2671.18 -546.142L904.158 1559.71L911.819 1566.14L2678.84 -539.714L2671.18 -546.142ZM919.158 1572.71L2686.18 -533.142L2693.84 -526.714L926.819 1579.14L919.158 1572.71ZM2700.18 -520.142L933.158 1585.71L940.819 1592.14L2707.84 -513.714L2700.18 -520.142ZM950.158 1598.71L2717.18 -507.142L2724.84 -500.714L957.819 1605.14L950.158 1598.71ZM2731.18 -494.142L964.158 1611.71L971.819 1618.14L2738.84 -487.714L2731.18 -494.142ZM981.158 1624.71L2748.18 -481.142L2755.84 -474.714L988.819 1631.14L981.158 1624.71ZM2762.18 -468.142L995.158 1637.71L1002.82 1644.14L2769.84 -461.714L2762.18 -468.142ZM1012.16 1650.71L2779.18 -455.142L2786.84 -448.714L1019.82 1657.14L1012.16 1650.71ZM2793.18 -442.142L1026.16 1663.71L1033.82 1670.14L2800.84 -435.714L2793.18 -442.142ZM1041.16 1676.71L2808.18 -429.142L2815.84 -422.714L1048.82 1683.14L1041.16 1676.71ZM2824.18 -416.142L1057.16 1689.71L1064.82 1696.14L2831.84 -409.714L2824.18 -416.142ZM1072.16 1702.71L2839.18 -403.142L2846.84 -396.714L1079.82 1709.14L1072.16 1702.71ZM2855.18 -390.142L1088.16 1715.71L1095.82 1722.14L2862.84 -383.714L2855.18 -390.142ZM1104.16 1727.71L2871.18 -378.142L2878.84 -371.714L1111.82 1734.14L1104.16 1727.71ZM2887.18 -365.142L1120.16 1740.71L1127.82 1747.14L2894.84 -358.714L2887.18 -365.142ZM1135.16 1753.71L2902.18 -352.142L2909.84 -345.714L1142.82 1760.14L1135.16 1753.71ZM2917.18 -339.142L1150.16 1766.71L1157.82 1773.14L2924.84 -332.714L2917.18 -339.142ZM1166.16 1779.71L2933.18 -326.142L2940.84 -319.714L1173.82 1786.14L1166.16 1779.71ZM2948.18 -313.142L1181.16 1792.71L1188.82 1799.14L2955.84 -306.714L2948.18 -313.142ZM1197.16 1805.71L2964.18 -300.142L2971.84 -293.714L1204.82 1812.14L1197.16 1805.71ZM2979.18 -287.142L1212.16 1818.71L1219.82 1825.14L2986.84 -280.714L2979.18 -287.142ZM1226.16 1831.71L2993.18 -274.142L3000.84 -267.714L1233.82 1838.14L1226.16 1831.71ZM3010.18 -261.142L1243.16 1844.71L1250.82 1851.14L3017.84 -254.714L3010.18 -261.142ZM1257.16 1857.71L3024.18 -248.142L3031.84 -241.714L1264.82 1864.14L1257.16 1857.71ZM3041.18 -235.142L1274.16 1870.71L1281.82 1877.14L3048.84 -228.714L3041.18 -235.142ZM1288.16 1883.71L3055.18 -222.142L3062.84 -215.714L1295.82 1890.14L1288.16 1883.71ZM3072.18 -209.142L1305.16 1896.71L1312.82 1903.14L3079.84 -202.714L3072.18 -209.142ZM1319.16 1909.71L3086.18 -196.142L3093.84 -189.714L1326.82 1916.14L1319.16 1909.71ZM3101.18 -183.142L1334.16 1922.71L1341.82 1929.14L3108.84 -176.714L3101.18 -183.142ZM1351.16 1934.71L3118.18 -171.142L3125.84 -164.714L1358.82 1941.14L1351.16 1934.71ZM3133.18 -158.142L1366.16 1947.71L1373.82 1954.14L3140.84 -151.714L3133.18 -158.142ZM1382.16 1960.71L3149.18 -145.142L3156.84 -138.714L1389.82 1967.14L1382.16 1960.71ZM3164.18 -132.142L1397.16 1973.71L1404.82 1980.14L3171.84 -125.714L3164.18 -132.142ZM1413.16 1986.71L3180.18 -119.142L3187.84 -112.714L1420.82 1993.14L1413.16 1986.71ZM3195.18 -106.142L1428.16 1999.71L1435.82 2006.14L3202.84 -99.714L3195.18 -106.142ZM1442.16 2012.71L3209.18 -93.142L3216.84 -86.7141L1449.82 2019.14L1442.16 2012.71ZM3226.18 -80.1418L1459.16 2025.71L1466.82 2032.14L3233.84 -73.7139L3226.18 -80.1418ZM1473.16 2038.71L3240.18 -67.1419L3247.84 -60.714L1480.82 2045.14L1473.16 2038.71ZM3257.18 -54.1419L1490.16 2051.71L1497.82 2058.14L3264.84 -47.714L3257.18 -54.1419ZM1504.16 2064.71L3271.18 -41.142L3278.84 -34.7141L1511.82 2071.14L1504.16 2064.71ZM3286.18 -28.1419L1519.16 2077.71L1526.82 2084.14L3293.84 -21.714L3286.18 -28.1419ZM1536.16 2090.71L3303.18 -15.1419L3310.84 -8.71406L1543.82 2097.14L1536.16 2090.71ZM3317.18 -2.14184L1550.16 2103.71L1557.82 2110.14L3324.84 4.28603L3317.18 -2.14184ZM1567.16 2116.71L3334.18 10.858L3341.84 17.2858L1574.82 2123.14L1567.16 2116.71ZM3348.18 23.8581L1581.16 2129.71L1588.82 2136.14L3355.84 30.2859L3348.18 23.8581ZM1598.16 2142.71L3365.18 36.858L3372.84 43.2859L1605.82 2149.14L1598.16 2142.71ZM3380.18 48.8581L1613.16 2154.71L1620.82 2161.14L3387.84 55.2859L3380.18 48.8581ZM1628.16 2167.71L3395.18 61.8582L3402.84 68.286L1635.82 2174.14L1628.16 2167.71ZM3411.18 74.858L1644.16 2180.71L1651.82 2187.14L3418.84 81.2858L3411.18 74.858ZM1659.16 2193.71L3426.18 87.8581L3433.84 94.2859L1666.82 2200.14L1659.16 2193.71ZM3442.18 100.858L1675.16 2206.71L1682.82 2213.14L3449.84 107.286L3442.18 100.858ZM1690.16 2219.71L3457.18 113.858L3464.84 120.286L1697.82 2226.14L1690.16 2219.71ZM3473.18 126.858L1706.16 2232.71L1713.82 2239.14L3480.84 133.286L3473.18 126.858ZM1721.16 2245.71L3488.18 139.858L3495.84 146.286L1728.82 2252.14L1721.16 2245.71ZM3502.18 152.858L1735.16 2258.71L1742.82 2265.14L3509.84 159.286L3502.18 152.858ZM1752.16 2271.71L3519.18 165.858L3526.84 172.286L1759.82 2278.14L1752.16 2271.71ZM3533.18 178.858L1766.16 2284.71L1773.82 2291.14L3540.84 185.286L3533.18 178.858ZM1783.16 2297.71L3550.18 191.858L3557.84 198.286L1790.82 2304.14L1783.16 2297.71ZM3564.18 204.858L1797.16 2310.71L1804.82 2317.14L3571.84 211.286L3564.18 204.858ZM1812.16 2323.71L3579.18 217.858L3586.84 224.286L1819.82 2330.14L1812.16 2323.71ZM3595.18 230.858L1828.16 2336.71L1835.82 2343.14L3602.84 237.286L3595.18 230.858ZM1843.16 2349.71L3610.18 243.858L3617.84 250.286L1850.82 2356.14L1843.16 2349.71ZM3627.18 255.858L1860.16 2361.71L1867.82 2368.14L3634.84 262.286L3627.18 255.858ZM1875.16 2374.71L3642.18 268.858L3649.84 275.286L1882.82 2381.14L1875.16 2374.71ZM3658.18 281.858L1891.16 2387.71L1898.82 2394.14L3665.84 288.286L3658.18 281.858ZM1906.16 2400.71L3673.18 294.858L3680.84 301.286L1913.82 2407.14L1906.16 2400.71ZM3688.18 307.858L1921.16 2413.71L1928.82 2420.14L3695.84 314.286L3688.18 307.858ZM1937.16 2426.71L3704.18 320.858L3711.84 327.286L1944.82 2433.14L1937.16 2426.71ZM3719.18 333.858L1952.16 2439.71L1959.82 2446.14L3726.84 340.286L3719.18 333.858ZM1968.16 2452.71L3735.18 346.858L3742.84 353.286L1975.82 2459.14L1968.16 2452.71ZM3750.18 359.858L1983.16 2465.71L1990.82 2472.14L3757.84 366.286L3750.18 359.858ZM1999.16 2478.71L3766.18 372.858L3773.84 379.286L2006.82 2485.14L1999.16 2478.71ZM3781.18 385.858L2014.16 2491.71L2021.82 2498.14L3788.84 392.286L3781.18 385.858ZM2028.16 2504.71L3795.18 398.858L3802.84 405.286L2035.82 2511.14L2028.16 2504.71ZM3812.18 411.858L2045.16 2517.71L2052.82 2524.14L3819.84 418.286L3812.18 411.858Z" fill="white"/>
<path opacity="0.01209" fill-rule="evenodd" clip-rule="evenodd" d="M-158.807 666.845L-1810.49 2635.24L-1802.83 2641.67L-151.146 673.272L-158.807 666.845ZM-143.794 679.829L-1795.47 2648.22L-1787.81 2654.65L-136.133 686.257L-143.794 679.829ZM-1779.49 2661.24L-127.807 692.845L-120.147 699.273L-1771.83 2667.67L-1779.49 2661.24ZM-112.794 705.829L-1764.47 2674.22L-1756.81 2680.65L-105.133 712.257L-112.794 705.829ZM-1748.49 2687.24L-96.8076 718.845L-89.1472 725.273L-1740.83 2693.67L-1748.49 2687.24ZM-81.7944 731.83L-1733.47 2700.23L-1725.81 2706.65L-74.1339 738.258L-81.7944 731.83ZM-1719.43 2713.18L-67.7542 744.782L-60.0937 751.21L-1711.77 2719.61L-1719.43 2713.18ZM-50.7949 757.83L-1702.47 2726.23L-1694.81 2732.65L-43.1344 764.258L-50.7949 757.83ZM-1688.43 2739.18L-36.7545 770.782L-29.094 777.21L-1680.77 2745.61L-1688.43 2739.18ZM-19.7952 783.831L-1671.48 2752.23L-1663.81 2758.65L-12.1347 790.258L-19.7952 783.831ZM-1657.43 2765.18L-5.75494 796.783L1.90551 803.21L-1649.77 2771.61L-1657.43 2765.18ZM11.2044 809.831L-1640.48 2778.23L-1632.82 2784.65L18.8648 816.259L11.2044 809.831ZM-1626.44 2791.18L25.2448 822.783L32.9052 829.211L-1618.77 2797.61L-1626.44 2791.18ZM40.258 835.767L-1611.42 2804.16L-1603.76 2810.59L47.9185 842.195L40.258 835.767ZM-1595.44 2817.18L56.2443 848.784L63.9048 855.211L-1587.78 2823.61L-1595.44 2817.18ZM72.1985 860.838L-1579.48 2829.23L-1571.82 2835.66L79.8589 867.266L72.1985 860.838ZM-1563.5 2842.25L88.1847 873.854L95.8452 880.282L-1555.83 2848.68L-1563.5 2842.25ZM103.198 886.838L-1548.48 2855.23L-1540.82 2861.66L110.859 893.266L103.198 886.838ZM-1533.47 2868.22L118.211 899.823L125.872 906.251L-1525.81 2874.65L-1533.47 2868.22ZM134.198 912.839L-1517.48 2881.23L-1509.82 2887.66L141.858 919.267L134.198 912.839ZM-1502.47 2894.22L149.211 925.823L156.871 932.251L-1494.81 2900.65L-1502.47 2894.22ZM165.197 938.839L-1486.48 2907.24L-1478.82 2913.66L172.858 945.267L165.197 938.839ZM-1471.47 2920.22L180.211 951.824L187.871 958.251L-1463.81 2926.65L-1471.47 2920.22ZM196.197 964.84L-1455.48 2933.24L-1447.82 2939.66L203.857 971.268L196.197 964.84ZM-1440.47 2946.22L211.21 977.824L218.871 984.252L-1432.81 2952.65L-1440.47 2946.22ZM225.251 990.776L-1426.43 2959.17L-1418.77 2965.6L232.911 997.204L225.251 990.776ZM-1409.47 2972.22L242.21 1003.82L249.87 1010.25L-1401.81 2978.65L-1409.47 2972.22ZM256.25 1016.78L-1395.43 2985.17L-1387.77 2991.6L263.911 1023.2L256.25 1016.78ZM-1378.47 2998.22L273.209 1029.83L280.87 1036.25L-1370.81 3004.65L-1378.47 2998.22ZM287.25 1042.78L-1364.43 3011.17L-1356.77 3017.6L294.91 1049.21L287.25 1042.78ZM-1347.47 3024.22L304.209 1055.83L311.87 1062.25L-1339.81 3030.65L-1347.47 3024.22ZM318.249 1068.78L-1333.43 3037.17L-1325.77 3043.6L325.91 1075.21L318.249 1068.78ZM-1317.48 3049.23L334.204 1080.83L341.864 1087.26L-1309.82 3055.66L-1317.48 3049.23ZM350.19 1093.85L-1301.49 3062.24L-1293.83 3068.67L357.85 1100.28L350.19 1093.85ZM-1286.48 3075.23L365.203 1106.83L372.863 1113.26L-1278.82 3081.66L-1286.48 3075.23ZM381.189 1119.85L-1270.49 3088.24L-1262.83 3094.67L388.85 1126.28L381.189 1119.85ZM-1255.48 3101.23L396.203 1132.83L403.863 1139.26L-1247.82 3107.66L-1255.48 3101.23ZM410.243 1145.79L-1241.44 3114.18L-1233.78 3120.61L417.903 1152.21L410.243 1145.79ZM-1224.48 3127.23L427.202 1158.83L434.863 1165.26L-1216.82 3133.66L-1224.48 3127.23ZM441.243 1171.79L-1210.44 3140.18L-1202.78 3146.61L448.903 1178.21L441.243 1171.79ZM-1193.48 3153.23L458.202 1184.83L465.862 1191.26L-1185.82 3159.66L-1193.48 3153.23ZM472.242 1197.79L-1179.44 3166.18L-1171.78 3172.61L479.903 1204.21L472.242 1197.79ZM-1162.48 3179.23L489.202 1210.83L496.862 1217.26L-1154.82 3185.66L-1162.48 3179.23ZM503.242 1223.79L-1148.44 3192.18L-1140.78 3198.61L510.902 1230.21L503.242 1223.79ZM-1133.42 3205.17L518.255 1236.77L525.916 1243.2L-1125.76 3211.59L-1133.42 3205.17ZM534.241 1249.79L-1117.44 3218.18L-1109.78 3224.61L541.902 1256.21L534.241 1249.79ZM-1102.43 3231.17L549.255 1262.77L556.915 1269.2L-1094.76 3237.59L-1102.43 3231.17ZM565.241 1275.79L-1086.44 3244.18L-1078.78 3250.61L572.901 1282.22L565.241 1275.79ZM-1070.48 3256.24L581.195 1287.84L588.856 1294.27L-1062.82 3262.67L-1070.48 3256.24ZM597.182 1300.86L-1054.5 3269.25L-1046.84 3275.68L604.842 1307.29L597.182 1300.86ZM-1039.49 3282.24L612.195 1313.84L619.855 1320.27L-1031.82 3288.67L-1039.49 3282.24ZM627.208 1326.83L-1024.47 3295.22L-1016.81 3301.65L634.869 1333.25L627.208 1326.83ZM-1008.49 3308.24L643.194 1339.84L650.855 1346.27L-1000.83 3314.67L-1008.49 3308.24ZM658.208 1352.83L-993.472 3321.22L-985.812 3327.65L665.868 1359.25L658.208 1352.83ZM-977.486 3334.24L674.194 1365.84L681.854 1372.27L-969.826 3340.67L-977.486 3334.24ZM689.207 1378.83L-962.473 3347.22L-954.812 3353.65L696.868 1385.26L689.207 1378.83ZM-948.432 3360.18L703.248 1391.78L710.908 1398.21L-940.772 3366.6L-948.432 3360.18ZM720.207 1404.83L-931.473 3373.22L-923.813 3379.65L727.867 1411.26L720.207 1404.83ZM-917.433 3386.18L734.247 1417.78L741.908 1424.21L-909.772 3392.6L-917.433 3386.18ZM751.207 1430.83L-900.473 3399.22L-892.813 3405.65L758.867 1437.26L751.207 1430.83ZM-886.433 3412.18L765.247 1443.78L772.907 1450.21L-878.773 3418.6L-886.433 3412.18ZM782.206 1456.83L-869.474 3425.22L-861.813 3431.65L789.867 1463.26L782.206 1456.83ZM-855.434 3438.18L796.246 1469.78L803.907 1476.21L-847.773 3444.6L-855.434 3438.18ZM811.26 1482.77L-840.42 3451.16L-832.76 3457.59L818.92 1489.19L811.26 1482.77ZM-824.434 3464.18L827.246 1495.78L834.906 1502.21L-816.774 3470.6L-824.434 3464.18ZM843.2 1507.84L-808.48 3476.23L-800.819 3482.66L850.861 1514.26L843.2 1507.84ZM-792.493 3489.25L859.186 1520.85L866.847 1527.28L-784.833 3495.68L-792.493 3489.25ZM874.2 1533.84L-777.48 3502.23L-769.82 3508.66L881.86 1540.26L874.2 1533.84ZM-762.467 3515.22L889.213 1546.82L896.874 1553.25L-754.807 3521.64L-762.467 3515.22ZM905.199 1559.84L-746.481 3528.23L-738.82 3534.66L912.86 1566.26L905.199 1559.84ZM-731.467 3541.22L920.213 1572.82L927.873 1579.25L-723.807 3547.64L-731.467 3541.22ZM936.199 1585.84L-715.481 3554.23L-707.821 3560.66L943.86 1592.27L936.199 1585.84ZM-700.468 3567.22L951.212 1598.82L958.873 1605.25L-692.807 3573.64L-700.468 3567.22ZM967.199 1611.84L-684.481 3580.23L-676.821 3586.66L974.859 1618.27L967.199 1611.84ZM-669.468 3593.22L982.212 1624.82L989.872 1631.25L-661.808 3599.65L-669.468 3593.22ZM996.252 1637.77L-655.428 3606.17L-647.767 3612.6L1003.91 1644.2L996.252 1637.77ZM-638.468 3619.22L1013.21 1650.82L1020.87 1657.25L-630.808 3625.65L-638.468 3619.22ZM1027.25 1663.77L-624.428 3632.17L-616.768 3638.6L1034.91 1670.2L1027.25 1663.77ZM-607.469 3645.22L1044.21 1676.82L1051.87 1683.25L-599.808 3651.65L-607.469 3645.22ZM1058.25 1689.77L-593.429 3658.17L-585.768 3664.6L1065.91 1696.2L1058.25 1689.77ZM-576.469 3671.22L1075.21 1702.82L1082.87 1709.25L-568.809 3677.65L-576.469 3671.22ZM1090.19 1714.85L-561.488 3683.24L-553.828 3689.67L1097.85 1721.27L1090.19 1714.85ZM-546.475 3696.23L1105.21 1727.83L1112.87 1734.26L-538.814 3702.65L-546.475 3696.23ZM1121.19 1740.85L-530.488 3709.24L-522.828 3715.67L1128.85 1747.27L1121.19 1740.85ZM-515.475 3722.23L1136.2 1753.83L1143.87 1760.26L-507.815 3728.65L-515.475 3722.23ZM1152.19 1766.85L-499.489 3735.24L-491.828 3741.67L1159.85 1773.27L1152.19 1766.85ZM-484.476 3748.23L1167.2 1779.83L1174.86 1786.26L-476.815 3754.65L-484.476 3748.23ZM1181.24 1792.78L-470.435 3761.18L-462.775 3767.61L1188.91 1799.21L1181.24 1792.78ZM-453.476 3774.23L1198.2 1805.83L1205.86 1812.26L-445.815 3780.65L-453.476 3774.23ZM1212.24 1818.78L-439.436 3787.18L-431.775 3793.61L1219.9 1825.21L1212.24 1818.78ZM-422.476 3800.23L1229.2 1831.83L1236.86 1838.26L-414.816 3806.66L-422.476 3800.23ZM1243.24 1844.78L-408.436 3813.18L-400.776 3819.61L1250.9 1851.21L1243.24 1844.78ZM-391.477 3826.23L1260.2 1857.83L1267.86 1864.26L-383.816 3832.66L-391.477 3826.23ZM1274.24 1870.78L-377.437 3839.18L-369.776 3845.61L1281.9 1877.21L1274.24 1870.78ZM-362.423 3852.16L1289.26 1883.77L1296.92 1890.2L-354.763 3858.59L-362.423 3852.16ZM1305.24 1896.78L-346.437 3865.18L-338.776 3871.61L1312.9 1903.21L1305.24 1896.78ZM-331.424 3878.16L1320.26 1909.77L1327.92 1916.2L-323.763 3884.59L-331.424 3878.16ZM1336.24 1922.79L-315.437 3891.18L-307.777 3897.61L1343.9 1929.21L1336.24 1922.79ZM-299.483 3903.24L1352.2 1934.84L1359.86 1941.27L-291.823 3909.66L-299.483 3903.24ZM1368.18 1947.86L-283.497 3916.25L-275.836 3922.68L1375.84 1954.28L1368.18 1947.86ZM-268.483 3929.24L1383.2 1960.84L1390.86 1967.27L-260.823 3935.66L-268.483 3929.24ZM1398.21 1973.82L-253.47 3942.22L-245.81 3948.65L1405.87 1980.25L1398.21 1973.82ZM-237.484 3955.24L1414.2 1986.84L1421.86 1993.27L-229.823 3961.66L-237.484 3955.24ZM1429.21 1999.82L-222.471 3968.22L-214.81 3974.65L1436.87 2006.25L1429.21 1999.82ZM-206.484 3981.24L1445.2 2012.84L1452.86 2019.27L-198.824 3987.66L-206.484 3981.24ZM1460.21 2025.83L-191.471 3994.22L-183.81 4000.65L1467.87 2032.25L1460.21 2025.83ZM-177.431 4007.17L1474.25 2038.78L1481.91 2045.21L-169.77 4013.6L-177.431 4007.17ZM1491.21 2051.83L-160.471 4020.22L-152.811 4026.65L1498.87 2058.25L1491.21 2051.83ZM-146.431 4033.17L1505.25 2064.78L1512.91 2071.21L-138.771 4039.6L-146.431 4033.17ZM1522.21 2077.83L-129.472 4046.22L-121.811 4052.65L1529.87 2084.25L1522.21 2077.83ZM-115.431 4059.17L1536.25 2090.78L1543.91 2097.21L-107.771 4065.6L-115.431 4059.17ZM1553.21 2103.83L-98.4722 4072.22L-90.8118 4078.65L1560.87 2110.25L1553.21 2103.83ZM-84.4317 4085.17L1567.25 2116.78L1574.91 2123.21L-76.7713 4091.6L-84.4317 4085.17ZM1582.26 2129.76L-69.4187 4098.16L-61.7582 4104.59L1589.92 2136.19L1582.26 2129.76ZM-52.4914 4110.25L1599.19 2141.85L1606.85 2148.28L-44.8309 4116.67L-52.4914 4110.25ZM1614.2 2154.83L-37.478 4123.23L-29.8176 4129.66L1621.86 2161.26L1614.2 2154.83ZM-21.4916 4136.25L1630.19 2167.85L1637.85 2174.28L-13.8312 4142.67L-21.4916 4136.25ZM1645.2 2180.83L-6.47858 4149.23L1.18186 4155.66L1652.86 2187.26L1645.2 2180.83ZM9.50783 4162.25L1661.19 2193.85L1668.85 2200.28L17.1683 4168.67L9.50783 4162.25ZM1676.2 2206.83L24.5211 4175.23L32.1816 4181.66L1683.86 2213.26L1676.2 2206.83ZM38.5613 4188.18L1690.24 2219.79L1697.9 2226.21L46.2218 4194.61L38.5613 4188.18ZM1707.2 2232.84L55.5209 4201.23L63.1813 4207.66L1714.86 2239.26L1707.2 2232.84ZM69.5611 4214.18L1721.24 2245.79L1728.9 2252.22L77.2215 4220.61L69.5611 4214.18ZM1738.2 2258.84L86.5203 4227.23L94.1808 4233.66L1745.86 2265.26L1738.2 2258.84ZM100.561 4240.18L1752.24 2271.79L1759.9 2278.22L108.221 4246.61L100.561 4240.18ZM1767.25 2284.77L115.574 4253.17L123.234 4259.6L1774.91 2291.2L1767.25 2284.77ZM132.533 4266.22L1784.21 2297.82L1791.87 2304.25L140.194 4272.64L132.533 4266.22ZM1798.25 2310.77L146.574 4279.17L154.234 4285.6L1805.91 2317.2L1798.25 2310.77ZM163.533 4292.22L1815.21 2323.82L1822.87 2330.25L171.193 4298.64L163.533 4292.22ZM1829.25 2336.77L177.573 4305.17L185.233 4311.6L1836.91 2343.2L1829.25 2336.77ZM194.533 4318.22L1846.21 2349.82L1853.87 2356.25L202.193 4324.64L194.533 4318.22ZM1861.19 2361.84L209.514 4330.24L217.174 4336.67L1868.85 2368.27L1861.19 2361.84ZM224.527 4343.22L1876.21 2374.83L1883.87 2381.26L232.187 4349.65L224.527 4343.22ZM1892.19 2387.84L240.513 4356.24L248.174 4362.67L1899.85 2394.27L1892.19 2387.84ZM255.526 4369.22L1907.21 2400.83L1914.87 2407.26L263.187 4375.65L255.526 4369.22ZM1923.19 2413.84L271.513 4382.24L279.173 4388.67L1930.85 2420.27L1923.19 2413.84ZM286.526 4395.22L1938.21 2426.83L1945.87 2433.26L294.187 4401.65L286.526 4395.22ZM1954.19 2439.85L302.513 4408.24L310.173 4414.67L1961.85 2446.27L1954.19 2439.85ZM317.526 4421.22L1969.21 2452.83L1976.87 2459.26L325.186 4427.65L317.526 4421.22ZM1983.25 2465.78L331.566 4434.18L339.227 4440.6L1990.91 2472.21L1983.25 2465.78ZM348.525 4447.23L2000.21 2478.83L2007.87 2485.26L356.186 4453.65L348.525 4447.23ZM2014.25 2491.78L362.566 4460.18L370.226 4466.61L2021.91 2498.21L2014.25 2491.78ZM379.525 4473.23L2031.21 2504.83L2038.87 2511.26L387.186 4479.65L379.525 4473.23ZM2045.25 2517.78L393.565 4486.18L401.226 4492.61L2052.91 2524.21L2045.25 2517.78ZM408.579 4499.16L2060.26 2530.77L2067.92 2537.19L416.239 4505.59L408.579 4499.16ZM2076.24 2543.78L424.565 4512.18L432.225 4518.61L2083.91 2550.21L2076.24 2543.78ZM439.578 4525.16L2091.26 2556.77L2098.92 2563.19L447.239 4531.59L439.578 4525.16ZM2108.19 2568.85L456.505 4537.25L464.166 4543.68L2115.85 2575.28L2108.19 2568.85ZM471.519 4550.23L2123.2 2581.84L2130.86 2588.27L479.179 4556.66L471.519 4550.23ZM2139.18 2594.85L487.505 4563.25L495.165 4569.68L2146.85 2601.28L2139.18 2594.85ZM502.518 4576.23L2154.2 2607.84L2161.86 2614.27L510.179 4582.66L502.518 4576.23ZM2169.21 2620.82L517.531 4589.22L525.192 4595.65L2176.87 2627.25L2169.21 2620.82ZM533.518 4602.23L2185.2 2633.84L2192.86 2640.27L541.178 4608.66L533.518 4602.23ZM2200.21 2646.82L548.531 4615.22L556.192 4621.65L2207.87 2653.25L2200.21 2646.82ZM564.517 4628.23L2216.2 2659.84L2223.86 2666.27L572.178 4634.66L564.517 4628.23ZM2231.21 2672.82L579.531 4641.22L587.191 4647.65L2238.87 2679.25L2231.21 2672.82ZM595.517 4654.24L2247.2 2685.84L2254.86 2692.27L603.178 4660.66L595.517 4654.24ZM2262.21 2698.82L610.53 4667.22L618.191 4673.65L2269.87 2705.25L2262.21 2698.82ZM624.571 4680.17L2276.25 2711.78L2283.91 2718.2L632.231 4686.6L624.571 4680.17ZM2293.21 2724.82L641.53 4693.22L649.19 4699.65L2300.87 2731.25L2293.21 2724.82Z" fill="white"/>
<path opacity="0.01209" fill-rule="evenodd" clip-rule="evenodd" d="M2162.18 2914.86L395.158 5020.71L402.819 5027.14L2169.84 2921.29L2162.18 2914.86ZM2177.18 2927.86L410.158 5033.71L417.819 5040.14L2184.84 2934.29L2177.18 2927.86ZM426.158 5046.71L2193.18 2940.86L2200.84 2947.29L433.819 5053.14L426.158 5046.71ZM2208.18 2953.86L441.158 5059.71L448.819 5066.14L2215.84 2960.29L2208.18 2953.86ZM457.158 5072.71L2224.18 2966.86L2231.84 2973.29L464.819 5079.14L457.158 5072.71ZM2239.18 2979.86L472.158 5085.71L479.819 5092.14L2246.84 2986.29L2239.18 2979.86ZM486.158 5098.71L2253.18 2992.86L2260.84 2999.29L493.819 5105.14L486.158 5098.71ZM2270.18 3005.86L503.158 5111.71L510.819 5118.14L2277.84 3012.29L2270.18 3005.86ZM517.158 5124.71L2284.18 3018.86L2291.84 3025.29L524.819 5131.14L517.158 5124.71ZM2301.18 3031.86L534.158 5137.71L541.819 5144.14L2308.84 3038.29L2301.18 3031.86ZM548.158 5150.71L2315.18 3044.86L2322.84 3051.29L555.819 5157.14L548.158 5150.71ZM2332.18 3057.86L565.158 5163.71L572.819 5170.14L2339.84 3064.29L2332.18 3057.86ZM579.158 5176.71L2346.18 3070.86L2353.84 3077.29L586.819 5183.14L579.158 5176.71ZM2361.18 3083.86L594.158 5189.71L601.819 5196.14L2368.84 3090.29L2361.18 3083.86ZM610.158 5202.71L2377.18 3096.86L2384.84 3103.29L617.819 5209.14L610.158 5202.71ZM2393.18 3108.86L626.158 5214.71L633.819 5221.14L2400.84 3115.29L2393.18 3108.86ZM642.158 5227.71L2409.18 3121.86L2416.84 3128.29L649.819 5234.14L642.158 5227.71ZM2424.18 3134.86L657.158 5240.71L664.819 5247.14L2431.84 3141.29L2424.18 3134.86ZM672.158 5253.71L2439.18 3147.86L2446.84 3154.29L679.819 5260.14L672.158 5253.71ZM2455.18 3160.86L688.158 5266.71L695.819 5273.14L2462.84 3167.29L2455.18 3160.86ZM703.158 5279.71L2470.18 3173.86L2477.84 3180.29L710.819 5286.14L703.158 5279.71ZM2486.18 3186.86L719.158 5292.71L726.819 5299.14L2493.84 3193.29L2486.18 3186.86ZM734.158 5305.71L2501.18 3199.86L2508.84 3206.29L741.819 5312.14L734.158 5305.71ZM2517.18 3212.86L750.158 5318.71L757.819 5325.14L2524.84 3219.29L2517.18 3212.86ZM765.158 5331.71L2532.18 3225.86L2539.84 3232.29L772.819 5338.14L765.158 5331.71ZM2546.18 3238.86L779.158 5344.71L786.819 5351.14L2553.84 3245.29L2546.18 3238.86ZM796.158 5357.71L2563.18 3251.86L2570.84 3258.29L803.819 5364.14L796.158 5357.71ZM2577.18 3264.86L810.158 5370.71L817.819 5377.14L2584.84 3271.29L2577.18 3264.86ZM827.158 5383.71L2594.18 3277.86L2601.84 3284.29L834.819 5390.14L827.158 5383.71ZM2608.18 3290.86L841.158 5396.71L848.819 5403.14L2615.84 3297.29L2608.18 3290.86ZM858.158 5409.71L2625.18 3303.86L2632.84 3310.29L865.819 5416.14L858.158 5409.71ZM2639.18 3316.86L872.158 5422.71L879.819 5429.14L2646.84 3323.29L2639.18 3316.86ZM888.158 5434.71L2655.18 3328.86L2662.84 3335.29L895.819 5441.14L888.158 5434.71ZM2671.18 3341.86L904.158 5447.71L911.819 5454.14L2678.84 3348.29L2671.18 3341.86ZM919.158 5460.71L2686.18 3354.86L2693.84 3361.29L926.819 5467.14L919.158 5460.71ZM2702.18 3367.86L935.158 5473.71L942.819 5480.14L2709.84 3374.29L2702.18 3367.86ZM950.158 5486.71L2717.18 3380.86L2724.84 3387.29L957.819 5493.14L950.158 5486.71ZM2731.18 3393.86L964.158 5499.71L971.819 5506.14L2738.84 3400.29L2731.18 3393.86ZM981.158 5512.71L2748.18 3406.86L2755.84 3413.29L988.819 5519.14L981.158 5512.71ZM2762.18 3419.86L995.158 5525.71L1002.82 5532.14L2769.84 3426.29L2762.18 3419.86ZM1012.16 5538.71L2779.18 3432.86L2786.84 3439.29L1019.82 5545.14L1012.16 5538.71ZM2793.18 3445.86L1026.16 5551.71L1033.82 5558.14L2800.84 3452.29L2793.18 3445.86ZM1043.16 5564.71L2810.18 3458.86L2817.84 3465.29L1050.82 5571.14L1043.16 5564.71ZM2824.18 3471.86L1057.16 5577.71L1064.82 5584.14L2831.84 3478.29L2824.18 3471.86ZM1072.16 5590.71L2839.18 3484.86L2846.84 3491.29L1079.82 5597.14L1072.16 5590.71ZM2855.18 3497.86L1088.16 5603.71L1095.82 5610.14L2862.84 3504.29L2855.18 3497.86ZM1103.16 5616.71L2870.18 3510.86L2877.84 3517.29L1110.82 5623.14L1103.16 5616.71ZM2886.18 3523.86L1119.16 5629.71L1126.82 5636.14L2893.84 3530.29L2886.18 3523.86ZM1135.16 5641.71L2902.18 3535.86L2909.84 3542.29L1142.82 5648.14L1135.16 5641.71ZM2918.18 3548.86L1151.16 5654.71L1158.82 5661.14L2925.84 3555.29L2918.18 3548.86ZM1166.16 5667.71L2933.18 3561.86L2940.84 3568.29L1173.82 5674.14L1166.16 5667.71ZM2948.18 3574.86L1181.16 5680.71L1188.82 5687.14L2955.84 3581.29L2948.18 3574.86ZM1197.16 5693.71L2964.18 3587.86L2971.84 3594.29L1204.82 5700.14L1197.16 5693.71ZM2979.18 3600.86L1212.16 5706.71L1219.82 5713.14L2986.84 3607.29L2979.18 3600.86ZM1228.16 5719.71L2995.18 3613.86L3002.84 3620.29L1235.82 5726.14L1228.16 5719.71ZM3010.18 3626.86L1243.16 5732.71L1250.82 5739.14L3017.84 3633.29L3010.18 3626.86ZM1257.16 5745.71L3024.18 3639.86L3031.84 3646.29L1264.82 5752.14L1257.16 5745.71ZM3041.18 3652.86L1274.16 5758.71L1281.82 5765.14L3048.84 3659.29L3041.18 3652.86ZM1288.16 5771.71L3055.18 3665.86L3062.84 3672.29L1295.82 5778.14L1288.16 5771.71ZM3072.18 3678.86L1305.16 5784.71L1312.82 5791.14L3079.84 3685.29L3072.18 3678.86ZM1319.16 5797.71L3086.18 3691.86L3093.84 3698.29L1326.82 5804.14L1319.16 5797.71ZM3103.18 3704.86L1336.16 5810.71L1343.82 5817.14L3110.84 3711.29L3103.18 3704.86ZM1350.16 5823.71L3117.18 3717.86L3124.84 3724.29L1357.82 5830.14L1350.16 5823.71ZM3132.18 3730.86L1365.16 5836.71L1372.82 5843.14L3139.84 3737.29L3132.18 3730.86ZM1381.16 5849.71L3148.18 3743.86L3155.84 3750.29L1388.82 5856.14L1381.16 5849.71ZM3164.18 3755.86L1397.16 5861.71L1404.82 5868.14L3171.84 3762.29L3164.18 3755.86ZM1413.16 5874.71L3180.18 3768.86L3187.84 3775.29L1420.82 5881.14L1413.16 5874.71ZM3195.18 3781.86L1428.16 5887.71L1435.82 5894.14L3202.84 3788.29L3195.18 3781.86ZM1443.16 5900.71L3210.18 3794.86L3217.84 3801.29L1450.82 5907.14L1443.16 5900.71ZM3226.18 3807.86L1459.16 5913.71L1466.82 5920.14L3233.84 3814.29L3226.18 3807.86ZM1474.16 5926.71L3241.18 3820.86L3248.84 3827.29L1481.82 5933.14L1474.16 5926.71ZM3257.18 3833.86L1490.16 5939.71L1497.82 5946.14L3264.84 3840.29L3257.18 3833.86ZM1505.16 5952.71L3272.18 3846.86L3279.84 3853.29L1512.82 5959.14L1505.16 5952.71ZM3288.18 3859.86L1521.16 5965.71L1528.82 5972.14L3295.84 3866.29L3288.18 3859.86ZM1536.16 5978.71L3303.18 3872.86L3310.84 3879.29L1543.82 5985.14L1536.16 5978.71ZM3317.18 3885.86L1550.16 5991.71L1557.82 5998.14L3324.84 3892.29L3317.18 3885.86ZM1567.16 6004.71L3334.18 3898.86L3341.84 3905.29L1574.82 6011.14L1567.16 6004.71ZM3348.18 3911.86L1581.16 6017.71L1588.82 6024.14L3355.84 3918.29L3348.18 3911.86ZM1598.16 6030.71L3365.18 3924.86L3372.84 3931.29L1605.82 6037.14L1598.16 6030.71ZM3379.18 3937.86L1612.16 6043.71L1619.82 6050.14L3386.84 3944.29L3379.18 3937.86ZM1629.16 6056.71L3396.18 3950.86L3403.84 3957.29L1636.82 6063.14L1629.16 6056.71ZM3411.18 3962.86L1644.16 6068.71L1651.82 6075.14L3418.84 3969.29L3411.18 3962.86ZM1659.16 6081.71L3426.18 3975.86L3433.84 3982.29L1666.82 6088.14L1659.16 6081.71ZM3442.18 3988.86L1675.16 6094.71L1682.82 6101.14L3449.84 3995.29L3442.18 3988.86ZM1690.16 6107.71L3457.18 4001.86L3464.84 4008.29L1697.82 6114.14L1690.16 6107.71ZM3473.18 4014.86L1706.16 6120.71L1713.82 6127.14L3480.84 4021.29L3473.18 4014.86ZM1721.16 6133.71L3488.18 4027.86L3495.84 4034.29L1728.82 6140.14L1721.16 6133.71ZM3502.18 4040.86L1735.16 6146.71L1742.82 6153.14L3509.84 4047.29L3502.18 4040.86ZM1752.16 6159.71L3519.18 4053.86L3526.84 4060.29L1759.82 6166.14L1752.16 6159.71ZM3533.18 4066.86L1766.16 6172.71L1773.82 6179.14L3540.84 4073.29L3533.18 4066.86ZM1783.16 6185.71L3550.18 4079.86L3557.84 4086.29L1790.82 6192.14L1783.16 6185.71ZM3564.18 4092.86L1797.16 6198.71L1804.82 6205.14L3571.84 4099.29L3564.18 4092.86ZM1814.16 6211.71L3581.18 4105.86L3588.84 4112.29L1821.82 6218.14L1814.16 6211.71ZM3595.18 4118.86L1828.16 6224.71L1835.82 6231.14L3602.84 4125.29L3595.18 4118.86ZM1843.16 6237.71L3610.18 4131.86L3617.84 4138.29L1850.82 6244.14L1843.16 6237.71ZM3626.18 4144.86L1859.16 6250.71L1866.82 6257.14L3633.84 4151.29L3626.18 4144.86ZM1874.16 6263.71L3641.18 4157.86L3648.84 4164.29L1881.82 6270.14L1874.16 6263.71ZM3657.18 4170.86L1890.16 6276.71L1897.82 6283.14L3664.84 4177.29L3657.18 4170.86ZM1906.16 6288.71L3673.18 4182.86L3680.84 4189.29L1913.82 6295.14L1906.16 6288.71ZM3689.18 4195.86L1922.16 6301.71L1929.82 6308.14L3696.84 4202.29L3689.18 4195.86ZM1937.16 6314.71L3704.18 4208.86L3711.84 4215.29L1944.82 6321.14L1937.16 6314.71ZM3719.18 4221.86L1952.16 6327.71L1959.82 6334.14L3726.84 4228.29L3719.18 4221.86ZM1968.16 6340.71L3735.18 4234.86L3742.84 4241.29L1975.82 6347.14L1968.16 6340.71ZM3750.18 4247.86L1983.16 6353.71L1990.82 6360.14L3757.84 4254.29L3750.18 4247.86ZM1999.16 6366.71L3766.18 4260.86L3773.84 4267.29L2006.82 6373.14L1999.16 6366.71ZM3781.18 4273.86L2014.16 6379.71L2021.82 6386.14L3788.84 4280.29L3781.18 4273.86ZM2028.16 6392.71L3795.18 4286.86L3802.84 4293.29L2035.82 6399.14L2028.16 6392.71ZM3812.18 4299.86L2045.16 6405.71L2052.82 6412.14L3819.84 4306.29L3812.18 4299.86ZM2059.16 6418.71L3826.18 4312.86L3833.84 4319.29L2066.82 6425.14L2059.16 6418.71ZM3843.18 4325.86L2076.16 6431.71L2083.82 6438.14L3850.84 4332.29L3843.18 4325.86ZM2090.16 6444.71L3857.18 4338.86L3864.84 4345.29L2097.82 6451.14L2090.16 6444.71ZM3874.18 4351.86L2107.16 6457.71L2114.82 6464.14L3881.84 4358.29L3874.18 4351.86ZM2121.16 6470.71L3888.18 4364.86L3895.84 4371.29L2128.82 6477.14L2121.16 6470.71ZM3903.18 4377.86L2136.16 6483.71L2143.82 6490.14L3910.84 4384.29L3903.18 4377.86ZM2153.16 6495.71L3920.18 4389.86L3927.84 4396.29L2160.82 6502.14L2153.16 6495.71ZM3935.18 4402.86L2168.16 6508.71L2175.82 6515.14L3942.84 4409.29L3935.18 4402.86ZM2184.16 6521.71L3951.18 4415.86L3958.84 4422.29L2191.82 6528.14L2184.16 6521.71ZM3966.18 4428.86L2199.16 6534.71L2206.82 6541.14L3973.84 4435.29L3966.18 4428.86ZM2215.16 6547.71L3982.18 4441.86L3989.84 4448.29L2222.82 6554.14L2215.16 6547.71ZM3997.18 4454.86L2230.16 6560.71L2237.82 6567.14L4004.84 4461.29L3997.18 4454.86ZM2244.16 6573.71L4011.18 4467.86L4018.84 4474.29L2251.82 6580.14L2244.16 6573.71ZM4028.18 4480.86L2261.16 6586.71L2268.82 6593.14L4035.84 4487.29L4028.18 4480.86ZM2275.16 6599.71L4042.18 4493.86L4049.84 4500.29L2282.82 6606.14L2275.16 6599.71ZM4059.18 4506.86L2292.16 6612.71L2299.82 6619.14L4066.84 4513.29L4059.18 4506.86ZM2306.16 6625.71L4073.18 4519.86L4080.84 4526.29L2313.82 6632.14L2306.16 6625.71ZM4088.18 4532.86L2321.16 6638.71L2328.82 6645.14L4095.84 4539.29L4088.18 4532.86ZM2338.16 6651.71L4105.18 4545.86L4112.84 4552.29L2345.82 6658.14L2338.16 6651.71ZM4119.18 4558.86L2352.16 6664.71L2359.82 6671.14L4126.84 4565.29L4119.18 4558.86ZM2369.16 6677.71L4136.18 4571.86L4143.84 4578.29L2376.82 6684.14L2369.16 6677.71ZM4150.18 4584.86L2383.16 6690.71L2390.82 6697.14L4157.84 4591.29L4150.18 4584.86ZM2400.16 6703.71L4167.18 4597.86L4174.84 4604.29L2407.82 6710.14L2400.16 6703.71ZM4182.18 4609.86L2415.16 6715.71L2422.82 6722.14L4189.84 4616.29L4182.18 4609.86ZM2430.16 6728.71L4197.18 4622.86L4204.84 4629.29L2437.82 6735.14L2430.16 6728.71ZM4213.18 4635.86L2446.16 6741.71L2453.82 6748.14L4220.84 4642.29L4213.18 4635.86ZM2461.16 6754.71L4228.18 4648.86L4235.84 4655.29L2468.82 6761.14L2461.16 6754.71ZM4244.18 4661.86L2477.16 6767.71L2484.82 6774.14L4251.84 4668.29L4244.18 4661.86ZM2492.16 6780.71L4259.18 4674.86L4266.84 4681.29L2499.82 6787.14L2492.16 6780.71ZM4275.18 4687.86L2508.16 6793.71L2515.82 6800.14L4282.84 4694.29L4275.18 4687.86ZM2523.16 6806.71L4290.18 4700.86L4297.84 4707.29L2530.82 6813.14L2523.16 6806.71ZM4304.18 4713.86L2537.16 6819.71L2544.82 6826.14L4311.84 4720.29L4304.18 4713.86ZM2554.16 6832.71L4321.18 4726.86L4328.84 4733.29L2561.82 6839.14L2554.16 6832.71ZM4335.18 4739.86L2568.16 6845.71L2575.82 6852.14L4342.84 4746.29L4335.18 4739.86ZM2585.16 6858.71L4352.18 4752.86L4359.84 4759.29L2592.82 6865.14L2585.16 6858.71ZM4366.18 4765.86L2599.16 6871.71L2606.82 6878.14L4373.84 4772.29L4366.18 4765.86ZM2614.16 6884.71L4381.18 4778.86L4388.84 4785.29L2621.82 6891.14L2614.16 6884.71ZM4397.18 4791.86L2630.16 6897.71L2637.82 6904.14L4404.84 4798.29L4397.18 4791.86ZM2645.16 6910.71L4412.18 4804.86L4419.84 4811.29L2652.82 6917.14L2645.16 6910.71ZM4429.18 4816.86L2662.16 6922.71L2669.82 6929.14L4436.84 4823.29L4429.18 4816.86ZM2677.16 6935.71L4444.18 4829.86L4451.84 4836.29L2684.82 6942.14L2677.16 6935.71ZM4460.18 4842.86L2693.16 6948.71L2700.82 6955.14L4467.84 4849.29L4460.18 4842.86ZM2708.16 6961.71L4475.18 4855.86L4482.84 4862.29L2715.82 6968.14L2708.16 6961.71ZM4490.18 4868.86L2723.16 6974.71L2730.82 6981.14L4497.84 4875.29L4490.18 4868.86ZM2739.16 6987.71L4506.18 4881.86L4513.84 4888.29L2746.82 6994.14L2739.16 6987.71ZM4521.18 4894.86L2754.16 7000.71L2761.82 7007.14L4528.84 4901.29L4521.18 4894.86ZM2770.16 7013.71L4537.18 4907.86L4544.84 4914.29L2777.82 7020.14L2770.16 7013.71ZM4552.18 4920.86L2785.16 7026.71L2792.82 7033.14L4559.84 4927.29L4552.18 4920.86ZM2801.16 7039.71L4568.18 4933.86L4575.84 4940.29L2808.82 7046.14L2801.16 7039.71ZM4583.18 4946.86L2816.16 7052.71L2823.82 7059.14L4590.84 4953.29L4583.18 4946.86ZM2830.16 7065.71L4597.18 4959.86L4604.84 4966.29L2837.82 7072.14L2830.16 7065.71ZM4614.18 4972.86L2847.16 7078.71L2854.82 7085.14L4621.84 4979.29L4614.18 4972.86Z" fill="white"/>
</g>
</svg>
