<svg width="19" height="21" viewBox="0 0 19 21" fill="none" xmlns="http://www.w3.org/2000/svg">
<path d="M11.7983 21H2.06015C0.923052 20.9988 0.00149419 20.0916 0 18.9721V2.02792C0.00149419 0.908369 0.923052 0.00122554 2.06015 0H11.7983C12.9354 0.00122554 13.8569 0.908369 13.8584 2.02792V3.47034C13.8584 3.66691 13.6966 3.82627 13.4969 3.82627C13.2973 3.82627 13.1354 3.66691 13.1354 3.47034V2.02792C13.1344 1.30132 12.5363 0.7126 11.7983 0.711864H2.06015C1.32216 0.7126 0.724014 1.30132 0.723018 2.02792V18.9721C0.724014 19.6987 1.32216 20.2874 2.06015 20.2881H11.7983C12.5363 20.2874 13.1344 19.6987 13.1354 18.9721V17.5297C13.1354 17.3331 13.2973 17.1737 13.4969 17.1737C13.6966 17.1737 13.8584 17.3331 13.8584 17.5297V18.9707C13.8577 20.0908 12.9359 20.9988 11.7983 21Z" fill="#FF6666"/>
<path fill-rule="evenodd" clip-rule="evenodd" d="M6.84249 17.8856H17.1717C18.1803 17.8846 18.998 17.0803 19 16.0872V4.91406C18.9988 3.92046 18.1809 3.11536 17.1717 3.11438H6.84249C5.83385 3.11536 5.01615 3.91965 5.01416 4.91273V16.0859C5.01541 17.0795 5.83332 17.8846 6.84249 17.8856ZM5.73718 4.91406C5.73793 4.31341 6.23243 3.82673 6.84249 3.82624H17.1717C17.7812 3.82673 18.2755 4.31259 18.277 4.91273V16.0859C18.2763 16.6865 17.7818 17.1732 17.1717 17.1737H6.84249C6.23295 17.1732 5.73867 16.6874 5.73718 16.0872V4.91406Z" fill="#FF6666"/>
<path d="M9.28356 13.5557C9.1762 13.5557 9.07437 13.5088 9.00565 13.4275L6.72363 10.7278C6.61198 10.5958 6.61198 10.4042 6.72363 10.2722L9.00565 7.57246C9.13343 7.42134 9.36144 7.40083 9.51493 7.52663C9.66841 7.65244 9.68925 7.87694 9.56147 8.02805L7.47195 10.5L9.56147 12.972C9.65125 13.0781 9.67057 13.2258 9.61103 13.3508C9.55149 13.4759 9.42384 13.5557 9.28356 13.5557Z" fill="#FF6666"/>
<path d="M12.8964 13.2767C12.744 13.2768 12.6079 13.1829 12.5561 13.0418L10.7779 8.20021C10.7268 8.0208 10.8248 7.83291 11.0027 7.76938C11.1807 7.70585 11.3782 7.78819 11.4558 7.95817L13.2344 12.7997C13.3022 12.9845 13.2051 13.1884 13.0175 13.2553C12.9787 13.2693 12.9377 13.2765 12.8964 13.2767Z" fill="#FF6666"/>
<path d="M14.7305 13.5557C14.5903 13.5557 14.4626 13.4759 14.4031 13.3508C14.3435 13.2258 14.3629 13.0781 14.4526 12.972L16.5422 10.5L14.4526 8.02805C14.3249 7.87694 14.3457 7.65244 14.4992 7.52663C14.6527 7.40083 14.8807 7.42134 15.0085 7.57246L17.29 10.2722C17.4017 10.4042 17.4017 10.5958 17.29 10.7278L15.0085 13.4275C14.9397 13.5088 14.8379 13.5557 14.7305 13.5557Z" fill="#FF6666"/>
<path d="M8.49093 2.26905H5.36749C5.16783 2.26905 5.00598 2.1097 5.00598 1.91312C5.00598 1.71655 5.16783 1.55719 5.36749 1.55719H8.49093C8.69058 1.55719 8.85244 1.71655 8.85244 1.91312C8.85244 2.1097 8.69058 2.26905 8.49093 2.26905Z" fill="#FF6666"/>
<path d="M9.39466 19.4428H4.46368C4.26403 19.4428 4.10217 19.2835 4.10217 19.0869C4.10217 18.8903 4.26403 18.731 4.46368 18.731H9.39466C9.59432 18.731 9.75617 18.8903 9.75617 19.0869C9.75617 19.2835 9.59432 19.4428 9.39466 19.4428Z" fill="#FF6666"/>
</svg>
