<svg width="19" height="14" viewBox="0 0 19 14" fill="none" xmlns="http://www.w3.org/2000/svg">
<path fill-rule="evenodd" clip-rule="evenodd" d="M17.4167 0H1.58335C0.710088 0 0 0.69763 0 1.55557V12.4445C0 13.3024 0.710088 14 1.58335 14H17.4167C18.2899 14 19 13.3024 19 12.4444V1.55557C19 0.69763 18.2899 0 17.4167 0ZM1.58335 0.777766H17.4167C17.4572 0.777766 17.4944 0.787862 17.5317 0.797986C17.5481 0.802424 17.5645 0.806868 17.5812 0.810469C16.2104 2.04302 11.6651 6.12824 10.0745 7.53623C9.94999 7.64637 9.74938 7.77777 9.50004 7.77777C9.2507 7.77777 9.05009 7.64637 8.92521 7.53586C7.33474 6.1281 2.78918 2.04265 1.41862 0.810542C1.43539 0.806929 1.45185 0.80246 1.4683 0.797997C1.50561 0.787867 1.54283 0.777766 1.58335 0.777766ZM0.791654 1.55557V12.4444C0.791654 12.5046 0.807881 12.5597 0.824117 12.6149L0.833477 12.6471C1.89098 11.6564 5.06331 8.70155 7.11309 6.97171C5.05663 5.13446 1.88512 2.28401 0.835963 1.34061L0.830108 1.35994C0.810905 1.4231 0.791654 1.48642 0.791654 1.55557ZM1.58335 13.2222C1.53698 13.2222 1.49438 13.2106 1.45167 13.1989L1.4516 13.1989C1.43609 13.1947 1.42057 13.1904 1.40485 13.1867C2.49761 12.1633 5.69013 9.1914 7.70387 7.4989C7.96638 7.73285 8.20618 7.94617 8.39522 8.11351C8.72148 8.40292 9.10337 8.55557 9.5 8.55557C9.89662 8.55557 10.2785 8.40288 10.6044 8.11387C10.7935 7.94646 11.0335 7.73296 11.2961 7.4989C13.31 9.19122 16.5021 12.1629 17.5951 13.1867C17.5794 13.1904 17.5638 13.1947 17.5483 13.1989C17.5056 13.2106 17.4631 13.2222 17.4167 13.2222H1.58335ZM18.176 12.6147C18.1922 12.5596 18.2083 12.5045 18.2083 12.4444V1.55553C18.2083 1.48636 18.1891 1.42299 18.1699 1.3598C18.1679 1.35338 18.166 1.34696 18.164 1.34054C17.1145 2.2843 13.9435 5.1345 11.8869 6.97175C13.9367 8.70136 17.1086 11.6559 18.1666 12.6471C18.1696 12.6363 18.1728 12.6255 18.176 12.6147Z" fill="#FF6666"/>
</svg>
