<svg width="21" height="21" viewBox="0 0 21 21" fill="none" xmlns="http://www.w3.org/2000/svg">
<path d="M8.1416 12.1406H6.70605V8.85931H8.1416" stroke="#FF6666" stroke-width="0.808594" stroke-linecap="round" stroke-linejoin="round"/>
<path d="M6.93164 10.4154H7.98164" stroke="#FF6666" stroke-width="0.808594" stroke-linecap="round" stroke-linejoin="round"/>
<mask id="mask0_0_1657" style="mask-type:luminance" maskUnits="userSpaceOnUse" x="0" y="0" width="21" height="21">
<path fill-rule="evenodd" clip-rule="evenodd" d="M0 0L21 0L21 21L0 21L0 0Z" fill="white"/>
</mask>
<g mask="url(#mask0_0_1657)">
<path d="M12.6533 12.1406V8.85927H13.4736C13.9248 8.85927 14.2939 9.22841 14.2939 9.67959C14.2939 10.1308 13.9248 10.4999 13.4736 10.4999H12.8072" stroke="#FF6666" stroke-width="0.808594" stroke-linecap="round" stroke-linejoin="round"/>
<path d="M9.53613 12.1406V8.85927H10.3564C10.8076 8.85927 11.1767 9.22841 11.1767 9.67959C11.1767 10.1308 10.8076 10.4999 10.3564 10.4999H9.68994" stroke="#FF6666" stroke-width="0.808594" stroke-linecap="round" stroke-linejoin="round"/>
<path d="M10.3564 10.4999L11.4064 12.1406" stroke="#FF6666" stroke-width="0.808594" stroke-linecap="round" stroke-linejoin="round"/>
<path d="M7.63559 5.05421C8.49114 4.60325 9.46567 4.3476 10.5 4.3476C13.8979 4.3476 16.6523 7.10212 16.6523 10.4999C16.6523 13.8978 13.8979 16.6523 10.5 16.6523C7.10218 16.6523 4.34766 13.8978 4.34766 10.4999C4.34766 9.46548 4.60331 8.49083 5.0544 7.63528" stroke="#FF6666" stroke-width="0.808594" stroke-linecap="round" stroke-linejoin="round"/>
<path fill-rule="evenodd" clip-rule="evenodd" d="M20.5899 9.47451C20.5899 9.24892 20.4022 9.10147 20.1798 9.06439L18.9568 8.86054C18.7332 7.70058 18.2773 6.62327 17.639 5.67941L18.3597 4.67039C18.4908 4.48684 18.5192 4.2499 18.3597 4.09039L16.9096 2.64024C16.7501 2.48073 16.5131 2.50915 16.3296 2.64024L15.3205 3.36096C14.3768 2.72247 13.2994 2.26675 12.1394 2.04317L11.9355 0.820169C11.8985 0.597701 11.751 0.410053 11.5254 0.410053H9.47461C9.24902 0.410053 9.10153 0.597701 9.06445 0.820169L8.86061 2.04317C7.7006 2.26675 6.6232 2.72247 5.67952 3.36096L4.67045 2.64024C4.48695 2.50915 4.24996 2.48073 4.09049 2.64024L2.64034 4.09039C2.48079 4.2499 2.50921 4.48684 2.64034 4.67039L3.36103 5.67941C2.7227 6.62327 2.26685 7.70058 2.04323 8.86054L0.820271 9.06439C0.597762 9.10147 0.410156 9.24892 0.410156 9.47451L0.410156 11.5253C0.410156 11.7509 0.597762 11.8984 0.820271 11.9354L2.04323 12.1393C2.26685 13.2993 2.7227 14.3766 3.36103 15.3204L2.64034 16.3294C2.50921 16.513 2.48079 16.75 2.64034 16.9095L4.09049 18.3596C4.24996 18.5191 4.48695 18.4907 4.67045 18.3596L5.67952 17.6389C6.6232 18.2774 7.7006 18.7331 8.86061 18.9567L9.06445 20.1797C9.10153 20.4022 9.24902 20.5898 9.47461 20.5898H11.5254C11.751 20.5898 11.8985 20.4022 11.9355 20.1797L12.1394 18.9567C13.2994 18.7331 14.3768 18.2774 15.3205 17.6389L16.3296 18.3596C16.5131 18.4907 16.7501 18.5191 16.9096 18.3596L18.3597 16.9095C18.5192 16.75 18.4908 16.513 18.3597 16.3294L17.639 15.3204C18.2773 14.3766 18.7332 13.2993 18.9568 12.1393L20.1798 11.9354C20.4022 11.8984 20.5899 11.7509 20.5899 11.5253V9.47451Z" stroke="#FF6666" stroke-width="0.808594" stroke-linecap="round" stroke-linejoin="round"/>
<path d="M6.23375 6.06551L6.2348 6.06446" stroke="#FF6666" stroke-width="0.808594" stroke-linecap="round" stroke-linejoin="round"/>
</g>
</svg>
