<svg width="21" height="20" viewBox="0 0 21 20" fill="none" xmlns="http://www.w3.org/2000/svg">
<path fill-rule="evenodd" clip-rule="evenodd" d="M6.625 0.7875C7.84167 0.262501 9.13333 0 10.5 0C11.8833 0 13.1833 0.262501 14.4 0.7875C15.6167 1.3125 16.675 2.02917 17.575 2.9375C18.475 3.84583 19.1875 4.90833 19.7125 6.125C20.2375 7.34167 20.5 8.63333 20.5 10C20.5 11.3833 20.2375 12.6833 19.7125 13.9C19.1875 15.1167 18.475 16.175 17.575 17.075C16.675 17.975 15.6167 18.6875 14.4 19.2125C13.1833 19.7375 11.8833 20 10.5 20C9.13333 20 7.84167 19.7375 6.625 19.2125C5.40833 18.6875 4.34583 17.975 3.4375 17.075C2.52917 16.175 1.8125 15.1167 1.2875 13.9C0.7625 12.6833 0.5 11.3833 0.5 10C0.5 8.63333 0.7625 7.34167 1.2875 6.125C1.8125 4.90833 2.52917 3.84583 3.4375 2.9375C4.34583 2.02917 5.40833 1.3125 6.625 0.7875ZM14.825 11.1L10.5 6.775L6.175 11.1L7.25 12.15L10.5 8.9L13.75 12.15L14.825 11.1Z" fill="black"/>
</svg>
