<svg width="18" height="18" viewBox="0 0 18 18" fill="none" xmlns="http://www.w3.org/2000/svg">
<path fill-rule="evenodd" clip-rule="evenodd" d="M9 0C4.02494 0 0 4.03844 0 9C0 13.9501 4.0104 18 9 18C13.9734 18 18 13.9628 18 9C18 4.04165 13.9774 0 9 0ZM15.3553 14.3068C14.6509 13.9447 13.8525 13.6619 13.0767 13.4605C13.4403 12.2201 13.6469 10.8204 13.6761 9.36H17.2722C17.1936 11.1762 16.5217 12.9114 15.3553 14.3068ZM0.727812 9.36C0.806436 11.1762 1.4783 12.9114 2.64463 14.3068C3.36175 13.9397 4.1467 13.6623 4.92325 13.4605C4.55972 12.2201 4.35312 10.8204 4.32389 9.36H0.727812ZM2.64463 3.69317C3.3606 4.05997 4.14785 4.33764 4.92325 4.53949C4.55972 5.77994 4.35312 7.17955 4.32389 8.64H0.727812C0.806436 6.82376 1.4783 5.08856 2.64463 3.69317ZM11.1882 1.0156C11.9472 1.77703 12.4897 2.83831 12.8542 3.85452C13.5082 3.69101 14.2247 3.44203 14.8494 3.14057C13.8275 2.12123 12.562 1.39295 11.1882 1.0156ZM9.36 4.31582V0.755532C10.2391 0.927792 11.0708 1.7276 11.7327 3.05161C11.8841 3.35444 12.0224 3.67679 12.1472 4.01562C11.2296 4.19976 10.2883 4.29617 9.36 4.31582ZM5.85277 4.01562C6.75994 4.19803 7.70382 4.29602 8.64 4.31582V0.755532C7.76088 0.927756 6.92928 1.7276 6.26728 3.05161C6.1159 3.35441 5.97758 3.67675 5.85277 4.01562ZM8.64 5.03597V8.64H5.044C5.07319 7.23128 5.27346 5.88661 5.62489 4.70304C6.5574 4.89604 7.57775 5.01437 8.64 5.03597ZM8.64 12.964V9.36H5.044C5.07319 10.7687 5.27346 12.1134 5.62493 13.297C6.60352 13.0936 7.63672 12.9844 8.64 12.964ZM8.64 13.6842V17.2445C7.76088 17.0722 6.92928 16.2724 6.26728 14.9484C6.11586 14.6456 5.97758 14.3232 5.85277 13.9844C6.72498 13.8083 7.67412 13.7046 8.64 13.6842ZM12.1472 13.9844C11.2689 13.8074 10.3236 13.7046 9.36 13.6842V17.2445C10.2391 17.0722 11.0707 16.2724 11.7327 14.9484C11.8841 14.6456 12.0224 14.3232 12.1472 13.9844ZM9.36 12.964V9.36H12.956C12.9268 10.7687 12.7266 12.1134 12.3751 13.297C11.4481 13.1044 10.4208 12.9856 9.36 12.964ZM9.36 5.03597V8.64H12.956C12.9268 7.23128 12.7266 5.88658 12.3751 4.70304C11.4506 4.89409 10.4342 5.01412 9.36 5.03597ZM5.14577 3.85452C4.47077 3.68406 3.77557 3.44264 3.15061 3.14057C4.17254 2.12123 5.43802 1.39295 6.81185 1.0156C6.05167 1.77815 5.5094 2.8408 5.14577 3.85452ZM6.81185 16.9844C6.0516 16.2218 5.50926 15.159 5.14577 14.1455C4.47203 14.3164 3.77651 14.5567 3.15061 14.8594C4.17254 15.8787 5.43802 16.6071 6.81185 16.9844ZM12.8542 14.1455C13.4993 14.3067 14.225 14.5573 14.8494 14.8594C13.8275 15.8787 12.562 16.6071 11.1882 16.9844C11.9484 16.2218 12.4908 15.1589 12.8542 14.1455ZM13.0767 4.53949C13.4403 5.77994 13.6469 7.17955 13.6761 8.64V8.64004H17.2722C17.1936 6.8238 16.5217 5.08856 15.3554 3.6932C14.6555 4.05209 13.8655 4.33465 13.0767 4.53949Z" fill="#FF6666"/>
</svg>
