<svg width="20" height="21" viewBox="0 0 20 21" fill="none" xmlns="http://www.w3.org/2000/svg">
<path fill-rule="evenodd" clip-rule="evenodd" d="M13.0159 6.67846C10.955 3.66339 8.2025 2.06091 6.76103 3.04278C6.6023 3.15393 6.46438 3.29187 6.35351 3.45034C6.35351 3.46192 3.01647 10.1775 3.01647 10.1775L1.15351 11.4326C0.575918 11.8225 0.177798 12.4247 0.0467745 13.1066C-0.0842493 13.7884 0.0625623 14.4941 0.454896 15.0683L0.538729 15.1911C1.35591 16.3748 2.97866 16.6845 4.17849 15.8858L7.17088 20.2694C7.61101 20.809 8.45633 21.3463 9.49959 20.7141C9.87333 20.4731 10.1271 20.0861 10.1982 19.6488C10.2833 19.2144 10.1903 18.7642 9.93971 18.3983L7.30362 14.5311C7.30362 14.5311 13.5352 14.0378 13.5585 14.0286C13.7531 13.9881 13.9376 13.9093 14.1011 13.797C14.8416 13.2968 15.1071 12.2478 14.8509 10.8421C14.6204 9.54764 13.966 8.08179 13.0159 6.67846ZM1.21638 14.7349L1.13255 14.6121C0.861854 14.2158 0.760796 13.7287 0.851661 13.2583C0.942527 12.7878 1.21785 12.3726 1.61692 12.1042L3.22605 11.0158L5.34983 14.1258L3.7407 15.2142C3.3421 15.4838 2.85211 15.5847 2.37864 15.4948C1.90517 15.4049 1.48706 15.1315 1.21638 14.7349ZM9.03617 20.0425C9.42987 19.7781 9.53404 19.2467 9.26904 18.8545L6.37213 14.6052L6.05543 14.6307L4.85615 15.4412L7.83922 19.8109C8.106 20.2027 8.64114 20.3063 9.03617 20.0425ZM6.12064 13.8109L3.8059 10.4207L6.01351 5.94438C6.22776 7.20182 6.85418 8.69546 7.85552 10.1613C8.85686 11.6272 10.0212 12.7572 11.1157 13.4195L6.12064 13.8109ZM8.53084 9.7028C10.0655 11.9514 11.8772 13.1995 12.9903 13.2713C12.9903 13.2713 14.3945 13.2713 14.0475 10.995C13.8706 9.80469 13.2232 8.44304 12.3336 7.14161C10.7548 4.8282 8.87549 3.57308 7.77169 3.57308C7.34281 3.58004 6.96701 3.86032 6.8402 4.26779C6.49788 5.32608 6.99623 7.45423 8.53084 9.7028Z" fill="#FF6666"/>
<path d="M10.105 6.76415C9.5288 6.65163 8.93127 6.7743 8.44698 7.10456C8.32676 7.1873 8.26006 7.32752 8.272 7.47242C8.28394 7.61732 8.37271 7.74488 8.50487 7.80704C8.63703 7.86921 8.7925 7.85654 8.91272 7.77381C9.32579 7.495 9.85706 7.45651 10.3064 7.67284C10.7558 7.88917 11.0549 8.32746 11.0912 8.8226C11.1275 9.31774 10.8953 9.79451 10.4823 10.0733C10.3353 10.1742 10.2716 10.3585 10.325 10.528C10.3784 10.6975 10.5366 10.8126 10.7151 10.812C10.7981 10.8136 10.8796 10.7893 10.948 10.7426C11.6887 10.2436 12.0539 9.34969 11.8728 8.47839C11.6917 7.60709 11.0003 6.93032 10.1213 6.76415H10.105Z" fill="#FF6666"/>
<path d="M13.5189 3.86025H13.5585C13.7673 3.86017 13.9422 3.7032 13.9637 3.49668L14.2781 0.458454C14.2975 0.312187 14.2355 0.166951 14.1162 0.0792876C13.9968 -0.0083754 13.839 -0.024611 13.7042 0.0369015C13.5693 0.098414 13.4787 0.227954 13.4677 0.375088L13.1556 3.41563C13.1326 3.63814 13.2952 3.83715 13.5189 3.86025Z" fill="#FF6666"/>
<path d="M18.7864 3.23498C18.6619 3.04827 18.4091 2.99655 18.2205 3.1192L15.3819 4.97177C15.2304 5.0712 15.1634 5.25821 15.2173 5.43049C15.2713 5.60277 15.4333 5.71881 15.6147 5.71512C15.6971 5.71701 15.7782 5.69443 15.8476 5.65028L18.6863 3.7977C18.8696 3.66944 18.9144 3.41802 18.7864 3.23498Z" fill="#FF6666"/>
<path d="M19.6551 8.18139L16.353 7.59088C16.1311 7.55123 15.9189 7.69794 15.8791 7.91856C15.8392 8.13917 15.9867 8.35016 16.2086 8.38981L19.5084 8.98031H19.5805C19.7961 8.98658 19.9792 8.82478 19.9984 8.61119C20.0175 8.3976 19.866 8.20616 19.6527 8.17444L19.6551 8.18139Z" fill="#FF6666"/>
</svg>
