<svg width="102" height="102" viewBox="0 0 102 102" fill="none" xmlns="http://www.w3.org/2000/svg">
<path d="M86.2085 102H15.7915C7.08402 102 0 94.916 0 86.2085V41.3961C0 39.7457 1.33795 38.4078 2.98828 38.4078C4.63861 38.4078 5.97656 39.7457 5.97656 41.3961C5.97656 44.2066 7.53744 46.7317 10.05 47.9878L51 68.4641L91.9496 47.988C94.4626 46.7317 96.0234 44.2066 96.0234 41.3977V41.3961C96.0234 39.7457 97.3614 38.4078 99.0117 38.4078C100.652 38.4078 101.984 39.73 102 41.367C102 41.3765 102 41.3863 102 41.3961V86.2085C102 94.916 94.916 102 86.2085 102Z" fill="#FFDFDF"/>
<path d="M102 86.2085V41.3961C102 41.3865 102 41.3767 102 41.367C101.984 39.73 100.652 38.4078 99.0117 38.4078C97.3614 38.4078 96.0234 39.7457 96.0234 41.3961V41.3977C96.0234 44.2066 94.4626 46.7317 91.9496 47.988L51 68.4641V102H86.2085C94.916 102 102 94.916 102 86.2085Z" fill="#FFABAB"/>
<path d="M84.6377 56.7429C83.7566 56.1984 83.2205 55.2366 83.2205 54.2009V28.5945C83.2205 27.5587 83.7566 26.5969 84.6377 26.0524C85.5182 25.508 86.6183 25.4582 87.5451 25.9216L94.6223 29.4599C99.1731 31.7348 102 36.3084 102 41.3961V41.3977C102 46.4853 99.1731 51.059 94.6223 53.3337L87.5451 56.8738C86.6379 57.3272 85.5368 57.2985 84.6377 56.7429Z" fill="#FF6666"/>
<path d="M14.4551 56.8736L7.37687 53.333C2.82691 51.0588 0 46.4853 0 41.3976V41.3961C0 36.3084 2.82691 31.7347 7.37767 29.4601L14.4549 25.9217C15.3811 25.4584 16.4814 25.5082 17.3623 26.0526C18.2435 26.5971 18.7796 27.5589 18.7796 28.5947V54.201C18.7796 55.2368 18.2435 56.1986 17.3623 56.7431C16.4967 57.278 15.3964 57.3445 14.4551 56.8736Z" fill="#FFABAB"/>
<path d="M51 74.7933C50.542 74.7933 50.0842 74.6881 49.6637 74.4779L14.4551 56.8736C13.4427 56.3674 12.8032 55.3326 12.8032 54.2006V12.5906C12.8032 5.6359 18.4288 0 25.3938 0H76.6062C83.5597 0 89.1968 5.62474 89.1968 12.5906V54.2008C89.1968 55.3328 88.5573 56.3674 87.5449 56.8738L52.3364 74.4779C51.9158 74.6881 51.458 74.7933 51 74.7933Z" fill="#F5F9FF"/>
<path d="M87.5449 56.8736C88.5573 56.3674 89.1968 55.3326 89.1968 54.2006V12.5906C89.1968 5.62474 83.5595 0 76.6062 0H51V74.7933C51.458 74.7933 51.9158 74.6881 52.3364 74.4779L87.5449 56.8736Z" fill="#ECF1F9"/>
<path d="M44.1193 57.3973L26.4813 39.7593C25.3143 38.5925 25.3153 36.6991 26.4815 35.533L35.535 26.4811C36.702 25.3145 38.594 25.3143 39.7608 26.4813L46.2323 32.9528L62.306 16.879C63.4729 15.7122 65.3648 15.712 66.5319 16.8788L75.5852 25.9307C76.7526 27.0979 76.7514 28.9911 75.5854 30.1569L48.3454 57.3973C47.1782 58.5645 45.2854 58.5631 44.1193 57.3973Z" fill="#00D048"/>
<path d="M51 54.7427L75.5856 30.1569C76.7516 28.9911 76.7528 27.0979 75.5854 25.9307L66.5321 16.8788C65.3653 15.712 63.4733 15.7122 62.3063 16.879L51 28.1855V54.7427Z" fill="#00A45B"/>
</svg>
