<svg width="15" height="15" viewBox="0 0 15 15" fill="none" xmlns="http://www.w3.org/2000/svg">
<path fill-rule="evenodd" clip-rule="evenodd" d="M8.80991 14.7303C8.62317 14.9101 8.41337 15 8.1805 15C7.94764 15 7.74134 14.9101 7.56163 14.7303L0.260378 7.4456C0.162349 7.34754 0.0944451 7.24244 0.0566671 7.13032C0.018889 7.01819 0 6.90416 0 6.78823V0.871892C0 0.633871 0.0857705 0.42905 0.257311 0.25743C0.428852 0.0858101 0.633579 0 0.87149 0H6.78509C6.90337 0 7.01645 0.0199602 7.12436 0.0598805C7.23225 0.0998141 7.33615 0.163108 7.43605 0.249761L14.7128 7.49004C14.9058 7.68311 15.0015 7.90631 15 8.15966C14.9984 8.41301 14.9063 8.63111 14.7235 8.81398L8.80991 14.7303ZM8.22562 14.1327L14.1461 8.20104L6.79461 0.871892H0.87149V6.79458L8.22562 14.1327ZM3.5445 3.51283C3.38133 3.68193 3.17794 3.76647 2.93432 3.76647C2.68048 3.76647 2.4759 3.68064 2.32058 3.50898C2.16526 3.33731 2.0876 3.13293 2.0876 2.89584C2.0876 2.66427 2.16587 2.46775 2.32239 2.30627C2.47891 2.14479 2.68409 2.06404 2.93793 2.06404C3.17491 2.06404 3.37604 2.14566 3.54133 2.3089C3.70661 2.47214 3.78925 2.67133 3.78925 2.90647C3.78925 3.14161 3.70766 3.34373 3.5445 3.51283Z" fill="black"/>
</svg>
