<svg width="21" height="21" viewBox="0 0 21 21" fill="none" xmlns="http://www.w3.org/2000/svg">
<mask id="mask0_0_1668" style="mask-type:luminance" maskUnits="userSpaceOnUse" x="0" y="0" width="21" height="21">
<path fill-rule="evenodd" clip-rule="evenodd" d="M0 0L21 0L21 21L0 21L0 0Z" fill="white"/>
</mask>
<g mask="url(#mask0_0_1668)">
<path d="M8.65431 16.3925V16.3925C7.97239 16.3925 7.32602 16.6969 6.89179 17.2228L4.86709 19.6743C4.38906 20.2531 3.67752 20.5883 2.92681 20.5883H2.92677C1.46833 20.5883 0.315302 19.3524 0.416323 17.8974L1.0795 8.34759C1.18861 6.77674 2.49471 5.5582 4.06934 5.5582V5.5582C4.7714 5.5582 5.4512 5.80467 5.9901 6.25465L7.82801 7.78909H10.5053" stroke="#FF6666" stroke-width="0.820312" stroke-linecap="round" stroke-linejoin="round"/>
<path d="M10.4948 7.78909H13.172L15.0099 6.25461C15.5489 5.80467 16.2287 5.5582 16.9307 5.5582V5.5582C18.5053 5.5582 19.8114 6.77674 19.9206 8.34759L20.5837 17.8974C20.6848 19.3524 19.5317 20.5883 18.0732 20.5883V20.5883C17.3225 20.5883 16.611 20.2531 16.133 19.6742L14.1083 17.2227C13.674 16.6969 13.0277 16.3925 12.3457 16.3925V16.3925" stroke="#FF6666" stroke-width="0.820312" stroke-linecap="round" stroke-linejoin="round"/>
<path d="M10.5052 7.54846V5.76428C10.5052 4.77892 11.3041 3.9801 12.2894 3.9801L13.2686 3.9801C14.254 3.9801 15.0528 3.18128 15.0528 2.19592V2.19592C15.0528 1.21056 14.254 0.411743 13.2686 0.411743H10.5052" stroke="#FF6666" stroke-width="0.820312" stroke-linecap="round" stroke-linejoin="round"/>
<path fill-rule="evenodd" clip-rule="evenodd" d="M7.65588 11.0709H6.67151V10.0865C6.67151 9.63349 6.30425 9.26624 5.8512 9.26624C5.39814 9.26624 5.03088 9.63349 5.03088 10.0865V11.0709H4.04651C3.59345 11.0709 3.2262 11.4382 3.2262 11.8912C3.2262 12.3443 3.59345 12.7115 4.04651 12.7115H5.03088V13.6959C5.03088 14.149 5.39814 14.5162 5.8512 14.5162C6.30425 14.5162 6.67151 14.149 6.67151 13.6959V12.7115H7.65588C8.10894 12.7115 8.4762 12.3443 8.4762 11.8912C8.4762 11.4382 8.10894 11.0709 7.65588 11.0709Z" stroke="#FF6666" stroke-width="0.820312" stroke-linecap="round" stroke-linejoin="round"/>
<path fill-rule="evenodd" clip-rule="evenodd" d="M14.7028 12.3093C15.0678 12.6743 15.0678 13.2663 14.7028 13.6314C14.3377 13.9965 13.7457 13.9965 13.3806 13.6314C13.0155 13.2663 13.0155 12.6743 13.3806 12.3093C13.7457 11.9442 14.3377 11.9442 14.7028 12.3093Z" stroke="#FF6666" stroke-width="0.820312" stroke-linecap="round" stroke-linejoin="round"/>
<path fill-rule="evenodd" clip-rule="evenodd" d="M17.347 9.66504C17.7121 10.0301 17.7121 10.6221 17.347 10.9872C16.982 11.3523 16.39 11.3523 16.0249 10.9872C15.6598 10.6221 15.6598 10.0301 16.0249 9.66504C16.39 9.29996 16.982 9.29996 17.347 9.66504Z" stroke="#FF6666" stroke-width="0.820312" stroke-linecap="round" stroke-linejoin="round"/>
</g>
</svg>
