<svg width="58" height="57" viewBox="0 0 58 57" fill="none" xmlns="http://www.w3.org/2000/svg">
<path d="M27.6918 18.0818V16.6847C27.6918 13.4144 25.0374 10.7634 21.7633 10.7634C18.4887 10.7634 15.8342 13.4144 15.8342 16.6847V18.0818" stroke="#101D2C" stroke-width="1.31448" stroke-linecap="round" stroke-linejoin="round"/>
<path d="M21.7633 22.01V24.923" stroke="#101D2C" stroke-width="1.31448" stroke-linecap="round" stroke-linejoin="round"/>
<path d="M21.865 45.5814H12.9294C12.4749 45.5814 12.2971 45.1227 12.6771 44.929C14.0346 44.2344 14.952 43.128 15.2026 41.8815C15.5298 40.2555 15.3764 38.6003 15.3764 38.6003" stroke="#101D2C" stroke-width="1.31448" stroke-linecap="round" stroke-linejoin="round"/>
<path fill-rule="evenodd" clip-rule="evenodd" d="M21.9668 36.0992C21.9668 36.1553 21.921 36.2006 21.8648 36.2006C21.8086 36.2006 21.7632 36.1553 21.7632 36.0992C21.7632 36.0431 21.8086 35.9978 21.8648 35.9978C21.921 35.9978 21.9668 36.0431 21.9668 36.0992Z" stroke="#101D2C" stroke-width="1.31448" stroke-linecap="round" stroke-linejoin="round"/>
<path d="M21.8795 38.6004H15.7801H3.05827C1.92171 38.6004 1 37.6803 1 36.5448V33.5979H9.07097" stroke="#101D2C" stroke-width="1.31448" stroke-linecap="round" stroke-linejoin="round"/>
<path d="M21.8504 33.598H1.00012V28.0341V8.23081C1.00012 6.99998 1.99897 6.00244 3.23141 6.00244H21.8796" stroke="#101D2C" stroke-width="1.31448" stroke-linecap="round" stroke-linejoin="round"/>
<path d="M21.865 45.5814H30.8006C31.2551 45.5814 31.4329 45.1227 31.0529 44.929C29.6954 44.2344 28.778 43.128 28.5275 41.8815C28.2006 40.2555 28.3536 38.6003 28.3536 38.6003" stroke="#101D2C" stroke-width="1.31448" stroke-linecap="round" stroke-linejoin="round"/>
<path fill-rule="evenodd" clip-rule="evenodd" d="M21.7632 36.0992C21.7632 36.1553 21.809 36.2006 21.8652 36.2006C21.9214 36.2006 21.9668 36.1553 21.9668 36.0992C21.9668 36.0431 21.9214 35.9978 21.8652 35.9978C21.809 35.9978 21.7632 36.0431 21.7632 36.0992Z" stroke="#101D2C" stroke-width="1.31448" stroke-linecap="round" stroke-linejoin="round"/>
<path d="M21.8505 38.6004H27.9499H40.6717C41.8083 38.6004 42.73 37.6803 42.73 36.5448V33.5979H34.659" stroke="#101D2C" stroke-width="1.31448" stroke-linecap="round" stroke-linejoin="round"/>
<path d="M21.8795 33.598H42.7298V28.0341V8.23081C42.7298 6.99998 41.7309 6.00244 40.4985 6.00244H21.8507" stroke="#101D2C" stroke-width="1.31448" stroke-linecap="round" stroke-linejoin="round"/>
<path d="M45.1332 33.598H54.9421C56.0787 33.598 56.9999 32.6779 56.9999 31.5424V28.5959" stroke="#101D2C" stroke-width="1.31448" stroke-linecap="round" stroke-linejoin="round"/>
<path d="M45.1332 28.5958H57V23.0319V3.22861C57 1.99779 56.0011 1.00024 54.7687 1.00024H36.1205" stroke="#101D2C" stroke-width="1.31448" stroke-linecap="round" stroke-linejoin="round"/>
<path d="M15.2412 6.0025V3.2288C15.2412 1.99798 16.2405 1 17.4729 1H36.1207" stroke="#101D2C" stroke-width="1.31448" stroke-linecap="round" stroke-linejoin="round"/>
<path fill-rule="evenodd" clip-rule="evenodd" d="M40.1152 49.7241H11.5983L7.24036 56.0001H44.4732L40.1152 49.7241Z" stroke="#101D2C" stroke-width="1.31448" stroke-linecap="round" stroke-linejoin="round"/>
<path d="M17.6372 52.8621H35.4443" stroke="#101D2C" stroke-width="1.31448" stroke-linecap="round" stroke-linejoin="round" stroke-dasharray="0 3.25"/>
<path d="M45.0549 51.9915H48.0785C50.97 51.9915 52.7075 48.7434 51.0572 46.3723C50.2902 45.2707 49.2342 44.0055 47.7861 42.5766C45.0222 39.8504 48.1787 37.8379 48.1787 37.8379" stroke="#101D2C" stroke-width="1.31448" stroke-linecap="round" stroke-linejoin="round"/>
<path fill-rule="evenodd" clip-rule="evenodd" d="M54.3854 23.0319V3.61157H48.0485C49.3628 5.18013 50.261 7.05379 50.6615 9.05931L53.4253 25.1758C53.5055 25.6428 53.9108 25.9844 54.3854 25.9844V23.0319Z" fill="#FF6666"/>
</svg>
