<svg width="44" height="58" viewBox="0 0 44 58" fill="none" xmlns="http://www.w3.org/2000/svg">
<path d="M23.4469 37.9771L26.3346 52.5575L21.9999 56.9999L17.6653 52.5575L20.553 37.9771" stroke="#101D2C" stroke-width="1.23" stroke-linecap="round" stroke-linejoin="round"/>
<path fill-rule="evenodd" clip-rule="evenodd" d="M20.9466 48.5322L20.3086 51.7527C20.7997 52.2558 21.4219 52.893 22.0003 53.4856L23.6911 51.7527L23.0535 48.5322C22.7093 48.5867 22.359 48.6234 21.9998 48.6234C21.6407 48.6234 21.2908 48.5867 20.9466 48.5322" fill="#FF6666"/>
<path d="M29.7927 15.033C30.1344 17.0987 30.4473 19.4659 30.4327 21.1505C30.3442 23.0868 29.8868 24.5763 28.6956 26.0651C27.9054 27.0528 27.5734 28.3403 27.7183 29.6048L27.7856 30.1896C27.8372 30.6387 28.0791 31.0424 28.448 31.2952C28.5791 31.3851 28.7236 31.4536 28.8754 31.4985L35.8774 33.5642C36.7602 33.7614 37.6815 34.2509 38.5923 35.0118C40.0177 36.209 41.0003 37.8808 41.3619 39.7181L43 52.3397H28.7755" stroke="#101D2C" stroke-width="1.23" stroke-linecap="round" stroke-linejoin="round"/>
<path d="M12.9924 26.9995C7.16946 28.0148 4.49316 23.3518 4.49316 23.3518C6.68444 23.0841 8.06805 21.8688 8.9711 20.1408C10.209 17.7724 10.3413 15.2745 10.6417 12.6491C10.8547 10.7867 11.1612 8.91028 11.9149 7.19881C13.6268 3.3111 17.9111 1 21.9999 1C26.089 1 30.3733 3.3111 32.0853 7.19881C32.839 8.91028 33.1454 10.7867 33.3585 12.6491C33.6588 15.2745 33.7911 17.7724 35.029 20.1408C35.9321 21.8688 37.3157 23.0841 39.507 23.3518C39.507 23.3518 36.8307 28.0148 31.0077 26.9995" stroke="#101D2C" stroke-width="1.23" stroke-linecap="round" stroke-linejoin="round"/>
<path d="M15.5518 31.2952L22.0002 36.1871L28.4482 31.2952" stroke="#101D2C" stroke-width="1.23" stroke-linecap="round" stroke-linejoin="round"/>
<path d="M18.4623 36.3026L21.9998 38.9865L25.6896 36.1875" stroke="#101D2C" stroke-width="1.23" stroke-linecap="round" stroke-linejoin="round"/>
<path d="M29.033 47.4884H35.013" stroke="#101D2C" stroke-width="1.23" stroke-linecap="round" stroke-linejoin="round"/>
<path d="M15.2244 52.3396H1L2.63768 39.718C2.99971 37.8808 3.98191 36.2089 5.40772 35.0121C6.31808 34.2512 7.23981 33.7613 8.12257 33.5646L15.1246 31.4985C15.2764 31.4535 15.4209 31.385 15.5516 31.2951C15.9209 31.0427 16.1628 30.639 16.2144 30.1895L16.2817 29.6047C16.4266 28.3403 16.0946 27.0528 15.304 26.0651C14.1132 24.5763 13.6558 23.0867 13.5673 21.1505C13.5502 19.1544 13.9922 16.2008 14.3981 13.9248C14.7666 11.8578 16.1214 10.1142 18.0132 9.2667C19.54 8.58293 21.351 8.98173 22.4083 10.294C22.416 10.3031 22.4233 10.3125 22.4306 10.3216C23.1726 11.2524 23.7225 12.3391 24.5428 13.1989C25.8768 14.5978 27.905 15.2754 29.7955 14.9537" stroke="#101D2C" stroke-width="1.23" stroke-linecap="round" stroke-linejoin="round"/>
<path fill-rule="evenodd" clip-rule="evenodd" d="M22.0001 3.47437C19.4813 3.47437 17.057 4.54372 15.4689 6.23003C16.4884 5.90919 17.5339 5.68071 18.5981 5.63246C20.1623 5.56153 21.7769 5.89764 23.07 6.7942C24.2445 7.60828 25.0851 8.8228 26.1355 9.79607C27.461 11.0242 29.1129 11.8428 30.8598 12.2804C30.6792 10.884 30.4129 9.45997 29.8626 8.20956C28.6348 5.42173 25.4017 3.47437 22.0001 3.47437" fill="#FF6666"/>
</svg>
