<svg width="58" height="58" viewBox="0 0 58 58" fill="none" xmlns="http://www.w3.org/2000/svg">
<path fill-rule="evenodd" clip-rule="evenodd" d="M46.6881 21.7187V21.7187C45.5346 21.7187 44.6001 20.7837 44.6001 19.6307V18.1842C44.6001 17.0312 45.5346 16.0962 46.6881 16.0962C47.8417 16.0962 48.7762 17.0312 48.7762 18.1842V19.6307C48.7762 20.7837 47.8417 21.7187 46.6881 21.7187Z" stroke="#101D2C" stroke-width="1.3555" stroke-linecap="round" stroke-linejoin="round"/>
<path fill-rule="evenodd" clip-rule="evenodd" d="M37.9131 15.5978V15.5978C36.7596 15.5978 35.8251 14.6629 35.8251 13.5098V12.0634C35.8251 10.9103 36.7596 9.97534 37.9131 9.97534C39.0662 9.97534 40.0011 10.9103 40.0011 12.0634V13.5098C40.0011 14.6629 39.0662 15.5978 37.9131 15.5978Z" stroke="#101D2C" stroke-width="1.3555" stroke-linecap="round" stroke-linejoin="round"/>
<path fill-rule="evenodd" clip-rule="evenodd" d="M26.63 5.73999C12.4749 5.73999 1 17.2149 1 31.37C1 45.5251 12.4749 57 26.63 57C40.7851 57 52.26 45.5251 52.26 31.37H26.63V5.73999Z" stroke="#101D2C" stroke-width="1.3555" stroke-linecap="round" stroke-linejoin="round"/>
<path fill-rule="evenodd" clip-rule="evenodd" d="M31.37 1V26.63H57C57 12.4749 45.5251 1 31.37 1Z" stroke="#101D2C" stroke-width="1.3555" stroke-linecap="round" stroke-linejoin="round"/>
<path d="M23.8592 22.103C19.8672 23.2951 16.9553 26.9905 16.9553 31.3702C16.9553 36.7134 21.2869 41.045 26.6301 41.045C31.0098 41.045 34.7052 38.1331 35.8973 34.1411" stroke="#101D2C" stroke-width="1.3555" stroke-linecap="round" stroke-linejoin="round"/>
<path fill-rule="evenodd" clip-rule="evenodd" d="M42.751 35.3637C40.9582 42.5995 34.4121 47.9799 26.6303 47.9799C17.4711 47.9799 10.0204 40.5287 10.0204 31.3699C10.0204 23.7455 15.1863 17.3087 22.2008 15.3648V12.5581C13.6705 14.5663 7.2998 22.2356 7.2998 31.3699C7.2998 42.0286 15.9716 50.7004 26.6303 50.7004C35.9197 50.7004 43.6974 44.1126 45.5428 35.3637H42.751Z" fill="#FF6666"/>
</svg>
