<svg width="46" height="58" viewBox="0 0 46 58" fill="none" xmlns="http://www.w3.org/2000/svg">
<path d="M7.23413 16.9343C7.23413 8.1338 14.2832 1 22.9792 1C31.6747 1 38.7242 8.1338 38.7242 16.9343" stroke="#101D2C" stroke-width="1.28873" stroke-linecap="round" stroke-linejoin="round"/>
<path d="M36.3518 26.1474H38.5135C40.4624 26.1474 42.0423 24.5485 42.0423 22.5758V20.4088C42.0423 18.4365 40.4624 16.8372 38.5135 16.8372H36.3518V26.1474V27.8167C36.3518 32.4434 32.6451 36.1946 28.073 36.1946H26.424" stroke="#101D2C" stroke-width="1.28873" stroke-linecap="round" stroke-linejoin="round"/>
<path fill-rule="evenodd" clip-rule="evenodd" d="M9.60539 26.1474H7.44366C5.49478 26.1474 3.91443 24.5485 3.91443 22.5758V20.4088C3.91443 18.4365 5.49478 16.8372 7.44366 16.8372H9.60539V26.1474Z" stroke="#101D2C" stroke-width="1.28873" stroke-linecap="round" stroke-linejoin="round"/>
<path fill-rule="evenodd" clip-rule="evenodd" d="M26.8494 36.1947H24.4036C23.7855 36.1947 23.2843 35.6875 23.2843 35.0616V34.3739C23.2843 33.7484 23.7855 33.2412 24.4036 33.2412H26.8494C27.4679 33.2412 27.969 33.7484 27.969 34.3739V35.0616C27.969 35.6875 27.4679 36.1947 26.8494 36.1947Z" stroke="#101D2C" stroke-width="1.28873" stroke-linecap="round" stroke-linejoin="round"/>
<path d="M32.0215 56.9999H45L43.284 45.5856C42.9052 43.669 41.876 41.9242 40.3822 40.6754C39.4284 39.8815 38.4632 39.3704 37.5384 39.165L32.9748 37.9524" stroke="#101D2C" stroke-width="1.28873" stroke-linecap="round" stroke-linejoin="round"/>
<path d="M12.6148 56.7145H1L2.71599 45.5861C3.09135 43.672 4.12018 41.9285 5.61948 40.6754C6.57153 39.8807 7.53894 39.3687 8.48672 39.1572L15.7973 37.0096C15.9564 36.9626 16.1074 36.8913 16.2447 36.7977C16.6312 36.5339 16.8845 36.1122 16.9383 35.6434L17.2735 32.7063C16.3629 31.9888 15.5635 31.1121 14.8849 30.1158C14.3637 29.3505 13.9503 28.5156 13.5972 27.6574L12.9761 26.1475" stroke="#101D2C" stroke-width="1.28873" stroke-linecap="round" stroke-linejoin="round"/>
<path d="M24.4138 15.0018C24.4138 15.0018 22.6462 21.2006 12.3908 20.0497C12.1003 18.7646 12.0649 17.4278 12.3379 16.1384C12.7815 14.0409 13.699 12.0651 15.0857 10.4209C17.1915 7.92322 20.0878 6.38086 23.2843 6.38086C26.9223 6.38086 30.1709 8.37863 32.3091 11.5087C32.7058 12.0893 33.0368 12.713 33.3401 13.3485L34.1804 15.1088" stroke="#101D2C" stroke-width="1.28873" stroke-linecap="round" stroke-linejoin="round"/>
<path d="M22.9791 57.0001V45.7412" stroke="#101D2C" stroke-width="1.28873" stroke-linecap="round" stroke-linejoin="round"/>
<path d="M22.9791 45.7413L27.2446 41.4246" stroke="#101D2C" stroke-width="1.28873" stroke-linecap="round" stroke-linejoin="round"/>
<path d="M22.9791 45.7413L18.7136 41.4246" stroke="#101D2C" stroke-width="1.28873" stroke-linecap="round" stroke-linejoin="round"/>
<path d="M23.9001 12.7529C23.9001 12.7529 24.659 19.7944 33.4799 19.5496" stroke="#101D2C" stroke-width="1.28873" stroke-linecap="round" stroke-linejoin="round"/>
<path fill-rule="evenodd" clip-rule="evenodd" d="M40.7637 46.0404C40.4907 44.7242 39.7779 43.5302 38.7521 42.6716C37.96 42.0125 37.3556 41.7759 36.9887 41.6948L36.9384 41.6831L36.8885 41.6702L36.2163 41.4915C37.4793 43.8216 38.1976 46.4561 38.2496 49.1139C38.265 49.906 38.2163 50.7288 37.8521 51.4298C37.5548 52.0027 37.0698 52.449 36.595 52.8824C36.0375 53.3918 35.4805 53.9007 34.923 54.4101H42.022L40.7637 46.0404Z" fill="#FF6666"/>
<path fill-rule="evenodd" clip-rule="evenodd" d="M5.73658 46.0404C6.00957 44.7242 6.72232 43.5302 7.74817 42.6716C8.54026 42.0125 9.14467 41.7759 9.5115 41.6948L9.56184 41.6831L9.61174 41.6702L10.284 41.4915C9.02098 43.8216 8.30267 46.4561 8.25064 49.1139C8.23528 49.906 8.28391 50.7288 8.64818 51.4298C8.94548 52.0027 9.43046 52.449 9.9052 52.8824C10.4627 53.3918 11.0198 53.9007 11.5773 54.4101H4.47827L5.73658 46.0404Z" fill="#FF6666"/>
</svg>
