<svg width="51" height="58" viewBox="0 0 51 58" fill="none" xmlns="http://www.w3.org/2000/svg">
<path d="M21.4909 18.4983V35.696" stroke="#101D2C" stroke-width="1.27879" stroke-linecap="round" stroke-linejoin="round"/>
<path d="M25.4998 35.6962V22.9233" stroke="#101D2C" stroke-width="1.27879" stroke-linecap="round" stroke-linejoin="round"/>
<path d="M29.5087 22.9231V35.6959" stroke="#101D2C" stroke-width="1.27879" stroke-linecap="round" stroke-linejoin="round"/>
<path d="M29.5087 18.4983V22.9231" stroke="#101D2C" stroke-width="1.27879" stroke-linecap="round" stroke-linejoin="round"/>
<path fill-rule="evenodd" clip-rule="evenodd" d="M29.2726 4.78182C29.2726 6.87021 27.5836 8.56364 25.4997 8.56364C23.4162 8.56364 21.7272 6.87021 21.7272 4.78182C21.7272 2.69342 23.4162 1 25.4997 1C27.5836 1 29.2726 2.69342 29.2726 4.78182Z" stroke="#101D2C" stroke-width="1.27879" stroke-linecap="round" stroke-linejoin="round"/>
<path d="M18.3181 22.9232V13.3692C18.3181 12.0108 19.4169 10.9094 20.7722 10.9094H30.2276C31.5828 10.9094 32.6816 12.0108 32.6816 13.3692V22" stroke="#101D2C" stroke-width="1.27879" stroke-linecap="round" stroke-linejoin="round"/>
<path d="M21.491 22.9232H29.5087" stroke="#101D2C" stroke-width="1.27879" stroke-linecap="round" stroke-linejoin="round"/>
<path d="M36.9332 35.8522H41.5143C42.4494 35.7387 43.1584 34.8335 43.1584 33.7549V32.2546C43.1584 32.2546 47.175 35.6582 50 37.879C47.175 40.0997 43.1584 43.5033 43.1584 43.5033V42.0035C43.1584 40.9244 42.4494 40.0196 41.5143 39.9057H36.9332H32.3093C29.7078 39.9057 27.5991 42.0198 27.5991 44.6269V48.4949C27.7128 49.4318 28.6154 50.1429 29.6916 50.1429H31.1883C31.1883 50.1429 27.7927 54.1689 25.5771 57.0001C23.3616 54.1689 19.966 50.1429 19.966 50.1429H21.4623C22.5389 50.1429 23.4415 49.4318 23.5552 48.4949V44.6269C23.5552 42.0198 21.4482 39.9057 18.8467 39.9057H9.48528C8.55059 40.0196 7.84114 40.9244 7.84114 42.0035V43.5033C7.84114 43.5033 3.82458 40.0997 1 37.879C3.82458 35.6582 7.84114 32.2546 7.84114 32.2546V33.7549C7.84114 34.8335 8.55059 35.7387 9.48528 35.8522H14.0664" stroke="#101D2C" stroke-width="1.27879" stroke-linecap="round" stroke-linejoin="round"/>
<path fill-rule="evenodd" clip-rule="evenodd" d="M20.964 13.197V15.6311L22.9009 15.1115C24.6036 14.6544 26.396 14.6544 28.0987 15.1115L30.0356 15.6311V13.197H20.964Z" fill="#FF6666"/>
</svg>
