<svg width="55" height="57" viewBox="0 0 55 57" fill="none" xmlns="http://www.w3.org/2000/svg">
<path d="M34.8299 11.7189H30.6942" stroke="#101D2C" stroke-width="1.28192" stroke-linecap="round" stroke-linejoin="round"/>
<path d="M35.8285 17.3884L31.6486 18.9114" stroke="#101D2C" stroke-width="1.28192" stroke-linecap="round" stroke-linejoin="round"/>
<path d="M36.1507 6.04944L31.9958 4.5354" stroke="#101D2C" stroke-width="1.28192" stroke-linecap="round" stroke-linejoin="round"/>
<path d="M11.4225 40.9797V51.9254" stroke="#101D2C" stroke-width="1.28192" stroke-linecap="round" stroke-linejoin="round"/>
<path d="M2.90125 51.9257V50.9739C2.90125 48.477 4.92275 46.4526 7.41657 46.4526H15.4286C17.9224 46.4526 19.9439 48.477 19.9439 50.9739V51.9257" stroke="#101D2C" stroke-width="1.28192" stroke-linecap="round" stroke-linejoin="round"/>
<path fill-rule="evenodd" clip-rule="evenodd" d="M13.324 53.8288C13.324 52.7774 12.4729 51.9253 11.4228 51.9253C10.3727 51.9253 9.52161 52.7774 9.52161 53.8288C9.52161 54.8797 10.3727 55.7319 11.4228 55.7319C12.4729 55.7319 13.324 54.8797 13.324 53.8288Z" stroke="#101D2C" stroke-width="1.28192" stroke-linecap="round" stroke-linejoin="round"/>
<path fill-rule="evenodd" clip-rule="evenodd" d="M21.8451 53.8288C21.8451 52.7774 20.994 51.9253 19.9439 51.9253C18.8938 51.9253 18.0427 52.7774 18.0427 53.8288C18.0427 54.8797 18.8938 55.7319 19.9439 55.7319C20.994 55.7319 21.8451 54.8797 21.8451 53.8288Z" stroke="#101D2C" stroke-width="1.28192" stroke-linecap="round" stroke-linejoin="round"/>
<path fill-rule="evenodd" clip-rule="evenodd" d="M4.80238 53.8288C4.80238 52.7774 3.95127 51.9253 2.90119 51.9253C1.85111 51.9253 1 52.7774 1 53.8288C1 54.8797 1.85111 55.7319 2.90119 55.7319C3.95127 55.7319 4.80238 54.8797 4.80238 53.8288Z" stroke="#101D2C" stroke-width="1.28192" stroke-linecap="round" stroke-linejoin="round"/>
<path d="M1 16.1431V36.6825C1 39.0559 2.9216 40.9798 5.29213 40.9798H19.6067" stroke="#101D2C" stroke-width="1.28192" stroke-linecap="round" stroke-linejoin="round"/>
<path fill-rule="evenodd" clip-rule="evenodd" d="M18.5706 6.73608C18.5706 9.9042 16.0058 12.4722 12.8415 12.4722C9.67767 12.4722 7.11243 9.9042 7.11243 6.73608C7.11243 3.56838 9.67767 1 12.8415 1C16.0058 1 18.5706 3.56838 18.5706 6.73608Z" stroke="#101D2C" stroke-width="1.28192" stroke-linecap="round" stroke-linejoin="round"/>
<path d="M19.6068 28.9752V35.7447H12.6049C8.99932 35.7447 6.07654 32.8184 6.07654 29.2084V19.3601C6.07654 17.5835 7.51518 16.1431 9.28968 16.1431H16.6279C18.2731 16.1431 19.6068 17.4783 19.6068 19.126V23.3519" stroke="#101D2C" stroke-width="1.28192" stroke-linecap="round" stroke-linejoin="round"/>
<path d="M12.8416 18.4082V23.6139C12.8416 25.022 13.9818 26.1636 15.3881 26.1636H25.0905" stroke="#101D2C" stroke-width="1.28192" stroke-linecap="round" stroke-linejoin="round"/>
<path d="M53.9999 55.9999V30.4162C53.9999 29.4746 53.2376 28.7114 52.2972 28.7114H26.8934C25.9535 28.7114 25.1908 29.4746 25.1908 30.4162V55.9999" stroke="#101D2C" stroke-width="1.28192" stroke-linecap="round" stroke-linejoin="round"/>
<path fill-rule="evenodd" clip-rule="evenodd" d="M47.0194 25.4565H41.0557C39.6625 25.4565 38.533 26.5875 38.533 27.9828V28.7115H49.5426V27.9828C49.5426 26.5875 48.413 25.4565 47.0194 25.4565Z" stroke="#101D2C" stroke-width="1.28192" stroke-linecap="round" stroke-linejoin="round"/>
<path d="M44.0376 25.4565V21.1392" stroke="#101D2C" stroke-width="1.28192" stroke-linecap="round" stroke-linejoin="round"/>
<path fill-rule="evenodd" clip-rule="evenodd" d="M45.0009 21.1391H40.276V2.30786H45.0009C46.5463 2.30786 47.7991 3.56226 47.7991 5.1095V18.3375C47.7991 19.8847 46.5463 21.1391 45.0009 21.1391Z" stroke="#101D2C" stroke-width="1.28192" stroke-linecap="round" stroke-linejoin="round"/>
<path d="M19.6067 35.7448H25.0905" stroke="#101D2C" stroke-width="1.28192" stroke-linecap="round" stroke-linejoin="round"/>
<path d="M25.1909 40.9799V40.9799C34.4966 37.5981 44.6938 37.5976 53.9996 40.9799H54" stroke="#101D2C" stroke-width="1.28192" stroke-linecap="round" stroke-linejoin="round"/>
<path fill-rule="evenodd" clip-rule="evenodd" d="M27.7416 31.2654V37.9234L32.8538 36.5124C37.7003 35.1746 42.8282 35.2542 47.6314 36.7414L51.4491 37.9234V31.2654H27.7416Z" fill="#FF6666"/>
</svg>
