<svg width="494" height="517" viewBox="0 0 494 517" fill="none" xmlns="http://www.w3.org/2000/svg">
<g opacity="0.094746">
<path fill-rule="evenodd" clip-rule="evenodd" d="M247.448 0L161.414 142.728L0 180.437L114.517 306.898L89.2731 517L187.738 369.202L160.693 351.13L137.825 385.453L148.57 296.033L61.2187 199.57L182.161 171.317L245.756 65.8109L302.169 171.312L431.192 199.752L340.929 296.199L356.103 387.792L307.311 322.316C323.87 306.023 334.136 283.37 334.136 258.323C334.136 208.707 293.853 168.486 244.161 168.486C194.469 168.486 154.186 208.707 154.186 258.323C154.186 307.939 194.469 348.161 244.161 348.161C257.039 348.161 269.285 345.459 280.362 340.593L410.078 514.663L375.631 306.732L494 180.256L323.767 142.732L247.448 0ZM244.161 206.908C215.632 206.908 192.551 229.953 192.551 258.323C192.551 286.693 215.632 309.738 244.161 309.738C272.69 309.738 295.771 286.693 295.771 258.323C295.771 229.953 272.69 206.908 244.161 206.908Z" fill="white"/>
<mask id="mask0_0_411" style="mask-type:luminance" maskUnits="userSpaceOnUse" x="0" y="0" width="494" height="517">
<path fill-rule="evenodd" clip-rule="evenodd" d="M247.448 0L161.414 142.728L0 180.437L114.517 306.898L89.2731 517L187.738 369.202L160.693 351.13L137.825 385.453L148.57 296.033L61.2187 199.57L182.161 171.317L245.756 65.8109L302.169 171.312L431.192 199.752L340.929 296.199L356.103 387.792L307.311 322.316C323.87 306.023 334.136 283.37 334.136 258.323C334.136 208.707 293.853 168.486 244.161 168.486C194.469 168.486 154.186 208.707 154.186 258.323C154.186 307.939 194.469 348.161 244.161 348.161C257.039 348.161 269.285 345.459 280.362 340.593L410.078 514.663L375.631 306.732L494 180.256L323.767 142.732L247.448 0ZM244.161 206.908C215.632 206.908 192.551 229.953 192.551 258.323C192.551 286.693 215.632 309.738 244.161 309.738C272.69 309.738 295.771 286.693 295.771 258.323C295.771 229.953 272.69 206.908 244.161 206.908Z" fill="white"/>
</mask>
<g mask="url(#mask0_0_411)">
</g>
</g>
</svg>
