<svg width="1440" height="820" viewBox="0 0 1440 820" fill="none" xmlns="http://www.w3.org/2000/svg">
<g clip-path="url(#clip0_2720_4335)">
<rect width="1440" height="820" fill="white"/>
<path d="M71.9843 0V63.0769M71.9843 0H0V63.0769M71.9843 0H143.969M71.9843 63.0769L71.9843 126.154M71.9843 63.0769H0M71.9843 63.0769L143.969 63.0769M71.9843 126.154V189.231M71.9843 126.154H0M71.9843 126.154L143.969 126.154M71.9843 189.231L71.9843 252.308M71.9843 189.231H0M71.9843 189.231H143.968M71.9843 252.308V315.385M71.9843 252.308H0M71.9843 252.308H143.968M71.9843 315.385V378.461M71.9843 315.385H0M71.9843 315.385H143.968M71.9843 378.461L71.9842 441.538M71.9843 378.461H0M71.9843 378.461H143.968M71.9842 441.538V504.615M71.9842 441.538H0M71.9842 441.538H143.968M71.9842 504.615V567.692M71.9842 504.615H0M71.9842 504.615H143.968M71.9842 567.692L71.9842 630.769M71.9842 567.692H0M71.9842 567.692H143.968M71.9842 630.769V693.846M71.9842 630.769H0M71.9842 630.769H143.968M71.9842 693.846L71.9842 756.923M71.9842 693.846H0M71.9842 693.846H143.968M71.9842 756.923V820M71.9842 756.923H0M71.9842 756.923H143.968M71.9842 820L0 820V756.923M71.9842 820H143.968M0 63.0769V126.154M0 126.154V189.231M0 189.231V252.308M0 252.308V315.385M0 315.385V378.461M0 378.461V441.538M0 441.538V504.615M0 504.615V567.692M0 567.692V630.769M0 630.769V693.846M0 693.846V756.923M143.969 0V63.0769M143.969 0H215.953M143.969 63.0769V126.154M143.969 63.0769H215.953M143.969 126.154L143.968 189.231M143.969 126.154H215.953M143.968 189.231V252.308M143.968 189.231L215.953 189.231M143.968 252.308V315.385M143.968 252.308H215.953M143.968 315.385V378.461M143.968 315.385H215.953M143.968 378.461L143.968 441.538M143.968 378.461H215.953M143.968 441.538V504.615M143.968 441.538H215.953M143.968 504.615V567.692M143.968 504.615H215.953M143.968 567.692V630.769M143.968 567.692H215.953M143.968 630.769L143.968 693.846M143.968 630.769H215.953M143.968 693.846V756.923M143.968 693.846H215.953M143.968 756.923V820M143.968 756.923H215.953M143.968 820H215.953M215.953 0V63.0769M215.953 0H287.937M215.953 63.0769V126.154M215.953 63.0769L287.937 63.0769M215.953 126.154L215.953 189.231M215.953 126.154H287.937M215.953 189.231V252.308M215.953 189.231H287.937M215.953 252.308V315.385M215.953 252.308L287.937 252.308M215.953 315.385V378.461M215.953 315.385L287.937 315.385M215.953 378.461L215.953 441.538M215.953 378.461H287.937M215.953 441.538V504.615M215.953 441.538H287.937M215.953 504.615V567.692M215.953 504.615H287.937M215.953 567.692V630.769M215.953 567.692H287.937M215.953 630.769L215.953 693.846M215.953 630.769H287.937M215.953 693.846V756.923M215.953 693.846H287.937M215.953 756.923V820M215.953 756.923H287.937M215.953 820H287.937M287.937 0V63.0769M287.937 0H359.921M287.937 63.0769V126.154M287.937 63.0769H359.921M287.937 126.154V189.231M287.937 126.154L359.921 126.154M287.937 189.231V252.308M287.937 189.231H359.921M287.937 252.308V315.385M287.937 252.308H359.921M287.937 315.385V378.461M287.937 315.385H359.921M287.937 378.461L287.937 441.538M287.937 378.461H359.921M287.937 441.538V504.615M287.937 441.538H359.921M287.937 504.615V567.692M287.937 504.615H359.921M287.937 567.692V630.769M287.937 567.692H359.921M287.937 630.769V693.846M287.937 630.769H359.921M287.937 693.846V756.923M287.937 693.846H359.921M287.937 756.923V820M287.937 756.923H359.921M287.937 820H359.921M503.89 0V63.0769M503.89 0H431.905M503.89 0H575.874M503.89 63.0769V126.154M503.89 63.0769H431.905M503.89 63.0769L575.874 63.0769M503.89 126.154V189.231M503.89 126.154H431.905M503.89 126.154H575.874M503.89 189.231V252.308M503.89 189.231L431.905 189.231M503.89 189.231H575.874M503.89 252.308V315.385M503.89 252.308H431.905M503.89 252.308H575.874M503.89 315.385V378.462M503.89 315.385H431.905M503.89 315.385H575.874M503.89 378.462L503.89 441.538M503.89 378.462L431.905 378.461M503.89 378.462H575.874M503.89 441.538V504.615M503.89 441.538L431.905 441.538M503.89 441.538H575.874M503.89 504.615V567.692M503.89 504.615L431.905 504.615M503.89 504.615H575.874M503.89 567.692V630.769M503.89 567.692H431.905M503.89 567.692H575.874M503.89 630.769V693.846M503.89 630.769L431.905 630.769M503.89 630.769H575.874M503.89 693.846V756.923M503.89 693.846L431.905 693.846M503.89 693.846H575.874M503.89 756.923V820M503.89 756.923L431.905 756.923M503.89 756.923H575.874M503.89 820H431.905M503.89 820H575.874M719.842 0V63.077M719.842 0H647.858M719.842 0H791.827M719.842 63.077V126.154M719.842 63.077L647.858 63.0769M719.842 63.077H791.827M719.842 126.154V189.231M719.842 126.154H647.858M719.842 126.154H791.827M719.842 189.231V252.308M719.842 189.231H647.858M719.842 189.231L791.827 189.231M719.842 252.308V315.385M719.842 252.308L647.858 252.308M719.842 252.308H791.827M719.842 315.385V378.462M719.842 315.385L647.858 315.385M719.842 315.385H791.827M719.842 378.462L719.842 441.538M719.842 378.462H647.858M719.842 378.462H791.827M719.842 441.538V504.615M719.842 441.538H647.858M719.842 441.538H791.827M719.842 504.615V567.692M719.842 504.615H647.858M719.842 504.615H791.827M719.842 567.692V630.769M719.842 567.692H647.858M719.842 567.692H791.827M719.842 630.769V693.846M719.842 630.769H647.858M719.842 630.769H791.827M719.842 693.846V756.923M719.842 693.846H647.858M719.842 693.846H791.827M719.842 756.923V820M719.842 756.923H647.858M719.842 756.923H791.827M719.842 820H647.858M719.842 820H791.827M359.921 0V63.0769M359.921 0H431.905M359.921 63.0769V126.154M359.921 63.0769L431.905 63.0769M359.921 126.154V189.231M359.921 126.154H431.905M359.921 189.231V252.308M359.921 189.231H431.905M359.921 252.308V315.385M359.921 252.308H431.905M359.921 315.385V378.461M359.921 315.385H431.905M359.921 378.461L359.921 441.538M359.921 378.461H431.905M359.921 441.538V504.615M359.921 441.538H431.905M359.921 504.615V567.692M359.921 504.615H431.905M359.921 567.692V630.769M359.921 567.692H431.905M359.921 630.769V693.846M359.921 630.769H431.905M359.921 693.846V756.923M359.921 693.846H431.905M359.921 756.923V820M359.921 756.923H431.905M359.921 820H431.905M575.874 0V63.0769M575.874 0H647.858M575.874 63.0769V126.154M575.874 63.0769H647.858M575.874 126.154V189.231M575.874 126.154L647.858 126.154M575.874 189.231V252.308M575.874 189.231H647.858M575.874 252.308V315.385M575.874 252.308H647.858M575.874 315.385V378.462M575.874 315.385H647.858M575.874 378.462L575.874 441.538M575.874 378.462H647.858M575.874 441.538V504.615M575.874 441.538H647.858M575.874 504.615V567.692M575.874 504.615H647.858M575.874 567.692V630.769M575.874 567.692H647.858M575.874 630.769V693.846M575.874 630.769H647.858M575.874 693.846V756.923M575.874 693.846H647.858M575.874 756.923V820M575.874 756.923H647.858M575.874 820H647.858M791.827 0V63.077M791.827 0H863.811M791.827 63.077V126.154M791.827 63.077L863.811 63.077M791.827 126.154V189.231M791.827 126.154L863.811 126.154M791.827 189.231V252.308M791.827 189.231H863.811M791.827 252.308V315.385M791.827 252.308H863.811M791.827 315.385V378.462M791.827 315.385H863.811M791.827 378.462V441.538M791.827 378.462H863.811M791.827 441.538V504.615M791.827 441.538H863.811M791.827 504.615V567.692M791.827 504.615H863.811M791.827 567.692V630.769M791.827 567.692H863.811M791.827 630.769V693.846M791.827 630.769H863.811M791.827 693.846V756.923M791.827 693.846H863.811M791.827 756.923V820M791.827 756.923H863.811M791.827 820H863.811M431.905 0V63.0769M431.905 63.0769V126.154M431.905 126.154V189.231M431.905 189.231L431.905 252.308M431.905 252.308V315.385M431.905 315.385V378.461M431.905 378.461V441.538M431.905 441.538V504.615M431.905 504.615V567.692M431.905 567.692L431.905 630.769M431.905 630.769V693.846M431.905 693.846V756.923M431.905 756.923V820M647.858 0V63.0769M647.858 63.0769V126.154M647.858 126.154V189.231M647.858 189.231V252.308M647.858 252.308V315.385M647.858 315.385V378.462M647.858 378.462V441.538M647.858 441.538V504.615M647.858 504.615V567.692M647.858 567.692V630.769M647.858 630.769V693.846M647.858 693.846V756.923M647.858 756.923V820M863.811 0V63.077M863.811 0H935.795V820H863.811M863.811 63.077V126.154M863.811 63.077H935.794M863.811 126.154V189.231M863.811 126.154H935.794M863.811 189.231V252.308M863.811 189.231H935.794M863.811 252.308V315.385M863.811 252.308H935.794M863.811 315.385V378.462M863.811 315.385H935.794M863.811 378.462V441.538M863.811 378.462H935.794M863.811 441.538V504.615M863.811 441.538H935.794M863.811 504.615V567.692M863.811 504.615H935.794M863.811 567.692V630.769M863.811 567.692H935.794M863.811 630.769V693.846M863.811 630.769H935.794M863.811 693.846V756.923M863.811 693.846H935.794M863.811 756.923V820M863.811 756.923H935.794M576.189 0V63.0769M576.189 0H504.205V63.0769M576.189 0H648.173M576.189 63.0769V126.154M576.189 63.0769H504.205M576.189 63.0769L648.173 63.0769M576.189 126.154V189.231M576.189 126.154H504.205M576.189 126.154L648.173 126.154M576.189 189.231V252.308M576.189 189.231H504.205M576.189 189.231H648.173M576.189 252.308V315.385M576.189 252.308H504.205M576.189 252.308H648.173M576.189 315.385V378.461M576.189 315.385H504.205M576.189 315.385H648.173M576.189 378.461V441.538M576.189 378.461H504.205M576.189 378.461H648.173M576.189 441.538V504.615M576.189 441.538H504.205M576.189 441.538H648.173M576.189 504.615V567.692M576.189 504.615H504.205M576.189 504.615H648.173M576.189 567.692V630.769M576.189 567.692H504.205M576.189 567.692H648.173M576.189 630.769V693.846M576.189 630.769H504.205M576.189 630.769H648.173M576.189 693.846L576.189 756.923M576.189 693.846H504.205M576.189 693.846H648.173M576.189 756.923V820M576.189 756.923H504.205M576.189 756.923H648.173M576.189 820L504.205 820V756.923M576.189 820H648.173M504.205 63.0769V126.154M504.205 126.154V189.231M504.205 189.231V252.308M504.205 252.308V315.385M504.205 315.385V378.461M504.205 378.461V441.538M504.205 441.538V504.615M504.205 504.615V567.692M504.205 567.692V630.769M504.205 630.769V693.846M504.205 693.846V756.923M648.173 0V63.0769M648.173 0H720.158M648.173 63.0769V126.154M648.173 63.0769H720.158M648.173 126.154V189.231M648.173 126.154H720.158M648.173 189.231V252.308M648.173 189.231L720.158 189.231M648.173 252.308V315.385M648.173 252.308H720.158M648.173 315.385V378.461M648.173 315.385H720.158M648.173 378.461V441.538M648.173 378.461H720.158M648.173 441.538V504.615M648.173 441.538H720.158M648.173 504.615V567.692M648.173 504.615H720.158M648.173 567.692V630.769M648.173 567.692H720.158M648.173 630.769V693.846M648.173 630.769H720.158M648.173 693.846V756.923M648.173 693.846H720.158M648.173 756.923V820M648.173 756.923H720.158M648.173 820H720.158M720.158 0V63.0769M720.158 0H792.142M720.158 63.0769V126.154M720.158 63.0769L792.142 63.0769M720.158 126.154L720.158 189.231M720.158 126.154H792.142M720.158 189.231V252.308M720.158 189.231H792.142M720.158 252.308V315.385M720.158 252.308L792.142 252.308M720.158 315.385V378.461M720.158 315.385L792.142 315.385M720.158 378.461V441.538M720.158 378.461H792.142M720.158 441.538V504.615M720.158 441.538H792.142M720.158 504.615V567.692M720.158 504.615H792.142M720.158 567.692V630.769M720.158 567.692H792.142M720.158 630.769V693.846M720.158 630.769H792.142M720.158 693.846V756.923M720.158 693.846H792.142M720.158 756.923V820M720.158 756.923H792.142M720.158 820H792.142M792.142 0V63.0769M792.142 0H864.126M792.142 63.0769V126.154M792.142 63.0769H864.126M792.142 126.154V189.231M792.142 126.154L864.126 126.154M792.142 189.231V252.308M792.142 189.231H864.126M792.142 252.308V315.385M792.142 252.308H864.126M792.142 315.385V378.461M792.142 315.385H864.126M792.142 378.461L792.142 441.538M792.142 378.461H864.126M792.142 441.538V504.615M792.142 441.538H864.126M792.142 504.615V567.692M792.142 504.615H864.126M792.142 567.692V630.769M792.142 567.692H864.126M792.142 630.769V693.846M792.142 630.769H864.126M792.142 693.846V756.923M792.142 693.846H864.126M792.142 756.923V820M792.142 756.923H864.126M792.142 820H864.126M1008.09 0V63.0769M1008.09 0H936.11M1008.09 0H1080.08M1008.09 63.0769V126.154M1008.09 63.0769H936.11M1008.09 63.0769L1080.08 63.0769M1008.09 126.154V189.231M1008.09 126.154H936.11M1008.09 126.154H1080.08M1008.09 189.231V252.308M1008.09 189.231L936.11 189.231M1008.09 189.231H1080.08M1008.09 252.308V315.385M1008.09 252.308H936.11M1008.09 252.308H1080.08M1008.09 315.385V378.462M1008.09 315.385H936.11M1008.09 315.385H1080.08M1008.09 378.462V441.538M1008.09 378.462L936.11 378.461M1008.09 378.462H1080.08M1008.09 441.538V504.615M1008.09 441.538L936.11 441.538M1008.09 441.538H1080.08M1008.09 504.615V567.692M1008.09 504.615L936.11 504.615M1008.09 504.615H1080.08M1008.09 567.692V630.769M1008.09 567.692H936.11M1008.09 567.692H1080.08M1008.09 630.769V693.846M1008.09 630.769L936.11 630.769M1008.09 630.769H1080.08M1008.09 693.846V756.923M1008.09 693.846L936.11 693.846M1008.09 693.846H1080.08M1008.09 756.923V820M1008.09 756.923L936.11 756.923M1008.09 756.923H1080.08M1008.09 820H936.11M1008.09 820H1080.08M1224.05 0V63.077M1224.05 0H1152.06M1224.05 0H1296.03M1224.05 63.077V126.154M1224.05 63.077L1152.06 63.0769M1224.05 63.077H1296.03M1224.05 126.154V189.231M1224.05 126.154H1152.06M1224.05 126.154H1296.03M1224.05 189.231V252.308M1224.05 189.231H1152.06M1224.05 189.231L1296.03 189.231M1224.05 252.308V315.385M1224.05 252.308L1152.06 252.308M1224.05 252.308H1296.03M1224.05 315.385V378.462M1224.05 315.385L1152.06 315.385M1224.05 315.385H1296.03M1224.05 378.462L1224.05 441.538M1224.05 378.462H1152.06M1224.05 378.462H1296.03M1224.05 441.538V504.615M1224.05 441.538H1152.06M1224.05 441.538H1296.03M1224.05 504.615V567.692M1224.05 504.615H1152.06M1224.05 504.615H1296.03M1224.05 567.692V630.769M1224.05 567.692H1152.06M1224.05 567.692H1296.03M1224.05 630.769V693.846M1224.05 630.769H1152.06M1224.05 630.769H1296.03M1224.05 693.846V756.923M1224.05 693.846H1152.06M1224.05 693.846H1296.03M1224.05 756.923V820M1224.05 756.923H1152.06M1224.05 756.923H1296.03M1224.05 820H1152.06M1224.05 820H1296.03M864.126 0V63.0769M864.126 0H936.11M864.126 63.0769V126.154M864.126 63.0769L936.11 63.0769M864.126 126.154V189.231M864.126 126.154H936.11M864.126 189.231V252.308M864.126 189.231H936.11M864.126 252.308V315.385M864.126 252.308H936.11M864.126 315.385V378.461M864.126 315.385H936.11M864.126 378.461V441.538M864.126 378.461H936.11M864.126 441.538V504.615M864.126 441.538H936.11M864.126 504.615V567.692M864.126 504.615H936.11M864.126 567.692V630.769M864.126 567.692H936.11M864.126 630.769V693.846M864.126 630.769H936.11M864.126 693.846V756.923M864.126 693.846H936.11M864.126 756.923V820M864.126 756.923H936.11M864.126 820H936.11M1080.08 0V63.0769M1080.08 0H1152.06M1080.08 63.0769V126.154M1080.08 63.0769H1152.06M1080.08 126.154V189.231M1080.08 126.154L1152.06 126.154M1080.08 189.231V252.308M1080.08 189.231H1152.06M1080.08 252.308V315.385M1080.08 252.308H1152.06M1080.08 315.385V378.462M1080.08 315.385H1152.06M1080.08 378.462V441.538M1080.08 378.462H1152.06M1080.08 441.538V504.615M1080.08 441.538H1152.06M1080.08 504.615V567.692M1080.08 504.615H1152.06M1080.08 567.692V630.769M1080.08 567.692H1152.06M1080.08 630.769V693.846M1080.08 630.769H1152.06M1080.08 693.846V756.923M1080.08 693.846H1152.06M1080.08 756.923V820M1080.08 756.923H1152.06M1080.08 820H1152.06M1296.03 0V63.077M1296.03 0H1368.02M1296.03 63.077V126.154M1296.03 63.077L1368.02 63.077M1296.03 126.154V189.231M1296.03 126.154L1368.02 126.154M1296.03 189.231V252.308M1296.03 189.231H1368.02M1296.03 252.308V315.385M1296.03 252.308H1368.02M1296.03 315.385V378.462M1296.03 315.385H1368.02M1296.03 378.462V441.538M1296.03 378.462H1368.02M1296.03 441.538V504.615M1296.03 441.538H1368.02M1296.03 504.615V567.692M1296.03 504.615H1368.02M1296.03 567.692V630.769M1296.03 567.692H1368.02M1296.03 630.769V693.846M1296.03 630.769H1368.02M1296.03 693.846V756.923M1296.03 693.846H1368.02M1296.03 756.923V820M1296.03 756.923H1368.02M1296.03 820H1368.02M936.11 0V63.0769M936.11 63.0769V126.154M936.11 126.154V189.231M936.11 189.231V252.308M936.11 252.308V315.385M936.11 315.385V378.461M936.11 378.461V441.538M936.11 441.538V504.615M936.11 504.615V567.692M936.11 567.692L936.11 630.769M936.11 630.769V693.846M936.11 693.846V756.923M936.11 756.923V820M1152.06 0V63.0769M1152.06 63.0769V126.154M1152.06 126.154V189.231M1152.06 189.231V252.308M1152.06 252.308V315.385M1152.06 315.385V378.462M1152.06 378.462V441.538M1152.06 441.538V504.615M1152.06 504.615V567.692M1152.06 567.692V630.769M1152.06 630.769V693.846M1152.06 693.846V756.923M1152.06 756.923V820M1368.02 0V63.077M1368.02 0H1440V820H1368.02M1368.02 63.077V126.154M1368.02 63.077H1440M1368.02 126.154V189.231M1368.02 126.154H1440M1368.02 189.231V252.308M1368.02 189.231H1440M1368.02 252.308V315.385M1368.02 252.308H1440M1368.02 315.385V378.462M1368.02 315.385H1440M1368.02 378.462V441.538M1368.02 378.462H1440M1368.02 441.538V504.615M1368.02 441.538H1440M1368.02 504.615V567.692M1368.02 504.615H1440M1368.02 567.692V630.769M1368.02 567.692H1440M1368.02 630.769V693.846M1368.02 630.769H1440M1368.02 693.846V756.923M1368.02 693.846H1440M1368.02 756.923V820M1368.02 756.923H1440" stroke="url(#paint0_linear_2720_4335)"/>
<path d="M326.727 297.861L336.237 295.062L405.853 579.201L403.154 580.572L326.727 297.861Z" fill="#392C60"/>
<path d="M348.09 376.882L355.77 374.783L336.237 295.062L326.727 297.861L348.09 376.882Z" fill="#06DAFF"/>
<path d="M335.477 326.44L337.844 324.57L338.696 336.375L337.039 335.977L335.729 331.133L335.477 326.44Z" fill="#05A7C2"/>
<path d="M289.617 228.467L307.107 173.741L337.615 172.102L343.965 209.311L336.784 210.404L335.605 232.565L314.452 223.538L315.718 234.205L289.617 228.467Z" fill="#F8B1C2"/>
<path d="M355.275 166.914C355.275 166.914 347.93 179.057 338.824 179.138C329.718 179.219 321.373 179.138 321.373 179.138L310.886 206.582H307.898L310.149 195.496L289.594 221.357V172.136C289.594 172.136 332.047 172.955 337.589 172.136C343.134 171.316 355.275 166.914 355.275 166.914Z" fill="#392C60"/>
<path d="M308.036 198.517C310.793 198.517 313.026 196.245 313.026 193.442C313.026 190.639 310.793 188.367 308.036 188.367C305.28 188.367 303.047 190.639 303.047 193.442C303.047 196.245 305.28 198.517 308.036 198.517Z" fill="#F8B1C2"/>
<path d="M311.392 197.19C310.869 197.645 310.261 197.985 309.601 198.188C308.942 198.392 308.247 198.453 307.564 198.37C306.881 198.287 306.221 198.061 305.627 197.705C305.036 197.349 304.52 196.872 304.119 196.304C303.715 195.736 303.433 195.089 303.29 194.405C303.144 193.72 303.144 193.012 303.281 192.326C303.421 191.641 303.697 190.992 304.095 190.42C304.496 189.849 305.004 189.368 305.595 189.008C304.647 189.833 304.038 190.99 303.893 192.249C303.744 193.509 304.065 194.779 304.796 195.809C305.523 196.838 306.607 197.551 307.828 197.807C309.052 198.062 310.323 197.842 311.392 197.19Z" fill="#E58CAE"/>
<path d="M330.398 192.715C330.253 192.716 330.11 192.674 329.988 192.593C329.867 192.513 329.768 192.398 329.712 192.263C329.653 192.128 329.635 191.978 329.659 191.833C329.685 191.687 329.751 191.552 329.852 191.444L333.288 187.629C333.35 187.542 333.428 187.47 333.52 187.416C333.609 187.362 333.713 187.328 333.817 187.317C333.921 187.305 334.028 187.317 334.126 187.35C334.226 187.383 334.319 187.437 334.396 187.509C334.473 187.581 334.535 187.668 334.58 187.766C334.621 187.864 334.642 187.97 334.642 188.077C334.642 188.184 334.619 188.289 334.574 188.387C334.529 188.484 334.467 188.571 334.387 188.641L330.951 192.456C330.879 192.536 330.796 192.6 330.701 192.645C330.606 192.689 330.502 192.713 330.398 192.715Z" fill="#392C60"/>
<path d="M336.594 214.031L326.398 211.789L336.167 222.07L336.594 214.031Z" fill="white"/>
<path d="M334.424 197.825C334.816 197.825 335.134 197.13 335.134 196.272C335.134 195.414 334.816 194.719 334.424 194.719C334.032 194.719 333.711 195.414 333.711 196.272C333.711 197.13 334.032 197.825 334.424 197.825Z" fill="#392C60"/>
<path d="M321.359 179.133H338.811L339.393 182.553L321.359 179.133Z" fill="#E58CAE"/>
<path d="M311.418 189.352L309.062 200.933H311.418L314.572 189.352H311.418Z" fill="#392C60"/>
<path opacity="0.1" d="M336.594 214.031L336.485 216.085L326.398 211.789L336.594 214.031Z" fill="#392C60"/>
<path d="M365.609 157.961L288.188 193.888L288.746 195.131L366.168 159.204L365.609 157.961Z" fill="#8184EB"/>
<path d="M288.189 193.938L283.312 170.061C283.312 170.061 314.266 150.227 318.614 152.438C322.962 154.649 338.86 170.445 338.86 170.445L288.189 193.938Z" fill="#686BE3"/>
<path d="M297.947 161.086L297.234 158.915L302.444 156.562L303.112 158.268L297.947 161.086Z" fill="#FFE911"/>
<path d="M326.412 176.967C326.278 176.967 326.148 176.931 326.032 176.861C325.916 176.792 325.821 176.692 325.756 176.573C321.93 169.439 315.601 158.358 313.855 157.174C311.648 155.656 307.882 156.703 307.823 156.713C307.636 156.767 307.434 156.745 307.258 156.65C307.086 156.556 306.958 156.397 306.896 156.207C306.843 156.016 306.863 155.811 306.958 155.636C307.05 155.461 307.208 155.33 307.395 155.271C307.573 155.216 311.874 154.001 314.674 155.934C317.282 157.74 326.056 174.012 327.05 175.859C327.137 176.034 327.157 176.237 327.101 176.426C327.045 176.615 326.92 176.774 326.751 176.871C326.647 176.929 326.531 176.962 326.412 176.967Z" fill="#FFE911"/>
<path d="M293.873 192.059C293.71 192.059 293.547 192.003 293.416 191.9C293.285 191.796 293.193 191.651 293.152 191.487C292.302 188.041 288.109 170.717 288.905 168.167C289.739 165.506 295.676 161.686 296.368 161.26C296.451 161.202 296.543 161.161 296.644 161.14C296.742 161.12 296.843 161.12 296.944 161.14C297.042 161.161 297.135 161.202 297.218 161.26C297.301 161.319 297.372 161.394 297.426 161.481C297.479 161.568 297.515 161.665 297.529 161.767C297.547 161.868 297.541 161.972 297.518 162.071C297.491 162.171 297.446 162.264 297.384 162.346C297.325 162.427 297.247 162.495 297.158 162.546C294.791 164.063 290.844 167.023 290.342 168.617C289.879 170.09 292.198 181.302 294.616 191.108C294.663 191.303 294.631 191.509 294.53 191.681C294.429 191.853 294.265 191.979 294.072 192.029C294.01 192.047 293.942 192.058 293.873 192.059Z" fill="#FFE911"/>
<path d="M238.836 589.421L241.426 625.673L252.067 623.426L257.583 587.18L238.836 589.421Z" fill="#F8B1C2"/>
<path d="M242.786 356.794L234.461 605.745L262.216 598.968L319.988 354.828L242.786 356.794Z" fill="#8184EB"/>
<path d="M363 548.23V573.641L373.288 572.149L379.172 544.117L363 548.23Z" fill="#F8B1C2"/>
<path d="M241.43 397.499L358.264 464.039V559.441L384.91 551.537L414.224 452.971C414.759 451.171 414.723 449.247 414.123 447.471C413.523 445.692 412.389 444.152 410.88 443.068L289.422 355.594L242.787 356.805L241.43 397.499Z" fill="#8184EB"/>
<path d="M241.43 397.508L262.217 598.966L301.756 431.869L241.43 397.508Z" fill="#686BE4"/>
<path d="M358.264 559.449L365.798 460.076L241.43 397.508L358.264 464.047V559.449Z" fill="#686BE4"/>
<path d="M302.426 615.958L294.573 620.131H282.099L275.078 630.493L247.291 645.267L230.258 651.343L232.955 616.707L259.429 606.43L257.588 619.322L302.426 615.958Z" fill="#FFE911"/>
<path d="M247.289 645.274L275.076 630.5L271.702 635.489L265.522 638.775L247.289 645.274Z" fill="#392C60"/>
<path d="M303.353 618.638L300.555 620.127H294.57L302.423 615.953L303.353 618.638Z" fill="#392C60"/>
<path d="M254.866 627.928C254.78 627.928 254.696 627.916 254.616 627.885C254.429 627.819 254.278 627.677 254.192 627.496C254.105 627.315 254.094 627.106 254.159 626.916L256.876 619.076C256.909 618.982 256.96 618.898 257.025 618.822C257.09 618.747 257.17 618.686 257.257 618.644C257.346 618.602 257.444 618.578 257.542 618.572C257.637 618.566 257.735 618.581 257.83 618.614C257.922 618.647 258.005 618.698 258.079 618.765C258.154 618.831 258.21 618.913 258.255 619.003C258.296 619.091 258.32 619.191 258.326 619.29C258.332 619.39 258.317 619.49 258.284 619.583L255.567 627.42C255.516 627.568 255.421 627.698 255.296 627.789C255.169 627.879 255.02 627.928 254.866 627.928Z" fill="#392C60"/>
<path d="M262.6 626.44C262.508 626.44 262.418 626.422 262.332 626.389C262.148 626.316 261.997 626.171 261.917 625.987C261.836 625.803 261.83 625.595 261.899 625.407L264.486 618.486C264.518 618.389 264.569 618.298 264.637 618.223C264.702 618.147 264.786 618.084 264.875 618.042C264.967 617.996 265.065 617.972 265.166 617.969C265.267 617.966 265.368 617.981 265.46 618.017C265.555 618.054 265.641 618.111 265.712 618.181C265.786 618.253 265.843 618.338 265.881 618.431C265.92 618.525 265.941 618.627 265.941 618.73C265.941 618.833 265.92 618.933 265.881 619.026L263.298 625.948C263.244 626.093 263.149 626.217 263.024 626.304C262.9 626.392 262.751 626.437 262.6 626.44Z" fill="#392C60"/>
<path d="M269.36 625.625C269.268 625.625 269.173 625.607 269.087 625.568C268.998 625.531 268.915 625.477 268.843 625.408C268.772 625.338 268.716 625.257 268.677 625.166C268.638 625.075 268.618 624.976 268.618 624.876C268.615 624.776 268.632 624.68 268.668 624.586L271.252 617.963C271.329 617.782 271.472 617.637 271.65 617.559C271.831 617.483 272.033 617.48 272.214 617.553C272.392 617.625 272.541 617.767 272.621 617.948C272.698 618.129 272.707 618.335 272.639 618.519L270.058 625.142C270.002 625.284 269.906 625.408 269.782 625.492C269.657 625.577 269.511 625.625 269.36 625.625Z" fill="#392C60"/>
<path d="M429.88 582.988L398.205 590.43H398.199L373.174 582.173L357.641 596.325L358.947 567.1L382.286 558.883V571.026L389.078 572.739L395.784 574.421L429.88 582.988Z" fill="#FFE911"/>
<path d="M430.615 585.787L403.959 592.325L398.203 590.426L429.878 582.984L430.615 585.787Z" fill="#392C60"/>
<path d="M378.058 577.778C377.921 577.778 377.785 577.742 377.669 577.669C377.55 577.597 377.455 577.491 377.392 577.367C377.33 577.244 377.303 577.102 377.315 576.963C377.324 576.824 377.375 576.691 377.455 576.579L381.681 570.6C381.794 570.433 381.969 570.325 382.165 570.292C382.361 570.258 382.56 570.307 382.721 570.424C382.884 570.542 382.991 570.717 383.024 570.917C383.056 571.116 383.009 571.321 382.893 571.484L378.664 577.464C378.595 577.561 378.503 577.639 378.396 577.697C378.292 577.751 378.177 577.778 378.058 577.778Z" fill="#392C60"/>
<path d="M385.233 579.44C385.087 579.44 384.942 579.395 384.82 579.313C384.656 579.202 384.541 579.03 384.499 578.83C384.46 578.634 384.499 578.429 384.606 578.259L388.461 572.304C388.514 572.216 388.583 572.138 388.663 572.078C388.746 572.017 388.838 571.972 388.936 571.948C389.037 571.926 389.138 571.923 389.239 571.942C389.337 571.96 389.432 571.996 389.518 572.053C389.601 572.111 389.676 572.186 389.732 572.271C389.786 572.358 389.824 572.455 389.842 572.555C389.86 572.657 389.857 572.763 389.833 572.863C389.809 572.962 389.768 573.056 389.705 573.141L385.856 579.096C385.788 579.202 385.696 579.286 385.586 579.347C385.479 579.407 385.357 579.44 385.233 579.44Z" fill="#392C60"/>
<path d="M392.398 581.688C392.276 581.688 392.154 581.654 392.047 581.597C391.875 581.503 391.747 581.343 391.691 581.153C391.631 580.966 391.649 580.76 391.738 580.582L395.127 574.068C395.222 573.89 395.38 573.757 395.57 573.697C395.76 573.639 395.965 573.657 396.137 573.754C396.312 573.848 396.443 574.008 396.502 574.201C396.559 574.394 396.541 574.603 396.446 574.781L393.057 581.292C392.995 581.413 392.897 581.512 392.781 581.582C392.665 581.651 392.531 581.688 392.398 581.688Z" fill="#392C60"/>
<path d="M344.615 319.234L337.844 324.571L339.174 339.837L350.885 342.715L353.983 322.112L344.615 319.234Z" fill="#F8B1C2"/>
<path d="M335.481 326.436L344.619 319.231L346.202 315.664L334.812 319.231L335.481 326.436Z" fill="#F8B1C2"/>
<path d="M340.5 322.469L353.384 326.063L353.12 327.808L340.5 322.469Z" fill="#E58CAE"/>
<path d="M352.472 332.219L352.246 333.717L338.195 328.531L352.472 332.219Z" fill="#E58CAE"/>
<path d="M351.478 337.988L338.695 334.352L351.404 339.262L351.478 337.988Z" fill="#E58CAE"/>
<path d="M339.078 338.703L339.179 339.842L350.89 342.72L351.124 341.192L339.078 338.703Z" fill="#E58CAE"/>
<path d="M334.812 319.233L336.844 323.265L345.332 317.633L344.619 319.233L335.481 326.439L334.812 319.233Z" fill="#E58CAE"/>
<path d="M315.72 234.207L329.213 258.559L340.998 386.251L237.422 391.792L289.62 228.469L315.72 234.207Z" fill="#FFE911"/>
<path d="M303.204 232.127L247.677 391.246L237.422 391.792L289.62 228.469L303.204 232.127Z" fill="#DFCE09"/>
<path d="M293.883 215.133L314.453 223.542L315.718 234.208L293.883 215.133Z" fill="#E58CAE"/>
<path d="M372.687 295.797L381.493 296.359L313.792 618.804L311.039 619.245L372.687 295.797Z" fill="#392C60"/>
<path d="M372.685 295.797L355.453 386.204L362.495 386.826L381.494 296.359L372.685 295.797Z" fill="#06DAFF"/>
<path d="M360.772 357.617L359.961 362.591L367.549 362.772L368.042 358.354L364.6 359.478L360.772 357.617Z" fill="#05A7C2"/>
<path d="M320.992 253.426L303.208 232.125L288.15 240.094L256.617 350.477L347.897 351.352L364.606 359.467L377.686 355.209L380.309 338.581L375.836 329.711L360.778 332.444L350.137 341.338L303.032 322.502L320.992 253.426Z" fill="#F8B1C2"/>
<path d="M377.882 333.789L367.547 336.368L378.515 335.124L377.882 333.789Z" fill="#E58CAE"/>
<path d="M380.31 338.578L367.688 343.102L380.007 340.523L380.31 338.578Z" fill="#E58CAE"/>
<path d="M379.096 346.234L368.039 350.487L378.844 347.838L379.096 346.234Z" fill="#E58CAE"/>
<path d="M377.971 353.421L365.536 356.777L347.891 350.093L262.32 348.191L288.15 240.094L256.617 350.477L347.897 351.353L364.606 359.467L377.686 355.206L377.971 353.421Z" fill="#E58CAE"/>
<path d="M303.03 322.514L294.477 318.186L320.99 253.438L303.03 322.514Z" fill="#E58CAE"/>
<path d="M360.773 332.444L366.752 326.969L365.906 331.423L360.773 332.444Z" fill="#E58CAE"/>
<path d="M239.516 385.242L173.273 380.893V369.608L251.506 222.062L289.62 228.463L286.944 236.842L239.516 385.242Z" fill="#06DAFF"/>
<path d="M211.931 324.914L189.68 368.574L227.387 378.957L245.578 339.229L211.931 324.914Z" fill="#05A7C2"/>
<path d="M211.931 323.469L189.68 367.129L227.387 377.512L245.578 339.224L211.931 323.469Z" fill="#8184EB"/>
<path d="M237.428 343.315C237.33 343.315 237.232 343.294 237.14 343.254L212.106 332.564C211.925 332.485 211.779 332.337 211.705 332.15C211.628 331.963 211.631 331.754 211.705 331.567C211.782 331.383 211.928 331.235 212.112 331.159C212.296 331.081 212.501 331.084 212.685 331.159L237.717 341.856C237.877 341.926 238.005 342.046 238.085 342.2C238.165 342.357 238.192 342.533 238.156 342.705C238.123 342.877 238.031 343.031 237.901 343.14C237.767 343.251 237.601 343.312 237.428 343.315Z" fill="#392C60"/>
<path d="M232.527 352.608C232.438 352.608 232.346 352.593 232.263 352.557L207.882 343.267C207.79 343.231 207.704 343.18 207.633 343.11C207.561 343.044 207.505 342.962 207.463 342.869C207.383 342.687 207.377 342.476 207.446 342.289C207.517 342.102 207.656 341.947 207.838 341.863C208.019 341.781 208.224 341.775 208.408 341.845L232.792 351.134C232.955 351.198 233.094 351.316 233.184 351.47C233.27 351.624 233.302 351.808 233.27 351.983C233.24 352.158 233.148 352.318 233.014 352.433C232.878 352.548 232.708 352.608 232.533 352.608H232.527Z" fill="#392C60"/>
<path d="M228.546 360.324C228.472 360.324 228.398 360.312 228.327 360.287L203.512 352.571C203.322 352.511 203.165 352.378 203.073 352.2C202.978 352.025 202.96 351.816 203.016 351.623C203.076 351.43 203.206 351.27 203.382 351.173C203.557 351.079 203.762 351.061 203.949 351.119L228.766 358.835C228.939 358.886 229.087 359.001 229.185 359.155C229.283 359.309 229.322 359.496 229.295 359.677C229.268 359.859 229.176 360.025 229.04 360.142C228.903 360.26 228.728 360.327 228.546 360.324Z" fill="#392C60"/>
<path d="M224.908 368.92C224.839 368.923 224.771 368.914 224.703 368.896L199.327 361.624C199.232 361.597 199.143 361.551 199.066 361.491C198.988 361.428 198.926 361.352 198.879 361.265C198.828 361.177 198.798 361.083 198.786 360.984C198.775 360.884 198.783 360.784 198.81 360.688C198.837 360.591 198.881 360.503 198.941 360.425C199 360.346 199.077 360.28 199.164 360.232C199.247 360.183 199.342 360.15 199.44 360.138C199.538 360.126 199.636 360.135 199.731 360.162L225.107 367.431C225.279 367.483 225.427 367.594 225.525 367.748C225.62 367.899 225.662 368.084 225.638 368.265C225.614 368.443 225.528 368.609 225.392 368.73C225.258 368.851 225.086 368.917 224.908 368.92Z" fill="#392C60"/>
<path d="M229.488 326.283C229.396 326.283 229.304 326.265 229.215 326.232C229.031 326.156 228.882 326.014 228.805 325.83C228.725 325.646 228.722 325.437 228.793 325.25L267.246 225.35C267.281 225.255 267.332 225.168 267.4 225.094C267.469 225.02 267.552 224.96 267.641 224.919C267.733 224.877 267.831 224.854 267.929 224.852C268.03 224.849 268.128 224.867 268.223 224.905C268.315 224.942 268.398 224.997 268.469 225.068C268.541 225.139 268.597 225.224 268.636 225.317C268.674 225.41 268.695 225.511 268.695 225.612C268.695 225.713 268.674 225.814 268.636 225.907L230.186 325.8C230.13 325.942 230.035 326.066 229.91 326.15C229.785 326.235 229.64 326.28 229.488 326.283Z" fill="#05A7C2"/>
<path d="M228.548 325.335C228.455 325.335 228.363 325.317 228.28 325.277C228.188 325.241 228.105 325.19 228.034 325.12C227.962 325.051 227.906 324.969 227.867 324.876C227.826 324.785 227.805 324.688 227.805 324.589C227.802 324.489 227.82 324.39 227.856 324.296L266.112 224.903C266.183 224.717 266.326 224.566 266.507 224.486C266.688 224.405 266.893 224.401 267.077 224.473C267.169 224.509 267.253 224.562 267.324 224.631C267.395 224.7 267.452 224.782 267.49 224.874C267.532 224.965 267.553 225.064 267.553 225.163C267.556 225.263 267.535 225.362 267.499 225.455L229.245 324.855C229.189 324.997 229.094 325.117 228.969 325.202C228.845 325.289 228.699 325.335 228.548 325.335Z" fill="#8184EB"/>
<path d="M221.378 278.906L195.762 283.971L181.711 299.691L214.218 292.41L221.378 278.906Z" fill="#8184EB"/>
<path d="M195.253 296.651L165.781 351.849L179.36 358.149L214.216 292.406L195.253 296.651Z" fill="#392C60"/>
<path d="M165.781 351.849L214.216 292.406L179.36 358.149L165.781 351.849Z" fill="#1D1038"/>
<path d="M239.516 385.248L173.273 380.899L234.467 379.42L289.62 228.469L239.516 385.248Z" fill="#05A7C2"/>
<path d="M241.423 241.062L226.903 246.092L214.203 272.053L222.115 277.472L241.423 241.062Z" fill="#8184EB"/>
<path d="M287.942 205.873C289.772 194.415 282.121 183.619 270.853 181.759C259.585 179.899 248.967 187.68 247.138 199.138C245.308 210.596 252.959 221.392 264.227 223.252C275.495 225.112 286.113 217.331 287.942 205.873Z" fill="#FFE911"/>
<path d="M288.194 202.483C288.194 207.112 286.691 211.613 283.917 215.284C281.143 218.956 277.255 221.594 272.857 222.789C268.458 223.984 263.792 223.669 259.59 221.893C255.384 220.117 251.874 216.979 249.602 212.966C253.278 216.262 257.983 218.123 262.883 218.218C267.784 218.312 272.557 216.634 276.352 213.482C280.148 210.331 282.72 205.91 283.608 201.01C284.496 196.109 283.644 191.048 281.202 186.727C283.403 188.696 285.164 191.121 286.37 193.837C287.576 196.555 288.2 199.502 288.194 202.483Z" fill="#DFCE09"/>
<path d="M263.92 218.627C259.937 218.627 256.272 217.24 253.789 214.721C251.036 211.933 249.622 207.738 249.922 203.225C250.113 200.588 250.852 198.022 252.099 195.7C253.344 193.379 255.063 191.355 257.142 189.766C257.22 189.7 257.309 189.65 257.407 189.619C257.502 189.589 257.603 189.579 257.704 189.59C257.805 189.601 257.903 189.633 257.992 189.684C258.078 189.734 258.155 189.802 258.218 189.884C258.28 189.966 258.325 190.059 258.348 190.159C258.375 190.259 258.378 190.363 258.363 190.464C258.345 190.566 258.31 190.663 258.256 190.75C258.203 190.837 258.132 190.912 258.048 190.97C256.139 192.429 254.559 194.286 253.412 196.418C252.269 198.549 251.586 200.904 251.41 203.326C251.146 207.404 252.405 211.164 254.844 213.648C257.511 216.35 261.755 217.584 266.198 216.947C270.641 216.309 274.523 213.886 276.385 210.481C278.752 206.149 277.781 200.816 276.085 197.27C274.517 193.986 272.144 191.704 269.896 191.355C267.223 190.925 263.875 192.974 261.933 195.22C260.466 196.931 259.804 198.686 260.169 199.911C260.87 202.259 265.562 203.235 267.944 203.453C268.042 203.46 268.137 203.488 268.227 203.533C268.313 203.578 268.393 203.64 268.455 203.716C268.521 203.792 268.568 203.88 268.598 203.975C268.63 204.07 268.642 204.17 268.633 204.27C268.628 204.369 268.601 204.467 268.556 204.556C268.512 204.645 268.449 204.724 268.375 204.79C268.301 204.855 268.215 204.904 268.12 204.935C268.028 204.966 267.93 204.978 267.832 204.97C266.507 204.864 259.869 204.151 258.74 200.382C258.241 198.626 258.972 196.394 260.81 194.254C262.94 191.77 266.78 189.346 270.115 189.888C272.878 190.333 275.589 192.858 277.413 196.632C279.275 200.523 280.32 206.408 277.674 211.25C275.589 215.065 271.369 217.766 266.391 218.48C265.571 218.585 264.746 218.634 263.92 218.627Z" fill="#DFCE09"/>
<path d="M240.029 241.836C239.842 241.835 239.66 241.763 239.524 241.634C239.384 241.505 239.298 241.328 239.283 241.138C239.158 239.579 236.328 202.82 249.527 187.682C253.011 183.674 257.365 181.544 262.434 181.352C262.633 181.345 262.826 181.418 262.972 181.555C263.117 181.692 263.204 181.882 263.21 182.083C263.216 182.284 263.144 182.48 263.011 182.628C262.874 182.775 262.69 182.863 262.491 182.87C257.843 183.047 253.857 185.005 250.643 188.689C237.864 203.362 240.742 240.637 240.771 241.011C240.78 241.111 240.768 241.211 240.739 241.306C240.709 241.401 240.661 241.49 240.599 241.566C240.534 241.642 240.456 241.705 240.37 241.75C240.281 241.796 240.186 241.823 240.088 241.831L240.029 241.836Z" fill="#8184EB"/>
<path d="M289.613 228.469H306.13L323.81 253.428L303.023 322.505L320.983 253.428L303.198 232.127L286.938 236.848L289.613 228.469Z" fill="#06DAFF"/>
<path d="M248.953 355.709L257.213 348.367L259.975 338.703L252.55 344.465L248.953 355.709Z" fill="#05A7C2"/>
<path d="M241.428 241.062L218.312 274.867L222.12 277.472L241.428 241.062Z" fill="#686BE3"/>
<path d="M221.374 278.906L210.008 293.352L214.213 292.41L221.374 278.906Z" fill="#686BE3"/>
<path d="M393.148 657.658V672.716L393.261 677.935C389.602 678.937 385.999 680.139 382.468 681.534C378.375 683.144 374.41 685.065 370.6 687.279C325.185 713.858 323.498 764.575 323.498 764.575C323.498 764.575 290.08 716.159 249.89 736.746C231.627 746.093 240.62 767.293 242.765 771.742C240.772 768.063 231.817 753.622 214.232 757.922C204.315 760.347 202.408 776.562 202.408 776.562C202.408 776.562 197.193 762.329 179.762 770.045C168.533 775.019 174.538 784.257 174.722 784.538C174.149 784.066 132.979 750.312 109.339 758.581C80.2841 768.74 93.6444 791.912 93.6444 791.912C93.6444 791.912 75.2732 776.405 64.4356 784.384C53.7772 792.239 55.7677 800.248 55.8324 800.501C55.683 800.459 53.2696 799.752 49.468 798.982C43.6041 797.759 37.6474 797.053 31.6641 796.868L61.5197 753.024L76.2586 755.322V733.161L116.191 701.379L138.085 707.923L145.728 710.209V701.379L183.047 685.494L197.656 646.898L221.247 654.593L270.727 636.938L282.088 620.165H331.499L373.169 582.219L403.959 592.378L405.289 592.813L422.649 591.049L417.478 636.914L393.148 657.658Z" fill="#F8B1C2"/>
<path d="M76.2812 733.117L97.0707 762.034L76.2812 755.284V733.117Z" fill="#E58CAE"/>
<path d="M197.664 646.867L199.357 733.436L183.055 685.457L197.664 646.867Z" fill="#E58CAE"/>
<path d="M282.092 620.133L270.731 636.906L266.336 661.597L259.086 654.558L262.596 683.429L275.07 680.258L269.356 729.569L286.027 661.597L272.558 670.724L282.092 620.133Z" fill="#E58CAE"/>
<path d="M373.172 582.164L337.173 633L331.5 620.122L373.172 582.164Z" fill="#E58CAE"/>
<path d="M393.145 657.652L393.531 677.847L393.258 677.926C389.599 678.931 385.996 680.133 382.465 681.529L380.172 661.995L403.379 594.051L403.968 592.336L393.145 657.652Z" fill="#E58CAE"/>
<path d="M61.5396 752.984L49.468 798.943C43.6041 797.72 37.6474 797.013 31.6641 796.826L61.5396 752.984Z" fill="#E58CAE"/>
<path d="M145.729 701.352V710.176L138.086 707.893L145.729 701.352Z" fill="#E58CAE"/>
<path d="M8.44893 827.459C8.34587 827.459 8.24459 827.435 8.15044 827.393C7.73226 827.212 -2.11002 822.839 -4.11537 816.648C-4.43316 815.709 -4.54334 814.712 -4.43761 813.725C-4.33158 812.737 -4.0126 811.786 -3.50325 810.94C2.25885 800.82 14.41 795.665 31.6518 796.076C37.68 796.263 43.6814 796.976 49.59 798.205C51.884 798.676 53.7001 799.126 54.9092 799.449C54.72 796.767 55.2924 790.144 63.9704 783.763C72.8626 777.216 86.1931 785.469 91.6517 789.435C90.2733 785.895 88.6164 779.514 90.99 772.997C93.4331 766.292 99.5136 761.198 109.067 757.858C129.887 750.576 163.381 774.779 172.731 782.008C172.092 780.148 172.021 778.134 172.52 776.231C173.351 773.326 175.68 771.01 179.437 769.343C185.502 766.658 190.818 766.262 195.231 768.171C198.047 769.421 200.417 771.523 202.018 774.193C202.959 769.512 205.935 759.159 214.031 757.181C226.773 754.064 235.184 760.63 239.686 765.978C237.049 757.504 235.326 743.331 249.523 736.065C266.217 727.522 284.42 729.681 302.163 742.326C312.615 749.758 320.078 758.851 322.873 762.508C323.823 753.297 325.98 744.256 329.294 735.627C334.902 720.914 346.55 700.466 370.2 686.628C374.034 684.396 378.026 682.46 382.142 680.835C385.7 679.428 389.33 678.217 393.016 677.205C393.105 677.172 393.2 677.145 393.295 677.127C432.769 666.288 484.563 674.596 511.83 688.884C520.684 693.529 525.947 699.807 527.485 707.553C530.048 720.491 521.554 733.553 518.433 737.817C535.855 736.207 553.348 735.582 570.835 735.944C597.931 736.563 634.711 740.257 656.077 754.372C663.25 759.114 666.407 764.136 665.469 769.312C662.198 787.296 609.514 801.403 592.516 805.507C602.199 806.099 623.814 807.53 645.222 809.554C662.065 811.173 675.483 812.867 685.112 814.612C701.708 817.587 703.838 820.079 703.838 821.915C703.835 822.114 703.758 822.307 703.618 822.449C703.482 822.591 703.291 822.67 703.095 822.673L8.45397 827.481L8.44893 827.459ZM29.7709 797.568C18.4258 797.568 4.3438 800.162 -2.20951 811.698C-2.61462 812.359 -2.86945 813.105 -2.95558 813.879C-3.04171 814.652 -2.95677 815.437 -2.70729 816.171C-1.03043 821.338 7.40379 825.391 8.59328 825.937L701.922 821.142C700.823 820.127 697.084 818.276 684.868 816.08C675.281 814.362 661.901 812.671 645.1 811.055C616.478 808.304 587.479 806.706 587.191 806.691C587.01 806.679 586.838 806.6 586.71 806.47C586.579 806.344 586.499 806.172 586.484 805.987C586.472 805.803 586.526 805.622 586.633 805.474C586.743 805.329 586.9 805.226 587.078 805.187C587.809 805.03 660.378 789.027 664.016 769.01C664.836 764.495 661.896 759.993 655.278 755.617C634.215 741.704 597.732 738.049 570.835 737.436C552.822 737.044 534.803 737.72 516.867 739.463C516.719 739.478 516.57 739.448 516.44 739.378C516.309 739.309 516.199 739.2 516.131 739.067C516.06 738.931 516.03 738.78 516.045 738.629C516.06 738.478 516.119 738.333 516.214 738.215C516.339 738.064 528.952 722.533 526.036 707.807C524.592 700.541 519.567 694.613 511.159 690.194C484.15 676.028 432.822 667.804 393.693 678.558C393.615 678.576 393.538 678.598 393.464 678.625C389.814 679.624 386.223 680.82 382.701 682.21C378.644 683.807 374.711 685.713 370.937 687.908C347.684 701.513 336.22 721.615 330.696 736.086C324.7 751.772 324.227 764.42 324.227 764.574C324.221 764.731 324.168 764.885 324.073 765.012C323.978 765.139 323.844 765.232 323.693 765.278C323.544 765.323 323.384 765.317 323.235 765.266C323.087 765.211 322.959 765.115 322.87 764.982C316.805 756.737 309.526 749.495 301.287 743.51C283.782 731.052 266.6 728.992 250.206 737.388C232.511 746.439 241.447 767.28 243.417 771.369C243.619 771.737 243.755 772.024 243.812 772.163C243.886 772.341 243.892 772.544 243.826 772.725C243.758 772.909 243.627 773.057 243.455 773.145C243.283 773.229 243.084 773.244 242.903 773.187C242.719 773.13 242.564 773 242.472 772.831C242.413 772.713 242.273 772.441 242.074 772.036C239.847 767.872 231.207 754.508 214.388 758.619C205.095 760.89 203.146 776.458 203.132 776.615C203.114 776.784 203.039 776.944 202.921 777.065C202.802 777.186 202.644 777.261 202.478 777.282C202.312 777.3 202.143 777.264 202 777.173C201.857 777.083 201.748 776.947 201.691 776.787C200.313 773.555 197.797 770.964 194.64 769.521C190.622 767.796 185.712 768.189 180.046 770.699C176.71 772.178 174.664 774.166 173.96 776.621C172.894 780.332 175.222 783.92 175.323 784.074C175.421 784.225 175.463 784.406 175.442 784.585C175.421 784.766 175.335 784.932 175.205 785.056C175.074 785.176 174.902 785.249 174.723 785.252C174.545 785.258 174.37 785.198 174.233 785.086C173.821 784.745 132.658 751.183 109.545 759.28C100.439 762.463 94.6671 767.244 92.3883 773.498C89.129 782.422 94.1994 791.419 94.2493 791.509C94.3366 791.663 94.368 791.845 94.3381 792.02C94.3083 792.195 94.219 792.355 94.0856 792.47C93.9526 792.585 93.7839 792.648 93.6092 792.648C93.4343 792.651 93.2647 792.591 93.1296 792.476C92.9505 792.325 75.0767 777.439 64.8362 784.977C54.5959 792.518 56.437 799.974 56.5166 800.289C56.5499 800.418 56.5493 800.554 56.5148 800.681C56.4807 800.811 56.4138 800.926 56.3209 801.019C56.2282 801.113 56.113 801.182 55.9865 801.216C55.8602 801.249 55.7272 801.249 55.6009 801.216H55.5264C54.5012 800.926 52.3268 800.346 49.2814 799.697C43.4599 798.486 37.5466 797.782 31.6069 797.598C31.0298 797.577 30.4127 797.568 29.7907 797.568H29.7709Z" fill="#392C60"/>
<path d="M538.532 128.448H407.73C407.531 128.448 407.341 128.368 407.201 128.226C407.062 128.083 406.984 127.891 406.984 127.689C406.984 127.488 407.062 127.295 407.201 127.152C407.341 127.01 407.531 126.93 407.73 126.93H538.309C539.304 126.267 544.219 122.781 544.519 118.835C544.653 117.104 543.842 115.465 542.116 113.962C534.697 107.511 519.449 114.013 519.295 114.083C519.149 114.147 518.986 114.161 518.832 114.124C518.674 114.086 518.535 113.999 518.434 113.875C518.33 113.751 518.27 113.597 518.258 113.435C518.249 113.273 518.288 113.112 518.374 112.975C518.448 112.854 526.004 100.609 521.858 91.3603C519.491 86.0729 513.732 82.698 504.757 81.3369C487.694 78.7464 479.877 81.6456 476.334 84.5348C473.349 86.9786 473.117 89.564 473.108 89.6703C473.102 89.77 473.079 89.8675 473.034 89.9575C472.993 90.0472 472.933 90.1275 472.859 90.1937C472.785 90.2601 472.699 90.3108 472.607 90.3435C472.514 90.3761 472.416 90.3897 472.318 90.3839C472.22 90.3779 472.122 90.3522 472.036 90.3087C471.947 90.2649 471.867 90.2039 471.802 90.1293C471.736 90.0547 471.689 89.9675 471.656 89.8732C471.623 89.7787 471.612 89.6791 471.615 89.5794C471.615 89.4426 471.846 86.2803 475.324 83.4065C479.096 80.2947 487.296 77.1527 504.971 79.8342C514.483 81.2813 520.626 84.9497 523.215 90.7379C526.729 98.5805 522.719 107.981 520.679 111.923C525.241 110.304 536.562 107.142 543.07 112.808C545.181 114.645 546.165 116.715 545.995 118.956C545.597 124.087 539.179 128.16 538.906 128.327C538.796 128.401 538.665 128.443 538.532 128.448Z" fill="#392C60"/>
<path d="M403.205 125.667C403.018 125.667 402.839 125.597 402.703 125.471C402.566 125.345 402.48 125.171 402.462 124.984C402.388 124.479 402.441 123.962 402.614 123.483C402.789 123.004 403.077 122.577 403.457 122.242C406.005 120.021 412.738 121.407 414.788 121.898C415.414 121.088 417.036 119.515 421.052 117.673C424.078 116.287 426.237 116.352 427.627 116.752C427.075 114.915 426.715 112.229 428.577 110.635C430.354 109.117 433.523 110.185 435.887 111.353C434.758 109.292 434.405 106.885 434.892 104.578C436 99.7919 441.037 95.8402 449.863 92.845C457.66 90.1937 464.348 90.3656 469.768 93.3508C477.47 97.6111 479.67 106 479.76 106.349C479.795 106.539 479.759 106.737 479.659 106.902C479.558 107.066 479.397 107.185 479.213 107.233C479.029 107.282 478.833 107.256 478.667 107.163C478.5 107.069 478.372 106.914 478.316 106.729C478.316 106.648 476.166 98.608 469.035 94.6766C464.018 91.9088 457.734 91.7774 450.357 94.287C442.061 97.1053 437.354 100.682 436.365 104.912C435.322 109.37 438.922 113.124 438.961 113.16C439.097 113.292 439.177 113.472 439.189 113.662C439.201 113.853 439.139 114.041 439.02 114.189C438.901 114.336 438.732 114.433 438.545 114.459C438.358 114.484 438.171 114.438 438.016 114.328C435.557 112.649 431.09 110.473 429.558 111.798C427.535 113.529 429.715 117.977 429.742 118.017C429.828 118.18 429.852 118.369 429.81 118.55C429.768 118.73 429.662 118.888 429.513 118.995C429.365 119.102 429.183 119.15 429.002 119.13C428.821 119.111 428.655 119.024 428.53 118.887C428.456 118.811 426.487 116.863 421.684 119.059C416.709 121.336 415.824 123.072 415.818 123.107C415.741 123.265 415.613 123.392 415.456 123.467C415.299 123.543 415.12 123.562 414.951 123.522C412.682 122.925 406.368 121.746 404.449 123.421C404.247 123.594 404.096 123.819 404.01 124.071C403.921 124.324 403.903 124.595 403.95 124.858C403.959 124.957 403.95 125.057 403.921 125.153C403.894 125.248 403.846 125.337 403.784 125.414C403.722 125.491 403.644 125.555 403.558 125.602C403.472 125.649 403.377 125.678 403.279 125.687L403.205 125.667Z" fill="#392C60"/>
<path d="M179.711 278.382H-90.8304C-95.9008 277.902 -112.575 276.172 -114.153 274.046C-115.004 272.898 -114.824 271.992 -114.526 271.436C-111.834 266.426 -82.7295 268.283 -75.8328 268.799C-74.987 267.757 -72.0461 265.03 -62.8257 261.716C-55.6056 259.105 -50.968 259.758 -48.4651 260.648C-49.9579 257.324 -50.7838 252.639 -47.0669 250.134C-43.2255 247.543 -35.4081 250.276 -30.7209 252.335C-32.7809 249.714 -34.9852 245.641 -34.025 240.941C-32.3728 232.88 -22.0378 226.268 -3.31343 221.208C22.1834 214.372 37.3203 220.591 45.5255 227.016C54.4822 234.004 57.2689 242.509 57.3833 242.868C57.4361 243.057 57.415 243.26 57.3245 243.433C57.2339 243.606 57.0806 243.737 56.8971 243.798C56.7135 243.859 56.5137 243.845 56.3399 243.76C56.1662 243.674 56.0319 243.523 55.9651 243.339C55.9351 243.253 53.1487 234.864 44.5502 228.16C33.1653 219.29 16.7448 217.393 -2.93506 222.67C-20.8038 227.462 -31.0494 233.872 -32.562 241.219C-34.02 248.302 -26.9044 254.142 -26.8296 254.202C-26.6859 254.32 -26.5905 254.489 -26.5617 254.674C-26.5326 254.86 -26.5727 255.05 -26.6737 255.207C-26.7747 255.364 -26.9294 255.478 -27.1079 255.526C-27.2867 255.574 -27.4765 255.553 -27.6407 255.467C-31.4575 253.413 -42.2302 248.667 -46.2409 251.374C-50.8337 254.47 -46.0767 261.913 -46.0318 261.999C-45.9199 262.151 -45.8679 262.339 -45.886 262.528C-45.9038 262.717 -45.9905 262.892 -46.1292 263.019C-46.2677 263.146 -46.4479 263.215 -46.6344 263.214C-46.8207 263.212 -46.9998 263.14 -47.1367 263.011C-47.1765 262.976 -51.7295 259.312 -62.3232 263.148C-72.9169 266.983 -74.8079 269.958 -74.8278 269.988C-74.9002 270.109 -75.0039 270.208 -75.1274 270.274C-75.2513 270.34 -75.39 270.371 -75.5293 270.363C-75.619 270.363 -84.5507 269.68 -93.6864 269.619C-110.008 269.513 -112.779 271.37 -113.212 272.179C-113.267 272.281 -113.411 272.544 -112.958 273.151C-111.963 274.264 -100.882 275.928 -90.7259 276.89H179.622C187.086 274.669 206.275 267.504 207.338 260.562C207.632 258.66 206.468 256.793 203.884 255.022C188.072 244.174 139.994 254.946 139.511 255.057C139.358 255.092 139.198 255.077 139.054 255.013C138.91 254.949 138.789 254.841 138.71 254.703C138.63 254.566 138.594 254.407 138.608 254.248C138.621 254.089 138.683 253.939 138.785 253.817C140.798 251.085 142.257 247.972 143.077 244.661C143.897 241.35 144.062 237.906 143.562 234.53C141.85 222.614 132.515 211.038 115.816 200.124C99.5644 189.498 84.8804 186.412 72.1667 190.935C51.7655 198.196 43.356 222.872 43.2713 223.125C43.2386 223.22 43.1882 223.306 43.1225 223.381C43.0569 223.456 42.9773 223.516 42.8885 223.559C42.8 223.602 42.7038 223.627 42.6055 223.633C42.5071 223.638 42.4088 223.624 42.3162 223.591C42.2232 223.558 42.138 223.506 42.0646 223.439C41.9912 223.373 41.9319 223.292 41.8894 223.202C41.8469 223.111 41.8223 223.014 41.8169 222.914C41.8116 222.814 41.8255 222.714 41.8582 222.619C41.9428 222.366 50.5959 196.987 71.674 189.488C84.8406 184.803 99.9674 187.945 116.622 198.834C133.719 210.011 143.283 221.957 145.045 234.333C146.01 240.884 144.609 247.569 141.099 253.15C150.409 251.197 190.026 243.673 204.721 253.752C207.825 255.882 209.2 258.25 208.811 260.785C207.374 270.135 181.056 278.033 179.952 278.367C179.871 278.386 179.791 278.392 179.711 278.382Z" fill="#392C60"/>
</g>
<defs>
<linearGradient id="paint0_linear_2720_4335" x1="720" y1="-3.01379e-05" x2="719.736" y2="820" gradientUnits="userSpaceOnUse">
<stop stop-color="#959595" stop-opacity="0.1"/>
<stop offset="1" stop-color="white" stop-opacity="0"/>
</linearGradient>
<clipPath id="clip0_2720_4335">
<rect width="1440" height="820" fill="white"/>
</clipPath>
</defs>
</svg>
