<svg width="40" height="40" viewBox="0 0 40 40" fill="none" xmlns="http://www.w3.org/2000/svg">
<rect width="40" height="40" rx="5" fill="#FFA300"/>
<path d="M26.7917 9.14062H15.3333C13.6104 9.14062 12.2083 10.685 12.2083 12.5828V13.7302H11.1667C10.8904 13.7302 10.6254 13.8511 10.4301 14.0663C10.2347 14.2814 10.125 14.5733 10.125 14.8776C10.125 15.1819 10.2347 15.4737 10.4301 15.6889C10.6254 15.9041 10.8904 16.025 11.1667 16.025H12.2083V18.3198H11.1667C10.8904 18.3198 10.6254 18.4406 10.4301 18.6558C10.2347 18.871 10.125 19.1628 10.125 19.4672C10.125 19.7715 10.2347 20.0633 10.4301 20.2785C10.6254 20.4937 10.8904 20.6145 11.1667 20.6145H12.2083V22.9093H11.1667C10.8904 22.9093 10.6254 23.0302 10.4301 23.2454C10.2347 23.4606 10.125 23.7524 10.125 24.0567C10.125 24.361 10.2347 24.6529 10.4301 24.8681C10.6254 25.0832 10.8904 25.2041 11.1667 25.2041H12.2083V26.3515C12.2083 28.2493 13.6104 29.7937 15.3333 29.7937H26.7917C28.5146 29.7937 29.9167 28.2493 29.9167 26.3515V12.5828C29.9167 10.685 28.5146 9.14062 26.7917 9.14062ZM14.2917 12.5828C14.2917 11.9506 14.7594 11.4354 15.3333 11.4354V13.7302H14.2917V12.5828ZM14.2917 16.025H15.3333V18.3198H14.2917V16.025ZM14.2917 20.6145H15.3333V22.9093H14.2917V20.6145ZM14.2917 26.3515V25.2041H15.3333V27.4989C14.7594 27.4989 14.2917 26.9837 14.2917 26.3515ZM27.8333 26.3515C27.8333 26.9837 27.3656 27.4989 26.7917 27.4989H16.375V11.4354H26.7917C27.3656 11.4354 27.8333 11.9506 27.8333 12.5828V26.3515Z" fill="white"/>
<path d="M21.5 20C22.8807 20 24 18.8807 24 17.5C24 16.1193 22.8807 15 21.5 15C20.1193 15 19 16.1193 19 17.5C19 18.8807 20.1193 20 21.5 20Z" fill="white"/>
<path d="M21.5 20C19.3132 20 18 21.334 18 22.666C18 23.3321 19.3132 24 21.5 24C23.5524 24 25 23.334 25 22.666C25 21.334 23.628 20 21.5 20Z" fill="white"/>
</svg>
