<svg width="40" height="40" viewBox="0 0 40 40" fill="none" xmlns="http://www.w3.org/2000/svg">
<rect width="40" height="40" rx="5" fill="#41A0D8"/>
<g clip-path="url(#clip0_2297_3179)">
<path d="M20.0683 26.874C16.0453 26.874 14.2483 24.895 14.2483 23.41C14.2483 22.645 14.8093 22.114 15.5813 22.114C17.3043 22.114 16.8543 24.591 20.0683 24.591C21.7093 24.591 22.6183 23.696 22.6183 22.78C22.6183 22.229 22.3493 21.62 21.2643 21.351L17.6883 20.456C14.8083 19.732 14.2853 18.17 14.2853 16.705C14.2853 13.658 17.1463 12.514 19.8343 12.514C22.3053 12.514 25.2273 13.887 25.2273 15.713C25.2273 16.497 24.5393 16.953 23.7743 16.953C22.3053 16.953 22.5763 14.916 19.6103 14.916C18.1413 14.916 17.3183 15.58 17.3183 16.533C17.3183 17.486 18.4713 17.791 19.4753 18.02L22.1123 18.607C25.0033 19.256 25.7363 20.953 25.7363 22.551C25.7363 25.027 23.8343 26.875 20.0143 26.875M31.0983 21.993L31.0693 22.128L31.0253 21.888C31.0403 21.933 31.0693 21.962 31.0843 22.008C31.2043 21.333 31.2653 20.645 31.2653 19.956C31.2656 18.4668 30.972 16.9922 30.4014 15.6167C29.8309 14.2412 28.9945 12.9918 27.9403 11.94C26.907 10.9103 25.6869 10.0869 24.3453 9.514C23.0273 8.883 21.5443 8.584 20.0173 8.584C19.2973 8.584 18.5733 8.654 17.8743 8.788L17.9933 8.848L17.7543 8.815L17.8733 8.79C16.9065 8.27217 15.827 8.00082 14.7303 8C12.9413 8 11.2603 8.698 9.99428 9.967C9.36977 10.5898 8.87477 11.3301 8.53785 12.1452C8.20093 12.9603 8.02876 13.834 8.03128 14.716C8.03128 15.859 8.32328 16.981 8.87528 17.974L8.89528 17.85L8.93628 18.089L8.87528 17.974C8.49894 20.1221 8.74703 22.333 9.58828 24.345C10.1473 25.6984 10.9727 26.9257 12.0153 27.954C13.0447 28.9924 14.2655 29.8217 15.6103 30.396C17.0043 30.996 18.4873 31.294 20.0143 31.294C20.6733 31.294 21.3483 31.234 21.9913 31.115L21.8723 31.053L22.1123 31.099L21.9773 31.129C22.9809 31.7008 24.1162 32.001 25.2713 32C26.1509 32.0026 27.0222 31.8304 27.8348 31.4934C28.6473 31.1564 29.3847 30.6614 30.0043 30.037C30.6285 29.414 31.1232 28.6737 31.4599 27.8586C31.7967 27.0435 31.9688 26.1699 31.9663 25.288C31.9622 24.1448 31.6687 23.0212 31.1133 22.022" fill="white"/>
</g>
<defs>
<clipPath id="clip0_2297_3179">
<rect width="24" height="24" fill="white" transform="translate(8 8)"/>
</clipPath>
</defs>
</svg>
